<svg xmlns="http://www.w3.org/2000/svg" width="900" height="900"><rect width="900" height="900" x="0" y="0" fill="#FFFFFF" id="backgorund"/><g transform="translate(450,450)" id="viz"><path fill="#d62728" display="" d="M0.9999965564774099,-291.3316170929584A291.3333333333333,291.3333333333333,0,0,1,266.42935530535556,117.85800669739709L134.32931264302718,58.87908691515999A146.66666666666666,146.66666666666666,0,0,0,0.9999965564773962,-146.6632575596156Z"><title>Modern orchestra</title></path><path fill="#ff7f0e" display="" d="M265.6139908832077,119.68424690913322A291.3333333333333,291.3333333333333,0,0,1,-130.1561162558788,260.6424687427152L-65.08018302730642,131.43698447637715A146.66666666666666,146.66666666666666,0,0,0,133.51394822087929,60.7053271268961Z"><title>Early Romantic orchestra</title></path><path fill="#2ca02c" display="" d="M-131.94234013732876,259.7428150886883A291.3333333333333,291.3333333333333,0,0,1,-198.57333879277417,-213.1753743559542L-100.33105126376618,-106.98033119886398A146.66666666666666,146.66666666666666,0,0,0,-66.86640690875649,130.53733082235024Z"><title>Late Romantic orchestra</title></path><path fill="#1f77b4" display="" d="M-197.10522679074967,-214.53354209278848A291.3333333333333,291.3333333333333,0,0,1,-0.999996556477381,-291.3316170929584L-0.999996556477349,-146.6632575596156A146.66666666666666,146.66666666666666,0,0,0,-98.86293926174156,-108.33849893569833Z"><title>Classical orchestra</title></path><path fill="#d62728" display="" d="M0.9999965564773987,-437.9988584538629A438,438,0,0,1,26.23216806520696,-437.21376162993624L17.238258849077884,-292.82637667446664A293.3333333333333,293.3333333333333,0,0,0,0.9999965564774163,-293.33162879466556Z"><title>Baritone horn</title></path><path fill="#d62728" display="" d="M28.22829238575121,-437.08942278323843A438,438,0,0,1,53.362845524696425,-434.7371696985518L35.409822779974085,-291.1882361894712A293.3333333333333,293.3333333333333,0,0,0,19.234383169622188,-292.7020378277688Z"><title>Bass Drum</title></path><path fill="#d62728" display="" d="M55.34737843561546,-434.48897304799897A438,438,0,0,1,80.28707250150092,-430.5786641127713L53.44439298550135,-288.4235449869787A293.3333333333333,293.3333333333333,0,0,0,37.39435569089317,-290.94003953891837Z"><title>Bassoons</title></path><path fill="#d62728" display="" d="M82.25233623049202,-430.20756988298814A438,438,0,0,1,106.90068439194087,-424.7543333228452L71.27219721705964,-284.54299912016285A293.3333333333333,293.3333333333333,0,0,0,55.40965671449251,-288.05245075719546Z"><title>Celesta</title></path><path fill="#d62728" display="" d="M108.83907571542284,-424.2617772053151A438,438,0,0,1,133.10071830176392,-417.28671053312314L88.82426316343457,-279.56161166711956A293.3333333333333,293.3333333333333,0,0,0,73.21058854054165,-284.0504430026328Z"><title>Cellos</title></path><path fill="#d62728" display="" d="M135.00473796027202,-416.67459813177754A438,438,0,0,1,158.78581138957972,-408.20468652546464L106.03268529126998,-273.4986546481846A293.3333333333333,293.3333333333333,0,0,0,90.7282828219427,-278.9494992657739Z"><title>Clarinets</title></path><path fill="#d62728" display="" d="M160.64809310094373,-407.4753859842709A438,438,0,0,1,183.85659302000252,-397.54339788641585L122.83088755838523,-266.3775844662305A293.3333333333333,293.3333333333333,0,0,0,107.89496700263405,-272.7693541069908Z"><title>Cymbals</title></path><path fill="#d62728" display="" d="M185.66993197806138,-396.6997307274887A438,438,0,0,1,208.21606920933428,-385.344091070583L139.15388098354825,-258.2259511584011A293.3333333333333,293.3333333333333,0,0,0,124.64422651644419,-265.5339173073033Z"><title>Double basses</title></path><path fill="#d62728" display="" d="M209.9734499579316,-384.3893212782634A438,438,0,0,1,231.76999787644561,-371.6539628261112L154.9385150762192,-249.07529181036932A293.3333333333333,293.3333333333333,0,0,0,140.91126173214562,-257.27118136608146Z"><title>Flutes</title></path><path fill="#d62728" display="" d="M233.46462145086645,-370.59178421924526A438,438,0,0,1,254.42725344707884,-356.52597759963567L170.12372215353,-238.96100854547998A293.3333333333333,293.3333333333333,0,0,0,156.6331386506401,-248.0131132035034Z"><title>French Horns</title></path><path fill="#d62728" display="" d="M256.0525636779235,-355.36049954090697A438,438,0,0,1,276.1001794009926,-340.0186626271266L184.65075359928602,-227.92223156081153A293.3333333333333,293.3333333333333,0,0,0,171.74903238437471,-237.79553048675123Z"><title>Glockenspiel</title></path><path fill="#d62728" display="" d="M277.6498882787224,-338.7543941247301A438,438,0,0,1,296.70492739800954,-322.1958815033828L198.4634071509492,-216.0016677400455A293.3333333333333,293.3333333333333,0,0,0,186.20046247701586,-226.65796305841505Z"><title>Harps</title></path><path fill="#d62728" display="" d="M298.1730394000341,-320.83771376654846A438,438,0,0,1,316.1617816709557,-303.1265871061906L211.50824433527353,-203.24543542882992A293.3333333333333,293.3333333333333,0,0,0,199.93151915297386,-214.6435000032111Z"><title>Marimba</title></path><path fill="#d62728" display="" d="M317.5426169571453,-301.67977462204476A438,438,0,0,1,334.3954674304774,-282.88455483103434L223.73479721137664,-189.7028860118596A293.3333333333333,293.3333333333333,0,0,0,212.88907962146308,-201.79862294468407Z"><title>Oboes</title></path><path fill="#d62728" display="" d="M335.6836838173607,-281.35469503601007A438,438,0,0,1,351.3354420885781,-261.54809716842414L235.09576362139907,-175.4264129819557A293.3333333333333,293.3333333333333,0,0,0,225.02301359825995,-188.1730262168352Z"><title>Piano</title></path><path fill="#d62728" display="" d="M352.52605571721233,-259.9411087928666A438,438,0,0,1,366.91616817418657,-239.19976072808274L245.54719019336338,-160.47124923982074A293.3333333333333,293.3333333333333,0,0,0,236.28637725003335,-173.81942460639823Z"><title>Pipe organ</title></path><path fill="#d62728" display="" d="M368.00457279173975,-237.52186089783206A438,438,0,0,1,381.07736688490166,-215.9260068821495L255.04864238823188,-144.89525340867533A293.3333333333333,293.3333333333333,0,0,0,246.63559481091664,-158.79334940957Z"><title>Snare Drum</title></path><path fill="#d62728" display="" d="M382.0593516653498,-214.18368706568793A438,438,0,0,1,393.7642512939678,-191.81687726292748L263.56336093328304,-128.75868599048528A293.3333333333333,293.3333333333333,0,0,0,256.0306271686801,-143.15293359221377Z"><title>Tam-tam</title></path><path fill="#d62728" display="" d="M394.6360171289628,-190.0168781571494A438,438,0,0,1,404.92773831025164,-166.9656454093007L271.0584040365966,-112.12397622978598A293.3333333333333,293.3333333333333,0,0,0,264.4351267682781,-126.95868688470719Z"><title>Tambourine</title></path><path fill="#d62728" display="" d="M405.6859125071335,-165.11493086106555A438,438,0,0,1,414.52463857118653,-141.46845590953185L277.50477483244657,-95.05548058706329A293.3333333333333,293.3333333333333,0,0,0,271.81657823347837,-110.27326168155085Z"><title>Tenor drum</title></path><path fill="#d62728" display="" d="M415.1662879012757,-139.57418597389366A438,438,0,0,1,422.5178235340257,-115.42395243652827L282.87753356454226,-77.61923375611023A293.3333333333333,293.3333333333333,0,0,0,278.1464241625357,-93.16121065142512Z"><title>Timpani</title></path><path fill="#d62728" display="" d="M423.0404655807155,-113.49345567587352A438,438,0,0,1,428.8763691189614,-88.93289611463447L287.1558940731,-59.882693188625126A293.3333333333333,293.3333333333333,0,0,0,283.4001756112321,-75.68873699545551Z"><title>Triangle</title></path><path fill="#d62728" display="" d="M429.27798188170544,-86.973641245898A438,438,0,0,1,433.5756753483824,-62.09777569441689L290.3233042124571,-41.91447811443568A293.3333333333333,293.3333333333333,0,0,0,287.55750683584404,-57.92343831988863Z"><title>Trombones</title></path><path fill="#d62728" display="" d="M433.8547050654218,-60.11734269406686A438,438,0,0,1,436.59756151940803,-35.02241104359791L292.3675098881084,-23.784104067029304A293.3333333333333,293.3333333333333,0,0,0,290.6023339294965,-39.934045114085635Z"><title>Trumpets</title></path><path fill="#d62728" display="" d="M436.75292867897383,-33.02846182217954A438,438,0,0,1,437.93033654149593,-7.811551488156589L293.28060246541673,-5.561713941458629A293.3333333333333,293.3333333333333,0,0,0,292.5228770476742,-21.790154845610925Z"><title>Tubas</title></path><path fill="#d62728" display="" d="M437.9614400582306,-5.811800247848619A438,438,0,0,1,437.5688441670001,19.42952944246427L293.0590493665846,12.682193374893018A293.3333333333333,293.3333333333333,0,0,0,293.3117059821514,-3.5619627011506605Z"><title>Tubular bells</title></path><path fill="#d62728" display="" d="M437.47556370743973,21.427346052599127A438,438,0,0,1,435.51448293969133,46.5954412981923L291.70370773751074,30.87703574881126A293.3333333333333,293.3333333333333,0,0,0,292.9657689070242,14.680009985027874Z"><title>Vibraphone</title></path><path fill="#d62728" display="" d="M435.2971793878127,48.58359411379964A438,438,0,0,1,431.7752007840632,73.581084443503L289.21982113165967,48.95242086981227A293.3333333333333,293.3333333333333,0,0,0,291.486404185632,32.86518856441861Z"><title>Violas</title></path><path fill="#d62728" display="" d="M431.4347148450934,75.5518816875721A438,438,0,0,1,426.3654642563559,100.28205666749221L285.61699922377176,66.83841858431717A293.3333333333333,293.3333333333333,0,0,0,288.8793351926899,50.9232181138814Z"><title>Violins 1</title></path><path fill="#d62728" display="" d="M425.90311320424775,102.22787370834702A438,438,0,0,1,419.30620257626083,126.5950570957481L280.9091806318986,84.46583144183103A293.3333333333333,293.3333333333333,0,0,0,285.1546481716636,68.784235625172Z"><title>Violins 2</title></path><path fill="#d62728" display="" d="M418.7237751574152,128.50836594526598A438,438,0,0,1,410.6247266558354,152.4182858413664L275.1145789915974,101.76646240643603A293.3333333333333,293.3333333333333,0,0,0,280.32675321305294,86.37914029134888Z"><title>Wood block</title></path><path fill="#d62728" display="" d="M409.9244761687893,154.29168427930165A438,438,0,0,1,400.3546234388898,177.65183784893634L268.2556124909135,118.67337869787511A293.3333333333333,293.3333333333333,0,0,0,274.4143285045513,103.63986084437128Z"><title>Xylophone</title></path><path fill="#ff7f0e" display="" d="M399.5392590167421,179.47807806067195A438,438,0,0,1,388.5356259596266,202.19808940779126L260.3588171387662,135.12117074147537A293.3333333333333,293.3333333333333,0,0,0,267.4402480687658,120.49961890961086Z"><title>Bass Clarinet</title></path><path fill="#ff7f0e" display="" d="M387.6083020889276,203.97010602472758A438,438,0,0,1,375.21345962324915,225.96207583918238L251.4547441022843,151.04620522508716A293.3333333333333,293.3333333333333,0,0,0,259.43149326806724,136.89318735841167Z"><title>Bass Drum</title></path><path fill="#ff7f0e" display="" d="M374.17776393990624,227.67301327327266A438,438,0,0,1,360.43966530325326,248.8518588961689L241.5778415102769,166.38687128400474A293.3333333333333,293.3333333333333,0,0,0,250.41904841894146,152.75714265917748Z"><title>Bassoons</title></path><path fill="#ff7f0e" display="" d="M359.29960471266367,250.49509786285964A438,438,0,0,1,344.27139993979966,270.7788824548372L230.76632118011437,181.08381886143422A293.3333333333333,293.3333333333333,0,0,0,240.4377809196873,168.03011025069551Z"><title>Cellos</title></path><path fill="#ff7f0e" display="" d="M343.0313851149119,272.34806558179366A438,438,0,0,1,326.7712154106159,291.6583151207399L219.06201078363046,195.08018832233327A293.3333333333333,293.3333333333333,0,0,0,229.5263063552266,182.65300198839083Z"><title>Clarinets</title></path><path fill="#ff7f0e" display="" d="M325.4360437278933,293.14737154328486A438,438,0,0,1,308.00681652993393,311.4093784250815L206.5101920239856,208.32183043229293A293.3333333333333,293.3333333333333,0,0,0,217.72683910090782,196.5692447448782Z"><title>Contrabassoon</title></path><path fill="#ff7f0e" display="" d="M306.5816535092369,312.8125472731908A438,438,0,0,1,288.05079911171595,329.95565934092093L193.15942544955445,220.75751585040643A293.3333333333333,293.3333333333333,0,0,0,205.08502900328858,209.72499928040222Z"><title>Cornet</title></path><path fill="#ff7f0e" display="" d="M286.54115843190914,331.2675120269109A438,438,0,0,1,266.9803691105537,347.2254059103287L179.06136258259752,232.33913332563668A293.3333333333333,293.3333333333333,0,0,0,191.64978476974764,222.0693685363964Z"><title>Cymbals</title></path><path fill="#ff7f0e" display="" d="M265.39209127815366,348.4408671310071A438,438,0,0,1,244.87704392682846,363.1518048387728L164.270546089556,243.0218758299003A293.3333333333333,293.3333333333333,0,0,0,177.47308475019744,233.55459454631514Z"><title>Double basses</title></path><path fill="#ff7f0e" display="" d="M243.21627368021845,364.2661722108012A438,438,0,0,1,221.82633703172522,377.6732399827759L148.8441987660712,252.76441390775466A293.3333333333333,293.3333333333333,0,0,0,162.609775842946,244.13624320192875Z"><title>English Horn</title></path><path fill="#ff7f0e" display="" d="M220.09949956835624,378.68220223527686A438,438,0,0,1,197.91742713222513,390.73353073080426L132.84200215310452,261.529055572032A293.3333333333333,293.3333333333333,0,0,0,147.1173613027022,253.77337616025568Z"><title>Flutes</title></path><path fill="#ff7f0e" display="" d="M196.1312032507751,391.6331843848311A438,438,0,0,1,173.24281315601263,402.28214935513967L116.32586564064978,269.2818921268156A293.3333333333333,293.3333333333333,0,0,0,131.05577827165442,262.4287092260589Z"><title>French Horns</title></path><path fill="#ff7f0e" display="" d="M171.40411340967412,403.06901382547824A438,438,0,0,1,147.89795639109377,412.2744164938423L99.35968695233024,275.9929293535966A293.3333333333333,293.3333333333333,0,0,0,114.48716589431123,270.06875659715416Z"><title>Glockenspiel</title></path><path fill="#ff7f0e" display="" d="M146.01389435198638,412.9454475547187A438,438,0,0,1,121.98091116461798,420.6716740065221L82.0091049375192,281.6362035530791A293.3333333333333,293.3333333333333,0,0,0,97.47562491322282,276.6639604144731Z"><title>Harps</title></path><path fill="#ff7f0e" display="" d="M120.05877590275958,421.2242755691212A438,438,0,0,1,95.59194548973497,427.4414345351741L64.34124562738316,286.18988199368823A293.3333333333333,293.3333333333333,0,0,0,80.08696967566075,282.18880511567824Z"><title>Oboes</title></path><path fill="#ff7f0e" display="" d="M93.63917337304589,427.8734686914026A438,438,0,0,1,68.8331531481307,432.5575071914554L46.42446253730769,289.63634737816756A293.3333333333333,293.3333333333333,0,0,0,62.38847351069403,286.6219161499167Z"><title>Piccolo</title></path><path fill="#ff7f0e" display="" d="M66.85729907257084,432.86730248509275A438,438,0,0,1,41.80805870901946,436.0000988841438L28.32807222042519,291.96226600147975A293.3333333333333,293.3333333333333,0,0,0,44.44860846174777,289.946142671805Z"><title>Snare Drum</title></path><path fill="#ff7f0e" display="" d="M39.81676687016354,436.18645677738215A438,438,0,0,1,14.621217012697054,437.75589089476296L10.12208609533682,293.1586393363208A293.3333333333333,293.3333333333333,0,0,0,26.33678038156922,292.148623894718Z"><title>Tambourine</title></path><path fill="#ff7f0e" display="" d="M12.622191331826945,437.8180904051165A438,438,0,0,1,-12.622191331824755,437.81809040511655L-8.123060414465195,293.2208388466744A293.3333333333333,293.3333333333333,0,0,0,8.123060414466664,293.2208388466743Z"><title>Timpani</title></path><path fill="#ff7f0e" display="" d="M-14.621217012694858,437.755890894763A438,438,0,0,1,-39.81676687016135,436.1864567773823L-26.336780381567756,292.1486238947182A293.3333333333333,293.3333333333333,0,0,0,-10.122086095335353,293.15863933632085Z"><title>Triangle</title></path><path fill="#ff7f0e" display="" d="M-41.808058709017274,436.000098884144A438,438,0,0,1,-66.85729907256867,432.8673024850931L-44.44860846174631,289.94614267180515A293.3333333333333,293.3333333333333,0,0,0,-28.32807222042373,291.96226600147986Z"><title>Trombones</title></path><path fill="#ff7f0e" display="" d="M-68.83315314812853,432.5575071914557A438,438,0,0,1,-93.63917337304375,427.873468691403L-62.388473510692585,286.62191614991696A293.3333333333333,293.3333333333333,0,0,0,-46.42446253730624,289.6363473781678Z"><title>Trumpets</title></path><path fill="#ff7f0e" display="" d="M-95.59194548973284,427.4414345351746A438,438,0,0,1,-120.05877590275749,421.2242755691218L-80.08696967565935,282.18880511567863A293.3333333333333,293.3333333333333,0,0,0,-64.34124562738172,286.1898819936885Z"><title>Tubas</title></path><path fill="#ff7f0e" display="" d="M-121.98091116461586,420.6716740065227A438,438,0,0,1,-146.01389435198433,412.94544755471946L-97.47562491322142,276.6639604144736A293.3333333333333,293.3333333333333,0,0,0,-82.00910493751779,281.6362035530795Z"><title>Violas</title></path><path fill="#ff7f0e" display="" d="M-147.8979563910917,412.27441649384303A438,438,0,0,1,-171.4041134096721,403.06901382547915L-114.48716589430988,270.06875659715473A293.3333333333333,293.3333333333333,0,0,0,-99.35968695232886,275.9929293535971Z"><title>Violins 1</title></path><path fill="#ff7f0e" display="" d="M-173.2428131560106,402.2821493551405A438,438,0,0,1,-196.1312032507731,391.63318438483213L-131.05577827165317,262.42870922605954A293.3333333333333,293.3333333333333,0,0,0,-116.32586564064843,269.2818921268161Z"><title>Violins 2</title></path><path fill="#2ca02c" display="" d="M-197.9174271322244,390.73353073080466A438,438,0,0,1,-220.0994995683555,378.6822022352773L-147.11736130270177,253.7733761602559A293.3333333333333,293.3333333333333,0,0,0,-132.84200215310398,261.5290555720323Z"><title>Bass Clarinet</title></path><path fill="#2ca02c" display="" d="M-221.8263370317245,377.67323998277635A438,438,0,0,1,-243.21627368021777,364.26617221080164L-162.60977584294557,244.136243201929A293.3333333333333,293.3333333333333,0,0,0,-148.8441987660707,252.764413907755Z"><title>Bass Drum</title></path><path fill="#2ca02c" display="" d="M-244.87704392682778,363.1518048387733A438,438,0,0,1,-265.39209127815303,348.4408671310076L-177.47308475019705,233.55459454631546A293.3333333333333,293.3333333333333,0,0,0,-164.2705460895555,243.02187582990067Z"><title>Bassoons</title></path><path fill="#2ca02c" display="" d="M-266.980369110553,347.2254059103292A438,438,0,0,1,-286.5411584319085,331.2675120269114L-191.64978476974727,222.0693685363967A293.3333333333333,293.3333333333333,0,0,0,-179.06136258259704,232.33913332563708Z"><title>Celesta</title></path><path fill="#2ca02c" display="" d="M-288.0507991117153,329.9556593409215A438,438,0,0,1,-306.5816535092363,312.81254727319134L-205.08502900328824,209.72499928040259A293.3333333333333,293.3333333333333,0,0,0,-193.159425449554,220.75751585040686Z"><title>Cellos</title></path><path fill="#2ca02c" display="" d="M-308.0068165299333,311.4093784250821A438,438,0,0,1,-325.4360437278928,293.1473715432855L-217.7268391009075,196.56924474487857A293.3333333333333,293.3333333333333,0,0,0,-206.51019202398516,208.32183043229338Z"><title>Chimes</title></path><path fill="#2ca02c" display="" d="M-326.77121541061535,291.65831512074055A438,438,0,0,1,-343.03138511491153,272.34806558179423L-229.52630635522638,182.65300198839108A293.3333333333333,293.3333333333333,0,0,0,-219.06201078363003,195.08018832233373Z"><title>Clarinets</title></path><path fill="#2ca02c" display="" d="M-344.27139993979927,270.7788824548376A438,438,0,0,1,-359.29960471266344,250.49509786286L-240.43778091968716,168.0301102506957A293.3333333333333,293.3333333333333,0,0,0,-230.76632118011406,181.08381886143462Z"><title>Contrabassoon</title></path><path fill="#2ca02c" display="" d="M-360.43966530325304,248.8518588961693A438,438,0,0,1,-374.1777639399062,227.67301327327283L-250.41904841894137,152.75714265917753A293.3333333333333,293.3333333333333,0,0,0,-241.57784151027673,166.38687128400503Z"><title>Cymbals</title></path><path fill="#2ca02c" display="" d="M-375.213459623249,225.96207583918257A438,438,0,0,1,-387.6083020889276,203.9701060247276L-259.4314932680673,136.89318735841167A293.3333333333333,293.3333333333333,0,0,0,-251.4547441022842,151.04620522508736Z"><title>Double basses</title></path><path fill="#2ca02c" display="" d="M-388.53562595962654,202.19808940779134A438,438,0,0,1,-399.5392590167422,179.4780780606718L-267.4402480687658,120.49961890961073A293.3333333333333,293.3333333333333,0,0,0,-260.35881713876614,135.12117074147542Z"><title>English Horn</title></path><path fill="#2ca02c" display="" d="M-400.35462343889003,177.6518378489357A438,438,0,0,1,-409.92447616878957,154.29168427930088L-274.4143285045515,103.63986084437072A293.3333333333333,293.3333333333333,0,0,0,-268.2556124909137,118.67337869787471Z"><title>Flutes</title></path><path fill="#2ca02c" display="" d="M-410.6247266558357,152.41828584136564A438,438,0,0,1,-418.72377515741545,128.5083659452651L-280.32675321305317,86.37914029134825A293.3333333333333,293.3333333333333,0,0,0,-275.11457899159757,101.76646240643558Z"><title>French Horns</title></path><path fill="#2ca02c" display="" d="M-419.3062025762611,126.59505709574725A438,438,0,0,1,-425.903113204248,102.22787370834602L-285.1546481716638,68.78423562517128A293.3333333333333,293.3333333333333,0,0,0,-280.9091806318987,84.46583144183047Z"><title>Glockenspiel</title></path><path fill="#2ca02c" display="" d="M-426.3654642563561,100.28205666749122A438,438,0,0,1,-431.43471484509365,75.551881687571L-288.87933519269006,50.92321811388061A293.3333333333333,293.3333333333333,0,0,0,-285.61699922377187,66.83841858431657Z"><title>Harps</title></path><path fill="#2ca02c" display="" d="M-431.7752007840634,73.58108444350192A438,438,0,0,1,-435.2971793878128,48.58359411379842L-291.4864041856321,32.86518856441775A293.3333333333333,293.3333333333333,0,0,0,-289.2198211316597,48.9524208698116Z"><title>Oboes</title></path><path fill="#2ca02c" display="" d="M-435.5144829396915,46.595441298191105A438,438,0,0,1,-437.4755637074398,21.427346052597805L-292.96576890702426,14.680009985026947A293.3333333333333,293.3333333333333,0,0,0,-291.7037077375108,30.877035748810506Z"><title>Piano</title></path><path fill="#2ca02c" display="" d="M-437.5688441670002,19.429529442462975A438,438,0,0,1,-437.9614400582306,-5.811800247850038L-293.3117059821514,-3.561962701151655A293.3333333333333,293.3333333333333,0,0,0,-293.0590493665846,12.682193374892195Z"><title>Piccolo</title></path><path fill="#2ca02c" display="" d="M-437.93033654149593,-7.811551488157978A438,438,0,0,1,-436.7529286789738,-33.02846182218104L-292.5228770476741,-21.790154845611983A293.3333333333333,293.3333333333333,0,0,0,-293.28060246541673,-5.561713941459518Z"><title>Snare Drum</title></path><path fill="#2ca02c" display="" d="M-436.5975615194079,-35.0224110435994A438,438,0,0,1,-433.85470506542157,-60.117342694068455L-290.60233392949635,-39.93404511408676A293.3333333333333,293.3333333333333,0,0,0,-292.3675098881083,-23.784104067030253Z"><title>Tam-tam</title></path><path fill="#2ca02c" display="" d="M-433.57567534838216,-62.09777569441846A438,438,0,0,1,-429.2779818817051,-86.97364124589967L-287.5575068358438,-57.923438319889804A293.3333333333333,293.3333333333333,0,0,0,-290.323304212457,-41.91447811443668Z"><title>Tambourine</title></path><path fill="#2ca02c" display="" d="M-428.87636911896107,-88.93289611463614A438,438,0,0,1,-423.040465580715,-113.49345567587527L-283.4001756112318,-75.68873699545674A293.3333333333333,293.3333333333333,0,0,0,-287.1558940730998,-59.882693188626185Z"><title>Timpani</title></path><path fill="#2ca02c" display="" d="M-422.5178235340252,-115.42395243652996A438,438,0,0,1,-415.1662879012751,-139.57418597389548L-278.1464241625353,-93.16121065142636A293.3333333333333,293.3333333333333,0,0,0,-282.877533564542,-77.61923375611134Z"><title>Triangle</title></path><path fill="#2ca02c" display="" d="M-414.52463857118596,-141.46845590953365A438,438,0,0,1,-405.6859125071327,-165.1149308610674L-271.8165782334778,-110.27326168155211A293.3333333333333,293.3333333333333,0,0,0,-277.5047748324462,-95.05548058706445Z"><title>Trombones</title></path><path fill="#2ca02c" display="" d="M-404.92773831025096,-166.9656454093025A438,438,0,0,1,-394.6360171289619,-190.01687815715127L-264.4351267682775,-126.9586868847085A293.3333333333333,293.3333333333333,0,0,0,-271.0584040365961,-112.12397622978716Z"><title>Trumpets</title></path><path fill="#2ca02c" display="" d="M-393.7642512939669,-191.81687726292935A438,438,0,0,1,-382.05935166534874,-214.18368706568987L-256.03062716867936,-143.1529335922151A293.3333333333333,293.3333333333333,0,0,0,-263.56336093328247,-128.75868599048647Z"><title>Tubas</title></path><path fill="#2ca02c" display="" d="M-381.0773668849005,-215.92600688215137A438,438,0,0,1,-368.00457279173855,-237.521860897834L-246.63559481091576,-158.79334940957136A293.3333333333333,293.3333333333333,0,0,0,-255.04864238823117,-144.89525340867655Z"><title>Violas</title></path><path fill="#2ca02c" display="" d="M-366.9161681741853,-239.1997607280847A438,438,0,0,1,-352.5260557172108,-259.9411087928686L-236.28637725003233,-173.8194246063996A293.3333333333333,293.3333333333333,0,0,0,-245.54719019336258,-160.47124923982196Z"><title>Violins 1</title></path><path fill="#2ca02c" display="" d="M-351.3354420885766,-261.5480971684261A438,438,0,0,1,-335.68368381735905,-281.35469503601206L-225.02301359825879,-188.1730262168366A293.3333333333333,293.3333333333333,0,0,0,-235.09576362139813,-175.42641298195701Z"><title>Violins 2</title></path><path fill="#2ca02c" display="" d="M-334.3954674304758,-282.8845548310364A438,438,0,0,1,-317.54261695714337,-301.67977462204675L-212.88907962146178,-201.79862294468546A293.3333333333333,293.3333333333333,0,0,0,-223.7347972113756,-189.7028860118609Z"><title>Wagner Tuba</title></path><path fill="#2ca02c" display="" d="M-316.1617816709538,-303.1265871061926A438,438,0,0,1,-298.173039400032,-320.83771376655045L-199.93151915297236,-214.64350000321247A293.3333333333333,293.3333333333333,0,0,0,-211.50824433527228,-203.24543542883123Z"><title>Xylophone</title></path><path fill="#1f77b4" display="" d="M-296.7049273980097,-322.1958815033827A438,438,0,0,1,-277.6498882787224,-338.7543941247301L-186.20046247701598,-226.657963058415A293.3333333333333,293.3333333333333,0,0,0,-198.46340715094937,-216.00166774004535Z"><title>Bassoons</title></path><path fill="#1f77b4" display="" d="M-276.10017940099266,-340.01866262712656A438,438,0,0,1,-256.05256367792344,-355.360499540907L-171.74903238437471,-237.79553048675123A293.3333333333333,293.3333333333333,0,0,0,-184.650753599286,-227.92223156081155Z"><title>Cellos</title></path><path fill="#1f77b4" display="" d="M-254.42725344707875,-356.5259775996357A438,438,0,0,1,-233.46462145086625,-370.59178421924537L-156.63313865064,-248.01311320350345A293.3333333333333,293.3333333333333,0,0,0,-170.1237221535299,-238.96100854548007Z"><title>Clarinets</title></path><path fill="#1f77b4" display="" d="M-231.7699978764454,-371.65396282611124A438,438,0,0,1,-209.97344995793128,-384.3893212782636L-140.91126173214548,-257.2711813660815A293.3333333333333,293.3333333333333,0,0,0,-154.938515076219,-249.07529181036944Z"><title>Double basses</title></path><path fill="#1f77b4" display="" d="M-208.21606920933397,-385.3440910705831A438,438,0,0,1,-185.66993197806093,-396.69973072748894L-124.64422651644392,-265.5339173073034A293.3333333333333,293.3333333333333,0,0,0,-139.15388098354796,-258.2259511584012Z"><title>Flutes</title></path><path fill="#1f77b4" display="" d="M-183.85659302000204,-397.5433978864161A438,438,0,0,1,-160.64809310094316,-407.4753859842711L-107.89496700263372,-272.76935410699093A293.3333333333333,293.3333333333333,0,0,0,-122.83088755838484,-266.37758446623064Z"><title>French Horns</title></path><path fill="#1f77b4" display="" d="M-158.78581138957912,-408.2046865254648A438,438,0,0,1,-135.00473796027126,-416.67459813177777L-90.72828282194224,-278.9494992657741A293.3333333333333,293.3333333333333,0,0,0,-106.03268529126953,-273.49865464818475Z"><title>Oboes</title></path><path fill="#1f77b4" display="" d="M-133.10071830176315,-417.28671053312337A438,438,0,0,1,-108.83907571542194,-424.26177720531535L-73.21058854054111,-284.05044300263296A293.3333333333333,293.3333333333333,0,0,0,-88.82426316343398,-279.56161166711973Z"><title>Timpani</title></path><path fill="#1f77b4" display="" d="M-106.90068439193998,-424.7543333228454A438,438,0,0,1,-82.25233623049093,-430.2075698829883L-55.409656714491845,-288.0524507571956A293.3333333333333,293.3333333333333,0,0,0,-71.27219721705897,-284.542999120163Z"><title>Trumpets</title></path><path fill="#1f77b4" display="" d="M-80.28707250149982,-430.5786641127715A438,438,0,0,1,-55.34737843561426,-434.48897304799914L-37.39435569089243,-290.9400395389185A293.3333333333333,293.3333333333333,0,0,0,-53.444392985500556,-288.42354498697887Z"><title>Violas</title></path><path fill="#1f77b4" display="" d="M-53.36284552469522,-434.7371696985519A438,438,0,0,1,-28.228292385749807,-437.0894227832385L-19.234383169621317,-292.70203782776883A293.3333333333333,293.3333333333333,0,0,0,-35.40982277997322,-291.1882361894713Z"><title>Violins 1</title></path><path fill="#1f77b4" display="" d="M-26.232168065205556,-437.21376162993636A438,438,0,0,1,-0.9999965564758962,-437.9988584538629L-0.9999965564764752,-293.33162879466556A293.3333333333333,293.3333333333333,0,0,0,-17.238258849076878,-292.8263766744667Z"><title>Violins 2</title></path></g><g id="labels" transform="translate(450,450)" text-anchor="middle"><text transform="rotate(90) translate(73.33333333333333,0) rotate(180)"><tspan x="0" y="4" style="font-family: Arial, sans-serif; font-size: 10px; fill: black; font-weight: normal;"/></text><text transform="rotate(-32.97029702970297) translate(220,0) rotate(0)"><tspan x="0" y="4" style="font-family: Arial, sans-serif; font-size: 10px; fill: black; font-weight: normal;">Modern orchestra</tspan></text><text transform="rotate(70.39603960396039) translate(220,0) rotate(0)"><tspan x="0" y="4" style="font-family: Arial, sans-serif; font-size: 10px; fill: black; font-weight: normal;">Early Romantic orchestra</tspan></text><text transform="rotate(171.980198019802) translate(220,0) rotate(180)"><tspan x="0" y="4" style="font-family: Arial, sans-serif; font-size: 10px; fill: black; font-weight: normal;">Late Romantic orchestra</tspan></text><text transform="rotate(248.61386138613864) translate(220,0) rotate(180)"><tspan x="0" y="4" style="font-family: Arial, sans-serif; font-size: 10px; fill: black; font-weight: normal;">Classical orchestra</tspan></text><text transform="rotate(-88.21782178217822) translate(366.66666666666663,0) rotate(0)"><tspan x="0" y="4" style="font-family: Arial, sans-serif; font-size: 10px; fill: black; font-weight: normal;">Baritone horn</tspan></text><text transform="rotate(-84.65346534653466) translate(366.66666666666663,0) rotate(0)"><tspan x="0" y="4" style="font-family: Arial, sans-serif; font-size: 10px; fill: black; font-weight: normal;">Bass Drum</tspan></text><text transform="rotate(-81.08910891089108) translate(366.66666666666663,0) rotate(0)"><tspan x="0" y="4" style="font-family: Arial, sans-serif; font-size: 10px; fill: black; font-weight: normal;">Bassoons</tspan></text><text transform="rotate(-77.52475247524752) translate(366.66666666666663,0) rotate(0)"><tspan x="0" y="4" style="font-family: Arial, sans-serif; font-size: 10px; fill: black; font-weight: normal;">Celesta</tspan></text><text transform="rotate(-73.96039603960396) translate(366.66666666666663,0) rotate(0)"><tspan x="0" y="4" style="font-family: Arial, sans-serif; font-size: 10px; fill: black; font-weight: normal;">Cellos</tspan></text><text transform="rotate(-70.39603960396039) translate(366.66666666666663,0) rotate(0)"><tspan x="0" y="4" style="font-family: Arial, sans-serif; font-size: 10px; fill: black; font-weight: normal;">Clarinets</tspan></text><text transform="rotate(-66.83168316831683) translate(366.66666666666663,0) rotate(0)"><tspan x="0" y="4" style="font-family: Arial, sans-serif; font-size: 10px; fill: black; font-weight: normal;">Cymbals</tspan></text><text transform="rotate(-63.26732673267327) translate(366.66666666666663,0) rotate(0)"><tspan x="0" y="4" style="font-family: Arial, sans-serif; font-size: 10px; fill: black; font-weight: normal;">Double basses</tspan></text><text transform="rotate(-59.70297029702971) translate(366.66666666666663,0) rotate(0)"><tspan x="0" y="4" style="font-family: Arial, sans-serif; font-size: 10px; fill: black; font-weight: normal;">Flutes</tspan></text><text transform="rotate(-56.13861386138615) translate(366.66666666666663,0) rotate(0)"><tspan x="0" y="4" style="font-family: Arial, sans-serif; font-size: 10px; fill: black; font-weight: normal;">French Horns</tspan></text><text transform="rotate(-52.57425742574257) translate(366.66666666666663,0) rotate(0)"><tspan x="0" y="4" style="font-family: Arial, sans-serif; font-size: 10px; fill: black; font-weight: normal;">Glockenspiel</tspan></text><text transform="rotate(-49.00990099009902) translate(366.66666666666663,0) rotate(0)"><tspan x="0" y="4" style="font-family: Arial, sans-serif; font-size: 10px; fill: black; font-weight: normal;">Harps</tspan></text><text transform="rotate(-45.44554455445545) translate(366.66666666666663,0) rotate(0)"><tspan x="0" y="4" style="font-family: Arial, sans-serif; font-size: 10px; fill: black; font-weight: normal;">Marimba</tspan></text><text transform="rotate(-41.88118811881189) translate(366.66666666666663,0) rotate(0)"><tspan x="0" y="4" style="font-family: Arial, sans-serif; font-size: 10px; fill: black; font-weight: normal;">Oboes</tspan></text><text transform="rotate(-38.316831683168324) translate(366.66666666666663,0) rotate(0)"><tspan x="0" y="4" style="font-family: Arial, sans-serif; font-size: 10px; fill: black; font-weight: normal;">Piano</tspan></text><text transform="rotate(-34.752475247524764) translate(366.66666666666663,0) rotate(0)"><tspan x="0" y="4" style="font-family: Arial, sans-serif; font-size: 10px; fill: black; font-weight: normal;">Pipe organ</tspan></text><text transform="rotate(-31.188118811881196) translate(366.66666666666663,0) rotate(0)"><tspan x="0" y="4" style="font-family: Arial, sans-serif; font-size: 10px; fill: black; font-weight: normal;">Snare Drum</tspan></text><text transform="rotate(-27.623762376237636) translate(366.66666666666663,0) rotate(0)"><tspan x="0" y="4" style="font-family: Arial, sans-serif; font-size: 10px; fill: black; font-weight: normal;">Tam-tam</tspan></text><text transform="rotate(-24.05940594059406) translate(366.66666666666663,0) rotate(0)"><tspan x="0" y="4" style="font-family: Arial, sans-serif; font-size: 10px; fill: black; font-weight: normal;">Tambourine</tspan></text><text transform="rotate(-20.4950495049505) translate(366.66666666666663,0) rotate(0)"><tspan x="0" y="4" style="font-family: Arial, sans-serif; font-size: 10px; fill: black; font-weight: normal;">Tenor drum</tspan></text><text transform="rotate(-16.930693069306912) translate(366.66666666666663,0) rotate(0)"><tspan x="0" y="4" style="font-family: Arial, sans-serif; font-size: 10px; fill: black; font-weight: normal;">Timpani</tspan></text><text transform="rotate(-13.366336633663352) translate(366.66666666666663,0) rotate(0)"><tspan x="0" y="4" style="font-family: Arial, sans-serif; font-size: 10px; fill: black; font-weight: normal;">Triangle</tspan></text><text transform="rotate(-9.801980198019777) translate(366.66666666666663,0) rotate(0)"><tspan x="0" y="4" style="font-family: Arial, sans-serif; font-size: 10px; fill: black; font-weight: normal;">Trombones</tspan></text><text transform="rotate(-6.2376237623762165) translate(366.66666666666663,0) rotate(0)"><tspan x="0" y="4" style="font-family: Arial, sans-serif; font-size: 10px; fill: black; font-weight: normal;">Trumpets</tspan></text><text transform="rotate(-2.673267326732642) translate(366.66666666666663,0) rotate(0)"><tspan x="0" y="4" style="font-family: Arial, sans-serif; font-size: 10px; fill: black; font-weight: normal;">Tubas</tspan></text><text transform="rotate(0.8910891089109327) translate(366.66666666666663,0) rotate(0)"><tspan x="0" y="4" style="font-family: Arial, sans-serif; font-size: 10px; fill: black; font-weight: normal;">Tubular bells</tspan></text><text transform="rotate(4.455445544554493) translate(366.66666666666663,0) rotate(0)"><tspan x="0" y="4" style="font-family: Arial, sans-serif; font-size: 10px; fill: black; font-weight: normal;">Vibraphone</tspan></text><text transform="rotate(8.019801980198068) translate(366.66666666666663,0) rotate(0)"><tspan x="0" y="4" style="font-family: Arial, sans-serif; font-size: 10px; fill: black; font-weight: normal;">Violas</tspan></text><text transform="rotate(11.584158415841657) translate(366.66666666666663,0) rotate(0)"><tspan x="0" y="4" style="font-family: Arial, sans-serif; font-size: 10px; fill: black; font-weight: normal;">Violins 1</tspan></text><text transform="rotate(15.148514851485203) translate(366.66666666666663,0) rotate(0)"><tspan x="0" y="4" style="font-family: Arial, sans-serif; font-size: 10px; fill: black; font-weight: normal;">Violins 2</tspan></text><text transform="rotate(18.71287128712879) translate(366.66666666666663,0) rotate(0)"><tspan x="0" y="4" style="font-family: Arial, sans-serif; font-size: 10px; fill: black; font-weight: normal;">Wood block</tspan></text><text transform="rotate(22.277227722772338) translate(366.66666666666663,0) rotate(0)"><tspan x="0" y="4" style="font-family: Arial, sans-serif; font-size: 10px; fill: black; font-weight: normal;">Xylophone</tspan></text><text transform="rotate(25.841584158415813) translate(366.66666666666663,0) rotate(0)"><tspan x="0" y="4" style="font-family: Arial, sans-serif; font-size: 10px; fill: black; font-weight: normal;">Bass Clarinet</tspan></text><text transform="rotate(29.405940594059402) translate(366.66666666666663,0) rotate(0)"><tspan x="0" y="4" style="font-family: Arial, sans-serif; font-size: 10px; fill: black; font-weight: normal;">Bass Drum</tspan></text><text transform="rotate(32.970297029702934) translate(366.66666666666663,0) rotate(0)"><tspan x="0" y="4" style="font-family: Arial, sans-serif; font-size: 10px; fill: black; font-weight: normal;">Bassoons</tspan></text><text transform="rotate(36.53465346534652) translate(366.66666666666663,0) rotate(0)"><tspan x="0" y="4" style="font-family: Arial, sans-serif; font-size: 10px; fill: black; font-weight: normal;">Cellos</tspan></text><text transform="rotate(40.09900990099004) translate(366.66666666666663,0) rotate(0)"><tspan x="0" y="4" style="font-family: Arial, sans-serif; font-size: 10px; fill: black; font-weight: normal;">Clarinets</tspan></text><text transform="rotate(43.66336633663363) translate(366.66666666666663,0) rotate(0)"><tspan x="0" y="4" style="font-family: Arial, sans-serif; font-size: 10px; fill: black; font-weight: normal;">Contrabassoon</tspan></text><text transform="rotate(47.22772277227716) translate(366.66666666666663,0) rotate(0)"><tspan x="0" y="4" style="font-family: Arial, sans-serif; font-size: 10px; fill: black; font-weight: normal;">Cornet</tspan></text><text transform="rotate(50.79207920792075) translate(366.66666666666663,0) rotate(0)"><tspan x="0" y="4" style="font-family: Arial, sans-serif; font-size: 10px; fill: black; font-weight: normal;">Cymbals</tspan></text><text transform="rotate(54.35643564356428) translate(366.66666666666663,0) rotate(0)"><tspan x="0" y="4" style="font-family: Arial, sans-serif; font-size: 10px; fill: black; font-weight: normal;">Double basses</tspan></text><text transform="rotate(57.92079207920787) translate(366.66666666666663,0) rotate(0)"><tspan x="0" y="4" style="font-family: Arial, sans-serif; font-size: 10px; fill: black; font-weight: normal;">English Horn</tspan></text><text transform="rotate(61.4851485148514) translate(366.66666666666663,0) rotate(0)"><tspan x="0" y="4" style="font-family: Arial, sans-serif; font-size: 10px; fill: black; font-weight: normal;">Flutes</tspan></text><text transform="rotate(65.04950495049496) translate(366.66666666666663,0) rotate(0)"><tspan x="0" y="4" style="font-family: Arial, sans-serif; font-size: 10px; fill: black; font-weight: normal;">French Horns</tspan></text><text transform="rotate(68.6138613861385) translate(366.66666666666663,0) rotate(0)"><tspan x="0" y="4" style="font-family: Arial, sans-serif; font-size: 10px; fill: black; font-weight: normal;">Glockenspiel</tspan></text><text transform="rotate(72.17821782178208) translate(366.66666666666663,0) rotate(0)"><tspan x="0" y="4" style="font-family: Arial, sans-serif; font-size: 10px; fill: black; font-weight: normal;">Harps</tspan></text><text transform="rotate(75.74257425742562) translate(366.66666666666663,0) rotate(0)"><tspan x="0" y="4" style="font-family: Arial, sans-serif; font-size: 10px; fill: black; font-weight: normal;">Oboes</tspan></text><text transform="rotate(79.3069306930692) translate(366.66666666666663,0) rotate(0)"><tspan x="0" y="4" style="font-family: Arial, sans-serif; font-size: 10px; fill: black; font-weight: normal;">Piccolo</tspan></text><text transform="rotate(82.87128712871271) translate(366.66666666666663,0) rotate(0)"><tspan x="0" y="4" style="font-family: Arial, sans-serif; font-size: 10px; fill: black; font-weight: normal;">Snare Drum</tspan></text><text transform="rotate(86.4356435643563) translate(366.66666666666663,0) rotate(0)"><tspan x="0" y="4" style="font-family: Arial, sans-serif; font-size: 10px; fill: black; font-weight: normal;">Tambourine</tspan></text><text transform="rotate(89.99999999999986) translate(366.66666666666663,0) rotate(0)"><tspan x="0" y="4" style="font-family: Arial, sans-serif; font-size: 10px; fill: black; font-weight: normal;">Timpani</tspan></text><text transform="rotate(93.56435643564345) translate(366.66666666666663,0) rotate(180)"><tspan x="0" y="4" style="font-family: Arial, sans-serif; font-size: 10px; fill: black; font-weight: normal;">Triangle</tspan></text><text transform="rotate(97.12871287128695) translate(366.66666666666663,0) rotate(180)"><tspan x="0" y="4" style="font-family: Arial, sans-serif; font-size: 10px; fill: black; font-weight: normal;">Trombones</tspan></text><text transform="rotate(100.69306930693054) translate(366.66666666666663,0) rotate(180)"><tspan x="0" y="4" style="font-family: Arial, sans-serif; font-size: 10px; fill: black; font-weight: normal;">Trumpets</tspan></text><text transform="rotate(104.25742574257407) translate(366.66666666666663,0) rotate(180)"><tspan x="0" y="4" style="font-family: Arial, sans-serif; font-size: 10px; fill: black; font-weight: normal;">Tubas</tspan></text><text transform="rotate(107.82178217821766) translate(366.66666666666663,0) rotate(180)"><tspan x="0" y="4" style="font-family: Arial, sans-serif; font-size: 10px; fill: black; font-weight: normal;">Violas</tspan></text><text transform="rotate(111.38613861386119) translate(366.66666666666663,0) rotate(180)"><tspan x="0" y="4" style="font-family: Arial, sans-serif; font-size: 10px; fill: black; font-weight: normal;">Violins 1</tspan></text><text transform="rotate(114.95049504950478) translate(366.66666666666663,0) rotate(180)"><tspan x="0" y="4" style="font-family: Arial, sans-serif; font-size: 10px; fill: black; font-weight: normal;">Violins 2</tspan></text><text transform="rotate(118.51485148514851) translate(366.66666666666663,0) rotate(180)"><tspan x="0" y="4" style="font-family: Arial, sans-serif; font-size: 10px; fill: black; font-weight: normal;">Bass Clarinet</tspan></text><text transform="rotate(122.07920792079204) translate(366.66666666666663,0) rotate(180)"><tspan x="0" y="4" style="font-family: Arial, sans-serif; font-size: 10px; fill: black; font-weight: normal;">Bass Drum</tspan></text><text transform="rotate(125.64356435643563) translate(366.66666666666663,0) rotate(180)"><tspan x="0" y="4" style="font-family: Arial, sans-serif; font-size: 10px; fill: black; font-weight: normal;">Bassoons</tspan></text><text transform="rotate(129.20792079207914) translate(366.66666666666663,0) rotate(180)"><tspan x="0" y="4" style="font-family: Arial, sans-serif; font-size: 10px; fill: black; font-weight: normal;">Celesta</tspan></text><text transform="rotate(132.77227722772273) translate(366.66666666666663,0) rotate(180)"><tspan x="0" y="4" style="font-family: Arial, sans-serif; font-size: 10px; fill: black; font-weight: normal;">Cellos</tspan></text><text transform="rotate(136.33663366336629) translate(366.66666666666663,0) rotate(180)"><tspan x="0" y="4" style="font-family: Arial, sans-serif; font-size: 10px; fill: black; font-weight: normal;">Chimes</tspan></text><text transform="rotate(139.90099009900987) translate(366.66666666666663,0) rotate(180)"><tspan x="0" y="4" style="font-family: Arial, sans-serif; font-size: 10px; fill: black; font-weight: normal;">Clarinets</tspan></text><text transform="rotate(143.46534653465343) translate(366.66666666666663,0) rotate(180)"><tspan x="0" y="4" style="font-family: Arial, sans-serif; font-size: 10px; fill: black; font-weight: normal;">Contrabassoon</tspan></text><text transform="rotate(147.029702970297) translate(366.66666666666663,0) rotate(180)"><tspan x="0" y="4" style="font-family: Arial, sans-serif; font-size: 10px; fill: black; font-weight: normal;">Cymbals</tspan></text><text transform="rotate(150.59405940594058) translate(366.66666666666663,0) rotate(180)"><tspan x="0" y="4" style="font-family: Arial, sans-serif; font-size: 10px; fill: black; font-weight: normal;">Double basses</tspan></text><text transform="rotate(154.15841584158417) translate(366.66666666666663,0) rotate(180)"><tspan x="0" y="4" style="font-family: Arial, sans-serif; font-size: 10px; fill: black; font-weight: normal;">English Horn</tspan></text><text transform="rotate(157.72277227722776) translate(366.66666666666663,0) rotate(180)"><tspan x="0" y="4" style="font-family: Arial, sans-serif; font-size: 10px; fill: black; font-weight: normal;">Flutes</tspan></text><text transform="rotate(161.28712871287135) translate(366.66666666666663,0) rotate(180)"><tspan x="0" y="4" style="font-family: Arial, sans-serif; font-size: 10px; fill: black; font-weight: normal;">French Horns</tspan></text><text transform="rotate(164.85148514851494) translate(366.66666666666663,0) rotate(180)"><tspan x="0" y="4" style="font-family: Arial, sans-serif; font-size: 10px; fill: black; font-weight: normal;">Glockenspiel</tspan></text><text transform="rotate(168.4158415841585) translate(366.66666666666663,0) rotate(180)"><tspan x="0" y="4" style="font-family: Arial, sans-serif; font-size: 10px; fill: black; font-weight: normal;">Harps</tspan></text><text transform="rotate(171.98019801980212) translate(366.66666666666663,0) rotate(180)"><tspan x="0" y="4" style="font-family: Arial, sans-serif; font-size: 10px; fill: black; font-weight: normal;">Oboes</tspan></text><text transform="rotate(175.54455445544568) translate(366.66666666666663,0) rotate(180)"><tspan x="0" y="4" style="font-family: Arial, sans-serif; font-size: 10px; fill: black; font-weight: normal;">Piano</tspan></text><text transform="rotate(179.10891089108924) translate(366.66666666666663,0) rotate(180)"><tspan x="0" y="4" style="font-family: Arial, sans-serif; font-size: 10px; fill: black; font-weight: normal;">Piccolo</tspan></text><text transform="rotate(182.67326732673286) translate(366.66666666666663,0) rotate(180)"><tspan x="0" y="4" style="font-family: Arial, sans-serif; font-size: 10px; fill: black; font-weight: normal;">Snare Drum</tspan></text><text transform="rotate(186.23762376237642) translate(366.66666666666663,0) rotate(180)"><tspan x="0" y="4" style="font-family: Arial, sans-serif; font-size: 10px; fill: black; font-weight: normal;">Tam-tam</tspan></text><text transform="rotate(189.80198019802003) translate(366.66666666666663,0) rotate(180)"><tspan x="0" y="4" style="font-family: Arial, sans-serif; font-size: 10px; fill: black; font-weight: normal;">Tambourine</tspan></text><text transform="rotate(193.3663366336636) translate(366.66666666666663,0) rotate(180)"><tspan x="0" y="4" style="font-family: Arial, sans-serif; font-size: 10px; fill: black; font-weight: normal;">Timpani</tspan></text><text transform="rotate(196.93069306930715) translate(366.66666666666663,0) rotate(180)"><tspan x="0" y="4" style="font-family: Arial, sans-serif; font-size: 10px; fill: black; font-weight: normal;">Triangle</tspan></text><text transform="rotate(200.49504950495077) translate(366.66666666666663,0) rotate(180)"><tspan x="0" y="4" style="font-family: Arial, sans-serif; font-size: 10px; fill: black; font-weight: normal;">Trombones</tspan></text><text transform="rotate(204.05940594059433) translate(366.66666666666663,0) rotate(180)"><tspan x="0" y="4" style="font-family: Arial, sans-serif; font-size: 10px; fill: black; font-weight: normal;">Trumpets</tspan></text><text transform="rotate(207.6237623762379) translate(366.66666666666663,0) rotate(180)"><tspan x="0" y="4" style="font-family: Arial, sans-serif; font-size: 10px; fill: black; font-weight: normal;">Tubas</tspan></text><text transform="rotate(211.1881188118815) translate(366.66666666666663,0) rotate(180)"><tspan x="0" y="4" style="font-family: Arial, sans-serif; font-size: 10px; fill: black; font-weight: normal;">Violas</tspan></text><text transform="rotate(214.75247524752507) translate(366.66666666666663,0) rotate(180)"><tspan x="0" y="4" style="font-family: Arial, sans-serif; font-size: 10px; fill: black; font-weight: normal;">Violins 1</tspan></text><text transform="rotate(218.3168316831687) translate(366.66666666666663,0) rotate(180)"><tspan x="0" y="4" style="font-family: Arial, sans-serif; font-size: 10px; fill: black; font-weight: normal;">Violins 2</tspan></text><text transform="rotate(221.88118811881225) translate(366.66666666666663,0) rotate(180)"><tspan x="0" y="4" style="font-family: Arial, sans-serif; font-size: 10px; fill: black; font-weight: normal;">Wagner Tuba</tspan></text><text transform="rotate(225.44554455445586) translate(366.66666666666663,0) rotate(180)"><tspan x="0" y="4" style="font-family: Arial, sans-serif; font-size: 10px; fill: black; font-weight: normal;">Xylophone</tspan></text><text transform="rotate(229.00990099009897) translate(366.66666666666663,0) rotate(180)"><tspan x="0" y="4" style="font-family: Arial, sans-serif; font-size: 10px; fill: black; font-weight: normal;">Bassoons</tspan></text><text transform="rotate(232.5742574257426) translate(366.66666666666663,0) rotate(180)"><tspan x="0" y="4" style="font-family: Arial, sans-serif; font-size: 10px; fill: black; font-weight: normal;">Cellos</tspan></text><text transform="rotate(236.1386138613862) translate(366.66666666666663,0) rotate(180)"><tspan x="0" y="4" style="font-family: Arial, sans-serif; font-size: 10px; fill: black; font-weight: normal;">Clarinets</tspan></text><text transform="rotate(239.70297029702976) translate(366.66666666666663,0) rotate(180)"><tspan x="0" y="4" style="font-family: Arial, sans-serif; font-size: 10px; fill: black; font-weight: normal;">Double basses</tspan></text><text transform="rotate(243.26732673267333) translate(366.66666666666663,0) rotate(180)"><tspan x="0" y="4" style="font-family: Arial, sans-serif; font-size: 10px; fill: black; font-weight: normal;">Flutes</tspan></text><text transform="rotate(246.83168316831694) translate(366.66666666666663,0) rotate(180)"><tspan x="0" y="4" style="font-family: Arial, sans-serif; font-size: 10px; fill: black; font-weight: normal;">French Horns</tspan></text><text transform="rotate(250.3960396039605) translate(366.66666666666663,0) rotate(180)"><tspan x="0" y="4" style="font-family: Arial, sans-serif; font-size: 10px; fill: black; font-weight: normal;">Oboes</tspan></text><text transform="rotate(253.96039603960412) translate(366.66666666666663,0) rotate(180)"><tspan x="0" y="4" style="font-family: Arial, sans-serif; font-size: 10px; fill: black; font-weight: normal;">Timpani</tspan></text><text transform="rotate(257.5247524752477) translate(366.66666666666663,0) rotate(180)"><tspan x="0" y="4" style="font-family: Arial, sans-serif; font-size: 10px; fill: black; font-weight: normal;">Trumpets</tspan></text><text transform="rotate(261.0891089108913) translate(366.66666666666663,0) rotate(180)"><tspan x="0" y="4" style="font-family: Arial, sans-serif; font-size: 10px; fill: black; font-weight: normal;">Violas</tspan></text><text transform="rotate(264.6534653465348) translate(366.66666666666663,0) rotate(180)"><tspan x="0" y="4" style="font-family: Arial, sans-serif; font-size: 10px; fill: black; font-weight: normal;">Violins 1</tspan></text><text transform="rotate(268.21782178217836) translate(366.66666666666663,0) rotate(180)"><tspan x="0" y="4" style="font-family: Arial, sans-serif; font-size: 10px; fill: black; font-weight: normal;">Violins 2</tspan></text></g></svg>