<?xml version="1.0" encoding="utf-8"?>
<!-- Generator: Adobe Illustrator 22.0.1, SVG Export Plug-In . SVG Version: 6.00 Build 0)  -->
<svg version="1.1" id="Layer_1" xmlns="http://www.w3.org/2000/svg" xmlns:xlink="http://www.w3.org/1999/xlink" x="0px" y="0px"
	 viewBox="0 0 486.8 784.1" style="enable-background:new 0 0 486.8 784.1;" xml:space="preserve">
<style type="text/css">
	.st0{opacity:0.702;}
	.st1{opacity:0.9882;}
	.st2{fill:none;}
	.st3{opacity:0.35;}
	.st4{fill:none;stroke:#CECCCC;stroke-miterlimit:10;}
	.st5{opacity:0.43;fill:none;stroke:#CECCCC;stroke-miterlimit:10;enable-background:new    ;}
	.st6{fill:none;stroke:#C83A02;stroke-width:3;stroke-linecap:round;stroke-linejoin:round;stroke-miterlimit:10;}
	.st7{fill:none;stroke:#FFFFFF;stroke-width:0.5;stroke-linecap:round;stroke-miterlimit:10;}
	.st8{fill:none;stroke:#FFFFFF;stroke-miterlimit:10;}
</style>
<g id="Capa_0_xA0_Imagen_1_">
	<rect x="-2.8" y="-74" width="544.6" height="877.2"/>
</g>
<g id="Grupo_1_1_" class="st0">
	<g id="Capa_6_xA0_Imagen_1_" class="st1">
		
			<image style="overflow:visible;enable-background:new    ;" width="2023" height="3248" id="Capa_6_xA0_Imagen" xlink:href="9A7369D60B5068AC.jpg"  transform="matrix(0.2723 0 0 0.2714 -5.9792 -73.9814)">
		</image>
	</g>
</g>
<g>
	<rect x="310.5" y="108" class="st2" width="121.7" height="9.2"/>
</g>
<rect x="279.1" y="45.3" class="st2" width="121.7" height="9.2"/>
<g>
	<polyline class="st2" points="302.2,676.3 302.2,685.5 180.5,685.5 180.5,676.3 	"/>
</g>
<g>
	<rect x="276.6" y="314" class="st2" width="36.9" height="32.8"/>
</g>
<g>
	<rect x="245.1" y="214.6" class="st2" width="36.9" height="32.8"/>
</g>
<g>
	<rect x="167.5" y="644.3" class="st2" width="121.7" height="40.3"/>
</g>
<g>
	<rect x="214.2" y="761.8" class="st2" width="121.7" height="40.3"/>
</g>
<g id="Capa_6">
	<g class="st3">
		<path class="st4" d="M391.3,642.6l-8.7,2.9c0,0-4.6,0.6-3.5,5.5s3.8,7.9,3.8,7.9s-3,8.7-6.5,9.5s-9.2-2.2-13,1.1
			c-3.8,3.5,0.3,9.2-2.2,11.4c-2.7,2.2-7.3,3.8-7.3,3.8l-1.5,1.8c0,0-2.9,0-3.2-0.9c-0.3-0.9-0.7,1.8-2.1,1.2
			c-1.5-0.6-1.5-3.5-3.5-3.2s-4-0.7-4.8,0.3c-0.9,1-0.7,6.8-0.7,6.8s-5.5,2.1-8.9,2.2c-3.5,0.2-4.8-0.1-4.8-0.1s-0.8,1-2.8,1.3
			c0,0-3.1,1-5.7-0.4c-2.6-1.5-3.6-3.7-3.6-3.7l-4.6,0.4c0,0-14.4,13.8-21.3,13.9c-6.8,0.1-5.1-5-8.8-5.4
			c-3.7-0.3-15.2,2.8-15.2,2.8s-9.3,4.1-13.3,6c-4.1,1.9-19.7-1.5-22.6,0c-2.9,1.5-2.9,2.6-2.9,2.6l0.2,7.8c0,0-0.3,5.7-4.4,4.9
			c-4-0.8-4.3-1.8-4.3-1.8s-12.4,1.6-16.3,8.1c-3.8,6.6-9.5,19.5-9.5,19.5s0.6,2.6-3,2.1c-3.6-0.4-3.9-2.5-10.5-1.1
			c-6.7,1.3-7.9,6.2-7.9,6.2v4c0,0-3.4,3.8-8.6,1.5c-5.4-2.3-4.9-3.1-4.9-3.1l-8.4,5.1l0.1,4.6c0,0-0.2,4.5-5.5,5.5
			c-5.4,1-6,0.8-6,0.8s0.4,1.1-2.1,1.1s-5.1-1-5.5-1.7s-2.1,1.5-2.1,1.5l-4.7,0.3l-5.5,2.1c0,0-3,2.9-7.4,2.2s-8.1-3.5-8.1-3.5
			l-10,3.7c0,0-2.2,1.5-5.3-1.6c-3-3-5.1-4-5.1-4l-4.6,0.4l-2.2,2.6l-5,6.7l-8.6,0.6l-4.3,4.9l-4.7,2.6l-3.5,2l-7.7,0.2l-3.4,3.6
			l-12,3.9l-11.6,10"/>
		<path class="st4" d="M59.2,812l3.8-2.7l7.9-26.6l8.7-81.1l-3-33.6l50.7-8.7l-5.7-31.7c0,0-10.6-25.2-10-29
			c0.8-3.8-4.1-30.1-4.1-30.1l25.8-8.7l6-1.9l16.3,8.4l19.8-4.1v-10l62.4-17.1L210.1,499h38.8l13.3,6.8l-1.9,6.5l4.9-6l3.8-1.1
			l6.8-6l6,3l5.7-6l4.1-1.6l1-1.7"/>
		<polyline class="st4" points="75.4,734.1 36.5,734.7 38.4,718.4 31.9,718.4 36.9,685.4 -14,681.9 		"/>
		<polyline class="st4" points="108.7,566.9 106,544.7 109.6,544.7 98.4,499.9 108.1,499.9 108.5,449.9 103,406.3 91.7,406.3 
			65.7,420.5 42.6,424.5 44.7,434.6 49.4,462.7 50.8,476.8 51.3,486.6 52.1,489.5 62.6,539 106.2,525.3 		"/>
		<path class="st4" d="M60.5,535.2l-57.2-6.8l20.4-106.8l18.9,3c0,0-18.2-118.8-17.9-121.2c0.3-2.2,6.5-2.1,6.5-2.1l30.4-15.4l3-4.9
			l2.7,3.2L70,295c0,0,5.4,26.8,6,28.2c0.8,1.3,6.3,7.6,6.3,7.6l12.8,58.1c0,0,6.8,9.2,7.4,10.3s0.3,7,0.3,7"/>
		<path class="st4" d="M518.1,329c-4.8-23.3-6.7-19.5-6.7-19.5s-4.1-5.5-12.8-10.7c-8.6-5.3-22.2-16.9-22.2-16.9h-29.8l-12-5.5
			L419,255.1l-6.8-5.5l-8.3-3.7l-2-7.8l-3.6-5l-2.7-5.6l-3-3.1l-2.6-3.8c0,0-10.9-3.4-11.3-6.4c-0.3-3-4.1-4.9-4.1-4.9l-2.1-6.3
			c0,0-10-10.5-14.3-12.2c-4.4-1.7-8.6-12.2-8.6-12.2s-14.7-4-22.8-5.5c-8.2-1.6-20.8-7.4-21.9-7.8s-35.8,5.9-35.8,5.9l-4.1-12.8
			l-40.7,6.8l-66.8,5.5c0,0-41.1-40.7-45.3-40.7l-5.6,0.9l-2.9-2.7l-3.6-0.7v-1.9l3.8-18.1h-9.6h-5.4h-5.5c0,0-2,3.5-5.1,6
			c-3.1,2.6-7.7,2.2-10.3,4.8s-6.3,13.8-9.2,16.6c-2.9,2.9-15.4,7.7-16.3,9.2S39,160.4,39,160.4L33.9,173l27.2,103.9l3.5,4.1
			l2.7,3.2l2.7,10.9c0,0,68.6-6.3,73.9-5.7c5.5,0.6,8.3,1.1,8.3,1.1l6.6-2l4.3-0.6l17.5-11.7c0,0,12-36.2,11.7-46.3
			c-0.3-10-6.8-42.3-6.8-42.3l-10.5-4.3l-11.7-6.3l-10.5,15.7l-12.3,24.6l-14-7.4l-36.6,7.2v2l-10.5,3.1l-2.6-3.7L47,227.9"/>
		<path class="st4" d="M83.4,107.3c0,0,2.6-3.7,4-5.1c1.5-1.5,4.3-3.7,4.3-3.7l-7.4-7.9c0,0-4.8-6.6-7.9-9.4
			c-3.1-2.9-7.4-5.7-7.4-5.7l-9.2-2.9v-5.5c0,0-7.7-3.7-10.9-5.1c-3.2-1.3-38.4-30-38.4-30l-9.2-8"/>
		<path class="st4" d="M104.1,107.3l7.8-4h8.3l22.3-11.2h5.1l5.7-2.6l2.9-3.7l116.5-57.7l11.2-14.3l3.5-6.6l23.2-14l-7.2-8.8
			l-2.7-3.5l-8.7-1.6L278.2-15l-7.8-0.3l0,0l-4.4,0.8l0,0h-6l-7.7,1.2c0,0-4.6-1.1-7.2-4s-15.4-18.6-15.4-18.6s-5.1-5.1-9.7-7.4
			s-7.2-2-7.2-2l-1.7-1.1c0,0-2-1.1-6.6-3.7c-4.6-2.6-11.7-2.6-11.7-2.6L185-59c0,0,0,4.6-4.3,4.8c-4.3,0.3-8.6,1.5-8.6,1.5
			l-4.6-5.7c0,0-3.7-0.9-7.2-1.7c-3.5-0.8-8.3-2.6-8.3-2.6l-4.1,3.7l-5.5,3.1l-2.2,3.1c0,0-2.9-0.3-7.2,2s-8.3,7.9-8.3,7.9l-4.6,4.8
			l-5.1,6l-5.5,3.7l8.3,7.2l1.1,20.6L117.2,0l-4.8,10.3l2.2,6.8l-2,3.1l-6.8,5.7c0,0-2,3.7,0.9,10.5s4.6,11.4,2.2,14.5
			c-2.2,3.1-11.7,15.7-11.7,15.7s-2.9,4.3-3.7,8.6c-0.9,4.3-2,18.6-2,18.6v4.3"/>
		<path class="st4" d="M97.9,392.5l50.5,1.3l5.7,2.9l3.5-2.1l41.7,2.1h1.5H224h34.6l1.7,2l2.9-1.7h6.3l33.5-13.5c0,0,7.6-0.6,10.2-2
			c2.6-1.5,17.7-16.8,17.7-16.8l4.8-1.2l2.2-1.5h5.7v-1h3.6l1.6-1.1c0,0,2.1-2.7,11-3.2c8.8-0.6,7.6-1.1,7.6-1.1l0.1-2.5
			c0,0-0.3-2.2,3.2-2.5c3.6-0.1,10.4,4.7,10.4,4.7l5.6-0.3c0,0,0.3,2.5,1.6,3.2c1.2,0.9,4,0,4,0l3,0.1l1.5,2.9l1.5-1.2
			c0,0,5.8,2.1,7.3-0.9s2.6-3.7,2.6-3.7l2.6-3.1l1.9-0.7l1.9-2.2l1.9-3.2c0,0,3.7,1.9,5.6,0s1.2-4.3,1.2-4.3s4.6,0,6.7-0.9
			s3.2,0,3.2,0l2.2-1.5l4.1,1.2l5.6-5.7l0.7-2.7l2.2-0.7h2.1l3.1,1.1l1.7-1.1c0,0-0.3-1,3.8,1.7c4.1,2.7,4.7,3.8,4.7,3.8l2.6-0.3
			l5.1,2.2c0,0,9.6,1.7,10.9,1.1c1.2-0.6,3.8,0.1,3.8,0.1l2.5-2.6l2.2-0.1l1.1-2l1.2-0.4l2-0.6l2.7-1.5l2.1-1.9h2.5V330h3.5
			c0,0-0.7-0.9,1.9-1.6s7.8,0,7.8,0l1.1,1l0.9-1.3"/>
		<path class="st4" d="M180.5,276.2c0,0-7.2,47.7-6.6,51.9c0.6,4.3,0,6.9,0,6.9l-15.1,31.4c0,0-6.6,17.1-5.7,23.7
			c0.9,6.6,0.9,6.6,0.9,6.6"/>
		<line class="st4" x1="157.6" y1="170.7" x2="163.1" y2="177"/>
		<line class="st4" x1="38" y1="188.1" x2="-2.8" y2="177"/>
		<path class="st4" d="M189.7,244.8l23,9.1H241l15.1,2.9l7.4-3.7l23.4,6c0,0,1.7-0.3,2.9-1.5c1.1-1.1,0-8.6,0-8.6l2.3-6.4l108.6-4.1
			"/>
		<path class="st4" d="M391.3,642.6c0,0,3.5-1.9,8.9-7.4c5.5-5.5,7.9-7.9,7.9-7.9l8.8-2.6c0,0,3.7,3.5,6.3,2.6c2.6-0.9,5.1-4,5.1-4
			v-4.8c0,0,0.3-6.6,2.6-6.6s9.4,6.8,12.5,6.8s7.9-2.2,7.9-2.2s18.2-0.9,21.4-3.1s2.9-6.8,2.9-6.8s-9.4-18-7.7-18.9
			c1.7-0.9,9.2,1.7,9.2,1.7s11.4,1.5,13.1-0.6c1.7-2,3.7-7.2,6.3-8.8c0,0,7.8-5.7,15.7-4s10,2.5,10,2.5l4.7-3.8
			c0,0,5.9,2.5,10.3,1.6c4.4-0.9,4.4-1.6,4.4-1.6"/>
		<line class="st4" x1="152.2" y1="-62.6" x2="140.6" y2="-74"/>
		<path class="st4" d="M310.5-6.5l15.1-6.8h12.5l16-10.5h7.4l6.3-7.7l9.7-1.1l1.5,2l10.5-2L391-31l6.7-3.8l8.3,1.7v16.3
			c0,0-4.8,0.6-6.6,4.8c-1.7,4.3-3.7,12.9-3.7,12.9s-1.5,10.5,2.6,15.1s6.3,6.4,6.3,6.4s0.6,6.4,1.5,9.6s4,8.6,4,8.6
			s3.8,6.2,5.7,6.7c2,0.6,8.5,2.7,10,1.6s6.5-0.3,6.5-0.3s14.3-0.8,20.6,0.3c6.3,1.2,20.9,4.1,20.9,4.1s5.5,12.1,6.8,14.1
			c1.5,2,0,8.4,0,8.4s0.7,7-0.8,8.7s2.2,8.4,2.2,8.4l-1.1,4.9l2.2,7.9l3.5,8.7c0,0,4.9,7.9,7.3,9.2c2.2,1.1,9.1,9.5,12.2,9.5
			s14.1,5.4,14.1,5.4l0.1,12.4v7.9l8.6,16v4.6v4.8l-3.5,3.1c0,0-1.7,5.1,0,6.8s9.4,10.5,9.4,10.5s-1.7,6.8-1.5,8.6
			c0.3,1.7,3.5,16.9,3.5,16.9s-3.1,14-4.3,14.9c-1.1,0.9-6.6,0-6.6,0s-6.6,10.5-5.5,14s6.8,16,6.8,16l-2.9,11.4c0,0-2,7.9,0.3,8.8
			c2.2,0.9,7.2,2,7.2,2l4.8,0.9v2.9c0,0-0.9,2.6,0,2.9s5.7-3.7,7.2-4.8c0,0,4.6,1.7,6.6,0.3c2-1.5,6-2.9,8.3-2.9
			c2.2,0,8.8,1.5,8.8,1.5"/>
		<path class="st4" d="M524.8,295.3l-6,2.2c0,0-0.3,3.5-1.7,6.3c-1.5,2.9-5.6,5.6-5.6,5.6"/>
		<line class="st4" x1="3.3" y1="528.3" x2="1.8" y2="538.7"/>
		<line class="st4" x1="23.7" y1="421.5" x2="1.4" y2="417"/>
		<path class="st4" d="M24.7,303.5c0,0-2.7-1-9.5,0s-13.9,0-13.9,0"/>
		<path class="st4" d="M299,384.9l-9.5,11.9l4.8,28.5h24.9v18.9l-42.7-2.2v20.6h-17.2l11.3,8.6c0,0,2.7-4.6,5.9,2.2
			c3.4,6.8,3.9,13.3,3.9,13.3l-3.9,9.5l-5.9,4l-9.8,12.2"/>
		<path class="st4" d="M292.2,494.4l5.1,9.2V543h-18.9v28.5h-5.7v29.8l9.7,9.7l2.6,17.1l18.6,9.2c0,0,1.1-5.1,10.9-7.9
			c9.7-2.9,17.7-6.3,17.7-6.3l27.4,0.6l7.4-2.9l17.7-0.6v6.3l5.6-0.6l7-4.7l7-7.8c0,0-2.9-13.3,1.6-18.1c4.4-4.8,30.1-2.9,30.1-2.9
			l14.3-5.9l7.3-5.7l9.7-22.7l14.7-1.6l11.1-0.6l4.4-12.2l4.9-1.7l4,9.5l5.9,7.6l10-3.8l9.5,4.8c0,0,3,3,8.9,2.9"/>
		<path class="st4" d="M541.8,565.8l-16.3,3.5c0,0-7-3.8-13.1-6c-6.1-2.2-11.4,1-11.4,1s-5.4-2.3-8.7-1.8c-3.5,0.7-8.2,6.9-8.2,6.9
			l-11.2,4.4l-6.5,7.9c0,0-0.2,7.8-4.8,10.9c-4.6,3-10,7.4-13.1,8.4c-3.2,1-19.8-4.1-19.8-4.1l-7.4,0.2c0,0,1.6,11.1-1.7,11.6
			c-3.2,0.6-1.3,1.9-1.3,1.9l-7.8-1.6l-6.2,1.6"/>
	</g>
	<polyline class="st5" points="384.8,626.3 379.1,630.7 379.1,645.8 379.1,650.9 	"/>
</g>
<g id="Capa_8">
	<polyline class="st6" points="332.3,802.1 310.2,715.7 310.2,700.5 	"/>
	<path class="st6" d="M311.4,693.6l0.2-54.6c0,0-10.9-25.4-12.1-31.9s-6.4-1,0-21.8s12.1-33.8,12.1-33.8l-0.2-11.9
		c0,0,6.8-31.5,4.9-35.4"/>
	<path class="st6" d="M351.4,429.3c0,0-11.4,42.1-15.7,48.4c-4.1,6.4-14.1,16.3-14.1,16.3l-5,8.2l-5.3,2c0,0-5.7,10.6-5.6,12.2
		c0.1,1.6,0,9.2,0,9.2l3.8,12.2l1.8,1.9"/>
	<path class="st6" d="M293.9,403.8l2.6,17.2l5.8,13.5c0,0,2.3,18.7,3.6,21.5c1.2,2.9,0,17.2,0,17.2v5.6l3.8,5.5l-2.6,6.9l0.8,7.3
		l-2,17.9"/>
	<path class="st6" d="M347.5,406.1c0,0-6,20.6-7.6,21.4s-15.4,14.1-15.4,14.1l-10.6,8.1l-7,13"/>
	<polyline class="st6" points="335.4,363.4 337.3,369.1 347.5,386.3 360.4,401.9 	"/>
	<polyline class="st6" points="335.4,334.1 338.4,337.1 339.5,347.7 344.4,358.1 	"/>
	<polyline class="st6" points="324.3,294.1 328.6,303.6 328.6,309.3 330.3,315 327.2,319.2 327.3,329.2 328.6,339.8 330.3,342.1 	
		"/>
	<polyline class="st6" points="330.3,242.3 331.6,248.5 327.3,254.1 327.3,261 330.3,269.2 331.6,275.4 333.8,284.9 337.3,294.1 
		337.3,298.8 339.9,312.3 341.8,318.1 	"/>
	<path class="st6" d="M245.1,30.2c0,0,8.7,22.8,12.2,26.6c3.5,3.8,6.5,20.1,6.5,20.1l3,19l6,15.3l8.4,16.3l12.4,10.7l11.7,6.3
		l7.6,6.8c0,0,6.8,20.2,7.3,24.9c0.4,4.7,0,19.6,0,19.6l-3,13l0.8,12.5l4.6,6.4l1.9,5.4v10.6"/>
	<line class="st6" x1="275.2" y1="93" x2="276.2" y2="118.2"/>
	<polyline class="st6" points="293.5,121.8 296.8,129.6 296.8,140.2 	"/>
	<g>
		<g>
			<path class="st7" d="M253.7,678.9"/>
		</g>
	</g>
</g>
<image style="display:none;overflow:visible;enable-background:new    ;" width="2032" height="3278" xlink:href="9A7369D60B5068AD.jpeg"  transform="matrix(0.2389 0 0 0.2389 0.2498 0.3979)">
</image>
<image style="overflow:visible;enable-background:new    ;" width="245" height="241" xlink:href="9A7369D60B5068B4.png"  transform="matrix(0.2164 0 0 0.2164 24.9155 646.2928)">
</image>
<rect x="55.7" y="643.4" class="st8" width="25.3" height="53.8"/>
</svg>
