<?xml version="1.0" encoding="utf-8"?>
<!-- Generator: Adobe Illustrator 22.0.1, SVG Export Plug-In . SVG Version: 6.00 Build 0)  -->
<svg version="1.1" id="Layer_1" xmlns="http://www.w3.org/2000/svg" xmlns:xlink="http://www.w3.org/1999/xlink" x="0px" y="0px"
	 viewBox="0 0 486.8 784.1" style="enable-background:new 0 0 486.8 784.1;" xml:space="preserve">
<style type="text/css">
	.st0{opacity:0.702;}
	.st1{opacity:0.9882;}
	.st2{fill:none;}
	.st3{fill:#FCFCFC;}
	.st4{font-family:'Roboto-Regular';}
	.st5{font-size:6px;}
	.st6{opacity:0.35;}
	.st7{fill:none;stroke:#CECCCC;stroke-miterlimit:10;}
	.st8{opacity:0.43;fill:none;stroke:#CECCCC;stroke-miterlimit:10;enable-background:new    ;}
	.st9{fill:none;stroke:#C83A02;stroke-width:3;stroke-linecap:round;stroke-linejoin:round;stroke-miterlimit:10;}
	.st10{fill:none;stroke:#FFFFFF;stroke-width:0.5;stroke-linecap:round;stroke-miterlimit:10;}
	.st11{fill:#FFFFFF;}
	.st12{fill:none;stroke:#FFFFFF;stroke-miterlimit:10;}
</style>
<g id="Capa_0_xA0_Imagen_1_">
	<rect y="-2" width="486.8" height="784.1"/>
</g>
<g id="Grupo_1_1_" class="st0">
	<g id="Capa_6_xA0_Imagen_1_" class="st1">
		
			<image style="overflow:visible;enable-background:new    ;" width="2023" height="3248" id="Capa_6_xA0_Imagen" xlink:href="9A7369D60B5068AC.jpg"  transform="matrix(0.2434 0 0 0.2426 -2.8305 -1.9834)">
		</image>
	</g>
</g>
<g>
	<rect x="280.1" y="160.7" class="st2" width="108.8" height="8.2"/>
	<text transform="matrix(1 0 0 1 280.085 165.3027)" class="st3 st4 st5">Hospital DIPRECA</text>
</g>
<rect x="252" y="104.6" class="st2" width="108.8" height="8.2"/>
<text transform="matrix(1 0 0 1 251.9511 109.2195)" class="st3 st4 st5">Hospital FACH</text>
<g>
	<rect x="163.9" y="668.7" class="st2" width="108.8" height="8.2"/>
	<text transform="matrix(1 0 0 1 163.9148 673.2883)" class="st3 st4 st5">Planta Aguas Andinas</text>
</g>
<g>
	<rect x="150.7" y="197.4" class="st2" width="108.8" height="8.2"/>
	<text transform="matrix(1 0 0 1 201.6839 201.9204)" class="st3 st4 st5">Comisión Chilena </text>
	<text transform="matrix(1 0 0 1 201.6839 209.1204)" class="st3 st4 st5">de Energía Nuclear</text>
</g>
<g>
	<rect x="249.8" y="344.8" class="st2" width="33" height="29.3"/>
	<text transform="matrix(1 0 0 1 249.8342 349.3439)" class="st3 st4 st5">Universidad </text>
	<text transform="matrix(1 0 0 1 249.8342 356.5439)" class="st3 st4 st5">Adolfo </text>
	<text transform="matrix(1 0 0 1 249.8342 363.7439)" class="st3 st4 st5">Ibáñez</text>
</g>
<g>
	<rect x="221.6" y="256" class="st2" width="33" height="29.3"/>
	<text transform="matrix(1 0 0 1 221.5745 260.5259)" class="st3 st4 st5">Hospital </text>
	<text transform="matrix(1 0 0 1 221.5745 267.7259)" class="st3 st4 st5">Militar</text>
</g>
<g>
	<rect x="152.2" y="640.1" class="st2" width="108.8" height="36"/>
</g>
<g>
	<rect x="194" y="745.1" class="st2" width="108.8" height="36"/>
</g>
<g id="Capa_6">
	<g class="st6">
		<path class="st7" d="M352.3,638.5l-7.8,2.6c0,0-4.1,0.5-3.1,4.9s3.4,7.1,3.4,7.1s-2.7,7.8-5.8,8.5c-3.1,0.7-8.2-2-11.6,1
			c-3.4,3.1,0.3,8.2-2,10.2c-2.4,2-6.5,3.4-6.5,3.4l-1.3,1.6c0,0-2.6,0-2.9-0.8s-0.6,1.6-1.9,1.1s-1.3-3.1-3.1-2.9s-3.6-0.6-4.3,0.3
			c-0.8,0.9-0.6,6.1-0.6,6.1s-4.9,1.9-8,2c-3.1,0.2-4.3-0.1-4.3-0.1s-0.7,0.9-2.5,1.2c0,0-2.8,0.9-5.1-0.4c-2.3-1.3-3.2-3.3-3.2-3.3
			l-4.1,0.4c0,0-12.9,12.3-19,12.4c-6.1,0.1-4.6-4.5-7.9-4.8c-3.3-0.3-13.6,2.5-13.6,2.5s-8.3,3.7-11.9,5.4
			c-3.7,1.7-17.6-1.3-20.2,0c-2.6,1.3-2.6,2.3-2.6,2.3l0.2,7c0,0-0.3,5.1-3.9,4.4c-3.6-0.7-3.8-1.6-3.8-1.6s-11.1,1.4-14.6,7.2
			c-3.4,5.9-8.5,17.4-8.5,17.4s0.5,2.3-2.7,1.9c-3.2-0.4-3.5-2.2-9.4-1c-6,1.2-7.1,5.5-7.1,5.5v3.6c0,0-3,3.4-7.7,1.3
			c-4.8-2.1-4.4-2.8-4.4-2.8l-7.5,4.6l0.1,4.1c0,0-0.2,4-4.9,4.9c-4.8,0.9-5.4,0.7-5.4,0.7s0.4,1-1.9,1s-4.6-0.9-4.9-1.5
			s-1.9,1.3-1.9,1.3l-4.2,0.3l-4.9,1.9c0,0-2.7,2.6-6.6,2s-7.2-3.1-7.2-3.1l-8.9,3.3c0,0-2,1.3-4.7-1.4s-4.6-3.6-4.6-3.6l-4.1,0.4
			l-2,2.3l-4.5,6l-7.7,0.5l-3.8,4.4l-4.2,2.3l-3.1,1.8l-6.9,0.2l-3,3.2L22.9,781l-10.4,9"/>
		<path class="st7" d="M55.4,790l3.4-2.4l7.1-23.8l7.8-72.5l-2.7-30l45.3-7.8l-5.1-28.3c0,0-9.5-22.5-8.9-25.9
			c0.7-3.4-3.7-26.9-3.7-26.9l23.1-7.8l5.4-1.7l14.6,7.5l17.7-3.7v-8.9l55.8-15.3l-24.9-32.3H225l11.9,6.1l-1.7,5.8l4.4-5.4l3.4-1
			l6.1-5.4l5.4,2.7l5.1-5.4l3.7-1.4l0.9-1.5"/>
		<polyline class="st7" points="69.9,720.3 35.1,720.9 36.8,706.3 31,706.3 35.5,676.8 -10,673.7 		"/>
		<polyline class="st7" points="99.7,570.9 97.3,551 100.5,551 90.5,511 99.1,511 99.5,466.3 94.6,427.3 84.5,427.3 61.2,440 
			40.6,443.6 42.5,452.6 46.7,477.7 47.9,490.3 48.4,499.1 49.1,501.7 58.5,545.9 97.4,533.7 		"/>
		<path class="st7" d="M56.6,542.5l-51.1-6.1l18.2-95.5l16.9,2.7c0,0-16.3-106.2-16-108.3c0.3-2,5.8-1.9,5.8-1.9l27.2-13.8l2.7-4.4
			l2.4,2.9l2.4,9.7c0,0,4.8,24,5.4,25.2c0.7,1.2,5.6,6.8,5.6,6.8l11.4,51.9c0,0,6.1,8.2,6.6,9.2s0.3,6.3,0.3,6.3"/>
		<path class="st7" d="M465.6,358.2c-4.3-20.8-6-17.4-6-17.4s-3.7-4.9-11.4-9.6s-19.8-15.1-19.8-15.1h-26.6l-10.7-4.9l-13.9-19
			l-6.1-4.9l-7.4-3.3l-1.8-7l-3.2-4.5l-2.4-5l-2.7-2.8l-2.3-3.4c0,0-9.7-3-10.1-5.7c-0.3-2.7-3.7-4.4-3.7-4.4l-1.9-5.6
			c0,0-8.9-9.4-12.8-10.9s-7.7-10.9-7.7-10.9s-13.1-3.6-20.4-4.9c-7.3-1.4-18.6-6.6-19.6-7s-32,5.3-32,5.3l-3.7-11.4l-36.4,6.1
			l-59.7,4.9c0,0-36.7-36.4-40.5-36.4l-5,0.8l-2.6-2.4l-3.2-0.6v-1.7l3.4-16.2h-8.6H82h-4.9c0,0-1.8,3.1-4.6,5.4
			c-2.8,2.3-6.9,2-9.2,4.3s-5.6,12.3-8.2,14.8c-2.6,2.6-13.8,6.9-14.6,8.2s-3.1,14.6-3.1,14.6l-4.6,11.2l24.3,92.9l3.1,3.7l2.4,2.9
			L65,328c0,0,61.3-5.6,66.1-5.1c4.9,0.5,7.4,1,7.4,1l5.9-1.8l3.8-0.5l15.6-10.5c0,0,10.7-32.4,10.5-41.4
			c-0.3-8.9-6.1-37.8-6.1-37.8l-9.4-3.8l-10.5-5.6l-9.4,14l-11,22l-12.5-6.6l-32.7,6.4v1.8l-9.4,2.8l-2.3-3.3L44.4,268"/>
		<path class="st7" d="M77.1,160.1c0,0,2.3-3.3,3.6-4.6c1.3-1.3,3.8-3.3,3.8-3.3l-6.6-7.1c0,0-4.3-5.9-7.1-8.4
			c-2.8-2.6-6.6-5.1-6.6-5.1L56,129v-4.9c0,0-6.9-3.3-9.7-4.6C43.4,118.3,12,92.7,12,92.7l-8.3-7.1"/>
		<path class="st7" d="M95.6,160.1l7-3.6h7.4l19.9-10h4.6l5.1-2.3l2.6-3.3l104.1-51.6l10-12.8l3.1-5.9l20.7-12.5l-6.4-7.9l-2.4-3.1
			l-7.8-1.4l-12.3,5.1l-7-0.3l0,0l-3.9,0.7l0,0h-5.4l-6.9,1.1c0,0-4.1-1-6.4-3.6s-13.8-16.6-13.8-16.6s-4.6-4.6-8.7-6.6
			c-4.1-2-6.4-1.8-6.4-1.8l-1.5-1c0,0-1.8-1-5.9-3.3c-4.1-2.3-10.5-2.3-10.5-2.3l-6.9-5.7c0,0,0,4.1-3.8,4.3
			c-3.8,0.3-7.7,1.3-7.7,1.3l-4.1-5.1c0,0-3.3-0.8-6.4-1.5s-7.4-2.3-7.4-2.3l-3.8,3.3l-4.9,2.8l-2,2.8c0,0-2.6-0.3-6.4,1.8
			s-7.4,7.1-7.4,7.1l-4.1,4.3l-4.6,5.4l-4.9,3.3l7.4,6.4l1,18.4l-1.5,0.5l-4.3,9.2l2,6.1l-1.8,2.8l-6.1,5.1c0,0-1.8,3.3,0.8,9.4
			c2.6,6.1,4.1,10.2,2,13c-2,2.8-10.5,14-10.5,14s-2.6,3.8-3.3,7.7c-0.8,3.8-1.8,16.6-1.8,16.6v3.8"/>
		<path class="st7" d="M90,415l45.1,1.2l5.1,2.6l3.1-1.9l37.3,1.9h1.3h20.7h30.9l1.5,1.8l2.6-1.5h5.6l29.9-12.1c0,0,6.8-0.5,9.1-1.8
			c2.3-1.3,15.8-15,15.8-15l4.3-1.1l2-1.3h5.1v-1h3.2l1.4-1c0,0,1.9-2.4,9.8-2.9s6.8-1,6.8-1l0.1-2.2c0,0-0.3-2,2.9-2.2
			c3.2-0.1,9.3,4.2,9.3,4.2l5-0.3c0,0,0.3,2.2,1.4,2.9c1.1,0.8,3.6,0,3.6,0l2.7,0.1l1.3,2.6l1.3-1.1c0,0,5.2,1.9,6.5-0.8
			c1.3-2.7,2.3-3.3,2.3-3.3l2.3-2.8l1.7-0.6l1.7-2l1.7-2.9c0,0,3.3,1.7,5,0s1.1-3.8,1.1-3.8s4.1,0,6-0.8s2.9,0,2.9,0l2-1.3l3.7,1.1
			l5-5.1l0.6-2.4l2-0.6h1.9l2.8,1l1.5-1c0,0-0.3-0.9,3.4,1.5c3.7,2.4,4.2,3.4,4.2,3.4l2.3-0.3l4.6,2c0,0,8.6,1.5,9.7,1
			s3.4,0.1,3.4,0.1l2.2-2.3l2-0.1l1-1.8l1.1-0.4l1.8-0.5l2.4-1.3l1.9-1.7h2.2v-1.1h3.1c0,0-0.6-0.8,1.7-1.4c2.3-0.6,7,0,7,0l1,0.9
			l0.8-1.2"/>
		<path class="st7" d="M163.9,311c0,0-6.4,42.6-5.9,46.4s0,6.2,0,6.2l-13.5,28.1c0,0-5.9,15.3-5.1,21.2s0.8,5.9,0.8,5.9"/>
		<line class="st7" x1="143.4" y1="216.7" x2="148.3" y2="222.4"/>
		<line class="st7" x1="36.5" y1="232.3" x2="0" y2="222.4"/>
		<path class="st7" d="M172.1,283l20.6,8.1H218l13.5,2.6l6.6-3.3l20.9,5.4c0,0,1.5-0.3,2.6-1.3c1-1,0-7.7,0-7.7l2.1-5.7l97.1-3.7"/>
		<path class="st7" d="M352.3,638.5c0,0,3.1-1.7,8-6.6c4.9-4.9,7.1-7.1,7.1-7.1l7.9-2.3c0,0,3.3,3.1,5.6,2.3
			c2.3-0.8,4.6-3.6,4.6-3.6v-4.3c0,0,0.3-5.9,2.3-5.9s8.4,6.1,11.2,6.1c2.8,0,7.1-2,7.1-2s16.3-0.8,19.1-2.8c2.8-2,2.6-6.1,2.6-6.1
			s-8.4-16.1-6.9-16.9c1.5-0.8,8.2,1.5,8.2,1.5s10.2,1.3,11.7-0.5s3.3-6.4,5.6-7.9c0,0,7-5.1,14-3.6c7.1,1.5,8.9,2.2,8.9,2.2
			l4.2-3.4c0,0,5.3,2.2,9.2,1.4c3.9-0.8,3.9-1.4,3.9-1.4"/>
		<line class="st7" x1="138.6" y1="8.2" x2="128.2" y2="-2"/>
		<path class="st7" d="M280.1,58.3l13.5-6.1h11.2l14.3-9.4h6.6l5.6-6.9l8.7-1l1.3,1.8l9.4-1.8l1.3,1.5l6-3.4l7.4,1.5v14.6
			c0,0-4.3,0.5-5.9,4.3c-1.5,3.8-3.3,11.5-3.3,11.5s-1.3,9.4,2.3,13.5s5.6,5.7,5.6,5.7s0.5,5.7,1.3,8.6s3.6,7.7,3.6,7.7
			s3.4,5.5,5.1,6c1.8,0.5,7.6,2.4,8.9,1.4s5.8-0.3,5.8-0.3s12.8-0.7,18.4,0.3c5.6,1.1,18.7,3.7,18.7,3.7s4.9,10.8,6.1,12.6
			c1.3,1.8,0,7.5,0,7.5s0.6,6.3-0.7,7.8c-1.3,1.5,2,7.5,2,7.5l-1,4.4l2,7.1l3.1,7.8c0,0,4.4,7.1,6.5,8.2c2,1,8.1,8.5,10.9,8.5
			s12.6,4.8,12.6,4.8l0.1,11.1v7.1l7.7,14.3v4.1v4.3l-3.1,2.8c0,0-1.5,4.6,0,6.1s8.4,9.4,8.4,9.4s-1.5,6.1-1.3,7.7
			c0.3,1.5,3.1,15.1,3.1,15.1s-2.8,12.5-3.8,13.3s-5.9,0-5.9,0s-5.9,9.4-4.9,12.5s6.1,14.3,6.1,14.3l-2.6,10.2c0,0-1.8,7.1,0.3,7.9
			c2,0.8,6.4,1.8,6.4,1.8l4.3,0.8v2.6c0,0-0.8,2.3,0,2.6s5.1-3.3,6.4-4.3c0,0,4.1,1.5,5.9,0.3c1.8-1.3,5.4-2.6,7.4-2.6
			s7.9,1.3,7.9,1.3"/>
		<path class="st7" d="M471.6,328.1l-5.4,2c0,0-0.3,3.1-1.5,5.6c-1.3,2.6-5,5-5,5"/>
		<line class="st7" x1="5.5" y1="536.4" x2="4.1" y2="545.7"/>
		<line class="st7" x1="23.7" y1="440.9" x2="3.8" y2="436.9"/>
		<path class="st7" d="M24.6,335.4c0,0-2.4-0.9-8.5,0s-12.4,0-12.4,0"/>
		<path class="st7" d="M269.8,408.2l-8.5,10.6l4.3,25.5h22.3v16.9l-38.2-2v18.4h-15.4l10.1,7.7c0,0,2.4-4.1,5.3,2
			c3,6.1,3.5,11.9,3.5,11.9l-3.5,8.5l-5.3,3.6l-8.8,10.9"/>
		<path class="st7" d="M263.7,506.1l4.6,8.2v35.2h-16.9V575h-5.1v26.6l8.7,8.7l2.3,15.3l16.6,8.2c0,0,1-4.6,9.7-7.1
			c8.7-2.6,15.8-5.6,15.8-5.6l24.5,0.5l6.6-2.6l15.8-0.5v5.6l5-0.5l6.3-4.2l6.3-7c0,0-2.6-11.9,1.4-16.2c3.9-4.3,26.9-2.6,26.9-2.6
			l12.8-5.3l6.5-5.1l8.7-20.3l13.1-1.4l9.9-0.5l3.9-10.9l4.4-1.5l3.6,8.5l5.3,6.8l8.9-3.4l8.5,4.3c0,0,2.7,2.7,8,2.6"/>
		<path class="st7" d="M486.8,569.9l-14.6,3.1c0,0-6.3-3.4-11.7-5.4s-10.2,0.9-10.2,0.9s-4.8-2.1-7.8-1.6c-3.1,0.6-7.3,6.2-7.3,6.2
			l-10,3.9l-5.8,7.1c0,0-0.2,7-4.3,9.7c-4.1,2.7-8.9,6.6-11.7,7.5c-2.9,0.9-17.7-3.7-17.7-3.7l-6.6,0.2c0,0,1.4,9.9-1.5,10.4
			s-1.2,1.7-1.2,1.7l-7-1.4l-5.5,1.4"/>
	</g>
	<polyline class="st8" points="346.5,624 341.4,627.9 341.4,641.4 341.4,646 	"/>
</g>
<g id="Capa_8">
	<polyline class="st9" points="299.5,781.1 279.8,703.9 279.8,690.3 	"/>
	<path class="st9" d="M280.9,684.1l0.2-48.8c0,0-9.7-22.7-10.8-28.5s-5.7-0.9,0-19.5s10.8-30.2,10.8-30.2l-0.2-10.6
		c0,0,6.1-28.2,4.4-31.6"/>
	<path class="st9" d="M316.6,447.9c0,0-10.2,37.6-14,43.3c-3.7,5.7-12.6,14.6-12.6,14.6l-4.5,7.3l-4.7,1.8c0,0-5.1,9.5-5,10.9
		s0,8.2,0,8.2l3.4,10.9l1.6,1.7"/>
	<path class="st9" d="M265.2,425.1l2.3,15.4l5.2,12.1c0,0,2.1,16.7,3.2,19.2c1.1,2.6,0,15.4,0,15.4v5l3.4,4.9l-2.3,6.2l0.7,6.5
		l-1.8,16"/>
	<path class="st9" d="M313.1,427.1c0,0-5.4,18.4-6.8,19.1s-13.8,12.6-13.8,12.6L283,466l-6.3,11.6"/>
	<polyline class="st9" points="302.3,389 304,394.1 313.1,409.4 324.7,423.4 	"/>
	<polyline class="st9" points="302.3,362.8 305,365.5 306,374.9 310.4,384.2 	"/>
	<polyline class="st9" points="292.4,327 296.2,335.5 296.2,340.6 297.8,345.7 295,349.5 295.1,358.4 296.2,367.9 297.8,369.9 	"/>
	<polyline class="st9" points="297.8,280.7 298.9,286.3 295.1,291.3 295.1,297.4 297.8,304.8 298.9,310.3 300.9,318.8 304,327 
		304,331.2 306.3,343.3 308,348.5 	"/>
	<path class="st9" d="M221.6,91.1c0,0,7.8,20.4,10.9,23.8c3.1,3.4,5.8,18,5.8,18l2.7,17l5.4,13.7l7.5,14.6l11.1,9.6l10.5,5.6
		l6.8,6.1c0,0,6.1,18.1,6.5,22.3s0,17.5,0,17.5l-2.7,11.6l0.7,11.2l4.1,5.7l1.7,4.8v9.5"/>
	<line class="st9" x1="248.5" y1="147.3" x2="249.4" y2="169.8"/>
	<polyline class="st9" points="264.9,173 267.8,180 267.8,189.5 	"/>
	<g>
		<g>
			<polyline class="st10" points="260.9,171.6 260.9,163.4 277.4,163.4 			"/>
			<g>
				<path class="st11" d="M262.4,171.6c0,0.8-0.7,1.5-1.5,1.5s-1.5-0.7-1.5-1.5s0.7-1.5,1.5-1.5
					C261.7,170.1,262.4,170.8,262.4,171.6z"/>
			</g>
		</g>
	</g>
	<g>
		<g>
			<polyline class="st10" points="232,115.3 232,107.1 248.5,107.1 			"/>
			<g>
				<circle class="st11" cx="232" cy="115.2" r="1.5"/>
			</g>
		</g>
	</g>
	<g>
		<g>
			<line class="st10" x1="249.7" y1="671" x2="229.3" y2="671"/>
			<g>
				<path class="st11" d="M249.6,669.4c0.9,0,1.7,0.7,1.7,1.7c0,0.9-0.7,1.7-1.7,1.7c-0.9,0-1.7-0.7-1.7-1.7
					C247.9,670.1,248.7,669.4,249.6,669.4z"/>
			</g>
		</g>
	</g>
	<g>
		<g>
			<polyline class="st10" points="271.7,192.2 271.7,200.4 255.2,200.4 			"/>
			<g>
				<circle class="st11" cx="271.7" cy="192.3" r="1.5"/>
			</g>
		</g>
	</g>
	<g>
		<g>
			<line class="st10" x1="293.5" y1="355.2" x2="279.4" y2="355.2"/>
			<g>
				<circle class="st11" cx="293.4" cy="355.2" r="1.5"/>
			</g>
		</g>
	</g>
	<g>
		<g>
			<line class="st10" x1="259.6" y1="261.9" x2="245.5" y2="261.9"/>
			<g>
				<circle class="st11" cx="259.5" cy="261.9" r="1.5"/>
			</g>
		</g>
	</g>
</g>
<image style="display:none;overflow:visible;enable-background:new    ;" width="2032" height="3278" xlink:href="9A7369D60B5068AD.jpeg"  transform="matrix(0.2389 0 0 0.2389 0.2498 0.3979)">
</image>
<image style="overflow:visible;enable-background:new    ;" width="245" height="241" xlink:href="9A7369D60B5068B4.png"  transform="matrix(0.2164 0 0 0.2164 402.6915 27.531)">
</image>
<rect x="433.5" y="24.6" class="st12" width="25.3" height="53.8"/>
</svg>
