<?xml version="1.0" encoding="utf-8"?>
<!-- Generator: Adobe Illustrator 25.4.1, SVG Export Plug-In . SVG Version: 6.00 Build 0)  -->
<svg version="1.1" xmlns="http://www.w3.org/2000/svg" xmlns:xlink="http://www.w3.org/1999/xlink" x="0px" y="0px"
	 viewBox="0 0 1920 1080" style="enable-background:new 0 0 1920 1080;" xml:space="preserve">
<style type="text/css">
	.st0{stroke:#000000;stroke-miterlimit:10;}
	.st1{fill:#D0D2D7;stroke:#D0D2D7;stroke-width:0.6475;stroke-linecap:round;stroke-linejoin:round;stroke-miterlimit:2.5899;}
	.st2{fill:#BF8266;stroke:#FB7D50;stroke-width:0.6475;stroke-linecap:round;stroke-linejoin:round;stroke-miterlimit:2.5899;}
	.st3{fill:#C83A02;}
	.st4{fill:#BF8266;}
	.st5{font-family:'RobotoSlab-Medium';}
	.st6{font-size:20px;}
	.st7{fill:#FFFFFF;}
	.st8{font-family:'RobotoSlab-Bold';}
	.st9{font-size:16px;}
	.st10{font-family:'RobotoSlab-Regular';}
</style>
<g id="Layer_2">
	<rect x="-2" class="st0" width="1920" height="1080"/>
</g>
<g id="Layer_1" xmlns:vectornator="http://vectornator.io">
	<g id="Layer_2_00000101808859702615236440000012134477461396082563_" vectornator:layerName="Layer 2">
		<path class="st1" d="M583.35,170.34c-0.54,0-0.54,0-1.08,0c0-0.81,0-0.81,0-1.62c-8.82-2.2-1.58,5.84,7.02,7.56
			c0,11.01,3.78,16.12,3.78,24.3c0,0.4-0.28,0.77-0.54,1.08c-2.61,3.14-4.75,1.57-8.1,3.24c-4.35,2.18-12.68,20.48-12.96,23.22
			c1.89,0.27,1.89,0.27,3.78,0.54c3.06-6.11,6.58-6.26,12.42-9.18c-1.88-0.94-1.08-0.14-1.08-3.24c0.81-0.27,0.81-0.27,1.62-0.54
			c0-0.54,0-0.54,0-1.08c6.87-0.86,10.91-1.93,11.88-9.72c2.01,0,24.99-5.69,19.98,4.32c8.64,4.32,4.66,14.45,1.08,21.6
			c8.43,0,13.5,1.33,13.5,9.72c20.41,0,11.8,6.81,8.64,19.44c13.27,2.21,3.24,3.6,3.24,10.8c3.66,0,7.18,3.05,10.8,3.78
			c0.87-1.74,2.7-4.21,2.7-5.94c14.82-1.14,10.59-19.69,30.24-16.74c11.23,1.69,0.38,24.53,2.7,29.16
			c1.54,3.09,16.55,7.24,19.98,8.1c0-6.38,17.64-10.35,23.22-9.18c3.81,0.8-9.18,8.23-9.18,13.5c4.73,0,9.38,0.15,14.04,1.08
			c0,9.25,2.86,7.24-9.72,8.64c4.64,2.32,9.49,3.45,14.04,6.48c-0.83-4.97,1.17-7.84,5.94-8.64c0-12.63,13.46-30.08-0.54-39.42
			c6.2-12.41,17.35-18.38,30.24-18.9c3.82-0.15,6.24-10.41,8.64-9.72c3.96,1.13,10.1,9.18,12.43,9.18c0-4.81,5.07-14.04,10.8-14.04
			c-1.29-2.58-2.47-4.95-3.78-7.56c6.03-6.03,22.25-9.07,10.26-21.06c0.95-1.9,0.47-0.69,1.08-3.78c6.57,0,13.82-9.8,20.52-7.56
			c0,17.81,9.97,3.82,12.96-2.16c-6.26-3.13-15.45-9.08-17.82-16.2c-1.48,0-0.76,0.16-2.16-0.54c1.97-3.94,2.92-20.84,14.04-9.72
			c2.77-1.39,16.26-8.05,8.1,2.16c1.32,0.66,4.32,2.94,4.32,4.32c1.48,0,0.76-0.16,2.16,0.54c1.94-1.94,9.49-13.57,10.26-14.04
			c3.96-2.38,23.39-1.45,26.46-1.62c24.57-1.36,43.25,24.3,68.04,24.3c12.55,0,28.81-9.12,42.12-11.34
			c2.6,5.19,9.47,7.89,11.34,13.5c4.71,0,5.56-6.71,9.72-8.1c5.91-1.97,16.23,7.04,20.52,10.26c6.5,4.88,52.92,32.41,52.92,36.18
			c0,14.55-19.74,23.22-30.24,24.84c-1.73,0.27-15.73,0.84-16.2,2.7c-0.84,3.34,0.69,7.31-1.08,10.26
			c-1.49,2.48-8.31,3.32-9.18,5.94c-3.65,10.94-19.21,26.07-24.3,10.8c-6.84,0-9.84-5.66-16.74-2.7c-3.16,1.35-0.54,6.86-1.08,10.26
			c-0.65,4.16-11.35,7.62-12.42,14.58c-1.31,8.55,9.29,22.32,10.8,31.86c0.59,3.76,47.43,16.34,51.3,22.14
			c5.52,8.29,1.42,27.83,0,37.8c4.04,0,2.01,5.54,2.7,8.1c0.71,2.68,10.66,8.34,12.96,10.26c6.46,5.38,16.98,1.6,22.68,6.48
			c8.29,7.11,6.09,29.75,4.86,38.34c-0.54,3.82,7.04,9.9,7.56,14.04c1.15,9.13,1.63,19.17,1.63,28.08
			c0,13.13-18.86,3.91-11.34,26.46c0.54,0,0.54,0,1.08,0c0,6.74,0.36,14.87-1.08,21.6c-0.35,1.64-9.48,5.34-10.26,10.8
			c-0.54,3.77,2.53,14.68,2.7,17.82c-12.64,0-15.92,6.74-23.76,7.02c-14.13,0.5-21.5-7.02-34.56-7.02c-3.83,0-5.13,5.71-8.64,5.94
			c-4.85,0.32-9.8-0.87-14.58,0c-5.72,1.04-10.63,12.41-16.74,14.04c-8.37,2.23-15.17-4.44-22.68-5.94c0-0.54,0-0.54,0-1.08
			c-2.6,0-5.46-2.17-8.1-2.7c-1.24,9.96-26.1,9.33-34.02,10.26c-1.13,0.13-32.76,26.95-32.94,28.62c-0.78,7.34,0,14.76,0,22.14
			c19.44,0,21.43-3.24,22.14,18.9c-8.11,0.62-4.71,0.93-10.26,0c0.27-0.54,0.27-0.54,0.54-1.08c-9.16,0-19.05,0.19-28.08-1.62
			c-1.27,5.06-0.21,10.44,0,15.66c-4.33,0-9.1-1.39-12.96,0.54c2.03,8.13,13.74,12.99,15.66,26.46c-21.71,10.86,4.33,16.19,8.1,8.64
			c2.16,0.27,2.16,0.27,4.32,0.54c0.54,19.71,0.54,19.71,1.08,39.42c-3.8,0.63-2.2,0.89-4.86,0c0-2.09-1.91-1.79-3.78-2.16
			c0-0.54,0-0.54,0-1.08c-1.07,0-1.07,0-2.16,0c0-0.54,0-0.54,0-1.08c-1.59,0-3.28-0.76-4.86-1.08c-2.17,8.7-2.15,17.77-4.32,26.46
			c-3.1,0-1.9,0.4-3.78-0.54c-0.84,8.37-1.64,16.96-1.08,25.38c0.44,6.54,9.18,8.73,9.18,22.68c4.56,1.52,9.53,6.66,14.04,7.56
			c4.42,0.88,6.12-9.09,8.64-9.18c19.63-0.73,42.69-2.16,61.56-2.16c0,2.7,0,2.7,0,5.4c2.89,0,1.08,0.08,5.4-0.54
			c-0.54-0.27-0.54-0.27-1.08-0.54c7.29-7.29,3.74-13.41,8.1-22.14c2.8-5.6,19.13-9.38,23.22-7.56c1.63,0.73,2.12,4.22,4.32,3.78
			c2.66-0.53,2.07-5.4,5.4-5.4c0,11.99,9.2-2.71,10.26-3.78c4.64,9.27,15.07-19.93,16.74-21.6c2.13-2.12,17.62,11.73,22.68,1.63
			c-1.07-1.07-1.63-2.17-2.7-3.24c1.13-2.25,3.17-3.63,4.32-5.94c-0.54-0.27-0.54-0.27-1.08-0.54c11.03-3.67,3.73,14.43,16.74,13.5
			c8.34-0.6,7.02,2.32,17.28,5.4c5.98,1.8,22.18-7.74,18.9,7.03c-0.3,1.35-12.57-2.16-13.5-2.16c-9.31,0-18,4.18-27.54,4.86
			c0-0.54,0-0.54,0-1.08c-13,0-18.83,8.7-31.32,10.26c1.35-0.27,1.35-0.27,2.7-0.54c-2.79-0.56-4.18-2.55-6.48-3.24
			c-11.75-3.53,3.85,13.59-0.54,19.44c-3.81,5.09-20.66,6.48-28.08,6.48c0-0.54,0-0.54,0-1.08c-3.17,0-4.62-1.73-5.4-4.86
			c-6.71,20.14-13.77,4.05-21.06,11.34c-6.82,6.82-15.94,11.08-22.67,17.82c-3.04,3.04-0.87,10.82-2.7,12.96
			c-3.59,4.19-8.31-0.36-11.88,2.7c-3.54,3.03-3.3,6.73-5.94,10.26c-3.85,5.15-9.52,4.42-15.12,1.62c0.27-1.07,0.27-1.07,0.54-2.16
			c0.27,0.54,0.27,0.54,0.54,1.08c0-1.35,0-1.35,0-2.7c-0.81,0-0.81,0-1.62,0c0-1.63,0-1.63,0-3.24c-7.81,0-4.01,13.11-2.7,18.36
			c-12.2,0-19.02,3.26-30.24,4.86c-0.71,6.39-2.21,14.38,4.86,16.74c0,1.08,0,1.08,0,2.16c-5.1,0-15.52,0.1-19.98,2.7
			c-0.52,0.3-6.7,8.72-7.56,5.94c-0.64-2.07-0.36-4.32-0.54-6.48c-4.22,2.11-15.42,1.44-18.9,1.62c0-2.97,0-2.97,0-5.94
			c-1.69,0.56-13.93,5.08-14.04,6.48c-1.5,19.88,0.84,24.66-17.82,27c0-4.51,0.35-7.47,0-12.43c-3.4,1.7-7.21,2.82-10.26,4.86
			c1.74,1.74,4.07,5.19,4.86,7.56c-13.65,6.82-37.71,9.12-49.68,16.74c-7.49,4.77-10.39,11.37-18.9,13.5
			c-7.41,1.85-12.87-1.9-19.98-0.54c-9.14,1.74-27.03,6.4-13.5-8.1c1.56-1.68,1.05-2.96,2.7-3.78c-0.58-1.74-1.62-1.65-1.62-3.24
			c-9.32,0-10.32-2.36-17.82-4.86c0-2.14-1.63-4.36-2.16-6.48c-0.54,0-0.54,0-1.08,0c1.35-8.12,7.61-11.98,10.8-18.36
			c1.8-3.59,0.99-17.59,1.08-19.44c-5.23,0-10.44,0.35-15.66,0.54c0-0.54,0-0.54,0-1.07c-8.64,0-8.64,0-17.27,0
			c0-4.67,0.56-8.84,1.07-13.5c-6.44-1.07-1.43-21.04-1.07-27c-1.08,0-1.08,0-2.16,0c0.78-1.57,0.14-1.08,2.16-1.08
			c-8.09-0.74-16.25-1.15-24.3-2.16c0-0.54,0-0.54,0-1.08c-8.29-0.69-16.53-1.22-24.84-1.62c-2.86,11.43-13.65,32.74-11.34,44.28
			c0.95,4.73,7.74,12.78,9.72,16.74c-2.72,0.91-5.44,1.64-8.1,2.7c6.4,12.8,23.45,35.72,16.2,50.23c-2.52-0.36-5.04-0.73-7.56-1.08
			c0.47-4.71,0.43-7.89-1.07-12.42c-7.39,0-7.56,1.77-7.56-4.86c-12.68,0-25.69,1.29-38.34,2.7c1.35-0.27,1.35-0.27,2.7-0.54
			c-2.16-0.27-2.16-0.27-4.32-0.54c0-0.54,0-0.54,0-1.08c-0.54,0-0.54,0-1.08,0c0.27-0.81,0.27-0.81,0.54-1.62
			c-0.54,0-0.54,0-1.08,0c0.27-1.08,0.27-1.08,0.54-2.16c-0.54,0-0.54,0-1.08,0c0-0.54,0-0.54,0-1.08c-0.54,0-0.54,0-1.08,0
			c-5.38,16.15,11.97,9.54,14.04,17.82c30.25,0-24.94,11.21-28.08,11.34c0.81-0.27,0.81-0.27,1.62-0.54
			c-1.89-0.27-1.89-0.27-3.78-0.54c0-5.99-18.9-6.81-18.9-14.58c0-4.07,5.54-9.07,5.94-13.5c1.01-11.08-5.12-22.21-3.78-32.94
			c-0.54,0-0.54,0-1.08,0c0.97-4.83-2.41-5.46-6.48-6.47c0-2.11-0.95-3.93-1.62-5.94c-0.54,0-0.54,0-1.08,0
			c0.8-2.38-0.29-4.65-1.08-7.02c-0.54,0-0.54,0-1.08,0c0-0.54,0-0.54,0-1.08c-0.54,0-0.54,0-1.08,0c1.73-1.73,1.18-0.58,0.54-3.78
			c-0.81,0-0.81,0-1.62,0c0-0.81,0-0.81,0-1.62c0.27,0.54,0.27,0.54,0.54,1.08c0.77-3.09,1.86-4.8,3.24-7.56c-0.54,0-0.54,0-1.08,0
			c0.81-0.27,0.81-0.27,1.62-0.54c-5.98-3.59-12.52,0.51-20.52-2.16c0-11.23,17.66-34.52,1.08-36.17
			c3.94-7.88-4.54-12.76-7.56-17.28c-2.25-3.37,3.24-8.26,3.24-11.88c0-3.63-8.1-4.82-8.1-9.18c0-6.78,6.48-11.52,6.48-16.2
			c-0.81,0-0.81,0-1.62,0c0-2.37,0.07-4.12,0.54-6.48c-0.54,0-0.54,0-1.08,0c16.09-8.04,13.5-36.06,13.5-51.3
			c0-5.34,11.04-17.51,14.58-21.06c2.28,1.52,7.66,7.02,9.72,7.02c0-3.81,7.45-33.48,10.26-33.48c0-5.91,5.16-9.34-2.16-10.8
			c0-0.54,0-0.54,0-1.08c-8.98,0-16.19-8.27-24.84-9.72c0.54-0.27,0.54-0.27,1.08-0.54c-2.7-1.35-8.1-1.59-8.1-4.86
			c-9.54,0-20.91,24.1-26.46,31.86c-14.19,19.87-27.93,40.07-42.12,59.94c-3.21,4.49-9.07,17.91-14.04,19.98
			c-6.64,2.77-19.66-1.88-26.46-3.24c0-0.54,0-0.54,0-1.08c-9.92,0-10.94,1.53-18.36,6.48c-1.3-2.6-5.54-3.52-7.02-6.48
			c-3.66,2.29-13.75,14.63-17.82,6.48c-19.28,17.13-6.49,5.91-2.7,17.27c-2.04,1.02-3.98,3.39-5.94,4.86
			c1.98,0.99,3.2,2.51,5.4,3.24c0,2.58-10.28,25.23-11.88,25.38c-2.44,0.23-26.61-4.86-24.3-12.96c1.56-5.48,9.92-7.22,13.5-10.8
			c-3.23-6.46-1.19-6.26,1.62-11.88c-0.72-0.36-1.44-0.72-2.16-1.08c0.27-0.54,0.27-0.54,0.54-1.08c-4.51-2.25-6.07-8.95-13.5-6.48
			c-1.56,0.52-20.52,26.58-20.52,17.28c-0.81,0-0.81,0-1.62,0c0.27-0.54,0.27-0.54,0.54-1.08c-0.81,0-0.81,0-1.62,0
			c8.67-9.54,19.21-17.4,28.08-27.54c0.76-0.87-0.82-1.84-1.08-2.16c-9.2-11.49-23.47-28.5,0-31.86c0,3.37,5.72,10.42,8.64,11.88
			c0.86-1.73,0.14-1.08,2.7-1.08c0-0.54,0-0.54,0-1.08c6.32-1.06,7.05,2.73,11.88,5.94c-0.54,0.27-0.54,0.27-1.08,0.54
			c5.14,0,13.31-11.62,17.82-15.12c-2.68-2.68-6.51-8.66-9.72-10.26c2.95-8.84,16.65-9.91,18.9-18.9
			c-4.86-2.43-17.43-9.48-19.98-14.58c-1.85-3.7,3.87-11.69,4.86-15.66c3.04-12.18,2.7-15.09,2.7-32.94
			c0-12.58-8.55-34.9,3.24-43.74c14.33-10.75,44.35-3.31,56.16-15.12c-2.61-5.22-20.75-5.09-25.92-10.26
			c2.3-2.3,64.17-30.8,49.14-34.56c0.27-0.54,0.27-0.54,0.54-1.08c-0.81,0-0.81,0-1.62,0c0-1.48-0.01-2.16-1.62-2.16
			c0.27-0.54,0.27-0.54,0.54-1.08c-1.48-1.48-0.92-0.6-1.62-2.7c-0.54,0-0.54,0-1.08,0c0-3.95-3.68-6.73-4.86-10.26
			c-0.81,0-0.81,0-1.62,0c0-2.43,0-2.43,0-4.86c0.27,2.16,0.27,2.16,0.54,4.32c0-4.05,0-4.05,0-8.1c-1.08-0.27-1.08-0.27-2.16-0.54
			c0-16.69-1.68-16.1-18.9-16.74c-1.94,7.76-5.73,15.66-15.66,15.66c0-2.73-2.58-3.75-4.86-4.32c0-0.54,0-0.54,0-1.08
			c-2.19,0-4.92-0.82-7.02-1.08c0-0.54,0-0.54,0-1.08c-5.04,0-10.1-0.66-15.12-1.08c-0.76,2.29-1.15,4.65-1.62,7.02
			c-1.41,0.13-10.26,2.13-10.26-1.62c-1.49,0-2.84-0.71-4.32-1.08c0-0.54,0-0.54,0-1.08c-1.89,0-1.89,0-3.78,0c0-0.54,0-0.54,0-1.08
			c-5.78,0-3.27-0.32-7.56,0.54c0-2.87-2.57-3.79-3.24-6.48c-12.71,0-13.49,1.1-8.64,10.8c-20.66,20.66-17.33-5.4-23.76-5.4
			c0.99-1.98-1.53-6.48-3.78-6.48c0.7-1.4,0.14-1.08,1.62-1.08c0-5.06,14.67-19.98,7.56-19.98c0-13.97,4.24-11.89,4.86-19.98
			c0.24-3.05-2.59-8.22-2.16-10.8c0.77-4.62,8.1-4.31,8.1-9.72c-0.54,0-0.54,0-1.08,0c0-9.61,7.92-8.22,15.66-10.8
			c0-0.54,0-0.54,0-1.08c6.51-0.59,10.26-0.62,10.26-7.56c2.61-0.65,6.79,2.95,8.64,2.16c8.55-3.66,3.78-15.61,3.24-21.6
			c2.43-0.54,2.43-0.54,4.86-1.08c-0.27-1.89-0.27-1.89-0.54-3.78c0.27,1.62,0.27,1.62,0.54,3.24c0.58-24.78-1.43-48.79-3.78-73.44
			c-0.6-6.27-3.2-22.03,2.7-26.46c6.78-5.09,16.91-1.37,25.38-1.62c0-1.08,0-1.08,0-2.16c-0.54,0-0.54,0-1.08,0
			c0-11.61,0-11.61,0-23.22c0.27,4.32,0.27,4.32,0.54,8.64c0.18-3.24,0.03-6.51,0.54-9.72c0.12-0.75,1.28-0.94,1.62-1.62
			c14.15,7.07,20.49,27,34.56,27c0-7.67,8.15-10.31,12.96-15.12c3.11-3.11,0.54-12.49,0.54-17.82c20.02-1.33,5.75-22.14,30.78-22.14
			c0-0.54,0-0.54,0-1.08c-3.02,0-2.74-2.18-4.86-3.24c6.58-13.16,19.63,10.86,25.92,12.96c0-12.88-4.55-13.26,10.26-14.04
			c0,3.24,0,3.24,0,6.48c10.81,0,5.41-0.18,16.2,0.54c0-3.06-0.47-4.32,2.7-4.32c0-3-8.71-14.6-11.88-15.66
			c0.54-0.54,0.54-0.54,1.08-1.08c-4.32-1.44-4.3-7.96-9.18-9.18c0-4.8-7.85-10.05-9.72-15.66c-0.54,0-0.54,0-1.08,0
			c-0.45-1.36-0.98-2.51-1.62-3.78c3.27-0.65,6.13-3.18,9.18-2.16c0.27-0.54,0.27-0.54,0.54-1.08c9.13,3.04,23.46-8.1,31.86-8.1
			c0-2.97,1.28-15.22,4.32-16.74c4.35-2.17,9.73-0.94,14.58-0.54c1.44,0.12,4.21,5.29,5.94,5.94c6.37,2.39,11.48-0.54,17.82-0.54
			c3.3,0,4.05,6.16,6.48,7.02C579.29,163.22,582.32,160.09,583.35,170.34z"/>
		<path class="st2" d="M890.07,156.3c0.9-1.8,1.48-3.24,3.78-3.24c0,2.26-3.54,7.73-0.54,9.72c8.78,5.85,31.3,9.63,40.5,8.1
			c0-11.1,15.11-23.26,18.9-8.1c8.19,0.63,16.8,0.18,19.44,8.1c4.29,0,5.81,6.9,6.47,10.26c2.05-1.02,5.2-1.03,7.56-1.62
			c0,3.28,1.34,5.82-0.54,8.64c2.14,1.43,2.43,2.42,1.62,4.86c3.44,0,1.83-0.22,4.86,0.54c0.67-2.65,0.02-1.63,1.63-3.24
			c8.09,4.05,21.62,4.81,16.74,14.58c3.27,3.27,3.23,4.2,8.64,5.4c-3.06-6.13,31.26-3.72,12.96,14.58c3.59,3.59,0.63,7.47,0,11.88
			c4.78,0,9.72-5.61,9.72-10.8c4.67-0.67,5.68-1.01,6.48,3.78c12.6,0-4.86,17.37-4.86,17.82c9.25,0,36.49,5.34,28.63,21.06
			c6.6,0.47,10.55,1.2,17.27,1.62c0,2.09-0.12,3.93,0.54,5.94c5.53-0.79,6.72-0.46,11.34,1.08c0,2.87-2.36,2.35-4.86,2.16
			c-12.62-0.97-37.79,10.84-41.04-5.4c-2.33,0-2.7-1.51-2.7-3.78c-4.38-1.09-6.73-0.46-7.56-5.4c-0.54,0-0.54,0-1.08,0
			c0-1.75-1.14-1.64-2.7-2.16c0-0.54,0-0.54,0-1.08c-4.19,2.09-3.36,2.7-8.64,2.7c-3.6,18.01-2.56,8.91-27.54,10.26
			c-1.7,0.09-3.15,1.62-4.86,1.62c0-1.62,0-1.62,0-3.24c-3.16,0-8.69,4.68-4.86,7.56c2.81,2.11,11.34,1.26,12.42,4.86
			c2.47,8.25-6.66,5.6-5.4,11.88c-4.12,0.82-1.79,0.43-7.02,1.08c-0.27,3.51-0.27,3.51-0.54,7.02c3.31,0,9.56,0.86,7.03,5.94
			c0.54,0,0.54,0,1.07,0c0,4.48-0.41,4.74-3.77,8.1c2.14,1.07,2.07,3.42,1.07,5.4c2.87,0,4.33-0.77,4.33,2.16
			c-1.89,0.54-1.89,0.54-3.78,1.08c0.27,1.08,0.27,1.08,0.54,2.16c-5.75,0.72-8.79,3.78-13.5,3.78c-5.72,0-11.45-3.76-3.24-5.4
			c0-7.54-16.74,6.68-16.74,9.72c5.89,0,4.33,4.31,4.33,8.64c4.45,1.48,9.35,0.88,14.04,1.08c0,5.23-10.66-0.14-14.58,3.78
			c4.07,2.03,9.85,3.79,5.4,9.72c18.67,9.33-0.76,15.73-2.16,29.7c-4.64,0.66-10,6.87-13.5,1.62c1.79-0.89,2.5-2.09,4.32-2.7
			c0-1.08,0-1.08,0-2.16c-2.61,0-2.87-0.99-5.4-1.62c0-0.54,0-0.54,0-1.08c-3.09-0.62-2.29,0.28-3.24-1.62
			c0.81-0.54,0.81-0.54,1.63-1.08c-2.04-2.04-0.26-3.78,2.16-3.78c-6.31-0.63-3.63-0.89-8.1,0c-1.2,10.87-16.78,8.23-20.52,19.44
			c-3.84,0-3.21-1.34-6.48-2.16c-1.13,3.38,8.18,19.93,8.64,25.92c2.64,0,7.05,4.38,8.1,6.48c-3.35,0-1.96-0.5-4.33,1.08
			c20.08,10.04,24.58-5.34,30.78,19.44c-1.53,0.77-0.8,0.26-2.16,1.62c0.95,1.42,9.71,4.5,12.42,5.4c0,1.65-0.12,0.74,0.54,2.7
			c-22.45-4.49-3.25,13.5-17.28,13.5c-2.25,13.51-7.24,10.16-5.94,7.56c-1.35,0.27-1.35,0.27-2.7,0.54
			c4.74,2.37,3.96,8.46,0.54,11.88c1.89,0,1.89,0,3.78,0c2.12,12.68,1.38,13.74-7.56,22.68c6.97,0,7.48,14.84,21.06,16.2
			c0,6.16-7.78,7.02-12.42,7.02c-1.39,5.54-7.02,10.55-7.02,16.2c7.87,0.98,8.71,9.52,1.62,11.88c5.73,2.86,6.7,2.33,7.56,9.18
			c-1.89,0.27-1.89,0.27-3.78,0.54c-0.62,6.84,5.41,14.52,5.4,14.58c-0.6,2.98-21.76,3.11-23.76,3.78c-1.98,0.66,0,20.13,0,21.6
			c0,12.28-8.64,5.61-8.64,11.88c7.17,2.4,3.75,12.95-3.78,9.18c-1.52,1.52-3.54,3.93-5.4,4.86c4.43,0,17.3-1.38,17.82,4.32
			c2.1,23.15-19.29,5.76-22.14,12.42c-2.43,5.66-7.21,11.38-9.18,17.28c-0.01,0.01,7.77,4.27,2.7,5.4
			c-3.49,0.78-7.81-2.06-11.34-3.24c0-0.82,0-0.82,0-1.63c-2.55,1.28-4.89,1.11-7.03,3.24c0.27,0.54,0.27,0.54,0.54,1.08
			c-7.47,7.47-2.21,16.25-10.8,24.84c4.35,8.7,21.57,8.1,29.16,8.1c1.57,4.7,3.46,6.73,4.33,11.88c12.57,1.79-8.4,18.95,0,22.68
			c14.83,6.59,20.58,16.83,38.87,18.36c0-4.35-0.39-2.58,0.54-5.4c3.77,0,8.4,3.85,10.26,7.56c-0.72,0.36-1.35,1.08-2.16,1.08
			c-6.48,0-12.96-0.72-19.44-0.54c-2.57,0.07,0.21,5.74-1.62,7.56c6.57,0.41,23.46-1.02,18.9,8.1c13.01,0,6.77,11.2-1.08,15.12
			c3.26,9.76,5.13,0.54,11.34,0.54c0,2.57-0.07,2.84-1.08,4.86c0.54,0.27,0.54,0.27,1.08,0.54c1.79-1.78,5.23-3.24,7.56-3.24
			c0,1.99-0.23,2.39-1.62,3.78c6.52,1.86,14.58,5.91,14.58,12.96c1.89,0.27,1.89,0.27,3.78,0.54c2.76-5.54,9.69-9.12,12.96-16.74
			c0.2-0.47,0.67-0.77,1.08-1.07c1.92-1.44,6.84,1.85,9.18,1.62c8.45-0.85,13.91-8.92,27.54-9.72c-0.54-0.27-0.54-0.27-1.07-0.54
			c0.8-0.27,24.86-6.48,25.37-6.48c-2.5-5.01,5.9-12.42,11.34-12.42c-0.43-1.7-0.86-2.8-1.62-4.32c6.81-0.62,12.97-2.46,19.97-3.24
			c0-0.54,0-0.54,0-1.08c-0.54,0-0.54,0-1.07,0c1.81-3.61,10.57-3.02,13.5-3.24c0,2.25,0.53,3.22,1.07,5.4
			c-2.49,1.66-0.75,2.91-2.7,4.86c0.8,1.6,1.86,2.65,2.7,4.32c-2.82,2.83-6.76,1.15-10.26,2.7c-8.72,3.88-2.76,9.51-18.36,7.56
			c0-0.54,0-0.54,0-1.08c-2.54,0-1.09,0.1-4.32-0.54c0-0.54,0-0.54,0-1.08c-14.98,0,1.19,9.06-1.62,18.9
			c-0.21,0.74-1,3.67-2.16,3.78c-4.8,0.43-39.96,5.07-39.96-4.33c-7.54,0-1.15,9.65-4.86,11.88c-5.75,3.45-13.07,0-18.9,0
			c-4.66,0-3.15,8.62-7.56,9.72c-6.56,1.64-21.15,0.85-25.37,6.48c-1.55,2.07,3.21,13.46,0,14.04c-10.65,1.94-13.67-1.87-23.76,4.86
			c7.41,0,11.97,10.79,4.32,11.88c-8.13,1.16-11.32-0.54-19.44-0.54c-2.16,15.09-47.15,17.05-48.6,24.3
			c-0.8,3.96,2.57,10.57,3.24,14.57c-20.23,6.75-9.44-8.1-15.12-8.1c0-1.62,0-1.62,0-3.24c-2.96,0.98-6.03,1.5-8.64,3.24
			c0.9,3.6-5.85,5.94-9.18,5.94c0.27-0.54,0.27-0.54,0.54-1.08c-0.54,0-0.54,0-1.08,0c0-0.54,0-0.54,0-1.08
			c-2.66,0-4.69,1.08-7.56,1.08c3.9-5.85,15.46-3.74,18.36-8.1c2.29-3.44-2.8-7.25-1.62-10.8c-0.54,0-0.54,0-1.08,0
			c0-13.67-27.47,12.08-31.86-1.08c-4.3-12.89,9.7-4.41,10.8-10.26c1.86-9.93-1.44-13.03,8.1-16.2
			c-4.63-13.89,20.05-0.93,22.68,4.32c5.02-2.51,2.03-5.78,11.87-10.26c2.47-1.12,0.54-5.39,0.54-8.1c-2.18,0-4.98-5.72-7.56-4.86
			c-1.15,0.38-9.18,9.27-9.18,1.62c-1.64,0-0.74,0.11-2.7-0.54c0-0.54,0-0.54,0-1.07c-2.23,0-3.59,2.8-4.86,4.32
			c-1.96-0.98-3.86-2.01-5.94-2.7c0-0.54,0-0.54,0-1.08c-4.34,0-7.94-8.06-12.42-9.18c0-2.68,2.16-2.73,2.16-4.86
			c1.35,0,1.35,0,2.7,0c0-3.37,0.17-5.21,1.62-8.1c-5.17,4.42-6.05,9.17-12.96,9.17c0-1.79,0.76-3.24,2.7-3.24c0-0.54,0-0.54,0-1.08
			c-1.9,0.95-0.68,0.62-3.77,0c0-1.8,1.24-3.24,3.24-3.24c0-0.54,0-0.54,0-1.08c-2.36,0-6.31,1.42-7.56-1.08
			c3.44-0.86,3.7-2.32,2.16-5.4c2.86-1.43,0.68-0.51,7.02-1.08c0-1.07,0-1.07,0-2.16c-3.53-0.59-4.04,0.04-4.86-3.24
			c1.07-0.27,1.07-0.27,2.16-0.54c0-0.81,0-0.81,0-1.62c-2.03-0.51-3.35-0.76-4.32-2.7c1.33-1.33,0.57-1.08,2.16-1.08
			c0-2.76,1.34-7.3-0.54-9.18c2.27-3.79,1.94-7.69,2.7-11.88c0.63-3.48,10.36-3.13,5.94-7.56c3.87-7.75-6.59-21.06,5.94-21.06
			c0-1.35,0-1.35,0-2.7c-3.88-0.65-2.64,0.38-4.32-2.16c1.33-1.34,0.57-1.08,2.16-1.08c-1.31-3.93-3.69-1.51-2.7-6.48
			c-0.54,0-0.54,0-1.07,0c1.59-3.18,0.57-0.68,0-8.1c2.16-0.27,2.16-0.27,4.32-0.54c-0.98-3.92-0.62-1.42,0-7.56
			c-5.39-1.8,2.16-23.76,1.08-30.24c-0.54,0-0.54,0-1.08,0c0.27-0.54,0.27-0.54,0.54-1.08c-2.17-1.09,0.1-3.78-2.7-3.78
			c0.27-0.81,0.27-0.81,0.54-1.62c-0.54-0.27-0.54-0.27-1.08-0.54c0.72-2.87-0.18-1.97,2.7-2.7c0-2.71,0.04-0.72-0.54-5.94
			c-0.54,0-0.54,0-1.07,0c0-2.02-0.25-1.14,0.54-2.7c-0.54,0-0.54,0-1.08,0c0.27-1.08,0.27-1.08,0.54-2.16
			c0.27,0.54,0.27,0.54,0.54,1.08c0-7.58,1.66-4.33,8.1-6.48c-3.36-10.07,7.3-28.33,3.78-38.88c1.74-0.87,0.69-0.44,3.24-1.08
			c0-0.54,0-0.54,0-1.08c2.55-0.64,1.83,0.12,2.7-1.62c-0.81-0.27-0.81-0.27-1.62-0.54c0.83-2.49,1.23-2.26,3.78-1.62
			c-1.59-0.79-0.7-0.41-2.7-1.08c0-3.55,3.65-3.41,6.48-2.7c0-0.54,0-0.54,0-1.08c-0.54,0-0.54,0-1.08,0c1.17-3.51,0.59-1.05,0-7.56
			c-0.54,0-0.54,0-1.08,0c0-3.75-0.76-2.48,1.08-4.32c-0.27-0.54-0.27-0.54-0.54-1.08c1.35-1.34,2.2-9.58,1.63-11.88
			c4.9-2.45,4.27-11.13,5.4-15.66c1.66-6.67,8.88-11.55,11.34-18.9c-9.17-3.06-6.24-7.51-2.7-14.58c-2.6-1.3-8.71-7.53-2.16-10.8
			c-2.02-4.05-3.3-8.22-5.4-12.42c3.57-3.56,1.17-8.01,2.16-12.96c-1.89-0.27-1.89-0.27-3.78-0.54c0-2.62,0.54-4.9,0.54-7.56
			c-9.58-0.56-6.44,0.83-10.26-1.08c1.74-2.61,2.62-9.97,1.62-12.96c2.47-1.24,1.48-3.78,5.4-3.78c0-2.16,0-2.16,0-4.32
			c-1.62,0-1.62,0-3.24,0c0-1.83,0.78-3.84,0-5.4c3.17-1.59,1.08-0.14,1.08-7.56c-0.54,0-0.54,0-1.08,0
			c1.11-2.22,0.01-3.78,3.24-3.78c-2.27-4.53-2.12-6.46-1.62-12.96c-3.44,0-1.96-3.39-3.24-5.94c1.4-0.7,1.07-0.14,1.07-1.62
			c-4.73,0-9.96,0.84-14.57,1.08c-0.94-4.67-4.42-8.4-5.94-12.96c-0.54,0-0.54,0-1.08,0c0.27-0.54,0.27-0.54,0.54-1.08
			c-1.73-1.73-0.98-0.58-1.62-3.78c-0.54,0-0.54,0-1.08,0c0-2.89-0.6-3.75,2.7-5.4c-0.78-1.56-0.14-1.08-2.16-1.08
			c0.27-0.54,0.27-0.54,0.54-1.08c-1.52,0.76-1.07,1.58-1.63,3.24c-2.97-0.27-2.97-0.27-5.94-0.54c-0.61-3.64-1.03-2.26,0-4.32
			c-0.54,0-0.54,0-1.08,0c0.27-1.08,0.27-1.08,0.54-2.16c-0.81,0-0.81,0-1.63,0c0.54-0.27,0.54-0.27,1.08-0.54
			c-4.22-1.41-4.32-7.57-4.32-11.34c-0.54,0-0.54,0-1.08,0c0-0.54,0-0.54,0-1.08c-1.08,0-1.08,0-2.16,0c0.93-1.85,1.52-3.5,2.16-5.4
			c-2.43,0-2.43,0-4.86,0c0-0.54,0-0.54,0-1.08c2.43-0.27,2.43-0.27,4.86-0.54c0-4.03-7.61-8.25-9.18-12.96c-0.54,0-0.54,0-1.07,0
			c1.03-2.06,0.14-1.01,3.77-1.62c-1.35-0.27-1.35-0.27-2.7-0.54c0.27-0.54,0.27-0.54,0.54-1.08c-2-0.67-1.37-0.03-2.16-1.62
			c3.13-1.57,2.67-3.56,6.48-4.32c0-1.08,0-1.08,0-2.16c-1.35,0-1.35,0-2.7,0c0-3.1-0.4-1.9,0.54-3.78
			c-2.55-0.64-1.83,0.12-2.7-1.62c0.54-0.54,0.54-0.54,1.08-1.08c-1.55-3.11-4.6-3.12-6.48-5.94c1.08-0.27,1.08-0.27,2.16-0.54
			c0-0.54,0-0.54,0-1.08c-0.54,0-0.54,0-1.08,0c0-7.12-10.34-11.71-7.02-18.36c-1.9-0.95-1-0.15-1.62-3.24
			c3.77-1.88,3.24-0.88,3.24-6.48c-2.18,0-0.73-0.06-4.32,0.54c0-0.54,0-0.54,0-1.08c-1.61,1.61-1.96,1.62-4.32,1.62
			c0-7.11,9.12-19.09,7.02-25.38c-8.25,0,3.1-8.1,7.02-8.1c0-0.54,0-0.54,0-1.08c-0.81,0-0.81,0-1.62,0c0-5.82,18.25-4.8,19.44-4.86
			c0-0.81,0-0.81,0-1.62c-0.54,0-0.54,0-1.07,0c-1.01-3.03-4.55-3.69-5.4-5.4c-0.53-1.06,15.37-9.18,17.27-9.18
			c0.27-1.08,0.27-1.08,0.54-2.16c-4.17,2.08-10.51,3.2-15.12,3.78c5.4-8.1,14.26-7.56,21.06-7.56c-0.27-0.54-0.27-0.54-0.54-1.08
			c3.5,0,1.36,3.78,4.86,3.78c0-1.62,0-1.62,0-3.24c-3.08,0-2.34-19.82-1.62-24.84c-0.51,0-26.17,4.01-22.68-6.48
			c-0.54,0-0.54,0-1.07,0c0-17.5-16.35,5.11-19.98-2.16c-1.4-2.8,3.24-3.86,3.24-5.94c-2.05,0-4.86,0.93-4.86-1.62
			c-4.44,0-4.33-4.3-4.33-7.56c-2.06,0,1.35-12.28,2.7-12.96c-0.63-2.55-0.87-1.5,0-3.24c-0.81,0-0.81,0-1.62,0
			c0-1.49-0.71-2.84-1.08-4.32c-2.43,0-2.43,0-4.86,0c0-0.54,0-0.54,0-1.08c-0.54,0-0.54,0-1.08,0c0.27-0.54,0.27-0.54,0.54-1.08
			c-0.54,0-0.54,0-1.07,0c0-1.44,0-2.88,0-4.32c-0.54,0-0.54,0-1.08,0c1.18-2.37,2.7-5.52,2.7-8.64c-0.54,0-0.54,0-1.08,0
			c0-0.54,0-0.54,0-1.08c-2.27,1.71-21.62,15.62-23.22,12.42c-1.83-3.66,1.28-3.37,0-5.94c0.54-0.54,0.54-0.54,1.08-1.08
			c-0.27-0.54-0.27-0.54-0.54-1.08c1.72-0.86,1.08-0.14,1.08-2.7c-0.54,0-0.54,0-1.08,0c0-8.02-0.65-25.38,11.88-25.38
			c0-1.35,0-1.35,0-2.7c-1.08-0.27-1.08-0.27-2.16-0.54c0-14.71,21.33-1.53,29.16,1.08c4.18-16.71,28.08,3.33,28.08-5.4
			c8.68-0.96,29.12-11.44,34.02,3.24C888.04,146.43,884.01,153.26,890.07,156.3z"/>
	</g>
	<g id="Layer_4_00000078006791214926789130000017378922343911705781_" vectornator:layerName="Layer 4">
		<g>
			<path class="st3" d="M928.32,416.53c-0.36-1.91-0.66-3.79-1.42-5.63c-1.26-3.04-3.21-5.93-5.48-8.33
				c-2.55-2.7-6.12-4.4-8.58-7.17c-1.75-1.97-1.2-4.47-1.44-6.86c-0.16-1.56-0.82-2.99-1.59-4.33c-0.25-0.43-1.5-2.79-2.32-2.31
				c-0.26,0.15-0.34,1.7-0.36,1.87c-0.09,0.96-0.17,6.28-0.9,6.63c-0.63,0.31-2.32-1.56-2.72-1.98c-0.98-1.01-1.78-2.21-2.98-3.01
				c-1.98-1.3-4.37-2.28-6.08-3.94c-1.57-1.53-1.26-4.89-1.07-6.91c0.44-4.62,1.02-9.22,0.03-13.8c-0.37-1.72-0.92-3.62-2.07-5.01
				c-0.36-0.43-0.63-1.36-1.16-1.2c-0.39,0.12-0.33,3.48-0.38,4.05c-0.23,2.44-1.07,4.9-1.06,7.35c0.01,1.48,0.12,2.98,0.12,4.46
				c0.01,0.61,0.25,2.59-0.95,1.45c-0.51-0.48-0.87-2.02-1.11-2.65c-0.97-2.52-1.52-5.12-2.08-7.73c-0.74-3.44-2.62-6.7-2.75-10.25
				c-0.15-4.28,0.95-8.5,0.39-12.77c-1-7.7-5.94-14.24-9.95-20.65c-0.99-1.59-1.93-3.18-2.53-4.96c-0.72-2.13-0.85-4.43-2.03-6.37
				c-0.23-0.38-1.69-3.01-2.09-2.83c-0.13,0.06-0.23,1.58-0.25,1.7c-0.3,2.04-0.71,4.04-0.67,6.11c0.08,5.28,4.07,8.43,6.51,12.7
				c1.55,2.71,2.03,5.84,3.08,8.74c0.32,0.9,0.39,1.95,0.82,2.8c0.58,1.17,1.33,1.73,1.43,3.13c0.27,3.79-1.02,7.49-0.43,11.31
				c0.42,2.81,1.22,5.44,1.95,8.18c1.94,7.35,4.5,14.44,8.75,20.81c2.07,3.1,5.07,5.32,7.69,7.9c0.93,0.91,1.26,2.24,2.16,3.11
				c0.59,0.57,1.52,1.29,2.19,1.75c3.3,2.26,8.65,2.47,11.37,5.53c0.97,1.09,1.7,2.39,2.76,3.44c1.13,1.11,2.43,1.88,3.63,2.89
				c2.05,1.71,4.19,3.86,5.89,5.92c0.63,0.77,1.02,1.62,1.59,2.42c0.91,1.27,2.06,2.26,2.74,3.71c0.01,0.03,0.62,1.57,0.85,1.53
				C928.14,417.3,928.38,416.84,928.32,416.53z"/>
			<path class="st3" d="M866.06,303.65c-0.14-0.06-0.36-0.18-0.45,0.02c-0.22,0.51-0.16,1.17-0.24,1.7c-0.1,0.68-0.21,1.35-0.3,2.02
				c-0.27,1.78-0.52,3.59-0.27,5.38c0.69,4.81,4.73,7.99,6.82,12.14c0.81,1.61,1.28,3.36,1.78,5.08c0.34,1.14,0.75,2.27,1.07,3.42
				c0.18,0.63,0.28,1.28,0.51,1.9c0.32,0.87,0.97,1.56,1.33,2.41c0.35,0.8,0.32,1.7,0.3,2.55c-0.02,1.41-0.21,2.8-0.36,4.21
				c-0.14,1.25-0.27,2.53-0.24,3.78c0.03,1.34,0.26,2.67,0.54,3.99c0.44,2.05,1,4.08,1.55,6.11c1.08,3.96,2.31,7.85,3.91,11.63
				c1.45,3.45,3.17,6.92,5.42,9.93c2.03,2.72,4.77,4.77,7.16,7.14c0.76,0.75,1.1,1.81,1.74,2.65c0.77,1,1.99,1.84,3.06,2.49
				c0.38,0.23,0.81,0.36,1.22,0.55c-1.28-0.6-2.43-1.39-3.48-2.33c-1.08-0.96-1.46-2.41-2.47-3.42c-2.4-2.37-5.12-4.42-7.14-7.14
				c-1.5-2.01-2.73-4.25-3.85-6.5c-2.24-4.5-3.85-9.3-5.16-14.14c-0.75-2.78-1.59-5.54-2.08-8.38c-0.37-2.12-0.23-4.22,0-6.35
				c0.2-1.85,0.55-3.8,0.34-5.67c-0.05-0.51-0.1-0.73-0.3-1.19c-0.3-0.7-0.81-1.28-1.13-1.96c-0.41-0.89-0.52-1.87-0.83-2.79
				c-0.4-1.23-0.77-2.44-1.13-3.68c-0.5-1.74-1.03-3.51-1.94-5.08c-1.88-3.25-4.8-5.99-5.99-9.63c-0.75-2.32-0.5-4.69-0.14-7.06
				c0.13-0.84,0.28-1.68,0.37-2.53c0.02-0.26,0.04-0.51,0.08-0.77c0.01-0.1,0.04-0.19,0.06-0.28c0.04,0.01,0.08,0.02,0.08,0.02
				c0.03,0.01,0.1,0.06,0.08,0.04c0.11,0.14,0.23,0.26,0.34,0.4c0.16,0.2,0.3,0.43,0.44,0.65c0.54,0.8,1.09,1.71,1.48,2.59
				c0.67,1.53,0.86,3.22,1.33,4.82c0.4,1.38,1.04,2.7,1.74,3.95c0.94,1.65,1.99,3.22,3.02,4.82c2.6,4.04,5.23,8.14,6.76,12.73
				c0.73,2.18,1.17,4.46,1.23,6.76c0.1,3.56-0.74,7.09-0.54,10.64c0.08,1.5,0.41,2.95,0.87,4.37c0.54,1.69,1.21,3.34,1.66,5.06
				c0.7,2.66,1.11,5.39,2.04,7.99c0.12,0.33,0.26,0.65,0.37,0.99c0.27,0.82,0.62,2.47,1.62,2.75c0.39,0.11,0.63-0.22,0.71-0.57
				c0.15-0.67,0.03-1.49,0.02-2.17c-0.01-0.25-0.01-0.5-0.02-0.75c-0.05-1.39-0.14-2.8-0.02-4.19c0.18-2.06,0.82-4.05,0.99-6.11
				c0.03-0.43,0.03-0.87,0.04-1.29c0.01-0.31,0.03-0.6,0.04-0.91c0.02-0.41,0.05-0.83,0.1-1.23c0.01-0.09,0.02-0.19,0.04-0.28
				c0.01-0.04,0.04-0.09,0.05-0.12c0.03-0.01,0.05-0.01,0.08,0c0.17,0.05,0.27,0.27,0.34,0.4c0.23,0.37,0.45,0.7,0.71,1.05
				c1.17,1.63,1.66,3.76,1.98,5.71c0.67,4.17,0.12,8.41-0.28,12.59c-0.19,2.04-0.5,4.88,0.77,6.68c0.58,0.82,1.48,1.43,2.31,1.96
				c1.19,0.78,2.47,1.4,3.68,2.14c1.39,0.86,2.34,2.09,3.44,3.28c0.58,0.62,1.17,1.26,1.86,1.74c0.27,0.19,0.65,0.44,1.01,0.36
				c0.65-0.14,0.78-1.43,0.85-1.92c0.23-1.61,0.23-3.24,0.34-4.86c0.04-0.49,0.06-0.98,0.16-1.46c0.05-0.23,0.03-0.44,0.28-0.34
				c0.34,0.12,0.6,0.48,0.81,0.75c0.5,0.65,0.91,1.42,1.29,2.14c0.58,1.1,1.07,2.29,1.19,3.54c0.19,1.97-0.17,4.1,0.75,5.93
				c0.62,1.23,1.77,2.16,2.81,3.01c2.16,1.77,4.6,3.22,6.52,5.26c2.22,2.37,4.25,5.18,5.42,8.24c0.23,0.6,0.45,1.2,0.63,1.82
				c0.26,0.92-0.01-0.01,0.77,3.74c0.01,0.07,0.11,0.06,0.16,0.1c0.04-0.05,0.14-0.14,0.14-0.14s-0.03,0.1,0,0.16
				c0.01,0.02-0.04,0.06-0.05,0.08c0.03,0.01,0.05,0.05,0.08,0.04c0.16-0.03,0.27-0.18,0.24-0.34c-1.11-4.74-0.58-3.19-1.11-4.74
				c-1.41-4.12-4.24-8.2-7.61-10.97c-1.8-1.48-3.81-2.7-5.54-4.27c-0.96-0.87-1.88-1.75-2.27-3.01c-0.52-1.74-0.17-3.59-0.44-5.36
				c-0.24-1.5-0.92-2.88-1.66-4.19c-0.39-0.69-0.81-1.41-1.39-1.94c-0.25-0.22-0.55-0.44-0.89-0.42c-0.81,0.05-0.78,1.44-0.83,2
				c-0.14,1.71-0.12,3.44-0.36,5.14c-0.03,0.2-0.06,0.41-0.1,0.61c-0.03,0.2-0.1,0.75-0.3,0.87c-0.1,0.06-0.56-0.26-0.6-0.28
				c-0.09-0.06-0.16-0.12-0.25-0.18c-0.73-0.58-1.39-1.29-2-1.98c-0.81-0.91-1.54-1.83-2.55-2.53c-1.33-0.92-2.85-1.59-4.21-2.47
				c-0.66-0.43-1.28-0.91-1.86-1.44c-0.67-0.6-0.93-1.63-1.05-2.49c-0.25-1.78,0.01-3.59,0.18-5.36c0.43-4.53,0.83-9.13-0.3-13.6
				c-0.3-1.21-0.71-2.42-1.37-3.48c-0.19-0.3-0.43-0.56-0.63-0.85c-0.27-0.38-0.44-1.02-0.93-1.17c-0.93-0.3-0.85,1.56-0.87,2.06
				c-0.01,0.31-0.03,0.62-0.05,0.93c-0.01,0.26,0.01,0.53,0,0.79c-0.05,1.81-0.59,3.57-0.87,5.34c-0.21,1.33-0.21,2.65-0.16,3.99
				c0.02,0.5,0.03,0.98,0.04,1.48c0.01,0.25,0.04,0.5,0.05,0.75c0,0.25-0.01,0.5,0,0.75c0.01,0.51,0.29,2.17-0.59,1.29
				c-0.59-0.58-0.8-1.83-1.07-2.57c-0.84-2.3-1.42-4.67-1.94-7.06c-0.23-1.09-0.51-2.15-0.87-3.22c-0.84-2.51-1.87-4.97-2.03-7.65
				c-0.12-2.12,0.17-4.25,0.35-6.35c0.17-2.14,0.26-4.27,0.02-6.41c-0.21-1.91-0.75-3.82-1.42-5.62c-1.81-4.86-4.77-9.14-7.55-13.48
				c-1.34-2.1-2.67-4.19-3.54-6.54c-0.51-1.4-0.68-2.91-1.13-4.33c-0.47-1.47-1.4-3.11-2.34-4.35
				C866.39,303.97,866.28,303.73,866.06,303.65z M928.28,416.77c-0.05-0.01-0.06-0.07-0.1-0.1c-0.16,0.18-0.46,0.49-0.63,0.3
				c0.05,0.09,0.08,0.18,0.14,0.26C927.89,417.54,928.26,417.02,928.28,416.77z M927.55,416.98c-0.34-0.61-0.59-1.26-0.95-1.86
				c0.24,0.4,0.38,0.72,0.54,1.11c0.11,0.25,0.23,0.51,0.37,0.75C927.52,416.99,927.54,416.96,927.55,416.98z M926.6,415.11
				c-0.33-0.55-0.74-1.03-1.15-1.52c-0.52-0.62-1.04-1.23-1.48-1.9c0.16,0.24,0.3,0.49,0.49,0.73
				C925.15,413.33,926,414.13,926.6,415.11z M923.97,411.69c-0.35-0.54-0.64-1.12-1.01-1.64c-0.16-0.22-0.38-0.39-0.55-0.61
				C922.98,410.17,923.46,410.94,923.97,411.69z M922.41,409.45c-0.07-0.09-0.12-0.19-0.2-0.28c-0.83-0.97-1.7-1.91-2.61-2.81
				C920.59,407.32,921.55,408.36,922.41,409.45z M900.63,392.76c0.06,0.03,0.12,0.07,0.18,0.1c0.08,0.03,0.16,0.05,0.24,0.08
				C900.9,392.88,900.76,392.82,900.63,392.76z M901.05,392.94c1.55,0.67,3.15,1.22,4.73,1.8
				C904.2,394.16,902.59,393.6,901.05,392.94z M906.57,395.06c1.09,0.44,2.14,0.99,3.04,1.74c-0.39-0.33-0.76-0.71-1.21-0.97
				C907.82,395.5,907.18,395.31,906.57,395.06z M909.61,396.8c0.16,0.13,0.34,0.24,0.49,0.38c-0.03-0.03-0.05-0.07-0.08-0.1
				C909.89,396.97,909.74,396.91,909.61,396.8z M910.09,397.19c1.13,1.13,1.92,2.56,3.04,3.7c1.08,1.11,2.43,1.92,3.62,2.89
				c-0.2-0.17-0.38-0.37-0.58-0.53c-1.02-0.78-2.12-1.47-3.02-2.39c-1.04-1.06-1.77-2.33-2.75-3.44
				C910.31,397.33,910.18,397.28,910.09,397.19z"/>
		</g>
		<g>
			<path class="st3" d="M896.07,389.31c1.34,1.44,2.85,2.6,4.34,3.86c0.52,0.43,1.08,1.11,1.71,1.38c0.71,0.31,1.43,0.38,2.11,0.81
				c1.42,0.9,2.49,2.34,3.92,3.25c1.47,0.93,2.25,1.79,4.07,1.66c0.15-0.01,0.32,0.07,0.45-0.01c0.38-0.23,0.03-0.86-0.05-1.13
				c-0.36-1.25-1.56-2.15-2.41-3.08c-0.84-0.93-1.71-1.84-2.68-2.64c-1.36-1.11-3.14-1.64-4.65-2.51c-1.66-0.97-2.94-2.27-4.77-2.96
				"/>
			<path class="st3" d="M898.11,387.94c0,0-1.26,0.84-0.91,0.59c0.49-0.35,1.18-0.25,1.78-0.18c0.31,0.03,0.55,0.3,0.81,0.46
				c0.27,0.17,0.52,0.35,0.77,0.53c1.03,0.72,2.01,1.31,3.08,1.9c-1.37-0.69-2.53-1.65-3.83-2.45c-0.26-0.16-0.52-0.46-0.83-0.47
				C898.3,388.31,898.11,387.94,898.11,387.94z M896.98,388.73c0.3-0.23-0.34,0.24-0.63,0.45c0.13,0.13,0.19,0.16,0.27,0.2
				C896.68,389.12,896.79,388.88,896.98,388.73z M896.62,389.38c-0.08,0.28-0.1,0.58-0.06,0.85c0.05,0.32,0.47,0.45,0.71,0.67
				c0.72,0.65,1.48,1.27,2.22,1.88c0.69,0.57,1.43,1.38,2.19,1.84c0.87,0.54,1.92,0.57,2.77,1.17c0.81,0.57,1.49,1.28,2.23,1.92
				c0.74,0.65,1.55,1.18,2.37,1.72c0.49,0.33,1.02,0.65,1.59,0.83c0.38,0.12,0.76,0.18,1.15,0.18c0.15,0,0.28-0.01,0.43-0.02
				c0.18-0.01,0.36,0.09,0.52-0.02c0.47-0.29,0.16-0.94,0.02-1.32c-0.39-1.1-1.21-1.84-2.02-2.65c-0.74-0.75-1.43-1.55-2.21-2.27
				c-0.52-0.49-1.07-0.96-1.68-1.34c-1-0.63-2.12-1.03-3.18-1.56c0.27,0.14,0.47,0.33,0.75,0.47c0.93,0.44,1.88,0.87,2.71,1.48
				c0.78,0.57,1.48,1.28,2.14,1.98c0.28,0.3,0.56,0.62,0.85,0.93c0.88,0.96,1.94,1.79,2.37,3.06c0.07,0.21,0.36,0.77,0.08,0.95
				c-0.08,0.05-0.27-0.02-0.36-0.02c-0.14,0-0.28,0-0.43,0c-0.12,0-0.25,0-0.38-0.02c-0.34-0.04-0.66-0.13-0.97-0.26
				c-0.42-0.18-0.8-0.45-1.17-0.71c-0.56-0.39-1.15-0.75-1.68-1.17c-1-0.8-1.83-1.79-2.87-2.55c-0.34-0.25-0.68-0.45-1.07-0.61
				c-0.55-0.21-1.17-0.33-1.68-0.65c-0.51-0.32-0.9-0.8-1.36-1.19c-0.42-0.36-1.07-0.88-1.5-1.23c-0.46-0.39-1.01-0.85-1.46-1.25
				c-0.23-0.21-0.62-0.36-0.69-0.67C896.89,389.51,896.83,389.52,896.62,389.38z M896.35,389.17c-0.04-0.04-0.03-0.01-0.08-0.06
				c-0.12-0.12-0.29-0.13-0.41-0.02c-0.12,0.11-0.14,0.31-0.02,0.42C896.35,389.17,896.13,389.34,896.35,389.17z"/>
		</g>
		<g>
			<path class="st3" d="M910.43,399.63c2.13,1.71,4.43,2.59,6.46,4.47c0.91,0.84,1.85,1.54,2.71,2.43c0.19,0.19,0.65,0.74,0.98,0.41
				c0.28-0.29-0.16-0.66-0.28-0.81c-0.66-0.83-1.28-1.67-1.88-2.55c-1.17-1.68-2.34-2.97-3.95-4.27c-2.09-1.69-3.5-2.35-4.84-3.79"
				/>
			<path class="st3" d="M909.61,395.51c0,0,0.75,2.76,0.51,1.94c-0.16-0.51-0.23-1.05-0.16-1.58
				C909.81,396.39,909.61,395.51,909.61,395.51z M909.95,395.87c0.02-0.15,0.23,0.22,0.34,0.32c0.22,0.2,0.46,0.4,0.69,0.59
				c0.64,0.51,1.34,0.97,2,1.46c2.08,1.53,3.86,3.28,5.32,5.4c0.4,0.58,0.8,1.17,1.21,1.74c0.21,0.28,0.41,0.55,0.63,0.83
				c0.08,0.1,0.56,0.55,0.2,0.65c-0.06,0.02-0.19-0.06-0.22-0.08c-0.45-0.28-0.89-0.88-1.28-1.23c-0.15-0.14-0.29-0.27-0.45-0.4
				c-0.15-0.13-0.31-0.27-0.47-0.4c-0.15-0.13-0.29-0.27-0.44-0.4c-0.82-0.74-1.64-1.45-2.57-2.06c-0.89-0.59-1.81-1.13-2.71-1.72
				c-0.18-0.12-0.37-0.24-0.54-0.36c-0.18-0.12-0.42-0.2-0.53-0.38c-0.42-0.74,0.01,0.01-0.52-0.4c-0.03-0.03-0.08,0.03-0.12,0.02
				c0.11,0.29,0.17,0.59,0.3,0.87c0.1,0.2,0.36,0.26,0.55,0.38c0.35,0.24,0.73,0.49,1.09,0.71c1.48,0.91,2.97,1.76,4.29,2.89
				c0.76,0.65,1.55,1.3,2.29,1.98c0.26,0.24,0.58,0.65,0.91,0.83c0.43,0.24,1.04,0.05,0.89-0.51c-0.06-0.23-0.26-0.39-0.4-0.57
				c-0.22-0.27-0.43-0.53-0.65-0.81c-0.21-0.28-0.44-0.57-0.65-0.85c-0.6-0.81-1.17-1.64-1.83-2.41c-0.98-1.16-2.1-2.16-3.32-3.08
				c-0.97-0.73-2.01-1.39-2.97-2.13c-0.23-0.18-0.49-0.37-0.71-0.57c-0.12-0.1-0.3-0.48-0.34-0.32
				C909.95,395.86,909.96,395.86,909.95,395.87z M910.49,399.41c-0.21-0.57-0.45-1.13-0.56-1.72c-0.09-0.49,0.06,0.46,0.27,1.76
				C910.27,399.36,910.39,399.39,910.49,399.41z"/>
		</g>
		<g>
			<path class="st3" d="M930.59,484.41c0.1,0.62,0.77,3.28,1.94,2.95c0.93-0.26,0.62-1.91,0.62-2.58c0-1.7,0.65-3.28,0.83-4.93
				c0.09-0.85-0.05-1.89-0.09-2.76c-0.24-4.52-3.76-6.88-5.54-10.7c-0.55-1.18-0.54-2.86-0.61-4.15c-0.27-4.79,2.04-9.27,3.86-13.54
				c1.59-3.73,2.53-9.19,2.12-13.24c-0.39-3.93-0.65-7.88-2.47-11.45c-0.24-0.46-1.7-3.03-2.39-2.46c-0.25,0.21-0.06,3.04-0.08,3.53
				c-0.24,4.27,1.42,8.42,1.22,12.71c-0.07,1.53-0.6,3-0.87,4.49c-0.54,3.03-1.33,6.16-2.42,9.05c-0.39,1.03-1.12,1.58-1.64,2.49
				c-1.06,1.88-1.82,4.23-1.81,6.41c0.01,2.41,0.24,5.57,1.17,7.81c0.43,1.04,1.97,3.19,2.73,4c0.56,0.6,1.29,1.04,1.81,1.71
				c0.61,0.8,1.01,2,1.37,2.94C931.21,479.09,930.21,481.91,930.59,484.41z"/>
			<path class="st3" d="M929.03,421.33c-0.63,0.07-0.45,1.51-0.45,1.88c0.01,0.26,0.01,0.53,0.02,0.79
				c0.01,0.23,0.02,0.46,0.02,0.69c0.01,0.14,0.01,0.27,0,0.41c-0.03,1.44,0.06,2.82,0.27,4.25c0.3,2.1,0.81,4.21,0.95,6.33
				c0.05,0.71,0.05,1.42,0.04,2.12c-0.01,1.5-0.58,3.01-0.87,4.47c-0.45,2.31-0.94,4.59-1.64,6.84c-0.26,0.82-0.49,1.67-0.85,2.45
				c-0.38,0.83-1.07,1.46-1.52,2.25c-1.02,1.76-1.52,3.75-1.66,5.77c0.12-1.98,0.78-4,1.78-5.71c0.46-0.79,1.15-1.41,1.53-2.25
				c0.36-0.78,0.61-1.65,0.87-2.47c0.71-2.25,1.22-4.53,1.68-6.84c0.3-1.47,0.85-2.99,0.87-4.51c0.01-0.71,0.02-1.43-0.03-2.14
				c-0.15-2.49-0.76-4.92-1.05-7.39c-0.2-1.67-0.11-3.38-0.14-5.06c-0.01-0.36-0.02-0.71,0-1.07c0.02-0.38,0.06-0.75,0.52-0.38
				c0.08,0.06,0.15,0.13,0.23,0.2c0.84,0.8,1.44,1.98,1.9,3.03c0.91,2.09,1.33,4.33,1.62,6.58c0.26,1.98,0.51,4.03,0.49,6.03
				c-0.03,3.06-0.57,6.14-1.52,9.04c-0.58,1.79-1.41,3.49-2.14,5.22c-1.32,3.1-2.54,6.37-2.51,9.79c0.01,1.47-0.01,3.12,0.5,4.53
				c0.28,0.76,0.72,1.48,1.16,2.17c0.99,1.54,2.21,2.94,3.13,4.53c0.86,1.48,1.26,2.97,1.37,4.67c0.1,1.4,0.09,2.47-0.22,3.86
				c-0.21,0.96-0.47,1.94-0.52,2.93c-0.03,0.54,0.03,1.06,0.02,1.6c-0.01,0.38-0.03,1.1-0.54,1.15c-0.25,0.02-0.46-0.23-0.59-0.4
				c-0.36-0.47-0.01,0.01-0.89-2.33c-0.02-0.14-0.15-0.19-0.28-0.2c0,0.01,0,0.24,0,0.24s-0.02-0.2-0.03-0.26
				c-0.01,0-0.01-0.02-0.02-0.02c-0.16,0.03-0.27,0.16-0.24,0.32c0.01,0.09,0.05,0.05,0.02,0.1c-0.03,0.05,0.14,0.63,0.16,0.71
				c0.03,0.12,0.06,0.25,0.1,0.36c0.27,0.82,0.87,2.32,2,2.02c1.26-0.33,0.8-2.34,0.85-3.28c0.08-1.52,0.63-2.98,0.81-4.49
				c0.09-0.78-0.01-1.56-0.06-2.35c-0.04-0.52-0.07-1.06-0.16-1.58c-0.5-2.75-2.32-4.84-3.88-7.06c-0.63-0.9-1.29-1.86-1.68-2.89
				c-0.28-0.76-0.36-1.59-0.41-2.39c-0.14-2.04-0.09-4.01,0.38-6.01c0.82-3.43,2.53-6.51,3.72-9.79c1.06-2.9,1.66-6,1.81-9.08
				c0.09-2.09-0.16-4.14-0.39-6.21c-0.29-2.61-0.72-5.23-1.78-7.65c-0.44-1.01-0.99-2.04-1.72-2.87
				C929.84,421.72,929.46,421.28,929.03,421.33z M930.57,484.15c0.01,0,0.01,0.02,0.03,0.02c0.01-0.16-0.03-1.56,0-2.79
				c-0.06,0.57-0.14,1.21-0.08,1.76C930.55,483.47,930.55,483.92,930.57,484.15z M923.33,459.75c-0.03,0.37-0.13,0.74-0.12,1.11
				c0.06,2.43,0.28,4.92,1.17,7.2c0.29,0.74,0.8,1.44,1.26,2.08c0.47,0.66,0.95,1.33,1.5,1.92c0.38,0.41,0.83,0.72,1.24,1.09
				c-0.3-0.28-0.61-0.57-0.91-0.85c-0.47-0.43-0.85-0.93-1.23-1.44c-0.64-0.86-1.37-1.81-1.76-2.83c-0.73-1.88-0.98-3.89-1.09-5.89
				C923.32,461.36,923.29,460.55,923.33,459.75z M928.69,473.49c0.45,0.49,0.78,1.09,1.03,1.7c0.34,0.8,0.65,1.63,0.81,2.49
				c-0.17-0.86-0.43-1.7-0.76-2.51c-0.21-0.49-0.46-1-0.79-1.42C928.89,473.65,928.78,473.58,928.69,473.49z M930.53,477.68
				c0.03,0.15,0.06,0.3,0.08,0.45c-0.01-0.04,0.01-0.15,0-0.18C930.6,477.85,930.55,477.77,930.53,477.68z M930.61,478.12
				c0.08,0.71,0.03,1.68,0,3.05c0.06-0.87,0.12-1.74,0.08-2.61C930.68,478.41,930.63,478.27,930.61,478.12z"/>
		</g>
		<g>
			<path class="st3" d="M932.81,499.6c0.12,2.07,0.19,5.82,0.89,7.84c0.38,1.08,1.07,2.13,1.28,3.26c0.16,0.9-0.09,1.9,0,2.82
				c0.09,0.9,0.85,3.66,2.05,3.52c0.67-0.08,0.84-1.25,1.03-1.73c0.6-1.54,0.76-2.99,0.83-4.61c0.06-1.29,0.06-2.51-0.25-3.78
				c-0.22-0.87-0.76-1.54-1.09-2.37c-0.43-1.11-0.43-2.42-0.38-3.59c0.03-0.71,0.3-1.19,0.51-1.86c0.37-1.15,0.46-2.36,0.77-3.52
				c0.48-1.77,1.19-4.14,0.45-5.95c-0.18-0.44-1.48-3.63-2.3-2.94c-0.21,0.18-0.25,1.46-0.25,1.6c-0.11,1.35-0.2,2.66-0.77,3.9
				C934.44,494.64,932.63,496.63,932.81,499.6z"/>
			<path class="st3" d="M936.66,486.58c-0.39,0.17-0.34,0.94-0.36,1.27c-0.06,1.02-0.1,2.08-0.34,3.08
				c-0.49,1.94-1.77,3.54-2.53,5.36c-0.02,0.04-0.02,0.16-0.04,0.22c0.03-0.07,0.03-0.15,0.06-0.22c0.78-1.82,2.09-3.4,2.59-5.34
				c0.22-0.85,0.29-1.78,0.36-2.65c0.05-0.46-0.02-1.09,0.21-1.52c0.21-0.4,0.74,0.17,0.87,0.32c0.93,1.12,1.69,3.04,1.66,4.49
				c-0.03,1.57-0.59,3.04-0.93,4.55c-0.17,0.78-0.29,1.57-0.49,2.35c-0.18,0.71-0.54,1.38-0.65,2.1c-0.16,1-0.12,2.12,0.08,3.12
				c0.22,1.11,0.95,1.98,1.28,3.03c0.39,1.25,0.36,2.65,0.28,3.95c-0.06,1.02-0.15,2.05-0.39,3.06c-0.19,0.84-0.49,1.69-0.81,2.49
				c-0.14,0.35-0.39,0.7-0.81,0.51c-0.56-0.27-0.83-1.02-1.03-1.56c-0.25-0.68-0.45-1.42-0.45-2.15c0-0.64,0.11-1.26,0.08-1.9
				c-0.06-1.19-0.69-2.21-1.13-3.28c-0.22-0.52-0.36-1.07-0.49-1.62c-0.36-1.57-0.01-0.01-0.59-6.68c-0.01-0.13-0.12-0.17-0.24-0.2
				c-0.01,0.02-0.05,0.22-0.05,0.22s-0.01-0.16-0.02-0.28c-0.16,0.01-0.29,0.14-0.28,0.3c0.06,1.16,0.04,0.73,0.06,1.15
				c0.03,0.69,0.07,1.38,0.12,2.06c0.11,1.58,0.28,3.18,0.74,4.69c0.29,0.94,0.87,1.75,1.15,2.69c0.3,0.96,0.1,1.87,0.1,2.85
				c0.01,0.5,0.1,0.99,0.25,1.48c0.24,0.85,0.56,1.84,1.25,2.43c0.6,0.51,1.31,0.32,1.66-0.36c0.19-0.39,0.28-0.81,0.42-1.21
				c0.53-1.53,0.74-3.05,0.81-4.67c0.05-1.29,0.02-2.56-0.28-3.82c-0.2-0.86-0.78-1.58-1.11-2.39c-0.3-0.73-0.38-1.55-0.4-2.33
				c-0.02-0.6-0.05-1.24,0.1-1.82c0.15-0.61,0.41-1.19,0.56-1.8c0.24-0.97,0.36-1.96,0.61-2.93c0.28-1.16,0.62-2.3,0.71-3.5
				c0.14-1.72-0.49-3.39-1.46-4.8C937.61,487.03,937.13,486.37,936.66,486.58z M932.79,499.31c0.04,0,0.03,0.05,0.06,0.06
				c0.04-0.3,0.3-2.1,0.52-2.85c-0.26,0.65-0.47,1.31-0.55,2c-0.01,0.08-0.05,0.63-0.04,0.71
				C932.8,499.25,932.79,499.27,932.79,499.31z"/>
		</g>
		<g>
			<path class="st3" d="M946.48,543.31c-0.69-0.84-0.96-1.76-1.35-2.75c-0.51-1.27-1.45-2.25-1.64-3.65
				c-0.19-1.34,0.83-2.59,0.85-3.94c0.02-2.08-0.1-4.49-0.65-6.47c-0.2-0.73-0.01-1.6-0.27-2.3c-0.45-1.2-3-3.64-4.16-4.2
				c-0.91-0.44-2.62,0.07-2.3,1.36c0.45,1.81,2.1,3.26,2.55,5.16c0.17,0.73,0.06,1.43,0.1,2.17c0.05,0.83,0.5,1.53,0.57,2.35
				c0.17,1.85-0.1,3.79-0.01,5.67c0.04,0.86,0.38,1.67,0.45,2.52c0.1,1.18,0.14,2.68,0.52,3.8c0.17,0.51,0.62,0.89,0.93,1.31
				c0.52,0.72,0.86,1.59,1.13,2.43c0.19,0.6,0.78,1.78,0.77,2.38c-0.01,0.54-0.39,0.95-0.19,1.52c0.51,1.35,2.15-0.1,2.62-0.81
				C947.5,548.23,947.7,544.81,946.48,543.31z"/>
			<path class="st3" d="M937.77,519.78c-0.52,0.18-0.96,0.55-1.03,1.11c-0.1,0.78,0.45,1.65,0.83,2.29
				c0.71,1.19,1.67,2.33,1.86,3.74c0.09,0.67-0.03,1.34,0.06,2c0.12,0.9,0.55,1.69,0.6,2.61c0.11,1.73-0.1,3.47-0.02,5.2
				c0.05,0.86,0.36,1.65,0.45,2.51c0.11,1.08,0.14,2.18,0.38,3.24c0.22,0.92,0.6,1.2,1.11,1.92c0.43,0.61,0.74,1.28,0.99,1.98
				c0.32,0.88,0.87,1.84,0.93,2.77c0.05,0.68-0.63,1.27,0.06,1.92c0.62,0.58,1.53-0.23,2.1-0.91c-0.45,0.51-1.57,1.52-2.12,0.77
				c-0.46-0.63,0.08-1.14,0.05-1.78c-0.03-0.5-0.21-0.97-0.39-1.44c-0.4-1.02-0.69-2.09-1.25-3.04c-0.31-0.51-0.78-0.91-1.06-1.44
				c-0.12-0.24-0.21-0.57-0.27-0.81c-0.24-1.05-0.24-2.15-0.34-3.22c-0.06-0.71-0.3-1.38-0.4-2.08c-0.06-0.44-0.06-0.93-0.06-1.36
				c0.01-1.63,0.35-3.55,0-5.16c-0.12-0.59-0.41-1.14-0.49-1.74c-0.06-0.54,0.01-1.09-0.02-1.64c-0.03-0.6-0.17-1.14-0.4-1.7
				c-0.51-1.2-1.37-2.2-1.9-3.38c-0.39-0.87-0.62-1.71,0.52-2.04c0.17-0.05,0.34-0.08,0.51-0.08c0.17,0,0.33,0.01,0.49,0.06
				c0.87,0.25,1.85,1.3,2.47,1.92c0.67,0.68,1.65,1.58,1.84,2.59c0.12,0.64,0.01,1.3,0.16,1.94c0.47,2.05,0.77,4.28,0.63,6.39
				c-0.08,1.26-0.9,2.35-0.89,3.62c0.01,1.32,0.84,2.38,1.42,3.5c0.41,0.8,0.01-0.01,1.66,3.4c0.06,0.08,0.16,0.04,0.25,0.04
				c-0.01-0.01-0.02-0.2-0.02-0.2s0.06,0.12,0.14,0.18c0.01,0.01,0.01,0.03,0.02,0.04c0.01,0,0.01,0.01,0.02,0
				c0.13-0.1,0.16-0.28,0.06-0.4c-0.74-1.26-0.55-0.8-0.74-1.25c-0.3-0.68-0.53-1.4-0.87-2.06c-0.51-0.97-1.14-1.85-1.33-2.95
				c-0.15-0.84,0.32-1.72,0.57-2.49c0.14-0.45,0.25-0.9,0.28-1.38c0.12-1.75-0.1-3.83-0.45-5.52c-0.08-0.4-0.2-0.79-0.28-1.19
				c-0.16-0.78,0.03-1.59-0.32-2.33c-0.49-1.03-1.4-1.9-2.23-2.65c-0.59-0.54-1.25-1.13-1.98-1.48
				C938.91,519.61,938.29,519.6,937.77,519.78z M946.64,543.54c-0.05,0.03-0.09-0.02-0.14-0.02c0.06,0.33,0.77,4.3,0.14,5.89
				c0.64-1.22,0.78-2.82,0.61-4.09c-0.03-0.19-0.06-0.4-0.1-0.59C947.08,544.46,946.86,543.76,946.64,543.54z M946.64,549.41
				c-0.1,0.2-0.21,0.39-0.34,0.57c0.07-0.1,0.24-0.23,0.28-0.3C946.61,549.61,946.6,549.48,946.64,549.41z M946.29,549.97
				c-0.05,0.07-0.12,0.13-0.19,0.2c0.04-0.04,0.12-0.09,0.14-0.12C946.27,550.03,946.27,550,946.29,549.97z"/>
		</g>
		<g>
			<path class="st3" d="M935.43,571.74c-0.08-1.02-0.43-2.28-0.98-3.17c-0.49-0.78-0.94-1.35-1.16-2.27
				c-0.23-0.96,0.03-1.78,0.02-2.73c-0.01-1.04-0.1-2.07-0.08-3.12c0.03-2.3-0.56-4.52-0.25-6.82c0.11-0.82,0.57-2.4,1.13-2.99
				c0.75-0.79,1.74-1.56,2.12-2.63c0.99-2.72,1-6,0.62-8.83c-0.1-0.74-0.32-2.82-0.67-3.39c-1.2-1.94-2.82-3.79-4.77-5.05
				c-0.73-0.47-1.75-1.4-2.71-1.27c-0.63,0.09-0.56,0.88-0.37,1.29c0.54,1.17,1.45,2.13,1.96,3.36c0.54,1.32,1.54,2.28,2.08,3.59
				c0.58,1.41,0.54,3.11,0.93,4.59c0.75,2.86-3.1,6.08-4.16,8.72c-1.12,2.79-0.45,5.78-0.19,8.67c0.06,0.7-0.13,1.37-0.06,2.09
				c0.32,3.29,1.68,6.4,3.5,9.15c0.36,0.54,2.1,3.63,2.95,2.67C935.71,573.19,935.47,572.25,935.43,571.74z"/>
			<path class="st3" d="M928.69,529.31c-0.18,0.01-0.35,0.11-0.47,0.24c-0.47,0.54-0.03,1.37,0.27,1.86
				c0.05,0.09,0.12,0.17,0.18,0.26c0.12,0.2,0.21,0.36,0.34,0.55c0.3,0.45,0.62,0.88,0.87,1.36c0.27,0.51,0.45,1.05,0.75,1.54
				c0.6,0.99,1.36,1.87,1.74,2.97c0.38,1.12,0.43,2.31,0.65,3.46c0.09,0.48,0.25,0.96,0.26,1.46c0.02,1.19-0.6,2.32-1.21,3.3
				c-0.99,1.56-2.25,2.96-3,4.67c-1.18,2.74-0.41,5.86-0.18,8.7c0.05,0.58-0.06,1.16-0.06,1.74c0,0.67,0.13,1.35,0.26,2
				c0.17,0.81,0.39,1.59,0.67,2.37c0.27,0.78,0.58,1.55,0.95,2.29c0.51,1.02,1.11,1.99,1.72,2.95c0.39,0.62,0.76,1.23,1.24,1.8
				c0.19,0.23,0.61,0.75,1.03,0.91c-0.41-0.17-0.74-0.57-1.01-0.91c-0.47-0.57-0.85-1.2-1.24-1.82c-1.78-2.83-3.19-5.85-3.52-9.23
				c-0.05-0.58,0.08-1.16,0.08-1.74c0-0.34-0.05-0.78-0.08-1.09c-0.26-2.57-0.8-5.45,0.28-7.91c0.87-1.97,2.42-3.51,3.46-5.38
				c0.58-1.05,0.98-2.19,0.73-3.4c-0.29-1.4-0.33-2.89-0.79-4.25c-0.34-1.02-0.98-1.86-1.55-2.75c-0.38-0.58-0.62-1.19-0.93-1.8
				c-0.2-0.38-0.45-0.75-0.69-1.11c-0.17-0.26-0.18-0.28-0.35-0.55c-0.1-0.17-0.24-0.37-0.34-0.55c-0.05-0.09-0.09-0.19-0.14-0.28
				c-0.14-0.27-0.54-1.32,0.1-1.34c0.96-0.02,1.66,0.6,2.41,1.11c0.38,0.26,0.77,0.52,1.13,0.81c1.21,0.96,2.25,2.12,3.13,3.38
				c0.28,0.4,0.62,0.82,0.77,1.29c0.22,0.71,0.29,1.47,0.38,2.21c0.12,0.98,0.24,1.95,0.28,2.93c0.08,1.73,0,3.49-0.4,5.18
				c-0.15,0.62-0.33,1.28-0.65,1.84c-0.47,0.82-1.26,1.36-1.86,2.06c-0.44,0.51-0.69,1.15-0.89,1.78c-0.73,2.31-0.24,4.72-0.1,7.08
				c0.08,1.41,0.09,2.84,0.1,4.25c0.01,0.94-0.27,1.87-0.02,2.79c0.32,1.23,1.21,2.13,1.66,3.3c0.13,0.34,0.01,0,0.49,2.1
				c0.01,0.16,0.14,0.28,0.3,0.26c0,0,0.01,0,0.02,0c0.16-0.02,0.28-0.17,0.26-0.32c-0.32-1.69-0.16-1.16-0.32-1.68
				c-0.18-0.56-0.4-1.09-0.71-1.6c-0.35-0.59-0.78-1.15-1.01-1.8c-0.31-0.87-0.16-1.67-0.1-2.57c0.03-0.54,0-0.97-0.02-1.54
				c-0.04-1.07-0.04-2.16-0.1-3.24c-0.06-1.13-0.23-2.26-0.28-3.4c-0.08-1.56,0.03-3.36,0.87-4.76c0.26-0.43,0.68-0.76,1.03-1.11
				c0.56-0.57,1.09-1.16,1.38-1.92c1.11-2.88,0.96-6.14,0.56-9.15c-0.14-1.02-0.18-2.36-0.67-3.26c-0.8-1.48-2.16-2.96-3.44-4.05
				c-0.51-0.43-1.05-0.8-1.6-1.17C930.51,529.92,929.72,529.26,928.69,529.31z M935.47,572.03c0.08,0.24,0.13,0.76,0.04,1.17
				C935.6,572.73,935.51,572.29,935.47,572.03z M935.51,573.2c-0.05,0.21-0.14,0.38-0.27,0.49
				C935.37,573.58,935.47,573.4,935.51,573.2z M935.24,573.69c-0.12,0.11-0.29,0.15-0.52,0.06c0.18,0.07,0.35,0.09,0.51-0.02
				C935.23,573.72,935.23,573.7,935.24,573.69z"/>
		</g>
		<g>
			<path class="st3" d="M948.6,583.85c-0.68-0.59-1.73-5.46-1.94-6.47c-0.28-1.35-1-2.16-1.69-3.31c-0.38-0.63-0.57-1.31-1.06-1.87
				c-0.37-0.42-1.05-0.94-1.31-1.44c-0.39-0.75,0.09-1.84,0.13-2.62c0.04-0.85-0.18-1.75-0.44-2.56c-0.49-1.53-1.69-3.09-2.94-4.06
				c-0.24-0.19-0.62-0.78-1.06-0.37c-0.52,0.48-0.2,1.87-0.06,2.44c0.43,1.74,1.75,3.29,1.94,5.06c0.23,2.16-1.31,4.44-0.56,6.56
				c0.72,2.06,2.32,3.47,3.56,5.19c0.79,1.09,1.47,2.5,2.12,3.69c0.63,1.13,1.54,5.27,2.75,5.62c0.79,0.23,0.97-0.69,1.06-1.25
				C949.29,587.22,949.57,584.7,948.6,583.85z"/>
			<path class="st3" d="M938.44,560.82c-0.79,0.23-0.63,1.41-0.54,2c0.32,2.09,1.75,3.77,2.12,5.85c0.19,1.06-0.25,2.22-0.47,3.24
				c-0.28,1.34-0.43,2.55,0.14,3.84c0.78,1.79,2.25,3.13,3.4,4.67c0.86,1.16,1.59,2.52,2.23,3.82c0.63,1.32,0.93,2.79,1.57,4.11
				c0.06,0.12,0.17,0.22,0.25,0.34c-0.17-0.31-0.3-0.66-0.43-0.95c-0.45-1.1-0.75-2.26-1.21-3.36c-0.23-0.55-0.55-1.07-0.83-1.6
				c-0.62-1.17-1.27-2.26-2.08-3.3c-1.24-1.56-2.95-3.26-3.08-5.38c-0.11-1.85,1.09-3.65,0.79-5.5c-0.34-2.08-1.77-3.76-2.07-5.85
				c-0.06-0.39-0.22-1.39,0.32-1.58c0.22-0.08,0.52,0.37,0.67,0.49c0.1,0.08,0.2,0.16,0.3,0.24c0.1,0.09,0.21,0.19,0.3,0.28
				c0.99,0.95,1.8,2.14,2.23,3.46c0.25,0.79,0.47,1.63,0.42,2.47c-0.05,0.83-0.47,1.7-0.2,2.53c0.3,0.93,1.33,1.42,1.8,2.27
				c0.23,0.42,0.4,0.88,0.65,1.29c0.47,0.78,1.03,1.5,1.37,2.35c0.38,0.91,0.49,1.93,0.71,2.87c0.28,1.23,0.6,2.48,1.05,3.66
				c0.06,0.15-0.01,0,0.51,0.95c0.07,0.07,0.17,0.03,0.27,0.02c-0.01-0.02-0.04-0.22-0.04-0.22s0.12,0.14,0.2,0.22
				c0.12-0.11,0.13-0.28,0.02-0.4c-0.4-0.76-0.3-0.5-0.4-0.77c-0.28-0.71-0.5-1.45-0.69-2.19c-0.22-0.87-0.43-1.74-0.62-2.61
				c-0.21-0.92-0.4-1.77-0.89-2.59c-0.38-0.63-0.83-1.23-1.17-1.88c-0.23-0.43-0.41-0.89-0.69-1.29c-0.45-0.64-1.35-1.09-1.6-1.84
				c-0.25-0.74,0.16-1.61,0.2-2.35c0.06-1.02-0.21-2.09-0.59-3.03c-0.59-1.49-1.66-2.74-2.89-3.74
				C939.18,561.12,938.89,560.69,938.44,560.82z M948.8,584.07c-0.05,0.04-0.1-0.01-0.16,0c0.06,0.33,0.46,2.63,0.45,3.88
				c0.12-0.79,0.23-1.6,0.16-2.39c-0.03-0.36-0.14-1.22-0.43-1.48C948.81,584.08,948.81,584.07,948.8,584.07z M949.08,587.95
				c-0.03,0.21-0.01,0.42-0.04,0.63c-0.12,0.63-0.49,1.58-1.28,0.93c-0.26-0.21-0.47-0.5-0.63-0.81c0.17,0.31,0.32,0.64,0.58,0.85
				c0.91,0.73,1.29-0.4,1.4-1.09C949.14,588.36,949.08,588.09,949.08,587.95z"/>
		</g>
		<g>
			<path class="st3" d="M936.63,585.31c-0.59,0.79-0.36,4.19,0.06,5.06c2.13,4.36,4.47,8.6,6.72,12.9c0.51,0.96,1.29,1.8,1.97,2.65
				c1.33,1.66,2.49,3.53,3.94,5.09c0.43,0.47,0.62,0.39,1.02,0.95c0.49,0.67,0.32,1.36,0.54,2.1c0.35,1.17,0.97,2.62,2.04,3.26
				c2.73,1.64,5.3,3.59,8.15,5.09c0.56,0.3,1.8,1.34,2.37,0.47c0.6-0.9-0.71-2.11-1.22-2.71c-1.85-2.2-4.12-3.71-6.11-5.7
				c-1.04-1.04-1.18-2.63-1.83-3.94c-0.89-1.77-2.12-3.21-3.12-4.89c-0.66-1.1-1.1-2.38-1.9-3.39c-0.48-0.6-1.16-0.82-1.63-1.43
				c-0.83-1.06-1.22-2.51-2.1-3.53c-1.37-1.59-3.21-2.34-4.21-4.34c-0.51-1.03-1.27-2.15-1.7-3.19c-0.32-0.78-0.38-1.76-0.61-2.58
				c-0.11-0.39-0.48-1.92-0.95-2.04C937.59,585.03,936.92,584.93,936.63,585.31z"/>
			<path class="st3" d="M936.78,585.06c-0.14-0.09-0.32-0.04-0.41,0.1c-0.08,0.13-0.03,0.08-0.08,0.12
				c-0.11,0.08-0.16,0.44-0.18,0.57c-0.08,0.39-0.11,0.78-0.12,1.17c-0.03,1.04,0.01,2.18,0.32,3.18c0.27,0.84,0.82,1.68,1.22,2.47
				c0.18,0.36,0.36,0.71,0.54,1.07c0.37,0.72,0.76,1.45,1.13,2.17c0.94,1.79,1.88,3.56,2.83,5.34c0.56,1.04,1.07,2.14,1.76,3.1
				c0.64,0.88,1.39,1.7,2.05,2.57c0.87,1.14,1.66,2.34,2.59,3.44c0.26,0.31,0.6,0.72,0.93,1.01c0.27,0.24,0.56,0.42,0.79,0.73
				c0.36,0.48,0.32,1.08,0.42,1.64c0.15,0.78,0.48,1.56,0.87,2.25c0.68,1.2,1.58,1.62,2.73,2.35c0.68,0.43,1.34,0.86,2.01,1.29
				c1.12,0.73,2.24,1.47,3.4,2.15c0.57,0.33,1.15,0.62,1.72,0.97c0.55,0.34,1.46,0.97,2.08,0.44c1.08-0.91-0.47-2.43-1.07-3.12
				c-0.16-0.18-0.3-0.35-0.47-0.53c-0.16-0.17-0.32-0.34-0.49-0.51c-1.15-1.15-2.42-2.17-3.65-3.24c-0.6-0.52-1.26-1.06-1.76-1.68
				c-0.84-1.03-1.04-2.44-1.59-3.62c-0.69-1.46-1.75-2.73-2.64-4.07c-0.89-1.36-1.45-2.91-2.43-4.21c-0.51-0.68-1.33-0.98-1.82-1.7
				c-0.72-1.04-1.11-2.27-1.92-3.26c-0.85-1.04-2.05-1.72-2.99-2.67c0.82,0.82,1.76,1.52,2.56,2.35c0.86,0.88,1.3,2,1.88,3.05
				c0.23,0.41,0.47,0.83,0.81,1.15c0.39,0.37,0.89,0.61,1.26,1.01c0.33,0.36,0.58,0.79,0.81,1.21c0.58,1.05,1.06,2.13,1.72,3.14
				c0.79,1.21,1.66,2.35,2.35,3.62c0.71,1.31,0.87,2.95,1.82,4.13c0.37,0.46,0.85,0.86,1.28,1.25c0.85,0.78,1.73,1.52,2.59,2.29
				c0.36,0.32,0.69,0.6,1.03,0.93c0.34,0.33,0.66,0.64,0.97,0.99c0.59,0.64,1.42,1.41,1.72,2.25c0.12,0.34,0.11,0.72-0.18,0.97
				c-0.51,0.44-1.6-0.42-2.05-0.67c-1.86-1.05-3.64-2.22-5.42-3.4c-0.67-0.44-1.35-0.87-2.03-1.29c-0.81-0.51-1.4-0.95-1.88-1.8
				c-0.36-0.65-0.68-1.39-0.81-2.12c-0.12-0.64-0.08-1.27-0.49-1.82c-0.25-0.33-0.55-0.54-0.85-0.81c-0.31-0.28-0.63-0.69-0.87-0.97
				c-0.91-1.1-1.72-2.29-2.57-3.44c-0.65-0.87-1.39-1.68-2.02-2.57c-0.91-1.26-1.52-2.74-2.25-4.11c-0.95-1.78-1.9-3.57-2.84-5.36
				c-0.55-1.08-1.1-2.15-1.64-3.24c-0.38-0.77-0.64-1.24-0.77-2.04c-0.14-0.89,0-0.01,0.17-3.82c0.01-0.02-0.03-0.04-0.03-0.06
				c-0.04-0.01-0.22-0.08-0.22-0.08s0.11-0.1,0.16-0.16C936.78,585.13,936.81,585.08,936.78,585.06z M936.8,585.16
				c0.05,0.08,0.09,0.15,0.06,0.24c0.34,0.09,1.64,0.42,1.78,0.63c-0.08-0.22-0.21-0.55-0.36-0.73
				C938.08,585.07,937.01,584.91,936.8,585.16z M938.64,586.03c0.01,0.01,0.02,0.03,0.02,0.04c0.42,1.06,0.47,2.21,0.79,3.3
				c0.16,0.52,0.41,0.98,0.67,1.46c0.28,0.54,0.6,1.08,0.89,1.62c0.29,0.54,0.43,0.89,0.83,1.44c0.2,0.28,0.49,0.47,0.73,0.71
				c-0.93-0.93-1.46-2.11-2.1-3.24c-0.45-0.78-0.87-1.55-1.07-2.43c-0.22-0.96-0.34-1.95-0.71-2.87
				C938.68,586.04,938.65,586.03,938.64,586.03z"/>
		</g>
		<g>
			<path class="st3" d="M908.03,703.97c-0.9-2.02,2.34-7.33,3.35-9.46c0.14-0.29,0.72-1.2,0.77-1.55c0.13-0.82-0.4-1.65-0.6-2.41
				c-0.23-0.89-0.36-1.8-0.69-2.67c-0.32-0.87-0.96-1.55-1.29-2.41c-0.45-1.15-1-2.73-0.95-3.96c0.05-1.09,0.46-2.35,0.34-3.44
				c-0.12-1.08-0.8-1.93-0.6-3.09c0.15-0.89,0.76-1.62,0.95-2.49c0.5-2.37,1.47-5.48,3.19-7.31c1.04-1.12,2.38-1.62,3.52-2.58
				c2.58-2.18,5.29-4.1,8.09-6.02c0.92-0.63,2.08-1.07,2.92-1.81c0.46-0.4,0.8-0.93,1.29-1.29c0.77-0.56,1.68-0.78,2.49-1.29
				c1.31-0.83,2.72-1.83,3.96-2.75c2.13-1.6,5.55-4.62,6.79-6.97c0.54-1.01,0.47-2.14,1.12-3.09c2.05-2.98,5.88-5.21,6.79-8.86
				c0.23-0.93,1.18-6.16,0.78-6.79c-0.6-0.92-2.4,0.56-2.75,1.12c-0.48,0.76-0.53,1.7-0.95,2.49c-0.76,1.44-1.79,2.6-2.67,3.96
				c-0.71,1.09-1.09,2.19-1.98,3.18c-0.99,1.12-2.33,1.94-3.26,3.1c-0.73,0.9-0.86,2.24-1.46,3.26c-1.4,2.38-2.91,4.52-5.08,6.28
				c-4.13,3.36-9.46,4.83-13.84,7.83c-0.77,0.52-1.55,0.91-2.24,1.55c-1.27,1.2-2.4,2.78-3.87,3.7c-0.45,0.28-0.97,0.4-1.46,0.6
				c-0.25,0.1-0.45,0.56-0.69,0.43c-0.06-0.04,0.17-2.2,0.17-2.41c0-2.14,0.23-5.06-0.6-7.06c-1.09-2.6-2.78-5.32-4.38-7.65
				c-0.66-0.96-1.71-1.53-2.41-2.41c-0.73-0.9-1.45-3.06-1.55-4.22c-0.04-0.49,0.07-1.48-0.08-1.97c-0.06-0.19-0.89-1.33-0.95-1.46
				c-0.36-0.86-0.32-2.01-0.52-2.93c-0.33-1.61-0.41-3.32-0.77-4.9c-0.15-0.64-0.49-1.24-0.6-1.89c-0.1-0.6,0.01-1.23-0.17-1.81
				c-0.08-0.26-1.66-3.01-1.72-3.01c-0.43,0-0.6,1.56-0.6,1.63c-0.3,2,0.17,4.01-0.09,6.02c-0.3,2.31-0.67,4.89-0.43,7.23
				c0.11,1.07,0.83,2.05,1.12,3.09c0.39,1.42,0.56,2.91,1.29,4.22c1.32,2.38,3.27,4.46,4.82,6.71c0.6,0.87,1.43,1.79,1.72,2.84
				c0.37,1.31,0.05,2.71,0.17,4.04c0.43,4.31,0.56,8.48,0.34,12.81c-0.09,1.83,1.13,4.19,0.52,5.94c-0.28,0.79-0.92,1.42-1.2,2.23
				c-0.41,1.16-0.31,2.33-0.52,3.53c-0.14,0.84-0.52,1.65-0.6,2.49c-0.17,1.74,0.14,3.93,0.69,5.59c0.31,0.93,1.07,1.28,1.46,2.15
				c0.27,0.61,0.34,1.67,0.34,2.32c0,1.6-0.03,3.63-0.51,5.16c-0.45,1.42-1.53,2.52-1.9,4.04c-0.76,3.21-0.34,6.5-0.34,9.72"/>
			<path class="st3" d="M896.27,619.48c-0.48,0.31-0.56,1.66-0.61,2.17c-0.17,1.84,0.17,3.68-0.02,5.52
				c-0.21,2.02-0.56,4.01-0.5,6.05c0.01,0.49,0.03,0.98,0.12,1.46c0.19,1,0.79,1.88,1.07,2.85c0.27,0.95,0.43,1.92,0.73,2.86
				c0.22,0.7,0.54,1.33,0.93,1.96c1.31,2.16,3,4.06,4.47,6.11c0.77,1.07,1.67,2.12,1.84,3.48c0.14,1.12-0.03,2.25,0.06,3.38
				c0.21,2.84,0.43,5.67,0.44,8.52c0.01,1.51-0.11,3-0.1,4.51c0.01,1.62,0.81,3.17,0.71,4.79c-0.08,1.28-0.95,2-1.37,3.13
				c-0.43,1.12-0.33,2.38-0.53,3.54c-0.12,0.71-0.39,1.37-0.52,2.07c-0.08,0.43-0.12,0.89-0.12,1.33c-0.01,0.78,0.19,1.54,0.3,2.31
				c-0.17-1.06-0.3-2.16-0.18-3.22c0.1-0.85,0.44-1.64,0.59-2.49c0.19-1.15,0.1-2.4,0.52-3.52c0.43-1.15,1.31-1.87,1.4-3.16
				c0.1-1.63-0.71-3.17-0.71-4.79c-0.01-1.51,0.12-3,0.12-4.51c-0.01-2.86-0.23-5.7-0.45-8.54c-0.09-1.24,0.16-2.5-0.08-3.72
				c-0.28-1.43-1.38-2.6-2.21-3.74c-1.07-1.5-2.27-2.92-3.32-4.44c-0.67-0.96-1.3-1.93-1.66-3.06c-0.35-1.11-0.47-2.31-0.89-3.39
				c-0.32-0.84-0.86-1.64-0.93-2.55c-0.13-1.63-0.06-3.21,0.12-4.82c0.12-1.13,0.34-2.26,0.38-3.4c0.06-1.5-0.18-3.01-0.04-4.51
				c0.05-0.51,0.12-1.03,0.27-1.52c0.04-0.13,0.08-0.28,0.16-0.41c0.06-0.11,0.17-0.12,0.08-0.14c-0.06-0.01,0.16,0.22,0.12,0.16
				c0.1,0.17,0.2,0.35,0.3,0.53c0.27,0.46,0.55,0.93,0.81,1.4c0.2,0.37,0.45,0.73,0.52,1.15c0.13,0.74,0.01,1.44,0.27,2.17
				c0.14,0.41,0.33,0.82,0.42,1.25c0.24,1.08,0.36,2.17,0.51,3.26c0.1,0.71,0.25,1.4,0.35,2.1c0.08,0.58,0.1,1.18,0.22,1.76
				c0.12,0.57,0.38,0.97,0.71,1.45c0.14,0.21,0.39,0.47,0.45,0.71c0.16,0.65-0.01,1.31,0.08,1.96c0.17,1.28,0.58,2.59,1.22,3.72
				c0.63,1.13,1.8,1.74,2.59,2.73c0.81,1.02,1.5,2.18,2.16,3.3c0.89,1.46,1.73,2.98,2.37,4.58c0.82,2.01,0.62,4.31,0.59,6.43
				c-0.01,0.79-0.1,1.58-0.16,2.37c-0.01,0.16-0.16,0.81,0.22,0.77c0.29-0.03,0.56-0.45,0.89-0.57c0.74-0.27,1.33-0.52,1.98-1.03
				c1.53-1.22,2.57-2.93,4.23-3.99c1.87-1.2,3.77-2.34,5.77-3.33c3.57-1.79,7.36-3.33,10.29-6.13c1.63-1.55,2.99-3.44,4.09-5.41
				c0.54-0.96,0.69-2.11,1.29-3.03c0.45-0.69,1.12-1.21,1.74-1.74c0.75-0.64,1.52-1.26,2.1-2.07c0.62-0.84,1.02-1.82,1.58-2.69
				c0.86-1.33,1.96-2.55,2.67-3.98c0.37-0.74,0.47-1.56,0.85-2.29c0.33-0.63,1.04-1.16,1.7-1.4c0.11-0.04,0.71-0.17,0.75,0.04
				c0.22,1.05,0,2.14-0.14,3.2c-0.27,2.03-0.56,4.2-1.76,5.91c-1.46,2.08-3.49,3.66-5.08,5.63c-0.45,0.56-0.84,1.11-1.06,1.8
				c-0.21,0.68-0.3,1.42-0.65,2.05c-0.92,1.66-2.29,3.05-3.66,4.33c-2.14,1.98-4.51,3.76-7,5.28c-0.73,0.45-1.58,0.71-2.31,1.18
				c-0.74,0.48-1.22,1.24-1.94,1.75c-0.63,0.45-1.33,0.76-1.98,1.16c-1.13,0.67-2.21,1.48-3.28,2.25c-1.37,0.97-2.71,1.96-4.02,3.01
				c-0.63,0.5-1.23,1.06-1.88,1.52c-0.9,0.63-1.88,1.11-2.69,1.88c-1.6,1.52-2.47,3.76-3.08,5.83c-0.21,0.76-0.32,1.55-0.58,2.29
				c-0.33,0.94-0.91,1.69-0.87,2.73c0.05,1.07,0.69,1.99,0.67,3.08c-0.03,0.97-0.36,1.92-0.37,2.89c0,0.84,0.15,1.63,0.39,2.43
				c0.21,0.69,0.44,1.42,0.76,2.07c0.31,0.6,0.74,1.13,1.02,1.76c0.39,0.9,0.49,1.91,0.74,2.85c0.19,0.69,0.65,1.39,0.63,2.12
				c-0.01,0.32-0.19,0.6-0.34,0.87c-0.3,0.56-0.6,1.11-0.89,1.68c-0.96,1.85-2.01,3.7-2.67,5.68c-0.32,0.99-0.59,2.07-0.24,3.08
				c0.05,0.16,0.23,0.24,0.38,0.18c0.16-0.05,0.23-0.23,0.18-0.38c-0.36-1.02,0.03-2.15,0.38-3.11c0.74-2.03,1.86-3.9,2.82-5.83
				c0.33-0.67,0.92-1.39,0.95-2.15c0.03-0.81-0.42-1.55-0.63-2.3c-0.27-0.96-0.39-1.98-0.79-2.91c-0.28-0.63-0.72-1.18-1.03-1.8
				c-0.32-0.62-0.53-1.3-0.73-1.96c-0.23-0.74-0.37-1.48-0.36-2.27c0-0.96,0.34-1.9,0.36-2.87c0.01-0.49-0.06-0.96-0.2-1.44
				c-0.17-0.55-0.45-1.09-0.47-1.68c-0.05-1.08,0.72-1.96,0.97-2.97c0.65-2.6,1.33-5.54,3.36-7.45c0.96-0.91,2.22-1.48,3.26-2.31
				c2.62-2.09,5.26-4.14,8.05-6.01c0.8-0.54,1.7-0.9,2.49-1.46c0.72-0.51,1.18-1.3,1.92-1.78c0.72-0.47,1.55-0.7,2.29-1.15
				c2.51-1.55,4.93-3.35,7.08-5.36c1.41-1.32,2.8-2.75,3.74-4.45c0.36-0.66,0.44-1.43,0.67-2.14c0.2-0.63,0.56-1.15,0.97-1.66
				c1.69-2.1,3.94-3.71,5.36-6.03c1.04-1.7,1.3-3.78,1.56-5.73c0.14-1.08,0.41-2.28,0.12-3.36c-0.17-0.63-1.06-0.49-1.48-0.3
				c-0.97,0.43-1.71,1.2-2.04,2.21c-0.19,0.56-0.3,1.13-0.57,1.66c-0.7,1.42-1.8,2.62-2.65,3.94c-0.68,1.05-1.15,2.2-1.96,3.16
				c-0.98,1.15-2.29,1.96-3.26,3.11c-0.66,0.78-0.82,1.86-1.22,2.77c-0.59,1.34-1.59,2.7-2.49,3.87c-3.11,4.03-7.59,5.88-12,8.09
				c-1.39,0.7-2.74,1.44-4.07,2.27c-0.82,0.51-1.69,1.01-2.45,1.62c-0.59,0.47-1.11,1.04-1.62,1.6c-0.88,0.96-1.8,2.11-3.03,2.63
				c-0.47,0.19-0.98,0.27-1.34,0.65c-0.04,0.04-0.1,0.1-0.14,0.12c0,0-0.01-0.01-0.02,0c0-0.01,0-0.01,0-0.03
				c0.01-0.05,0.02-0.13,0.02-0.18c0.02-0.25,0.04-0.51,0.06-0.76c0.07-0.81,0.11-1.6,0.12-2.41c0.03-2.33,0.05-4.47-0.93-6.64
				c-0.82-1.81-1.84-3.54-2.91-5.2c-0.45-0.69-0.87-1.42-1.38-2.07c-0.71-0.89-1.77-1.45-2.41-2.41c-0.75-1.14-1.17-2.57-1.35-3.9
				c-0.09-0.67,0.07-1.34-0.1-2.01c-0.14-0.54-0.72-0.97-0.95-1.48c-0.17-0.36-0.23-0.76-0.28-1.15c-0.27-1.94-0.51-3.91-0.85-5.85
				c-0.06-0.36-0.13-0.77-0.24-1.13c-0.19-0.62-0.49-1.18-0.54-1.84c-0.05-0.52-0.01-1.01-0.14-1.52c-0.08-0.31-0.34-0.66-0.49-0.93
				c-0.27-0.47-0.54-0.93-0.81-1.4c-0.1-0.18-0.2-0.35-0.3-0.53C896.55,619.52,896.44,619.37,896.27,619.48z M903.17,685.52
				c0.03,0.18-0.01,0.38,0.02,0.56c0.02,0.1,0.06,0.19,0.08,0.28C903.22,686.09,903.22,685.8,903.17,685.52z M903.27,686.37
				c0.05,0.22,0.03,0.45,0.08,0.67c0.1,0.36,0.19,0.74,0.34,1.09c0.33,0.73,1,1.22,1.34,1.94c-0.06-0.14-0.06-0.32-0.14-0.45
				c-0.35-0.54-0.89-0.92-1.15-1.52C903.5,687.57,903.39,686.95,903.27,686.37z M905.04,690.07c0.05,0.11,0.08,0.23,0.12,0.34
				c-0.02-0.06,0-0.14-0.03-0.2C905.11,690.16,905.06,690.12,905.04,690.07z M905.16,690.42c0.22,0.76,0.27,1.59,0.26,2.36
				c0,0.73,0.01,1.46-0.06,2.19c-0.09,0.98-0.21,1.97-0.57,2.89c-0.5,1.28-1.41,2.35-1.76,3.7c-0.41,1.57-0.5,3.2-0.49,4.84
				c-0.01-1.64,0.1-3.27,0.51-4.84c0.36-1.35,1.26-2.4,1.76-3.68c0.63-1.59,0.64-3.41,0.65-5.1
				C905.46,692.02,905.38,691.17,905.16,690.42z"/>
		</g>
		<g>
			<path class="st3" d="M909.45,746.47c0.23-1.25,0.59-2.7,0.48-3.96c-0.13-1.46-1-2.45-0.69-3.99c0.21-1.03,0.86-1.6,1.39-2.46
				c0.83-1.35,1.66-2.92,2.16-4.42c1.32-3.88,1.72-8.09,2.17-12.16c0.35-3.19,0.34-6.27,0.38-9.47c0.01-1.2-0.27-3.47,0.3-4.53
				c0.53-0.97,2.21-1.37,3.09-1.81c1.89-0.95,3.75-2.81,5.14-4.38c1.29-1.46,2.17-3.32,3.5-4.74c1.63-1.74,3.85-2.76,5.52-4.44
				c2.13-2.14,3.43-5.06,5.11-7.55c1.04-1.53,2.58-3.15,3.06-4.98c0.45-1.72,0.41-3.76,0.6-5.53c0.17-1.52,0.82-3.6,1.57-4.95
				c0.78-1.4,1.99-2.52,2.67-3.99c1.5-3.28,3.11-6.67,4.36-10.06c0.7-1.91,0.77-3.3,0.48-5.26c-0.09-0.6,0.32-1.45-0.17-1.79
				c-0.87-0.61-1.59,1.49-1.79,1.85c-1.1,1.96-1.65,4.03-2.62,6.05c-2.28,4.77-6.99,9.04-8.53,14.08c-0.93,3.04-1.76,6.48-2.27,9.63
				c-0.19,1.21-0.16,2.71-0.7,3.84c-1.14,2.39-4.1,5.54-6.27,7.05c-1.31,0.92-2.89,1.23-4.16,2.25c-1.52,1.22-2.42,2.84-3.55,4.36
				c-0.74,0.99-0.48,0.44-1.43,1.15c-0.99,0.74-1.77,1.79-2.71,2.59c-2.27,1.96-5.28,2.9-7.61,4.77c-1.14,0.92-1.77,2.54-2.64,3.72
				c-0.51,0.69-1,1.57-1.72,2.05c-0.24,0.16-0.58,0.17-0.78,0.38c-0.41,0.41-0.47,1.07-0.74,1.59c-1.02,1.97-1.48,3.58-1.84,5.77
				c-0.2,1.22-1.01,2.17-1.21,3.41c-0.3,1.82,0,4.37,0.93,5.98c0.28,0.49,0.83,0.82,1.06,1.33c0.19,0.42,0.03,1.26,0.1,1.69
				c0.16,0.96,0.89,2.49,1.61,3.16c3.04,2.78,4.56-0.72,4.57-3.42c0-1.24-0.67-2.18-0.85-3.35c-0.52-3.47-1.88-6.91-1.09-10.46
				c0.47-2.11,2.35-3.7,3.4-5.5c0.28-0.49,0.28-1.12,0.55-1.62c0.21-0.38,0.89-1.19,1.45-0.49c0.22,0.27,0,2.09,0.1,2.53
				c0.57,2.62,0.57,4.65-0.14,7.26c-0.62,2.27-0.39,4.83-1.14,7.05c-0.28,0.84-0.74,1.6-1.1,2.4c-0.24,0.51-0.16,1.15-0.46,1.63
				c-0.47,0.74-1.28,1.29-1.72,2.14c-0.93,1.79-0.95,6.07-1.17,8.17c-0.24,2.19,0.3,4.23,0.51,6.4c0.08,0.77,0,1.94,0.36,2.65
				C907.97,749.95,909.31,747.22,909.45,746.47z"/>
			<path class="st3" d="M950.11,645.68c-0.58,0.16-1.08,1.2-1.25,1.57c-0.06,0.14-0.12,0.27-0.19,0.41c-0.1,0.21-0.21,0.4-0.32,0.61
				c-0.08,0.16-0.16,0.31-0.24,0.48c-0.08,0.17-0.17,0.34-0.25,0.51c-0.16,0.35-0.28,0.67-0.42,1.03c-0.21,0.51-0.39,1.01-0.59,1.52
				c-0.13,0.34-0.26,0.68-0.4,1.02c-0.24,0.56-0.47,1.06-0.75,1.6c-2.33,4.49-6.29,8.07-8.02,12.88c-0.44,1.24-0.76,2.52-1.09,3.78
				c-0.49,1.88-0.91,3.79-1.24,5.71c-0.23,1.31-0.21,2.75-0.61,4.03c-0.19,0.64-0.54,1.24-0.91,1.8c-1.05,1.62-2.38,3.07-3.81,4.37
				c-0.63,0.58-1.3,1.17-2.04,1.62c-1.24,0.76-2.65,1.15-3.83,2.04c-1.66,1.26-2.55,3.2-3.87,4.76c-0.21,0.25-0.46,0.31-0.73,0.49
				c-0.32,0.19-0.6,0.42-0.87,0.67c-0.78,0.69-1.43,1.52-2.22,2.21c-2.29,1.96-5.23,2.94-7.61,4.77c-0.82,0.63-1.32,1.6-1.84,2.47
				c-0.41,0.69-0.85,1.35-1.31,2.01c-0.34,0.49-0.71,0.93-1.19,1.29c-0.3,0.22-0.65,0.19-0.89,0.5c-0.34,0.43-0.41,1.03-0.65,1.52
				c-0.45,0.92-0.88,1.83-1.17,2.81c-0.29,0.98-0.49,1.97-0.67,2.98c-0.19,1-0.78,1.85-1.07,2.81c-0.46,1.5-0.3,3.26,0.08,4.76
				c0.18,0.73,0.42,1.52,0.89,2.12c0.3,0.38,0.79,0.69,0.93,1.17c0.14,0.51-0.01,1.04,0.06,1.56c0.17,1.21,0.9,2.6,1.83,3.37
				c0.27,0.23,0.58,0.46,0.91,0.61c0.31,0.14,0.61,0.25,0.95,0.27c0.34,0.01,0.59-0.16,0.85-0.3c-0.1,0.71-0.17,1.41-0.22,2.1
				c-0.1,1.32-0.21,2.64-0.28,3.97c-0.09,1.61,0.21,3.19,0.43,4.77c-0.24-1.77-0.52-3.53-0.36-5.32c0.15-1.66,0.2-3.3,0.4-4.95
				c0.03-0.2,0.1-0.39,0.12-0.59c0.83-0.5,1.18-1.53,1.39-2.59c-0.14,0.59-0.32,1.16-0.6,1.64c-0.19,0.31-0.45,0.58-0.75,0.79
				c0.1-0.66,0.18-1.34,0.41-1.96c0.23-0.65,0.63-1.11,1.05-1.56c-0.01,0.26,0.03,0.51-0.02,0.77c0.05-0.32,0.21-0.67,0.22-0.93
				c0-0.02,0-0.04,0-0.06c0.25-0.27,0.5-0.52,0.69-0.85c0.29-0.5,0.21-1.09,0.44-1.62c0.35-0.8,0.86-1.56,1.11-2.4
				c0.26-0.87,0.34-1.76,0.45-2.65c-0.11,0.89-0.25,1.76-0.51,2.64c-0.25,0.84-0.75,1.6-1.09,2.4c-0.23,0.53-0.16,1.12-0.45,1.62
				c-0.18,0.32-0.43,0.56-0.67,0.81c0.01-0.28-0.09-0.54-0.14-0.81c0.05,0.32-0.03,0.69-0.04,1.04c-0.43,0.46-0.85,0.95-1.09,1.62
				c-0.23,0.65-0.36,1.33-0.47,2.02c-0.11,0.07-0.21,0.16-0.34,0.2c-0.67,0.21-1.37-0.09-1.92-0.48c-1.09-0.78-1.94-2.21-2.12-3.56
				c-0.06-0.43,0.02-0.87-0.02-1.29c-0.06-0.78-0.8-1.13-1.15-1.74c-0.42-0.73-0.67-1.55-0.83-2.37c-0.26-1.33-0.34-2.84,0.06-4.15
				c0.27-0.86,0.8-1.62,1.02-2.51c0.3-1.24,0.44-2.51,0.87-3.72c0.31-0.91,0.8-1.71,1.15-2.59c0.16-0.39,0.23-0.85,0.51-1.19
				c0.19-0.25,0.45-0.28,0.71-0.41c0.18-0.08,0.36-0.21,0.51-0.34c0.45-0.41,0.78-0.96,1.13-1.46c0.38-0.54,0.73-1.07,1.07-1.64
				c0.5-0.84,1.01-1.8,1.8-2.41c2.39-1.83,5.32-2.8,7.61-4.75c0.87-0.75,1.58-1.66,2.47-2.39c0.44-0.36,1.03-0.54,1.39-0.97
				c1.3-1.54,2.2-3.5,3.85-4.73c1.17-0.88,2.56-1.27,3.81-2.03c1.88-1.16,3.63-3,4.99-4.73c0.74-0.95,1.54-2.03,1.9-3.2
				c0.4-1.29,0.39-2.74,0.63-4.07c0.38-2.18,0.87-4.34,1.46-6.47c0.32-1.2,0.63-2.41,1.11-3.56c1.86-4.5,5.55-7.93,7.79-12.22
				c0.45-0.85,0.82-1.73,1.17-2.63c0.68-1.7,1.36-3.43,2.25-5.04c0.14-0.26,0.79-1.28,1.13-0.61c0.17,0.34-0.07,1.11-0.02,1.52
				c0.12,1.01,0.22,2,0.08,3.01c-0.14,1.05-0.51,2.02-0.89,3c-0.88,2.27-1.87,4.5-2.89,6.71c-0.49,1.06-0.92,2.16-1.52,3.16
				c-0.62,1.04-1.47,1.91-2.1,2.93c-0.98,1.57-1.61,3.55-1.8,5.4c-0.18,1.74-0.05,3.8-0.59,5.48c-0.6,1.91-1.96,3.3-3.04,4.92
				c-1.4,2.1-2.52,4.41-4.11,6.39c-0.8,1-1.74,1.83-2.77,2.59c-1.28,0.94-2.67,1.77-3.74,2.95c-1.11,1.23-1.92,2.67-2.91,3.99
				c-0.86,1.15-1.89,2.21-2.96,3.15c-0.95,0.85-1.99,1.63-3.17,2.13c-0.89,0.37-2.3,0.73-2.75,1.72c-0.45,1-0.4,2.1-0.37,3.18
				c0.04,1.02,0.04,2.03,0.03,3.06c-0.03,1.83-0.05,3.65-0.16,5.48c-0.14,2.16-0.39,4.31-0.67,6.45c-0.41,3.21-0.95,6.52-2.29,9.49
				c-0.51,1.13-1.11,2.26-1.82,3.28c-0.46,0.67-1.04,1.35-1.15,2.19c-0.06,0.49-0.09,0.99,0,1.48c0.16,0.87,0.01,0.01,0.2,6.46
				c-0.01,0.06,0.06,0.07,0.08,0.12c0.03-0.01,0.2-0.08,0.2-0.08s-0.08,0.18-0.1,0.27c0.02,0.01,0.02,0.03,0.05,0.04
				c0.16,0.03,0.33-0.08,0.36-0.25c0.43-4.42,0.65-3.06,0.42-4.41c-0.21-1.27-0.83-2.18-0.65-3.54c0.12-0.89,0.91-1.63,1.36-2.34
				c0.87-1.41,1.65-2.92,2.18-4.49c1.42-4.16,1.85-8.67,2.25-13.03c0.27-2.89,0.28-5.78,0.3-8.68c0.01-1.45-0.32-3.07,0.28-4.43
				c0.17-0.38,0.64-0.65,0.99-0.84c0.8-0.41,1.66-0.66,2.45-1.11c1.67-0.97,3.08-2.34,4.37-3.77c1.45-1.59,2.42-3.56,3.87-5.16
				c1.58-1.75,3.81-2.77,5.5-4.41c2.03-1.96,3.24-4.64,4.73-6.98c1.02-1.59,2.4-3.02,3.16-4.75c1-2.29,0.6-4.88,1.05-7.26
				c0.29-1.53,0.8-3.1,1.62-4.44c0.63-1.02,1.47-1.89,2.08-2.93c0.75-1.27,1.29-2.7,1.9-4.05c1.01-2.23,1.98-4.48,2.83-6.77
				c0.42-1.13,0.69-2.31,0.67-3.52c-0.01-0.67-0.16-1.31-0.19-1.96c-0.02-0.62,0.29-1.28-0.24-1.78
				C950.5,645.67,950.31,645.62,950.11,645.68z M909.34,746.73c-0.07-0.03-0.07-0.11-0.1-0.18c-0.33,0.16-2.21,1.06-2.43,0.71
				c0.06,0.43,0.13,0.86,0.42,1.19c0.77,0.87,1.63-0.58,1.9-1.15C909.25,747.07,909.29,746.9,909.34,746.73z M906.82,747.25
				c-0.01-0.07-0.08-0.13-0.08-0.2c0.01,0.06,0.01,0.12,0.02,0.18C906.76,747.25,906.8,747.24,906.82,747.25z M906.73,747.05
				c-0.02-0.17-0.03-0.35-0.04-0.53C906.7,746.7,906.71,746.87,906.73,747.05z M906.69,746.52c-0.01-0.38-0.02-0.76-0.06-1.11
				c-0.05-0.36-0.1-0.72-0.14-1.07C906.59,745.06,906.63,745.8,906.69,746.52z M908.19,728.7c-0.17-0.93-0.49-1.81-0.67-2.77
				c-0.21-1.16-0.46-2.32-0.71-3.48c-0.52-2.4-1.07-5.1-0.27-7.48c-0.92,2.64-0.22,5.78,0.34,8.39c0.23,1.05,0.34,2.12,0.61,3.16
				C907.7,727.25,908.07,727.94,908.19,728.7z M906.55,714.96c0.29-0.85,0.8-1.61,1.33-2.33c0.44-0.58,0.91-1.16,1.34-1.76
				c0.2-0.29,0.38-0.59,0.56-0.89c0.1-0.17,0.17-0.34,0.23-0.52c0.13-0.47,0.56-2.18,1.43-1.81c0.14,0.06,0.23,0.17,0.28,0.3
				c-0.04-0.08-0.02-0.23-0.08-0.28c-0.73-0.58-1.45,0.65-1.6,1.2c-0.05,0.17-0.09,0.37-0.14,0.54c-0.05,0.17-0.1,0.37-0.2,0.52
				c-0.19,0.3-0.36,0.61-0.57,0.89c-0.21,0.3-0.45,0.58-0.67,0.87c-0.23,0.3-0.45,0.58-0.67,0.87c-0.38,0.51-0.74,1.04-1.03,1.62
				C906.65,714.43,906.64,714.7,906.55,714.96z M911.04,722.04c0.18-1.47,0.34-2.94,0.71-4.39c0.39-1.59,0.63-3.17,0.51-4.82
				c-0.05-0.61-0.11-1.22-0.22-1.82c-0.08-0.41-0.16-0.58-0.16-0.95c-0.01-0.32,0.02-0.94-0.02-1.52c0.01,0.39-0.06,0.82-0.06,1.05
				c0,0.16,0,0.31,0,0.47c0.01,0.38,0.06,0.54,0.14,0.97c0.12,0.6,0.22,1.21,0.27,1.82c0.1,1.39-0.05,2.78-0.36,4.13
				c-0.19,0.8-0.38,1.57-0.49,2.39C911.23,720.26,911.15,721.16,911.04,722.04z M908.13,730.56c-0.02,0.11-0.06,0.21-0.08,0.32
				C908.07,730.77,908.11,730.68,908.13,730.56z"/>
		</g>
		<g>
			<path class="st3" d="M903.45,709.01c-1.17,2.08-1.46,3.35-1.15,5.67c0.05,0.39-0.17,1.05,0.53,1.14
				c1.63,0.22,2.56-2.38,2.95-3.39c0.76-2,1.72-4.21,2.01-6.31c0.1-0.68,0.73-1.39,0.47-2.07c-0.33-0.9-1.07-1.51-1.66-2.25"/>
			<path class="st3" d="M906.61,701.79c0.54,0.66,1.4,1.4,1.62,2.27c0.18,0.69-0.3,1.24-0.46,1.88c-0.21,0.77-0.28,1.52-0.53,2.29
				c-0.33,1.07-0.77,2.12-1.19,3.15c-0.14,0.34-0.27,0.68-0.41,1.02c-0.4,1.01-1.02,2.69-2.14,3.13c-0.1,0.04-0.2,0.07-0.3,0.08
				c-0.75,0.09-0.63-0.29-0.65-0.84c-0.01-0.22-0.04-0.46-0.06-0.69c-0.16-1.91,0.3-3.28,1.21-4.93c0.08-0.14,0.05-0.33-0.1-0.41
				c-0.14-0.08-0.33-0.02-0.41,0.12c-0.63,1.18-1.19,2.4-1.27,3.76c-0.05,0.7,0.05,1.37,0.14,2.07c0.08,0.59-0.1,1.25,0.73,1.35
				c0.16,0.02,0.31,0.01,0.47-0.02c0.14-0.02,0.3-0.06,0.42-0.12c1.5-0.66,2.1-3.08,2.61-4.45c0.39-1.06,0.81-2.11,1.11-3.2
				c0.22-0.78,0.3-1.52,0.49-2.31c0.16-0.66,0.61-1.21,0.41-1.92C908.05,703.16,907.17,702.44,906.61,701.79z"/>
		</g>
		<g>
			<path class="st3" d="M911.55,705.57c-0.51,1.65-0.31,3.54-0.48,5.26c-0.1,1.04-0.73,2.03-0.66,3.08c0.08,1.1,0.64,2.15,0.65,3.25
				c0.01,0.91-0.29,1.8-0.29,2.7c0.01,1.83,0.41,3.2-0.21,5.02c-0.9,2.69-2.54,6.04-2.51,8.9c0.01,0.35,0.45,3.08,1.3,2.56
				c0.25-0.15,0.71-1.81,0.85-2.14c0.69-1.59,0.84-3.22,1.23-4.91c0.98-4.18,2.25-8.17,2.38-12.5c0.05-1.88-0.6-3.3-0.89-5.08
				c-0.25-1.52-0.12-3.24-0.14-4.79"/>
			<path class="st3" d="M911.63,705.29c-0.16-0.05-0.32,0.05-0.37,0.2c0.5,0.47,0.42,0.4,0.49,0.47c0.04-0.03,0,0,0.08-0.3
				C911.87,705.5,911.79,705.33,911.63,705.29z M911.75,705.96c-0.01,0.01,0.03,0.08-0.02,0.1c-0.01,0.01-0.01,0.04-0.02,0.05
				c0.1,0.05,0.23,0.02,0.3,0.1C912.14,706.34,911.79,705.99,911.75,705.96z M911.71,706.1c-0.19-0.09-0.37-0.21-0.57-0.18
				c-0.15,0.02-0.05,0.29-0.08,0.44c-0.08,0.45-0.12,0.91-0.14,1.36c-0.06,1.1,0.03,2.25-0.16,3.33c-0.14,0.79-0.52,1.51-0.61,2.31
				c-0.12,1.15,0.43,2.18,0.59,3.3c0.16,1.08-0.21,2.12-0.22,3.2c-0.01,1.1,0.21,2.2,0.14,3.3c-0.08,1.31-0.62,2.56-1.07,3.79
				c-0.65,1.74-1.33,3.51-1.6,5.36c-0.17,1.2-0.12,2.32,0.36,3.46c0.16,0.38,0.64,1.14,1.13,0.67c0.39-0.38,0.59-1.45,0.75-1.92
				c0.17-0.49,0.38-0.97,0.52-1.48c0.27-0.95,0.41-1.91,0.61-2.87c0.26-1.32,0.61-2.63,0.93-3.94c0.59-2.4,1.15-4.8,1.41-7.26
				c0.12-1.15,0.23-2.34,0.06-3.5c-0.2-1.39-0.71-2.73-0.89-4.12c-0.12-0.93-0.11-1.88-0.1-2.81c0-0.27,0.08-0.56,0-0.81
				c0.05,0.26-0.02,0.54-0.03,0.81c0,0.27-0.01,0.54-0.02,0.81c-0.01,0.67,0.03,1.34,0.1,2c0.17,1.41,0.67,2.75,0.85,4.15
				c0.15,1.15,0.05,2.31-0.08,3.46c-0.32,2.8-1.06,5.54-1.76,8.27c-0.25,0.97-0.51,1.94-0.71,2.91c-0.19,0.95-0.34,1.92-0.62,2.86
				c-0.15,0.5-0.38,0.95-0.55,1.44c-0.05,0.14-0.07,0.28-0.12,0.42c-0.05,0.16-0.1,0.31-0.16,0.47c-0.06,0.16-0.29,1.14-0.65,0.93
				c-0.37-0.21-0.51-0.84-0.61-1.22c-0.31-1.16-0.23-2.21,0.04-3.4c0.06-0.25,0.12-0.52,0.18-0.76c0.42-1.54,1.03-3.01,1.6-4.49
				c0.28-0.75,0.62-1.52,0.77-2.3c0.24-1.24,0.03-2.5,0-3.75c-0.02-0.75,0.12-1.46,0.22-2.2c0.1-0.72,0.08-1.38-0.08-2.08
				c-0.16-0.68-0.48-1.39-0.49-2.1c-0.02-0.88,0.38-1.65,0.58-2.49c0.18-0.76,0.16-1.57,0.18-2.35c0.03-0.87,0.03-1.75,0.19-2.61
				C911.65,706.34,911.63,706.16,911.71,706.1z M912.79,707.7c-0.17-0.54,0-0.79,0-0.79s-0.58-0.8-0.47-0.63
				C912.58,706.7,912.68,707.21,912.79,707.7z"/>
		</g>
		<g>
			<path class="st3" d="M894.48,802.39c0.44,2.41,0.93,4.63,3.43,5.41c0.71,0.23,0.98,0.56,1.63-0.18c1.11-1.29-0.36-3.63-0.63-4.97
				c-0.95-4.53-3.98-8.38-3.52-13.18c0.31-3.21,0.38-6.4,1.18-9.57c0.3-1.2,1.01-2.33,1.26-3.52c0.89-4.23,2.6-8.33,3.98-12.46
				c0.73-2.19,1.99-4.2,2.89-6.33c1.09-2.58,1.97-5.22,2.89-7.85c0.3-0.86,0.91-1.68,1.17-2.53c0.65-2.07,1.08-4.99,0.73-7.14
				c-0.35-2.1-1.28-4.13-1.72-6.23c-0.43-2.07-1.57-2.87-3.07-4.16c-0.21-0.18-0.27-0.61-0.54-0.63c-0.56-0.05-1.11,3.25-1.08,3.79
				c0.13,2.38,1.29,4.7,1.53,7.04c0.14,1.34-0.47,3.12-0.73,4.42c-0.29,1.48,0.08,3-0.45,4.43c-0.95,2.55-1.83,6.28-3.34,8.49
				c-0.52,0.74-1.31,1.22-1.9,1.9c-1.02,1.15-1.86,2.81-2.44,4.24c-1.75,4.37-2.29,9.06-3.16,13.64c-0.75,3.94-2,7.7-2.17,11.74
				c-0.23,5.52,2.25,12.39,5.6,16.71"/>
			<path class="st3" d="M904.16,728.92c-0.41-0.05-0.6,0.67-0.69,0.95c-0.37,1.13-0.65,2.4-0.51,3.6c0.27,2.2,1.19,4.26,1.5,6.46
				c0.23,1.59-0.56,3.21-0.77,4.75c-0.17,1.36,0.03,2.71-0.38,4.05c-0.3,0.95-0.62,1.88-0.93,2.84c-0.63,1.95-1.3,3.87-2.38,5.62
				c-0.47,0.75-1.3,1.26-1.88,1.9c-0.92,1.02-1.57,2.28-2.12,3.52c-2.01,4.54-2.54,9.58-3.46,14.41c-0.62,3.25-1.61,6.44-1.99,9.73
				c-0.49,4.2,0.31,8.37,1.88,12.26c-1.55-3.91-2.32-8.07-1.82-12.26c0.39-3.3,1.39-6.48,2.02-9.73c0.93-4.82,1.48-9.8,3.5-14.33
				c0.54-1.22,1.19-2.49,2.1-3.5c0.59-0.65,1.44-1.14,1.92-1.9c1.24-1.98,1.93-4.2,2.65-6.42c0.23-0.7,0.49-1.38,0.71-2.08
				c0.43-1.35,0.22-2.71,0.41-4.09c0.2-1.5,0.84-2.92,0.81-4.45c-0.03-1.32-0.47-2.63-0.83-3.88c-0.33-1.15-0.63-2.32-0.71-3.52
				c-0.04-0.67,0.18-1.41,0.32-2.07c0.1-0.43,0.21-0.89,0.41-1.29c0.01-0.03,0.15-0.3,0.2-0.28c0.19,0.05,0.24,0.31,0.34,0.46
				c0.12,0.17,0.36,0.34,0.49,0.45c0.85,0.73,1.68,1.46,2.21,2.47c0.38,0.73,0.5,1.57,0.71,2.35c0.47,1.73,1.16,3.41,1.44,5.18
				c0.28,1.78,0.09,3.63-0.28,5.38c-0.15,0.7-0.32,1.42-0.6,2.08c-0.31,0.73-0.74,1.37-1.02,2.1c-0.97,2.61-1.79,5.27-2.91,7.83
				c-0.69,1.6-1.55,3.13-2.27,4.72c-0.68,1.53-1.15,3.13-1.72,4.71c-1.11,3.09-2.14,6.18-2.91,9.39c-0.27,1.11-0.86,2.1-1.2,3.19
				c-0.34,1.13-0.52,2.35-0.69,3.52c-0.21,1.59-0.31,3.19-0.45,4.8c-0.08,0.93-0.21,1.87-0.2,2.81c0.02,1.17,0.23,2.32,0.54,3.44
				c0.58,2.03,1.52,3.94,2.23,5.91c0.37,1.02,0.58,2.06,0.89,3.09c0.32,1.1,0.97,2.19,0.93,3.38c-0.01,0.23-0.05,0.48-0.14,0.69
				c-0.43,0.87-0.79,0.61-1.5,0.36c-0.69-0.23-1.29-0.58-1.78-1.13c-0.18-0.21-0.43-0.56-0.54-0.81c-0.15-0.32-0.29-0.65-0.41-0.99
				c-0.03-0.08-0.03-0.16-0.06-0.24c-0.01-0.01-0.01-0.01-0.02-0.02c-0.05-0.13-0.06-0.26-0.1-0.39c-0.06-0.07-0.17-0.16-0.28-0.24
				c-0.14-0.21-0.27-0.41-0.39-0.61c-0.78-1.31-1.44-2.67-2-4.09c0.1,0.24,0.16,0.49,0.26,0.73c0.51,1.16,1.07,2.3,1.72,3.38
				c0.1,0.17,0.21,0.35,0.32,0.52c-0.14-0.08-0.25-0.11-0.3,0c-0.16,0.36,0.18,0.76,0.3,1.13c0.12,0.36,0.27,0.71,0.43,1.06
				c0.14,0.3,0.41,0.7,0.63,0.95c0.6,0.69,1.35,1.05,2.2,1.35c0.3,0.1,0.59,0.26,0.91,0.22c0.57-0.06,1.04-0.67,1.21-1.17
				c0.08-0.22,0.12-0.45,0.12-0.69c0.05-1.26-0.62-2.39-0.97-3.56c-0.31-1.04-0.53-2.1-0.91-3.13c-0.72-1.96-1.64-3.84-2.21-5.85
				c-0.3-1.07-0.52-2.18-0.55-3.3c-0.02-1.18,0.16-2.38,0.25-3.56c0.1-1.33,0.21-2.67,0.38-3.99c0.16-1.14,0.32-2.31,0.65-3.42
				c0.34-1.1,0.93-2.1,1.2-3.24c0.76-3.19,1.77-6.26,2.87-9.34c0.56-1.57,1-3.17,1.68-4.69c0.7-1.6,1.55-3.11,2.25-4.71
				c1.1-2.57,1.91-5.25,2.87-7.87c0.27-0.73,0.71-1.39,1.01-2.1c0.28-0.68,0.45-1.42,0.61-2.14c0.37-1.79,0.56-3.71,0.26-5.53
				c-0.23-1.42-0.73-2.79-1.15-4.16c-0.39-1.26-0.54-2.65-1.24-3.81c-0.62-1.01-1.58-1.71-2.45-2.49
				C904.56,729.38,904.54,728.97,904.16,728.92z M895.1,803.95c-0.04-0.15-0.12-0.29-0.1-0.45c0.03-0.18,0.01,0.01-0.23-1.17
				c-0.03-0.16-0.18-0.25-0.34-0.22c-0.16,0.03-0.27,0.18-0.24,0.34C895.1,803.96,895.34,804.21,895.1,803.95z M895.4,803.89
				c0.14,0.32,0.34,0.7,0.2,1.01c-0.08-0.35,0.41,0.57,0.41,0.57S895.33,803.72,895.4,803.89z"/>
		</g>
		<g>
			<path class="st3" d="M897.6,764.33c-0.49,0.12-0.68-0.81-0.76-1.31c-0.14-0.79,1.61-3.49,1.98-4.33
				c1.51-3.39,2.53-7.02,4.25-10.29c0.75-1.44,0.99-2.97,1.99-4.33c0.16-0.23,0.27-0.69,0.54-0.63c1.2,0.24,0.43,4.73,0.18,5.42
				c-0.74,2.04-1.46,4.1-2.43,6.05c-0.72,1.44-1.72,2.72-2.44,4.16C900.02,760.8,899.56,763.84,897.6,764.33z"/>
			<path class="st3" d="M905.81,743.35c-0.51-0.28-0.68,0.3-0.89,0.63c-0.15,0.23-0.33,0.45-0.47,0.69
				c-0.59,1.04-0.88,2.21-1.4,3.28c-0.32,0.68-0.67,1.34-0.99,2.03c-0.52,1.13-0.98,2.28-1.43,3.44c-0.74,1.9-1.35,3.91-2.33,5.7
				c-0.14,0.26-0.3,0.52-0.45,0.77c-0.16,0.29-0.3,0.56-0.46,0.85c-0.35,0.63-0.84,1.44-0.85,2.19c-0.01,0.45,0-0.02,1.09,1.7
				c0.16-0.01,0.28-0.14,0.27-0.3c-0.01-0.04-0.06-0.05-0.08-0.08c0.14-0.05,0.3-0.07,0.47-0.18c0.16-0.11,0.27-0.28,0.41-0.43
				c-0.25,0.21-0.71,0.47-0.91,0.59c-0.06-0.08-0.1-0.19-0.2-0.18c-0.46-1.12-0.47-0.63-0.47-1.11c0.01-0.43,0.27-0.9,0.44-1.28
				c0.38-0.78,0.83-1.51,1.24-2.27c0.69-1.28,1.16-2.69,1.66-4.05c0.64-1.74,1.26-3.48,2.01-5.18c0.41-0.93,0.91-1.82,1.28-2.77
				c0.23-0.61,0.43-1.24,0.69-1.85c0.21-0.49,0.49-0.95,0.77-1.39c0.08-0.14,0.18-0.47,0.34-0.55c0.11-0.05,0.26,0.12,0.3,0.19
				c0.19,0.29,0.23,0.67,0.26,1.01c0.1,1.24-0.06,2.57-0.36,3.78c-0.27,1.12-0.76,2.23-1.17,3.3c-0.48,1.26-1,2.53-1.66,3.7
				c-0.74,1.32-1.66,2.53-2.25,3.93c-0.29,0.68-0.51,1.39-0.77,2.08c0.45-1.09,0.85-2.2,1.44-3.22c0.67-1.17,1.48-2.24,2.08-3.44
				c0.97-1.95,1.74-3.98,2.49-6.03c0.19-0.52,0.27-1.13,0.34-1.68c0.12-0.8,0.2-1.64,0.14-2.45
				C906.34,744.3,906.27,743.6,905.81,743.35z M899.87,761.58c-0.25,0.65-0.58,1.29-1.01,1.86c0.08-0.1,0.2-0.19,0.28-0.3
				C899.47,762.66,899.65,762.11,899.87,761.58z M898.86,763.44c-0.06,0.06-0.12,0.12-0.18,0.18c0.03-0.03,0.1-0.06,0.12-0.08
				C898.83,763.51,898.84,763.47,898.86,763.44z"/>
		</g>
		<g>
			<path class="st3" d="M900.53,763.92c0.74-1.33,1.72-2.24,2.62-3.43c2.45-3.27,4.56-7.08,5.96-10.93
				c0.58-1.59,0.25-2.71-0.09-4.24c-0.07-0.34,0.22-1.47-0.45-1.63c-0.74-0.17-2.48,3.81-2.71,4.42c-1.49,3.97-2.46,8.07-3.98,12.01
				"/>
			<path class="st3" d="M908.62,743.57c-0.34-0.13-0.69,0.37-0.85,0.59c-0.56,0.75-0.96,1.63-1.36,2.47
				c-0.1,0.21-0.22,0.48-0.32,0.71c-0.95,2.18-1.56,4.52-2.25,6.8c-0.57,1.9-1.01,3.13-1.39,4.27c0.28-0.74,0.6-1.48,0.85-2.25
				c0.95-2.91,1.71-5.94,2.97-8.74c0.45-1,0.93-2.03,1.56-2.93c0.06-0.09,0.55-0.73,0.69-0.67c0.54,0.25,0.32,0.93,0.34,1.41
				c0.03,0.4,0.17,0.82,0.25,1.22c0.17,0.9,0.23,1.8-0.04,2.69c-0.43,1.43-1.12,2.81-1.78,4.14c-1.07,2.18-2.33,4.25-3.74,6.22
				c-0.69,0.95-1.47,1.83-2.21,2.75c-0.02,0.02-0.03,0.04-0.04,0.06c0.01-0.06,0.02-0.14,0.04-0.2c0.08-0.3-0.11,0.4-0.06,0.22
				c-0.14,0.47-0.25,0.93-0.3,1.42c-0.02,0.12,0.14-0.19,0.2-0.28c0.12-0.19,0.27-0.41,0.4-0.58c0.28-0.38,0.6-0.72,0.89-1.07
				c0.76-0.91,1.44-1.85,2.1-2.84c1.56-2.32,2.89-4.81,3.96-7.4c0.41-0.99,0.91-2.02,1.04-3.1c0.08-0.7-0.02-1.39-0.16-2.08
				c-0.09-0.41-0.25-0.87-0.25-1.29C909.17,744.53,909.26,743.81,908.62,743.57z M901.27,762.33c-0.21,0.26-0.4,0.52-0.59,0.79
				c-0.07,0.1-0.27,0.44-0.23,0.32c0.18-0.51,0.01,0.01-0.18,0.34c-0.08,0.14-0.04,0.3,0.1,0.39c0.14,0.08,0.32,0.04,0.4-0.1
				C901.27,762.32,901.67,760.96,901.27,762.33z M902.45,758.4c-0.45,1.18-0.87,2.38-1.36,3.56c-0.2,0.5,0.79-1.84,0.79-1.85
				C901.88,760.12,902.29,758.85,902.45,758.4z"/>
		</g>
		<g>
			<path class="st3" d="M899.12,854.97c0.82,1.82,0.87,3.75,1.47,5.63c0.3,0.95,0.85,1.56,0.71,2.62c-0.12,0.91-1.72,3.83-0.16,4.52
				c1.7,0.74,2.9-4.51,3.17-5.63c1.06-4.49,1.22-9.6,1.03-14.19c-0.06-1.37-0.41-2.7-0.48-4.05c-0.24-5.35,1.38-10.83,2.07-16.1
				c0.6-4.59-0.64-10.32-2.3-14.59c-0.58-1.49-0.98-3.37-1.9-4.68c-0.52-0.73-1.29-1.28-1.83-1.98c-0.73-0.97-0.1-0.45-0.71-1.51
				c-0.99-1.68-2.01-3.21-2.86-5c-0.12-0.24-0.93-2.07-1.19-2.14c-0.69-0.17-0.71,1.48-0.71,1.5c-0.15,1.79,0.59,2.84,0.87,4.52
				c0.21,1.24,0.05,2.52,0.24,3.73c0.29,1.82,2.38,3.96,3.02,5.71c0.93,2.56,1.66,5.2,2.3,7.85c0.44,1.85,0.15,3.93-0.08,5.79
				c-0.1,0.83-0.01,1.64-0.08,2.46c-0.29,3.05-1.53,6.16-2.3,9.12c-0.6,2.3-0.35,4.6-0.71,6.9
				C898.25,848.23,897.95,852.35,899.12,854.97z"/>
			<path class="st3" d="M896.21,797.81c-0.18-0.11-0.38-0.12-0.56,0.14c-0.34,0.51-0.34,1.25-0.34,1.85
				c-0.01,1.17,0.44,2.2,0.73,3.32c0.17,0.67,0.26,1.33,0.28,2.03c0.04,0.98-0.05,2.02,0.24,2.97c0.59,1.93,2.16,3.39,2.93,5.24
				c0.7,1.66,1.17,3.47,1.64,5.21c0.36,1.32,0.78,2.67,0.87,4.04c0.1,1.46-0.12,2.91-0.28,4.35c-0.09,0.82,0.02,1.65-0.06,2.47
				c-0.33,3.35-1.74,6.42-2.41,9.69c-0.35,1.71-0.29,3.46-0.45,5.18c-0.08,0.89-0.23,1.77-0.32,2.65c0,0.03,0.03,0.17,0.02,0.2
				c0.01-0.06-0.01-0.14,0-0.2c0.1-0.88,0.27-1.77,0.34-2.65c0.17-1.72,0.12-3.45,0.47-5.15c0.47-2.25,1.33-4.42,1.88-6.64
				c0.25-1.02,0.46-2.02,0.56-3.06c0.07-0.68,0-1.39,0.05-2.07c0.09-1.44,0.4-2.84,0.36-4.29c-0.03-1.12-0.28-2.18-0.54-3.26
				c-0.39-1.54-0.83-3.08-1.31-4.59c-0.31-0.96-0.6-1.96-1.07-2.86c-0.8-1.5-2.14-2.85-2.53-4.55c-0.17-0.77-0.14-1.6-0.16-2.39
				c-0.01-0.81-0.08-1.57-0.28-2.36c-0.27-1.09-0.74-2.14-0.73-3.28c0.01-0.51,0.02-1.12,0.25-1.58c0.1-0.21,0.28-0.36,0.46-0.12
				c0.61,0.82,0.96,1.92,1.44,2.84c0.74,1.41,1.62,2.76,2.41,4.14c0.12,0.21,0.23,0.38,0.28,0.61c0.04,0.17,0.03,0.28,0.12,0.45
				c0.67,1.18,1.89,1.89,2.54,3.13c0.6,1.13,0.89,2.39,1.31,3.58c1.24,3.47,2.25,6.99,2.49,10.68c0.34,5.04-1.29,9.95-1.92,14.91
				c-0.23,1.79-0.38,3.62-0.28,5.43c0.06,1.13,0.32,2.25,0.43,3.38c0.05,0.58,0.06,1.26,0.08,1.82c0.13,5.04-0.14,10.22-1.64,15.07
				c-0.07,0.23-0.14,0.46-0.22,0.69c-0.28,0.79-0.59,1.67-1.15,2.31c-0.19,0.21-0.48,0.45-0.79,0.36c-0.62-0.18-0.62-0.92-0.55-1.44
				c0.1-0.67,0.35-1.32,0.57-1.96c0.09-0.28,0.22-0.58,0.25-0.87c0.06-0.96-0.33-1.66-0.65-2.51c-0.14-0.36-0.25-0.83-0.32-1.13
				c-0.27-1.1-0.43-2.23-0.73-3.32c-0.09-0.32-0.01,0.01-0.51-1.41c-0.05-0.11-0.17-0.12-0.28-0.12c0,0.01,0.02,0.22,0.02,0.22
				s-0.06-0.16-0.1-0.26c-0.01,0-0.01-0.01-0.02,0c-0.16,0.06-0.21,0.23-0.14,0.38c0.71,2.27,0.52,1.48,0.69,2.27
				c0.24,1.11,0.45,2.24,0.77,3.34c0.2,0.69,0.67,1.31,0.71,2.04c0.03,0.5-0.13,0.94-0.28,1.4c-0.25,0.75-0.56,1.54-0.56,2.35
				c-0.01,0.54,0.15,1.08,0.63,1.39c1.11,0.73,2-0.6,2.43-1.48c1.13-2.32,1.66-5.18,2-7.71c0.11-0.82,0.17-1.59,0.25-2.41
				c0.06-0.76,0.13-1.66,0.16-2.42c0.09-2.2,0.13-4.45-0.1-6.64c-0.09-0.9-0.29-1.79-0.38-2.69c-0.14-1.32-0.08-2.67,0.02-3.99
				c0.24-3.17,0.89-6.29,1.43-9.41c0.27-1.49,0.54-3,0.63-4.51c0.23-3.79-0.52-7.66-1.66-11.25c-0.32-1.02-0.73-2.01-1.07-3.02
				c-0.38-1.08-0.67-2.2-1.22-3.22c-0.62-1.16-1.69-1.86-2.43-2.91c-0.28-0.4-0.3-0.85-0.54-1.28c-0.64-1.1-1.33-2.17-1.96-3.28
				c-0.62-1.08-1.09-2.26-1.7-3.34C896.55,798.14,896.39,797.93,896.21,797.81z M899.03,854.7c0.03-0.01,0.05,0.04,0.08,0.04
				c-0.05-0.39-0.71-6.06-0.61-7.59c-0.14,1.32-0.23,2.64-0.16,3.97c0.05,0.95,0.14,2.29,0.53,3.17
				C898.92,854.42,898.97,854.54,899.03,854.7z"/>
		</g>
		<g>
			<path class="st3" d="M903.62,884.69c-0.74-1.1-0.3-3.21-0.17-4.4c0.16-1.53,0.58-3.66,0.26-5.19c-0.17-0.85-0.87-1.55-1.14-2.38
				c-0.17-0.51-0.96-2.79-1.76-2.73c-1.15,0.08-0.76,2.73-0.88,3.35c-0.24,1.17-0.85,2.22-0.97,3.43c-0.14,1.43,0.15,2.88,0.09,4.32
				c-0.08,1.91-0.06,4.01-0.36,5.9c-0.21,1.36-0.63,2.86-0.17,4.23c0.59,1.77,1.83,3.04,2.64,4.67c0.59,1.18,0.67,2.52,0.97,3.78
				c0.36,1.5,1.07,2.91,1.41,4.4c0.46,2.01,0.12,7.58,2.12,8.63c0.25,0.13,0.55,0.4,0.79,0.27c0.5-0.28,1.03-3.91,1.06-4.58
				c0.19-4.34,0.22-8.37-1.23-12.5c-0.87-2.48-2.23-4.78-2.64-7.4C903.42,887.26,904.26,885.66,903.62,884.69z"/>
			<path class="st3" d="M900.42,869.83c-0.44,0.23-0.6,0.78-0.67,1.24c-0.13,0.83,0.06,1.69-0.14,2.51
				c-0.27,1.08-0.78,2.07-0.91,3.18c-0.15,1.2,0.08,2.42,0.1,3.62c0.04,1.86-0.01,3.79-0.2,5.65c-0.15,1.49-0.67,3.02-0.45,4.53
				c0.31,2.03,1.92,3.66,2.86,5.41c0.67,1.26,0.69,2.78,1.07,4.12c0.41,1.44,1.11,2.79,1.38,4.27c0.42,2.37,0.1,4.97,1.11,7.22
				c0.28,0.63,0.69,1.04,1.28,1.38c0.19,0.11,0.4,0.21,0.63,0.1c0.39-0.19,0.63-1.57,0.71-1.96c0.39-1.96,0.46-3.91,0.47-5.91
				c0.01-2.8-0.21-5.59-1.01-8.27c-0.57-1.91-1.45-3.71-2.15-5.57c0.69,1.86,1.51,3.68,2.07,5.59c0.78,2.68,0.98,5.47,0.95,8.26
				c-0.01,1.23,0.01,2.51-0.14,3.74c-0.04,0.29-0.07,0.58-0.12,0.87c-0.13,0.8-0.28,1.63-0.52,2.41c-0.05,0.16-0.14,0.58-0.32,0.67
				c-0.25,0.12-0.74-0.26-0.93-0.4c-0.82-0.64-1.05-1.94-1.21-2.87c-0.2-1.15-0.26-2.32-0.34-3.48c-0.05-0.68-0.08-1.39-0.25-2.06
				c-0.36-1.5-1.06-2.91-1.39-4.42c-0.28-1.26-0.36-2.65-0.97-3.82c-0.89-1.71-2.47-3.35-2.75-5.32c-0.17-1.17,0.17-2.34,0.34-3.48
				c0.25-1.64,0.28-3.28,0.34-4.93c0.03-0.82,0.06-1.61,0.02-2.43c-0.05-0.93-0.18-1.9-0.06-2.84c0.17-1.34,0.99-2.56,1.01-3.92
				c0-0.22,0.02-0.45,0.02-0.67c0-0.12-0.01-0.24,0-0.36c0.01-0.12,0.01-0.25,0.02-0.37c0.02-0.26,0.16-1.41,0.67-1.21
				c0.28,0.1,0.47,0.47,0.61,0.71c0.34,0.59,0.54,1.22,0.79,1.85c0.29,0.73,1.01,1.55,1.13,2.32c0.29,1.9-0.12,3.87-0.36,5.77
				c-0.13,1,0.01-0.01,0.3,3.92c0.05,0.08,0.16,0.05,0.25,0.06c0-0.01,0-0.2,0-0.2s0.06,0.14,0.1,0.23
				c0.02-0.01,0.04,0.03,0.06,0.02c0.14-0.08,0.17-0.27,0.08-0.41c-0.32-0.87-0.26-0.54-0.3-0.87c-0.08-0.51-0.08-1.01-0.05-1.52
				c0.18-2.35,0.85-4.74,0.47-7.1c-0.12-0.76-0.69-1.37-1.01-2.04c-0.41-0.87-0.61-1.81-1.17-2.61
				C901.48,869.94,900.99,869.53,900.42,869.83z M903.72,884.93c-0.04,0.01-0.06-0.02-0.1-0.03c-0.01,0.28-0.05,2.52-0.02,3.26
				c0.01,0.19,0.08,0.39,0.12,0.6c-0.08-0.41-0.16-0.8-0.1-1.25c0.07-0.56,0.22-1.12,0.25-1.68c0.01-0.2,0.05-0.41-0.03-0.61
				C903.81,885.13,903.77,885.04,903.72,884.93z M903.72,888.77c0.02,0.12-0.01,0.23,0.02,0.37c0.02,0.1,0.08,0.18,0.1,0.28
				C903.79,889.2,903.76,888.99,903.72,888.77z M903.84,889.41c0.03,0.12,0.03,0.24,0.06,0.34c0.14,0.54,0.39,1.06,0.58,1.58
				C904.26,890.7,903.99,890.07,903.84,889.41z"/>
		</g>
	</g>
	<path class="st3" d="M1030.41-115.95"/>
	<text transform="matrix(1 0 0 1 1263.3691 430.6909)" class="st4 st5 st6">Zona alta</text>
	<text transform="matrix(1 0 0 1 1264.9502 456.3526)"><tspan x="0" y="0" class="st7 st8 st9">Distancia de la falla:</tspan><tspan x="153.79" y="0" class="st7 st10 st9"> 8 kilmetros </tspan><tspan x="0" y="19.2" class="st7 st8 st9">Superficie:</tspan><tspan x="80.77" y="19.2" class="st7 st10 st9"> 38.500 hectreas </tspan><tspan x="0" y="38.4" class="st7 st8 st9">Habitantes:</tspan><tspan x="86.67" y="38.4" class="st7 st10 st9"> 515.552 </tspan><tspan x="0" y="57.6" class="st7 st8 st9">Viviendas:</tspan><tspan x="80.81" y="57.6" class="st7 st10 st9"> 161.782 </tspan><tspan x="0" y="76.8" class="st7 st8 st9">Equipamientos:</tspan><tspan x="118.25" y="76.8" class="st7 st10 st9"> 226</tspan></text>
</g>
</svg>
