<?xml version="1.0"?>
<svg xmlns="http://www.w3.org/2000/svg" viewBox="0 0 50 50" enable-background="new 0 0 50 50">
    <path style="text-indent:0;text-align:start;line-height:normal;text-transform:none;block-progression:tb;-inkscape-font-specification:Bitstream Vera Sans" d="M 12.90625 3 C 8.8123904 3 5.5015257 4.8464867 3.3125 7.5625 C 1.1234743 10.278513 0 13.84232 0 17.40625 C 0 28.465144 7.9681418 32.577911 8.4375 32.8125 C 8.451523 32.8195 8.59375 32.90625 8.59375 32.90625 A 1.0001 1.0001 0 0 0 9.5625 31.1875 C 9.5625 31.1875 8.5060679 30.472321 7.34375 28.53125 C 6.1814321 26.590179 5 23.490679 5 18.8125 C 5 16.958532 5.7060615 14.93211 6.84375 13.4375 C 7.9814385 11.94289 9.4770833 11 11.09375 11 C 12.664028 11 14.744095 12.294615 15.9375 13.8125 C 14.041039 14.677925 10.476713 16 7 16 A 1.0001 1.0001 0 0 0 6 17 C 6 17.797222 6.3977536 18.375765 6.875 18.90625 C 7.3522464 19.436735 7.9775798 19.911869 8.65625 20.34375 C 9.7491533 21.039234 10.995676 21.609595 12.21875 21.8125 C 12.048174 22.373676 11.886218 22.938603 11.75 23.46875 C 11.276347 25.312156 11 26.84375 11 26.84375 A 1.0001 1.0001 0 0 0 11.25 27.65625 C 11.25 27.65625 13.171863 29.91746 15.125 33.25 C 17.078137 36.58254 19 40.956513 19 45 A 1.0001 1.0001 0 0 0 19.3125 45.75 C 19.3125 45.75 21.72381 48 25 48 C 28.27619 48 30.6875 45.75 30.6875 45.75 A 1.0001 1.0001 0 0 0 31 45 C 31 40.956513 32.921863 36.58254 34.875 33.25 C 36.828137 29.91746 38.75 27.65625 38.75 27.65625 A 1.0001 1.0001 0 0 0 39 26.84375 C 39 26.84375 38.661221 24.515847 37.71875 21.875 A 1.0087508 1.0087508 0 0 0 37.78125 21.875 C 39.09133 21.492893 40.509662 20.81191 41.6875 20.03125 C 42.276419 19.64092 42.802689 19.227479 43.21875 18.75 C 43.634811 18.272521 44 17.719048 44 17 A 1.0001 1.0001 0 0 0 43 16 C 40.587255 16 38.409972 15.49569 36.78125 14.96875 C 35.966889 14.70528 35.28512 14.434694 34.78125 14.21875 C 34.406238 14.058031 34.234272 13.997275 34.03125 13.90625 C 34.022384 13.894658 34.008896 13.88657 34 13.875 C 35.183864 12.328015 37.312384 11 38.90625 11 C 40.522917 11 42.018561 11.94289 43.15625 13.4375 C 44.293939 14.93211 45 16.958532 45 18.8125 C 45 23.490679 43.818568 26.590179 42.65625 28.53125 C 41.493932 30.472321 40.4375 31.1875 40.4375 31.1875 A 1.0001 1.0001 0 0 0 41.40625 32.90625 C 41.40625 32.90625 41.548477 32.81951 41.5625 32.8125 C 42.031858 32.577911 50 28.465144 50 17.40625 C 50 13.84232 48.859269 10.279106 46.65625 7.5625 C 44.453231 4.8458942 41.140043 3 37 3 C 31.246213 3 27.611661 6.7901858 26 9.0625 C 25.670439 9.0309517 25.344552 9 25 9 C 24.658398 9 24.326506 9.0316819 24 9.0625 C 22.387693 6.7901858 18.745449 3 12.90625 3 z M 12.90625 5 C 17.300498 5 20.238288 7.5905479 21.8125 9.53125 C 20.046116 10.112945 18.550447 11.139244 17.3125 12.40625 C 15.807568 10.543022 13.532155 9 11.09375 9 C 8.7104167 9 6.6623115 10.36336 5.25 12.21875 C 3.8376885 14.07414 3 16.466468 3 18.8125 C 3 21.225446 3.3199641 23.231209 3.78125 24.96875 C 2.7919633 22.994148 2 20.644755 2 17.40625 C 2 14.27018 3.0140257 11.121487 4.875 8.8125 C 6.7359743 6.5035133 9.4001096 5 12.90625 5 z M 37 5 C 40.559957 5 43.253019 6.5041058 45.125 8.8125 C 46.996981 11.120894 48 14.27018 48 17.40625 C 48 20.644755 47.208037 22.994148 46.21875 24.96875 C 46.680036 23.231209 47 21.225446 47 18.8125 C 47 16.466468 46.162311 14.07414 44.75 12.21875 C 43.337689 10.36336 41.289583 9 38.90625 9 C 36.476451 9 34.192666 10.520761 32.6875 12.375 C 31.427554 11.107681 29.935248 10.075641 28.1875 9.5 C 29.766131 7.5612971 32.708468 5 37 5 z M 25 11 C 25.417455 11 25.830658 11.041276 26.21875 11.09375 A 1.0054782 1.0054782 0 0 0 26.25 11.09375 C 28.950958 11.469112 30.951236 13.063857 32.59375 15.28125 A 1.0001 1.0001 0 0 0 33.03125 15.625 C 33.02285 15.6216 33.45387 15.828444 34 16.0625 C 34.54613 16.296556 35.270611 16.58847 36.15625 16.875 C 37.514319 17.314375 39.313694 17.668853 41.25 17.84375 C 41.041011 18.024612 40.873977 18.189268 40.59375 18.375 C 39.621588 19.01934 38.30867 19.619607 37.21875 19.9375 A 1.0087508 1.0087508 0 0 0 36.9375 20.0625 C 36.608888 19.344201 36.271319 18.629539 35.84375 17.96875 A 1.0001 1.0001 0 1 0 34.15625 19.03125 C 36.050659 21.958974 36.843842 26.28308 36.9375 26.8125 C 36.651675 27.151001 35.011273 29.000297 33.125 32.21875 C 31.161216 35.569457 29.221931 39.974617 29.0625 44.4375 C 28.715241 44.720702 27.090014 46 25 46 C 22.909986 46 21.284759 44.720702 20.9375 44.4375 C 20.778069 39.974617 18.838784 35.569457 16.875 32.21875 C 14.988727 29.000297 13.348325 27.151001 13.0625 26.8125 C 13.10875 26.549184 13.284488 25.537229 13.6875 23.96875 C 14.138847 22.212156 14.821701 20.147692 15.53125 19.0625 A 1.0001 1.0001 0 0 0 14.5625 17.5 A 1.0001 1.0001 0 0 0 13.875 17.9375 C 13.505953 18.501926 13.191152 19.178907 12.90625 19.875 C 12.080646 19.810495 10.76318 19.320887 9.71875 18.65625 C 9.2528161 18.359747 8.8968024 18.048157 8.59375 17.75 C 12.116277 17.420027 15.405057 16.31471 17.125 15.5 A 1.0001 1.0001 0 0 0 17.5 15.1875 C 19.018783 13.109165 20.972691 11.542339 23.59375 11.125 A 1.0054782 1.0054782 0 0 0 23.78125 11.09375 C 24.169483 11.04102 24.582545 11 25 11 z M 18.5 26 C 17.671573 26 17 26.895431 17 28 C 17 29.104569 17.671573 30 18.5 30 C 19.328427 30 20 29.104569 20 28 C 20 26.895431 19.328427 26 18.5 26 z M 31.5 26 C 30.671573 26 30 26.895431 30 28 C 30 29.104569 30.671573 30 31.5 30 C 32.328427 30 33 29.104569 33 28 C 33 26.895431 32.328427 26 31.5 26 z M 25 39 C 24.328788 39 23.708645 39.108327 23.15625 39.375 C 22.603855 39.641673 22 40.2 22 41 A 1.0004882 1.0004882 0 0 0 24 41.1875 C 24.009646 41.18521 24.016672 41.194538 24.03125 41.1875 C 24.203855 41.104173 24.571212 41 25 41 C 25.428788 41 25.796145 41.104173 25.96875 41.1875 C 25.99091 41.198197 25.99154 41.191779 26 41.1875 A 1.001098 1.001098 0 0 0 28 41 C 28 40.2 27.396145 39.641673 26.84375 39.375 C 26.291355 39.108327 25.671212 39 25 39 z" overflow="visible" enable-background="accumulate" font-family="Bitstream Vera Sans"/>
</svg>
