<?xml version="1.0"?>
<svg xmlns="http://www.w3.org/2000/svg" viewBox="0 0 50 50" enable-background="new 0 0 50 50">
    <path style="text-indent:0;text-align:start;line-height:normal;text-transform:none;block-progression:tb;-inkscape-font-specification:Bitstream Vera Sans" d="M 7.40625 0 A 1.0001 1.0001 0 0 0 7.1875 0.0625 C 7.1875 0.0625 1 2.1514881 1 8.40625 C 1 12.736881 4.98 17 10.5 17 C 10.788437 17 11.005891 16.978021 11.25 16.96875 C 10.849311 17.099138 10.467152 17.17313 10.03125 17.1875 C 9.049998 17.219849 7.7144231 17 5.6875 17 C 4.8922619 17 3.9668352 17.095282 3.1875 17.71875 C 2.4081648 18.342218 2 19.431944 2 20.8125 C 2 22.501389 2.5130072 23.825507 3.40625 24.71875 C 4.2994928 25.611993 5.4875 26 6.6875 26 C 7.5331947 26 8.5698369 25.860062 9.5625 25.46875 C 9.3271441 26.577505 9.1875 27.511343 9.1875 28.1875 C 9.1875 30.496759 10.742575 32.547835 12.09375 34.90625 C 13.444925 37.264665 14.6875 39.869608 14.6875 43 A 1.0001 1.0001 0 0 0 14.8125 43.46875 A 1.0001 1.0001 0 0 0 14.8125 43.5 C 14.851225 45.475672 16.114083 47.141276 17.9375 48.21875 C 19.789657 49.313207 22.252564 49.90625 25 49.90625 C 27.753846 49.90625 30.214285 49.262379 32.0625 48.15625 C 33.910715 47.050121 35.1875 45.386358 35.1875 43.40625 C 35.1875 43.315633 35.192078 43.215994 35.1875 43.125 A 1.0001 1.0001 0 0 0 35.1875 42.90625 C 35.1875 39.884028 36.459318 37.261522 37.8125 34.875 C 39.165682 32.488478 40.6875 30.403009 40.6875 28.09375 C 40.6875 27.427054 40.566415 26.501649 40.34375 25.40625 C 41.369416 25.829994 42.436652 26 43.3125 26 C 44.5125 26 45.700507 25.611993 46.59375 24.71875 C 47.486993 23.825507 48 22.501389 48 20.8125 C 48 19.431944 47.591835 18.342218 46.8125 17.71875 C 46.033165 17.095282 45.107738 17 44.3125 17 C 42.285577 17 40.950002 17.219849 39.96875 17.1875 C 39.532848 17.17313 39.150689 17.099138 38.75 16.96875 C 38.994109 16.978021 39.211563 17 39.5 17 C 45.02 17 49 12.736881 49 8.40625 C 49 2.1514881 42.8125 0.0625 42.8125 0.0625 A 1.0001 1.0001 0 0 0 42.40625 0 A 1.0001 1.0001 0 0 0 41.90625 1.78125 C 41.90625 1.78125 44 3.3065041 44 7 C 44 8.1951613 43.524606 8.7476995 42.46875 9.25 C 41.412894 9.7523005 39.768919 10 38 10 C 35.553385 10 34.108363 9.3335413 32.1875 8.375 C 32.136159 8.3233708 32.083097 8.2695332 32.03125 8.21875 C 30.08093 6.3084365 27.721181 5 25 5 C 22.277083 5 19.896565 6.330916 17.9375 8.25 C 17.895837 8.2908131 17.853841 8.3336427 17.8125 8.375 C 15.891637 9.3335413 14.446615 10 12 10 C 10.231081 10 8.5871061 9.7523005 7.53125 9.25 C 6.4753939 8.7476995 6 8.1951613 6 7 C 6 3.3065041 8.09375 1.78125 8.09375 1.78125 A 1.0001 1.0001 0 0 0 7.40625 0 z M 4.34375 4.59375 C 4.1544085 5.3239026 4 6.0874341 4 7 C 4 8.9048387 5.1683561 10.3398 6.6875 11.0625 C 8.2066439 11.7852 10.068919 12 12 12 C 13.222047 12 14.261292 11.823168 15.21875 11.5625 C 14.553372 12.555857 13.989909 13.612051 13.4375 14.6875 C 12.625102 14.856219 11.996243 15 10.5 15 C 6.02 15 3 11.475619 3 8.40625 C 3 6.7260866 3.6104133 5.5554825 4.34375 4.59375 z M 45.65625 4.59375 C 46.389587 5.5554825 47 6.7260866 47 8.40625 C 47 11.475619 43.98 15 39.5 15 C 38.003757 15 37.374898 14.856219 36.5625 14.6875 C 36.015991 13.612918 35.410718 12.556596 34.75 11.5625 C 35.715376 11.827933 36.765384 12 38 12 C 39.931081 12 41.793356 11.7852 43.3125 11.0625 C 44.831644 10.3398 46 8.9048387 46 7 C 46 6.0874341 45.845591 5.3239026 45.65625 4.59375 z M 25 7 C 27.078819 7 28.95032 7.9853135 30.65625 9.65625 C 30.687437 9.6867977 30.718953 9.7190162 30.75 9.75 A 1.0001 1.0001 0 0 0 30.875 9.90625 C 30.890291 9.9219354 30.922244 9.9217109 30.9375 9.9375 A 1.0001 1.0001 0 0 0 30.96875 9.96875 C 32.546393 11.611267 33.931416 13.805705 35.0625 16.125 C 35.183324 16.372751 35.291524 16.624768 35.40625 16.875 A 1.0001 1.0001 0 0 0 35.65625 17.4375 C 36.512333 19.389837 37.188899 21.358119 37.6875 23.09375 A 1.0004882 1.0004882 0 0 0 37.8125 23.5 C 38.407119 25.644672 38.6875 27.439997 38.6875 28.09375 C 38.6875 29.384491 37.490568 31.411522 36.09375 33.875 C 35.184978 35.477742 34.244915 37.309655 33.6875 39.375 C 32.643448 38.027364 31.114572 36.91868 29.25 36.4375 A 1.0004882 1.0004882 0 1 0 28.75 38.375 C 31.389635 39.056196 33.1875 41.714946 33.1875 43.40625 C 33.1875 44.526142 32.483035 45.599879 31.03125 46.46875 C 30.703764 46.664745 30.330112 46.83764 29.9375 47 C 29.615234 45.447266 29.5625 43 28.3125 43 C 26.4125 43 28.99375 47.09375 25.09375 47.09375 C 21.19375 47.09375 23.9875 43 21.6875 43 C 20.557212 43 20.507367 45.516888 20 47 C 19.632409 46.847602 19.277665 46.68254 18.96875 46.5 C 17.520907 45.644457 16.8125 44.589583 16.8125 43.40625 C 16.8125 41.714946 18.598445 39.153879 21.28125 38.375 A 1.015625 1.015625 0 0 0 20.78125 36.40625 A 1.0001 1.0001 0 0 0 20.71875 36.4375 C 18.835103 36.984365 17.292821 38.1256 16.25 39.5 C 15.706269 37.372904 14.736537 35.519113 13.8125 33.90625 C 12.413675 31.464665 11.1875 29.478241 11.1875 28.1875 C 11.1875 27.541394 11.495361 25.764792 12.09375 23.625 A 1.0004882 1.0004882 0 0 0 12.3125 22.875 C 12.809279 21.215757 13.465591 19.369571 14.28125 17.53125 A 1.0001 1.0001 0 0 0 14.59375 16.84375 C 14.696349 16.623816 14.799369 16.405536 14.90625 16.1875 C 16.049134 13.856018 17.444346 11.651717 19.03125 10 A 1.0001 1.0001 0 0 0 19.15625 9.875 C 19.218422 9.8118121 19.281009 9.7489604 19.34375 9.6875 C 21.059685 8.006584 22.922917 7 25 7 z M 11.53125 18.96875 C 11.038477 20.256793 10.617679 21.497652 10.28125 22.65625 C 9.3123235 23.611798 7.7505686 24 6.6875 24 C 5.8875 24 5.2692572 23.769257 4.8125 23.3125 C 4.3557428 22.855743 4 22.123611 4 20.8125 C 4 19.793056 4.2168352 19.457782 4.4375 19.28125 C 4.6581648 19.104718 5.0827381 19 5.6875 19 C 7.5605769 19 8.800002 19.230151 10.09375 19.1875 C 10.568222 19.171858 11.046715 19.102218 11.53125 18.96875 z M 38.4375 18.96875 C 38.932029 19.107566 39.422412 19.171549 39.90625 19.1875 C 41.199998 19.230151 42.439423 19 44.3125 19 C 44.917262 19 45.341835 19.104718 45.5625 19.28125 C 45.783165 19.457782 46 19.793056 46 20.8125 C 46 22.123611 45.644257 22.855743 45.1875 23.3125 C 44.730743 23.769257 44.1125 24 43.3125 24 C 42.21463 24 40.58464 23.587899 39.625 22.5625 C 39.300896 21.435138 38.910481 20.220449 38.4375 18.96875 z M 15.1875 25 C 15.1875 25 14.3125 28.4 17.8125 29.5 C 20.0125 30.2 21.90625 28.6875 21.90625 28.6875 C 20.40625 25.4875 15.1875 25 15.1875 25 z M 34.8125 25 C 34.8125 25 29.59375 25.4875 28.09375 28.6875 C 28.09375 28.6875 29.9875 30.2 32.1875 29.5 C 35.6875 28.4 34.8125 25 34.8125 25 z" overflow="visible" enable-background="accumulate" font-family="Bitstream Vera Sans"/>
</svg>
