<?xml version="1.0"?>
<svg xmlns="http://www.w3.org/2000/svg" viewBox="0 0 50 50" enable-background="new 0 0 50 50">
    <path style="text-indent:0;text-align:start;line-height:normal;text-transform:none;block-progression:tb;-inkscape-font-specification:Bitstream Vera Sans" d="M 39.21875 0 A 1.0001 1.0001 0 0 0 39.09375 0.03125 C 39.09375 0.03125 37.197589 0.52409562 35.40625 2.03125 C 35.249147 1.8863123 34.945873 1.5945381 34.5 1.25 C 34.207598 1.0240529 33.879171 0.81726457 33.5625 0.625 C 33.245829 0.43273543 33.028472 0.1875 32.40625 0.1875 A 1.0001 1.0001 0 0 0 32.28125 0.21875 C 31.717415 0.2892294 31.371444 0.55726692 31.09375 0.8125 C 30.816056 1.0677331 30.596602 1.3413704 30.375 1.59375 C 29.956689 2.0701598 29.576439 2.3482919 29.5625 2.375 C 29.55613 2.3495957 29.115513 2.1685491 28.5 1.75 C 27.85626 1.3122565 26.966834 0.68818019 25.8125 0.9375 C 25.80227 0.939662 25.79134 0.9352 25.78125 0.9375 C 25.191492 1.0719322 24.811813 1.4457517 24.53125 1.78125 C 24.242607 2.12641 23.999158 2.4700734 23.78125 2.8125 C 23.370296 3.4582844 22.953741 3.8752412 22.96875 3.90625 C 22.952231 3.8951341 22.90491 3.885624 22.8125 3.84375 C 22.59581 3.745562 22.297812 3.5399218 21.96875 3.34375 C 21.639688 3.1475782 21.275005 2.9458352 20.875 2.78125 C 20.474995 2.6166648 19.974203 2.4565157 19.375 2.65625 C 18.738904 2.868282 18.441615 3.3518656 18.25 3.75 C 18.058385 4.1481344 17.95671 4.5359918 17.84375 4.90625 C 17.73079 5.2765082 17.627175 5.6359115 17.53125 5.84375 C 17.49251 5.9276848 17.47342 5.9551816 17.46875 5.96875 C 17.479104 5.9602427 17.461205 5.9575443 17.28125 5.90625 C 17.046261 5.839267 16.710701 5.6894185 16.34375 5.53125 C 15.976799 5.3730815 15.574885 5.2051702 15.125 5.09375 C 14.675115 4.9823298 14.128531 4.9357345 13.5625 5.21875 C 12.92274 5.53863 12.746546 6.1599869 12.6875 6.59375 C 12.62845 7.0275131 12.64376 7.4126912 12.65625 7.78125 C 12.66874 8.1498088 12.68019 8.5042522 12.65625 8.6875 C 12.472685 8.779611 12.033055 8.9035685 11.40625 9 C 10.73855 9.1027231 9.8812825 9.2126223 9.15625 9.84375 L 9.15625 9.875 C 8.7403455 10.245461 8.5613614 10.70805 8.5 11.09375 C 8.437412 11.48716 8.4375 11.8625 8.4375 12.1875 C 8.4375 12.8375 8.3266191 13.269578 8.34375 13.25 C 8.388076 13.19934 7.9508385 13.379552 7.25 13.46875 C 6.8995807 13.51335 6.5058498 13.55748 6.09375 13.6875 C 5.6937385 13.813707 5.2286794 14.04351 4.90625 14.5 C 4.89651 14.5138 4.884476 14.51704 4.875 14.53125 L 4.90625 14.5625 C 4.5597797 15.070399 4.5457272 15.642568 4.625 16.0625 C 4.707468 16.499358 4.8370419 16.867528 4.96875 17.21875 C 5.1004581 17.569972 5.2344323 17.904437 5.28125 18.125 C 5.304659 18.235281 5.313921 18.30987 5.3125 18.34375 C 5.342534 18.28368 5.293196 18.38521 5.0625 18.5 C 4.8318045 18.614785 4.454488 18.733627 4.0625 18.875 C 3.670512 19.016373 3.2647032 19.185355 2.84375 19.4375 C 2.4227968 19.689645 1.952774 20.079178 1.75 20.6875 A 1.0001 1.0001 0 0 0 1.75 20.71875 C 1.5773258 21.32311 1.777325 21.756539 1.9375 22.09375 C 2.0976752 22.430961 2.29375 22.725 2.46875 23 C 2.6378541 23.265735 2.7951722 23.493059 2.875 23.65625 C 2.87778 23.66195 2.87239 23.68202 2.875 23.6875 C 2.847666 23.6792 2.6508091 23.832884 2.125 24.125 C 1.836053 24.285526 1.5126832 24.470942 1.1875 24.75 C 0.86231678 25.029058 0.50776901 25.472895 0.40625 26.03125 A 1.0001 1.0001 0 0 0 0.40625 26.0625 C 0.3157248 26.696177 0.57758231 27.065342 0.78125 27.375 C 0.98491769 27.684658 1.22755 27.934325 1.4375 28.1875 C 1.64745 28.440675 1.8367703 28.682377 1.9375 28.84375 C 1.9461836 28.857661 1.9310909 28.86257 1.9375 28.875 C 1.928361 28.885442 1.9502886 28.893669 1.9375 28.90625 C 1.8266658 29.015282 1.6264507 29.188024 1.375 29.375 C 1.1235493 29.561976 0.83570776 29.756032 0.5625 30.0625 C 0.28929224 30.368968 0 30.839583 0 31.40625 C 0 31.962202 0.21446806 32.266836 0.40625 32.5625 C 0.59803194 32.858164 0.83125 33.125 1.03125 33.375 C 1.23125 33.625 1.3917819 33.864414 1.5 34.03125 C 1.5541091 34.114668 1.5838398 34.166986 1.59375 34.1875 C 1.608432 34.363682 1.531052 34.470099 1.1875 34.875 C 0.8439479 35.279901 0.22044788 35.987427 0.3125 37 C 0.3830642 37.635078 0.7900514 38.027229 1.125 38.28125 C 1.4599486 38.535271 1.7802389 38.715045 2.09375 38.875 C 2.4072611 39.034955 2.7136327 39.173329 2.875 39.28125 C 2.9556837 39.335211 2.997718 39.368991 3 39.375 A 1.0004882 1.0004882 0 0 0 4.875 38.75 C 4.7203768 38.131507 4.2980077 37.845204 3.96875 37.625 C 3.6394923 37.404796 3.3302389 37.246295 3.03125 37.09375 C 2.7476817 36.949072 2.4803634 36.81728 2.34375 36.71875 C 2.360065 36.63161 2.414932 36.545571 2.71875 36.1875 C 3.0669037 35.777176 3.6458499 35.080097 3.59375 34.09375 C 3.5931294 34.082 3.5945551 34.07433 3.59375 34.0625 C 3.5929449 34.05067 3.5947426 34.04316 3.59375 34.03125 L 3.5625 34.03125 C 3.5398426 33.532165 3.3684334 33.216439 3.1875 32.9375 C 2.9957181 32.641836 2.79375 32.375 2.59375 32.125 C 2.39375 31.875 2.2019681 31.635586 2.09375 31.46875 C 2.0617327 31.41939 2.0397013 31.419948 2.03125 31.40625 C 2.117417 31.30959 2.3264507 31.144274 2.5625 30.96875 C 2.7985493 30.793226 3.0702092 30.581593 3.34375 30.3125 C 3.6172908 30.043407 3.9377406 29.685335 4 29.125 C 4.0749319 28.525545 3.8305203 28.110502 3.625 27.78125 C 3.4194797 27.451998 3.1838 27.196825 2.96875 26.9375 C 2.7537 26.678175 2.5713323 26.437217 2.46875 26.28125 C 2.5841918 26.18218 2.820197 26.026974 3.09375 25.875 C 3.640856 25.571052 4.5232745 25.255752 4.84375 24.1875 A 1.0001 1.0001 0 0 0 4.875 24.1875 C 5.0476742 23.58314 4.8476752 23.149711 4.6875 22.8125 C 4.5273248 22.475289 4.33125 22.18125 4.15625 21.90625 C 3.98125 21.63125 3.8273248 21.381539 3.75 21.21875 C 3.780121 21.19034 3.75439 21.20975 3.84375 21.15625 C 4.0384218 21.039645 4.379488 20.914877 4.75 20.78125 C 5.120512 20.647623 5.5275705 20.485215 5.9375 20.28125 C 6.3474295 20.077285 6.813716 19.810068 7.09375 19.25 C 7.3708026 18.695895 7.3125573 18.160687 7.21875 17.71875 C 7.1249427 17.276813 6.9745419 16.880028 6.84375 16.53125 C 6.7129581 16.182472 6.595657 15.863142 6.5625 15.6875 C 6.5583554 15.665545 6.5641396 15.671371 6.5625 15.65625 C 6.5553332 15.664429 6.5449276 15.638771 6.6875 15.59375 C 6.8597752 15.5394 7.1629193 15.51165 7.5 15.46875 C 8.1741615 15.38295 9.0994242 15.41316 9.84375 14.5625 C 10.560881 13.742922 10.4375 12.8375 10.4375 12.1875 C 10.4375 11.8625 10.4438 11.56284 10.46875 11.40625 C 10.475344 11.3648 10.494995 11.36266 10.5 11.34375 C 10.679119 11.198312 11.080121 11.062193 11.6875 10.96875 C 12.312743 10.87256 13.087954 10.847614 13.84375 10.34375 C 14.432813 9.9755857 14.567692 9.3761272 14.625 8.9375 C 14.68231 8.4988728 14.66876 8.0876912 14.65625 7.71875 C 14.64606 7.4181313 14.64524 7.2114363 14.65625 7.03125 C 14.875115 7.085455 15.204451 7.2206685 15.5625 7.375 C 15.920549 7.5293315 16.316239 7.7201078 16.75 7.84375 C 17.183761 7.9673922 17.703082 8.0750174 18.28125 7.84375 A 1.0001 1.0001 0 0 0 18.3125 7.8125 C 18.904909 7.5492072 19.158425 7.0890365 19.34375 6.6875 C 19.529075 6.2859635 19.63796 5.8672418 19.75 5.5 C 19.86204 5.1327582 19.972865 4.8112406 20.0625 4.625 C 20.086523 4.6315159 20.092568 4.6116557 20.125 4.625 C 20.324995 4.70729 20.616562 4.8711718 20.9375 5.0625 C 21.258438 5.2538282 21.61669 5.4825627 22 5.65625 C 22.38331 5.8299373 22.806088 6.0083694 23.40625 5.875 A 1.0001 1.0001 0 0 0 23.46875 5.875 C 24.647083 5.5536364 25.029566 4.5963968 25.46875 3.90625 C 25.688342 3.5611766 25.904268 3.251715 26.0625 3.0625 C 26.141616 2.9678925 26.192171 2.9012446 26.21875 2.875 C 26.346885 2.84543 26.775333 2.9984761 27.375 3.40625 C 27.974667 3.8140239 28.627184 4.5111651 29.78125 4.40625 A 1.0001 1.0001 0 0 0 29.90625 4.375 C 30.946827 4.1668847 31.418203 3.4577407 31.875 2.9375 C 32.103398 2.6773796 32.321444 2.4166419 32.46875 2.28125 C 32.52423 2.298711 32.45313 2.265068 32.53125 2.3125 C 32.739579 2.4389854 32.992402 2.6446971 33.25 2.84375 C 33.655988 3.1574681 33.862353 3.3768084 34 3.5 C 33.633134 3.9891025 33.300831 4.5339834 33.03125 5.15625 C 26.883768 5.4473628 20.74999 7.2662678 16.0625 10.9375 C 11.239005 14.715251 8 20.464838 8 28.09375 C 8 30.090241 8.2797004 32.620855 8.78125 35 C 9.2827996 37.379145 9.9624844 39.582698 10.96875 41.0625 A 1.001098 1.001098 0 0 0 12.625 39.9375 C 11.931266 38.917302 11.22345 36.839605 10.75 34.59375 C 10.27655 32.347895 10 29.897259 10 28.09375 C 10 21.022662 12.910995 15.978499 17.3125 12.53125 C 21.714005 9.0840011 27.650873 7.2880306 33.625 7.09375 A 1.0001 1.0001 0 0 0 34.5625 6.40625 C 35.27403 4.1621932 36.803087 3.1870418 38.03125 2.625 L 37.40625 6.84375 A 1.0001 1.0001 0 0 0 37.6875 7.71875 C 37.6875 7.71875 38.757231 8.7836772 39.71875 9.9375 A 1.0001 1.0001 0 0 0 40.0625 10.375 C 41.328154 11.869073 44.099025 15.207473 45.71875 22.40625 A 1.0001 1.0001 0 0 0 46.03125 22.9375 C 47.793915 24.561007 47.998425 25.552231 47.90625 26.28125 C 47.81408 27.010269 47.291217 27.639163 46.84375 28.40625 C 46.438463 29.095237 45.999363 29.371559 45.78125 29.4375 C 45.563137 29.50344 45.664078 29.48128 45.65625 29.46875 A 1.0001 1.0001 0 0 0 44.25 29.15625 C 43.799919 29.450534 43.676624 29.416166 43.5 29.34375 C 43.323376 29.27133 43.049818 29.027059 42.8125 28.65625 C 42.337864 27.914632 42.0625 26.875 42.0625 26.875 A 1.0001 1.0001 0 0 0 41.125 26.09375 C 41.125 26.09375 35.995896 25.940536 34.125 21.21875 A 1.0001 1.0001 0 0 0 32.78125 20.6875 C 32.170975 20.964898 31.120027 21.515173 30.21875 22.59375 C 29.317473 23.672327 28.59375 25.291667 28.59375 27.5 C 28.59375 31.720833 30.065613 34.337274 31.40625 36.5 C 32.746887 38.662726 33.90625 40.317923 33.90625 43.1875 C 33.90625 45.9875 33.0625 48.6875 33.0625 48.6875 A 1.0001 1.0001 0 1 0 34.9375 49.3125 C 34.9375 49.3125 35.90625 46.3875 35.90625 43.1875 C 35.90625 39.757077 34.403113 37.581024 33.09375 35.46875 C 31.784387 33.356476 30.59375 31.279167 30.59375 27.5 C 30.59375 25.708333 31.126277 24.621423 31.75 23.875 C 32.122251 23.429519 32.496259 23.296931 32.875 23.0625 C 35.256507 27.312383 39.413479 27.854516 40.375 27.9375 C 40.487735 28.345171 40.580977 28.868713 41.125 29.71875 C 41.487682 30.285441 41.989124 30.875541 42.75 31.1875 C 43.324543 31.423063 44.010407 31.349213 44.6875 31.09375 C 45.201497 31.373573 45.787148 31.512025 46.34375 31.34375 C 47.200637 31.084691 47.967787 30.417263 48.5625 29.40625 C 48.815033 28.973337 49.692175 27.977231 49.875 26.53125 C 50.046426 25.175422 49.374864 23.556672 47.625 21.8125 C 45.913262 14.369131 42.834572 10.537928 41.625 9.09375 C 41.696878 8.2000352 42.03972 5.5403069 43.75 3.6875 A 1.0001 1.0001 0 0 0 43.21875 2.03125 C 42.532659 1.8678951 41.918514 1.8819244 41.34375 2 C 40.884337 2.0943787 40.460813 2.2543639 40.09375 2.4375 L 40.28125 1.15625 A 1.0001 1.0001 0 0 0 39.21875 0 z M 40.9375 4.3125 C 40.426357 5.2991929 40.13376 6.305195 39.9375 7.15625 C 39.744609 6.9586137 39.534438 6.7545818 39.4375 6.65625 L 39.65625 5.21875 A 1.0059637 1.0059637 0 0 0 39.9375 5 C 39.9375 5 40.351061 4.6207265 40.9375 4.3125 z M 39.5 15 C 38.671573 15 38 15.671573 38 16.5 C 38 17.328427 38.671573 18 39.5 18 C 40.328427 18 41 17.328427 41 16.5 C 41 15.671573 40.328427 15 39.5 15 z" overflow="visible" enable-background="accumulate" font-family="Bitstream Vera Sans"/>
</svg>
