<?xml version="1.0"?>
<svg xmlns="http://www.w3.org/2000/svg" viewBox="0 0 50 50" enable-background="new 0 0 50 50">
    <path style="text-indent:0;text-align:start;line-height:normal;text-transform:none;block-progression:tb;-inkscape-font-specification:Bitstream Vera Sans" d="M 6 0 C 4.9148148 0 3.930859 0.42056176 3.46875 1.21875 C 3.006641 2.0169382 3 2.875463 3 3.8125 C 3 6.4508721 4.6635402 10.703503 7.71875 14.375 C 10.559885 17.78924 14.787387 20.601784 20 20.15625 C 20.015855 20.45939 20.041583 20.760848 20.09375 21.0625 C 19.67014 21.02418 19.239104 21.027525 18.8125 21.0625 C 17.755703 21.14914 16.694761 21.50153 15.71875 22.21875 C 14.01073 23.473886 12.647407 25.70016 11.75 29.34375 A 1.0001 1.0001 0 0 0 11.59375 30.09375 C 11.528225 30.392926 11.466119 30.683048 11.40625 31 C 11.029319 32.821832 10.910427 34.968741 11.09375 37.125 A 1.0001 1.0001 0 0 0 11.125 37.5 C 11.12605 37.510369 11.123936 37.520881 11.125 37.53125 A 1.0001 1.0001 0 0 0 11.125 37.625 C 11.268356 38.969159 11.547822 40.30579 11.9375 41.5625 C 12.468928 43.276354 13.251386 44.846414 14.375 46.03125 C 14.871516 46.554819 15.450898 47.009803 16.09375 47.34375 C 17.23777 49.032855 19 50 19 50 L 19 48 C 23.517945 47.892929 29.061578 43.830263 31.0625 37.40625 C 31.461033 36.157513 31.689205 35.034789 31.8125 34 A 1.0077822 1.0077822 0 0 0 31.90625 32.96875 C 31.970545 31.409537 31.724274 30.103779 31.28125 29 C 33.432332 29.061321 35.399708 28.523802 36.59375 27.03125 A 1.0001 1.0001 0 0 0 36.59375 27 C 37.998958 25.193303 38.326352 22.524901 37.4375 19.8125 C 38.572283 19.97453 39.739932 20.008278 40.875 19.90625 C 43.269469 19.691017 45.609597 18.960508 46.59375 17.0625 C 47.46621 15.31758 47.053885 13.144174 45.96875 11.125 C 44.898744 9.1339775 43.093517 7.2208853 40.75 5.96875 C 41.090214 5.9215127 41.443654 5.8818897 41.78125 5.875 C 42.913569 5.8518915 43.84375 6 43.84375 6 A 1.0121334 1.0121334 0 1 0 44.15625 4 C 44.15625 4 43.067681 3.8481085 41.75 3.875 C 40.432319 3.9018915 38.831755 4.0371075 37.59375 5 A 1.0031688 1.0031688 0 0 0 37.5625 5.03125 C 36.889843 4.9828386 36.226257 5.0148178 35.59375 5.15625 L 35.125 3.40625 C 35.784287 2.8665673 36.796569 2.4160181 37.8125 2.21875 C 38.997753 1.9886039 40 2 40 2 A 1.0001 1.0001 0 1 0 40 0 C 40 0 38.827247 0.01139612 37.4375 0.28125 C 36.047753 0.55110388 34.369462 1.0267361 33.25 2.34375 A 1.0001 1.0001 0 0 0 33.03125 3.25 L 33.71875 5.875 C 32.590865 6.5425733 31.65656 7.5716654 31 8.84375 C 30.503889 9.8049641 30.211669 10.837551 30.125 11.875 C 28.578551 7.9839106 26.148814 5.080204 23.5625 3.125 C 20.803765 1.0394491 17.910417 0 15.59375 0 C 14.213194 0 13.275371 0.39959806 12.75 0.96875 C 12.694978 1.0283571 12.66983 1.0932619 12.625 1.15625 C 10.131284 0.36118635 7.7939093 0 6 0 z M 6 2 C 8.375641 2 12.423213 2.8427604 16.09375 4.75 C 19.506595 6.5233409 22.574312 9.1710472 24.03125 12.84375 C 23.099762 13.325482 22.271503 13.993921 21.59375 14.875 A 1.0001 1.0001 0 0 0 21.59375 14.90625 C 20.877538 15.861199 20.402258 16.959301 20.15625 18.09375 C 15.537045 18.647343 11.89435 16.271509 9.25 13.09375 C 6.4802098 9.7652468 5 5.4741279 5 3.8125 C 5 2.949537 5.099609 2.3705618 5.1875 2.21875 C 5.275391 2.0669382 5.2851852 2 6 2 z M 15.59375 2 C 17.277083 2 19.908735 2.8543009 22.375 4.71875 C 24.553062 6.3653229 26.623253 8.797308 28.03125 12.03125 C 27.304182 11.985212 26.594279 12.010396 25.90625 12.15625 C 24.227915 7.8841315 20.711727 4.8973927 17 2.96875 C 16.3267 2.6188978 15.646764 2.3155883 14.96875 2.03125 C 15.136683 2.0053397 15.338889 2 15.59375 2 z M 37.09375 7 C 37.261304 7.0002159 37.422688 7.0127524 37.59375 7.03125 C 37.916804 7.066183 38.255351 7.1522559 38.59375 7.25 C 38.352483 7.3925944 38.110742 7.5647238 37.90625 7.78125 C 37.89965 7.7879 37.91285 7.805811 37.90625 7.8125 C 37.066717 8.6663956 36.763265 9.8571661 36.90625 10.9375 C 37.050355 12.026296 37.570006 13.071832 38.40625 13.84375 C 39.25971 14.631559 40.406759 15.068818 41.53125 15.21875 C 42.655741 15.368682 43.865197 15.2598 44.71875 14.40625 L 44.71875 14.375 L 44.75 14.375 C 44.827386 14.289876 44.902743 14.216575 44.96875 14.125 C 45.111753 14.934168 45.043571 15.644755 44.8125 16.125 C 44.396653 16.926992 42.774281 17.721483 40.71875 17.90625 C 38.663219 18.091017 36.294713 17.725482 34.84375 17 C 31.927793 15.542021 31.388525 12.448405 32.78125 9.75 C 33.474849 8.4061522 34.474538 7.5854882 35.65625 7.21875 C 36.099392 7.0812232 36.591088 6.9993524 37.09375 7 z M 40.21875 8.78125 C 40.337997 8.7727372 40.454177 8.7638034 40.59375 8.78125 C 41.152041 8.851036 41.809617 9.1608005 42.3125 9.625 C 43.024877 10.295472 43.413766 11.063934 43.53125 11.6875 C 43.646116 12.297174 43.49253 12.719853 43.25 13 C 43.088487 13.14524 42.516449 13.316776 41.78125 13.21875 C 41.030741 13.118682 40.22779 12.787191 39.78125 12.375 C 39.317494 11.946918 38.987145 11.267454 38.90625 10.65625 C 38.82536 10.045046 38.96784 9.5634059 39.3125 9.21875 L 39.3125 9.1875 L 39.34375 9.1875 C 39.575207 8.9350017 39.861008 8.8067884 40.21875 8.78125 z M 27.4375 13.9375 C 28.384711 13.932091 29.40718 14.192751 30.4375 14.6875 C 30.959643 16.372333 32.100824 17.862912 33.9375 18.78125 C 34.284761 18.95488 34.647818 19.114865 35.03125 19.25 C 36.315459 21.869677 36.048884 24.432684 35 25.78125 C 34.177226 26.78469 32.161259 27.254338 29.75 26.84375 A 1.0006 1.0006 0 0 0 29.6875 26.8125 C 29.656127 26.806963 29.625253 26.818334 29.59375 26.8125 C 28.826684 26.74858 25.925057 25.696552 25.21875 25.21875 C 25.20995 25.21175 25.19644 25.19478 25.1875 25.1875 C 24.341157 24.498641 22.845118 22.75926 22.5 22 A 1.0006 1.0006 0 0 0 22.28125 21.65625 C 22.002617 20.88191 21.900789 20.07584 21.96875 19.28125 A 1.0174263 1.0174263 0 0 0 22 18.90625 C 22.148023 17.918803 22.557047 16.973592 23.1875 16.125 C 23.770713 15.366823 24.485773 14.804897 25.28125 14.4375 A 1.0001 1.0001 0 0 0 26 14.15625 C 26.464833 14.020939 26.931617 13.940389 27.4375 13.9375 z M 19.03125 23.03125 C 19.633037 22.986792 20.265586 23.108629 20.90625 23.28125 A 1.0001 1.0001 0 0 0 21.09375 23.40625 C 21.827885 24.670593 22.968426 25.980991 23.96875 26.78125 A 1.0006 1.0006 0 0 0 24.03125 26.8125 C 25.224294 27.647631 27.251625 28.400602 28.84375 28.65625 C 29.469841 29.57576 29.901456 30.680521 29.9375 32.21875 C 21.212605 30.683092 17.673195 26.074238 16.6875 24 C 16.760541 23.939013 16.833185 23.866192 16.90625 23.8125 C 17.580239 23.31722 18.300547 23.085233 19.03125 23.03125 z M 15.3125 25.6875 C 17.022912 28.542259 21.281389 32.76728 29.78125 34.21875 C 29.652766 34.984859 29.46239 35.822013 29.15625 36.78125 A 1.0006 1.0006 0 0 0 29.15625 36.8125 C 29.011363 37.277665 28.845523 37.721093 28.65625 38.15625 C 26.972062 37.995091 23.906165 37.184551 20.96875 35.75 C 18.017671 34.308775 15.18931 32.262223 13.71875 29.84375 C 14.167788 28.027717 14.712655 26.690468 15.3125 25.6875 z M 13.1875 32.5 C 15.009874 34.647535 17.544985 36.317754 20.09375 37.5625 C 22.858447 38.912701 25.600065 39.719555 27.65625 40.03125 C 27.102434 40.907638 26.46359 41.675398 25.78125 42.375 C 22.235596 42.188321 19.328804 41.316461 17.15625 40.21875 C 15.060368 39.159779 13.698595 37.868685 13.125 37 C 12.993757 35.434582 13.006432 33.878475 13.1875 32.5 z M 13.6875 40.4375 C 14.418527 40.989246 15.269894 41.504788 16.25 42 C 18.226957 42.998884 20.705105 43.8392 23.625 44.21875 C 21.936895 45.368134 20.185078 46 18.8125 46 C 17.590417 46 16.638886 45.527664 15.8125 44.65625 C 14.986114 43.784836 14.312322 42.479896 13.84375 40.96875 C 13.789604 40.79413 13.736032 40.617192 13.6875 40.4375 z"/>
</svg>
