<svg xmlns="http://www.w3.org/2000/svg" viewBox="0 0 200 100">
    <defs>
        <style>
            .cls-1 {
                isolation: isolate;
            }
            .cls-2 {
                fill: #2bbba0;
            }
            .cls-28,
            .cls-29,
            .cls-3,
            .cls-4 {
                fill: none;
                stroke-miterlimit: 10;
            }
            .cls-3 {
                stroke: #2bbba0;
            }
            .cls-3,
            .cls-4 {
                stroke-width: 0.5px;
            }
            .cls-4 {
                stroke: #58595c;
            }
            .cls-26,
            .cls-5 {
                fill: #58595c;
            }
            .cls-6 {
                font-size: 3px;
                font-family: "Work Sans", sans-serif;
                font-weight: 500;
            }
            .cls-7 {
                letter-spacing: -0.02em;
            }
            .cls-8 {
                letter-spacing: 0em;
            }
            .cls-9 {
                letter-spacing: 0em;
            }
            .cls-10 {
                letter-spacing: -0.02em;
            }
            .cls-11 {
                letter-spacing: 0em;
            }
            .cls-12 {
                letter-spacing: -0.02em;
            }
            .cls-13 {
                letter-spacing: -0.01em;
            }
            .cls-14 {
                letter-spacing: 0em;
            }
            .cls-15 {
                letter-spacing: -0.01em;
            }
            .cls-16 {
                letter-spacing: -0.08em;
            }
            .cls-17 {
                letter-spacing: -0.05em;
            }
            .cls-18 {
                letter-spacing: -0.15em;
            }
            .cls-19 {
                letter-spacing: -0.07em;
            }
            .cls-20 {
                letter-spacing: -0.01em;
            }
            .cls-21 {
                font-size: 3px;
                font-family: "Work Sans", sans-serif;
                font-style: italic;
            }
            .cls-21,
            .cls-26 {
                font-weight: 300;
            }
            .cls-22 {
                letter-spacing: 0em;
            }
            .cls-23 {
                letter-spacing: 0em;
            }
            .cls-24 {
                letter-spacing: 0em;
            }
            .cls-25 {
                letter-spacing: -0.07em;
            }
            .cls-26 {
                font-size: 8px;
                font-family: "Work Sans", sans-serif;
            }
            .cls-27,
            .cls-29 {
                mix-blend-mode: multiply;
            }
            .cls-28,
            .cls-29 {
                stroke: #ccc;
                stroke-width: 0.25px;
            }
        </style>
    </defs>
    <title>1</title>
    <g class="cls-1">
        <g id="Figura_1" data-name="Figura 1">
            <g id="Agua">
                <path
                    class="cls-2"
                    d="M122.23,58.41a.29.29,0,0,1,.2-.44,4.12,4.12,0,0,1,1.51.09,3.47,3.47,0,0,0,1.68,0,.28.28,0,0,1,.22,0l1.9,1.14.13,0,1.79.12a.35.35,0,0,1,.13,0l1,.61a.33.33,0,0,0,.14,0l3,.13a.31.31,0,0,1,.18.07l1,.9,1.6,1.46a.24.24,0,0,0,.13.07l1.07.24a.27.27,0,0,1,.16.1l.42.53a.29.29,0,0,0,.18.1l.62.1a.3.3,0,0,1,.16.08l.47.48,0,0a15.38,15.38,0,0,0,2.2,2.33,19.81,19.81,0,0,1,2.29,2,.22.22,0,0,0,.13.08,17.14,17.14,0,0,1,2.57.77.77.77,0,0,1,.16.42.28.28,0,0,1-.21.31l-.62.17a.27.27,0,0,0-.21.3V71a.29.29,0,0,0,.29.27h.56a.28.28,0,0,1,.18.06l1.06.83a.32.32,0,0,0,.18.06h1.54a.29.29,0,0,1,.19.08l.94.84a.23.23,0,0,1,.07.1l.37.91a.36.36,0,0,1,0,.1v1.52a.28.28,0,0,1-.16.25l-.27.14a.29.29,0,0,1-.33,0l-.75-.73-.08,0-1.65-.75,0,0-.67-.44a.29.29,0,0,0-.2,0l-1.39.23H146l-1.22-.38a.19.19,0,0,1-.1,0L143.54,73a.29.29,0,0,1-.1-.25l0-.53a.25.25,0,0,0-.12-.25L142,71l-1.07-.73a.3.3,0,0,1-.12-.29v-.07a.28.28,0,0,0-.29-.34h-.23a.29.29,0,0,1-.25-.14l-.14-.23a.3.3,0,0,0-.27-.14l-.34,0a.29.29,0,0,1-.29-.18l-.1-.25a.28.28,0,0,0-.28-.18h-.26a.25.25,0,0,1-.17,0l-3.4-2.19a.29.29,0,0,1-.13-.24l0-.82a.28.28,0,0,0-.13-.24l-.63-.38-.6-.41s-.05,0-.06-.06l-.34-.43a.31.31,0,0,0-.26-.1l-1.1.14a.32.32,0,0,0-.21.13l-.17.28a.28.28,0,0,1-.41.08h0a.28.28,0,0,0-.43.09l-.13.24a.48.48,0,0,1-.09.11l-.56.37a.28.28,0,0,1-.18,0L128.2,65h0l-1.3.06a.32.32,0,0,1-.14,0l-.86-.45-.06,0-.93-.24h-.12l-.63.12a.28.28,0,0,1-.34-.29v-.5a.28.28,0,0,1,0-.13l.35-.63a.24.24,0,0,1,.14-.12l.78-.34a.28.28,0,0,1,.18,0l.88.19a.28.28,0,0,0,.32-.15l.22-.47a.29.29,0,0,0-.1-.37l-2.91-1.85,0,0-1.28-1.07a.13.13,0,0,1-.06-.07Z"
                />
                <path
                    class="cls-2"
                    d="M157,65.13l.08-.36a.17.17,0,0,0-.13-.2l-.4-.1a.17.17,0,0,1-.13-.16v-.38a.18.18,0,0,0-.12-.17l-.91-.28-.08,0-.93-1.19a.14.14,0,0,1,0-.1v-.75a.19.19,0,0,0,0-.1l-.38-.52a.17.17,0,0,0-.22-.05l-.73.43a.18.18,0,0,1-.16,0l-.49-.22a.17.17,0,0,1-.09-.16V60l.26-.85a.14.14,0,0,0,0-.09l-.25-.93a.22.22,0,0,0,0-.08L151,56.87a.05.05,0,0,0,0,0l-1.18-.62,0,0-1.05-.89a.24.24,0,0,1-.06-.09l-.23-1a.09.09,0,0,0,0-.06l-1.2-1.49a.16.16,0,0,0-.13-.06h-.7a.14.14,0,0,1-.09,0l-.68-.44-.64-.43-.05,0-.33-.1a.17.17,0,0,1-.09-.26l.09-.12a.17.17,0,0,1,.14-.07h.27a.17.17,0,0,0,.17-.19l0-.27a0,0,0,0,0,0,0l-.16-.49a.17.17,0,0,0-.28-.07l-.26.26a.16.16,0,0,1-.16,0l-.51-.15-.06,0-1-.87,0,0-1-.41a.17.17,0,0,0-.12,0l-1.19.38a.14.14,0,0,0-.08.05l-.52.57a.15.15,0,0,1-.14,0l-1-.1-.86-.09-.79-.1a.11.11,0,0,1-.08,0l-.26-.19a.27.27,0,0,0-.12,0l-.85.1-.06,0-.89.47a.14.14,0,0,1-.15,0l-.85-.44a.14.14,0,0,0-.09,0l-.58,0a.18.18,0,0,1-.17-.11l-.17-.42s0,0,0,0l-.2-1.11a.17.17,0,0,1,.06-.16l.43-.36,0,0,.33-.47a.1.1,0,0,1,.06,0l.47-.25,0,0,.75-.23a.17.17,0,0,1,.19.08l.12.2a.17.17,0,0,1,0,.19l-.12.15a.17.17,0,0,0,.13.27h.16a.17.17,0,0,0,.15-.07l.32-.46a.2.2,0,0,1,.11-.06l.5-.11a.21.21,0,0,0,.11-.08l.15-.25a.19.19,0,0,0,0-.1l0-.84v0l.14-.69a.15.15,0,0,1,.12-.12l.4-.13a.17.17,0,0,1,.18,0l.19.22a.17.17,0,0,0,.18.05l.62-.18a.17.17,0,0,1,.1,0l.52.16a.16.16,0,0,1,.1.08l.32.59a.14.14,0,0,0,.11.09l.67.12h0l.16.09a.16.16,0,0,1,.09.11l.08.34a.17.17,0,0,0,.18.13l.55-.07h.05l.27-.12a.18.18,0,0,0,.09-.22l-.15-.39a.17.17,0,0,0-.14-.1l-.19,0A.17.17,0,0,1,141,45l.07-.37a.16.16,0,0,0-.11-.19l-.52-.19-.06,0L140,44l0-.05-.43-.8a.18.18,0,0,0-.15-.08h-1.5l-1.7-.47a.18.18,0,0,1-.11-.1l-.34-.85a.13.13,0,0,0-.06-.07l-.85-.62a.08.08,0,0,1,0,0l-.36-.45a.17.17,0,0,1,0-.22l.2-.23a.13.13,0,0,1,.11,0l1.25-.14h1.05a.18.18,0,0,1,.12,0l.65.63,0,0,.71.37h0l.5.16a.16.16,0,0,1,.11.13l0,.28a.16.16,0,0,0,.17.14l.79,0a.13.13,0,0,0,.1,0l.62-.47s0,0,0,0l.27-.41,0-.08,0-.65a.2.2,0,0,1,.09-.13l1.17-.66a.2.2,0,0,0,.09-.13l.13-1v0l.1-.44a.17.17,0,0,1,.17-.13h1a.16.16,0,0,0,.13-.06l.57-.71v0l.2-.33a.16.16,0,0,1,.22-.07l.29.14a.18.18,0,0,1,.1.15v.83h0l-.09,1v0l-.15.59a.15.15,0,0,1-.06.09l-.63.51,0,0-.34.36-.08.05-.61.15a.18.18,0,0,0-.12.22l.11.33s0,0,0,.05l.21.28a.19.19,0,0,0,.21.05l.71-.34,0,0,.48-.42,0,0,.41-.57a.14.14,0,0,1,.18-.06l.21.06a.15.15,0,0,1,.07,0l.29.26a.17.17,0,0,1,0,.19l-.14.39v0l-.12.47v0l-.08.54a.09.09,0,0,1,0,0l-.72,1.53a.22.22,0,0,0,0,.16l.39.71.43.82a.2.2,0,0,1,0,.15l-.23.52a.14.14,0,0,0,0,.09l.12.72a.08.08,0,0,0,0,0l.41,1a.43.43,0,0,1,0,0l.08.78a.24.24,0,0,0,0,.08l.44.63v0l.2.45a.07.07,0,0,1,0,0l0,.23a.16.16,0,0,0,0,.11l.39.37h0l1.31,1,0,0,.75,1.11,0,.06.14.73a.14.14,0,0,0,0,.06l.36.55a.19.19,0,0,0,.11.07l.65.12h0l1.14,0a.18.18,0,0,1,.1,0l1.08.91,0,0,.35.57a.14.14,0,0,1,0,.15l-.06.14A.17.17,0,0,0,154,56l.33.1s0,0,0,0l.57.27h0l.86.2a.15.15,0,0,1,.12.11l.41,1.25v0l.18.86a.17.17,0,0,1-.09.19l-.65.29,0,0-.45.31a.17.17,0,0,0-.05.23l.34.55a.24.24,0,0,1,0,.08l.1,1.07s0,0,0,.06l.27.49a.17.17,0,0,0,.16.09l1.3-.08h0l.86-.21h0l.23-.09a.18.18,0,0,1,.22.09l.3.67a.08.08,0,0,0,0,0l.29.36a.17.17,0,0,0,.25,0l.31-.29a.12.12,0,0,1,.09,0l.13,0a.17.17,0,0,1,.19.17v.13a.16.16,0,0,1-.06.13l-.4.34a.17.17,0,0,0-.06.18l.1.32a.14.14,0,0,0,0,.06l.33.47a.15.15,0,0,1,0,.19l-.55.8a.15.15,0,0,1-.14.07h-1.16l-.69.14a.2.2,0,0,1-.11,0l-.52-.24-.09,0A.17.17,0,0,1,157,65.13Z"
                />
                <path
                    class="cls-2"
                    d="M168.33,61.23a6.3,6.3,0,0,1,.51-.67.18.18,0,0,0,0-.17l-.25-.64a0,0,0,0,1,0,0l-.06-.34a.15.15,0,0,1,0-.14l.56-.61h0l1-1,0,0,.75-.93h0l.86-1.22a.15.15,0,0,0,0-.13l-.09-.5a.15.15,0,0,1,.07-.17l.33-.24a.18.18,0,0,1,.16,0l.24.09a.19.19,0,0,1,.11.16v1a.17.17,0,0,0,0,.12l.51.48a.15.15,0,0,1,0,.13v.86a.19.19,0,0,1,0,.1l-.74,1,0,0-.7.66a.1.1,0,0,0,0,.07l-.19.68a.1.1,0,0,1,0,.07l-.36.35a.15.15,0,0,1-.18,0l-.55-.22a.17.17,0,0,0-.22.1l-.09.25a.06.06,0,0,0,0,0l-.06.65a.14.14,0,0,1-.09.13l-.75.37a.22.22,0,0,1-.11,0l-.53-.1h-.12a.17.17,0,0,1-.11-.29h0Z"
                />
                <path
                    class="cls-2"
                    d="M180.87,68.91l.38-.32a.15.15,0,0,1,.11,0h.89a.19.19,0,0,1,.15.08l.53.89h0l.24.46a.17.17,0,0,0,.28,0l.74-.83,0,0,.61-.44a.2.2,0,0,1,.13,0l.88.17A.16.16,0,0,1,186,69l.27.85a.08.08,0,0,0,0,.05l.91,1.25,0,0,1.12.64h0l1.17.81a.16.16,0,0,1,.07.09l.21.78.28,1,.16.7a.18.18,0,0,0,.11.13l1.79.59h.08l.71-.12a.13.13,0,0,0,.08,0l.37-.32a.18.18,0,0,1,.21,0l1.15.79,0,0,.88,1.15,0,.07L196,79a.2.2,0,0,0,0,.08l.66.68a.21.21,0,0,1,.05.12v.58a.19.19,0,0,0,0,.08l.58,1a.17.17,0,0,1,0,0l.22,1,.2.84a.06.06,0,0,1,0,.06l-.19,1.09a.22.22,0,0,0,0,.11l.4.74a.14.14,0,0,1,0,.11l-.13.65a.13.13,0,0,1-.05.09l-.21.2a.17.17,0,0,0,.05.28l.41.18a.18.18,0,0,1,.1.16v.13a.18.18,0,0,1-.17.17h0a.16.16,0,0,0-.14.26l.06.1a.08.08,0,0,1,0,0l.21.66a.24.24,0,0,1,0,.12l-.11.25a.14.14,0,0,1-.1.1l-.3.11h-.12l-.89-.35a.16.16,0,0,1-.08-.06l-.63-.9h0l-.32-.53a.14.14,0,0,1,0-.11l.12-1.1v0l-.18-1.43a.19.19,0,0,0,0-.07l-.28-.45a.17.17,0,0,1,0-.12l.42-2.6v0L195.52,80l0-.08-.76-1.06,0,0-.59-.55a.17.17,0,0,1-.05-.15l.18-.88a.21.21,0,0,0,0-.11l-.37-.78a.17.17,0,0,0-.23-.08l-.38.2a.11.11,0,0,0-.07.08l-.11.24a.16.16,0,0,1-.17.1l-.66-.06h-.06l-.79.22s0,0-.06,0L190.6,77a.19.19,0,0,1-.12-.07l-.35-.44,0,0-.3-.5s0-.06-.08-.08l-.63-.26a.11.11,0,0,1-.08-.07l-.42-.72a.08.08,0,0,1,0,0l-.16-.91a.2.2,0,0,1,0-.15l.33-.34a.16.16,0,0,0,0-.26l-.28-.16-.09,0-.56,0a.13.13,0,0,1-.1,0l-1.11-.78a.12.12,0,0,1-.06-.08l-.32-.81a.18.18,0,0,0-.08-.09l-.28-.14a.14.14,0,0,1-.09-.11l-.16-.75a.16.16,0,0,0-.17-.14L185,70a.16.16,0,0,0-.13.06l-.38.48a.2.2,0,0,0,0,.11v.81a.19.19,0,0,1-.09.15l-.77.43,0,0-.36.32a.17.17,0,0,1-.13,0l-.75-.1a.16.16,0,0,1-.13-.11l-1-2.47,0,0-.29-.4a.14.14,0,0,1,0-.09V69A.16.16,0,0,1,180.87,68.91Z"
                />
                <path
                    class="cls-2"
                    d="M150,30h0a.29.29,0,0,0,.28.05l.5-.15a.3.3,0,0,1,.33.09l.08.08a.31.31,0,0,0,.38.07l.84-.45a.28.28,0,0,1,.22,0l.67.13a.29.29,0,0,0,.31-.12l.26-.33s0-.05,0-.08l.26-.73,0-.06.14-.21a.29.29,0,0,1,.26-.14h.13a.33.33,0,0,0,.32-.27l0-.2a.31.31,0,0,0-.31-.35h-.27l-.23.08a.31.31,0,0,1-.37-.13l-.17-.28a.32.32,0,0,0-.32-.14l-.16,0a.31.31,0,0,0-.26.35l0,.14a.32.32,0,0,1-.24.36l-.53.12a.31.31,0,0,0-.13.06l-.52.4-.05,0-.31.17a.32.32,0,0,1-.14,0h-.38a.32.32,0,0,0-.28.17l-.29.53-.21.36A.3.3,0,0,0,150,30Z"
                />
                <path
                    class="cls-2"
                    d="M157.12,26.15V25a.18.18,0,0,0-.1-.15l-.58-.28a.16.16,0,0,0-.15,0l-.2.12a.18.18,0,0,1-.2,0l-.68-.61a.16.16,0,0,0-.11-.05h-.74a.18.18,0,0,0-.12.05l-.85.84a.18.18,0,0,0,0,.07l-.16.51a.19.19,0,0,1-.1.1l-1,.44h0l-1.67.51h0l-1.68.92h0l-2,.55a.16.16,0,0,1-.16,0l-.13-.12a.17.17,0,0,0-.25,0l-.48.59,0,0-1.84,1.66a.19.19,0,0,1-.14.05l-1.22-.2a.17.17,0,0,1-.1-.06l-.53-.61a.17.17,0,0,1,0-.14l.1-.52a.17.17,0,0,0-.23-.19l-1,.39-1,.36a.2.2,0,0,1-.21-.08l-.39-.66v0l-.32-.86s0,0,0-.06v-.31a.16.16,0,0,1,.12-.16l.58-.17a.17.17,0,0,0,.09-.26l-.25-.38h0l-.26-.47a.18.18,0,0,1,.05-.22l.65-.48a.2.2,0,0,0,.06-.13l0-.57a.16.16,0,0,0-.14-.18l-.48-.07a.21.21,0,0,1-.1-.06l-.28-.34a.15.15,0,0,1,0-.14l.1-.55a.17.17,0,0,1,.07-.1l1.47-1.12.08,0,3.55-.52h1.36l1.4-.68a.1.1,0,0,0,.06-.05l.35-.44a.16.16,0,0,1,.08-.06l1.41-.51h0l1-.21a.15.15,0,0,0,.1-.06l.16-.2a.18.18,0,0,1,.17-.06l.8.19a.13.13,0,0,1,.09.05l.57.63,0,0,.35.21a.19.19,0,0,0,.18,0l.19-.13a.16.16,0,0,0,0-.28l-.34-.21a.18.18,0,0,1-.07-.21L152,19l0-.06.35-.36,0,0,.82-.64a.17.17,0,0,1,.21,0l.51.44a.18.18,0,0,1,0,.07l.17.5a.17.17,0,0,0,.14.12l1.51.19a.17.17,0,0,1,.15.14l.15.79.14.87a.17.17,0,0,0,.17.15l.92-.06a.2.2,0,0,1,.11,0l.63.47,0,0,1.65.59.8.26a.16.16,0,0,1,.11.21l-.17.63a0,0,0,0,0,0,0l-.14,1.47a.17.17,0,0,0,.17.19h.77a.15.15,0,0,1,.14.07l.49.72a.26.26,0,0,0,.11.07l1.26.27h0l1,.35.58.2a.17.17,0,0,1,.11.16v.16a.17.17,0,0,0,.19.17l.59-.08a.2.2,0,0,1,.15,0l.61.66,0,0,.29.54a.23.23,0,0,1,0,.14l-.3.77s0,0,0,0l-.78,1a.18.18,0,0,1-.15.07l-1.4-.11h0l-1.59-.6a.13.13,0,0,1-.07-.06l-.93-1.17,0,0-1.33-.86,0,0-.85-.81-.07,0-1.14-.3-.82-.17A.17.17,0,0,1,157.12,26.15Z"
                />
                <path
                    class="cls-2"
                    d="M169.89,32.2,170,32a.17.17,0,0,1,.16-.11h.5a.16.16,0,0,0,.16-.11l.42-1.18a.21.21,0,0,1,.13-.11l1.1-.24h.07l2,.4.08,0,.61.53a.18.18,0,0,1,.05.16l-.11.61a.17.17,0,0,0,0,.14l.26.32,0,0,.68.59,0,0,.5.7h0l.42.49a.16.16,0,0,1,0,.11v.41a.15.15,0,0,0,.07.14l.42.3a.17.17,0,0,1,0,.23l-.13.22a.15.15,0,0,1-.11.08l-.49.12a.17.17,0,0,1-.14,0l-.82-.59h0l-.58-.52a.19.19,0,0,1-.06-.17l.19-.77a.19.19,0,0,0,0-.13l-.45-.8a.18.18,0,0,0-.1-.07l-.11,0a.17.17,0,0,0-.21.23l.17.34a.19.19,0,0,1,0,.07v.2a.17.17,0,0,1-.24.15l-.31-.14a.15.15,0,0,1-.09-.1l-.24-.73,0-.06-.18-.21a.17.17,0,0,0-.18,0l-.73.21-1,.28h-.09l-.92-.25-.64-.17,0,0L170,32.4A.17.17,0,0,1,169.89,32.2Z"
                />
                <path
                    class="cls-3"
                    d="M39.47,69.77l1.17-1.29a.55.55,0,0,0,.14-.5c-.09-.49-.24-1.45.07-1.65s.69-.83,1.51.14,1,1.37,1.79,1.1.42-3.58.69-3.86,1.66-1.52,2.35-1.24,1.92,2.48,2.75,2.34a4,4,0,0,0,3.45-2.2c.77-1.55,2.43.63,3.06,1.55a.57.57,0,0,0,.67.22A6.6,6.6,0,0,1,60,63.85c.74.24,3.23-.71,3.76-.93a.58.58,0,0,0,.18-.11l1.26-1.14a.53.53,0,0,1,.42-.15l2.88.11a.6.6,0,0,1,.48.28c.31.5,1,1.56,1.77,1.66,1,.14,1.38.14,1.24,1s1.93,1.24,2.34,1l2.11-1.31a.6.6,0,0,1,.22-.09c.41-.06,1.83-.25,2.36.15a.61.61,0,0,0,.39.15H80c.29,0,.63.71.82,1.16a.6.6,0,0,0,.54.36h1.83a.56.56,0,0,1,.56.41,1.52,1.52,0,0,1,0,1c-.24.62.5,1.12.57,1.81a.61.61,0,0,0,.24.43l.82.6a.51.51,0,0,0,.38.1c.62,0,2.45-.1,3,.84a.76.76,0,0,0,.19.21c.2.15.55.26.55-.82,0-1.51,1.52-1,1.52-1A2,2,0,0,0,93.62,68a5.2,5.2,0,0,0,.21-2.58.65.65,0,0,1,0-.39,9.14,9.14,0,0,0,.6-1.85c0-.3.67-.76,1-1a.55.55,0,0,0,.26-.38A10.84,10.84,0,0,0,96,60c0-.83,1.37-1.1,1.79-2.07.14-.33.24-.57.3-.73a.77.77,0,0,1,.52-.49l.18-.05a.58.58,0,0,0,.42-.5l0-.32a.59.59,0,0,1,.58-.53h.3a.79.79,0,0,0,.49-.17l.18-.14a.58.58,0,0,1,.63-.07l.62.31a.56.56,0,0,0,.31.06l1.39-.1a.53.53,0,0,1,.42.13l.58.5a.61.61,0,0,0,.47.14l.48-.07a.57.57,0,0,1,.4.09l.5.33a.6.6,0,0,0,.32.1h1a.63.63,0,0,1,.19,0l.51.17a.56.56,0,0,0,.44,0l3.13-1.5a.73.73,0,0,1,.21-.06l1.73-.12.16,0,1.35-.48a.45.45,0,0,1,.2,0H117l.14,0,.76-.19a.64.64,0,0,1,.5.1l.8.6a.56.56,0,0,0,.17.09l.57.19a.58.58,0,0,1,.27.19l.58.69.41.52a.76.76,0,0,1,.15.28.5.5,0,0,0,.09.21l.76,1.11"
                />
                <path
                    class="cls-3"
                    d="M144.2,37.26l0-1v-.8s0-.06,0-.09l-.11-.75a.19.19,0,0,1,0-.08v-.17a.59.59,0,0,1,.26-.48l.41-.29.18-.08.5-.14a.66.66,0,0,1,.28,0h0a.54.54,0,0,0,.51-.14l.62-.6a.68.68,0,0,1,.23-.14l.54-.18a.61.61,0,0,1,.3,0l.16,0a.59.59,0,0,0,.72-.45l.23-1.15a.44.44,0,0,1,.11-.24l.16-.2a.52.52,0,0,1,.29-.18l.17,0,.16-.07L150,30"
                />
                <path class="cls-3" d="M151.65,75.76,153,75.1a.45.45,0,0,0,.19-.15l1.08-1.28.06-.06,1.18-1.06,0,0,.37-.41a.61.61,0,0,0,.13-.22l1.73-5.74,0-.07.22-.49" />
                <path class="cls-3" d="M160.17,64.9l2.9-1.45.05,0,1.29-.51a.78.78,0,0,1,.21,0h2.24a.7.7,0,0,0,.25,0l.33-.16a.59.59,0,0,0,.33-.53V62a.76.76,0,0,1,0-.21l.13-.32h.31" />
                <path class="cls-3" d="M167.23,62.76l3.64.43a.32.32,0,0,1,.14,0l2.2.84,0,0,3.42,1.72,1.58.79,0,0,.65.4.05,0,2.1,1.65" />
                <path class="cls-3" d="M155,27.33l1-.54a.33.33,0,0,1,.12-.05l.61-.19.1,0,.44-.22" />
                <path class="cls-3" d="M165.71,30.43l.74.39a.53.53,0,0,0,.37.05l.21,0a.53.53,0,0,1,.37.07l.15.08a.52.52,0,0,1,.17.16h0a.54.54,0,0,0,.6.22l.14,0a.55.55,0,0,1,.48.09l.48.38,0,0,.44.39" />
            </g>
            <circle class="cls-4" cx="116.52" cy="54.41" r="5.55" />
            <g id="Pueblos">
                <polygon
                    class="cls-5"
                    points="38.97 69.7 39.38 70.53 39.93 70.39 39.93 69.7 40.76 69.7 40.76 70.39 41.31 70.81 41.72 71.08 42.55 70.81 42.27 71.36 42.41 71.91 42.55 72.46 42.96 71.91 43.52 71.77 44.62 71.77 45.44 71.5 45.86 71.08 45.17 70.39 45.58 69.84 45.86 69.29 45.58 68.6 45.03 68.19 44.89 67.09 45.31 65.71 45.86 65.02 46.82 64.47 45.86 63.5 45.31 63.64 44.89 64.47 44.34 64.74 44.2 64.19 44.07 63.78 43.52 64.19 43.65 64.74 43.65 65.43 43.45 65.78 42.48 65.92 41.93 65.64 40.97 65.23 40.55 64.54 39.86 64.67 39.45 65.09 39.45 65.5 38.76 65.5 38.62 65.09 38.21 65.5 38.35 66.19 39.17 67.16 39.86 67.57 40.28 67.98 39.86 68.81 38.97 69.7"
                />
                <circle class="cls-5" cx="116.52" cy="54.31" r="0.66" />
                <circle class="cls-5" cx="118.62" cy="54.41" r="0.66" />
                <circle class="cls-5" cx="113.9" cy="54.97" r="0.66" />
                <circle class="cls-5" cx="62.53" cy="63.37" r="1.33" />
                <circle class="cls-5" cx="75.23" cy="64.69" r="1.33" />
                <circle class="cls-5" cx="85.18" cy="70.22" r="1.33" />
            </g>
            <line class="cls-4" x1="116.52" y1="39.83" x2="116.52" y2="48.9" />
            <polygon
                class="cls-2"
                points="42.95 53.75 45.64 53.75 46.82 52.85 48.39 52.28 49.35 51.19 50.63 50.23 51.37 49.84 52.74 50.55 55.17 50.29 59.91 50.04 59.59 48.82 57.16 47.16 55.55 48.95 53.83 49.14 52.61 48.88 51.72 47.73 50.69 48.18 48.96 48.44 48.45 47.54 48.9 47.03 50.34 45.99 50.63 44.28 50.76 42.81 52.04 40.63 50.95 41.08 49.99 41.21 49.86 39.35 50.95 38.01 52.61 35.7 51.72 36.15 50.05 37.11 50.95 35.83 50.34 34.87 48.71 36.73 47.68 38.26 48.07 39.8 48.07 43.32 48.07 45.56 46.41 45.99 45.25 49.01 44.1 51.25 43.2 51.57 41.03 52.15 41.03 53.56 39.11 54.64 37.64 53.56 35.72 54.13 34.31 56.18 35.85 55.92 38.21 54.96 38.21 55.99 39.11 56.95 37.06 63.55 36.42 65.14 37.32 66.35 36.68 67.06 37.25 68.71 37.77 70.51 36.74 72.46 35.53 72.46 33.67 71.54 32.01 72.82 29.96 72.82 27.98 73.97 25.99 74.29 25.21 74.79 24.91 74.98 24.4 74.93 23.97 74.76 22.68 74.88 23.62 72.46 23.97 71.38 21.74 71.38 21.74 69.77 22.91 67.54 22.09 65.92 24.09 64 23.97 62.04 23.38 60.45 24.32 59.3 23.97 57.36 23.5 54.13 21.97 51.88 22.09 50.59 22.79 48.01 25.28 48.01 26.89 46.54 26.61 45.71 28.5 45.2 28.56 43.81 27.56 42.81 28.17 42.2 29.61 42.2 30.56 41.48 32.39 39.76 32.5 36.76 34.12 35.92 34.06 34.2 35.78 32.92 36.95 31.81 36.95 30.08 36.28 27.75 35.9 26.58 37.45 25.8 37.06 25.25 39.06 25.25 40.78 23.07 39.47 19.87 41.79 5.62 39.47 3.69 39.47 0.65 40.94 0 -18.76 0 -18.76 100 6.36 100 4.36 97.54 5.58 83.79 7.18 84.26 8.73 83.21 10.96 81.33 11.53 80.68 13.41 78.05 15.05 74.64 15.76 72.46 18.57 73.35 20.92 74.41 19.86 76.55 19.27 77.81 21.86 79.28 23.15 81.8 21.5 84.03 23.15 86.84 26.31 86.38 26.31 82.86 24.09 80.68 25.02 78.75 27.37 81.68 29.01 82.74 29.72 80.68 31.01 82.27 31.01 84.61 32.06 87.31 34.64 87.55 32.77 83.56 31.95 81.21 29.83 79.28 27.96 78.63 26.78 77.22 25.38 76.55 25.67 76.13 26.76 75.85 27.91 75.44 28.81 75.06 31.62 74.48 33.22 73.65 33.22 74.93 34.18 74.35 35.27 74.99 36.1 76.55 37.19 76.98 37.32 78.58 39.17 79.28 39.47 79.86 38.21 82.29 38.85 82.73 39.47 81.39 40.45 80.68 40.52 81.9 41.6 82.61 41.6 80.68 40.33 78.38 39.17 76.55 40.2 75.85 42.52 76.85 42.95 77.1 44.29 78.26 46.82 78.77 48.77 77.68 49.86 78.64 50.34 80.3 50.34 81.52 52.16 81.97 52.29 83.63 53.06 84.59 54.08 83.82 54.21 81.39 51.97 80.05 51.37 78 50.34 75.31 49.22 75.85 47.88 76.21 46.15 76.91 44.87 76.55 43.78 74.74 42.15 75.57 40.39 74.35 38.85 74.74 38.85 71.92 39.86 67.57 39.05 65.92 38.21 64.69 38.92 62.76 41.67 58.1 41.67 56.82 40.97 55.41 41.54 53.68 42.95 53.75"
            />
            <text class="cls-6" transform="translate(52.21 59.38)">HUELLELHUE</text>
            <text class="cls-6" transform="translate(64.77 70.22)">ANTILHUE</text>
            <text class="cls-6" transform="translate(77.9 76.55)">
                <tspan class="cls-7">L</tspan>
                <tspan class="cls-8" x="1.65" y="0">O</tspan>
                <tspan class="cls-9" x="3.6" y="0">S L</tspan>
                <tspan class="cls-10" x="7.95" y="0">A</tspan>
                <tspan x="9.65" y="0">G</tspan>
                <tspan class="cls-11" x="11.55" y="0">O</tspan>
                <tspan class="cls-9" x="13.5" y="0">S</tspan>
            </text>
            <text class="cls-6" transform="translate(126.18 68.71)">
                L
                <tspan class="cls-12" x="1.71" y="0">A</tspan>
                <tspan x="3.41" y="0">GO</tspan>
                <tspan x="-1.82" y="3.51">RIÑIHUE</tspan>
            </text>
            <text class="cls-6" transform="translate(105.85 38.87)">
                <tspan class="cls-13">Z</tspan>
                <tspan class="cls-14" x="1.64" y="0">O</tspan>
                <tspan class="cls-15" x="3.6" y="0">N</tspan>
                <tspan class="cls-9" x="5.51" y="0">A DE</tspan>
                <tspan class="cls-16" x="12.76" y="0">T</tspan>
                <tspan class="cls-12" x="14.2" y="0">A</tspan>
                <tspan x="15.9" y="0">C</tspan>
                <tspan class="cls-11" x="17.69" y="0">O</tspan>
                <tspan x="19.64" y="0">S</tspan>
            </text>
            <text class="cls-6" transform="translate(155.45 45.4)">
                L
                <tspan class="cls-12" x="1.71" y="0">A</tspan>
                <tspan x="3.41" y="0">GO</tspan>
                <tspan class="cls-17" x="-5.21" y="3.51">P</tspan>
                <tspan x="-3.68" y="3.51">ANGUIPULLI</tspan>
            </text>
            <text class="cls-6" transform="translate(178.29 54.41)">
                L
                <tspan class="cls-12" x="1.71" y="0">A</tspan>
                <tspan x="3.41" y="0">GO</tspan>
                <tspan x="-2.61" y="3.51">NE</tspan>
                <tspan class="cls-18" x="1.03" y="3.51">L</tspan>
                <tspan x="2.31" y="3.51">TUME</tspan>
            </text>
            <text class="cls-6" transform="translate(179.01 80.68)">
                L
                <tspan class="cls-12" x="1.71" y="0">A</tspan>
                <tspan x="3.41" y="0">GO</tspan>
                <tspan x="-3.96" y="3.51">PIRIHUEICO</tspan>
            </text>
            <text class="cls-6" transform="translate(180.11 28.51)">
                L
                <tspan class="cls-12" x="1.71" y="0">A</tspan>
                <tspan x="3.41" y="0">GO</tspan>
                <tspan x="-2.65" y="3.51">PELLAI</tspan>
                <tspan class="cls-19" x="6.72" y="3.51">F</tspan>
                <tspan class="cls-9" x="8.14" y="3.51">A</tspan>
            </text>
            <text class="cls-6" transform="translate(153.55 33.06)">
                L
                <tspan class="cls-12" x="1.71" y="0">A</tspan>
                <tspan x="3.41" y="0">GO</tspan>
                <tspan x="-4.02" y="3.51">PULLINQUE</tspan>
            </text>
            <text class="cls-6" transform="translate(150.27 12.3)">
                L
                <tspan class="cls-12" x="1.71" y="0">A</tspan>
                <tspan x="3.41" y="0">GO</tspan>
                <tspan x="-4.43" y="3.51">CALA</tspan>
                <tspan class="cls-20" x="2.61" y="3.51">F</tspan>
                <tspan x="4.2" y="3.51">QUEN</tspan>
            </text>
            <text class="cls-21" transform="translate(102.53 60.58)">
                RÍO
                <tspan class="cls-22" x="-4.73" y="3.24">S</tspan>
                <tspan class="cls-23" x="-3.24" y="3.24">AN PED</tspan>
                <tspan class="cls-24" x="5.38" y="3.24">R</tspan>
                <tspan x="6.88" y="3.24">O</tspan>
            </text>
            <text class="cls-21" transform="translate(78.87 57.94)">
                RÍO
                <tspan x="-5.81" y="3.24">CALLE CALLE</tspan>
            </text>
            <text class="cls-21" transform="translate(154.01 79.27)">
                RÍO
                <tspan x="-1.33" y="3.24">ENCO</tspan>
            </text>
            <text class="cls-21" transform="translate(166.89 67.54)">
                RÍO
                <tspan x="-5.46" y="3.24">LLANQUIHUE</tspan>
            </text>
            <text class="cls-21" transform="translate(134.08 32.64)">
                RÍO
                <tspan x="-2.18" y="3.24">ZAHUIT</tspan>
            </text>
            <text class="cls-6" transform="translate(42.95 75.85)">
                <tspan class="cls-25">V</tspan>
                <tspan x="1.55" y="0">ALDIV</tspan>
                <tspan class="cls-15" x="9.5" y="0">I</tspan>
                <tspan x="10.28" y="0">A</tspan>
            </text>
            <text class="cls-26" transform="translate(181.29 17.49)">N</text>
            <text class="cls-26" transform="translate(180.88 12.3)">↑</text>
        </g>
        <g id="Capa_7" data-name="Capa 7">
            <g class="cls-27">
                <circle class="cls-28" cx="42.95" cy="67.98" r="5.94" />
                <ellipse class="cls-29" cx="42.95" cy="67.98" rx="12.08" ry="12.28" />
                <ellipse class="cls-29" cx="42.95" cy="67.98" rx="18.22" ry="18.62" />
                <ellipse class="cls-29" cx="42.95" cy="67.98" rx="24.35" ry="24.95" />
                <ellipse class="cls-29" cx="42.95" cy="67.98" rx="30.49" ry="31.29" />
            </g>
        </g>
    </g>
</svg>
