<svg xmlns="http://www.w3.org/2000/svg" viewBox="0 0 100 100">
    <defs>
        <style>
            .cls-1 {
                fill: #1a806b;
            }
            .cls-2 {
                fill: #2bbba0;
            }
            .cls-3 {
                fill: #708088;
            }
            .cls-4 {
                fill: #58595c;
            }
            .cls-5 {
                fill: #ccc;
            }
            .cls-6,
            .cls-7,
            .cls-8 {
                fill: none;
                stroke-miterlimit: 10;
            }
            .cls-6 {
                stroke: #000;
                stroke-width: 0.1px;
            }
            .cls-7,
            .cls-8 {
                stroke: #fff;
                stroke-width: 0.2px;
            }
            .cls-8 {
                stroke-dasharray: 1.03 1.03;
            }
            .cls-9 {
                font-size: 2.45px;
            }
            .cls-20,
            .cls-24,
            .cls-9 {
                font-family: 'Work Sans', sans-serif;
                font-weight: 500;
            }
            .cls-10 {
                letter-spacing: 0em;
            }
            .cls-11 {
                font-size: 2.23px;
                font-family: 'Work Sans', sans-serif;
                font-weight: 200;
            }
            .cls-12 {
                letter-spacing: 0em;
            }
            .cls-13 {
                letter-spacing: -0.03em;
            }
            .cls-14 {
                letter-spacing: -0.03em;
            }
            .cls-15 {
                letter-spacing: -0.03em;
            }
            .cls-16 {
                letter-spacing: -0.02em;
            }
            .cls-17 {
                letter-spacing: -0.02em;
            }
            .cls-18 {
                letter-spacing: -0.01em;
            }
            .cls-19 {
                letter-spacing: -0.01em;
            }
            .cls-20 {
                font-size: 2px;
            }
            .cls-21 {
                letter-spacing: -0.08em;
            }
            .cls-22 {
                letter-spacing: -0.02em;
            }
            .cls-23,
            .cls-33 {
                font-size: 1.34px;
                font-family: 'Work Sans', sans-serif;
            }
            .cls-24 {
                font-size: 1.09px;
                fill: #fff;
            }
            .cls-25 {
                letter-spacing: -0.01em;
            }
            .cls-26 {
                letter-spacing: 0em;
            }
            .cls-27 {
                letter-spacing: -0.03em;
            }
            .cls-28 {
                letter-spacing: -0.02em;
            }
            .cls-29 {
                letter-spacing: -0.09em;
            }
            .cls-30 {
                letter-spacing: -0.03em;
            }
            .cls-31 {
                letter-spacing: -0.09em;
            }
            .cls-32 {
                letter-spacing: -0.03em;
            }
            .cls-33 {
                letter-spacing: -0.03em;
            }
            .cls-34 {
                letter-spacing: 0em;
            }
            .cls-35 {
                letter-spacing: -0.01em;
            }
            .cls-36 {
                letter-spacing: -0.01em;
            }
            .cls-37 {
                letter-spacing: -0.01em;
            }
            .cls-38 {
                letter-spacing: -0.02em;
            }
            .cls-39 {
                letter-spacing: -0.01em;
            }
            .cls-40 {
                letter-spacing: -0.01em;
            }
            .cls-41 {
                letter-spacing: 0em;
            }
            .cls-42 {
                letter-spacing: -0.01em;
            }
            .cls-43 {
                letter-spacing: -0.08em;
            }
        </style>
    </defs>
    <title>riñihuazo</title>
    <g id="Figura_2" data-name="Figura 2">
        <polygon class="cls-1" points="96.96 28.92 72.85 42.61 72.85 35.87 96.96 22.14 96.96 28.92" />
        <polygon class="cls-2" points="69.92 32.5 96.94 17.13 79.76 15.47 39.05 34.67 69.92 32.5" />
        <polygon class="cls-1" points="96.96 22.14 69.92 37.54 69.92 32.51 96.96 17.13 96.96 22.14" />
        <polygon class="cls-3" points="69.45 29.6 64.46 29.96 61.51 30.76 59.84 33.13 56.83 32.91 52.2 32.2 40.65 33.13 35.54 35.42 36.02 37.45 61.18 42.37 65.99 39.95 70.52 34.08 69.45 29.6" />
        <polygon class="cls-4" points="9.75 47.36 10.95 44.41 17.23 39.02 19.87 37.92 23.78 39.02 25.97 37.92 29.78 36.69 34.12 35.06 40.7 35.07 45.74 35.06 47.92 33.38 56.83 30.92 56.83 45.93 43.7 53.25 9.3 49.91 9.75 47.36" />
        <polyline class="cls-1" points="66.29 39.74 64.94 41.71 64.49 43.1 63.66 44.36 62.81 44.94 62.08 44.91 61.33 44.48 61.18 43.61 61.18 42.68 61.18 42.37 66.91 38.77 66.89 38.85 66.39 39.59 66.29 39.74" />
        <polyline class="cls-3" points="34.94 37.45 26.77 40.5 20.12 39.59 17.79 41.11 12.42 44.98 10.82 46.29 7.54 47.79 3.04 53.32 3.04 70.48 24.14 74.27 34.94 37.45" />
        <polygon class="cls-1" points="44.39 52.1 49.43 49.2 49.64 49.08 49.64 49.73 49.64 52.45 48.98 55.37 48.98 57.37 48.52 59.29 47.69 59.51 46.83 58.32 46.16 55.75 45.45 53.76 44.89 52.6 44.39 52.1" />
        <polygon class="cls-2" points="43.03 49.3 49.64 49.08 44.39 52.1 42.76 51.34 42.66 49.73 43.03 49.3" />
        <polygon class="cls-2" points="60.57 39.88 66.17 38.44 66.91 38.77 61.18 42.37 60.27 42.09 60.27 40.88 60.57 39.88" />
        <polygon
            class="cls-5"
            points="96.96 28.44 94.43 30.14 92.22 31.3 91.16 31.66 89.47 32.15 88.1 32.45 86.52 32.27 85.04 32.82 82.98 33.4 81.09 33.9 78.98 34.25 77.71 33.76 76.78 33.56 75.9 33.72 73.94 34.41 73.15 33.22 72.4 32.23 71.96 30.99 71.02 30.07 70.15 29.73 69.45 29.6 69.08 29.9 68.46 30.89 68.33 31.92 68.03 33.38 67.76 34.38 67.32 35.23 67.33 35.98 67.21 37.05 66.89 38.85 64.94 41.72 64.49 43.11 63.66 44.37 62.81 44.95 62.08 44.92 61.33 44.49 61.18 43.62 61.18 42.69 61.07 41.41 61.07 38.44 60.55 36.77 60.2 35.05 59.84 33.13 59.64 31.12 58.36 30.56 56.83 30.92 54.57 33.06 53.85 34.01 53.85 35.36 53.45 37.55 52.58 39.64 51.88 41.79 51.17 43.98 50.47 46.15 49.62 49.71 49.63 52.42 48.96 55.34 48.96 57.35 48.5 59.27 47.67 59.49 46.81 58.29 46.15 55.73 45.54 53.66 44.92 52.66 43.72 51.47 43.72 50.05 43.72 46.33 43.19 43.87 43.03 41.01 42.38 40.54 41.87 40.16 40.78 40.01 38.15 39.77 36.66 39.55 35.83 38.16 34.94 37.45 34.12 37.92 33.37 38.57 32.75 39.55 31.78 41.29 30.41 42.92 29.17 44.32 28 44.99 26.32 45.96 24.14 47.22 23.86 74.27 96.68 32.23 96.96 28.44"
        />
        <line class="cls-6" x1="42.2" y1="52.15" x2="25.64" y2="61.54" />
        <polyline class="cls-6" points="41.74 52.1 42.23 52.1 41.99 52.62" />
        <polyline class="cls-6" points="26.09 61.58 25.59 61.58 25.84 61.06" />
        <line class="cls-6" x1="60.64" y1="42.66" x2="50.55" y2="48.39" />
        <polyline class="cls-6" points="60.16 42.63 60.66 42.63 60.41 43.15" />
        <polyline class="cls-6" points="50.98 48.43 50.49 48.43 50.74 47.91" />
        <line class="cls-6" x1="72.92" y1="35.78" x2="68.93" y2="38.05" />
        <polyline class="cls-6" points="72.49 35.72 72.99 35.72 72.74 36.25" />
        <polyline class="cls-6" points="69.39 38.08 68.89 38.08 69.14 37.56" />
        <line class="cls-7" x1="77.23" y1="33.42" x2="77.66" y2="33.17" />
        <line class="cls-8" x1="78.56" y1="32.66" x2="96.08" y2="22.72" />
        <line class="cls-7" x1="96.53" y1="22.46" x2="96.96" y2="22.21" />
        <text class="cls-9" transform="translate(69.92 73.6)">
            Lago
            <tspan class="cls-10" x="6.46" y="0">R</tspan>
            <tspan x="8.09" y="0">iñihue</tspan>
            <tspan class="cls-11">
                <tspan class="cls-12" x="0" y="2.67">E</tspan>
                <tspan x="1.31" y="2.67">ste</tspan>
                <tspan class="cls-13" x="5.02" y="2.67">r</tspan>
                <tspan x="5.75" y="2.67">ecibí</tspan>
                <tspan class="cls-14" x="10.35" y="2.67">a</tspan>
                <tspan x="11.47" y="2.67" xml:space="preserve">350</tspan>
                <tspan x="0" y="5.34">toneladas de agu</tspan>
                <tspan class="cls-15" x="17.26" y="5.34">a</tspan>
                <tspan x="18.37" y="5.34" xml:space="preserve">a</tspan>
                <tspan class="cls-13" x="20.19" y="5.34">l</tspan>
                <tspan x="20.68" y="5.34"></tspan>
                <tspan x="0" y="8.02">segund</tspan>
                <tspan class="cls-16" x="7.31" y="8.02">o</tspan>
                <tspan x="8.54" y="8.02">. Se estim</tspan>
                <tspan class="cls-15" x="18.46" y="8.02">a</tspan>
                <tspan x="19.58" y="8.02" xml:space="preserve">que</tspan>
                <tspan x="0" y="10.69">aume</tspan>
                <tspan class="cls-17" x="5.8" y="10.69">n</tspan>
                <tspan x="7.06" y="10.69">tó e</tspan>
                <tspan class="cls-17" x="10.97" y="10.69">n</tspan>
                <tspan x="12.22" y="10.69">t</tspan>
                <tspan class="cls-13" x="13" y="10.69">r</tspan>
                <tspan x="13.72" y="10.69">e</tspan>
                <tspan class="cls-18" x="14.93" y="10.69"></tspan>
                <tspan x="15.55" y="10.69">15</tspan>
                <tspan class="cls-14" x="18.15" y="10.69">a</tspan>
                <tspan x="19.26" y="10.69" xml:space="preserve">20</tspan>
                <tspan x="0" y="13.36">m de su ni</tspan>
                <tspan class="cls-19" x="10.74" y="13.36">v</tspan>
                <tspan x="11.8" y="13.36">e</tspan>
                <tspan class="cls-13" x="13" y="13.36">l</tspan>
                <tspan x="13.5" y="13.36" xml:space="preserve">normal.</tspan>
            </tspan>
        </text>
        <text class="cls-20" transform="translate(30.67 17.67)">
            <tspan class="cls-21">T</tspan>
            <tspan class="cls-22" x="0.99" y="0">A</tspan>
            <tspan x="2.15" y="0">CO Nº3</tspan>
        </text>
        <text class="cls-23" transform="matrix(0.87, -0.5, 0, 1, 32.63, 59.24)">2000 m</text>
        <text class="cls-24" transform="matrix(0.87, -0.5, 0, 1, 84.55, 27.56)">
            Sob
            <tspan class="cls-25" x="2.04" y="0">r</tspan>
            <tspan class="cls-26" x="2.48" y="0">enive</tspan>
            <tspan class="cls-27" x="5.29" y="0">l</tspan>
            <tspan x="5.6" y="0" xml:space="preserve">de</tspan>
            <tspan class="cls-27" x="7.27" y="0">l</tspan>
            <tspan x="7.58" y="0" xml:space="preserve">lago</tspan>
        </text>
        <text class="cls-24" transform="matrix(0.87, -0.5, 0, 1, 87.89, 30.69)">
            Nive
            <tspan class="cls-27" x="2.31" y="0">l</tspan>
            <tspan x="2.62" y="0" xml:space="preserve">norma</tspan>
            <tspan class="cls-27" x="6.41" y="0">l</tspan>
        </text>
        <text class="cls-23" transform="matrix(0.87, -0.5, 0, 1, 54.23, 48.27)">
            <tspan class="cls-28">7</tspan>
            <tspan x="0.72" y="0">00 m</tspan>
        </text>
        <text class="cls-23" transform="matrix(0.87, -0.5, 0, 1, 69.41, 39.9)">350 m</text>
        <text class="cls-23" transform="matrix(0.87, -0.5, 0, 1, 68.18, 35.07)">
            16
            <tspan class="cls-29" x="1.33" y="0">,</tspan>
            <tspan class="cls-30" x="1.57" y="0">7</tspan>
            <tspan x="2.28" y="0" xml:space="preserve">m</tspan>
        </text>
        <text class="cls-20" transform="translate(52.35 17.67)">
            <tspan class="cls-21">T</tspan>
            <tspan class="cls-22" x="0.99" y="0">A</tspan>
            <tspan x="2.15" y="0">CO Nº2</tspan>
        </text>
        <text class="cls-20" transform="translate(65.26 17.67)">
            <tspan class="cls-21">T</tspan>
            <tspan class="cls-22" x="0.99" y="0">A</tspan>
            <tspan x="2.15" y="0">CO Nº1</tspan>
        </text>
        <line class="cls-6" x1="56.61" y1="31.03" x2="56.61" y2="19.01" />
        <line class="cls-6" x1="69.36" y1="29.71" x2="69.36" y2="19.01" />
        <line class="cls-6" x1="34.94" y1="37.44" x2="34.94" y2="19.01" />
        <text class="cls-23" transform="matrix(0.87, -0.5, 0, 1, 55.53, 38.59)">
            18
            <tspan class="cls-31" x="1.34" y="0">,</tspan>
            <tspan class="cls-32" x="1.58" y="0">7</tspan>
            <tspan x="2.29" y="0" xml:space="preserve">m</tspan>
        </text>
        <polyline class="cls-6" points="56.83 32.08 57.07 31.68 57.29 31.8" />
        <line class="cls-6" x1="57.06" y1="31.72" x2="57.06" y2="36.04" />
        <polyline class="cls-6" points="57.29 43.62 57.05 44.02 56.83 43.89" />
        <line class="cls-6" x1="57.05" y1="43.98" x2="57.05" y2="38.52" />
        <polyline class="cls-6" points="69.69 30.66 69.93 30.26 70.15 30.39" />
        <line class="cls-6" x1="69.92" y1="30.31" x2="69.92" y2="32.77" />
        <polyline class="cls-6" points="70.15 36.55 69.92 36.95 69.69 36.82" />
        <line class="cls-6" x1="69.91" y1="36.95" x2="69.91" y2="34.67" />
        <text class="cls-33" transform="matrix(0.87, -0.5, 0, 1, 33.73, 48.33)">
            2
            <tspan class="cls-34" x="0.74" y="0">4 m</tspan>
        </text>
        <polyline class="cls-6" points="34.72 39.1 34.95 38.7 35.17 38.83" />
        <line class="cls-6" x1="34.94" y1="38.74" x2="34.94" y2="46.09" />
        <polyline class="cls-6" points="35.17 54.72 34.94 55.13 34.71 54.99" />
        <line class="cls-6" x1="34.93" y1="55.08" x2="34.93" y2="48.39" />
        <line class="cls-6" x1="81.09" y1="33.9" x2="81.12" y2="69.78" />
        <line class="cls-6" x1="48.33" y1="59.31" x2="48.33" y2="70.38" />
        <text class="cls-9" transform="translate(39.68 73.6)">
            <tspan class="cls-10">R</tspan>
            <tspan x="1.64" y="0">ío</tspan>
            <tspan class="cls-35" x="4.57" y="0">S</tspan>
            <tspan x="6.13" y="0">an</tspan>
            <tspan class="cls-36" x="9.83" y="0">P</tspan>
            <tspan x="11.34" y="0">ed</tspan>
            <tspan class="cls-37" x="14.3" y="0">r</tspan>
            <tspan x="15.28" y="0">o</tspan>
            <tspan class="cls-11">
                <tspan class="cls-12" x="0" y="2.67">E</tspan>
                <tspan x="1.31" y="2.67">ste</tspan>
                <tspan class="cls-38" x="4.37" y="2.67"></tspan>
                <tspan x="4.97" y="2.67">vio su cu</tspan>
                <tspan class="cls-39" x="13.91" y="2.67">r</tspan>
                <tspan x="14.67" y="2.67">so</tspan>
                <tspan x="0" y="5.34">norma</tspan>
                <tspan class="cls-13" x="6.69" y="5.34">l</tspan>
                <tspan x="7.18" y="5.34" xml:space="preserve">obstruido po</tspan>
                <tspan class="cls-38" x="20.65" y="5.34">r</tspan>
                <tspan x="21.39" y="5.34"></tspan>
                <tspan class="cls-40" x="0" y="8.02">l</tspan>
                <tspan x="0.54" y="8.02">os deslizamie</tspan>
                <tspan class="cls-17" x="14.23" y="8.02">n</tspan>
                <tspan x="15.48" y="8.02">tos,</tspan>
                <tspan x="0" y="10.69">gene</tspan>
                <tspan class="cls-18" x="4.83" y="10.69">r</tspan>
                <tspan x="5.59" y="10.69">ando que e</tspan>
                <tspan class="cls-13" x="16.97" y="10.69">l</tspan>
                <tspan x="17.47" y="10.69"></tspan>
                <tspan class="cls-41" x="0" y="13.36">Riñihue emp</tspan>
                <tspan class="cls-42" x="12.68" y="13.36">e</tspan>
                <tspan x="13.87" y="13.36">za</tspan>
                <tspan class="cls-18" x="16.12" y="13.36">r</tspan>
                <tspan class="cls-15" x="16.89" y="13.36">a</tspan>
                <tspan x="18" y="13.36"></tspan>
                <tspan class="cls-15" x="18.65" y="13.36">a</tspan>
                <tspan x="19.76" y="13.36"></tspan>
                <tspan x="0" y="16.03">c</tspan>
                <tspan class="cls-13" x="1.18" y="16.03">r</tspan>
                <tspan x="1.91" y="16.03">ece</tspan>
                <tspan class="cls-43" x="5.5" y="16.03">r</tspan>
                <tspan x="6.11" y="16.03">.</tspan>
            </tspan>
        </text>
    </g>
</svg>
