<svg xmlns="http://www.w3.org/2000/svg" viewBox="0 0 200 100">
    <defs>
        <style>
            .cls-1 {
                fill: #1a806b;
            }
            .cls-2 {
                fill: #2bbba0;
            }
            .cls-3 {
                fill: #708088;
            }
            .cls-4 {
                fill: #58595c;
            }
            .cls-5 {
                fill: #ccc;
            }
            .cls-6,
            .cls-7,
            .cls-8 {
                fill: none;
                stroke-miterlimit: 10;
            }
            .cls-6 {
                stroke: #000;
                stroke-width: 0.1px;
            }
            .cls-7,
            .cls-8 {
                stroke: #fff;
                stroke-width: 0.2px;
            }
            .cls-8 {
                stroke-dasharray: 1.01 1.01;
            }
            .cls-9 {
                font-size: 3.48px;
            }
            .cls-22,
            .cls-9 {
                font-family: 'Work Sans', sans-serif;
                font-weight: 500;
            }
            .cls-10 {
                letter-spacing: 0em;
            }
            .cls-11 {
                letter-spacing: 0em;
            }
            .cls-12,
            .cls-26 {
                font-size: 3.16px;
                font-family: 'Work Sans', sans-serif;
                font-weight: 200;
            }
            .cls-13 {
                letter-spacing: 0em;
            }
            .cls-14 {
                letter-spacing: -0.03em;
            }
            .cls-15 {
                letter-spacing: -0.03em;
            }
            .cls-16 {
                letter-spacing: -0.02em;
            }
            .cls-17 {
                letter-spacing: -0.02em;
            }
            .cls-18 {
                letter-spacing: -0.02em;
            }
            .cls-19 {
                letter-spacing: -0.03em;
            }
            .cls-20 {
                letter-spacing: -0.01em;
            }
            .cls-21 {
                letter-spacing: -0.01em;
            }
            .cls-22 {
                font-size: 2.85px;
            }
            .cls-23 {
                letter-spacing: -0.08em;
            }
            .cls-24 {
                letter-spacing: -0.02em;
            }
            .cls-25 {
                font-size: 1.9px;
                font-family: 'Work Sans', sans-serif;
            }
            .cls-27 {
                letter-spacing: 0em;
            }
            .cls-28 {
                letter-spacing: 0em;
            }
            .cls-29 {
                letter-spacing: -0.02em;
            }
            .cls-30 {
                letter-spacing: -0.09em;
            }
            .cls-31 {
                letter-spacing: -0.03em;
            }
            .cls-32 {
                letter-spacing: -0.09em;
            }
            .cls-33 {
                letter-spacing: -0.03em;
            }
            .cls-34 {
                letter-spacing: 0em;
            }
            .cls-35 {
                letter-spacing: -0.01em;
            }
            .cls-36 {
                letter-spacing: -0.01em;
            }
            .cls-37 {
                letter-spacing: -0.01em;
            }
            .cls-38 {
                letter-spacing: -0.03em;
            }
            .cls-39 {
                letter-spacing: -0.01em;
            }
            .cls-40 {
                letter-spacing: -0.01em;
            }
            .cls-41 {
                letter-spacing: 0em;
            }
            .cls-42 {
                letter-spacing: -0.03em;
            }
            .cls-43 {
                letter-spacing: -0.08em;
            }
        </style>
    </defs>
    <title>2</title>
    <g id="Figura_2" data-name="Figura 2">
        <polygon class="cls-1" points="154.22 29.05 119.97 48.49 119.97 38.91 154.22 19.42 154.22 29.05" />
        <polygon class="cls-2" points="115.81 34.13 154.19 12.29 129.78 9.93 71.95 37.22 115.81 34.13" />
        <polygon class="cls-1" points="154.22 19.42 115.81 41.29 115.81 34.13 154.22 12.29 154.22 19.42" />
        <polygon class="cls-3" points="115.14 30.01 108.06 30.52 103.86 31.66 101.5 35.02 97.21 34.71 90.64 33.7 74.23 35.02 66.97 38.28 67.66 41.15 103.39 48.15 110.23 44.7 116.66 36.37 115.14 30.01" />
        <polygon class="cls-4" points="30.34 55.24 32.04 51.05 40.96 43.39 44.71 41.82 50.27 43.39 53.38 41.82 58.79 40.08 64.96 37.77 74.3 37.78 81.46 37.77 84.56 35.38 97.21 31.88 97.21 53.21 78.57 63.61 29.7 58.86 30.34 55.24" />
        <polyline class="cls-1" points="110.65 44.41 108.73 47.21 108.1 49.18 106.92 50.97 105.71 51.8 104.68 51.76 103.61 51.14 103.39 49.91 103.39 48.59 103.39 48.15 111.53 43.03 111.5 43.15 110.8 44.19 110.65 44.41" />
        <polyline class="cls-3" points="66.12 41.15 54.52 45.49 45.07 44.19 41.76 46.36 34.13 51.85 31.86 53.71 27.21 55.85 20.81 63.7 20.81 88.08 50.78 93.47 66.12 41.15" />
        <polygon class="cls-1" points="79.54 61.97 86.7 57.85 87 57.67 87 58.61 87 62.46 86.06 66.61 86.06 69.46 85.41 72.18 84.23 72.5 83.01 70.8 82.07 67.16 81.06 64.32 80.25 62.67 79.54 61.97" />
        <polygon class="cls-2" points="77.61 57.99 87 57.67 79.54 61.97 77.22 60.9 77.09 58.6 77.61 57.99" />
        <polygon class="cls-2" points="102.52 44.61 110.48 42.56 111.53 43.03 103.39 48.15 102.1 47.74 102.1 46.03 102.52 44.61" />
        <polygon
            class="cls-5"
            points="154.22 28.36 150.63 30.78 147.48 32.42 145.98 32.94 143.58 33.63 141.63 34.06 139.39 33.8 137.29 34.58 134.37 35.4 131.67 36.12 128.67 36.62 126.88 35.92 125.55 35.64 124.31 35.86 121.53 36.84 120.39 35.15 119.34 33.75 118.71 31.98 117.37 30.68 116.14 30.2 115.14 30.01 114.62 30.43 113.73 31.84 113.55 33.3 113.12 35.38 112.74 36.79 112.11 38 112.14 39.08 111.97 40.59 111.5 43.15 108.73 47.23 108.1 49.2 106.92 50.99 105.71 51.82 104.68 51.77 103.61 51.16 103.39 49.92 103.39 48.61 103.24 46.78 103.24 42.57 102.5 40.2 102 37.74 101.5 35.02 101.21 32.17 99.39 31.38 97.21 31.88 94 34.93 92.99 36.27 92.99 38.2 92.41 41.3 91.17 44.27 90.18 47.32 89.18 50.43 88.19 53.51 86.98 58.57 86.98 62.43 86.04 66.58 86.04 69.43 85.38 72.15 84.21 72.46 82.99 70.77 82.05 67.12 81.17 64.19 80.3 62.76 78.59 61.07 78.59 59.06 78.59 53.78 77.83 50.28 77.62 46.21 76.69 45.55 75.97 45.01 74.42 44.79 70.68 44.46 68.56 44.14 67.39 42.16 66.12 41.15 64.96 41.82 63.89 42.75 63.01 44.14 61.63 46.61 59.68 48.94 57.92 50.91 56.26 51.87 53.87 53.25 50.78 55.04 50.38 93.47 153.82 33.75 154.22 28.36"
        />
        <line class="cls-6" x1="76.43" y1="62.04" x2="52.91" y2="75.38" />
        <polyline class="cls-6" points="75.78 61.97 76.48 61.97 76.13 62.71" />
        <polyline class="cls-6" points="53.55 75.44 52.84 75.44 53.19 74.7" />
        <line class="cls-6" x1="102.63" y1="48.56" x2="88.3" y2="56.69" />
        <polyline class="cls-6" points="101.95 48.51 102.65 48.51 102.3 49.25" />
        <polyline class="cls-6" points="88.91 56.76 88.21 56.76 88.56 56.02" />
        <line class="cls-6" x1="120.08" y1="38.79" x2="114.4" y2="42.01" />
        <polyline class="cls-6" points="119.47 38.71 120.17 38.71 119.82 39.45" />
        <polyline class="cls-6" points="115.05 42.06 114.35 42.06 114.7 41.32" />
        <line class="cls-7" x1="126.19" y1="35.43" x2="126.62" y2="35.19" />
        <line class="cls-8" x1="127.5" y1="34.69" x2="153.35" y2="20.01" />
        <line class="cls-7" x1="153.78" y1="19.76" x2="154.22" y2="19.52" />
        <line class="cls-6" x1="155.98" y1="12.3" x2="155.98" y2="19.42" />
        <line class="cls-6" x1="155.54" y1="12.3" x2="156.44" y2="12.3" />
        <line class="cls-6" x1="155.54" y1="19.42" x2="156.44" y2="19.42" />
        <line class="cls-6" x1="155.98" y1="20.93" x2="155.98" y2="28.06" />
        <line class="cls-6" x1="155.54" y1="20.93" x2="156.44" y2="20.93" />
        <line class="cls-6" x1="155.54" y1="28.06" x2="156.44" y2="28.06" />
        <text class="cls-9" transform="translate(147.21 47.94)">
            L
            <tspan class="cls-10" x="2.08" y="0">a</tspan>
            <tspan x="4.07" y="0">go</tspan>
            <tspan class="cls-11" x="9.17" y="0">R</tspan>
            <tspan x="11.5" y="0">iñihue</tspan>
            <tspan class="cls-12">
                <tspan class="cls-13" x="0" y="3.8">E</tspan>
                <tspan x="1.86" y="3.8">ste</tspan>
                <tspan class="cls-14" x="7.14" y="3.8">r</tspan>
                <tspan x="8.17" y="3.8">ecibí</tspan>
                <tspan class="cls-15" x="14.71" y="3.8">a</tspan>
                <tspan x="16.29" y="3.8" xml:space="preserve">350</tspan>
                <tspan x="0" y="7.59">toneladas de agu</tspan>
                <tspan class="cls-15" x="24.51" y="7.59">a</tspan>
                <tspan x="26.1" y="7.59" xml:space="preserve">a</tspan>
                <tspan class="cls-14" x="28.68" y="7.59">l</tspan>
                <tspan x="29.38" y="7.59"></tspan>
                <tspan x="0" y="11.39">segund</tspan>
                <tspan class="cls-16" x="10.38" y="11.39">o</tspan>
                <tspan x="12.13" y="11.39">. Se estim</tspan>
                <tspan class="cls-15" x="26.23" y="11.39">a</tspan>
                <tspan x="27.81" y="11.39" xml:space="preserve">que</tspan>
                <tspan x="0" y="15.18">aume</tspan>
                <tspan class="cls-17" x="8.25" y="15.18">n</tspan>
                <tspan x="10.03" y="15.18">tó e</tspan>
                <tspan class="cls-18" x="15.58" y="15.18">n</tspan>
                <tspan x="17.36" y="15.18">t</tspan>
                <tspan class="cls-19" x="18.46" y="15.18">r</tspan>
                <tspan x="19.49" y="15.18">e</tspan>
                <tspan class="cls-20" x="21.21" y="15.18"></tspan>
                <tspan x="22.09" y="15.18">15</tspan>
                <tspan class="cls-15" x="25.78" y="15.18">a</tspan>
                <tspan x="27.36" y="15.18" xml:space="preserve">20</tspan>
                <tspan x="0" y="18.98">m de su ni</tspan>
                <tspan class="cls-21" x="15.25" y="18.98">v</tspan>
                <tspan x="16.76" y="18.98">e</tspan>
                <tspan class="cls-19" x="18.47" y="18.98">l</tspan>
                <tspan x="19.17" y="18.98" xml:space="preserve">normal.</tspan>
            </tspan>
        </text>
        <text class="cls-22" transform="translate(60.06 13.06)">
            <tspan class="cls-23">T</tspan>
            <tspan class="cls-24" x="1.4" y="0">A</tspan>
            <tspan x="3.06" y="0">CO Nº3</tspan>
        </text>
        <text class="cls-25" transform="matrix(0.87, -0.5, 0, 1, 62.84, 72.11)">2000 m</text>
        <text class="cls-26" transform="translate(158.1 15.86)">
            Sob
            <tspan class="cls-14" x="5.6" y="0">r</tspan>
            <tspan class="cls-27" x="6.63" y="0">eni</tspan>
            <tspan class="cls-21" x="10.82" y="0">v</tspan>
            <tspan x="12.33" y="0">e</tspan>
            <tspan class="cls-14" x="14.05" y="0">l</tspan>
            <tspan x="14.75" y="0" xml:space="preserve">de</tspan>
            <tspan class="cls-14" x="19.26" y="0">l</tspan>
            <tspan class="cls-28" x="19.96" y="0" xml:space="preserve">lago</tspan>
        </text>
        <text class="cls-26" transform="translate(158.1 25.5)">
            Ni
            <tspan class="cls-21" x="2.86" y="0">v</tspan>
            <tspan x="4.37" y="0">e</tspan>
            <tspan class="cls-14" x="6.08" y="0">l</tspan>
            <tspan x="6.78" y="0" xml:space="preserve">norma</tspan>
            <tspan class="cls-14" x="17.2" y="0">l</tspan>
        </text>
        <text class="cls-25" transform="matrix(0.87, -0.5, 0, 1, 93.53, 56.53)">
            <tspan class="cls-29">7</tspan>
            <tspan x="1.03" y="0">00 m</tspan>
        </text>
        <text class="cls-25" transform="matrix(0.87, -0.5, 0, 1, 115.08, 44.64)">350 m</text>
        <text class="cls-25" transform="matrix(0.87, -0.5, 0, 1, 113.34, 37.77)">
            16
            <tspan class="cls-30" x="1.89" y="0">,</tspan>
            <tspan class="cls-31" x="2.23" y="0">7</tspan>
            <tspan x="3.24" y="0" xml:space="preserve">m</tspan>
        </text>
        <text class="cls-22" transform="translate(90.85 13.06)">
            <tspan class="cls-23">T</tspan>
            <tspan class="cls-24" x="1.4" y="0">A</tspan>
            <tspan x="3.06" y="0">CO Nº2</tspan>
        </text>
        <text class="cls-22" transform="translate(109.2 13.06)">
            <tspan class="cls-23">T</tspan>
            <tspan class="cls-24" x="1.4" y="0">A</tspan>
            <tspan x="3.06" y="0">CO Nº1</tspan>
        </text>
        <line class="cls-6" x1="96.91" y1="32.04" x2="96.91" y2="14.97" />
        <line class="cls-6" x1="115.01" y1="30.17" x2="115.01" y2="14.97" />
        <line class="cls-6" x1="66.12" y1="41.15" x2="66.12" y2="14.97" />
        <text class="cls-25" transform="matrix(0.87, -0.5, 0, 1, 95.37, 42.78)">
            18
            <tspan class="cls-32" x="1.91" y="0">,</tspan>
            <tspan class="cls-33" x="2.25" y="0">7</tspan>
            <tspan class="cls-34" x="3.26" y="0" xml:space="preserve">m</tspan>
        </text>
        <polyline class="cls-6" points="97.22 33.53 97.55 32.96 97.87 33.14" />
        <line class="cls-6" x1="97.55" y1="33.03" x2="97.55" y2="39.16" />
        <polyline class="cls-6" points="97.86 49.92 97.53 50.49 97.21 50.3" />
        <line class="cls-6" x1="97.53" y1="50.43" x2="97.53" y2="42.68" />
        <polyline class="cls-6" points="115.49 31.52 115.82 30.95 116.14 31.13" />
        <line class="cls-6" x1="115.81" y1="31.02" x2="115.81" y2="34.51" />
        <polyline class="cls-6" points="116.13 39.88 115.8 40.45 115.48 40.26" />
        <line class="cls-6" x1="115.8" y1="40.45" x2="115.8" y2="37.22" />
        <text class="cls-25" transform="matrix(0.87, -0.5, 0, 1, 64.4, 56.62)">
            <tspan class="cls-33">2</tspan>
            <tspan x="1.05" y="0">4 m</tspan>
        </text>
        <polyline class="cls-6" points="65.8 43.5 66.13 42.93 66.45 43.11" />
        <line class="cls-6" x1="66.13" y1="43" x2="66.13" y2="53.43" />
        <polyline class="cls-6" points="66.44 65.69 66.11 66.27 65.8 66.08" />
        <line class="cls-6" x1="66.11" y1="66.2" x2="66.11" y2="56.69" />
        <line class="cls-6" x1="106.15" y1="51.18" x2="106.15" y2="68.1" />
        <line class="cls-6" x1="145.08" y1="27.74" x2="145.08" y2="46.56" />
        <text class="cls-9" transform="translate(108.78 69.23)">
            <tspan class="cls-11">R</tspan>
            <tspan x="2.32" y="0">ío</tspan>
            <tspan class="cls-35" x="6.5" y="0">S</tspan>
            <tspan x="8.7" y="0">an</tspan>
            <tspan class="cls-36" x="13.97" y="0">P</tspan>
            <tspan x="16.11" y="0">ed</tspan>
            <tspan class="cls-37" x="20.3" y="0">r</tspan>
            <tspan x="21.7" y="0">o</tspan>
            <tspan class="cls-12">
                <tspan class="cls-13" x="0" y="3.8">E</tspan>
                <tspan x="1.86" y="3.8">ste</tspan>
                <tspan class="cls-38" x="6.21" y="3.8"></tspan>
                <tspan x="7.06" y="3.8">vio su cu</tspan>
                <tspan class="cls-39" x="19.76" y="3.8">r</tspan>
                <tspan x="20.84" y="3.8">so</tspan>
                <tspan x="0" y="7.59">norma</tspan>
                <tspan class="cls-14" x="9.5" y="7.59">l</tspan>
                <tspan x="10.2" y="7.59" xml:space="preserve">obstruido po</tspan>
                <tspan class="cls-38" x="29.34" y="7.59">r</tspan>
                <tspan x="30.39" y="7.59"></tspan>
                <tspan class="cls-40" x="0" y="11.39">l</tspan>
                <tspan x="0.77" y="11.39">os deslizamie</tspan>
                <tspan class="cls-17" x="20.21" y="11.39">n</tspan>
                <tspan x="22" y="11.39">tos,</tspan>
                <tspan x="0" y="15.18">gene</tspan>
                <tspan class="cls-20" x="6.86" y="15.18">r</tspan>
                <tspan x="7.94" y="15.18">ando que e</tspan>
                <tspan class="cls-14" x="24.11" y="15.18">l</tspan>
                <tspan x="24.81" y="15.18"></tspan>
                <tspan class="cls-41" x="0" y="18.98">Riñihue emp</tspan>
                <tspan class="cls-13" x="18.01" y="18.98">e</tspan>
                <tspan x="19.71" y="18.98">za</tspan>
                <tspan class="cls-20" x="22.9" y="18.98">r</tspan>
                <tspan class="cls-15" x="23.99" y="18.98">a</tspan>
                <tspan x="25.57" y="18.98"></tspan>
                <tspan class="cls-42" x="26.49" y="18.98">a</tspan>
                <tspan x="28.08" y="18.98"></tspan>
                <tspan x="0" y="22.77">c</tspan>
                <tspan class="cls-14" x="1.68" y="22.77">r</tspan>
                <tspan x="2.71" y="22.77">ece</tspan>
                <tspan class="cls-43" x="7.82" y="22.77">r</tspan>
                <tspan x="8.68" y="22.77">.</tspan>
            </tspan>
        </text>
    </g>
</svg>
