<?xml version="1.0" encoding="utf-8"?>
<!-- Generator: Adobe Illustrator 22.0.1, SVG Export Plug-In . SVG Version: 6.00 Build 0)  -->
<svg version="1.1" id="Capa_1" xmlns="http://www.w3.org/2000/svg" xmlns:xlink="http://www.w3.org/1999/xlink" x="0px" y="0px"
	 viewBox="0 0 100 50" style="enable-background:new 0 0 100 50;" xml:space="preserve">
<style type="text/css">
	.st0{fill:#2BBBA0;}
	.st1{fill:#CCCCCC;}
	.st2{fill:#708088;}
	/*acá les dejo una pequeña animación*/
	@keyframes sube{
		0% {transform: translate(0,40px)}
		100% {transform: translate(0,0)}
	}	
	#torrente{
		animation:sube 10s normal 1, mueve 5s alternate infinite;
	}
</style>
<rect id="torrente" x="14.7" y="14.9" class="st0" width="71.6" height="25.5"/>
<polygon id="cauce" class="st1" points="-1.3,13.6 2.3,13.6 9.2,9.5 14.7,11.4 16.5,15 17.6,18.6 19.3,19.8 19.8,23.6 21.2,25.2 
	22.4,27.5 21.7,30.6 21.5,34.6 21.7,37.1 23.5,39.2 37.7,39.6 41.7,39.1 46,39 50.2,39 76.9,39.3 79.2,35.8 80.1,33.4 79.4,29.6 
	80.7,27.2 83.5,22.6 83.2,16.9 83.7,13.1 86.1,11.8 90.4,11.5 91.5,11.7 99.2,13.3 101.3,13.3 101.3,51.2 -1.3,51.2 "/>
<g id="personas">
	<path class="st2" d="M88.8,7.6c0,0.8,0,1.5-0.2,2.3c0,0.2,0,0.4,0.1,0.6c0.1,0.7,0.1,1.3,0.2,2c0,0.2,0.1,0.4,0.3,0.4
		c0.1,0,0.2,0,0.2,0.2s-0.2,0.1-0.3,0.1h-0.7c-0.1,0-0.2-0.1-0.2-0.2c-0.1-0.7-0.2-1.3-0.3-2s-0.2-1.3-0.4-2c0,0,0-0.1-0.1-0.2
		c-0.1,0.3-0.2,0.6-0.2,0.9c-0.1,0.7-0.2,1.3-0.3,2c0,0.3-0.1,0.6-0.1,0.9c0,0.5-0.3,0.8-0.8,0.7c-0.1,0-0.1,0-0.2-0.1
		c0-0.1,0-0.1,0.1-0.2c0.2-0.1,0.2-0.2,0.2-0.3c-0.1-0.9-0.1-1.7,0-2.5c0-0.3,0-0.7,0-1s0-0.7,0-1c0-0.1,0-0.3,0-0.4s0-0.3,0-0.4
		c0.2-0.5,0.1-1,0.2-1.5C86.2,6,86,6.2,85.8,6.3c-0.2,0.1-0.5,0.1-0.7-0.2H85c-0.2-0.2-0.3-0.6-0.7-0.7S83.9,5,84.1,4.7
		c0-0.1,0-0.3,0.2-0.4c0.2-0.1,0.4,0,0.5,0.2l0,0c0.1,0.3,0.2,0.6,0.5,0.8c0.1,0.1,0.2,0.1,0.2,0c0.1-0.1,0.2-0.3,0.3-0.4
		c0.2-0.4,0.5-0.8,1-0.9C87,4,87,3.9,86.9,3.7S86.7,3.2,86.7,3c-0.1-0.3,0.2-0.5,0.4-0.7c0.2-0.1,0.5-0.1,0.7,0s0.3,0.3,0.3,0.5
		s0,0.5-0.1,0.7c0,0.1,0,0.3,0.2,0.4c0,0,0.1,0.1,0.2,0.1c0.6,0.2,1,0.7,1,1.3s0.2,1.2,0.2,1.8c0,0.3,0,0.6,0.1,0.8
		c0.1,0.3,0.1,0.7-0.1,1c-0.1,0.1-0.2,0.2-0.3,0.2S89,9,89,8.9c0-0.3,0-0.6,0-0.8C89.1,7.8,88.9,7.7,88.8,7.6z"/>
	<path class="st2" d="M93.7,1.9c0,0.2,0,0.3-0.1,0.5c0,0,0,0.1,0,0.2C93.7,2.7,93.8,2.9,94,3c0.5,0.3,0.8,1,0.5,1.5
		c-0.2,0.4-0.2,0.9-0.1,1.4c0,0.2,0,0.4-0.1,0.6c0,0.1,0,0.3,0,0.4c0.1,0.2,0.1,0.4,0,0.6C94,8.1,94,8.8,94,9.5c0,0.5,0,1,0,1.5
		c-0.1,0.4-0.1,0.8-0.3,1.2c0,0.1-0.1,0.1-0.1,0.1c-0.3,0-0.5,0-0.8-0.1c-0.1,0-0.1-0.2,0-0.2c0.3-0.1,0.3-0.3,0.3-0.5
		c0-0.9,0-1.9-0.2-2.8c0-0.1,0-0.1-0.1-0.2c0,0,0-0.1-0.1-0.1s-0.1,0.1-0.1,0.1c-0.2,0.3-0.3,0.5-0.4,0.8c-0.2,0.6-0.2,1.3-0.4,1.9
		c0,0.2,0,0.3,0,0.5c0.1,0.5,0,0.7-0.5,0.6c-0.3,0-0.6,0-0.8,0c-0.1,0-0.1,0-0.2-0.1c0-0.1,0-0.1,0.1-0.1l0,0c0.6-0.1,0.7-0.5,0.7-1
		s0-0.7,0-1.1c0.1-0.6,0.1-1.2,0.2-1.7c0.1-0.4,0.2-0.8,0.3-1.2s0.1-0.7,0.2-1c0-0.1-0.1-0.2-0.1-0.2c-0.3-0.2-0.5-0.6-0.3-1
		c0.1-0.3,0.1-0.6,0.2-0.9c0-0.4,0.3-0.7,0.7-0.8c0.2-0.1,0.2-0.1,0.2-0.3s-0.1-0.4-0.2-0.6s-0.1-0.2,0-0.2s0.2-0.3,0.3-0.4
		c0.2-0.2,0.5-0.4,0.7-0.3C93.6,1.2,93.7,1.4,93.7,1.9z"/>
</g>
</svg>
