<?xml version="1.0" encoding="utf-8"?>
<!-- Generator: Adobe Illustrator 22.0.1, SVG Export Plug-In . SVG Version: 6.00 Build 0)  -->
<svg version="1.1" id="Capa_1" xmlns="http://www.w3.org/2000/svg" xmlns:xlink="http://www.w3.org/1999/xlink" x="0px" y="0px"
	 viewBox="0 0 200 100" style="enable-background:new 0 0 200 100;" xml:space="preserve">
<style type="text/css">
	.st0{fill:#CCCCCC;}
	.st1{fill:none;stroke:#708088;stroke-width:0.5;stroke-miterlimit:10;}
	.st2{fill:#9B9B9B;}
	.st3{fill:#708088;}
</style>
<title>riñihuazo</title>
<g id="Capa_2_1_">
	<path class="st0" d="M40.5,11.9c-0.2,0-0.4,0-0.5,0.1c-0.3,0.2-0.6,0.4-0.9,0.6c-0.6,0.3-0.9,1-0.7,1.6
		C39,13.4,39.7,12.6,40.5,11.9z"/>
	<path class="st1" d="M141.4,24.1c0.5-0.1,1-0.2,1.4-0.4c2.9-1.6,8.5-7.6,9.4-8.4"/>
	<path class="st2" d="M140.4,23.1v-0.4c0,0,0-0.1-0.1-0.1c0,0,0,0,0,0l-4-0.3c0,0-0.1,0-0.1,0.1v0.4l-1.6-0.1v0.8l6.9,0.5v-0.8
		L140.4,23.1z M136.4,22.6l3.8,0.3v0.3l-3.8-0.3V22.6z"/>
	<path class="st2" d="M142.3,23.9l-0.7,0h-0.1l-3.3-0.2H138l-3.3-0.2h-0.1l-0.7,0c0,0-0.1,0-0.1,0.1v0.4c0,0,0,0.1,0.1,0.1h0.7
		l-0.1,2h0.3v0.1h-0.3v0.2l3.4,0.2h0.1l3.4,0.2v-0.2h-0.3v-0.1h0.3l0.1-2l0.7,0c0,0,0.1,0,0.1-0.1L142.3,23.9
		C142.3,24,142.3,23.9,142.3,23.9z M134.6,23.8l-0.6,0v-0.2h0.6L134.6,23.8z M142.1,24.3h-0.6v-0.3l0.6,0V24.3z"/>
	<path class="st2" d="M130.4,24.7v-0.4c0,0,0-0.1-0.1-0.1l-4,0.4c0,0-0.1,0-0.1,0.1c0,0,0,0,0,0v0.4l-1.6,0.2l0.1,0.8l6.9-0.7
		l-0.1-0.8L130.4,24.7z M126.4,24.9l3.8-0.4v0.3l-3.8,0.4V24.9z"/>
	<path class="st2" d="M132.4,25.5l-0.7,0.1h-0.1l-3.3,0.4h-0.1l-3.3,0.4h-0.1l-0.7,0.1c0,0-0.1,0-0.1,0.1v0.4c0,0,0,0.1,0.1,0.1
		c0,0,0,0,0,0l0.7-0.1l0.2,2h0.3V29H125v0.2l3.4-0.4h0.1l3.4-0.4v-0.2h-0.3v-0.1h0.3l-0.2-2l0.7-0.1c0,0,0.1,0,0.1-0.1L132.4,25.5
		C132.5,25.5,132.5,25.5,132.4,25.5z M124.8,26.7l-0.6,0.1v-0.3l0.6-0.1V26.7z M132.4,25.9l-0.6,0.1v-0.3l0.6-0.1V25.9z"/>
	<path class="st2" d="M53.2,23h-0.7h-0.1L49,22.7h-0.2l-3.3-0.2h-0.1h-0.7c0,0-0.1,0-0.1,0.1c0,0,0,0,0,0V23c0,0,0,0.1,0.1,0.1h0.7
		l-0.1,2h0.3v0.1h-0.3v0.2l3.4,0.2h0.2l3.4,0.2v-0.2H52v-0.1h0.3l0.1-2h0.7c0,0,0.1,0,0.1-0.1L53.2,23C53.2,23,53.2,23,53.2,23z
		 M45.5,23h-0.6v-0.3h0.7L45.5,23z M53.1,23.4h-0.6v-0.2h0.6V23.4z"/>
	<path class="st2" d="M59.8,28.5v-0.4c0,0,0-0.1-0.1-0.1l0,0l-4-0.2c0,0-0.1,0-0.1,0.1v0.4l-1.6-0.1l0,0.8l7,0.4v-0.8L59.8,28.5z
		 M55.8,27.9l3.8,0.2v0.3l-3.8-0.2V27.9z"/>
	<path class="st2" d="M61.7,29.5H61h-0.1l-3.3-0.2h-0.2l-3.3-0.2H54h-0.7c0,0-0.1,0-0.1,0.1v0.4c0,0,0,0.1,0.1,0.1H54l-0.1,2h0.3
		v0.1h-0.3V32l3.4,0.2h0.2l3.4,0.2v-0.2h-0.3V32h0.3l0.1-2l0.7,0c0,0,0.1,0,0.1-0.1v0L61.7,29.5C61.7,29.6,61.7,29.5,61.7,29.5z
		 M54,29.5h-0.7v-0.2H54L54,29.5z M61.6,29.9h-0.7v-0.2h0.6L61.6,29.9z"/>
	<path class="st2" d="M122.9,33.2h-0.7h-0.1l-3.3,0.2h-0.2l-3.3,0.2h-0.1h-0.7c0,0-0.1,0-0.1,0.1c0,0,0,0,0,0V34c0,0,0,0.1,0.1,0.1
		c0,0,0,0,0,0h0.7l0.1,2h0.3v0.1h-0.3v0.2l3.4-0.2h0.2l3.4-0.2v-0.2h-0.3v-0.2h0.3l-0.1-2h0.7c0,0,0.1,0,0.1-0.1c0,0,0,0,0,0v-0.4
		C123.1,33.2,123,33.1,122.9,33.2C123,33.2,122.9,33.2,122.9,33.2z M115.3,34h-0.6v-0.2h0.7L115.3,34z M122.9,33.6h-0.7v-0.2h0.6
		L122.9,33.6z"/>
	<path class="st2" d="M72.6,36.2h-8.4c0,0-0.1,0-0.1,0.1v0.4c0,0,0,0.1,0.1,0.1h0.7v2h0.3v0.1h-0.3v0.2h7v-0.2h-0.3v-0.1h0.3v-2h0.7
		c0,0,0.1,0,0.1-0.1v-0.4C72.7,36.2,72.7,36.1,72.6,36.2C72.6,36.1,72.6,36.1,72.6,36.2z M64.9,36.6h-0.6v-0.3h0.6V36.6z M72.5,36.6
		h-0.6v-0.3h0.6V36.6z"/>
	<path class="st3" d="M94.2,51l-0.4,0.4c-0.2,0.2-0.4,0.4-0.6,0.6c-0.1,0.1-0.2,0.3-0.1,0.5c0.1,0.7,0,1.4-0.1,2.1
		c0,0.1,0,0.3,0,0.4c0,0,0,0.1,0,0.2c0.1,0.2,0.1,0.5,0,0.7c0,0,0,0.1,0,0.2c0.1,0.2,0.1,0.3,0,0.5c0,0.1-0.1,0.1-0.1,0.1h-0.2
		c-0.1,0-0.1,0-0.2,0s0,0-0.1,0c0,0.1-0.1,0.1-0.2,0.1c-0.5,0.2-1,0.2-1.5,0.1c-0.1,0-0.1-0.1-0.1-0.2c0-0.1,0.1-0.2,0.2-0.3
		c0.2-0.1,0.4-0.2,0.6-0.3c0.1,0,0.1-0.1,0.1-0.2c-0.1-0.2,0-0.5,0.1-0.7c0-0.1,0.1-0.2,0.1-0.3c0.1-0.6,0.1-1.2,0-1.8
		c0-0.3,0-0.5,0-0.8c0-0.2,0.1-0.5,0.2-0.7c0.3-0.4,0.5-0.8,0.7-1.3c0.2-0.3,0.4-0.5,0.6-0.8c0,0,0.1,0,0-0.1s0,0-0.1,0
		c-0.2,0-0.3,0-0.3-0.2c0-0.1,0-0.1-0.1-0.1c0,0.2-0.2,0.2-0.4,0.3c-0.5,0.2-1.1,0.2-1.6,0.4c-0.1,0-0.1,0.1-0.1,0.1l0,0
		c-0.1,0.2-0.1,0.3-0.3,0.4s-0.1,0.1-0.2,0.2s0,0-0.1,0S90,50.4,90,50.5c-0.2,0.4-0.4,0.8-0.6,1.2s-0.3,0.7-0.4,1.1
		c-0.1,0.2,0,0.3,0.2,0.4c0,0,0,0,0,0l0.5,0.2c0.1,0,0.1,0,0,0.1c-0.4,0.7-1.1,1-1.9,0.9c-0.2,0-0.4-0.1-0.5-0.3
		c-0.1-0.2-0.2-0.5-0.1-0.7c0.1-0.2,0.2-0.4,0.3-0.6c0,0,0.1,0,0.1,0l0.5,0.2c0.1,0.1,0.3,0,0.3-0.1c0,0,0,0,0-0.1
		c0.4-0.9,0.8-1.8,1.2-2.7c0,0,0-0.1,0-0.1c-0.1-0.1-0.1-0.2,0-0.2c0.1-0.1,0.2-0.2,0.3-0.4c0.1-0.1,0.2-0.3,0.2-0.4
		c0.2-0.5,0.5-1,0.7-1.5c0-0.1,0-0.1,0-0.2c0,0-0.1-0.1-0.1-0.1c-0.1-0.1-0.1-0.2-0.1-0.4c0-0.2,0-0.3,0.1-0.5
		c-0.1,0.1-0.2,0-0.3-0.1s-0.2,0-0.2-0.1s0,0-0.1,0s0,0-0.1,0s-0.1,0.1-0.2,0c-0.1-0.1-0.2-0.3-0.3-0.4c-0.1,0-0.1,0-0.1,0
		c-0.1,0.1-0.2,0.1-0.2,0.1c-0.1,0-0.1-0.1-0.1-0.1l0,0c0.1-0.1,0.1-0.2,0-0.3c0,0,0,0,0,0c-0.1-0.1-0.1-0.2-0.1-0.3
		c0-0.1-0.1-0.2-0.1-0.4c0,0,0-0.1,0-0.1c0.1-0.5,0.6-0.9,1.1-0.9c0.3,0,0.6,0.2,0.8,0.4c0,0,0,0,0.1,0.1c0.1,0,0.1,0,0.1,0.1
		s0,0.1,0,0.2c0.1,0.1,0.2,0.2,0.2,0.4c0,0,0,0.1,0.1,0.1c0.1,0.1,0.1,0.1,0.2,0c0.1-0.2,0.2-0.3,0.4-0.4c0.2-0.1,0.4-0.1,0.6-0.1
		c0.1,0,0.1,0,0.2,0l0.5-0.2c0.1,0,0.3-0.1,0.4-0.1c0.1,0,0.2,0.1,0.2,0.2c0,0.3,0,0.5,0,0.8c0,0.1,0,0.1,0.1,0.2c0,0,0,0,0,0
		c0.4,0.3,0.8,0.7,1.2,1.1l0.7,0.8c0,0,0,0.1,0,0.2c0,0,0,0,0,0l-0.2,0.3c0,0,0,0.1,0,0.1c0.3,0.6,0.3,1.2,0,1.8c0,0.1,0,0.1,0,0.2
		c0,0.4,0,0.8,0,1.2c0,0.1,0,0.1,0,0.2l0.1,0.2c0.1,0.1,0.1,0.2,0,0.3c0,0,0,0.1,0,0.1c0.3,0.4,0.4,0.8,0.4,1.3c0,0.1,0,0.3,0,0.4
		c0,0.1,0,0.1,0,0.2c0.1,0.3,0.2,0.7,0.2,1c0,0.1,0,0.2,0,0.3c0,0.1,0,0.3-0.2,0.3c-0.1,0-0.2,0-0.2,0c-0.2,0-0.4,0-0.5-0.2
		c-0.1,0-0.2,0-0.2,0c-0.2,0-0.5,0-0.7-0.1c-0.1-0.1-0.2-0.2-0.2-0.4c0.1-0.1,0.2-0.2,0.3-0.2h0.1c0.2,0,0.2,0,0.1-0.2
		c0-0.1,0-0.1,0-0.2l0.1-0.5c0,0,0-0.1,0-0.2c-0.2-0.4-0.3-0.9-0.4-1.4c0-0.3-0.1-0.5-0.2-0.8L94.2,51z M90.7,49.2
		c0.2,0,0.4-0.1,0.5-0.2l0.4-0.3c0,0,0.1,0,0.1-0.1s0-0.1-0.1-0.2s-0.1-0.1-0.1-0.2c0-0.2-0.1-0.3-0.1-0.5L90.7,49.2z"/>
	<path class="st3" d="M105.9,28.7c0-0.1,0-0.1-0.1-0.2c-0.2-0.5,0-1.1,0.5-1.3c0.4-0.1,0.8,0.1,1,0.4c0.1,0.2,0.2,0.3,0.2,0.5
		c0,0.1,0.1,0.1,0.2,0.2c0.3,0.1,0.5,0.2,0.7,0.4c0.2,0.2,0.4,0.3,0.6,0.5c0.4,0.4,0.8,0.8,1.2,1.2c0.1,0.1,0.3,0.2,0.4,0.3
		c0.4,0.3,0.7,0.6,0.9,1c0.2,0.3,0.6,0.5,0.9,0.4c0.1,0,0.2,0,0.2,0.1c0.1,0.1,0.2,0.1,0.3,0.1l2.3-0.5c0.3-0.1,0.6-0.1,0.9-0.2
		s0.2-0.1,0.2-0.2c-0.1-0.3,0-0.7,0.3-0.8c0.1,0,0.1,0,0.2,0l1-0.2c0.2-0.1,0.4,0,0.4,0.2c0,0,0,0,0,0.1l0.2,1.4
		c0.1,0.2,0,0.4-0.2,0.5c0,0,0,0,0,0c-0.4,0.1-0.8,0.2-1.2,0.3s-0.6-0.2-0.7-0.5s0-0.3-0.3-0.2l-3.2,0.6c-0.1,0-0.3,0.1-0.4,0.2
		c0,0,0,0.1,0,0.1c0,0-0.1,0-0.1,0c-0.2-0.1-0.5-0.1-0.8-0.1l-3.4,0.7c-0.3,0.1-0.3,0.1-0.2,0.3c0.1,0.6,0.2,1.1,0.2,1.7
		c0,0.3,0.1,0.5,0.2,0.8c0.1,0.3,0,0.6-0.1,0.9c-0.1,0.3-0.1,0.6-0.1,0.9c0,0.7,0,1.4,0,2.1c0,0.2,0.1,0.4,0.3,0.5
		c0.2,0.2,0.4,0.3,0.7,0.4c0.2,0.1,0.3,0.2,0.4,0.3c0.1,0.1,0,0.3-0.1,0.3c-0.2,0-0.5,0-0.7,0c-0.4-0.1-0.8-0.2-1.2-0.2l-0.2-0.1
		c-0.1,0-0.1-0.1-0.1-0.2c0.1-0.2,0.1-0.4,0.2-0.5c0-0.9-0.1-1.7-0.2-2.6c-0.1-0.2-0.1-0.5-0.1-0.7c0-0.3-0.1-0.7-0.2-1
		c-0.1-0.2-0.2-0.4-0.2-0.6l-0.3-1.1c0-0.1-0.1-0.1-0.1-0.2c0,0.2-0.1,0.3-0.1,0.4c-0.1,0.7-0.2,1.4-0.2,2.1c0,0.3-0.1,0.5-0.2,0.8
		c0,0.1-0.1,0.1-0.2,0.2c0,0-0.1,0.1-0.1,0.2c-0.2,0.6-0.3,1.2-0.4,1.8c0,0.1,0,0.3,0,0.4c0,0.1,0,0.2,0,0.3c0,0.1,0,0.2,0.1,0.2
		c0.2,0.2,0.5,0.4,0.7,0.6c0.1,0.1,0.1,0.1,0.1,0.2c-0.1,0-0.1,0.1-0.2,0.1c-0.3,0-0.6,0-0.9,0s-0.5-0.3-0.7-0.4c0,0,0-0.1,0-0.1
		c0.2-0.5,0.3-1.1,0.3-1.7c0-0.5,0-1,0-1.5c0,0,0-0.1,0-0.1c0.1-0.4,0.2-0.8,0.2-1.2c0,0,0-0.1,0-0.1c0-0.3,0-0.5,0-0.8s0-0.8,0-1.2
		s-0.1-0.8-0.1-1.2c0,0,0-0.1-0.1-0.1c-0.2-0.2-0.4-0.4-0.7-0.6c-0.1-0.1-0.1-0.1-0.1-0.2c0-0.4,0.1-0.7,0.2-1.1
		c0.1-0.3,0.2-0.6,0.3-0.9c0,0,0-0.1,0-0.1l0.5-1c0.2-0.3,0.5-0.5,0.8-0.6L105.9,28.7z M111.7,32.6l-0.1-0.1
		c-0.2-0.2-0.5-0.4-0.7-0.6l-0.6-0.5l-1.6-1.2c-0.2-0.2-0.3-0.1-0.4,0.1c0,0,0,0,0,0.1c-0.3,0.5-0.4,1-0.5,1.5c0,0.2,0,0.3,0.1,0.5
		c0,0,0,0.1,0,0.1c-0.2,0.3,0.1,0.6,0.1,0.9L111.7,32.6z"/>
	<path class="st3" d="M42.9,18.5c-0.1,0.4-0.2,0.8-0.2,1.1s-0.1,0.9-0.2,1.3l0,0c-0.2,0.8-0.3,1.5-0.4,2.3c0,0.1,0,0.2,0,0.2
		c0,0.2,0,0.5,0,0.7c0,0.2,0,0.3,0,0.5c0.1,0.3,0,0.4-0.3,0.4c-0.2,0-0.3,0-0.5-0.1c-0.1,0-0.2-0.1-0.2-0.2c0-0.2,0.1-0.3,0.2-0.4
		c0.1-0.1,0.1-0.3,0.2-0.4c0-0.6,0-1.3-0.1-1.9c0-0.2,0-0.5,0-0.8c0-0.4,0-0.8,0.1-1.1c0,0,0-0.1,0-0.1c-0.1-0.2-0.1-0.4-0.1-0.6
		c0-0.1-0.1-0.2-0.1-0.4c0-0.3-0.1-0.6-0.2-0.9c-0.1-0.2-0.1-0.4-0.1-0.6c0-0.2,0-0.3,0-0.5c0-0.2,0-0.5,0-0.7c0-0.1,0-0.2,0-0.3
		c0-0.6,0-1.2-0.1-1.8c0-0.2,0-0.3-0.1-0.5c0-0.1-0.1-0.1-0.2-0.1c-0.3,0-0.6,0-0.9,0s-0.2,0-0.2,0.2c0,0,0,0,0,0.1
		c-0.2,0-0.3,0.2-0.3,0.4c0,0.2,0,0.5,0,0.7c0,1.1,0,2.2,0,3.3c0,1.6,0,3.2,0,4.8c0,0.2,0,0.5,0,0.7s0,0.2,0.2,0.2
		c0.1,0,0.3,0,0.4,0.1c0.1,0.1,0.3,0.2,0.3,0.3c0.1,0.4,0.2,0.8,0.2,1.1h-1.8c-0.1-0.4-0.2-0.8-0.3-1.2s0.1-0.5,0.5-0.5
		s0.2,0,0.2-0.2c0-1,0.1-2,0.1-3.1c0-0.6,0-1.1,0-1.7c0-1.6,0-3.1,0-4.7c0-0.1-0.1-0.2-0.1-0.2l-0.1-0.4c-0.1-0.3,0-0.6,0.2-0.7
		c0.1-0.2,0.3-0.2,0.5-0.1c0.3,0.2,0.6,0.1,0.9-0.1c0.1-0.1,0.3-0.2,0.4-0.2c0.2-0.1,0.4-0.3,0.7-0.4c0.1,0,0.2-0.3,0.1-0.4
		s-0.2-0.3-0.2-0.4c-0.2-0.3-0.1-0.7,0.1-0.9c0.3-0.2,0.7-0.3,1-0.1c0.3,0.2,0.4,0.6,0.3,1c0,0.1,0,0.2,0,0.2
		c0.1,0.2,0.3,0.3,0.6,0.3c0.3,0,0.7,0.1,0.9,0.4c0.3,0.4,0.6,0.7,0.9,1.1c0.1,0.2,0.2,0.4,0.1,0.6c-0.2,0.6-0.4,1.2-0.7,1.7
		c-0.1,0.2-0.2,0.4-0.4,0.6c0,0,0,0.1,0,0.1c0,0.2,0,0.3,0.1,0.5c0.1,0.3,0.2,0.5,0.2,0.8c0.1,0.4,0.1,0.9,0.1,1.3s0.1,0.9,0.1,1.3
		c0,0.2,0,0.5,0,0.7c0,0.7,0.1,1.5,0.1,2.2c0,0.3,0.2,0.7,0.5,0.9c0.2,0.1,0.5,0.2,0.7,0.4c0.2,0.1,0.3,0.2,0.5,0.3c0,0,0,0.1,0,0.1
		c0,0-0.1,0.1-0.1,0.1h-0.6l-1.4-0.2c-0.1,0-0.2-0.1-0.2-0.1c0-0.1,0.1-0.1,0.1-0.2c0-0.1,0.1-0.3,0.1-0.4c0-0.5-0.1-1-0.3-1.5
		c-0.1-0.3-0.1-0.6-0.2-0.9c0-0.1-0.1-0.2-0.1-0.3c0-0.1,0-0.1-0.1-0.2c0-0.4-0.1-0.8-0.1-1.2c0-0.2-0.1-0.3-0.2-0.5
		c-0.1-0.2-0.1-0.4-0.2-0.6C43.1,18.6,43,18.5,42.9,18.5L42.9,18.5z M44,13.3c-0.1,0.7-0.1,1.3,0.1,2c0,0,0.1,0,0.1-0.1
		c0.1-0.1,0.1-0.1,0.1-0.2c0.1-0.4,0.2-0.8,0.3-1.2c0-0.1,0-0.1-0.1-0.2C44.4,13.5,44.2,13.4,44,13.3z"/>
	<path class="st3" d="M74.3,29.6c0.6-0.4,1.2-0.5,1.9-0.4c0.8,0.1,1.6,0.5,2.3,1.1c0.1,0.1,0.1,0.1,0.1,0.2c0,0.2,0.1,0.2,0.2,0.3
		c0.1,0,0.2,0.1,0.2,0.1c0.2,0.5,0.4,1,0.7,1.4c0.2,0.4,0.3,0.8,0.4,1.1c0,0.1,0.1,0.1,0.1,0.2c0.1,0.1,0.2,0.3,0.1,0.4
		c0,0,0,0.1-0.1,0.1c-0.1,0.1-0.2,0.2-0.3,0.2s-0.2,0.2-0.4,0c-0.1,0-0.1,0-0.2,0c-0.4,0.2-0.7,0.3-1.1,0.5c-0.1,0-0.1,0.1-0.1,0.2
		c0,0.3,0.1,0.5,0.2,0.8c0.2,0.4,0.3,0.9,0.3,1.3c0,0.8,0.1,1.7,0.3,2.5c0,0.1,0,0.2-0.1,0.3c-0.4,0.3-0.9,0.4-1.4,0.3
		c-0.1,0-0.2,0-0.2-0.2c0-0.1,0-0.2,0.1-0.3c0.2-0.1,0.3-0.2,0.5-0.3c0.1-0.1,0.2-0.2,0.2-0.2c0.1-0.3,0.1-0.6,0-0.8
		c-0.2-0.7-0.4-1.5-0.6-2.2c0-0.1-0.1-0.1-0.2-0.1C77,36.2,77,36.1,77,36s0-0.2,0-0.4l-1.7,0.8c-0.1,0-0.1,0.1-0.1,0.2
		c0,0.4,0,0.8,0,1.3c0.1,0.4,0.2,0.8,0.3,1.2c0,0.2,0,0.3-0.2,0.3l-1.2,0.2l-0.7,0.1c-0.1,0-0.2-0.1-0.3-0.2c0,0,0,0,0,0
		c0-0.2,0.1-0.2,0.2-0.3l0.9-0.4c0.1-0.1,0.2-0.2,0.2-0.4c0.1-0.4,0-0.8-0.1-1.1c-0.1,0-0.2,0.1-0.2,0.1c-0.1,0-0.1,0-0.2-0.1
		c0,0-0.1,0-0.1,0l-2.3,1.4c-0.1,0.1-0.2,0.1-0.2,0.1l-0.7,0.2c-0.1,0-0.2,0.1-0.4,0.1L69,39h-0.2l0,0c0,0,0.1-0.1,0.1-0.1
		c0.2,0,0.4-0.1,0.6-0.2c0.1-0.1,0.2-0.1,0.3-0.1c0.4,0,0.8,0,1.2,0c0.1,0,0.2,0,0.3-0.1l2.4-1.5c0.1-0.1,0.3-0.1,0.2-0.3
		c0,0,0-0.1,0-0.1c0.2-0.3,0.3-0.8,0.2-1.2c-0.2,0-0.2-0.1-0.2-0.3s0-0.6,0-0.9c0-0.2,0-0.5,0-0.7c0-0.4-0.1-0.7-0.3-1.1
		c-0.2-0.3-0.3-0.6-0.4-0.9c0-0.1-0.1-0.2-0.2-0.1s-0.2,0-0.2-0.1c0-0.1-0.1-0.2-0.1-0.3c-0.1-0.2-0.3-0.4-0.2-0.7
		c0-0.2,0.1-0.3,0.2-0.5c0.2-0.4,0.6-0.5,1-0.3c0,0,0,0,0,0c0.1,0.1,0.3,0.1,0.4,0.2L74.3,29.6z M77,35.3c0.1,0,0.1-0.2,0.1-0.3
		c0-0.3,0-0.6,0-0.8s0-0.5,0.1-0.8c0-0.2,0-0.3,0-0.5c-0.1,0-0.1,0.1-0.1,0.1c-0.3,0.4-0.7,0.7-1,1.1c-0.3,0.3-0.5,0.6-0.7,0.9
		c-0.1,0.1-0.1,0.3-0.1,0.5c0,0.2,0.1,0.5,0.2,0.7C75.8,35.9,76.4,35.6,77,35.3z M78.3,34.7l0.4-0.2l0.3-0.2
		c0.1-0.1,0.3-0.1,0.4-0.2c0.1-0.3,0.1-0.6,0-0.8c-0.2-0.3-0.3-0.6-0.5-0.9h-0.1C78.7,33.2,78.3,33.8,78.3,34.7L78.3,34.7z
		 M74.6,33.3c0.2-0.3,0-1.2,0.2-1.5c-0.2,0-0.1,0.5-0.3,0.5L74.6,33.3z"/>
	<path class="st3" d="M150.4,26.2c-0.3-0.2-0.6-0.7-0.9-0.9s-0.3-0.8-0.7-1c-0.2-0.1,0.1-0.4,0-0.5c-0.3-0.4-0.1-0.9-0.2-1.4l0,0
		c0-2.3,1.1-4.4,3-5.6c0.4-0.2,0.7-0.5,1.1-0.8c0.1-0.1,0.2-0.1,0.2-0.2s-0.2-0.1-0.3-0.1c-0.4,0-0.6-0.2-0.5-0.6s0.3-0.8,0-1.3
		c0,0,0-0.1,0-0.1c0-0.1,0-0.2,0.1-0.3c0.1,0,0.2,0,0.3,0.1c0.1,0.1,0.1,0.1,0.2,0.2c0.1-1.2,0.2-2.4,0.2-3.6c0-0.2,0-0.5-0.2-0.7
		c-0.2-0.3-0.2-0.7,0-0.9c0,0,0,0,0.1-0.1c0.1,0,0.1-0.1,0.1-0.2c0.2-0.4,0.6-0.6,1.1-0.7c2.3-0.2,4.6-0.3,6.9-0.3
		c0.4,0,0.8,0.1,1.1,0.3c0.2,0.1,0.4,0.2,0.6,0.3c0.4,0.1,0.4,0.3,0.2,0.6c-0.2,0.1-0.2,0.3-0.2,0.5l0.8,4.4c0,0.3,0.3,0.5,0.6,0.4
		c0.9-0.1,1.7-0.1,2.6-0.1c0.4,0,0.5-0.1,0.5-0.5c0-1.7,0-3.4-0.1-5c0-0.2-0.1-0.5-0.3-0.6c-0.3-0.1-0.2-0.3,0-0.4
		c0.3-0.1,0.6-0.2,0.9-0.1c0.3,0.1,0.5,0.2,0.2,0.5c-0.1,0.1-0.1,0.2-0.1,0.4c0,1.8,0.1,3.5,0.1,5.3c0,0.3,0.1,0.4,0.4,0.4
		s0.4-0.1,0.4-0.4c0-1.3,0-2.6,0-3.9c0-0.2,0-0.4,0.1-0.5s0.3-0.4,0.3-0.6c0-0.8,0-1.5,0-2.3c0-0.3,0.2-0.5,0.5-0.4s0.1,0.3,0.1,0.4
		l0.1,2.3c0,0.2,0,0.4,0.1,0.4c0.5,0.2,0.4,0.6,0.4,1c0.1,1.1,0.1,2.3,0.1,3.4c0,0.6,0.3,0.8,0.9,0.6c0.1,0,0.2-0.1,0.2-0.1
		c0.2-0.1,0.4-0.1,0.6,0c0.2,0.1,0.4,0.2,0.6,0.1h1.4c0.6,0.1,1.1,0.1,1.6-0.1c0.1-0.1,0.3-0.1,0.4,0c0.2,0.1,0.5,0.2,0.8,0.2
		c0.4,0,0.9,0.1,1.3,0.1c0.2,0,0.4,0.1,0.5,0.3c0.5,0.7,0.7,1.5,0.8,2.3c0,1-0.1,2-0.1,3c0.1-0.6,0.4-0.6,0.9-0.6s1.2,0,1.8,0
		s0.7,0.1,0.7,0.7c-0.1,0.7-0.2,1.5-0.4,2.2c-0.1,0.3-0.3,0.4-0.6,0.4c-0.4,0-0.8,0.1-1.1,0.1c-0.2,0-0.4,0.2-0.4,0.5
		c0,0.1,0,0.2,0.1,0.2c0.1,0.2,0.1,0.5,0,0.7c-0.3,0.4-0.3,0.9-0.2,1.3c0.1,0.2,0,0.4-0.2,0.5c0,0-0.1,0-0.1,0
		c-0.2,0-0.4,0.2-0.5,0.4l-7.8,0.1c0.1-0.1-0.1-0.2-0.2-0.3c-0.1,0-0.2,0-0.3,0c-0.2,0-0.3-0.2-0.3-0.4c0-0.8-0.1-0.8-0.9-0.7
		c-0.5,0.1-0.6,0-0.7-0.5c0-0.1,0-0.2,0-0.3c0-0.3-0.2-0.4-0.4-0.4c-0.7,0-1.4,0.1-2.1,0.2c-0.7,0.2-1.5-0.1-2.1,0.5
		c0,0-0.2,0-0.3,0l-2.6,0.1c-0.1,0-0.3,0-0.4,0.2c-0.2,0.6-0.5,1.1-0.9,1.5L150.4,26.2z M154.3,12.8c0.1-0.2,0.1-0.6,0.4-0.8
		c0.3-0.3,0.4-0.7,0.3-1.1c-0.1-0.5,0.1-0.7,0.4-0.8c0.4-0.2,0.8,0,1,0.4c0,0.1,0.1,0.2,0.2,0.2c0.2,0.1,0.2,0.1,0,0.3
		c-0.3,0.2-0.3,0.6-0.1,0.8c0,0,0.1,0.1,0.1,0.1c0.4,0.4,0.8,0.8,1.2,1.1c0.2,0.1,0.3,0.4,0.6,0.2s0.5-0.4,0.5-0.7
		c0-0.8,0-1.7,0-2.5c0-0.2-0.1-0.3-0.3-0.3c-1.3,0-2.7,0.1-4,0.1c-0.1,0-0.3,0.1-0.3,0.3c0,0,0,0,0,0
		C154.3,11.1,154.3,12,154.3,12.8L154.3,12.8z M162,9.5c-0.2,0.6-0.4,1.1-0.6,1.7c-0.3,0.5-0.4,1.1-0.3,1.6c0,0,0,0-0.1,0.1
		c-0.2-0.2-0.1-0.4-0.3-0.6c0,0.3,0,0.6,0,0.8c0,0.7,0,0.7,0.7,0.6c0.1,0,0.3,0,0.4,0c0.4,0,0.5-0.2,0.5-0.5
		C162.2,11.9,162.1,10.7,162,9.5z M167.7,23.2c0.4,0,0.6-0.1,0.9-0.1c0.7,0,0.7,0,0.8-0.7c0.1-0.4-0.1-0.6-0.5-0.7
		c-0.6-0.1-0.9,0-0.9,0.4s-0.2,0.5-0.5,0.5c-0.1,0-0.2,0.1-0.2,0.2c0,0.1,0.1,0.3,0.2,0.3C167.6,23.2,167.7,23.2,167.7,23.2
		L167.7,23.2z M162.3,8.8c-0.1,0.1-0.2,0.3-0.1,0.5c0.1,0.7,0.2,1.4,0.2,2.1s0.1,1.3,0.2,1.9c0,0.2,0.1,0.4,0.4,0.3s0.2-0.2,0.2-0.4
		s-0.1-0.5-0.1-0.8C162.8,11.2,162.6,10.1,162.3,8.8z M160.6,10.2c0,0.2,0,0.5,0.1,0.7c0,0.2,0.1,0.2,0.3,0.1
		c0.3-0.3,0.5-0.7,0.6-1.1c0-0.1,0.1-0.2-0.1-0.2c-0.3-0.1-0.5-0.1-0.8,0C160.4,9.8,160.6,10.1,160.6,10.2z"/>
	<polygon class="st0" points="-2.4,21.9 19.8,21.9 22.8,23.7 28.1,22.8 38.3,22.8 45.3,24.5 48.2,24.9 52.5,25.6 55.2,31 60.5,31.9 
		62.8,36.3 62.8,38.9 72.9,39.1 82.9,41.1 84.7,47.1 85,54.2 86.2,55.3 92.7,55.2 98.9,55.2 99.3,49 102,41.3 107,40.9 112.1,40.8 
		112.2,39.1 113.2,36.1 113.8,36 117,35.5 122.5,35.7 123.3,28.8 130.2,28.1 133.8,26.2 140.1,25.8 141.7,26 169.5,24.9 175.7,24.9 
		200,25.3 200,103.5 -2.4,103.5 	"/>
</g>
</svg>
