<?xml version="1.0" encoding="utf-8"?>
<!-- Generator: Adobe Illustrator 22.0.1, SVG Export Plug-In . SVG Version: 6.00 Build 0)  -->
<svg version="1.1" id="Capa_1" xmlns="http://www.w3.org/2000/svg" xmlns:xlink="http://www.w3.org/1999/xlink" x="0px" y="0px"
	 viewBox="0 0 200 100" style="enable-background:new 0 0 200 100;" xml:space="preserve">
<style type="text/css">
	.st0{fill:#708088;}
	.st1{fill:#9B9B9B;}
	.st2{fill:#CCCCCC;}
</style>
<title>riñihuazo</title>
<g id="Capa_1_1_">
	<path class="st0" d="M92.9,54.1l-0.1,0.3c0,0.1-0.1,0.1-0.2,0.1c-0.1-0.1-0.2,0-0.3,0c0,0,0,0.1,0,0.1c0,0.2,0,0.4,0,0.6
		c0,0.2,0,0.4,0,0.6c0,0,0,0.1,0,0.1c0,0.4,0.1,0.8,0.3,1.2c0.2,0.3,0.3,0.7,0.4,1.2c0,0.2,0.1,0.5,0.2,0.7c0.1,0.2,0.1,0.4,0.2,0.7
		c0.1,0.3,0.1,0.6,0.2,0.9c0,0,0,0.1,0.1,0.1c0.3,0.5,0.6,1.1,0.9,1.6c0.2,0.3,0.3,0.6,0.4,0.8c0,0.1,0.1,0.2,0.2,0s0.1,0,0.2,0
		c0.1,0,0.1,0.1,0.1,0.2c0,0,0,0.1,0,0.1s0.1,0,0.1-0.1l0.1-0.1c0.1-0.1,0.2-0.1,0.3,0c0.3,0.4,0.7,0.9,1,1.3c0,0.1,0.1,0.1,0.1,0.2
		c0.2,0.2,0.2,0.5,0.1,0.7c-0.1,0.3-0.2,0.5-0.3,0.8c0,0.1-0.1,0.1-0.2,0.1c-0.3,0.1-0.6,0.1-0.9,0c-0.1,0-0.1-0.1-0.2-0.2
		c-0.3-0.4-0.6-0.8-0.9-1.2c-0.1-0.1-0.1-0.1-0.2,0c-0.1,0.1-0.1,0.2-0.2,0.3c0,0.1-0.1,0.1-0.2,0.2c-0.1,0-0.1-0.1-0.2-0.1
		s-0.3-0.3-0.4-0.5c0,0-0.1,0-0.1,0c-0.2,0.1-0.2,0.1-0.4-0.1c-0.3-0.5-0.6-1-0.9-1.5c-0.2-0.3-0.4-0.6-0.6-0.9
		c-0.5-0.8-1.1-1.6-1.8-2.3c-0.1-0.1-0.1-0.1-0.2,0c-0.1,0.5-0.3,0.9-0.4,1.4c0,0.1-0.1,0.2-0.1,0.2c-0.2,0.2-0.3,0.5-0.3,0.8
		c-0.1,0.3-0.2,0.5-0.4,0.7c-0.1,0.1-0.1,0.1-0.1,0.2c0.1,0.6,0.1,1.2,0.1,1.8c0,0,0,0.1,0.1,0.1s0.2,0,0.2,0.1c0,0.1,0,0.2-0.1,0.3
		c-0.1,0.1-0.2,0.2-0.3,0.2c-0.3,0.1-0.5,0.2-0.8,0.3c-0.1,0-0.2,0.1-0.3,0.1c-0.1,0-0.2-0.1-0.2-0.2c-0.1-0.3,0-0.6,0-0.9
		s0.1-0.8,0.1-1.2c0-0.6,0.1-1.2,0.2-1.8c0.1-0.3,0.1-0.5,0.2-0.8c0.1-0.2,0.1-0.4,0.1-0.6c0-0.2,0-0.5,0-0.8c0-0.1,0-0.3,0-0.4
		c0-0.3-0.1-0.5,0-0.8c0,0,0-0.1,0-0.1c-0.2,0-0.2-0.2-0.2-0.3s0-0.4,0-0.7c0-0.1,0-0.2-0.1-0.3c0-0.1,0-0.1,0-0.2
		c0.2-0.3,0.3-0.7,0.4-1c0.1-0.2,0.1-0.4,0.2-0.5c0.2-0.3,0.3-0.6,0.4-0.9c0.1-0.1,0-0.2-0.1-0.2c0,0,0,0,0,0
		C88,54.5,88,54.3,88,54.2c0-0.1,0.1-0.1,0.1-0.1c0.3-0.2,0.5-0.5,0.9-0.6c0,0,0.1,0,0.1-0.1c0.2-0.3,0.6-0.4,0.9-0.6
		c0.1-0.1,0.2-0.1,0.3,0c0.2,0.1,0.4,0.1,0.6,0.1c0,0,0,0.1,0.1,0.1c0.2,0.1,0.3,0,0.4-0.1c0.1-0.1,0.3-0.3,0.4-0.5
		c0.3-0.3,0.7-0.3,1-0.2c0.5,0.2,0.8,0.8,0.7,1.3c0,0.1,0,0.1-0.1,0.2c-0.2,0.2,0,0.4,0,0.7s0.1,0.1,0,0.2s-0.1,0-0.2,0
		C93.1,54.4,92.9,54.2,92.9,54.1z M93.9,63.7c0.1,0,0.3,0,0.4-0.1c0.1,0,0.1-0.1,0.1-0.1c0,0,0,0,0,0c-0.1-0.1-0.1-0.3-0.2-0.4
		c-0.4-0.7-0.7-1.4-1.1-2c-0.1-0.2-0.2-0.4-0.4-0.5l0,0c0-0.2-0.3-0.4-0.2-0.6c0,0,0-0.1,0-0.1l-1.2-2.2l-0.4-0.8
		c0-0.1-0.1-0.1-0.2-0.1s-0.1,0.1-0.1,0.1l-0.1,0.5c-0.1,0.2-0.4,0.5,0,0.8l0,0c0.1,0.2,0.2,0.4,0.4,0.5c0.4,0.3,0.7,0.6,1,1
		c0.1,0.1,0.2,0.3,0.3,0.4c0.3,0.2,0.5,0.5,0.5,0.8c0,0.2,0.1,0.4,0.2,0.7c0.1,0.3,0.2,0.6,0.4,1c0.2,0.3,0.4,0.7,0.5,1.1
		C93.7,63.7,93.8,63.8,93.9,63.7L93.9,63.7z M91.5,57.3L91.5,57.3c-0.1-0.3-0.1-0.6-0.2-0.9c0-0.1-0.1-0.1-0.1-0.2
		c0,0-0.1-0.1-0.2,0s0,0.1,0,0.2c0.1,0.1,0.1,0.2,0.2,0.4C91.3,57,91.4,57.2,91.5,57.3L91.5,57.3z"/>
</g>
<g id="Capa_2_1_">
	<path class="st0" d="M110.8,24.6c-0.1,0.1-0.1,0.2-0.1,0.3s-0.1,0.4,0.1,0.5c0,0,1,1.7,1,1.8s0.3,0.3,0.5,0.1
		c0.1-0.1,0.1-0.1,0.2-0.1c0.1,0,0.2-0.1,0.2-0.3c0-0.2,0.2-0.5,0.3-0.6c0,0.2,0.1,0.4,0.1,0.5c0,0.3,0,0.5-0.1,0.8
		c-0.1,0.2-0.1,0.4-0.1,0.6c0,0.1,0,0.2-0.1,0.3c-0.1,0.2-0.1,0.3,0,0.5c0,0,0,0.1,0,0.1c-0.1,0.5,0,1,0.2,1.4
		c0.1,0.5,0.3,1.1,0.3,1.6c0,0.3,0,0.7,0,1c0,0.5,0,0.9,0.1,1.4c0,0.2,0.1,0.4,0.1,0.7c0,0.1,0,0.3,0,0.4c0,0.1,0,0.1,0,0.2
		c0.1,0.1,0.1,0.3,0,0.4c-0.1,0.1-0.1,0.3-0.1,0.5c0,0.1,0,0.1,0.1,0.1c0.2,0,0.4,0,0.6,0c0.1,0,0.2-0.1,0.2-0.2
		c0-0.3,0-0.6,0.1-0.9c0-0.1,0-0.2-0.1-0.2c-0.1,0-0.1-0.1-0.1-0.2c0-0.4,0-0.8,0.1-1.3c0-0.1,0-0.2,0-0.3c-0.1-0.4,0-0.8,0.1-1.1
		c0.1,0.1,0.1,0.3,0.1,0.4c-0.1,0.2-0.1,0.5,0,0.7c0,0.3,0,0.6-0.1,0.8c-0.1,0.2,0,0.4,0.1,0.5c0.1,0.2,0.2,0.4,0.1,0.6
		c0,0.2,0,0.3,0,0.5c0,0.2,0.2,0.3,0.4,0.3c0.2,0,0.4,0,0.4-0.3c0-0.3,0-0.6-0.1-0.8c-0.1-0.2-0.2-0.5-0.1-0.8c0-0.1,0-0.1,0-0.2
		c-0.1-0.1,0-0.2,0-0.4c0.2-0.5,0.3-1.1,0.2-1.6c0-0.3,0-0.6,0.1-0.9c0.1-0.6,0.2-1.3,0.2-2c0-0.1,0-0.2,0.1-0.2s0.1-0.1,0.1-0.2
		c0-0.1-0.1-0.3-0.1-0.4c-0.1-0.2-0.1-0.4-0.1-0.6c0-0.1,0-0.1,0-0.2c-0.1-0.2-0.1-0.4-0.1-0.6c0-0.2,0-0.3,0-0.5c0-0.2,0-0.5,0-0.8
		c0-0.1,0.1-0.2,0.2-0.1l0.5,0.2c0.1,0,0.2,0.1,0.2,0.1c0.2,0.2,0.4,0.2,0.6,0.3c0.1,0.1,0.3,0,0.4-0.2c0,0,0,0,0,0
		c0.2-0.2,0.3-0.5,0.4-0.8c0-0.1,0-0.2,0-0.2l0.3-0.3c0-0.1,0-0.2,0.1-0.2l0,0c0.1-0.3,0.1-0.6-0.1-0.8h-0.6c0,0,0,0.1,0,0.1
		c-0.2,0.2-0.3,0.5-0.4,0.9c0,0.2-0.2,0.2-0.2,0.4s-0.1,0-0.1,0c0-0.1-0.2-0.2-0.3-0.2c-0.1,0-0.2,0-0.2-0.1
		c-0.2-0.3-0.5-0.5-0.8-0.6c-0.2-0.1-0.4-0.1-0.5-0.1l0,0c0,0,0.2,0,0.2-0.1s-0.1-0.1-0.1-0.2c-0.2-0.1-0.3-0.3-0.2-0.5
		c0-0.2,0-0.5,0-0.7c0-0.3,0-0.6-0.3-0.8c-0.1-0.1-0.2-0.1-0.3-0.1c-0.2,0-0.4,0-0.6,0c-0.1,0-0.2,0.1-0.2,0.2
		c0,0.1-0.1,0.2-0.1,0.3c-0.1,0.2-0.1,0.4,0,0.5c0,0.1,0,0.1,0,0.2c0,0.1,0,0.3,0.1,0.4c0.1,0.1,0.1,0.2-0.1,0.2
		c-0.1,0-0.2,0.1-0.3,0.2c-0.1,0.1-0.2,0.2,0,0.3s0,0.1-0.1,0.2c-0.2,0.1-0.3,0.1-0.4,0.2c-0.1,0-0.1,0.1-0.1,0.1
		c-0.1,0.2-0.3,0.4-0.4,0.7c0,0.1,0,0.1,0,0.2c0,0.2-0.1,0.4-0.3,0.5c0-0.2,0-0.4-0.1-0.5c0-0.1,0-0.2,0-0.2c0-0.1,0.1-0.3-0.1-0.4
		l-0.1-0.1C111.3,24.6,111.1,24.5,110.8,24.6L110.8,24.6z"/>
	
		<rect x="109.7" y="6.3" transform="matrix(0.9982 -6.035181e-02 6.035181e-02 0.9982 -1.1444 6.7017)" class="st1" width="1.4" height="32"/>
	
		<rect x="102.6" y="19.2" transform="matrix(4.658340e-02 -0.9989 0.9989 4.658340e-02 93.2053 137.4753)" class="st1" width="32" height="1.4"/>
	<rect x="138.2" y="24.4" class="st1" width="32" height="0.7"/>
	<rect x="138.6" y="23.7" class="st1" width="32" height="0.7"/>
	<rect x="137.6" y="23" class="st1" width="32" height="0.7"/>
	<rect x="138.2" y="22.4" class="st1" width="32" height="0.7"/>
	<rect x="137.6" y="21.7" class="st1" width="32" height="0.7"/>
	<rect x="136.6" y="21" class="st1" width="32" height="0.7"/>
	<rect x="137.2" y="20.4" class="st1" width="32" height="0.7"/>
	<rect x="139.9" y="20" class="st1" width="32" height="0.7"/>
	<rect x="138.9" y="19.3" class="st1" width="32" height="0.7"/>
	<rect x="139.5" y="18.7" class="st1" width="32" height="0.7"/>
	<rect x="138.9" y="18" class="st1" width="32" height="0.7"/>
	<rect x="137.8" y="17.3" class="st1" width="32" height="0.7"/>
	<rect x="138.5" y="16.7" class="st1" width="32" height="0.7"/>
	<polygon class="st2" points="0,21 21.1,21 24,22.8 29.4,21.9 39.4,21.9 46.4,23.6 49.3,24 53.6,24.6 56.2,30 63.7,32.9 67.7,36.3 
		73.8,38 81.8,40.8 84.2,46.5 85.8,64.2 87,65.3 93.4,65.2 99.6,65.2 100,47.8 102.6,40.2 107.6,39.8 113.7,35 123.6,30.1 
		130.7,27.2 134.2,25.3 140.5,24.9 142,25.1 169.6,23.9 175.8,23.9 200,24.4 200,100 0,100 	"/>
	<rect x="85" y="33.6" transform="matrix(0.988 -0.1545 0.1545 0.988 -6.6369 13.8372)" class="st1" width="1.4" height="32"/>
	<rect x="84.5" y="48.9" transform="matrix(0.2031 -0.9792 0.9792 0.2031 31.5343 137.968)" class="st1" width="32" height="1.4"/>
	<polygon class="st1" points="101.6,49.8 101.5,50.2 101.6,50.5 101.7,50.8 101.7,51.1 94,51.1 84.4,51 84,50.9 84.8,49.7 
		100.8,49.7 101.5,49.6 101.6,49.7 	"/>
	<polygon class="st1" points="83.3,44.3 83.4,44 83.3,43.6 83.2,43.4 83.2,43.1 91.7,43.1 102.3,43.1 102.7,43.3 101.9,44.5 
		84.1,44.5 83.4,44.6 83.3,44.4 	"/>
</g>
</svg>
