<svg xmlns="http://www.w3.org/2000/svg" xmlns:xlink="http://www.w3.org/1999/xlink" viewBox="0 0 100 200">
    <defs>
        <style>
            .cls-1 {
                isolation: isolate;
            }
            .cls-2,
            .cls-32,
            .cls-33,
            .cls-5,
            .cls-6 {
                fill: none;
                stroke-miterlimit: 10;
            }
            .cls-2 {
                stroke: #000;
                stroke-width: 0.1px;
            }
            .cls-27,
            .cls-3 {
                font-size: 3px;
                font-family: 'Alegreya Sans', sans-serif;
            }
            .cls-4,
            .cls-8 {
                fill: #2bbba0;
            }
            .cls-5 {
                stroke: #2bbba0;
                stroke-width: 0.5px;
            }
            .cls-6 {
                stroke: #58595c;
            }
            .cls-32,
            .cls-33,
            .cls-6 {
                stroke-width: 0.25px;
            }
            .cls-7 {
                fill: #58595c;
            }
            .cls-31,
            .cls-33,
            .cls-8 {
                mix-blend-mode: multiply;
            }
            .cls-9 {
                letter-spacing: 0em;
            }
            .cls-10 {
                letter-spacing: -0.02em;
            }
            .cls-11 {
                letter-spacing: -0.02em;
            }
            .cls-12 {
                letter-spacing: -0.03em;
            }
            .cls-13 {
                letter-spacing: -0.1em;
            }
            .cls-14,
            .cls-27 {
                letter-spacing: -0.01em;
            }
            .cls-15 {
                letter-spacing: -0.02em;
            }
            .cls-16 {
                letter-spacing: 0em;
            }
            .cls-17 {
                letter-spacing: -0.01em;
            }
            .cls-18 {
                letter-spacing: -0.03em;
            }
            .cls-19 {
                letter-spacing: -0.01em;
            }
            .cls-20 {
                letter-spacing: -0.01em;
            }
            .cls-21 {
                letter-spacing: 0em;
            }
            .cls-22 {
                letter-spacing: -0.02em;
            }
            .cls-23 {
                fill: url(#Degradado_sin_nombre_20);
            }
            .cls-24 {
                fill: url(#Degradado_sin_nombre_17);
            }
            .cls-25 {
                fill: url(#Degradado_sin_nombre_19);
            }
            .cls-26 {
                fill: url(#Degradado_sin_nombre_16);
            }
            .cls-28 {
                letter-spacing: -0.01em;
            }
            .cls-29 {
                letter-spacing: -0.01em;
            }
            .cls-30 {
                letter-spacing: -0.06em;
            }
            .cls-31 {
                opacity: 0.7;
            }
            .cls-32,
            .cls-33 {
                stroke: #ccc;
            }
        </style>
        <linearGradient id="Degradado_sin_nombre_20" x1="-33.56" y1="106.74" x2="23.18" y2="106.74" gradientTransform="translate(-48.41 126.34) rotate(-90)" gradientUnits="userSpaceOnUse">
            <stop offset="0" stop-color="#2bbba0" stop-opacity="0.8" />
            <stop offset="0.26" stop-color="#2fbca2" stop-opacity="0.79" />
            <stop offset="0.42" stop-color="#3bc0a7" stop-opacity="0.74" />
            <stop offset="0.56" stop-color="#4fc7b0" stop-opacity="0.66" />
            <stop offset="0.68" stop-color="#6cd0bd" stop-opacity="0.55" />
            <stop offset="0.79" stop-color="#92dcce" stop-opacity="0.41" />
            <stop offset="0.89" stop-color="#c0ebe3" stop-opacity="0.24" />
            <stop offset="0.99" stop-color="#f6fcfb" stop-opacity="0.03" />
            <stop offset="1" stop-color="#fff" stop-opacity="0" />
        </linearGradient>
        <linearGradient id="Degradado_sin_nombre_17" x1="76.45" y1="112.81" x2="100.23" y2="112.81" gradientTransform="matrix(-0.22, -0.98, 0.98, -0.22, -25.7, 149.58)" gradientUnits="userSpaceOnUse">
            <stop offset="0" stop-color="#2bbba0" stop-opacity="0.8" />
            <stop offset="0.15" stop-color="#32bda3" stop-opacity="0.77" />
            <stop offset="0.31" stop-color="#45c3ac" stop-opacity="0.7" />
            <stop offset="0.49" stop-color="#66ceba" stop-opacity="0.58" />
            <stop offset="0.67" stop-color="#93dccf" stop-opacity="0.41" />
            <stop offset="0.86" stop-color="#cdefe9" stop-opacity="0.19" />
            <stop offset="1" stop-color="#fff" stop-opacity="0" />
        </linearGradient>
        <linearGradient id="Degradado_sin_nombre_19" x1="76.28" y1="94.97" x2="76.28" y2="69.13" gradientTransform="translate(-48.41 126.34) rotate(-90)" gradientUnits="userSpaceOnUse">
            <stop offset="0" stop-color="#2bbba0" stop-opacity="0.8" />
            <stop offset="0.13" stop-color="#33bea4" stop-opacity="0.77" />
            <stop offset="0.31" stop-color="#49c5ae" stop-opacity="0.69" />
            <stop offset="0.5" stop-color="#6ed1be" stop-opacity="0.55" />
            <stop offset="0.7" stop-color="#a2e1d5" stop-opacity="0.35" />
            <stop offset="0.92" stop-color="#e3f6f2" stop-opacity="0.11" />
            <stop offset="1" stop-color="#fff" stop-opacity="0" />
        </linearGradient>
        <linearGradient id="Degradado_sin_nombre_16" x1="42.82" y1="98.41" x2="69.38" y2="98.41" gradientTransform="translate(-48.41 126.34) rotate(-90)" gradientUnits="userSpaceOnUse">
            <stop offset="0" stop-color="#2bbba0" stop-opacity="0.8" />
            <stop offset="0.13" stop-color="#33bea3" stop-opacity="0.77" />
            <stop offset="0.31" stop-color="#49c5ae" stop-opacity="0.69" />
            <stop offset="0.5" stop-color="#6ed0be" stop-opacity="0.55" />
            <stop offset="0.7" stop-color="#a1e1d5" stop-opacity="0.35" />
            <stop offset="0.92" stop-color="#e3f6f2" stop-opacity="0.11" />
            <stop offset="1" stop-color="#fff" stop-opacity="0" />
        </linearGradient>
    </defs>
    <title>riñihuazo</title>
    <g class="cls-1">
        <g id="Capa_11" data-name="Capa 11">
            <image
                id="awf3NG"
                width="1280"
                height="612"
                transform="translate(0.01 208.08) rotate(-90) scale(0.17)"
                xlink:href="01-imagen-como-imagen.webp"
            />
            <polyline class="cls-2" points="95.62 192.02 95.62 192.91 83.58 192.91 83.58 192.02" />
            <text class="cls-3" transform="translate(85.16 196.07)">10 Km</text>
        </g>
        <g id="Figura_1" data-name="Figura 1">
            <path
                class="cls-4"
                d="M51,82.66a.28.28,0,0,1-.43-.2A3.91,3.91,0,0,1,50.66,81a3.3,3.3,0,0,0,0-1.68.29.29,0,0,1,0-.22l1.14-1.9a.28.28,0,0,0,0-.13L52,75.23a.33.33,0,0,1,0-.13l.61-1a.35.35,0,0,0,0-.13l.13-3a.22.22,0,0,1,.07-.17l.9-1,1.46-1.6a.33.33,0,0,0,.07-.13L55.6,67a.27.27,0,0,1,.1-.16l.52-.42a.23.23,0,0,0,.1-.17l.11-.63a.3.3,0,0,1,.08-.16L57,65l0,0a16.38,16.38,0,0,0,2.33-2.2,19.81,19.81,0,0,1,2-2.29.21.21,0,0,0,.07-.13,15.57,15.57,0,0,1,.78-2.56.69.69,0,0,1,.42-.17.27.27,0,0,1,.3.21l.17.63a.29.29,0,0,0,.3.21l.2,0a.28.28,0,0,0,.26-.29v-.56a.28.28,0,0,1,.06-.18l.84-1.06a.3.3,0,0,0,.06-.18V54.83a.34.34,0,0,1,.07-.19l.84-.94a.26.26,0,0,1,.11-.07l.9-.37.11,0h1.51a.29.29,0,0,1,.26.16l.14.27a.27.27,0,0,1,0,.33l-.72.75a.22.22,0,0,0,0,.08l-.76,1.65s0,0,0,0l-.45.67a.28.28,0,0,0,0,.2l.23,1.39a.28.28,0,0,1,0,.13l-.37,1.22a.31.31,0,0,1-.05.1l-.89,1.12a.28.28,0,0,1-.24.1l-.53,0a.27.27,0,0,0-.26.12l-1,1.38L62.82,64a.26.26,0,0,1-.28.12h-.08a.28.28,0,0,0-.34.29v.23a.27.27,0,0,1-.14.25l-.23.14a.29.29,0,0,0-.13.27l0,.34a.28.28,0,0,1-.18.29l-.26.1a.31.31,0,0,0-.18.28l0,.26a.26.26,0,0,1-.05.17l-2.19,3.4a.28.28,0,0,1-.23.13l-.83,0a.27.27,0,0,0-.23.14l-.39.62-.41.6a.09.09,0,0,1-.06.06l-.42.34a.26.26,0,0,0-.1.26l.13,1.1a.28.28,0,0,0,.14.21l.27.17a.28.28,0,0,1,.08.42h0a.28.28,0,0,0,.09.42l.25.13a.24.24,0,0,1,.1.1l.37.55a.29.29,0,0,1,.05.18l-.08,1.13v0L57.6,78a.17.17,0,0,1,0,.14l-.44.86a.14.14,0,0,0,0,.06l-.24.93a.49.49,0,0,0,0,.12l.13.63a.29.29,0,0,1-.29.34h-.5a.28.28,0,0,1-.13,0l-.64-.35a.33.33,0,0,1-.12-.14L55,79.79a.28.28,0,0,1,0-.18l.19-.88a.29.29,0,0,0-.16-.32l-.47-.22a.27.27,0,0,0-.36.1L52.3,81.2l0,0-1.06,1.28a.13.13,0,0,1-.07.06Z"
            />
            <path
                class="cls-4"
                d="M56.93,48.28l-.38-.08a.18.18,0,0,0-.21.13l-.1.42a.17.17,0,0,1-.17.13h-.4a.17.17,0,0,0-.16.13l-.3.94a.19.19,0,0,1-.05.09l-1.24,1a.15.15,0,0,1-.11,0H53a.13.13,0,0,0-.1,0l-.55.39a.18.18,0,0,0,0,.23l.45.76a.18.18,0,0,1,0,.16l-.23.51a.18.18,0,0,1-.16.1h-.78L50.76,53h-.1l-1,.26-.08,0-1.27,1.27,0,0-.64,1.22,0,0-.92,1.09a.14.14,0,0,1-.1,0l-1,.24-.07,0L44,58.5a.21.21,0,0,0-.07.14v.73a.29.29,0,0,1,0,.09l-.46.71-.45.66a.17.17,0,0,0,0,.05l-.1.34a.17.17,0,0,1-.27.1l-.13-.09a.21.21,0,0,1-.07-.15V60.8a.18.18,0,0,0-.2-.18l-.27,0h0l-.51.17a.17.17,0,0,0-.07.29l.27.27a.17.17,0,0,1,0,.17l-.16.53a.21.21,0,0,1,0,.06l-.9,1,0,0-.43,1a.29.29,0,0,0,0,.13l.4,1.24a.2.2,0,0,0,0,.08l.6.54a.17.17,0,0,1,.05.15l-.1,1-.09.89-.11.83a.11.11,0,0,1,0,.08l-.2.28a.24.24,0,0,0,0,.12l.11.88a.14.14,0,0,0,0,.06l.48.93a.18.18,0,0,1,0,.16l-.46.88a.29.29,0,0,0,0,.09l0,.6a.19.19,0,0,1-.11.18l-.44.18h0l-1.14.2a.16.16,0,0,1-.17-.06l-.38-.45,0,0L38,72.86a.18.18,0,0,1-.05-.07l-.26-.49,0,0-.24-.77a.19.19,0,0,1,.08-.21l.21-.12a.17.17,0,0,1,.2,0l.15.12a.18.18,0,0,0,.29-.13V71a.18.18,0,0,0-.08-.15l-.47-.34a.21.21,0,0,1-.07-.11l-.11-.52a.18.18,0,0,0-.08-.11l-.26-.16a.23.23,0,0,0-.11,0l-.87,0s0,0,0,0l-.72-.15a.16.16,0,0,1-.13-.11l-.13-.43a.19.19,0,0,1,.05-.19l.23-.19a.18.18,0,0,0,0-.18l-.18-.65a.17.17,0,0,1,0-.1l.17-.54a.15.15,0,0,1,.08-.11l.61-.33a.16.16,0,0,0,.09-.12l.12-.69s0,0,0-.06l.1-.16a.14.14,0,0,1,.11-.09l.35-.09a.18.18,0,0,0,.13-.19l-.07-.57a.11.11,0,0,0,0-.05L37,64.35a.17.17,0,0,0-.23-.09l-.4.16a.16.16,0,0,0-.11.14l0,.2a.18.18,0,0,1-.21.15l-.38-.08a.17.17,0,0,0-.2.11l-.2.55a.09.09,0,0,1,0,.05l-.3.36,0,0-.83.45a.17.17,0,0,0-.09.16V68.1l-.49,1.77a.19.19,0,0,1-.1.12l-.88.35a.16.16,0,0,0-.08.06l-.65.89,0,0-.47.38a.18.18,0,0,1-.23,0l-.23-.2a.16.16,0,0,1-.06-.12l-.14-1.3V69a.17.17,0,0,1,.05-.12l.65-.68,0,0,.38-.75s0,0,0,0l.16-.52a.17.17,0,0,1,.14-.12l.29,0a.19.19,0,0,0,.15-.18l0-.83a.19.19,0,0,0,0-.1l-.5-.65a.08.08,0,0,0,0,0l-.43-.28-.08,0-.67,0a.19.19,0,0,1-.14-.09l-.68-1.22a.19.19,0,0,0-.14-.09L28.64,63h0l-.46-.11a.16.16,0,0,1-.13-.17v-1a.21.21,0,0,0-.07-.14L27.23,61l0,0-.35-.2a.18.18,0,0,1-.07-.23l.15-.3a.18.18,0,0,1,.16-.1H28l1.08.08h0l.61.16a.21.21,0,0,1,.1.06l.53.65v0l.38.35a.26.26,0,0,1,.05.09l.16.63a.17.17,0,0,0,.22.12l.35-.11a.05.05,0,0,0,.05,0l.29-.22a.2.2,0,0,0,.05-.22L31.53,61l0,0-.43-.5,0,0L30.45,60a.18.18,0,0,1-.07-.19l.07-.22a.15.15,0,0,1,0-.07l.27-.3a.21.21,0,0,1,.2-.05l.41.16h0l.49.13h0l.56.09h.05l1.6.75a.22.22,0,0,0,.16,0l.74-.4.85-.45a.18.18,0,0,1,.16,0l.53.24h.1l.75-.12h0l1-.43h0l.81-.08a.19.19,0,0,0,.08,0l.66-.45,0,0,.46-.2.06,0h.24a.14.14,0,0,0,.11-.06l.39-.4v0l1-1.36,0,0,1.15-.79.07,0,.75-.15.06,0,.57-.38a.18.18,0,0,0,.08-.11l.12-.67v0l0-1.18a.15.15,0,0,1,0-.11l1-1.12,0,0,.58-.37a.2.2,0,0,1,.17,0l.14.07a.18.18,0,0,0,.24-.11l.1-.35v0l.28-.59s0,0,0,0l.21-.88a.16.16,0,0,1,.11-.13l1.3-.43h0l.89-.2a.19.19,0,0,1,.2.1l.31.68,0,0,.32.47a.2.2,0,0,0,.24,0l.57-.35a.13.13,0,0,1,.08,0l1.11-.11a.1.1,0,0,0,.07,0l.51-.27a.18.18,0,0,0,.09-.16l-.08-1.36v0l-.22-.89v0l-.09-.25a.16.16,0,0,1,.09-.22l.69-.31,0,0,.38-.3a.18.18,0,0,0,0-.26l-.31-.32a.15.15,0,0,1,0-.1l0-.13a.18.18,0,0,1,.18-.2h.13a.17.17,0,0,1,.13.07l.36.42a.17.17,0,0,0,.18,0l.34-.09,0,0,.5-.35a.18.18,0,0,1,.2,0l.82.57a.16.16,0,0,1,.08.14v1.21l.15.72a.2.2,0,0,1,0,.11l-.25.54,0,.1A.19.19,0,0,1,56.93,48.28Z"
            />
            <path
                class="cls-4"
                d="M53.64,37.61A6.3,6.3,0,0,1,53,37.1a.17.17,0,0,0-.17,0l-.64.25h0l-.33.06a.16.16,0,0,1-.15,0L51,36.79h0l-1-1v0L49.12,35h0l-1.22-.86a.13.13,0,0,0-.12,0l-.51.09a.17.17,0,0,1-.17-.07l-.23-.33a.16.16,0,0,1,0-.16l.09-.24a.18.18,0,0,1,.16-.11h1a.21.21,0,0,0,.13,0l.47-.51a.18.18,0,0,1,.13-.06h.86a.18.18,0,0,1,.1,0l1,.74s0,0,0,0l.66.7a.12.12,0,0,0,.08,0l.67.19a.12.12,0,0,1,.08,0l.34.36a.17.17,0,0,1,0,.18l-.23.55a.18.18,0,0,0,.1.22l.25.09h.05l.64.06a.17.17,0,0,1,.14.09l.36.75a.2.2,0,0,1,0,.11l-.09.53v.12a.17.17,0,0,1-.28.11h0Z"
            />
            <path
                class="cls-4"
                d="M61.51,26.1l-.32-.38a.21.21,0,0,1,0-.11v-.89a.19.19,0,0,1,.09-.15l.88-.53h0l.47-.24a.17.17,0,0,0,0-.28l-.82-.74,0,0-.43-.61a.16.16,0,0,1,0-.13l.17-.88a.2.2,0,0,1,.12-.13l.85-.27,0,0,1.25-.91.05-.06.64-1.11h0l.8-1.17a.18.18,0,0,1,.1-.07l.78-.21,1-.28.7-.16a.17.17,0,0,0,.12-.11l.6-1.79a.11.11,0,0,0,0-.08L68.5,14a.2.2,0,0,0,0-.08l-.32-.38a.16.16,0,0,1,0-.2l.78-1.15,0,0,1.15-.88a.15.15,0,0,1,.07,0L71.61,11a.19.19,0,0,0,.09,0l.68-.66a.17.17,0,0,1,.12,0h.57a.16.16,0,0,0,.09,0l1-.57,0,0,1-.22.83-.2h.07l1.08.18a.14.14,0,0,0,.11,0L78.05,9a.25.25,0,0,1,.12,0l.65.13a.12.12,0,0,1,.09,0l.2.21a.17.17,0,0,0,.28-.05l.18-.41a.18.18,0,0,1,.15-.1h.13a.17.17,0,0,1,.17.17h0a.17.17,0,0,0,.27.14l.1-.06,0,0,.66-.2h.11l.26.11a.14.14,0,0,1,.1.1l.1.3a.13.13,0,0,1,0,.12l-.34.89a.16.16,0,0,1-.06.08l-.9.63h0l-.53.33a.15.15,0,0,1-.11,0l-1.1-.12h0l-1.42.18-.07,0-.45.28a.17.17,0,0,1-.12,0l-2.6-.42h0l-1.29.12-.09,0-1.06.76,0,0-.55.59a.16.16,0,0,1-.16,0l-.88-.17a.17.17,0,0,0-.1,0l-.78.36a.17.17,0,0,0-.08.24l.19.37a.14.14,0,0,0,.09.08l.24.11a.19.19,0,0,1,.1.17l-.06.66s0,0,0,.06l.21.79a.13.13,0,0,1,0,.06l-.07.74a.14.14,0,0,1-.06.12l-.45.35,0,0-.5.29a.16.16,0,0,0-.07.09l-.26.63a.19.19,0,0,1-.07.08l-.72.42-.06,0-.91.16a.16.16,0,0,1-.14-.05L66,18.18a.17.17,0,0,0-.27,0l-.15.28s0,.05,0,.09l0,.56a.19.19,0,0,1,0,.1l-.78,1.11a.16.16,0,0,1-.08.06l-.81.32a.14.14,0,0,0-.09.08l-.14.28a.19.19,0,0,1-.12.09l-.75.16a.16.16,0,0,0-.13.17V22a.21.21,0,0,0,.07.13l.48.38a.19.19,0,0,0,.1,0h.82a.19.19,0,0,1,.15.09l.42.77s0,0,0,0l.32.36a.15.15,0,0,1,0,.13l-.11.75a.17.17,0,0,1-.1.13l-2.47,1a.05.05,0,0,0,0,0l-.4.29a.17.17,0,0,1-.1,0h-.2A.18.18,0,0,1,61.51,26.1Z"
            />
            <path
                class="cls-4"
                d="M21,54.75h0a.34.34,0,0,0,0-.29l-.16-.5a.32.32,0,0,1,.09-.33l.09-.07a.34.34,0,0,0,.07-.39l-.46-.84a.37.37,0,0,1,0-.21l.14-.67a.32.32,0,0,0-.12-.32l-.34-.25-.08-.05-.72-.26-.07,0-.2-.13a.33.33,0,0,1-.15-.27V50a.3.3,0,0,0-.27-.31l-.19,0a.33.33,0,0,0-.36.32v.16a.3.3,0,0,0,0,.1l.08.23a.33.33,0,0,1-.13.37L18,51a.32.32,0,0,0-.15.32l0,.15a.32.32,0,0,0,.36.26l.14,0a.32.32,0,0,1,.35.24l.12.54a.27.27,0,0,0,.06.12l.41.53,0,0,.16.31a.42.42,0,0,1,0,.15v.38a.33.33,0,0,0,.16.28l.54.29.36.21A.33.33,0,0,0,21,54.75Z"
            />
            <path
                class="cls-4"
                d="M17.71,47.6H16.52a.17.17,0,0,0-.16.11l-.29.62a.15.15,0,0,0,0,.16l.13.21a.18.18,0,0,1,0,.21l-.65.73a.21.21,0,0,0,0,.12v.79a.21.21,0,0,0,0,.13l.89.91a.12.12,0,0,0,.08,0l.54.18a.18.18,0,0,1,.11.1l.46,1.1v0l.54,1.78s0,0,0,0l1,1.79,0,0,.58,2.09a.17.17,0,0,1,0,.17l-.13.14a.19.19,0,0,0,0,.27l.63.51a0,0,0,0,1,0,0l1.78,2a.19.19,0,0,1,0,.15l-.21,1.3a.17.17,0,0,1-.06.1l-.65.57A.19.19,0,0,1,21,64l-.56-.11a.18.18,0,0,0-.2.24l.42,1,.38,1.1a.17.17,0,0,1-.08.21l-.7.42h0l-.92.34h-.39a.19.19,0,0,1-.18-.13l-.17-.61a.19.19,0,0,0-.28-.1l-.4.27h0l-.49.28a.19.19,0,0,1-.24,0l-.52-.68a.18.18,0,0,0-.13-.08l-.61,0a.19.19,0,0,0-.19.15l-.08.51a.24.24,0,0,1-.06.11l-.36.31a.2.2,0,0,1-.15,0l-.59-.12a.19.19,0,0,1-.11-.07l-1.19-1.57a.19.19,0,0,1,0-.08l-.56-3.79V60.27a.19.19,0,0,0,0-.08l-.73-1.5-.05-.06-.47-.37a.16.16,0,0,1-.06-.08l-.55-1.51v0l-.23-1a.15.15,0,0,0-.06-.11l-.22-.17a.19.19,0,0,1-.06-.18l.2-.86a.19.19,0,0,1,0-.09l.68-.61,0-.05.22-.37a.18.18,0,0,0,0-.19l-.13-.2a.18.18,0,0,0-.31,0l-.22.36a.18.18,0,0,1-.23.07l-.27-.11-.06,0-.39-.37,0,0L9,51.81a.18.18,0,0,1,0-.23L9.44,51a.18.18,0,0,1,.07,0l.54-.19a.17.17,0,0,0,.12-.15L10.38,49a.17.17,0,0,1,.14-.15l.85-.17.93-.14a.18.18,0,0,0,.15-.19l-.06-1a.17.17,0,0,1,0-.12l.49-.66,0-.05.63-1.76.28-.85a.17.17,0,0,1,.22-.12l.67.19h0l1.57.15a.18.18,0,0,0,.2-.18v-.83a.16.16,0,0,1,.08-.14l.76-.53a.15.15,0,0,0,.08-.11l.29-1.34v0l.37-1,.22-.62a.18.18,0,0,1,.17-.12h.17a.18.18,0,0,0,.18-.2l-.09-.63a.23.23,0,0,1,.06-.16l.7-.65,0,0,.58-.31a.2.2,0,0,1,.15,0l.82.32,0,0,1.09.83a.2.2,0,0,1,.07.16l-.11,1.49a.07.07,0,0,1,0,0l-.65,1.69a.22.22,0,0,1-.05.08l-1.25,1,0,.05-.92,1.41a0,0,0,0,1,0,0l-.86.91a.2.2,0,0,0,0,.08l-.32,1.21-.18.88A.19.19,0,0,1,17.71,47.6Z"
            />
            <path
                class="cls-4"
                d="M24.31,35.78l-.21-.08a.16.16,0,0,1-.11-.16V35a.16.16,0,0,0-.11-.16l-1.18-.42a.16.16,0,0,1-.11-.12l-.24-1.11a.17.17,0,0,1,0-.07l.41-2s0-.05,0-.08l.53-.61a.18.18,0,0,1,.16-.05l.61.11a.16.16,0,0,0,.13,0l.33-.26,0,0,.59-.69,0,0,.69-.5h0l.49-.42a.17.17,0,0,1,.11,0h.42a.17.17,0,0,0,.14-.07l.3-.42a.16.16,0,0,1,.23-.05l.22.13a.15.15,0,0,1,.08.11l.11.49a.22.22,0,0,1,0,.14l-.6.82h0l-.52.59a.18.18,0,0,1-.16,0l-.78-.18a.17.17,0,0,0-.12,0l-.8.46a.16.16,0,0,0-.07.09l0,.11a.17.17,0,0,0,.23.21l.33-.17h.27a.16.16,0,0,1,.16.23l-.14.31a.17.17,0,0,1-.1.1l-.73.23a.09.09,0,0,0-.06,0l-.21.17a.19.19,0,0,0-.06.18l.22.73.28,1a.14.14,0,0,1,0,.09l-.26.92-.16.64,0,.05-.11.16A.16.16,0,0,1,24.31,35.78Z"
            />
            <path
                class="cls-5"
                d="M57.89,168.61l-1.29-1.17a.57.57,0,0,0-.51-.14c-.48.09-1.44.24-1.65-.07s-.82-.68.14-1.51,1.38-1,1.1-1.79-3.58-.42-3.85-.69-1.52-1.66-1.24-2.34,2.48-1.93,2.34-2.76a4,4,0,0,0-2.21-3.45c-1.54-.77.63-2.43,1.55-3.06a.59.59,0,0,0,.23-.67,6.77,6.77,0,0,1-.54-2.88c.25-.74-.71-3.23-.92-3.76a.87.87,0,0,0-.11-.18l-1.15-1.26a.61.61,0,0,1-.15-.41l.12-2.89a.57.57,0,0,1,.28-.48c.5-.31,1.55-1,1.66-1.77.14-1,.14-1.38,1-1.24s1.24-1.93,1-2.34l-1.32-2.11a.53.53,0,0,1-.08-.22c-.07-.41-.26-1.83.15-2.36a.67.67,0,0,0,.15-.39v-.57c0-.28.71-.63,1.15-.82a.6.6,0,0,0,.36-.54v-1.83a.58.58,0,0,1,.42-.56,1.52,1.52,0,0,1,1,0c.61.24,1.11-.5,1.8-.57a.61.61,0,0,0,.44-.24l.59-.82a.57.57,0,0,0,.11-.38c-.05-.62-.11-2.45.83-3a.79.79,0,0,0,.22-.19c.15-.2.26-.55-.82-.55-1.52,0-1-1.52-1-1.52a2,2,0,0,0-1.51-2.61,5.24,5.24,0,0,0-2.59-.21.62.62,0,0,1-.38,0,9.35,9.35,0,0,0-1.85-.6c-.31,0-.76-.67-1-1a.57.57,0,0,0-.38-.26,10.84,10.84,0,0,0-1.81-.23c-.83,0-1.11-1.37-2.07-1.79l-.74-.3a.78.78,0,0,1-.48-.52l0-.18a.59.59,0,0,0-.5-.42l-.33,0a.58.58,0,0,1-.52-.58V108a.79.79,0,0,0-.17-.49l-.15-.18a.58.58,0,0,1-.06-.63l.31-.62a.56.56,0,0,0,.06-.31l-.11-1.39a.58.58,0,0,1,.14-.42l.5-.58a.57.57,0,0,0,.13-.47l-.07-.48a.58.58,0,0,1,.1-.4l.32-.5a.53.53,0,0,0,.1-.32v-1a.63.63,0,0,1,0-.19l.17-.51a.61.61,0,0,0,0-.44L43.19,96a.46.46,0,0,1,0-.21L43,94a.41.41,0,0,0,0-.16l-.49-1.34a.76.76,0,0,1,0-.21V91.1a.68.68,0,0,0,0-.14l-.19-.76a.6.6,0,0,1,.1-.5l.6-.8a.65.65,0,0,0,.09-.16l.19-.58a.56.56,0,0,1,.18-.27l.7-.58.51-.41a.8.8,0,0,1,.29-.15.64.64,0,0,0,.21-.09l1.11-.76,2.47-1.62,1.44-1.34,1.17-1.24"
            />
            <path
                class="cls-5"
                d="M28.28,60.58l-1,0h-.9l-.74.12h-.25a.6.6,0,0,1-.49-.25l-.28-.42a.38.38,0,0,1-.08-.17l-.14-.51a.5.5,0,0,1,0-.27h0a.56.56,0,0,0-.14-.51L23.64,58a.5.5,0,0,1-.13-.22l-.18-.55a.48.48,0,0,1,0-.29l0-.17A.58.58,0,0,0,22.9,56l-1.15-.23a.66.66,0,0,1-.24-.11l-.19-.17a.47.47,0,0,1-.18-.28l-.05-.17A.46.46,0,0,0,21,54.9L21,54.82"
            />
            <path class="cls-5" d="M64.42,57.65l-1.2-2.57a.7.7,0,0,0-.15-.19l-1.28-1.08-.06-.06-1.07-1.18s0,0,0,0l-.41-.37A.71.71,0,0,0,60,52L54.25,50.3l-.07,0-.49-.22" />
            <path class="cls-5" d="M53.78,49.3,51.56,45l0,0L51,43.67a.49.49,0,0,1,0-.21l.7-6.67" />
            <path class="cls-5" d="M52.18,34.87l0,0,1.73-3.42.78-1.58,0,0,.4-.65,0-.05,6.31-3.64" />
            <path class="cls-5" d="M18.78,50.23l-1-1.35a.61.61,0,0,1,0-.12l-.18-.62,0-.1-.94-1.58" />
            <path class="cls-5" d="M18.55,42.37l.38-.74a.6.6,0,0,0,.06-.37l0-.21a.59.59,0,0,1,.06-.37l.09-.14a.55.55,0,0,1,.16-.18h0a.56.56,0,0,0,.22-.6l0-.14a.52.52,0,0,1,.09-.48l.38-.48,0,0,.38-.44" />
            <circle class="cls-6" cx="42.53" cy="91.56" r="5.55" />
            <g id="Pueblos">
                <polygon
                    class="cls-7"
                    points="57.82 169.11 58.65 168.7 58.51 168.15 57.82 168.15 57.82 167.32 58.51 167.32 58.92 166.77 59.2 166.36 58.92 165.53 59.47 165.81 60.03 165.67 60.58 165.53 60.03 165.12 59.89 164.56 59.89 163.46 59.61 162.64 59.2 162.22 58.51 162.91 57.96 162.5 57.41 162.22 56.72 162.5 56.3 163.05 55.2 163.19 53.83 162.77 53.14 162.22 52.58 161.26 51.62 162.22 51.76 162.77 52.58 163.19 52.86 163.74 52.31 163.88 51.9 164.01 52.31 164.56 52.86 164.43 53.55 164.43 53.89 164.63 54.03 165.6 53.76 166.15 53.34 167.12 52.65 167.53 52.79 168.22 53.2 168.63 53.62 168.63 53.62 169.32 53.2 169.46 53.62 169.87 54.31 169.73 55.27 168.91 55.69 168.22 56.1 167.8 56.92 168.22 57.82 169.11"
                />
                <circle class="cls-7" cx="42.42" cy="91.56" r="0.66" />
                <circle class="cls-7" cx="42.53" cy="89.46" r="0.66" />
                <circle class="cls-7" cx="43.09" cy="94.18" r="0.66" />
                <circle class="cls-7" cx="51.48" cy="145.55" r="1.33" />
                <circle class="cls-7" cx="52.81" cy="132.85" r="1.33" />
                <circle class="cls-7" cx="58.33" cy="122.9" r="1.33" />
            </g>
            <line class="cls-6" x1="48.23" y1="91.56" x2="53.31" y2="91.56" />
            <polygon
                class="cls-8"
                points="41.86 165.13 41.86 162.44 40.97 161.26 40.39 159.69 39.3 158.73 38.34 157.45 37.96 156.71 38.66 155.34 38.41 152.91 38.15 148.17 36.94 148.49 35.27 150.93 37.06 152.53 37.26 154.25 37 155.47 35.85 156.37 36.3 157.39 36.55 159.12 35.66 159.63 35.15 159.18 34.11 157.74 32.39 157.45 30.92 157.32 28.75 156.04 29.19 157.13 29.32 158.09 27.47 158.22 26.12 157.13 23.82 155.47 24.27 156.37 25.23 158.03 23.95 157.13 22.99 157.74 24.84 159.37 26.38 160.4 27.91 160.01 31.43 160.01 33.67 160.01 34.11 161.68 37.13 162.83 39.37 163.98 39.69 164.88 40.26 167.05 41.67 167.05 42.76 168.97 41.67 170.44 42.25 172.36 44.3 173.77 44.04 172.23 43.08 169.87 44.1 169.87 45.06 168.97 51.66 171.02 53.25 171.66 54.47 170.76 55.17 171.4 56.83 170.83 58.63 170.31 60.58 171.34 60.58 172.55 59.65 174.41 60.93 176.07 60.93 178.12 62.08 180.1 62.4 182.09 62.91 182.87 63.09 183.17 63.05 183.68 62.88 184.11 62.99 185.4 60.58 184.47 59.49 184.11 59.49 186.34 57.89 186.34 55.66 185.17 54.04 185.99 52.12 184 50.15 184.11 48.56 184.7 47.42 183.76 45.47 184.11 42.25 184.58 40 186.11 38.71 185.99 36.13 185.29 36.13 182.8 34.66 181.19 33.82 181.47 33.32 179.58 31.93 179.52 30.93 180.52 30.32 179.91 30.32 178.47 29.6 177.52 27.87 175.69 24.87 175.58 24.04 173.96 22.31 174.02 21.04 172.3 19.92 171.13 18.2 171.13 15.87 171.8 14.7 172.19 13.92 170.63 13.36 171.02 13.36 169.02 11.19 167.3 7.98 168.61 -6.27 166.29 -8.2 168.61 -11.23 168.61 -11.88 167.14 -11.88 226.84 88.12 226.84 88.12 208.08 85.14 208.08 72.9 208.08 70.37 203.31 69.35 198.94 68.38 197.3 67.78 195.83 66.16 194.67 62.76 193.03 60.13 191.2 60.58 188.14 62.04 186.41 64.66 188.22 65.93 188.81 67.39 186.22 69.92 184.93 72.14 186.58 74.96 184.93 74.49 181.77 70.97 181.77 68.8 184 66.86 183.06 69.8 180.71 70.85 179.07 68.8 178.36 70.38 177.07 72.73 177.07 75.43 176.02 75.66 173.44 71.67 175.31 69.33 176.13 67.39 178.25 66.75 180.12 65.34 181.3 64.66 182.71 64.24 182.41 63.97 181.32 63.56 180.17 63.17 179.27 62.6 176.46 61.76 174.86 63.04 174.86 62.47 173.9 63.11 172.81 64.66 171.98 65.09 170.89 66.69 170.76 67.39 168.91 67.97 168.61 70.4 169.87 70.85 169.23 69.51 168.61 68.8 167.63 70.02 167.56 70.72 166.47 68.8 166.47 66.5 167.75 64.66 168.91 63.97 167.88 64.96 165.56 65.22 165.13 66.37 163.79 66.88 161.26 65.8 159.31 66.75 158.22 68.42 157.74 69.64 157.74 70.08 155.92 71.75 155.79 72.71 155.02 71.94 154 69.51 153.87 68.16 156.11 66.11 156.71 63.43 157.74 63.97 158.86 64.32 160.2 65.03 161.93 64.66 163.21 62.85 164.3 63.68 165.93 62.47 167.69 62.85 169.23 60.04 169.23 55.69 168.22 54.04 169.03 52.81 169.87 50.87 169.16 46.22 166.41 44.94 166.41 43.53 167.12 41.8 166.54 41.86 165.13"
            />
            <text class="cls-3" transform="translate(63.61 69.13)">
                Lago
                <tspan class="cls-9" x="-1.99" y="3.6">R</tspan>
                <tspan x="-0.01" y="3.6">iñihue</tspan>
            </text>
            <text class="cls-3" transform="translate(53.9 92.31)">
                <tspan class="cls-10">Z</tspan>
                <tspan x="1.82" y="0">on</tspan>
                <tspan class="cls-11" x="5.47" y="0">a</tspan>
                <tspan x="7.1" y="0" xml:space="preserve">de</tspan>
                <tspan class="cls-12" x="11.74" y="0"></tspan>
                <tspan class="cls-13" x="12.68" y="0">T</tspan>
                <tspan x="14.19" y="0">acos</tspan>
            </text>
            <text class="cls-3" transform="translate(26.03 75.57)">
                Lago
                <tspan x="-4.55" y="3.6">Panguipulli</tspan>
            </text>
            <text class="cls-3" transform="translate(43.38 26.83)">
                Lago
                <tspan class="cls-14" x="-2.79" y="3.6">N</tspan>
                <tspan x="-0.61" y="3.6">e</tspan>
                <tspan class="cls-15" x="1.12" y="3.6">l</tspan>
                <tspan class="cls-16" x="1.98" y="3.6">tume</tspan>
            </text>
            <text class="cls-3" transform="translate(57.68 10.51)">
                Lago
                <tspan x="-3.74" y="3.6">Pirihueico</tspan>
            </text>
            <text class="cls-3" transform="translate(24.84 22.74)">
                Lago
                <tspan class="cls-17" x="-1.85" y="3.6">P</tspan>
                <tspan x="-0.04" y="3.6">ellai</tspan>
                <tspan class="cls-18" x="6.02" y="3.6">f</tspan>
                <tspan class="cls-11" x="7.11" y="3.6">a</tspan>
            </text>
            <text class="cls-3" transform="translate(6.05 38.19)">
                Lago
                <tspan x="-3.96" y="3.6">Cal</tspan>
                <tspan class="cls-9" x="0.71" y="3.6">a</tspan>
                <tspan class="cls-19" x="2.39" y="3.6">f</tspan>
                <tspan x="3.53" y="3.6">quén</tspan>
            </text>
            <text class="cls-3" transform="translate(46.8 107.26)">
                <tspan class="cls-9">R</tspan>
                <tspan x="1.98" y="0">ío</tspan>
                <tspan class="cls-20" x="5.6" y="0">S</tspan>
                <tspan class="cls-21" x="7.49" y="0">an</tspan>
                <tspan class="cls-17" x="12.07" y="0">P</tspan>
                <tspan class="cls-21" x="13.88" y="0">ed</tspan>
                <tspan class="cls-22" x="17.49" y="0">r</tspan>
                <tspan x="18.66" y="0">o</tspan>
            </text>
            <text class="cls-3" transform="translate(28.88 127.24)">
                <tspan class="cls-9">R</tspan>
                <tspan x="1.98" y="0">ío Calle Calle</tspan>
            </text>
            <polyline class="cls-5" points="20.76 38.87 23.45 37.7 23.67 37.05 24 36.69 23.77 36.06 24.29 35.31" />
            <path
                d="M9.22,12.68,9,12.81a8.13,8.13,0,0,0-.68-.88,7.28,7.28,0,0,0-.74-.73c-.27-.23-.55-.46-.86-.69v0c.31-.23.6-.46.86-.69a8.38,8.38,0,0,0,.73-.73A11,11,0,0,0,9,8.2l.18.13A10,10,0,0,1,8.15,9.56a6.22,6.22,0,0,1-1.05.86h4.53v.2H7.54l-.44,0a6.64,6.64,0,0,1,1.05.85A9.58,9.58,0,0,1,9.22,12.68Z"
            />
            <path d="M16.43,8.1v4.82h-.27L13.22,8.73,13,8.33h0l0,.47v4.12h-.2V8.1h.27L16,12.29l.25.41V8.1Z" />
            <path
                class="cls-23"
                d="M56.2,158.45A37.55,37.55,0,0,0,60,159.89c.68-1.08,1.44-2.08,2.2-3.07l-.91.25-.07-.27,0-.13-.36-1.41c-.18-.78-.36-1.56-.52-2.34-.32-1.57-.61-3.14-.8-4.68-.08-.76-.17-1.54-.17-2.22a7.14,7.14,0,0,1,.24-1.91,48.86,48.86,0,0,1,3.62-8.63c.73-1.48,1.47-3,2.16-4.52A33.77,33.77,0,0,0,67.23,126a19.79,19.79,0,0,0,.67-5.48A15.91,15.91,0,0,0,66.81,115a17.13,17.13,0,0,0-7.41-8.23,27.81,27.81,0,0,0-4.87-2.25,29.1,29.1,0,0,0-5.2-1.32l-.57,4.31c5.75,1,12,4,14,9.11A13.46,13.46,0,0,1,63,124.9a56,56,0,0,1-3.72,8.66c-.72,1.48-1.46,3-2.15,4.53a29.83,29.83,0,0,0-1.8,5,11.09,11.09,0,0,0-.36,3c0,1,.11,1.82.2,2.69.22,1.73.52,3.39.86,5,.17.83.36,1.65.55,2.48l.38,1.51,0,.14.08.28Z"
            />
            <path
                class="cls-24"
                d="M59.09,49.69c1.09.54,2.17,1,3.23,1.49.71-.92,1.42-1.78,2.15-2.6l-.81.17,0-.23,0-.12-.12-.57a7.19,7.19,0,0,1-.15-.91,26.82,26.82,0,0,1-.3-3.66,24,24,0,0,1,.21-3.6,16.21,16.21,0,0,1,2.5-6.48c.33-.47.69-.93,1.06-1.37A13.93,13.93,0,0,1,68,30.6a12.23,12.23,0,0,1,1.35-1.05c.24-.15.47-.32.71-.45s.52-.27.65-.33l-1.44-3.56a10.2,10.2,0,0,0-1.1.55c-.34.19-.64.4-1,.6a15.45,15.45,0,0,0-1.75,1.36,17.56,17.56,0,0,0-1.56,1.55q-.72.84-1.35,1.74a20.11,20.11,0,0,0-3.13,8.06,26.35,26.35,0,0,0-.24,4.24,28.84,28.84,0,0,0,.34,4.17,7.12,7.12,0,0,0,.16,1l.13.63,0,.12.06.26Z"
            />
            <path
                class="cls-25"
                d="M46.56,50.73a35,35,0,0,0-.49-4,32.07,32.07,0,0,1-3.74-.52l.64.69-.19.17-.1.09-.09.08c-.11.11-.23.21-.35.31s-.46.4-.71.59a14.42,14.42,0,0,1-6.09,3.12A5.5,5.5,0,0,1,32.53,51a12.72,12.72,0,0,1-3-1.56,26.79,26.79,0,0,1-5.4-5l-3.4,2.72a35.7,35.7,0,0,0,3,3.14A29.25,29.25,0,0,0,27.08,53a17.16,17.16,0,0,0,4.1,2.08,9.91,9.91,0,0,0,5,.39,14.45,14.45,0,0,0,4.41-1.58,22.72,22.72,0,0,0,3.67-2.44c.29-.22.55-.46.83-.69l.41-.35.1-.09.11-.1.22-.21Z"
            />
            <path
                class="cls-26"
                d="M40.91,79.54a33.75,33.75,0,0,1,.9,3.85,35.92,35.92,0,0,0,3.9.11L45,82.9l.19-.23.09-.11.44-.55.67-.9a30.74,30.74,0,0,0,2.41-3.87,20.13,20.13,0,0,0,1-2.16c.15-.38.26-.78.38-1.17l.29-1.15a18.36,18.36,0,0,1,3.29-6.7,33.93,33.93,0,0,1,5.39-5.7L56.38,57a38.13,38.13,0,0,0-6.18,6.53,22.68,22.68,0,0,0-4,8.36,18,18,0,0,1-3.3,6.71l-.59.79-.38.49-.09.1-.16.2Z"
            />
            <text class="cls-3" transform="translate(61.58 51.45)">
                <tspan class="cls-9">R</tspan>
                <tspan x="1.98" y="0">ío Enco</tspan>
            </text>
            <text class="cls-3" transform="translate(57.08 31.87)">
                <tspan class="cls-9">R</tspan>
                <tspan x="1.98" y="0">ío Llanquihue</tspan>
            </text>
            <text class="cls-3" transform="translate(24.55 46.03)">
                Lago
                <tspan x="-3.37" y="3.6">Pullinque</tspan>
            </text>
            <text class="cls-3" transform="translate(24.34 56.95)">
                <tspan class="cls-9">R</tspan>
                <tspan x="1.98" y="0">ío Zahuit</tspan>
            </text>
            <text class="cls-27" transform="translate(54.14 146.31)">
                H
                <tspan class="cls-16" x="2.18" y="0">uellelhue</tspan>
            </text>
            <text class="cls-3" transform="translate(55.94 134.18)">
                A
                <tspan class="cls-28" x="1.98" y="0">n</tspan>
                <tspan x="3.82" y="0">tilhue</tspan>
            </text>
            <text class="cls-3" transform="translate(62.04 124.23)">
                <tspan class="cls-29">L</tspan>
                <tspan x="1.75" y="0">os Lagos</tspan>
            </text>
            <text class="cls-3" transform="translate(62.04 165.13)">
                <tspan class="cls-30">V</tspan>
                <tspan x="1.76" y="0">aldivi</tspan>
                <tspan class="cls-11" x="9.42" y="0">a</tspan>
            </text>
        </g>
        <g id="Capa_7" data-name="Capa 7">
            <g class="cls-31">
                <circle class="cls-32" cx="56.1" cy="165.13" r="5.94" />
                <ellipse class="cls-33" cx="56.1" cy="165.13" rx="12.28" ry="12.08" />
                <ellipse class="cls-33" cx="56.1" cy="165.13" rx="18.62" ry="18.22" />
                <ellipse class="cls-33" cx="56.1" cy="165.13" rx="24.95" ry="24.35" />
                <ellipse class="cls-33" cx="56.1" cy="165.13" rx="31.29" ry="30.49" />
            </g>
        </g>
    </g>
</svg>
