<svg xmlns="http://www.w3.org/2000/svg" xmlns:xlink="http://www.w3.org/1999/xlink" viewBox="0 0 200 100"><defs><style>.cls-1{isolation:isolate;}.cls-2,.cls-31,.cls-32,.cls-7,.cls-8{fill:none;stroke-miterlimit:10;}.cls-2{stroke:#000;stroke-width:0.1px;}.cls-11,.cls-3{font-size:3px;font-family: 'Alegreya Sans', sans-serif;}.cls-4{fill:url(#Degradado_sin_nombre_20);}.cls-5{fill:url(#Degradado_sin_nombre_17);}.cls-10,.cls-6{fill:#2bbba0;}.cls-7{stroke:#2bbba0;stroke-width:0.5px;}.cls-8{stroke:#58595c;}.cls-31,.cls-32,.cls-8{stroke-width:0.25px;}.cls-9{fill:#58595c;}.cls-10,.cls-30,.cls-32{mix-blend-mode:multiply;}.cls-11,.cls-20{letter-spacing:-0.01em;}.cls-12{letter-spacing:0em;}.cls-13{letter-spacing:-0.01em;}.cls-14{letter-spacing:-0.01em;}.cls-15{letter-spacing:0em;}.cls-16{letter-spacing:-0.02em;}.cls-17{letter-spacing:-0.02em;}.cls-18{letter-spacing:-0.03em;}.cls-19{letter-spacing:-0.1em;}.cls-21{letter-spacing:-0.02em;}.cls-22{letter-spacing:-0.01em;}.cls-23{letter-spacing:-0.03em;}.cls-24{letter-spacing:-0.01em;}.cls-25{letter-spacing:-0.01em;}.cls-26{letter-spacing:-0.02em;}.cls-27{letter-spacing:-0.06em;}.cls-28{fill:url(#Degradado_sin_nombre_19);}.cls-29{fill:url(#Degradado_sin_nombre_16);}.cls-30{opacity:0.7;}.cls-31,.cls-32{stroke:#ccc;}</style><linearGradient id="Degradado_sin_nombre_20" x1="45.94" y1="58.32" x2="102.67" y2="58.32" gradientUnits="userSpaceOnUse"><stop offset="0" stop-color="#2bbba0" stop-opacity="0.8"/><stop offset="0.26" stop-color="#2fbca2" stop-opacity="0.79"/><stop offset="0.42" stop-color="#3bc0a7" stop-opacity="0.74"/><stop offset="0.56" stop-color="#4fc7b0" stop-opacity="0.66"/><stop offset="0.68" stop-color="#6cd0bd" stop-opacity="0.55"/><stop offset="0.79" stop-color="#92dcce" stop-opacity="0.41"/><stop offset="0.89" stop-color="#c0ebe3" stop-opacity="0.24"/><stop offset="0.99" stop-color="#f6fcfb" stop-opacity="0.03"/><stop offset="1" stop-color="#fff" stop-opacity="0"/></linearGradient><linearGradient id="Degradado_sin_nombre_17" x1="154.42" y1="67.39" x2="181.37" y2="67.39" gradientUnits="userSpaceOnUse"><stop offset="0" stop-color="#2bbba0" stop-opacity="0.8"/><stop offset="0.15" stop-color="#32bda3" stop-opacity="0.77"/><stop offset="0.31" stop-color="#45c3ac" stop-opacity="0.7"/><stop offset="0.49" stop-color="#66ceba" stop-opacity="0.58"/><stop offset="0.67" stop-color="#93dccf" stop-opacity="0.41"/><stop offset="0.86" stop-color="#cdefe9" stop-opacity="0.19"/><stop offset="1" stop-color="#fff" stop-opacity="0"/></linearGradient><linearGradient id="Degradado_sin_nombre_19" x1="151.61" y1="44.6" x2="151.61" y2="18.76" gradientUnits="userSpaceOnUse"><stop offset="0" stop-color="#2bbba0" stop-opacity="0.8"/><stop offset="0.13" stop-color="#33bea4" stop-opacity="0.77"/><stop offset="0.31" stop-color="#49c5ae" stop-opacity="0.69"/><stop offset="0.5" stop-color="#6ed1be" stop-opacity="0.55"/><stop offset="0.7" stop-color="#a2e1d5" stop-opacity="0.35"/><stop offset="0.92" stop-color="#e3f6f2" stop-opacity="0.11"/><stop offset="1" stop-color="#fff" stop-opacity="0"/></linearGradient><linearGradient id="Degradado_sin_nombre_16" x1="118.68" y1="49.26" x2="145.24" y2="49.26" gradientUnits="userSpaceOnUse"><stop offset="0" stop-color="#2bbba0" stop-opacity="0.8"/><stop offset="0.13" stop-color="#33bea3" stop-opacity="0.77"/><stop offset="0.31" stop-color="#49c5ae" stop-opacity="0.69"/><stop offset="0.5" stop-color="#6ed0be" stop-opacity="0.55"/><stop offset="0.7" stop-color="#a1e1d5" stop-opacity="0.35"/><stop offset="0.92" stop-color="#e3f6f2" stop-opacity="0.11"/><stop offset="1" stop-color="#fff" stop-opacity="0"/></linearGradient></defs><title>riñihuazo</title><g class="cls-1"><g id="Capa_11" data-name="Capa 11">
            <image
                width="1280" height="612" transform="translate(-5.31 0) scale(0.17)"
                xlink:href="01-imagen-como-imagen.webp"
            />
            <text class="cls-3" transform="translate(184.27 95.99)">10 Km</text></g><g id="Figura_1" data-name="Figura 1"><path class="cls-4" d="M47.38,56.19A39.09,39.09,0,0,0,45.94,60C47,60.67,48,61.43,49,62.19l-.24-.9.26-.07.13,0,1.41-.35c.78-.19,1.56-.37,2.34-.53,1.57-.32,3.14-.6,4.69-.79a22.13,22.13,0,0,1,2.21-.18,7.22,7.22,0,0,1,1.92.24,49.25,49.25,0,0,1,8.63,3.63c1.47.72,3,1.46,4.51,2.16a34.65,34.65,0,0,0,4.94,1.85,19.89,19.89,0,0,0,5.48.68,15.92,15.92,0,0,0,5.58-1.1,17.1,17.1,0,0,0,8.24-7.41,27,27,0,0,0,2.24-4.86,28.38,28.38,0,0,0,1.32-5.21l-4.31-.57c-1,5.75-4,12-9.1,14a13.56,13.56,0,0,1-8.33.25,55.08,55.08,0,0,1-8.66-3.72c-1.48-.72-3-1.46-4.53-2.15a30.4,30.4,0,0,0-5-1.8,11.94,11.94,0,0,0-3-.36,25.08,25.08,0,0,0-2.7.21c-1.72.21-3.39.51-5,.85-.83.17-1.65.36-2.47.56L48.05,57l-.14,0-.28.07Z"/><path class="cls-5" d="M156.88,58.34q-1.32,1.6-2.46,3.21c.83,1,1.61,2,2.33,3l0-.94h1.06a7.31,7.31,0,0,1,1,.07,27.87,27.87,0,0,1,4.11.59,26.88,26.88,0,0,1,3.93,1.12,18.53,18.53,0,0,1,6.54,4.39c.43.49.85,1,1.24,1.52a16.46,16.46,0,0,1,1,1.66,13.23,13.23,0,0,1,.82,1.75,8,8,0,0,1,.31.9,6,6,0,0,1,.21.8l4.3-.69a15.06,15.06,0,0,0-.76-2.57,16.75,16.75,0,0,0-1.06-2.27,19.25,19.25,0,0,0-1.32-2.12c-.5-.67-1-1.31-1.58-1.93a22.8,22.8,0,0,0-8.12-5.48A30.87,30.87,0,0,0,163.9,60a34,34,0,0,0-4.69-.67,9.2,9.2,0,0,0-1.17-.08h-1.18Z"/><path class="cls-6" d="M120.1,51a.29.29,0,0,1,.21-.44,4.36,4.36,0,0,1,1.51.09,3.47,3.47,0,0,0,1.68,0,.29.29,0,0,1,.22,0l1.9,1.14.12,0,1.79.12a.34.34,0,0,1,.14.05l1,.61a.25.25,0,0,0,.14,0l3,.13a.36.36,0,0,1,.17.07l1,.9,1.6,1.47a.26.26,0,0,0,.13.06l1.07.24a.34.34,0,0,1,.16.1l.42.53a.27.27,0,0,0,.17.1l.63.1a.35.35,0,0,1,.16.08l.47.48,0,0a14.89,14.89,0,0,0,2.2,2.33,19,19,0,0,1,2.29,2,.27.27,0,0,0,.13.07,16.65,16.65,0,0,1,2.56.77.74.74,0,0,1,.17.42.3.3,0,0,1-.21.31l-.63.17a.28.28,0,0,0-.21.3l0,.19a.29.29,0,0,0,.28.27H145a.28.28,0,0,1,.18.06l1.06.83a.31.31,0,0,0,.18.07h1.53a.26.26,0,0,1,.19.07l.95.84a.21.21,0,0,1,.07.11l.36.9a.18.18,0,0,1,0,.1v1.52a.26.26,0,0,1-.15.25l-.27.15a.3.3,0,0,1-.33,0L148,68a.16.16,0,0,0-.08-.06l-1.65-.75,0,0-.67-.44a.29.29,0,0,0-.2,0l-1.4.24h-.13l-1.22-.37-.09,0-1.12-.89a.29.29,0,0,1-.1-.25l0-.53a.28.28,0,0,0-.12-.25l-1.38-1-1.06-.74a.28.28,0,0,1-.12-.29v-.07a.28.28,0,0,0-.29-.34h-.23a.29.29,0,0,1-.25-.14l-.14-.23a.32.32,0,0,0-.27-.14l-.34,0a.29.29,0,0,1-.29-.17l-.11-.26a.26.26,0,0,0-.28-.18h-.25a.25.25,0,0,1-.17,0l-3.4-2.19a.28.28,0,0,1-.13-.24l0-.82a.27.27,0,0,0-.14-.24l-.62-.38-.6-.41-.07-.06-.33-.42a.3.3,0,0,0-.26-.11l-1.1.14a.3.3,0,0,0-.21.13l-.17.28a.29.29,0,0,1-.42.08h0a.29.29,0,0,0-.43.09l-.12.24a.35.35,0,0,1-.1.11l-.55.37a.3.3,0,0,1-.18,0l-1.14-.07h0l-1.3.05a.32.32,0,0,1-.14,0l-.87-.45-.06,0-.92-.24h-.12L122,57a.28.28,0,0,1-.34-.29l0-.5a.22.22,0,0,1,0-.13l.35-.63a.28.28,0,0,1,.14-.12L123,55a.28.28,0,0,1,.18,0l.88.19a.28.28,0,0,0,.32-.15l.22-.47a.29.29,0,0,0-.1-.37l-2.91-1.85,0,0-1.28-1.07a.13.13,0,0,1-.06-.07Z"/><path class="cls-6" d="M154.49,56.91l.08-.38a.19.19,0,0,0-.13-.21l-.42-.1a.18.18,0,0,1-.14-.17v-.39a.17.17,0,0,0-.12-.17l-.94-.29a.15.15,0,0,1-.09-.06l-1-1.23a.2.2,0,0,1,0-.11V53a.21.21,0,0,0,0-.1l-.39-.54a.16.16,0,0,0-.23-.05l-.76.45a.18.18,0,0,1-.16,0l-.51-.24a.17.17,0,0,1-.1-.16v-.72a.09.09,0,0,1,0-.05l.26-.88a.14.14,0,0,0,0-.09l-.26-1a.16.16,0,0,0,0-.07l-1.28-1.28,0,0L147,47.65a.05.05,0,0,1,0,0l-1.09-.93a.18.18,0,0,1-.06-.09l-.23-1a.16.16,0,0,0,0-.07L144.27,44a.17.17,0,0,0-.14-.07h-.73a.16.16,0,0,1-.09,0l-.71-.46-.67-.44s0,0-.05,0l-.33-.09a.19.19,0,0,1-.1-.28l.09-.12a.18.18,0,0,1,.15-.08H142a.18.18,0,0,0,.18-.19l0-.28v0l-.17-.52a.18.18,0,0,0-.29-.07l-.27.27a.18.18,0,0,1-.17.05l-.53-.16s-.05,0-.06,0l-1-.91,0,0-1-.42a.2.2,0,0,0-.13,0l-1.24.4-.08,0-.54.59a.2.2,0,0,1-.15.06l-1-.11-.9-.09-.83-.1-.07,0-.28-.19a.13.13,0,0,0-.12,0l-.88.1-.06,0-.93.49a.15.15,0,0,1-.16,0l-.88-.45a.16.16,0,0,0-.1,0l-.59,0a.17.17,0,0,1-.18-.11l-.18-.44a0,0,0,0,0,0,0L129,39.05a.22.22,0,0,1,.06-.17l.45-.37,0,0,.33-.49.07-.06.49-.26h0l.77-.24a.18.18,0,0,1,.21.08l.12.21a.17.17,0,0,1,0,.19l-.12.16a.17.17,0,0,0,.13.28h.17a.17.17,0,0,0,.15-.07l.34-.47a.14.14,0,0,1,.1-.07l.53-.12a.21.21,0,0,0,.11-.08l.16-.26a.19.19,0,0,0,0-.1l-.06-.87a.09.09,0,0,1,0,0l.14-.71a.2.2,0,0,1,.12-.13l.43-.14a.16.16,0,0,1,.18.06l.2.22a.16.16,0,0,0,.18.06l.65-.19a.34.34,0,0,1,.1,0l.54.17a.16.16,0,0,1,.11.09l.32.6a.17.17,0,0,0,.13.09l.69.13.06,0,.16.09a.14.14,0,0,1,.09.11l.09.35a.18.18,0,0,0,.19.14l.57-.07h0l.28-.13a.17.17,0,0,0,.09-.22l-.16-.41a.18.18,0,0,0-.14-.11l-.2,0a.18.18,0,0,1-.15-.21l.08-.39a.18.18,0,0,0-.11-.2l-.55-.19-.06,0-.35-.31a.1.1,0,0,1,0,0l-.45-.83a.19.19,0,0,0-.16-.09h-1.56l-1.76-.49a.22.22,0,0,1-.12-.11l-.35-.88a.13.13,0,0,0-.06-.07l-.89-.65,0,0-.38-.47a.17.17,0,0,1,0-.23l.2-.24a.23.23,0,0,1,.12-.06l1.3-.13h1.09a.17.17,0,0,1,.12.05l.68.66,0,0,.74.38h0l.52.17A.17.17,0,0,1,136,32l0,.28a.18.18,0,0,0,.18.15l.83,0a.21.21,0,0,0,.1,0l.65-.49,0-.05.27-.42a.16.16,0,0,0,0-.08l.05-.67a.17.17,0,0,1,.09-.14l1.22-.69a.2.2,0,0,0,.09-.13l.13-1.08v0l.11-.46A.18.18,0,0,1,140,28h1a.2.2,0,0,0,.14-.06l.58-.73,0,0,.2-.34a.17.17,0,0,1,.23-.07l.3.14a.19.19,0,0,1,.1.16v.86h0L142.56,29v0l-.16.61a.15.15,0,0,1-.06.09l-.65.53,0,0-.35.37a.2.2,0,0,1-.09,0l-.63.17a.17.17,0,0,0-.12.22l.11.34a.09.09,0,0,0,0,.06l.22.28a.16.16,0,0,0,.21.05l.74-.35,0,0,.5-.44s0,0,0,0l.43-.59a.17.17,0,0,1,.19-.06l.22.06.07,0,.3.27a.17.17,0,0,1,0,.19l-.15.41v0l-.13.49v0l-.08.56s0,0,0,0l-.75,1.6a.16.16,0,0,0,0,.15l.4.74.45.86a.2.2,0,0,1,0,.15l-.24.54a.16.16,0,0,0,0,.1l.12.74s0,0,0,0l.43,1a.43.43,0,0,0,0,.05l.08.82a.13.13,0,0,0,0,.08l.45.66s0,0,0,0l.2.47a.13.13,0,0,1,0,.06l0,.23a.18.18,0,0,0,0,.12l.41.38,0,0,1.36,1s0,0,0,0l.78,1.16a.09.09,0,0,1,0,.06l.15.76a.14.14,0,0,0,0,.06l.38.57a.18.18,0,0,0,.11.08l.67.12h0l1.19,0a.21.21,0,0,1,.11,0l1.12.95,0,0,.37.59a.15.15,0,0,1,0,.16l-.06.14a.18.18,0,0,0,.11.24l.34.1h0l.59.29h0l.89.2a.2.2,0,0,1,.13.12l.42,1.3v0l.2.89a.2.2,0,0,1-.1.2l-.68.31h0l-.47.32a.19.19,0,0,0-.05.24L153,52s0,0,0,.07l.1,1.12s0,0,0,.06l.28.51a.15.15,0,0,0,.16.09l1.36-.08h0l.89-.23h0l.25-.1a.18.18,0,0,1,.22.09l.31.7,0,0,.3.38a.18.18,0,0,0,.26,0l.32-.31a.22.22,0,0,1,.11,0h.13a.18.18,0,0,1,.2.17v.13a.21.21,0,0,1-.07.14l-.42.35a.18.18,0,0,0-.05.18l.09.35,0,.05.35.49a.18.18,0,0,1,0,.2l-.57.83a.17.17,0,0,1-.14.08h-1.21l-.72.15a.2.2,0,0,1-.11,0l-.54-.25-.1,0A.18.18,0,0,1,154.49,56.91Z"/><path class="cls-6" d="M165.16,53.62a7.51,7.51,0,0,1,.51-.67.15.15,0,0,0,0-.17l-.24-.63a0,0,0,0,1,0,0l-.06-.34a.15.15,0,0,1,0-.14L166,51h0l1-1,0,0,.75-.94h0l.86-1.22a.15.15,0,0,0,0-.13l-.09-.5a.16.16,0,0,1,.06-.17l.34-.24a.18.18,0,0,1,.16,0l.24.09a.19.19,0,0,1,.11.16v1a.13.13,0,0,0,.05.12l.51.48a.18.18,0,0,1,.05.12v.87a.14.14,0,0,1,0,.09l-.74,1,0,0-.7.65a.22.22,0,0,0,0,.08l-.18.67a.12.12,0,0,1,0,.08l-.36.35a.18.18,0,0,1-.19,0l-.54-.22a.16.16,0,0,0-.22.1l-.1.24a.09.09,0,0,1,0,0l0,.64a.16.16,0,0,1-.09.14l-.75.37a.21.21,0,0,1-.11,0l-.53-.09h-.12a.18.18,0,0,1-.12-.29l0,0Z"/><path class="cls-6" d="M176.67,61.5l.38-.32a.15.15,0,0,1,.11,0h.89a.16.16,0,0,1,.14.08l.54.89h0l.24.46a.16.16,0,0,0,.27,0l.75-.83,0,0,.61-.44a.2.2,0,0,1,.13,0l.88.17a.16.16,0,0,1,.13.11l.27.85a.08.08,0,0,0,0,.05l.91,1.25s0,0,.05,0l1.12.64h0l1.17.81a.16.16,0,0,1,.07.09l.21.79.28,1,.16.7a.18.18,0,0,0,.11.13l1.79.59H188l.7-.11.09,0,.37-.32a.17.17,0,0,1,.21,0l1.15.78,0,0,.88,1.15,0,.07.29,1.45a.12.12,0,0,0,0,.08l.66.69a.16.16,0,0,1,0,.11v.58a.29.29,0,0,0,0,.09l.58.95a.14.14,0,0,1,0,.06l.22,1,.2.84a.08.08,0,0,1,0,.07l-.19,1.08a.2.2,0,0,0,0,.11l.4.74a.14.14,0,0,1,0,.11l-.13.65a.19.19,0,0,1,0,.1l-.21.19a.17.17,0,0,0,.05.28l.41.18a.18.18,0,0,1,.1.16v.13a.18.18,0,0,1-.17.17h0a.16.16,0,0,0-.14.26l.06.1s0,0,0,0l.21.66a.14.14,0,0,1,0,.11l-.1.26a.15.15,0,0,1-.1.09l-.3.11h-.12l-.89-.34a.27.27,0,0,1-.08-.07l-.63-.89h0l-.32-.54a.12.12,0,0,1,0-.1l.11-1.1s0,0,0,0l-.17-1.43a.19.19,0,0,0,0-.07l-.28-.45a.16.16,0,0,1,0-.12l.42-2.6v0l-.12-1.29,0-.08-.76-1.06,0,0-.59-.55a.17.17,0,0,1,0-.15l.18-.88a.16.16,0,0,0,0-.1l-.37-.79a.17.17,0,0,0-.23-.08l-.38.2a.14.14,0,0,0-.07.08l-.11.24a.16.16,0,0,1-.17.1L188,69.4H188l-.78.21h-.06l-.74-.07a.23.23,0,0,1-.12-.06l-.35-.45,0,0-.3-.5a.1.1,0,0,0-.08-.07l-.63-.27a.11.11,0,0,1-.08-.07l-.42-.72a.08.08,0,0,1,0-.05l-.16-.91a.2.2,0,0,1,0-.15l.33-.34a.16.16,0,0,0,0-.26l-.28-.16-.09,0-.56,0a.14.14,0,0,1-.1,0l-1.11-.78a.13.13,0,0,1-.06-.07l-.32-.82a.18.18,0,0,0-.08-.09l-.28-.13a.18.18,0,0,1-.09-.12l-.16-.75a.18.18,0,0,0-.17-.14l-.49,0a.2.2,0,0,0-.13.06l-.38.48a.2.2,0,0,0,0,.11v.81a.19.19,0,0,1-.09.15l-.77.43,0,0L179,65a.17.17,0,0,1-.13,0l-.75-.1a.16.16,0,0,1-.13-.11l-1-2.47,0,0-.29-.39a.19.19,0,0,1,0-.1v-.2A.16.16,0,0,1,176.67,61.5Z"/><path class="cls-6" d="M148,21h0a.33.33,0,0,0,.29,0l.49-.15a.32.32,0,0,1,.34.09l.07.08a.32.32,0,0,0,.39.07l.84-.45a.26.26,0,0,1,.21,0l.67.13a.33.33,0,0,0,.32-.11l.25-.34,0-.08.27-.73a.09.09,0,0,1,0-.06l.13-.21a.31.31,0,0,1,.26-.14h.14a.32.32,0,0,0,.31-.27l0-.2a.31.31,0,0,0-.31-.35h-.27l-.22.08a.31.31,0,0,1-.37-.13l-.18-.28a.31.31,0,0,0-.32-.14l-.15,0a.3.3,0,0,0-.26.35l0,.14a.33.33,0,0,1-.25.36l-.53.12a.31.31,0,0,0-.13.06l-.52.4,0,0-.3.17a.4.4,0,0,1-.15,0h-.38a.33.33,0,0,0-.28.17l-.29.53-.21.36A.33.33,0,0,0,148,21Z"/><path class="cls-6" d="M155.16,16.88V15.69a.19.19,0,0,0-.1-.17l-.62-.29a.2.2,0,0,0-.17,0l-.2.12a.2.2,0,0,1-.22,0l-.73-.65a.16.16,0,0,0-.12,0h-.78a.17.17,0,0,0-.13,0l-.91.89a.18.18,0,0,0-.05.07l-.17.55a.18.18,0,0,1-.1.11l-1.11.46h0l-1.78.54h0l-1.79,1h0l-2.09.59a.17.17,0,0,1-.17,0l-.15-.13a.17.17,0,0,0-.26,0l-.51.63,0,0-2,1.77a.17.17,0,0,1-.15,0l-1.3-.21a.24.24,0,0,1-.11-.06l-.56-.65a.17.17,0,0,1,0-.15l.11-.56a.19.19,0,0,0-.25-.21l-1,.43-1.1.38a.19.19,0,0,1-.21-.08l-.42-.71a0,0,0,0,1,0,0l-.34-.92a.13.13,0,0,1,0-.06v-.34a.17.17,0,0,1,.13-.17l.61-.18a.18.18,0,0,0,.1-.27l-.27-.41h0l-.27-.5a.16.16,0,0,1,.05-.23l.68-.52a.15.15,0,0,0,.07-.13l0-.61a.18.18,0,0,0-.15-.19l-.51-.08a.16.16,0,0,1-.11-.07l-.31-.35a.23.23,0,0,1,0-.16l.12-.58a.17.17,0,0,1,.06-.11l1.58-1.19a.11.11,0,0,1,.08,0l3.79-.57h1.37a.11.11,0,0,0,.08,0l1.5-.72.06-.05.37-.47a.16.16,0,0,1,.08-.06l1.51-.55h0l1-.22a.24.24,0,0,0,.11-.06l.17-.22a.17.17,0,0,1,.18-.06l.86.2a.12.12,0,0,1,.09,0l.61.67s0,0,0,0l.38.21a.17.17,0,0,0,.19,0l.2-.14a.18.18,0,0,0,0-.3l-.36-.23a.18.18,0,0,1-.08-.22l.12-.28a.1.1,0,0,1,0,0l.37-.4h0l.87-.69a.18.18,0,0,1,.23,0l.54.46a.22.22,0,0,1,.05.08l.19.54a.19.19,0,0,0,.14.12l1.62.2a.18.18,0,0,1,.15.15l.17.84.14.93a.18.18,0,0,0,.19.16l1-.06a.19.19,0,0,1,.12,0l.66.49.05,0,1.75.63.86.28a.18.18,0,0,1,.12.22l-.19.68v0l-.15,1.57a.18.18,0,0,0,.18.2h.82a.17.17,0,0,1,.15.07l.53.77a.14.14,0,0,0,.11.07l1.34.29h0l1,.38.62.22a.17.17,0,0,1,.12.17v.16a.17.17,0,0,0,.2.18l.63-.08a.17.17,0,0,1,.16.06l.65.7,0,0,.31.58a.25.25,0,0,1,0,.15l-.32.81,0,.05-.82,1.09a.24.24,0,0,1-.16.07l-1.49-.11h-.05l-1.69-.65a.16.16,0,0,1-.08-.06l-1-1.25,0,0-1.41-.91,0,0-.9-.86a.12.12,0,0,0-.08,0l-1.21-.32-.88-.19A.18.18,0,0,1,155.16,16.88Z"/><path class="cls-6" d="M167,24.29l.09-.21a.15.15,0,0,1,.15-.1h.51a.18.18,0,0,0,.16-.12l.42-1.18a.17.17,0,0,1,.12-.1l1.11-.25h.07l2,.4.08,0,.6.54a.17.17,0,0,1,.06.16l-.12.6a.18.18,0,0,0,0,.14l.26.32s0,0,0,0l.69.6s0,0,0,0l.5.69h0l.42.49a.15.15,0,0,1,0,.11v.42a.21.21,0,0,0,.07.14l.42.3a.17.17,0,0,1,.05.22l-.13.23a.16.16,0,0,1-.11.07l-.49.12a.17.17,0,0,1-.14,0l-.82-.59h0l-.59-.52a.21.21,0,0,1,0-.17l.18-.77a.16.16,0,0,0,0-.12l-.46-.8a.18.18,0,0,0-.09-.08l-.11,0a.17.17,0,0,0-.21.24l.17.33a.19.19,0,0,1,0,.08v.19a.16.16,0,0,1-.23.15l-.31-.13a.18.18,0,0,1-.1-.11l-.23-.73a.21.21,0,0,0,0-.06l-.18-.21a.16.16,0,0,0-.17-.05l-.74.21-1,.29h-.09l-.91-.26-.64-.17,0,0-.16-.11A.17.17,0,0,1,167,24.29Z"/><path class="cls-7" d="M34.16,57.87l1.17-1.29a.54.54,0,0,0,.14-.5c-.09-.49-.24-1.45.06-1.65s.69-.83,1.52.14,1,1.38,1.79,1.1.41-3.58.69-3.86,1.65-1.51,2.34-1.24,1.93,2.48,2.76,2.34a4,4,0,0,0,3.44-2.2c.78-1.55,2.44.63,3.07,1.55a.57.57,0,0,0,.67.22A6.75,6.75,0,0,1,54.69,52c.74.25,3.22-.71,3.76-.92l.18-.12,1.26-1.14a.53.53,0,0,1,.41-.15l2.89.11a.58.58,0,0,1,.47.28c.32.51,1,1.56,1.78,1.66,1,.14,1.38.14,1.24,1s1.93,1.24,2.34,1l2.11-1.31a.56.56,0,0,1,.21-.09c.42-.06,1.83-.25,2.36.15a.66.66,0,0,0,.4.15h.57c.28,0,.63.71.82,1.16A.59.59,0,0,0,76,54h1.83a.57.57,0,0,1,.56.42,1.49,1.49,0,0,1,0,1c-.25.62.5,1.12.57,1.81a.58.58,0,0,0,.24.44l.81.59a.61.61,0,0,0,.39.11c.62-.05,2.45-.11,3,.83a.76.76,0,0,0,.19.21c.2.15.55.27.55-.82,0-1.51,1.51-1,1.51-1a2,2,0,0,0,2.62-1.52,5.2,5.2,0,0,0,.21-2.58.58.58,0,0,1,0-.39,9.82,9.82,0,0,0,.6-1.85c0-.3.67-.76,1-1a.6.6,0,0,0,.27-.39,10.79,10.79,0,0,0,.22-1.81c0-.83,1.38-1.1,1.8-2.07.14-.33.23-.57.29-.73a.81.81,0,0,1,.53-.49l.18,0a.59.59,0,0,0,.42-.5l0-.32a.59.59,0,0,1,.59-.52h.29a.8.8,0,0,0,.5-.18l.18-.14a.6.6,0,0,1,.63-.07l.62.31a.56.56,0,0,0,.31.06l1.38-.1a.53.53,0,0,1,.43.14l.58.49a.6.6,0,0,0,.46.14l.48-.07a.58.58,0,0,1,.41.09l.5.33a.58.58,0,0,0,.32.1h1l.18,0,.51.17a.56.56,0,0,0,.44,0l3.13-1.5a.79.79,0,0,1,.22-.06l1.73-.12.16,0,1.34-.48a.51.51,0,0,1,.2,0h1.21a.36.36,0,0,0,.14,0l.76-.19a.61.61,0,0,1,.49.1l.81.61L114,43l.58.2a.5.5,0,0,1,.27.18l.58.69.41.52a.76.76,0,0,1,.15.28.66.66,0,0,0,.08.21l.77,1.11,1.62,2.48,1.34,1.43,1.23,1.17"/><path class="cls-7" d="M142.19,28.27l0-1v-.8a.28.28,0,0,0,0-.09l-.11-.75s0-.05,0-.08v-.17a.59.59,0,0,1,.26-.48l.42-.29.17-.08.51-.14a.62.62,0,0,1,.27,0h0a.53.53,0,0,0,.51-.14l.63-.6a.64.64,0,0,1,.22-.14l.54-.18a.61.61,0,0,1,.3,0l.17,0a.59.59,0,0,0,.71-.45l.23-1.15a.66.66,0,0,1,.11-.24l.16-.2a.59.59,0,0,1,.29-.18l.17,0,.16-.07L148,21"/><path class="cls-7" d="M145.12,64.41l2.57-1.21a.45.45,0,0,0,.19-.15L149,61.77l0-.05,1.19-1.07,0,0,.37-.42a.61.61,0,0,0,.13-.22l1.73-5.74,0-.07.21-.49"/><path class="cls-7" d="M153.47,53.76l4.29-2.21.05,0,1.28-.51a.59.59,0,0,1,.22-.05l6.67.7"/><path class="cls-7" d="M167.9,52.17l0,0,3.42,1.72,1.58.79,0,0,.64.4.06,0,3.64,6.31"/><path class="cls-7" d="M152.54,18.76l1.35-1,.12-.05.62-.19.1,0,1.58-.94"/><path class="cls-7" d="M160.4,18.53l.73.39a.56.56,0,0,0,.38,0l.21,0a.48.48,0,0,1,.37.06l.14.08a.58.58,0,0,1,.18.17h0a.54.54,0,0,0,.6.21l.14,0a.55.55,0,0,1,.48.09l.48.38,0,0,.44.39"/><circle class="cls-8" cx="111.21" cy="42.51" r="5.55"/><g id="Pueblos"><polygon class="cls-9" points="33.66 57.81 34.07 58.63 34.62 58.49 34.62 57.81 35.45 57.81 35.45 58.49 36 58.91 36.41 59.18 37.24 58.91 36.96 59.46 37.1 60.01 37.24 60.56 37.65 60.01 38.2 59.87 39.31 59.87 40.13 59.6 40.55 59.18 39.86 58.49 40.27 57.94 40.55 57.39 40.27 56.7 39.72 56.29 39.58 55.19 39.99 53.81 40.55 53.12 41.51 52.57 40.55 51.6 39.99 51.74 39.58 52.57 39.03 52.84 38.89 52.29 38.75 51.88 38.2 52.29 38.34 52.84 38.34 53.53 38.13 53.88 37.17 54.02 36.62 53.74 35.65 53.33 35.24 52.64 34.55 52.78 34.14 53.19 34.14 53.6 33.45 53.6 33.31 53.19 32.9 53.6 33.04 54.29 33.86 55.26 34.55 55.67 34.97 56.08 34.55 56.91 33.66 57.81"/><circle class="cls-9" cx="111.21" cy="42.41" r="0.66"/><circle class="cls-9" cx="113.31" cy="42.51" r="0.66"/><circle class="cls-9" cx="108.59" cy="43.07" r="0.66"/><circle class="cls-9" cx="57.22" cy="51.47" r="1.33"/><circle class="cls-9" cx="69.92" cy="52.79" r="1.33"/><circle class="cls-9" cx="79.86" cy="58.32" r="1.33"/></g><line class="cls-8" x1="111.21" y1="31.68" x2="111.21" y2="37"/><polygon class="cls-10" points="37.64 41.85 40.33 41.85 41.51 40.95 43.08 40.38 44.04 39.29 45.32 38.33 46.06 37.95 47.43 38.65 49.86 38.39 54.59 38.14 54.27 36.92 51.84 35.26 50.24 37.05 48.52 37.24 47.3 36.99 46.4 35.83 45.38 36.28 43.65 36.54 43.14 35.64 43.59 35.13 45.02 34.09 45.32 32.38 45.44 30.91 46.72 28.73 45.64 29.18 44.68 29.31 44.55 27.45 45.64 26.11 47.3 23.8 46.4 24.25 44.74 25.21 45.64 23.93 45.02 22.97 43.4 24.83 42.37 26.36 42.76 27.9 42.76 31.42 42.76 33.66 41.09 34.09 39.94 37.11 38.79 39.35 37.89 39.67 35.72 40.25 35.72 41.66 33.8 42.74 32.33 41.66 30.41 42.23 29 44.28 30.53 44.02 32.9 43.06 32.9 44.09 33.8 45.05 31.75 51.65 31.11 53.24 32.01 54.45 31.37 55.16 31.94 56.81 32.45 58.61 31.43 60.56 30.21 60.56 28.36 59.64 26.7 60.92 24.65 60.92 22.66 62.07 20.68 62.39 19.89 62.89 19.6 63.08 19.09 63.03 18.66 62.86 17.36 62.98 18.3 60.56 18.66 59.48 16.43 59.48 16.43 57.88 17.6 55.64 16.78 54.02 18.77 52.1 18.66 50.14 18.07 48.55 19.01 47.4 18.66 45.46 18.19 42.23 16.66 39.98 16.78 38.69 17.48 36.11 19.96 36.11 21.58 34.64 21.3 33.81 23.19 33.31 23.25 31.92 22.24 30.92 22.86 30.3 24.3 30.3 25.25 29.58 27.08 27.86 27.19 24.86 28.8 24.02 28.75 22.3 30.47 21.02 31.64 19.91 31.64 18.18 30.97 15.85 30.58 14.68 32.14 13.9 31.75 13.35 33.75 13.35 35.47 11.17 34.16 7.97 36.48 -6.28 34.16 -8.21 34.16 -11.25 35.63 -11.9 -24.07 -11.9 -24.07 88.1 -5.31 88.1 -5.31 85.12 -5.31 72.89 -0.55 70.36 3.83 69.33 5.47 68.36 6.94 67.77 8.1 66.15 9.74 62.74 11.56 60.11 14.63 60.56 16.36 62.03 14.55 64.65 13.96 65.91 16.54 67.38 17.83 69.9 16.19 72.13 17.83 74.94 21 74.48 21 70.96 18.77 68.78 19.71 66.85 22.06 69.78 23.7 70.84 24.41 68.78 25.7 70.37 25.7 72.72 26.75 75.41 29.33 75.65 27.45 71.66 26.63 69.31 24.52 67.38 22.64 66.73 21.47 65.32 20.06 64.65 20.36 64.23 21.45 63.95 22.6 63.54 23.5 63.16 26.31 62.58 27.91 61.75 27.91 63.03 28.87 62.45 29.96 63.09 30.79 64.65 31.88 65.08 32.01 66.68 33.86 67.38 34.16 67.96 32.9 70.39 33.54 70.84 34.16 69.49 35.14 68.78 35.21 70 36.29 70.71 36.29 68.78 35.01 66.48 33.86 64.65 34.89 63.95 37.2 64.95 37.64 65.2 38.98 66.36 41.51 66.87 43.46 65.78 44.55 66.74 45.02 68.4 45.02 69.62 46.85 70.07 46.98 71.73 47.75 72.69 48.77 71.92 48.9 69.49 46.66 68.15 46.06 66.1 45.02 63.41 43.91 63.95 42.56 64.31 40.84 65.01 39.56 64.65 38.47 62.84 36.84 63.67 35.08 62.45 33.54 62.84 33.54 60.02 34.55 55.67 33.73 54.02 32.9 52.79 33.61 50.86 36.36 46.2 36.36 44.92 35.65 43.51 36.23 41.78 37.64 41.85"/><text class="cls-11" transform="translate(46.78 48.06)">H<tspan class="cls-12" x="2.18" y="0">uellelhue</tspan></text><text class="cls-3" transform="translate(65.74 49.26)">A<tspan class="cls-13" x="1.98" y="0">n</tspan><tspan x="3.82" y="0">tilhue</tspan></text><text class="cls-3" transform="translate(80.93 50.52)"><tspan class="cls-14">L</tspan><tspan x="1.75" y="0">os</tspan><tspan x="-1.67" y="3.6">Lagos</tspan></text><text class="cls-3" transform="translate(127.92 62.2)">Lago<tspan class="cls-15" x="-1.99" y="3.6">R</tspan><tspan x="-0.01" y="3.6">iñihue</tspan></text><text class="cls-3" transform="translate(100.73 30.16)"><tspan class="cls-16">Z</tspan><tspan x="1.82" y="0">on</tspan><tspan class="cls-17" x="5.47" y="0">a</tspan><tspan x="7.1" y="0" xml:space="preserve"> de</tspan><tspan class="cls-18" x="11.74" y="0"> </tspan><tspan class="cls-19" x="12.68" y="0">T</tspan><tspan x="14.19" y="0">acos</tspan></text><text class="cls-3" transform="translate(173.89 43.07)">Lago<tspan class="cls-20" x="-2.79" y="3.6">N</tspan><tspan x="-0.61" y="3.6">e</tspan><tspan class="cls-21" x="1.12" y="3.6">l</tspan><tspan class="cls-12" x="1.98" y="3.6">tume</tspan></text><text class="cls-3" transform="translate(174.98 20.3)">Lago<tspan class="cls-22" x="-1.85" y="3.6">P</tspan><tspan x="-0.04" y="3.6">ellai</tspan><tspan class="cls-23" x="6.02" y="3.6">f</tspan><tspan class="cls-17" x="7.11" y="3.6">a</tspan></text><text class="cls-3" transform="translate(132.7 5.6)">Lago<tspan x="-3.96" y="3.6">Cal</tspan><tspan class="cls-15" x="0.71" y="3.6">a</tspan><tspan class="cls-24" x="2.39" y="3.6">f</tspan><tspan x="3.53" y="3.6">quén</tspan></text><text class="cls-3" transform="translate(96.88 48.69)"><tspan class="cls-15">R</tspan><tspan x="1.98" y="0">ío</tspan><tspan class="cls-25" x="-5.14" y="3.6">S</tspan><tspan x="-3.25" y="3.6">an </tspan><tspan class="cls-22" x="1.33" y="3.6">P</tspan><tspan x="3.13" y="3.6">ed</tspan><tspan class="cls-26" x="6.74" y="3.6">r</tspan><tspan class="cls-12" x="7.92" y="3.6">o</tspan></text><text class="cls-3" transform="translate(72.71 68.77)"><tspan class="cls-15">R</tspan><tspan x="1.98" y="0">ío</tspan><tspan x="-5.54" y="3.6">Calle Calle</tspan></text><text class="cls-3" transform="translate(144.02 55.63)"><tspan class="cls-15">R</tspan><tspan x="1.98" y="0">ío</tspan><tspan x="-1.34" y="3.6">Enco</tspan></text><text class="cls-3" transform="translate(164.68 56.99)"><tspan class="cls-15">R</tspan><tspan x="1.98" y="0">ío</tspan><tspan x="-5.83" y="3.6">Llanquihue</tspan></text><text class="cls-3" transform="translate(129.07 24.28)"><tspan class="cls-15">R</tspan><tspan x="1.98" y="0">ío</tspan><tspan x="-2.39" y="3.6">Zahuit</tspan></text><text class="cls-3" transform="translate(32.9 49.26)"><tspan class="cls-27">V</tspan><tspan x="1.76" y="0">aldivi</tspan><tspan class="cls-17" x="9.42" y="0">a</tspan></text><polyline class="cls-7" points="163.9 20.75 165.07 23.43 165.72 23.65 166.08 23.98 166.71 23.75 167.46 24.28"/><path d="M186.48,6.58l-.14-.18a8.13,8.13,0,0,0,.88-.68A8.61,8.61,0,0,0,188,5c.23-.26.45-.55.68-.86h0a10.79,10.79,0,0,0,.69.86,8.5,8.5,0,0,0,.73.74,9.63,9.63,0,0,0,.88.68l-.14.18a10.93,10.93,0,0,1-1.23-1.06,6.36,6.36,0,0,1-.86-1.06c0,.14,0,.29,0,.45s0,.3,0,.43V9h-.2V5.34c0-.13,0-.28,0-.43s0-.31,0-.45a5.8,5.8,0,0,1-.85,1.06A11.07,11.07,0,0,1,186.48,6.58Z"/><path d="M190.54,10V14.8h-.27l-2.94-4.19-.25-.4h0l0,.47V14.8h-.2V10h.26l2.95,4.19.25.41V10Z"/><path class="cls-28" d="M150.93,44.6a33,33,0,0,0,4-.5,31.9,31.9,0,0,1,.52-3.73l-.69.64-.17-.2-.09-.09-.08-.09a3.27,3.27,0,0,1-.3-.35c-.2-.24-.41-.47-.59-.71a14.33,14.33,0,0,1-3.13-6.09,5.59,5.59,0,0,1,.24-2.91,12.93,12.93,0,0,1,1.55-3,27.31,27.31,0,0,1,5-5.39l-2.72-3.4a34.28,34.28,0,0,0-3.14,3,28.42,28.42,0,0,0-2.72,3.39,17.54,17.54,0,0,0-2.08,4.1,10,10,0,0,0-.39,5,14.45,14.45,0,0,0,1.58,4.41,23.4,23.4,0,0,0,2.44,3.67c.22.29.46.55.69.83s.23.27.35.4l.09.11.11.11.2.22Z"/><path class="cls-29" d="M122.66,40.17a34.41,34.41,0,0,1-3.86.89,36.1,36.1,0,0,0-.11,3.91l.6-.72.23.19.12.09.55.44.89.67A30.25,30.25,0,0,0,125,48a21.27,21.27,0,0,0,2.17,1c.37.14.77.26,1.16.38l1.15.29a18.36,18.36,0,0,1,6.7,3.29,34.34,34.34,0,0,1,5.71,5.38l3.4-2.7a38.56,38.56,0,0,0-6.52-6.18,22.61,22.61,0,0,0-8.36-4.05,18,18,0,0,1-6.72-3.29l-.79-.59-.48-.39-.11-.08-.2-.17Z"/><text class="cls-3" transform="translate(149.65 35.47)">Lago<tspan x="-4.55" y="3.6">Panguipulli</tspan></text><text class="cls-3" transform="translate(151.72 23.36)">Lago<tspan x="-3.37" y="3.6">Pullinque</tspan></text><text class="cls-3" transform="translate(175.61 71.4)">Lago<tspan x="-3.74" y="3.6">Pirihueico</tspan></text></g><g id="Capa_7" data-name="Capa 7"><g class="cls-30"><circle class="cls-31" cx="37.64" cy="56.08" r="5.94"/><ellipse class="cls-32" cx="37.64" cy="56.08" rx="12.08" ry="12.28"/><ellipse class="cls-32" cx="37.64" cy="56.08" rx="18.22" ry="18.62"/><ellipse class="cls-32" cx="37.64" cy="56.08" rx="24.35" ry="24.95"/><ellipse class="cls-32" cx="37.64" cy="56.08" rx="30.49" ry="31.29"/></g></g></g></svg>