<svg xmlns="http://www.w3.org/2000/svg" viewBox="0 0 100 100"><defs><style>.cls-1{fill:#1a806b;}.cls-2{fill:#2bbba0;}.cls-3{fill:#708088;}.cls-4{fill:#58595c;}.cls-5{fill:#ccc;}.cls-6,.cls-7,.cls-8{fill:none;stroke-miterlimit:10;}.cls-6{stroke:#000;stroke-width:0.1px;}.cls-7,.cls-8{stroke:#fff;stroke-width:0.2px;}.cls-8{stroke-dasharray:0.99 0.99;}.cls-9{font-size:2.34px;}.cls-11,.cls-12,.cls-16,.cls-20,.cls-9{font-family: 'Alegreya Sans', sans-serif;}.cls-10{letter-spacing:-0.1em;}.cls-11{font-size:1.4px;}.cls-12{font-size:1.91px;fill:#fff;}.cls-13{letter-spacing:-0.02em;}.cls-14{letter-spacing:-0.04em;}.cls-15{letter-spacing:-0.02em;}.cls-16{font-size:1.48px;}.cls-17{letter-spacing:-0.09em;}.cls-18{letter-spacing:-0.03em;}.cls-19{letter-spacing:0em;}.cls-20{font-size:1.85px;}.cls-21{letter-spacing:-0.09em;}.cls-22{letter-spacing:-0.03em;}.cls-23{letter-spacing:0em;}.cls-24{letter-spacing:-0.03em;}.cls-25{letter-spacing:-0.01em;}.cls-26{letter-spacing:0em;}.cls-27{letter-spacing:-0.01em;}.cls-28{letter-spacing:-0.01em;}.cls-29{letter-spacing:0em;}.cls-30{letter-spacing:-0.02em;}.cls-31{letter-spacing:0em;}</style></defs><title>riñihuazo</title><g id="Figura_2" data-name="Figura 2"><polygon class="cls-1" points="98.97 34.54 73.64 48.92 73.64 41.84 98.97 27.41 98.97 34.54"/><polygon class="cls-2" points="70.56 38.3 98.95 22.14 80.89 20.4 38.11 40.58 70.56 38.3"/><polygon class="cls-1" points="98.97 27.41 70.56 43.6 70.56 38.3 98.97 22.14 98.97 27.41"/><polygon class="cls-3" points="70.06 35.25 64.82 35.63 61.72 36.47 59.97 38.96 56.8 38.72 51.93 37.98 39.8 38.96 34.42 41.37 34.93 43.49 61.37 48.67 66.43 46.12 71.19 39.96 70.06 35.25"/><polygon class="cls-4" points="7.33 53.91 8.59 50.81 15.19 45.15 17.96 43.99 22.07 45.15 24.37 43.99 28.37 42.7 32.94 40.99 39.85 41 45.15 40.99 47.44 39.22 56.8 36.63 56.8 52.41 43.01 60.1 6.85 56.59 7.33 53.91"/><polyline class="cls-1" points="66.74 45.9 65.32 47.97 64.85 49.43 63.98 50.75 63.08 51.37 62.32 51.34 61.53 50.88 61.37 49.97 61.37 48.99 61.37 48.67 67.39 44.88 67.37 44.97 66.85 45.74 66.74 45.9"/><polyline class="cls-3" points="33.8 43.49 25.21 46.7 18.22 45.74 15.78 47.35 10.13 51.41 8.45 52.78 5.01 54.36 0.28 60.17 0.28 78.2 22.45 82.19 33.8 43.49"/><polygon class="cls-1" points="43.73 58.89 49.02 55.84 49.24 55.72 49.24 56.41 49.24 59.26 48.55 62.33 48.55 64.43 48.06 66.45 47.2 66.68 46.29 65.43 45.59 62.73 44.85 60.63 44.25 59.41 43.73 58.89"/><polygon class="cls-2" points="42.3 55.95 49.24 55.72 43.73 58.89 42.01 58.1 41.91 56.4 42.3 55.95"/><polygon class="cls-2" points="60.73 46.05 66.61 44.54 67.39 44.88 61.37 48.67 60.41 48.37 60.41 47.1 60.73 46.05"/><polygon class="cls-5" points="98.97 34.03 96.31 35.82 93.98 37.03 92.88 37.42 91.1 37.93 89.66 38.25 88 38.06 86.44 38.63 84.28 39.24 82.29 39.77 80.07 40.14 78.74 39.62 77.76 39.41 76.84 39.58 74.78 40.3 73.95 39.05 73.17 38.02 72.7 36.71 71.71 35.74 70.8 35.39 70.06 35.25 69.67 35.56 69.02 36.6 68.88 37.69 68.56 39.22 68.28 40.27 67.82 41.16 67.84 41.96 67.71 43.07 67.37 44.97 65.32 47.98 64.85 49.45 63.98 50.77 63.08 51.38 62.32 51.35 61.53 50.89 61.37 49.98 61.37 49.01 61.26 47.66 61.26 44.54 60.71 42.78 60.34 40.97 59.97 38.96 59.75 36.85 58.41 36.26 56.8 36.63 54.42 38.89 53.67 39.88 53.67 41.3 53.24 43.6 52.33 45.8 51.59 48.06 50.85 50.36 50.12 52.64 49.23 56.38 49.23 59.23 48.53 62.3 48.53 64.41 48.05 66.42 47.18 66.65 46.28 65.4 45.58 62.7 44.93 60.53 44.29 59.48 43.02 58.23 43.02 56.74 43.02 52.83 42.46 50.24 42.3 47.23 41.61 46.74 41.08 46.35 39.94 46.19 37.17 45.94 35.6 45.7 34.74 44.24 33.8 43.49 32.94 43.99 32.15 44.68 31.49 45.7 30.48 47.53 29.04 49.25 27.73 50.71 26.5 51.42 24.74 52.44 22.45 53.76 22.15 82.19 98.67 38.02 98.97 34.03"/><line class="cls-6" x1="41.42" y1="58.94" x2="24.03" y2="68.81"/><polyline class="cls-6" points="40.94 58.89 41.46 58.89 41.2 59.44"/><polyline class="cls-6" points="24.49 68.86 23.97 68.86 24.23 68.31"/><line class="cls-6" x1="60.8" y1="48.97" x2="50.2" y2="54.99"/><polyline class="cls-6" points="60.3 48.94 60.82 48.94 60.56 49.49"/><polyline class="cls-6" points="50.66 55.04 50.14 55.04 50.4 54.49"/><line class="cls-6" x1="74.86" y1="41" x2="67.92" y2="44.94"/><polyline class="cls-6" points="74.37 40.96 74.89 40.96 74.63 41.51"/><polyline class="cls-6" points="68.41 44.95 67.89 44.95 68.15 44.4"/><line class="cls-7" x1="78.23" y1="39.26" x2="78.67" y2="39.02"/><line class="cls-8" x1="79.53" y1="38.52" x2="98.1" y2="27.98"/><line class="cls-7" x1="98.53" y1="27.73" x2="98.97" y2="27.49"/><text class="cls-9" transform="translate(79.31 77.71)"><tspan class="cls-10">T</tspan><tspan x="1.18" y="0">aco nº3</tspan></text><text class="cls-11" transform="matrix(0.87, -0.5, 0, 1, 31.37, 66.38)">2000 m</text><text class="cls-12" transform="matrix(0.87, -0.5, 0, 1, 82.65, 35.25)">Sob<tspan class="cls-13" x="3.57" y="0">r</tspan><tspan x="4.32" y="0">enive</tspan><tspan class="cls-14" x="9.21" y="0">l</tspan><tspan x="9.72" y="0" xml:space="preserve"> de</tspan><tspan class="cls-14" x="12.68" y="0">l</tspan><tspan x="13.19" y="0" xml:space="preserve"> lago</tspan></text><text class="cls-12" transform="matrix(0.87, -0.5, 0, 1, 88.6, 37.18)">Nive<tspan class="cls-14" x="4.01" y="0">l</tspan><tspan x="4.52" y="0" xml:space="preserve"> norma</tspan><tspan class="cls-14" x="11.19" y="0">l</tspan></text><text class="cls-11" transform="matrix(0.87, -0.5, 0, 1, 54.07, 54.85)"><tspan class="cls-15">7</tspan><tspan x="0.76" y="0">00 m</tspan></text><text class="cls-11" transform="matrix(0.87, -0.5, 0, 1, 70.01, 46.06)">350 m</text><text class="cls-16" transform="matrix(0.87, -0.5, 0, 1, 68.88, 40.83)">16<tspan class="cls-17" x="1.48" y="0">,</tspan><tspan class="cls-18" x="1.74" y="0">7</tspan><tspan class="cls-19" x="2.53" y="0" xml:space="preserve"> m</tspan></text><text class="cls-9" transform="translate(79.71 68.3)"><tspan class="cls-10">T</tspan><tspan x="1.18" y="0">aco nº2</tspan></text><text class="cls-9" transform="translate(79.71 58.89)"><tspan class="cls-10">T</tspan><tspan x="1.18" y="0">aco nº1</tspan></text><line class="cls-6" x1="63.41" y1="32.56" x2="63.41" y2="24.64"/><line class="cls-6" x1="44.47" y1="57.01" x2="44.47" y2="27.99"/><text class="cls-20" transform="matrix(0.87, -0.5, 0, 1, 54.62, 46.2)">18<tspan class="cls-21" x="1.86" y="0">,</tspan><tspan class="cls-22" x="2.19" y="0">7</tspan><tspan class="cls-23" x="3.17" y="0" xml:space="preserve"> m</tspan></text><polyline class="cls-6" points="56.8 37.85 57.05 37.43 57.28 37.56"/><line class="cls-6" x1="57.04" y1="37.48" x2="57.04" y2="42.55"/><polyline class="cls-6" points="57.28 49.98 57.03 50.4 56.8 50.26"/><line class="cls-6" x1="57.03" y1="50.36" x2="57.03" y2="45.59"/><polyline class="cls-6" points="70.32 36.37 70.56 35.94 70.8 36.08"/><line class="cls-6" x1="70.56" y1="35.99" x2="70.56" y2="38.58"/><polyline class="cls-6" points="70.79 42.55 70.55 42.97 70.31 42.84"/><line class="cls-6" x1="70.55" y1="42.97" x2="70.55" y2="40.58"/><text class="cls-20" transform="matrix(0.87, -0.5, 0, 1, 32.05, 55.19)"><tspan class="cls-24">2</tspan><tspan x="1.02" y="0">4 m</tspan></text><polyline class="cls-6" points="33.56 45.23 33.81 44.81 34.04 44.94"/><line class="cls-6" x1="33.8" y1="44.86" x2="33.8" y2="52.58"/><polyline class="cls-6" points="34.04 61.65 33.79 62.07 33.56 61.93"/><line class="cls-6" x1="33.79" y1="62.02" x2="33.79" y2="54.99"/><polyline class="cls-6" points="70.8 46.84 70.8 58.44 78.86 58.44"/><polyline class="cls-6" points="57.34 54.3 57.34 68.3 78.23 68.3"/><polyline class="cls-6" points="34.55 66.97 34.55 77.71 78.23 77.71"/><text class="cls-9" transform="translate(36.49 26.13)"><tspan class="cls-25">R</tspan><tspan class="cls-26" x="1.54" y="0">ío </tspan><tspan class="cls-27" x="4.37" y="0">S</tspan><tspan x="5.84" y="0">an </tspan><tspan class="cls-28" x="9.42" y="0">P</tspan><tspan class="cls-29" x="10.82" y="0">ed</tspan><tspan class="cls-30" x="13.64" y="0">r</tspan><tspan class="cls-29" x="14.56" y="0">o</tspan></text><text class="cls-9" transform="translate(57.05 23.27)">Lago <tspan class="cls-31" x="6.17" y="0">R</tspan><tspan x="7.71" y="0">iñihue</tspan></text></g></svg>