<svg xmlns="http://www.w3.org/2000/svg" viewBox="0 0 200 100"><defs><style>.cls-1{fill:#1a806b;}.cls-2{fill:#2bbba0;}.cls-3{fill:#708088;}.cls-4{fill:#58595c;}.cls-5{fill:#ccc;}.cls-6,.cls-7,.cls-8{fill:none;stroke-miterlimit:10;}.cls-6{stroke:#000;stroke-width:0.1px;}.cls-7,.cls-8{stroke:#fff;stroke-width:0.2px;}.cls-8{stroke-dasharray:0.99 0.99;}.cls-9{font-size:3.69px;}.cls-11,.cls-12,.cls-14,.cls-20,.cls-27,.cls-9{font-family: 'Alegreya Sans', sans-serif;}.cls-10{letter-spacing:-0.1em;}.cls-11,.cls-12,.cls-20{font-size:2.91px;}.cls-12{letter-spacing:-0.02em;}.cls-13{letter-spacing:0em;}.cls-14{font-size:2.33px;}.cls-15{letter-spacing:-0.09em;}.cls-16{letter-spacing:-0.03em;}.cls-17{letter-spacing:-0.09em;}.cls-18{letter-spacing:-0.03em;}.cls-19{letter-spacing:0em;}.cls-20{letter-spacing:-0.03em;}.cls-21{letter-spacing:0em;}.cls-22{letter-spacing:-0.01em;}.cls-23{letter-spacing:-0.01em;}.cls-24{letter-spacing:-0.01em;}.cls-25{letter-spacing:-0.02em;}.cls-26{letter-spacing:0em;}.cls-27{font-size:3px;fill:#fff;}.cls-28{letter-spacing:-0.02em;}.cls-29{letter-spacing:0em;}.cls-30{letter-spacing:-0.04em;}.cls-31{letter-spacing:-0.03em;}</style></defs><title>riñihuazo</title><g id="Figura_2" data-name="Figura 2"><polygon class="cls-1" points="176.66 23.38 136.74 46.05 136.74 34.88 176.66 12.15 176.66 23.38"/><polygon class="cls-2" points="131.89 29.3 176.63 3.84 148.18 1.1 80.76 32.9 131.89 29.3"/><polygon class="cls-1" points="176.66 12.15 131.89 37.65 131.89 29.31 176.66 3.85 176.66 12.15"/><polygon class="cls-3" points="131.11 24.5 122.85 25.1 117.96 26.42 115.2 30.34 110.21 29.98 102.54 28.8 83.42 30.34 74.95 34.14 75.75 37.49 117.41 45.65 125.38 41.63 132.88 31.92 131.11 24.5"/><polygon class="cls-4" points="32.25 53.91 34.24 49.03 44.64 40.1 49.01 38.27 55.49 40.1 59.11 38.27 65.41 36.25 72.61 33.55 83.5 33.56 91.84 33.55 95.45 30.76 110.21 26.68 110.21 51.55 88.48 63.67 31.5 58.14 32.25 53.91"/><polyline class="cls-1" points="125.87 41.29 123.63 44.55 122.9 46.85 121.53 48.93 120.11 49.9 118.91 49.85 117.67 49.13 117.41 47.7 117.41 46.16 117.41 45.65 126.89 39.68 126.87 39.82 126.04 41.03 125.87 41.29"/><polyline class="cls-3" points="73.97 37.49 60.43 42.55 49.42 41.04 45.57 43.56 36.67 49.96 34.02 52.13 28.6 54.62 21.14 63.77 21.14 92.19 56.08 98.47 73.97 37.49"/><polygon class="cls-1" points="89.61 61.76 97.95 56.95 98.31 56.75 98.31 57.84 98.31 62.33 97.2 67.17 97.2 70.49 96.44 73.67 95.07 74.03 93.65 72.05 92.55 67.8 91.37 64.5 90.44 62.58 89.61 61.76"/><polygon class="cls-2" points="87.35 57.12 98.31 56.75 89.61 61.76 86.91 60.51 86.75 57.83 87.35 57.12"/><polygon class="cls-2" points="116.4 41.52 125.68 39.14 126.89 39.68 117.41 45.65 115.9 45.17 115.9 43.18 116.4 41.52"/><polygon class="cls-5" points="176.66 22.57 172.47 25.4 168.8 27.31 167.06 27.92 164.26 28.72 161.99 29.23 159.37 28.93 156.93 29.83 153.52 30.79 150.38 31.62 146.88 32.2 144.78 31.39 143.25 31.06 141.79 31.32 138.55 32.47 137.23 30.49 136 28.86 135.27 26.8 133.71 25.28 132.27 24.72 131.11 24.5 130.5 25 129.47 26.63 129.25 28.34 128.75 30.77 128.31 32.41 127.58 33.82 127.61 35.07 127.41 36.83 126.87 39.82 123.63 44.57 122.9 46.88 121.53 48.96 120.11 49.92 118.91 49.87 117.67 49.16 117.41 47.72 117.41 46.18 117.24 44.05 117.24 39.15 116.37 36.38 115.79 33.52 115.2 30.34 114.86 27.02 112.75 26.09 110.21 26.68 106.47 30.23 105.28 31.8 105.28 34.04 104.61 37.66 103.17 41.13 102.01 44.69 100.84 48.31 99.68 51.9 98.28 57.8 98.28 62.29 97.18 67.13 97.18 70.45 96.42 73.63 95.05 73.99 93.63 72.01 92.53 67.76 91.51 64.34 90.5 62.68 88.5 60.71 88.5 58.36 88.5 52.21 87.62 48.13 87.36 43.39 86.28 42.61 85.44 41.99 83.64 41.74 79.28 41.34 76.8 40.98 75.44 38.67 73.97 37.49 72.61 38.27 71.37 39.36 70.33 40.98 68.73 43.86 66.46 46.56 64.4 48.87 62.47 49.99 59.69 51.59 56.08 53.68 55.61 98.47 176.19 28.86 176.66 22.57"/><line class="cls-6" x1="85.98" y1="61.84" x2="58.57" y2="77.39"/><polyline class="cls-6" points="85.22 61.76 86.04 61.76 85.63 62.62"/><polyline class="cls-6" points="59.3 77.46 58.48 77.46 58.89 76.6"/><line class="cls-6" x1="116.52" y1="46.13" x2="99.81" y2="55.61"/><polyline class="cls-6" points="115.73 46.07 116.55 46.07 116.14 46.94"/><polyline class="cls-6" points="100.53 55.68 99.71 55.68 100.12 54.82"/><line class="cls-6" x1="138.67" y1="33.56" x2="127.74" y2="39.77"/><polyline class="cls-6" points="137.9 33.5 138.72 33.5 138.31 34.37"/><polyline class="cls-6" points="128.51 39.79 127.69 39.79 128.1 38.93"/><line class="cls-7" x1="143.98" y1="30.83" x2="144.42" y2="30.58"/><line class="cls-8" x1="145.28" y1="30.09" x2="175.8" y2="12.76"/><line class="cls-7" x1="176.23" y1="12.52" x2="176.66" y2="12.27"/><text class="cls-9" transform="translate(145.69 91.41)"><tspan class="cls-10">T</tspan><tspan x="1.85" y="0">aco nº3</tspan></text><text class="cls-11" transform="matrix(0.87, -0.5, 0, 1, 68.99, 75.71)">2000 m</text><text class="cls-12" transform="matrix(0.87, -0.5, 0, 1, 104.97, 55.93)">7<tspan class="cls-13" x="1.58" y="0">00 m</tspan></text><text class="cls-11" transform="matrix(0.87, -0.5, 0, 1, 130.09, 42.07)">350 m</text><text class="cls-14" transform="matrix(0.87, -0.5, 0, 1, 129.24, 33.3)">16<tspan class="cls-15" x="2.33" y="0">,</tspan><tspan class="cls-16" x="2.74" y="0">7</tspan><tspan x="3.98" y="0" xml:space="preserve"> m</tspan></text><text class="cls-9" transform="translate(146.31 76.59)"><tspan class="cls-10">T</tspan><tspan x="1.85" y="0">aco nº2</tspan></text><text class="cls-9" transform="translate(146.31 61.76)"><tspan class="cls-10">T</tspan><tspan x="1.85" y="0">aco nº1</tspan></text><line class="cls-6" x1="120.63" y1="20.26" x2="120.63" y2="9.52"/><line class="cls-6" x1="90.78" y1="58.79" x2="90.78" y2="18.83"/><text class="cls-11" transform="matrix(0.87, -0.5, 0, 1, 106.78, 41.76)">18<tspan class="cls-17" x="2.93" y="0">,</tspan><tspan class="cls-18" x="3.45" y="0">7</tspan><tspan class="cls-19" x="5" y="0" xml:space="preserve"> m</tspan></text><polyline class="cls-6" points="110.22 28.6 110.6 27.94 110.97 28.15"/><line class="cls-6" x1="110.6" y1="28.02" x2="110.6" y2="36"/><polyline class="cls-6" points="110.97 47.71 110.58 48.38 110.21 48.16"/><line class="cls-6" x1="110.58" y1="48.31" x2="110.58" y2="40.8"/><polyline class="cls-6" points="131.51 26.26 131.9 25.59 132.27 25.81"/><line class="cls-6" x1="131.89" y1="25.68" x2="131.89" y2="29.74"/><polyline class="cls-6" points="132.26 36 131.88 36.67 131.5 36.45"/><line class="cls-6" x1="131.88" y1="36.67" x2="131.88" y2="32.9"/><text class="cls-20" transform="matrix(0.87, -0.5, 0, 1, 71.21, 55.93)">2<tspan class="cls-21" x="1.61" y="0">4 m</tspan></text><polyline class="cls-6" points="73.59 40.23 73.98 39.56 74.35 39.78"/><line class="cls-6" x1="73.97" y1="39.64" x2="73.97" y2="51.81"/><polyline class="cls-6" points="74.34 66.1 73.95 66.77 73.58 66.55"/><line class="cls-6" x1="73.95" y1="66.68" x2="73.95" y2="55.61"/><polyline class="cls-6" points="132.27 42.77 132.27 61.05 144.97 61.05"/><polyline class="cls-6" points="111.06 54.53 111.06 76.59 143.99 76.59"/><polyline class="cls-6" points="73.95 74.5 73.95 91.41 143.99 91.41"/><text class="cls-9" transform="translate(78.21 15.68)"><tspan class="cls-22">R</tspan><tspan x="2.43" y="0">ío </tspan><tspan class="cls-23" x="6.88" y="0">S</tspan><tspan x="9.21" y="0">an </tspan><tspan class="cls-24" x="14.84" y="0">P</tspan><tspan x="17.05" y="0">ed</tspan><tspan class="cls-25" x="21.49" y="0">r</tspan><tspan class="cls-26" x="22.94" y="0">o</tspan></text><text class="cls-9" transform="translate(109.09 7.54)">Lago <tspan class="cls-22" x="9.72" y="0">R</tspan><tspan class="cls-26" x="12.16" y="0">iñihue</tspan></text><text class="cls-27" transform="matrix(0.87, -0.5, 0, 1, 151.61, 24.08)">Sob<tspan class="cls-28" x="5.6" y="0">r</tspan><tspan class="cls-29" x="6.78" y="0">enive</tspan><tspan class="cls-30" x="14.46" y="0">l</tspan><tspan x="15.27" y="0" xml:space="preserve"> de</tspan><tspan class="cls-30" x="19.91" y="0">l</tspan><tspan x="20.72" y="0" xml:space="preserve"> lago</tspan></text><text class="cls-27" transform="matrix(0.87, -0.5, 0, 1, 158.41, 27.71)">Nive<tspan class="cls-30" x="6.29" y="0">l</tspan><tspan x="7.1" y="0" xml:space="preserve"> norma</tspan><tspan class="cls-31" x="17.56" y="0">l</tspan></text></g></svg>