<?xml version="1.0" encoding="utf-8"?>
<!-- Generator: Adobe Illustrator 23.0.1, SVG Export Plug-In . SVG Version: 6.00 Build 0)  -->
<svg version="1.1" id="Capa_1" xmlns="http://www.w3.org/2000/svg" xmlns:xlink="http://www.w3.org/1999/xlink" x="0px" y="0px"
	 viewBox="0 0 100.2 100.1" style="enable-background:new 0 0 100.2 100.1;" xml:space="preserve">
<style type="text/css">
	.st0{fill:#2BBBA0;}
	.st1{fill:#708088;}
	.st2{fill:none;stroke:#000000;stroke-width:0.1;stroke-miterlimit:10;}
	.st3{font-family:'Alegreya Sans', sans-serif;}
	.st4{font-size:2px;}
	.st5{font-family:'WorkSans-Light';}
	.st6{font-size:4px;}
	.st7{fill:#FFFFFF;}
	.st8{fill:none;}
	.st9{fill:none;stroke:#708088;stroke-width:0.1;stroke-miterlimit:10;}
</style>
<title>Sin título-1</title>
<image style="overflow:visible;enable-background:new    ;" width="1211" height="1199" xlink:href="7EAC54BA09F7DF98.png"  transform="matrix(8.313803e-02 0 0 8.313803e-02 -0.2799 0.1666)">
</image>
<g>
	<g>
		<g>
			<g>
				<polygon class="st0" points="99.1,1.3 97.3,3.6 94.3,5.6 92.1,9.3 89.6,11.3 86.2,11.4 86.1,12.2 85.2,13.4 83.9,13.1 
					82.7,16.1 81.7,16.3 81.6,17.7 81.8,19.6 81.8,21.4 81.2,23.5 79.3,25.2 77.8,25.2 75.6,25.4 72.9,25.3 70.4,24.2 68.9,25.3 
					65.8,26 63.5,27.9 60.9,29.6 59.7,30.4 59.6,33 57.5,32.9 54.9,34.3 53.8,34.6 52.4,35.1 49.2,34.7 47.4,35.7 45.7,36 
					44.4,36.7 43.9,38.4 43.7,40.5 42.5,43.2 38.7,46.6 36.7,47.7 35,49.5 33.4,51.5 32.4,54.4 32.3,62.2 31.7,62.9 29.8,64.6 
					24.5,66.9 22.2,67.4 20.9,67.5 19.5,68.8 18.8,72.2 22.5,77.6 24.9,80.9 26.2,82.7 26.5,85.9 26.7,89.2 25.9,91.5 24.6,94.4 
					23,97.5 22.3,99.1 22.5,99.8 19.6,99.8 19.6,99.6 21.2,97 24.7,90.9 24.9,88.6 24.3,87.1 23.2,84.6 22.7,83.1 22.1,81.6 
					21,80.4 20.7,79.3 22.6,81 22.9,79.8 21.9,79.2 19.8,77.8 16.3,73.1 16.3,71.7 17.2,69.5 17.9,67.7 20.3,66 22.2,65 24.2,63.9 
					26.4,64.2 28.1,63.7 30.4,61.4 30.4,55.4 30.4,53.2 30.9,51.2 33.2,48.8 34.9,47.1 39.4,42.6 40.6,41.7 41.3,40.5 41.9,38.8 
					41.6,37.7 41.3,36.4 41.6,34.5 45.9,32.5 47,31.7 47.6,32.7 48,33.3 49.2,33 51.1,33 52.3,32.7 52.6,33 53.5,33 55,32.8 55,32 
					55,30.8 55,29 55.5,27.6 56.1,25.5 57,24.3 58.9,23.7 61.7,23.2 63.8,22.5 65.6,22 67.6,21.4 69.8,21.4 73.9,21.3 75.6,19.5 
					76.7,18.2 76.6,17.2 76.3,15.4 76.7,14.6 77.1,13.7 77.3,12.7 76.8,11.1 76.1,8 78.4,6.1 78.2,5.1 77.7,3.8 76.8,3 76.8,1.9 
					76.8,1.4 77.1,1.3 				"/>
			</g>
		</g>
		<polygon class="st1" points="40.6,43.9 40.8,44.9 40.8,45.8 40.6,46.7 40,46.7 39.5,46.8 39.2,47.3 39.1,47.7 38.4,47.9 38,47.7 
			37.4,47.2 36.9,46.1 36.7,45.7 36.6,45 36.6,44.3 37,43.3 37.4,42.3 38,41.3 39.3,41 40,41 40.7,41.9 		"/>
		<path class="st1" d="M25.7,97.1l-1.9-1.2l-2.1-0.8h-1.6h-1.5l-1.1-1.2l-0.8-1.5l-0.5-1.9V89L15,87.9v-1.2l1.1-2.3l0.7-1.5l0.6-0.9
			l0.1-1.3l1.8-1.9l1.1-1.6h0.8h1.3l1-0.6c0.4,0.5,1.3,2.2,1.3,2.2l0.9,1.3l1.8,1.9l1.2,1.7l1,2.1l0.8,1.8v2.1L30,91.8l-1,2.1
			L28.4,95l-1.1,1.7l-0.6,0.4C26.7,97.1,25.7,97.1,25.7,97.1z"/>
		<polygon class="st1" points="32.6,56 30.9,56 29.3,55.2 28.9,54.9 29.2,53.5 29.5,52.5 29.5,51.7 30.1,50.9 30.7,50.5 30.7,49.9 
			31.5,49.3 32.3,49 34.2,48.5 35.2,48.5 35.8,49.2 36.2,49.8 36.2,50.6 35.4,51.7 34.6,52.5 34.1,53.6 33.5,54.4 33.3,55.2 		"/>
	</g>
</g>
<g>
	<g>
		<g>
			<polyline class="st2" points="92.1,91.6 92.1,92.4 70.4,92.4 70.4,91.6 			"/>
		</g>
		<g>
			<text transform="matrix(1 0 0 1 78.9097 94.7266)" class="st3 st4">1 Km</text>
		</g>
		<g>
			<g>
				<text transform="matrix(1 0 0 1 78.3195 90.2345)" class="st5 st6">←N</text>
			</g>
		</g>
	</g>
</g>
<g>
	<rect x="3.6" y="3.6" class="st7" width="32.6" height="32.6"/>
</g>
<rect x="2.5" y="2.3" class="st8" width="32.6" height="32.6"/>
<g>
	<g>
		<g>
			<path class="st1" d="M28.8,28.2c0.2-0.1,0.2,0,0.3,0.1l0.1,0.1c0.1,0,0.1,0,0.1,0.1s0,0.1-0.1,0.2c-0.1,0-0.1,0.1-0.2,0.2
				c0,0.1-0.1,0.1,0,0.2c0,0,0,0.1,0.1,0.1c0.1,0.1,0.1,0.2,0,0.2c0,0,0,0.1-0.1,0.1s-0.1-0.1-0.1-0.1c0-0.1-0.1-0.2-0.3-0.2h-0.1
				h-0.1C28.3,29,28,29,27.9,28.8v-0.1v-0.1c-0.1-0.2-0.2-0.2-0.3-0.1c-0.1,0.1-0.1,0.1-0.2,0.2h-0.1c-0.1,0-0.2,0-0.2,0
				c-0.1,0-0.1,0-0.1-0.1s0-0.1-0.1-0.2s-0.1-0.1-0.2,0v0.1c0,0,0,0.1-0.1,0c0,0-0.1,0,0-0.1v-0.1c-0.1,0-0.1,0-0.1-0.1
				s-0.1-0.1-0.1-0.2c-0.1-0.1-0.1-0.2,0-0.3l0,0c-0.1-0.2,0.1-0.3,0.2-0.4s0.1-0.1,0.1-0.2s0-0.2,0-0.3c0.1-0.2,0.1-0.2,0.2-0.1
				c0-0.1,0-0.1-0.1-0.1c0-0.1,0-0.1,0.1-0.1s0.1-0.1,0-0.1c-0.1-0.1-0.2-0.1-0.2-0.3c0-0.2-0.1-0.5,0-0.7c0-0.2,0-0.2,0.2-0.1
				c0.1,0,0.1,0,0.2,0c-0.1-0.2-0.2-0.4-0.4-0.5v-0.1c0.1-0.1,0.1-0.2,0.3-0.2h0.1c0.1-0.1,0.2,0,0.2,0.1c0,0.2,0.1,0.3,0.2,0.5v0.1
				c0-0.1,0-0.2,0-0.3c0-0.1-0.1-0.1,0-0.2c0-0.1,0-0.2,0-0.3l0,0c-0.1,0-0.1-0.1-0.2-0.1s0-0.1,0-0.1s0.1,0,0.1-0.1
				c-0.1,0-0.1,0-0.2,0.1c0-0.1,0-0.1-0.1-0.1s-0.2-0.1-0.4-0.2v-0.1c0.1-0.2,0.3-0.3,0.4-0.5v-0.1c-0.1-0.1-0.2-0.3-0.3-0.4
				c-0.1-0.1-0.3-0.2-0.4-0.1c0,0-0.1,0-0.1,0.1s0,0,0.1,0s0.1,0,0,0.1h-0.1l0,0c-0.1,0-0.1,0-0.1,0.1c0.1,0.2,0.1,0.4,0.2,0.6
				c0,0,0,0,0,0.1s0,0.1-0.1,0.1c-0.1-0.1-0.2,0-0.3-0.1c-0.1,0-0.2-0.1-0.2-0.1s-0.1,0,0,0c0,0.1,0,0.1-0.1,0
				c-0.3-0.1-0.5-0.1-0.8-0.2l0,0c0-0.1,0.1-0.2,0.1-0.3c0-0.1,0-0.2-0.1-0.2c0,0-0.1,0-0.1-0.1s0-0.1-0.1-0.2
				c0-0.1-0.1-0.1-0.1-0.2c0-0.2,0-0.4-0.1-0.6s-0.1-0.3-0.1-0.5c0-0.1,0-0.1,0.1-0.1s0.1-0.1,0-0.2v-0.1c0-0.2,0.1-0.3,0.1-0.5
				l0.1-0.1c0.1-0.1,0.1-0.2,0-0.3v-0.1c0-0.1,0-0.3,0-0.4v-0.1h0.1c0.1,0.1,0.2,0.1,0.3,0.1c0.1,0,0.2,0,0.2,0.1
				c0,0,0.1,0.1,0.2,0.1c0.2,0,0.4,0,0.5,0c0.2,0,0.3,0.1,0.4,0.3c0.1,0.2,0.2,0.3,0.5,0.4c0,0,0.1,0,0.1,0.1
				c0.1,0.1,0.2,0.1,0.3,0.1c0.2-0.1,0.4,0,0.6,0c0.3,0,0.5-0.1,0.8-0.2v0.1c-0.1,0.1-0.1,0.1-0.1,0.3c0,0.1,0.1,0.2,0.1,0.3
				c0,0.1,0.1,0.1,0,0.2v0.1c0.2,0.1,0.1,0.3,0.1,0.4c0,0,0,0,0,0.1s0.1,0.2,0,0.2c-0.1,0.1,0,0.2-0.1,0.2v0.1
				c0.1,0.1,0.1,0.3,0.1,0.5l0,0c-0.1,0.1,0,0.2,0,0.3c0.1,0.1,0.1,0.2,0.1,0.3v0.1c-0.1,0.1,0,0.2,0,0.3c0,0.1,0,0.2,0.1,0.3
				c0.1,0.2,0.1,0.3-0.1,0.4c-0.1,0-0.1,0-0.2,0.1h-0.1l-0.1-0.1c-0.1,0-0.1,0-0.1,0c0,0.1-0.1,0-0.2,0.1c0,0.1,0,0.1,0,0.2
				s0.1,0.2,0.1,0.4c0,0,0,0.1,0.1,0.1s0.1,0.1,0.1,0.2s0,0.2-0.1,0.3c0,0-0.1,0.1-0.1,0.2s0,0.1-0.1,0.1v0.1c0,0.1,0,0.1,0,0.2
				s0,0.1,0,0.2c0,0.2,0.1,0.3,0.2,0.4l0,0c0.1,0,0.1,0.1,0.2,0.2c0,0.1,0.1,0.1,0.2,0.1s0.1,0,0.1,0.1l0.1,0.1c0,0.1,0,0.1,0,0.2
				c0,0,0,0.1-0.1,0.1S28.8,28,28.8,28c-0.1,0-0.1,0.1-0.1,0.2v0.1C28.8,28,28.8,28.1,28.8,28.2z"/>
			<path class="st1" d="M24.8,14.2c0-0.1,0-0.3,0.1-0.4c0.1-0.2,0.1-0.5,0-0.7s-0.2-0.4-0.3-0.6c-0.1-0.2-0.2-0.4,0-0.6
				c0.1-0.1,0.1-0.2,0-0.3c0-0.1,0-0.2-0.1-0.2c-0.1-0.1-0.1-0.2-0.1-0.3s0-0.1,0.1-0.1s0.2,0,0.3,0.1c0.1,0.1,0.3,0,0.4,0
				c0.1-0.1,0.2-0.2,0.3-0.3c0.1-0.1,0.1-0.3,0-0.4c0-0.1,0-0.1,0-0.2c0-0.1,0-0.2,0-0.3s0-0.2,0.1-0.2l0,0c0.2,0,0.2,0,0.3-0.3V9.3
				c0-0.1,0-0.1,0.1-0.2c0,0,0,0,0-0.1c0-0.2,0-0.4,0.1-0.6c0-0.1,0-0.1,0-0.2c0-0.1,0-0.2,0-0.4c0-0.1,0.1-0.2,0.2-0.1
				c0.1,0,0.2,0.1,0.3,0.1c0,0,0.1,0,0.1,0.1V8c0.1,0.1,0.2,0.2,0.2,0.3c0.1,0,0.1,0,0.2,0h0.1l0,0c0.1-0.1,0.2-0.1,0.3-0.1
				c0.1,0,0.1-0.1,0.1-0.1c0-0.1,0.1-0.1,0.1,0l0,0c0.1,0.2,0.3,0.2,0.4,0.2s0.1,0,0.1,0.1c0.1,0.2,0.4,0.2,0.6,0.3
				c0.1,0,0.2,0.1,0.3,0.2c0,0.1,0.1,0.1,0.2,0.2c0,0,0.1,0,0.1-0.1s0.1-0.1,0.2-0.2c0.1,0,0.1-0.1,0.2-0.1h0.1C30,8.8,30,9,30,9.1
				s0,0.1-0.1,0.2v0.1c0,0.1,0,0.2-0.1,0.3c0,0,0,0.1,0,0.2s0,0.2-0.1,0.2s-0.1,0.1,0,0.1c0.2,0.2,0.2,0.5,0,0.6
				c0,0.1-0.1,0.1-0.1,0.2s0,0.2,0.1,0.3c0.1,0.2,0.1,0.3,0,0.5c-0.1,0.1-0.1,0.2-0.1,0.3s0.1,0.2,0,0.4c0,0,0,0.1,0.1,0.1
				s0.1,0.1,0.1,0.1c0,0.1,0.1,0.1,0.1,0.2c0.1,0.1,0,0.2-0.1,0.2s-0.1,0-0.2,0s-0.2,0-0.3,0c-0.1,0-0.2,0-0.2,0.2
				c0,0.1,0,0.1-0.1,0.1c-0.1,0.1-0.2,0.1-0.3,0.2c-0.1,0-0.1,0-0.1-0.1s0-0.2,0-0.3c0-0.2-0.2-0.3-0.3-0.2c0,0,0,0-0.1,0
				s-0.1,0-0.2,0c-0.1-0.1-0.1-0.1-0.3-0.1c-0.1,0-0.1,0-0.1,0c-0.1-0.1-0.2-0.1-0.2-0.2c0,0-0.1-0.1-0.2-0.1
				c-0.2,0-0.3-0.2-0.4-0.4v-0.1c0-0.1-0.1-0.1-0.2-0.1s-0.1,0-0.2,0c-0.1-0.1-0.2-0.1-0.3-0.1c-0.1,0-0.1,0-0.2,0S25.7,12,25.5,12
				c-0.1,0-0.1,0-0.1,0.1s-0.1,0.1-0.1,0.2s0,0.1,0.1,0.2c0.1,0.1,0.1,0.2,0,0.3c-0.1,0-0.1,0.1-0.1,0.2c0,0.1,0,0.1,0,0.1
				c-0.1,0-0.1,0.1-0.1,0.2s0,0.1,0.1,0.2c0,0,0,0,0.1,0c0,0,0.1,0,0,0.1c0,0.1-0.1,0.1-0.1,0.2c-0.1,0.1-0.2,0.2-0.3,0.3
				C25.1,14,25,14.1,24.8,14.2C24.9,14.2,24.9,14.2,24.8,14.2z"/>
			<path class="st1" d="M26.4,16.5c-0.2,0-0.3,0.1-0.4,0.1s-0.1,0-0.2,0.1v0.1c0,0,0,0.1-0.1,0.1s-0.1-0.1-0.1-0.1
				c0-0.2-0.1-0.4-0.1-0.5c-0.1-0.3-0.2-0.5-0.3-0.7c-0.1-0.2-0.1-0.3-0.2-0.5c-0.1-0.1-0.1-0.3-0.1-0.5c0-0.1,0.1-0.2,0.1-0.2h0.1
				v0.1c0,0.1,0.1,0.1,0.2,0c0,0,0,0,0.1-0.1c0,0,0.1,0,0.1-0.1c-0.1,0-0.1-0.1-0.2-0.1c-0.1-0.1-0.1-0.2,0.1-0.3
				c0.1-0.1,0.2-0.2,0.3-0.3c0.2-0.1,0.1-0.3,0-0.4s-0.1-0.1,0-0.2c0.1-0.1,0.2-0.3,0.2-0.5c0.1-0.1,0.1-0.3,0-0.4V12
				c0.1,0,0.3-0.1,0.4-0.1h0.1c0.1,0.1,0.3,0.2,0.4,0.1c0.1,0,0.1,0.1,0.1,0.1c0.1,0.2,0.2,0.3,0.3,0.4c0,0,0,0,0.1,0
				c0.2,0,0.3,0.1,0.4,0.2c0.1,0.1,0.2,0.1,0.3,0.1c0.1,0,0.1,0,0.1,0c0.1,0.1,0.1,0.1,0.3,0c0,0,0.1-0.1,0.1,0v0.1V13
				c0.1,0.1,0.1,0.1,0,0.2c0,0.1,0.1,0.2,0.2,0.3c0,0,0,0,0.1,0c0.1-0.2,0.3-0.2,0.4-0.3s0.1-0.1,0.1-0.2s0.1-0.1,0.2-0.1
				s0.3,0,0.4,0c0.2,0,0.2,0.1,0.2,0.2c0,0.2,0,0.4,0.1,0.6c0,0.1,0.1,0.2,0.2,0.2c0.1,0.1,0.1,0.1,0,0.2c0,0.1-0.1,0.1-0.1,0.2
				c0,0.1,0,0.1-0.1,0.1s-0.3,0-0.4,0.1h-0.1c-0.1,0-0.1,0-0.2,0.1s-0.1,0.1-0.2,0.1h-0.1c0,0.1-0.1,0.2,0,0.3c0,0.1,0,0.2,0,0.3
				s0,0.2,0,0.3s0,0.3-0.1,0.4c0,0,0,0,0,0.1s0,0.3-0.1,0.4c0,0,0,0.1,0,0.2c0,0,0,0,0,0.1h-0.1c0.1,0.5,0.1,0.5,0.1,0.4
				S28.9,17,28.7,17c-0.1,0-0.1,0-0.2-0.1s-0.3-0.2-0.4,0C28,16.9,28,17,27.9,17c-0.1,0.1-0.2,0.1-0.3,0c-0.1,0-0.2-0.1-0.3-0.1
				c-0.1,0-0.2,0-0.2-0.1c0,0-0.1-0.1-0.2,0s-0.2,0-0.4,0C26.4,16.8,26.4,16.7,26.4,16.5C26.4,16.7,26.4,16.6,26.4,16.5z"/>
			<path class="st1" d="M31.4,4.9c0,0.1,0,0.2-0.1,0.2s-0.1,0-0.2,0C31,5.2,31,5.3,31,5.4s0.1,0.1,0.2,0.2s0.2,0.1,0.1,0.2
				c0,0.2,0.1,0.3,0.1,0.4s0.1,0.1,0,0.2c0,0,0,0,0,0.1c0.1,0.1,0.1,0.2,0.1,0.3v0.1c0,0.1,0,0.1,0,0.2c-0.1,0-0.1,0.1-0.1,0.2
				s0,0.2,0.1,0.3v0.1c0,0.1-0.1,0.1-0.1,0.2s0,0.1-0.1,0l0,0C31,7.7,31,7.7,31,7.9C31,8,30.9,8,30.9,8.1c-0.1,0.1-0.2,0.2-0.1,0.3
				v0.1c0,0.1,0,0.1-0.1,0.1h-0.1c-0.1,0-0.1,0-0.2,0.1c0,0.1,0,0.1-0.1,0.1s-0.1,0-0.1-0.1V8.6c0-0.1-0.2-0.2-0.3-0.1
				c-0.1,0.1-0.2,0.2-0.3,0.2c-0.1,0-0.1,0.1-0.1,0.1c0,0.1-0.1,0.1-0.1,0c-0.1-0.2-0.2-0.2-0.3-0.2c-0.2,0-0.4-0.1-0.5-0.3
				c-0.1-0.1-0.2-0.1-0.3-0.1c-0.1,0-0.1,0-0.1-0.1C28.1,8,28.1,7.9,28,7.9c-0.1-0.1-0.2-0.1-0.2,0.1c0,0.1-0.1,0.1-0.1,0.1l0,0
				c-0.1,0-0.2,0-0.2-0.1h-0.1c-0.1,0-0.2,0-0.2-0.1s-0.1-0.1-0.1-0.1c-0.1,0-0.2,0-0.2-0.1c0,0-0.1,0-0.2,0s-0.1,0,0-0.1
				s0.1-0.3,0.3-0.3c0.1,0,0.1-0.1,0.1-0.2S27,6.9,27,6.8s0-0.1,0-0.2l0.1-0.1c0.1-0.1,0.2-0.2,0.1-0.3V6.1c0.1-0.1,0.1-0.2,0.2-0.3
				l0.1-0.1c0-0.1,0.1-0.2,0.2-0.2c0.1-0.1,0.2-0.2,0.2-0.3c0-0.1,0-0.2,0-0.3c0-0.2,0.1-0.3,0.2-0.5c0.1-0.1,0.1-0.1,0.2,0
				c-0.5-0.1-0.3-0.1-0.2-0.1s0.2,0.1,0.2,0.2c0.1,0.1,0.1,0.1,0.2,0s0.2-0.1,0.3-0.1c0.1,0,0.2,0,0.3,0.1c0.1,0,0.1,0,0.1-0.1
				s0-0.2,0.2-0.1h0.1c0.1-0.1,0.2,0,0.3,0l0,0c0.1,0.1,0.3,0.1,0.4,0.1s0.3,0.1,0.3,0.2c0.1,0.1,0.1,0.1,0.3,0.1h0.1
				c0.1,0,0.2,0.1,0.3,0.1C31.2,4.8,31.3,4.8,31.4,4.9C31.4,4.8,31.4,4.9,31.4,4.9z"/>
			<path class="st0" d="M25.2,18.5c0.1-0.2,0-0.3,0.1-0.5c0-0.1,0-0.1,0-0.2c0.1-0.2,0.2-0.4,0.2-0.6c0-0.1,0.1-0.1,0.2-0.2
				c0.1,0,0.1-0.1,0.2-0.2l0.1-0.1h0.1c0.1,0,0,0.1,0,0.1v0.1c0,0.1,0.1,0.1,0.1,0.1c0.1-0.1,0.3,0,0.4,0s0.1,0,0.2,0
				c0.2,0,0.4,0,0.5,0.2c0,0,0.1,0.1,0.1,0h0.1c0.2,0,0.4,0,0.5-0.2c0,0,0.1-0.1,0.2-0.1s0.1,0,0.1,0c0.1,0.1,0.2,0.1,0.3,0.2
				c0.1,0,0.1,0.1,0.1,0.1c-0.1,0.2,0,0.5,0,0.7c0,0.1,0,0.1,0.1,0.1c0.1,0.1,0.1,0.1,0,0.2s-0.1,0.2-0.1,0.3c0,0.1,0,0.1-0.1,0.1
				h-0.1c-0.1,0-0.1,0-0.1,0.1c0,0,0,0,0,0.1c0,0.2,0.1,0.3,0.2,0.4s0.1,0.1,0,0.2c-0.1,0-0.1,0.1-0.2,0.2c0,0.1,0,0.2-0.1,0.2l0,0
				c0,0.2-0.1,0.2-0.2,0.2c-0.1,0.1-0.2,0.1-0.4,0.1c-0.1,0-0.3,0-0.5,0c-0.1,0-0.3,0.1-0.4-0.1h-0.1c-0.1,0-0.1,0-0.2-0.1
				c0,0,0,0-0.1-0.1c-0.1,0-0.1-0.1-0.2-0.2c0-0.1-0.1-0.2-0.2-0.2s-0.2-0.1-0.3-0.1h-0.1c-0.1,0.1-0.2,0-0.3,0h-0.1
				c-0.1,0-0.1,0-0.1-0.1c0.1,0.1,0,0.1,0,0.1c-0.1,0-0.1,0-0.2,0s-0.2-0.1-0.1-0.2s0.1-0.3,0-0.4v-0.1h0.1H25v-0.1
				C25.1,18.4,25.1,18.4,25.2,18.5z"/>
			<path class="st1" d="M24.6,23.8c0.1,0,0.2-0.1,0.3-0.2c0.1-0.1,0.2,0,0.3-0.1c0.1,0,0.1,0.1,0.1,0.1s0,0,0,0.1v0.1v0.1
				c-0.1,0.1-0.1,0.1,0,0.2c0,0,0,0.1,0.1,0.1c0.1,0.1,0.1,0.2,0.2,0.3c0,0,0.1,0.1,0,0.2l0,0c0.1,0.1,0.1,0.2,0.1,0.3
				c0,0,0,0.1-0.1,0.1s-0.2,0.1-0.3,0c0,0-0.1,0-0.1,0.1c0,0,0,0.1,0.1,0.1l0,0c0,0.2,0.2,0.2,0.3,0.3c0,0,0,0,0,0.1v0.1h-0.1
				c0-0.1-0.1-0.1-0.2-0.2s-0.2-0.1-0.3-0.1c0,0.1,0.1,0.1,0.1,0.1v0.1c-0.1,0-0.1,0.1-0.2,0.1c0,0-0.1,0-0.1,0.1
				c0.1-0.1,0.2-0.1,0.3-0.1c0.1,0,0.1,0,0.1,0.1s0,0.2,0.1,0.2c0,0,0,0,0,0.1h-0.1c0-0.1-0.1-0.1-0.2-0.1c0,0.1,0.1,0.2,0.2,0.2
				c0.2,0.1,0.2,0.2,0.2,0.3c0,0,0,0.1-0.1,0.1s-0.1,0-0.2,0.1c0.2,0,0.3,0.1,0.5,0.2c0,0,0.1,0,0.1,0.1s-0.1,0-0.1,0
				c-0.1,0-0.2,0-0.3-0.1c0,0.1,0.1,0.2,0.1,0.3c0.1,0.1,0,0.3-0.1,0.3c0,0-0.1,0-0.1,0.1v0.1h-0.1v-0.1c0-0.1,0-0.1,0.1-0.1
				c0,0,0,0,0-0.1c-0.1,0-0.1,0.1-0.1,0.1c-0.1,0-0.1,0-0.1,0l0,0c0.2,0.1,0.2,0.3,0.2,0.5l0,0c0,0.1,0,0.1,0,0.2c0,0-0.1,0-0.2,0
				h-0.1c-0.1,0.1-0.1,0.1-0.2,0s-0.1-0.1-0.2,0l0,0c-0.1-0.1-0.1,0-0.1,0.1l0,0c-0.1-0.1-0.2-0.1-0.3-0.2c-0.1,0-0.2-0.1-0.3-0.1
				c-0.1,0-0.1-0.1,0-0.1c0-0.1,0.1-0.3,0.1-0.4c0,0,0,0,0.1-0.1c0-0.1,0.1-0.1,0.1-0.2c0.1-0.1,0-0.2,0.1-0.3v-0.1
				c0-0.2,0-0.3,0-0.5c0-0.1,0-0.2-0.1-0.3C24,25.6,24,25.5,24,25.4s0.1-0.2,0-0.4c0-0.1,0-0.2,0.1-0.3c0.1-0.2,0.2-0.3,0.1-0.5
				c0-0.1,0-0.2,0-0.2c0.1-0.1,0-0.1,0-0.2c-0.1-0.1-0.1-0.1,0-0.2c0,0,0.1-0.1,0.1,0h0.1C24.5,23.6,24.6,23.6,24.6,23.8L24.6,23.8z
				"/>
			<path class="st1" d="M23.8,32.1c-0.1-0.1-0.2-0.3-0.2-0.4c0,0,0-0.1,0.1-0.1c0.2,0,0.3-0.1,0.5-0.1h0.1c0.1,0,0.1,0,0.2,0
				s0.1-0.1,0.2,0c0,0,0.1,0,0.1-0.1s0.1-0.1,0.2-0.1c0-0.1-0.1-0.1-0.1-0.1c-0.1,0-0.2,0-0.3,0.1c-0.1,0.1-0.2,0.1-0.3,0.1
				c-0.1,0-0.2,0-0.3,0.1c-0.1,0-0.2,0-0.2,0h-0.1c-0.1,0-0.1,0-0.2,0s-0.1-0.1-0.1-0.2s0.1-0.1,0.2-0.2h0.1l0,0l0,0
				c-0.1-0.1-0.1-0.1,0-0.1c0,0,0,0,0-0.1c0,0,0-0.1,0.1-0.1c0,0-0.1,0-0.1-0.1c-0.1-0.1-0.1-0.1,0-0.2c0,0,0.1,0,0.1-0.1
				c-0.1-0.1-0.1-0.2-0.2-0.3c0-0.1,0-0.2,0.2-0.2c0.1,0,0.1,0,0.2-0.1l0,0c0.1,0,0.1,0,0.2,0c0,0.1,0,0.1,0,0.2
				c0.1,0,0.1,0.1,0.2,0.1c0,0,0.1,0,0.1-0.1c0.1-0.1,0.1-0.1,0.2,0s0.1,0.1,0.1,0.2s0,0.2,0.1,0.2c0.1,0.1,0,0.2,0,0.3
				c0.1-0.1,0.1-0.1,0.2-0.2l0,0c0.1,0.1,0.1,0.1,0.1,0.3c0,0.1,0,0.1,0,0.1h0.1c0,0,0.1,0,0.1,0.1s0,0.2-0.1,0.2s0,0.1,0,0.1
				c0,0.1,0.1,0.2,0,0.2l0,0c0,0.1,0.1,0.3,0,0.4V32c-0.1,0.2-0.1,0.3-0.3,0.3l0,0v-0.1c0-0.2,0-0.3-0.1-0.4s-0.1-0.1-0.2-0.2
				c0,0.1,0.1,0.2,0.1,0.2s0.1,0.1,0,0.1h-0.1l0,0c-0.1-0.1-0.2,0-0.2,0C24.4,32,24.4,32,24.3,32c0,0-0.1,0-0.1,0.1
				C24,32.2,23.9,32.2,23.8,32.1C23.8,32.2,23.8,32.2,23.8,32.1z M24,30.5C24,30.5,24.1,30.5,24,30.5c0.1-0.1,0-0.1,0.1-0.2h0.1
				c0,0.1,0.1,0.2,0.1,0.3v0.1c0,0.1,0,0.1,0,0.2s0,0.1,0.1,0.1s0.2,0,0.2,0.1c0,0,0,0,0.1,0s0.3,0,0.4,0l0.1-0.1c0,0-0.1,0-0.1-0.1
				H25c0,0.1-0.1,0.1-0.2,0.1s-0.2-0.1-0.3-0.1c-0.2-0.1-0.2-0.2-0.2-0.3c0-0.1,0-0.2-0.1-0.3c0-0.1-0.1-0.1-0.2-0.1
				c0,0-0.1,0-0.1,0.1s-0.1,0-0.1,0.1C23.9,30.4,23.9,30.5,24,30.5C24,30.5,23.9,30.5,24,30.5c0,0.1,0,0.2-0.1,0.3
				c0,0.2,0.1,0.4,0.3,0.4c0-0.1-0.1-0.1-0.1-0.2l0,0c-0.1,0-0.1-0.1,0-0.2C24.1,30.7,24.1,30.7,24,30.5C24,30.6,24,30.5,24,30.5z"
				/>
			<path class="st1" d="M25.1,34.7L25.1,34.7c0,0.1,0.1,0.1,0,0.2c-0.1,0-0.1,0-0.1-0.1s-0.1-0.1-0.1-0.2c0-0.2,0-0.5,0.2-0.7
				c0.1-0.1,0.1-0.1,0.3,0c0.1,0,0.1,0.1,0.1,0.2c0,0.1-0.1,0.2,0,0.3l0,0c-0.1,0.1,0,0.1,0,0.2v0.1c0,0.1-0.1,0.1-0.2,0
				C25.2,34.8,25.2,34.7,25.1,34.7z"/>
			<path class="st1" d="M24.4,32.3c0,0.1,0.1,0.1,0.1,0.1c0.1,0,0.2,0.1,0.2,0.1c0,0.1,0,0.1-0.1,0.1c-0.1,0.1-0.3,0.1-0.4,0.1
				s-0.1,0-0.2,0c-0.1,0.1-0.2,0-0.3,0c0,0-0.1,0,0-0.1c0-0.1,0,0,0-0.1c0,0-0.1,0-0.1-0.1c0,0-0.1-0.1,0-0.1h0.1c0.1,0,0.2,0,0.2,0
				C24,32.4,24.2,32.3,24.4,32.3L24.4,32.3z"/>
			<path class="st1" d="M24.7,29.7h-0.1c-0.1-0.1-0.2-0.2-0.4-0.2c-0.1,0-0.1,0-0.1-0.1s0.1-0.2,0.2-0.2h0.1h0.1
				c0,0.1,0.1,0.1,0.1,0c0.1-0.1,0.1-0.1,0.3,0c0.1,0.1,0.1,0.2,0.1,0.3l-0.1,0.1C24.8,29.7,24.8,29.7,24.7,29.7z"/>
			<path class="st1" d="M25,32.3c0,0.1,0,0.1,0,0.2c0,0.1-0.1,0.1-0.2,0.1s-0.1-0.1-0.2-0.2v-0.1l0,0l0,0c-0.1,0-0.1,0-0.1,0
				c-0.1,0-0.1,0.1-0.2,0.1l0,0c0-0.1-0.1-0.1-0.2-0.1c0,0-0.1,0-0.1-0.1s0.1-0.1,0.1-0.1c0.1,0,0.1,0,0.2-0.1h0.1
				c0.1,0,0.1,0,0.2,0c0.1-0.1,0.2,0,0.2,0.1C24.9,32.2,24.9,32.2,25,32.3L25,32.3z"/>
			<path class="st1" d="M23.8,32.2c0.1,0.1,0,0.2-0.1,0.2s-0.1,0-0.2-0.1c0,0,0-0.1-0.1-0.1c-0.1-0.1-0.1-0.1,0-0.2
				c-0.1,0-0.2,0-0.3,0c-0.1,0-0.1,0,0-0.1s0.2-0.1,0.3-0.1c0.2,0,0.2,0,0.2,0.2C23.6,32,23.6,32.1,23.8,32.2L23.8,32.2z"/>
			<path class="st1" d="M23.1,28.8C23,28.8,23,28.8,23.1,28.8C23,28.7,23,28.7,23,28.6s0-0.1,0.1-0.1l0,0c0,0,0-0.1,0.1-0.1
				s0.1,0.1,0.2,0.1c0,0,0,0,0.1,0l0.1,0.1c0,0.1-0.1,0.1-0.1,0.1C23.2,28.7,23.2,28.8,23.1,28.8L23.1,28.8z"/>
			<path class="st1" d="M24.9,29.7c0-0.1,0-0.1,0.1-0.1s0.1,0,0.1,0c0.1,0,0.1,0.1,0.1,0.2v0.1c0.1,0.1,0,0.2-0.1,0.2S25,30.1,25,30
				S25,29.9,24.9,29.7C25,29.8,25,29.7,24.9,29.7z"/>
			<path class="st1" d="M22.4,32.5c0,0.1,0,0.2-0.1,0.2c0,0-0.1,0-0.1-0.1s0-0.1-0.1-0.2c0-0.1,0-0.1,0-0.2c0.1,0,0.1,0,0.2,0
				C22.3,32.4,22.4,32.4,22.4,32.5z"/>
			<path class="st1" d="M25.5,33.3c0,0.1,0.1,0.1,0.1,0.2c0,0.1,0,0.1-0.1,0.1s-0.1,0-0.2-0.1C25.3,33.5,25.4,33.4,25.5,33.3
				L25.5,33.3L25.5,33.3z"/>
			<path class="st1" d="M23,31.7C23,31.8,23,31.8,23,31.7c0,0.1-0.1,0.1-0.1,0.2h-0.1c0-0.1-0.1-0.1-0.1-0.2s0-0.1,0.1-0.1
				S22.9,31.6,23,31.7C23,31.6,23,31.7,23,31.7L23,31.7z"/>
			<path class="st1" d="M23.1,34.8C23.1,34.9,23,34.9,23.1,34.8c-0.1,0-0.2,0-0.2,0c-0.1,0-0.1-0.1-0.2-0.1h-0.1c0,0,0-0.1,0.1,0
				c0.1,0,0.1,0,0.1-0.1h0.1C23,34.6,23,34.7,23.1,34.8z"/>
			<path class="st1" d="M25.9,25.9c-0.1,0-0.1,0-0.1-0.1v-0.1c0,0,0.1-0.1,0.1,0H26c0.1-0.1,0.1,0,0.1,0C26,25.8,26,25.9,25.9,25.9z
				"/>
			<path class="st1" d="M25.8,25.3c0,0.1,0,0.1,0,0.1s0.1,0,0,0.1h-0.1h-0.1c-0.1,0-0.1,0-0.1-0.1l0.1-0.1
				C25.8,25.2,25.8,25.2,25.8,25.3C25.8,25.2,25.8,25.3,25.8,25.3z"/>
			<path class="st1" d="M25.5,30L25.5,30c0.1,0,0.1,0.1,0.1,0.1c0,0.1-0.1,0.1-0.1,0.1h-0.1c0,0-0.1,0-0.1-0.1
				C25.3,30.1,25.4,30,25.5,30z"/>
			<path class="st1" d="M26,24.9C26,24.8,26,24.8,26,24.9c0.1-0.1,0.1-0.1,0.1-0.1c0.1,0,0.1,0,0.1,0.1s0,0.1-0.1,0.1H26
				C26.1,25,26.1,24.9,26,24.9L26,24.9z"/>
			<path class="st1" d="M26.5,26.3L26.5,26.3c-0.1-0.1-0.1-0.1-0.2-0.2V26c0,0,0,0,0.1,0C26.6,26.1,26.6,26.1,26.5,26.3
				C26.6,26.2,26.6,26.3,26.5,26.3z"/>
			<path class="st1" d="M25.1,30.6c-0.1,0-0.2-0.1-0.1-0.3h0.1C25.2,30.4,25.2,30.4,25.1,30.6L25.1,30.6L25.1,30.6z"/>
			<path class="st1" d="M25.3,25.8C25.3,25.7,25.3,25.7,25.3,25.8c0-0.1,0.1-0.1,0.1-0.1l0,0c0,0.1,0,0.1,0.1,0.1s0,0.1,0,0.1
				s-0.1,0-0.2,0C25.3,25.9,25.4,25.8,25.3,25.8z"/>
			<path class="st1" d="M26,24.9L26,24.9c0,0.1-0.1,0.2-0.1,0.2c-0.1,0-0.1,0-0.1-0.1v-0.1C25.9,24.8,25.9,24.8,26,24.9L26,24.9z"/>
			<path class="st1" d="M23.9,29.9L23.9,29.9c-0.1,0-0.1,0-0.2-0.1v-0.1c0.1,0,0.1-0.1,0.2,0S24.1,29.8,23.9,29.9
				C24,29.9,24,29.9,23.9,29.9L23.9,29.9z"/>
			<path class="st1" d="M26.4,23.3C26.3,23.3,26.3,23.3,26.4,23.3c-0.1-0.1-0.1-0.2,0-0.2s0.2,0.1,0.2,0.1
				C26.5,23.2,26.4,23.3,26.4,23.3z"/>
			<path class="st1" d="M23.5,33.3c0,0.1,0,0.1-0.1,0.1h-0.1c0-0.1,0-0.1,0-0.1C23.4,33.2,23.4,33.2,23.5,33.3
				C23.5,33.2,23.5,33.3,23.5,33.3z"/>
			<path class="st1" d="M24,28.1C24,28,24,28,24,28.1C24,28,24,28,24,28.1C24,28,24.1,28,24,28.1c0.1,0,0.1,0,0.1,0
				c0,0.1,0,0.1,0,0.1C24,28.2,24,28.1,24,28.1z"/>
			<path class="st1" d="M25.8,31.4C25.8,31.4,25.8,31.3,25.8,31.4C25.8,31.3,25.8,31.3,25.8,31.4c-0.1-0.1-0.1-0.2,0-0.2l0,0
				C25.9,31.3,25.9,31.3,25.8,31.4z"/>
		</g>
	</g>
	<path class="st1" d="M31.7,3.7C31.7,3.7,31.7,3.6,31.7,3.7l-4-0.1c0,0.1,0,0.2,0.2,0.3c0,0,0,0,0.1,0.1c0,0.1,0.1,0.2,0.2,0.2
		s0.2,0,0.3,0.1h0.1c0.1-0.1,0.1-0.1,0.2,0c0.2,0,0.4,0.1,0.5-0.1l0,0c0.1,0,0.2-0.1,0.2-0.2l0.1,0.1c0.1,0.1,0.1,0.1,0.2,0.1h0.1
		H30c0.1-0.1,0.1,0,0.1,0c0.1,0.1,0.1,0.2,0.2,0.1c0.2,0,0.4,0,0.6,0.2c0,0,0.1,0.1,0.1,0c0.1-0.1,0.2,0,0.3,0c0.1,0.1,0.1,0,0.2,0
		s0.1-0.1,0.1-0.1c0-0.1,0.1-0.1,0.1-0.2V4.1c-0.1-0.1-0.1-0.2,0-0.2C31.6,3.8,31.7,3.8,31.7,3.7z"/>
	<path class="st1" d="M22.6,35.8L22.6,35.8C22.5,35.9,22.5,35.9,22.6,35.8c-0.2,0.1-0.2,0.1-0.1,0.2c0,0.1,0.1,0.1,0.1,0.1
		c0.1,0,0.1,0,0.2,0s0.1,0,0.1-0.1c0.1-0.2,0.2-0.2,0.3-0.3C23.1,35.8,23,36,23,36.2h2.2v-0.1c0-0.1,0-0.1,0.1-0.2
		c0,0.1,0,0.2,0,0.3h0.2l0,0l0,0h3.8c0-0.1-0.1-0.2-0.2-0.2S29,35.9,29,35.9s0-0.1,0.1-0.1c0.2,0,0.3-0.1,0.4-0.2
		c0.1-0.2,0.1-0.4-0.1-0.6c0,0-0.1,0-0.1-0.1s0-0.2-0.1-0.3c0-0.2,0.1-0.3,0.1-0.5l0,0c0.1,0,0.1-0.1,0.2-0.1h0.1
		c0.1,0,0.2,0,0.2-0.1c0.1-0.1,0-0.1-0.1-0.2c0-0.1,0-0.1,0.1-0.1s0.2-0.1,0.2-0.2c0,0,0.1-0.1,0-0.1c0-0.1,0-0.2-0.1-0.2
		c-0.1-0.1-0.2-0.2-0.2-0.3s-0.1-0.2-0.1-0.3s-0.1-0.1-0.1-0.1c-0.1,0-0.2-0.1-0.3-0.1c-0.1,0-0.1-0.1-0.2,0s-0.1,0-0.2,0
		c-0.2-0.1-0.2-0.2-0.2-0.4c0,0,0,0,0-0.1c0.1,0.1,0.2,0,0.3,0.1H29c0-0.1,0.1-0.1,0.2-0.1s0.3,0,0.4-0.1c0.1,0,0.1,0,0.2,0
		c0,0,0,0,0.1,0.1c0.2,0.1,0.3,0.1,0.4-0.1c0-0.1,0-0.2,0-0.2c0-0.1,0-0.2,0.1-0.2s0.1-0.1,0.1-0.1c0-0.1-0.1-0.1-0.1-0.2
		c0-0.2-0.2-0.2-0.3-0.2H30c-0.1-0.1-0.2-0.1-0.3,0c-0.1,0-0.1,0-0.2,0s-0.2-0.1-0.3,0h-0.1v-0.1c0.1-0.1,0-0.2,0-0.2v-0.1v-0.1
		c0-0.1-0.1-0.2-0.1-0.3l0,0c-0.1-0.1-0.2-0.2-0.2-0.3c0,0-0.1-0.1-0.1,0c-0.1,0.1-0.2,0-0.4,0c0,0-0.1,0-0.1-0.1s-0.2-0.2-0.3-0.2
		c-0.1-0.1-0.2-0.2-0.2-0.3c0-0.1,0-0.1-0.1-0.2c-0.1,0.1-0.1,0.1-0.2,0.2c0,0.1-0.1,0.1-0.2,0.1h-0.1c-0.1,0-0.2,0-0.3,0
		c-0.1,0-0.2,0.1-0.3,0h-0.1c-0.1,0.1-0.1,0.1-0.2,0c-0.1,0.1,0,0.1-0.1,0.2c-0.1,0-0.1,0.1-0.1,0.2v0.1c0,0-0.1,0-0.1-0.1
		c0,0,0-0.1-0.1-0.1s-0.3,0.1-0.3,0.2s0.1,0.1,0,0.2c0,0,0,0,0.1,0h0.1c0.1,0,0.1,0,0.2,0.1l-0.1-0.1h-0.1c0,0.1-0.1,0.1-0.1,0.2
		c-0.1,0.1,0,0.2,0.1,0.3c0,0.1,0.1,0.1,0.2,0.1c0.2,0,0.3,0,0.5,0.1c0.1,0,0.1,0.1,0.1,0.1c0,0.1,0,0.1,0.1,0.1s0.2,0.1,0.2,0.2
		c-0.1,0-0.1,0-0.2,0c-0.2,0-0.2-0.1-0.3-0.2c0-0.1-0.1-0.1-0.2-0.1s-0.1,0-0.2,0s-0.1,0-0.1,0.1c0,0,0,0,0,0.1
		c-0.1-0.1-0.1-0.2-0.2-0.1c-0.1,0-0.1,0.1-0.1,0.2s0.1,0.1,0.2,0.1c-0.1,0.1-0.2,0.2-0.1,0.3c0,0.1,0,0.1,0,0.1s0,0,0,0.1
		s0,0.1-0.1,0.1l0,0c-0.1,0.1-0.2,0.2-0.2,0.3s0,0.2,0.1,0.3c0,0,0.1,0.1,0,0.2v0.1c0.1,0,0.1,0.1,0.1,0.1s0.1,0.1,0.2,0.1
		c-0.3,0-0.4,0.1-0.3,0.4c0-0.1-0.1,0-0.1,0c0-0.1,0-0.1,0-0.2l0,0l0,0c0,0,0,0,0,0.1s0,0.2-0.1,0.2c0,0-0.1,0,0,0.1l0.1,0.1
		c0.1-0.1,0.1,0,0.2,0h0.1c0,0,0.1,0,0.1,0.1c-0.1,0-0.1,0-0.2,0c0,0-0.1,0.1-0.1,0c-0.1,0-0.1,0-0.1,0.1v0.1l0,0
		c0.2,0,0.2,0,0.2,0.2c0,0.1,0,0.1,0.1,0.1s0.1-0.1,0.2-0.2c0.1-0.1,0.1-0.1,0.2,0s0.2,0.2,0.3,0.3c0,0.1,0.1,0.1,0.2,0.1
		s0.1,0,0.2-0.1c0,0,0,0,0.1,0v0.1c0,0.1-0.1,0.1-0.2,0.1c-0.2,0-0.4-0.1-0.5-0.4c0-0.1-0.1-0.1-0.2-0.1c-0.1,0.1-0.2,0.2-0.3,0.3
		c0,0,0,0.1-0.1,0.1c-0.2,0-0.2,0.2-0.2,0.3c0,0.2-0.1,0.4-0.1,0.7v0.1c0.1,0,0.1,0,0.1-0.1l0,0c-0.2,0.4-0.3,0.6-0.3,0.9
		c-0.1,0-0.1,0-0.2-0.1l0.1-0.1c0-0.2,0-0.3,0-0.5c0,0,0-0.1-0.1-0.1s-0.1,0-0.2-0.1s-0.2,0-0.2,0.1s0,0.3-0.1,0.4v0.1
		c0.1,0.1,0,0.2,0,0.4c0-0.1,0-0.2-0.1-0.2c-0.1-0.1-0.1-0.1,0-0.2c0.1-0.1,0.1-0.1,0.1-0.2c0-0.1,0-0.2,0.1-0.3
		c0-0.1-0.1,0-0.2-0.1c0.1,0,0.2-0.1,0.2-0.2c0-0.1,0-0.2,0-0.3c0.2,0,0.2-0.1,0.2-0.2c0.1-0.1-0.1-0.1-0.1-0.1s0.1,0,0.1-0.1
		s0.1-0.2,0.1-0.3V34c0.1,0,0.1-0.1,0.1-0.2c0,0,0,0,0-0.1c0.1-0.1,0-0.2,0-0.3s0-0.2-0.2-0.2c0,0-0.1,0-0.1-0.1S24.4,33,24.3,33
		h-0.1c-0.1,0.1-0.3,0.1-0.4,0.1s-0.1,0-0.1,0.1l-0.1,0.1l-0.1-0.1c-0.1,0-0.1,0-0.2,0c0,0.1-0.1,0.1,0,0.2v0.1c0,0.1,0,0.1,0,0.2
		c0,0.1,0,0.1-0.1,0.1h-0.1c-0.1,0.1-0.1,0.1,0,0.2c0.1,0.1,0.2,0.1,0.2,0.1c0.1,0,0.2,0.1,0.3,0c0,0,0.1-0.1,0.2-0.1s0.1-0.1,0-0.2
		c-0.1-0.1-0.1-0.1,0-0.2c0.1,0.1,0.1,0.2,0.2,0.3c0,0.1,0.1,0.1,0.1,0.2c0,0.1-0.1,0.1-0.1,0.2v0.1v0.1c0.1,0.1,0.1,0.2,0.1,0.4
		c0.1,0.1,0.1,0.1,0,0.2l0,0c-0.1-0.2-0.2-0.2-0.4-0.3c0.2,0,0.3-0.2,0.2-0.4c0-0.1-0.1-0.2-0.1-0.2c0-0.1-0.1-0.1-0.1-0.1
		c-0.1,0-0.2,0-0.3-0.1c-0.1,0-0.1,0-0.1,0.1s-0.1,0.2-0.1,0.2c0,0.1,0,0.1-0.1,0.2c-0.1,0.1-0.2,0.2-0.2,0.3s0,0.2,0.2,0.2
		c0.1,0,0.1,0,0.1,0.1s0.1,0.1,0.2,0.1c0.1-0.1,0.1-0.1,0.2-0.1c0,0,0.1,0,0.1-0.1c0,0,0,0.1,0.1,0.1h-0.1h-0.1
		c-0.1,0-0.1,0.1-0.1,0.2c0,0,0,0.1,0.1,0.1c0,0.1,0.1,0.1,0,0.2v-0.1c-0.1-0.1-0.2-0.1-0.2-0.3c0,0,0,0-0.1,0s-0.2,0-0.2,0
		s0,0-0.1,0h-0.1c-0.1,0-0.1,0-0.2,0.1s-0.1,0.1-0.2,0.1h-0.1c0,0.1-0.1,0.1-0.1,0c0,0-0.1,0-0.2,0s-0.1,0.1,0,0.1
		C22.4,35.7,22.4,35.8,22.6,35.8z M26.9,31.9c-0.1,0.1-0.2,0.2-0.4,0.3c0.1-0.1,0.2-0.2,0.3-0.3c0.1-0.1,0.2-0.1,0.2-0.2v-0.1
		c-0.1-0.1,0-0.1,0.1-0.2s0.2-0.3,0.2-0.5c0-0.1,0-0.1,0.1-0.2c0,0.1-0.1,0.2,0,0.3c-0.1,0-0.2,0.1-0.2,0.2s0,0.2-0.1,0.3v0.1
		c0,0.1,0,0.1-0.1,0.2C27,31.8,27,31.9,26.9,31.9z M26.1,34.5c0.1,0,0.1,0,0.2,0.1c-0.2,0-0.3,0-0.5,0.1
		C25.9,34.5,25.9,34.5,26.1,34.5z M24.3,33.3c-0.1,0.1-0.2,0.1-0.3,0c0,0-0.1,0-0.1-0.1c0.1,0,0.1-0.1,0.1-0.1
		C24,33.2,24.1,33.2,24.3,33.3C24.2,33.2,24.2,33.2,24.3,33.3C24.3,33.2,24.4,33.2,24.3,33.3C24.4,33.3,24.3,33.3,24.3,33.3z"/>
</g>
<g>
	<text transform="matrix(1 0 0 1 9.4261 19.0513)" class="st1 st3 st4">Región de </text>
	<text transform="matrix(1 0 0 1 9.4263 21.8254)" class="st0 st3 st4">Los Ríos</text>
</g>
<text transform="matrix(1 0 0 1 66.2269 30.9689)" class="st3 st4">Río San Pedro</text>
<text transform="matrix(1 0 0 1 77.8731 9.3451)" class="st7 st3 st4">Lago Riñihue</text>
<text transform="matrix(1 0 0 1 52.8889 44.8106)" class="st3 st4">Taco 1</text>
<text transform="matrix(1 0 0 1 52.8889 53.9759)" class="st3 st4">Taco 2</text>
<text transform="matrix(1 0 0 1 52.8892 80.4843)" class="st3 st4">Taco 3</text>
<line class="st9" x1="39.2" y1="44.4" x2="51.1" y2="44.4"/>
<line class="st9" x1="33.1" y1="53.6" x2="51.1" y2="53.6"/>
<line class="st9" x1="22.9" y1="80.1" x2="51.1" y2="80.1"/>
<circle class="st1" cx="51.1" cy="53.6" r="0.4"/>
<circle class="st1" cx="51.1" cy="44.4" r="0.4"/>
<circle class="st1" cx="51.1" cy="80.1" r="0.4"/>
</svg>
