<svg xmlns="http://www.w3.org/2000/svg" viewBox="0 0 200 100"><defs><style>.cls-1{fill:#ddd;}.cls-2{fill:none;stroke:#708088;stroke-miterlimit:10;stroke-width:0.5px;}.cls-3{fill:#9b9b9b;}.cls-4{fill:#708088;}.cls-5{fill:#a5a5a5;}</style></defs><title>riñihuazo</title><g id="Capa_2" data-name="Capa 2"><rect class="cls-1" width="200" height="100"/><path class="cls-2" d="M149,20.61a4.62,4.62,0,0,0,1.39-.43c2.87-1.57,8.55-7.56,9.4-8.38"/><path class="cls-3" d="M148,19.59l0-.35a.08.08,0,0,0-.07-.08l-4-.28a.08.08,0,0,0-.08.07l0,.35-1.58-.11,0,.76,6.94.48,0-.76ZM144,19l3.84.26,0,.28L144,19.31Z"/><path class="cls-3" d="M149.85,20.42l-.72-.05h-.08l-3.31-.23h-.15l-3.31-.23h-.09l-.71-.05a.07.07,0,0,0-.08.07l0,.41s0,.07.07.08l.72.05-.14,2,.31,0v.15l-.31,0,0,.21,3.4.23h.15l3.39.24,0-.2-.31,0V22.9l.31,0,.14-2,.71.05a.07.07,0,0,0,.08-.07l0-.41S149.89,20.43,149.85,20.42Zm-7.68-.12-.65-.05,0-.25.64,0Zm7.58.52-.64,0v-.26l.65.05Z"/><path class="cls-3" d="M138,21.2l0-.35a.08.08,0,0,0-.08-.07l-4,.43a.08.08,0,0,0-.07.08l0,.35-1.58.17.09.76,6.91-.74-.08-.76Zm-4,.15,3.83-.41,0,.28-3.83.41Z"/><path class="cls-3" d="M140,22l-.72.07h-.08l-3.3.35-.15,0-3.3.35h-.08l-.72.08a.08.08,0,0,0-.07.08l0,.41a.06.06,0,0,0,.08.06l.72-.07.21,2,.31,0v.14l-.3,0,0,.2,3.38-.37h.15l3.38-.36,0-.2-.31,0v-.14l.31,0-.22-2,.72-.08a.08.08,0,0,0,.07-.08l0-.41A.06.06,0,0,0,140,22Zm-7.59,1.22-.64.07,0-.26.64-.07Zm7.56-.81-.64.07,0-.26.64-.07Z"/><path class="cls-3" d="M60.74,19.44l-.71,0h-.09l-3.31-.19h-.15L53.17,19h-.09l-.72,0s-.07,0-.08.07l0,.4a.08.08,0,0,0,.07.08l.72,0-.12,2,.31,0v.14l-.31,0,0,.2,3.4.2h.15l3.4.2v-.21h-.31v-.15l.31,0L60,20l.72.05a.08.08,0,0,0,.08-.07l0-.41A.08.08,0,0,0,60.74,19.44Zm-7.68,0-.65,0,0-.25.64,0Zm7.59.44-.65,0,0-.25.64,0Z"/><path class="cls-3" d="M67.42,24.94l0-.35a.07.07,0,0,0-.07-.08l-4-.23a.07.07,0,0,0-.08.07l0,.35-1.59-.09,0,.76,6.94.4,0-.76Zm-4-.51,3.85.23,0,.27-3.84-.22Z"/><path class="cls-3" d="M69.3,26l-.72,0H68.5l-3.31-.19H65l-3.32-.19h-.08l-.72,0a.08.08,0,0,0-.08.08l0,.4a.07.07,0,0,0,.07.08l.72,0-.12,2,.31,0v.14l-.31,0v.2l3.4.2H65l3.4.19v-.2l-.31,0v-.14l.31,0,.12-2,.72,0a.08.08,0,0,0,.08-.08l0-.4A.07.07,0,0,0,69.3,26Zm-7.68,0-.65,0,0-.25.64,0Zm7.58.44-.64,0v-.25l.65,0Z"/><path class="cls-3" d="M130.54,29.65l-.72,0h-.09l-3.31.19h-.15l-3.31.19h-.09l-.72,0a.08.08,0,0,0-.07.08l0,.4a.07.07,0,0,0,.08.07l.72,0,.11,2,.31,0v.14l-.31,0V33l3.4-.19h.15l3.4-.2,0-.2-.31,0v-.15H130l-.12-2,.72,0a.08.08,0,0,0,.07-.08l0-.41A.08.08,0,0,0,130.54,29.65Zm-7.64.85-.65,0v-.25l.64,0Zm7.58-.44-.64,0v-.25l.64,0Z"/><path class="cls-3" d="M80.2,32.63H71.81a.08.08,0,0,0-.08.08v.4a.08.08,0,0,0,.08.08h.72v2h.31v.14h-.31v.2h7v-.2h-.31v-.14h.31v-2h.72a.09.09,0,0,0,.08-.08v-.4A.09.09,0,0,0,80.2,32.63ZM72.53,33h-.65v-.26h.65Zm7.6,0h-.65v-.26h.65Z"/><path class="cls-4" d="M102.49,47.49l-.42.44c-.19.2-.37.4-.56.59a.52.52,0,0,0-.14.45,6,6,0,0,1-.11,2.07,3.59,3.59,0,0,0-.05.46.22.22,0,0,0,0,.14,1.39,1.39,0,0,1,.05.7.29.29,0,0,0,0,.16.64.64,0,0,1,0,.49.14.14,0,0,1-.12.1l-.23,0c-.07,0-.14,0-.19,0s0,0-.06,0a.26.26,0,0,1-.17.14,2.57,2.57,0,0,1-1.48.06c-.13,0-.14-.1-.13-.2a.36.36,0,0,1,.24-.28,2.18,2.18,0,0,0,.6-.32.17.17,0,0,0,.07-.19,1,1,0,0,1,.1-.7.61.61,0,0,0,0-.3,9.32,9.32,0,0,0,0-1.83,7.32,7.32,0,0,1,0-.81,1.08,1.08,0,0,1,.19-.65c.27-.4.49-.84.73-1.26a5,5,0,0,1,.56-.8s.06,0,0-.07,0,0-.07,0c-.18,0-.3,0-.33-.23a.28.28,0,0,0-.06-.14c-.05.2-.22.21-.37.26a14.3,14.3,0,0,1-1.57.37.17.17,0,0,0-.14.12v0c-.07.15-.09.33-.28.42s-.1.11-.16.16,0,0-.06,0-.12.06-.14.12c-.19.42-.38.83-.56,1.25s-.27.71-.39,1.07a.3.3,0,0,0,.19.4l.47.19c.07,0,.08.05,0,.11a1.73,1.73,0,0,1-1.86.87.8.8,0,0,1-.5-.31.67.67,0,0,1,0-.67,2.73,2.73,0,0,1,.34-.6c0-.05.07-.05.12,0l.49.15a.24.24,0,0,0,.35-.16c.37-.89.76-1.78,1.16-2.66a.12.12,0,0,0,0-.14c-.08-.11-.07-.15,0-.25s.24-.23.34-.36a1.44,1.44,0,0,0,.2-.39L99.33,44a.17.17,0,0,0,0-.18.54.54,0,0,0-.09-.12.36.36,0,0,1-.08-.36,2,2,0,0,1,.08-.45c-.14.09-.21,0-.28-.06s-.16,0-.23-.09,0,0-.07,0-.05,0-.08,0-.12.07-.17,0a.82.82,0,0,0-.29-.37s-.08,0-.12,0a.31.31,0,0,1-.25.11c-.1,0-.13-.06-.1-.15s0,0,0,0,.08-.22,0-.34a1,1,0,0,1-.13-.32,1.09,1.09,0,0,0-.12-.36.12.12,0,0,1,0-.1,1.16,1.16,0,0,1,1.11-.87,1.13,1.13,0,0,1,.79.42.17.17,0,0,0,.08.06c.09,0,.12,0,.07.12s0,.1,0,.15a2.16,2.16,0,0,1,.22.36.13.13,0,0,0,.06.07c.09.08.1.07.16,0a1.35,1.35,0,0,1,.41-.38.86.86,0,0,1,.59-.06.33.33,0,0,0,.17,0l.5-.17a1.32,1.32,0,0,1,.39-.06c.11,0,.15,0,.17.15a1.91,1.91,0,0,1,0,.79.14.14,0,0,0,.07.16A5.54,5.54,0,0,1,103.39,43l.69.8a.12.12,0,0,1,0,.17l-.23.28s0,.09,0,.14a2,2,0,0,1,0,1.75.47.47,0,0,0,0,.17,7.59,7.59,0,0,1-.14,1.26.25.25,0,0,0,0,.17l.09.22a.31.31,0,0,1,0,.31s0,.06,0,.1a2.39,2.39,0,0,1,.4,1.28,2.25,2.25,0,0,1,0,.44.27.27,0,0,0,0,.2,2.73,2.73,0,0,1,.17,1,1,1,0,0,0,0,.3.26.26,0,0,1-.17.33A.41.41,0,0,1,104,52a.74.74,0,0,1-.53-.17c-.07-.06-.15,0-.23,0a1,1,0,0,1-.67-.14.3.3,0,0,1-.17-.37.29.29,0,0,1,.35-.18h.13c.15,0,.16,0,.13-.16a.59.59,0,0,1,0-.19c0-.17,0-.35.06-.52a.26.26,0,0,0,0-.15,6.39,6.39,0,0,1-.38-1.36c0-.28-.13-.55-.17-.83Zm-3.55-1.82a1,1,0,0,0,.51-.21l.42-.3s.1,0,.09-.09,0-.14-.11-.17-.11-.08-.13-.16a2.38,2.38,0,0,0-.14-.46Z"/><path class="cls-4" d="M113.48,25.21a1.38,1.38,0,0,0-.06-.16,1,1,0,0,1,.5-1.29.86.86,0,0,1,1,.41,3.14,3.14,0,0,1,.23.53.22.22,0,0,0,.16.16,1.37,1.37,0,0,1,.68.36c.18.2.44.33.64.53.39.39.76.8,1.15,1.2a2.46,2.46,0,0,0,.44.31,4,4,0,0,1,.92,1,.94.94,0,0,0,.91.4.29.29,0,0,1,.21.08.35.35,0,0,0,.34.08l2.33-.51.9-.16c.15,0,.21-.08.17-.25a.63.63,0,0,1,.57-.87l1-.21a.33.33,0,0,1,.42.28l.24,1.4a.36.36,0,0,1-.27.46q-.59.16-1.17.3a.55.55,0,0,1-.66-.54c0-.25,0-.26-.29-.21l-3.19.62a2.44,2.44,0,0,0-.41.19.32.32,0,0,1,0,.13.15.15,0,0,1-.11,0,1.41,1.41,0,0,0-.76-.08l-3.38.72c-.28.06-.27.07-.23.35.08.56.15,1.12.23,1.68a6.75,6.75,0,0,0,.14.76,1.43,1.43,0,0,1,0,.87,3.37,3.37,0,0,0-.14.89c0,.44,0,1.63,0,2.08a.91.91,0,0,0,.3.55,1.7,1.7,0,0,0,.71.42,1.07,1.07,0,0,1,.44.27.17.17,0,0,1-.13.28,3.2,3.2,0,0,1-.69,0c-.4-.06-.8-.15-1.2-.23l-.23-.07c-.13,0-.11-.13-.07-.24a1.37,1.37,0,0,0,.15-.54,13.93,13.93,0,0,0-.26-2.58,2.17,2.17,0,0,1,0-.72,2.14,2.14,0,0,0-.21-1,4.14,4.14,0,0,1-.21-.59c-.12-.37-.22-.74-.33-1.1a1.07,1.07,0,0,0-.14-.2,1.94,1.94,0,0,0-.13.42c-.09.69-.16,1.37-.25,2.06a5.2,5.2,0,0,1-.2.75c0,.08-.12.14-.18.22a.91.91,0,0,0-.09.17c-.15.62-.31,1.23-.44,1.85a1.5,1.5,0,0,0,0,.42,2.64,2.64,0,0,0,0,.28.49.49,0,0,0,.09.22c.22.22.46.42.68.64a.88.88,0,0,1,.14.23c-.08,0-.15.09-.23.09l-.87,0c-.31,0-.48-.27-.7-.43a.12.12,0,0,1,0-.12,4.22,4.22,0,0,0,.28-1.65c0-.5,0-1,0-1.49,0,0,0-.08,0-.11.07-.41.15-.81.23-1.22a.57.57,0,0,0,0-.13c0-.27,0-.53,0-.8s0-.78,0-1.17-.07-.79-.11-1.18a.17.17,0,0,0-.06-.12c-.22-.19-.45-.37-.67-.57a.3.3,0,0,1-.1-.22,3.12,3.12,0,0,1,.22-1.09c.12-.3.2-.61.29-.92,0-.05,0-.1.05-.14.16-.33.33-.65.5-1a1.33,1.33,0,0,1,.79-.58Zm5.79,3.85-.08-.1c-.24-.21-.48-.43-.73-.63s-.42-.33-.63-.49c-.54-.39-1.07-.78-1.62-1.16-.23-.17-.3-.13-.41.14l0,.07a3.94,3.94,0,0,0-.47,1.49.56.56,0,0,0,.11.48s0,.07,0,.09c-.17.34.11.61.11.94Z"/><path class="cls-4" d="M50.47,15c-.08.38-.18.76-.25,1.14s-.14.86-.2,1.3a0,0,0,0,1,0,0,16,16,0,0,0-.46,2.27c0,.07,0,.16,0,.24s0,.45,0,.67a4,4,0,0,0,0,.5c.08.34,0,.42-.32.39a3.4,3.4,0,0,1-.46-.07.19.19,0,0,1-.17-.24c0-.15.12-.3.18-.44a1.52,1.52,0,0,0,.16-.4,7.8,7.8,0,0,0-.08-1.87c0-.25.05-.51,0-.76a5.47,5.47,0,0,1,.12-1.15.25.25,0,0,0,0-.09,1,1,0,0,1-.07-.62c0-.12-.06-.24,0-.35a4.77,4.77,0,0,0-.17-.93c0-.21-.08-.41-.09-.62s.05-.33.06-.5,0-.46,0-.69a2.46,2.46,0,0,1,0-.26,8.72,8.72,0,0,0-.09-1.77,2.13,2.13,0,0,0-.1-.49.19.19,0,0,0-.17-.12c-.31,0-.62,0-.92,0s-.23,0-.17.25a.2.2,0,0,0,0,.07.35.35,0,0,0-.29.35c0,.23,0,.46,0,.69,0,1.11,0,2.22,0,3.33,0,1.59,0,3.19,0,4.79,0,.22,0,.45,0,.67s0,.18.16.19a.87.87,0,0,1,.4.08.72.72,0,0,1,.31.34c.1.37.14.75.21,1.13H46.19c-.1-.4-.21-.78-.29-1.16s.12-.52.47-.47.25,0,.25-.21l.09-3.08c0-.56,0-1.11,0-1.67,0-1.58,0-3.15,0-4.72,0-.09-.08-.16-.11-.25s-.06-.24-.1-.36a.73.73,0,0,1,.19-.75.37.37,0,0,1,.46-.12A.69.69,0,0,0,48,9.16a1.38,1.38,0,0,1,.41-.24c.24-.12.42-.35.7-.39.13,0,.16-.27.07-.42s-.15-.26-.23-.38a.76.76,0,0,1,.1-.94.88.88,0,0,1,1-.09,1,1,0,0,1,.35,1,.23.23,0,0,0,.06.21c.16.15.31.32.56.31a1.06,1.06,0,0,1,.86.43c.3.35.59.71.88,1.07a.78.78,0,0,1,.08.62,10.26,10.26,0,0,1-.68,1.72,4.37,4.37,0,0,1-.4.65.2.2,0,0,0,0,.08,4.1,4.1,0,0,0,.06.49c.06.27.16.53.2.8s.08.86.12,1.28.11.86.15,1.29c0,.24,0,.49,0,.73,0,.73.06,1.45.14,2.17a1.07,1.07,0,0,0,.44.87l.67.37a3.58,3.58,0,0,1,.45.31.15.15,0,0,1,0,.14.21.21,0,0,1-.13.07l-.63,0-1.37-.22a.84.84,0,0,1-.22-.1.5.5,0,0,0,.11-.17,1.85,1.85,0,0,0,.07-.41A5.28,5.28,0,0,0,51.51,19c-.1-.3-.15-.62-.23-.92a2.65,2.65,0,0,0-.11-.3.76.76,0,0,1-.06-.2c0-.4-.06-.8-.12-1.2a4,4,0,0,0-.16-.49c-.06-.2-.09-.4-.15-.59a1.59,1.59,0,0,0-.15-.29Zm1.11-5.18a6.91,6.91,0,0,0,.07,2,.35.35,0,0,0,.13-.08.59.59,0,0,0,.12-.2q.2-.62.36-1.23a.23.23,0,0,0-.09-.18Z"/><path class="cls-4" d="M81.88,26.13a2.47,2.47,0,0,1,1.88-.39A4.58,4.58,0,0,1,86,26.8a.38.38,0,0,1,.14.24c0,.17.08.23.2.3a.54.54,0,0,1,.27.18c.23.47.45.95.65,1.44s.27.75.41,1.12a.25.25,0,0,0,.11.15.29.29,0,0,1,0,.49,2.52,2.52,0,0,1-.33.24c-.11.06-.23.15-.37,0a.2.2,0,0,0-.2,0c-.38.17-.75.34-1.11.53a.21.21,0,0,0-.1.2,3.34,3.34,0,0,0,.19.77,3.49,3.49,0,0,1,.27,1.31,9.2,9.2,0,0,0,.31,2.45.33.33,0,0,1-.08.26,1.71,1.71,0,0,1-1.4.34.21.21,0,0,1-.24-.17.28.28,0,0,1,.15-.29,4.66,4.66,0,0,0,.47-.3c.08-.07.18-.15.19-.24a2.34,2.34,0,0,0,0-.83c-.17-.73-.4-1.45-.61-2.17a.17.17,0,0,0-.15-.12c-.15,0-.19-.11-.2-.22s0-.25,0-.4l-1.69.84a.2.2,0,0,0-.08.15c0,.42,0,.84,0,1.26s.16.75.23,1.13,0,.28-.21.32L81.75,36l-.7.07a.23.23,0,0,1-.27-.22c0-.17.08-.22.19-.28.31-.14.61-.27.91-.42a.47.47,0,0,0,.24-.36,2.61,2.61,0,0,0-.06-1.14c-.08,0-.15.1-.22.09a1.11,1.11,0,0,1-.22-.07s-.05,0-.08,0L79.26,35.1a1.83,1.83,0,0,1-.24.13c-.22.09-.45.16-.68.23a1.61,1.61,0,0,1-.37.07l-1.38,0-.17,0,0,0s.09-.08.12-.07a1,1,0,0,0,.61-.25.48.48,0,0,1,.28-.1c.39,0,.78,0,1.17,0a.53.53,0,0,0,.28-.07l2.42-1.49c.12-.07.28-.11.22-.32,0,0,0-.07,0-.1.31-.35.21-.76.16-1.17-.24,0-.24-.11-.23-.28s0-.57,0-.86a3.94,3.94,0,0,0,0-.69A4.83,4.83,0,0,0,81.2,29a4.66,4.66,0,0,1-.38-.93c0-.11-.07-.17-.19-.14s-.14,0-.17-.13a1.69,1.69,0,0,0-.13-.31c-.11-.21-.28-.4-.19-.66a2,2,0,0,1,.2-.48.72.72,0,0,1,1-.32l.41.21Zm2.69,5.66c.06,0,.09-.19.09-.29,0-.28,0-.56,0-.84s.06-.54.07-.81a5,5,0,0,0,0-.52.68.68,0,0,0-.14.09c-.35.36-.7.72-1,1.1a9.36,9.36,0,0,0-.72.94.79.79,0,0,0-.06.46,5.44,5.44,0,0,0,.16.71C83.45,32.35,84,32.08,84.57,31.79Zm1.3-.62.4-.19.32-.16c.12-.08.31-.14.36-.25a.85.85,0,0,0,0-.82c-.18-.3-.33-.62-.49-.93l-.07,0C86.34,29.63,85.88,30.33,85.87,31.17Zm-3.69-1.44c.18-.31,0-1.22.16-1.5-.21,0-.08.55-.34.5Z"/><path class="cls-4" d="M158,22.73c-.27-.19-.62-.69-.85-.88s-.35-.77-.71-1c-.18-.13.08-.4,0-.54-.29-.44-.15-.93-.22-1.39h0a6.6,6.6,0,0,1,3-5.61,9.72,9.72,0,0,0,1.05-.75c.09-.07.22-.11.19-.25s-.2-.11-.31-.11c-.4,0-.58-.16-.49-.56s.27-.84,0-1.27c0,0,0-.05,0-.08s0-.23.16-.27a.28.28,0,0,1,.31.08l.18.24c.08-1.21.18-2.39.19-3.58a1,1,0,0,0-.19-.66.67.67,0,0,1,.11-1,.51.51,0,0,0,.13-.16,1.26,1.26,0,0,1,1-.66q3.44-.25,6.89-.34a1.63,1.63,0,0,1,1.11.32,1.44,1.44,0,0,0,.64.29c.36.06.43.29.17.55a.55.55,0,0,0-.17.53c.28,1.47.57,3,.85,4.42a.5.5,0,0,0,.61.46c.86-.06,1.73-.07,2.6-.08.37,0,.51-.13.51-.5,0-1.68,0-3.36-.05-5a.54.54,0,0,0-.33-.57c-.31-.12-.18-.3,0-.41a1.3,1.3,0,0,1,1-.09c.28.07.49.2.23.52a.51.51,0,0,0-.1.36c0,1.77.07,3.53.09,5.3,0,.3.15.42.45.42s.42-.13.42-.43c0-1.32,0-2.64-.05-3.95,0-.17,0-.37.14-.46s.29-.37.29-.63c0-.77,0-1.54,0-2.31,0-.34.25-.53.46-.38s.14.27.14.42c0,.76,0,1.52.07,2.27,0,.17,0,.41.14.46.52.18.42.61.44,1,0,1.14.08,2.28.14,3.41,0,.6.27.76.85.61a.68.68,0,0,0,.22-.12.5.5,0,0,1,.56,0,1,1,0,0,0,.64.15c.48,0,.95,0,1.43,0a3.2,3.2,0,0,0,1.65-.12.42.42,0,0,1,.36,0,1.5,1.5,0,0,0,.77.17,11.93,11.93,0,0,1,1.34.14.69.69,0,0,1,.48.31,4.54,4.54,0,0,1,.76,2.32c0,1-.07,2-.08,3,.06-.56.43-.65.88-.64.61,0,1.21,0,1.81,0s.73.15.67.71c-.08.73-.22,1.46-.35,2.19a.53.53,0,0,1-.55.43,10.58,10.58,0,0,0-1.13.15.43.43,0,0,0-.29.7.57.57,0,0,1,0,.66A1.7,1.7,0,0,0,188,21.7a.42.42,0,0,1-.38.55.57.57,0,0,0-.45.38l-7.81.08c.06-.14-.06-.21-.16-.26a.87.87,0,0,0-.28-.05.37.37,0,0,1-.32-.39c0-.77-.09-.84-.85-.71-.46.09-.6,0-.69-.48,0-.1,0-.2,0-.29,0-.27-.16-.37-.42-.35a9.19,9.19,0,0,0-2.12.2c-.68.23-1.49-.12-2.06.5,0,.05-.19,0-.28,0l-2.56.13c-.16,0-.33,0-.39.19a4.2,4.2,0,0,1-.88,1.5Zm4-13.45c.12-.23.13-.57.37-.78a1.1,1.1,0,0,0,.32-1.11c-.08-.48,0-.72.41-.83a.76.76,0,0,1,1,.4.36.36,0,0,0,.19.21c.21.09.22.15,0,.3a.58.58,0,0,0-.06.92,7.87,7.87,0,0,0,1.23,1.15c.16.12.32.35.54.2s.51-.35.51-.68c0-.83,0-1.66,0-2.49a.28.28,0,0,0-.3-.32c-1.33,0-2.66,0-4,.15a.27.27,0,0,0-.27.27ZM169.61,6c-.23.57-.37,1.14-.63,1.67a1.94,1.94,0,0,0-.29,1.62l-.08.06c-.18-.16-.13-.44-.29-.64,0,.29,0,.55,0,.82,0,.69,0,.69.72.65a3,3,0,0,1,.42,0c.4,0,.52-.16.48-.53C169.83,8.42,169.72,7.21,169.61,6Zm5.66,13.66.92-.06c.69,0,.66-.05.77-.71.07-.43-.11-.59-.48-.66-.55-.09-.88,0-.95.41s-.17.46-.47.49c-.12,0-.23.06-.22.2a.3.3,0,0,0,.23.32A.76.76,0,0,0,175.27,19.65ZM169.9,5.31a.47.47,0,0,0-.13.46L170,7.86c.07.64.12,1.28.19,1.92,0,.2.11.36.36.31s.2-.22.17-.39-.07-.53-.11-.79C170.42,7.72,170.22,6.54,169.9,5.31ZM168.15,6.7a3,3,0,0,0,.07.74c.05.19.14.24.28.07a4,4,0,0,0,.65-1.12c0-.09,0-.22-.08-.23a2.09,2.09,0,0,0-.83,0C168,6.26,168.18,6.54,168.15,6.7Z"/><polygon class="cls-5" points="0 18.39 27.4 18.39 30.34 20.18 35.74 19.28 45.87 19.28 52.9 21 55.81 21.4 60.14 22.07 62.81 27.47 68.09 28.36 70.45 32.8 70.45 35.41 80.53 35.55 90.46 37.57 92.26 43.62 92.6 50.73 93.84 51.81 100.32 51.65 106.53 51.65 106.93 45.45 109.56 37.76 114.58 37.39 119.68 37.23 119.8 35.61 120.76 32.55 121.38 32.43 124.59 32.03 130.08 32.19 130.89 25.29 137.83 24.63 141.39 22.73 147.72 22.31 149.3 22.52 177.12 21.33 183.33 21.33 200 21.82 200 100 0 100 0 18.39"/></g></svg>