<svg xmlns="http://www.w3.org/2000/svg" viewBox="0 0 200 100"><defs><style>.cls-1{fill:#ddd;}.cls-2{fill:#708088;}.cls-3{fill:#9b9b9b;}.cls-4{fill:#a5a5a5;}</style></defs><title>riñihuazo</title><g id="Capa_2" data-name="Capa 2"><rect class="cls-1" width="200" height="100"/><path class="cls-2" d="M101,54.06c0,.12-.1.21-.14.3s-.1.12-.2.06a.18.18,0,0,0-.28.13,1.73,1.73,0,0,0,0,.6,2.65,2.65,0,0,1,0,.56s0,.09,0,.13a2.87,2.87,0,0,0,.32,1.22,2.63,2.63,0,0,1,.36,1.16,3.06,3.06,0,0,0,.17.71,5.09,5.09,0,0,1,.18.67,5.81,5.81,0,0,1,.15.93.25.25,0,0,0,.06.13l.93,1.62a8.26,8.26,0,0,1,.4.85c0,.08.07.15.17,0s.12,0,.17,0a.16.16,0,0,1,.09.18s0,.1,0,.13.08,0,.12-.06l.08-.06a.2.2,0,0,1,.33,0c.34.42.66.86,1,1.3a1.67,1.67,0,0,0,.12.16.66.66,0,0,1,.13.73,4.36,4.36,0,0,1-.33.77.26.26,0,0,1-.16.11,1.49,1.49,0,0,1-.91,0,.4.4,0,0,1-.18-.16q-.48-.62-.93-1.23c-.09-.12-.14-.13-.22,0a1.69,1.69,0,0,0-.17.29.21.21,0,0,1-.18.16c-.08,0-.12-.07-.16-.13s-.33-.29-.43-.49c0,0,0,0-.08,0-.22.12-.24.11-.36-.1-.3-.51-.59-1-.86-1.55a10,10,0,0,0-.57-.87,11.57,11.57,0,0,0-1.84-2.28c-.09-.08-.14-.09-.17,0-.1.47-.26.92-.4,1.38a.65.65,0,0,1-.09.23,1.78,1.78,0,0,0-.32.75,1.35,1.35,0,0,1-.38.68.19.19,0,0,0-.07.22,5.36,5.36,0,0,1,.06,1.83s0,.11.06.1.17,0,.2.1a.33.33,0,0,1-.08.33.61.61,0,0,1-.34.23,7.21,7.21,0,0,0-.77.3.49.49,0,0,1-.27.06c-.12,0-.17-.06-.22-.17-.15-.3,0-.58,0-.86s.07-.83.06-1.24a8.5,8.5,0,0,1,.26-1.81c.05-.26.14-.5.21-.75a2.11,2.11,0,0,0,.09-.62c0-.25,0-.5,0-.75a2.77,2.77,0,0,1,0-.41c0-.27-.1-.53,0-.79,0,0,0-.06,0-.07-.17,0-.17-.18-.17-.29a4.64,4.64,0,0,1,0-.65.75.75,0,0,0-.07-.33.15.15,0,0,1,0-.18,4.69,4.69,0,0,0,.37-1,5.2,5.2,0,0,1,.21-.55c.18-.3.27-.64.43-.94a.16.16,0,0,0-.07-.25.31.31,0,0,1,0-.54c.3-.19.53-.5.9-.57a.21.21,0,0,0,.1-.06c.19-.33.56-.42.86-.59a.4.4,0,0,1,.34,0A1.27,1.27,0,0,0,99,53a.29.29,0,0,1,.16,0c.2.11.32,0,.44-.13a4.28,4.28,0,0,0,.4-.45,1,1,0,0,1,1-.22,1.05,1.05,0,0,1,.59,1.49c-.14.24,0,.44,0,.66s.08.13,0,.19-.13,0-.19,0A1,1,0,0,1,101,54.06Zm1,9.68a.78.78,0,0,0,.41-.1c.09,0,.11-.1.06-.17a4.11,4.11,0,0,1-.21-.42l-1.1-2c-.1-.18-.16-.4-.4-.46,0,0,0,0,0,0,0-.22-.26-.37-.19-.62,0,0,0-.07,0-.11l-1.19-2.23-.42-.8c0-.07-.08-.12-.16-.11s0,.09-.07.14l-.12.5c-.06.25-.38.49,0,.75h0a1,1,0,0,0,.42.51,5.1,5.1,0,0,1,1,1,1.15,1.15,0,0,0,.27.38,1.25,1.25,0,0,1,.51.83,3.66,3.66,0,0,0,.17.65,4.25,4.25,0,0,0,.37.95,3.81,3.81,0,0,1,.52,1.14C101.8,63.67,101.86,63.78,102,63.74Zm-2.36-6.42h0c-.07-.29-.13-.59-.2-.88a.18.18,0,0,0-.12-.15s-.1-.07-.15,0,0,.11,0,.16a1.31,1.31,0,0,1,.17.36A1.77,1.77,0,0,0,99.66,57.32Z"/><path class="cls-2" d="M110.78,27.55c-.09.07-.06.21-.06.3s-.1.35.09.49c0,0,1,1.66,1,1.81.14.3.27.33.52.11a1.53,1.53,0,0,1,.21-.14.28.28,0,0,0,.2-.26,1.17,1.17,0,0,1,.34-.62c0,.21.1.39.08.53a3.76,3.76,0,0,1-.1.75,1.48,1.48,0,0,0-.14.62.81.81,0,0,1-.06.31.54.54,0,0,0,0,.48.11.11,0,0,1,0,.08,3.27,3.27,0,0,0,.16,1.42,14.93,14.93,0,0,1,.35,1.64,5.6,5.6,0,0,1,0,1,5.09,5.09,0,0,0,.14,1.4c0,.22.1.43.14.65a.55.55,0,0,1,0,.38.19.19,0,0,0,0,.19.33.33,0,0,1,0,.4.63.63,0,0,0-.1.46c0,.08,0,.11.11.13a1.18,1.18,0,0,0,.59,0,.23.23,0,0,0,.19-.21c0-.31,0-.62.07-.94a.18.18,0,0,0-.12-.23c-.12,0-.07-.15-.08-.23a7.87,7.87,0,0,1,.09-1.28.67.67,0,0,0,0-.28,1.89,1.89,0,0,1,.09-1.1.75.75,0,0,1,.11.43,1.5,1.5,0,0,0,0,.7,1.4,1.4,0,0,1-.13.81.52.52,0,0,0,.07.51.7.7,0,0,1,.13.58.88.88,0,0,0,0,.48.39.39,0,0,0,.39.28c.21,0,.37,0,.39-.31a1.76,1.76,0,0,0-.07-.82,1,1,0,0,1-.06-.79s0-.13,0-.16,0-.26,0-.38a2.94,2.94,0,0,0,.17-1.58,3.44,3.44,0,0,1,.11-.91,8.07,8.07,0,0,0,.16-2c0-.09,0-.17.11-.19S116,32,116,32a2.36,2.36,0,0,0-.1-.38,1,1,0,0,1-.1-.58.32.32,0,0,0,0-.23.8.8,0,0,1-.06-.59,1.06,1.06,0,0,0,0-.47,2.36,2.36,0,0,1,0-.75c0-.12.07-.17.19-.11l.46.21a.52.52,0,0,1,.22.12c.15.22.39.23.6.31a.3.3,0,0,0,.38-.17,3.76,3.76,0,0,0,.36-.79,1,1,0,0,1,0-.23l.33-.31c0-.11,0-.18.13-.23s0,0,0,0a.9.9,0,0,0-.09-.8h-.55s0,0,0,.08a2.05,2.05,0,0,0-.41.87c0,.17-.18.22-.25.35s-.07,0-.08,0a.26.26,0,0,0-.29-.2c-.1,0-.15-.05-.2-.12a3,3,0,0,0-.81-.65,2.14,2.14,0,0,0-.54-.13s0,0,0,0,.16,0,.18-.06-.07-.13-.12-.17a.43.43,0,0,1-.21-.53,2.57,2.57,0,0,0,0-.68c0-.28,0-.6-.27-.8a.49.49,0,0,0-.28-.09,5.82,5.82,0,0,0-.59,0,.27.27,0,0,0-.24.22.82.82,0,0,1-.1.26.57.57,0,0,0,0,.55.18.18,0,0,1,0,.16.39.39,0,0,0,.09.37c.08.11.08.2-.08.24a.66.66,0,0,0-.29.2c-.07.1-.15.19,0,.29s0,.13-.06.15a3.49,3.49,0,0,0-.44.2.53.53,0,0,0-.14.12l-.43.67a.59.59,0,0,0,0,.19.69.69,0,0,1-.29.48.91.91,0,0,0-.12-.52.34.34,0,0,1,0-.22c0-.15.08-.29-.08-.38l-.12-.08a.79.79,0,0,0-.7-.12Z"/><rect class="cls-3" x="109.66" y="9.28" width="1.41" height="31.97" transform="translate(222.05 43.81) rotate(176.54)"/><rect class="cls-3" x="117.91" y="6.88" width="1.41" height="31.97" transform="translate(236.04 51.23) rotate(-177.33)"/><rect class="cls-3" x="153.87" y="8.78" width="0.71" height="31.97" transform="translate(178.99 -129.46) rotate(90)"/><rect class="cls-3" x="154.25" y="8.08" width="0.71" height="31.97" transform="translate(178.67 -130.55) rotate(90)"/><rect class="cls-3" x="153.22" y="7.37" width="0.71" height="31.97" transform="translate(176.93 -130.22) rotate(90)"/><rect class="cls-3" x="153.87" y="6.77" width="0.71" height="31.97" transform="translate(176.98 -131.47) rotate(90)"/><rect class="cls-3" x="153.21" y="6.07" width="0.71" height="31.97" transform="translate(175.62 -131.51) rotate(90)"/><rect class="cls-3" x="152.18" y="5.36" width="0.71" height="31.97" transform="translate(173.88 -131.19) rotate(90)"/><rect class="cls-3" x="152.83" y="4.76" width="0.71" height="31.97" transform="translate(173.93 -132.44) rotate(90)"/><rect class="cls-3" x="155.54" y="4.41" width="0.71" height="31.97" transform="translate(176.29 -135.51) rotate(90)"/><rect class="cls-3" x="154.51" y="3.7" width="0.71" height="31.97" transform="translate(174.55 -135.18) rotate(90)"/><rect class="cls-3" x="155.16" y="3.1" width="0.71" height="31.97" transform="translate(174.6 -136.44) rotate(90)"/><rect class="cls-3" x="154.5" y="2.4" width="0.71" height="31.97" transform="translate(173.24 -136.47) rotate(90)"/><rect class="cls-3" x="153.47" y="1.69" width="0.71" height="31.97" transform="translate(171.5 -136.15) rotate(90)"/><rect class="cls-3" x="154.12" y="1.09" width="0.71" height="31.97" transform="translate(171.55 -137.4) rotate(90)"/><polygon class="cls-4" points="0 20.98 21.1 20.98 24.02 22.77 29.37 21.88 39.43 21.88 46.4 23.58 49.29 23.98 53.58 24.64 56.23 30 63.73 32.86 67.7 36.34 73.81 38.01 87.82 40.84 90.13 46.54 91.75 64.23 92.98 65.3 99.41 65.15 106.94 65.15 107.34 47.83 109.95 40.21 113.56 39.84 119.69 35.04 129.61 30.14 134.85 26.11 137.84 25.26 140.46 24.88 142.03 25.09 169.63 23.9 175.79 23.9 200 24.39 200 100 0 100 0 20.98"/><rect class="cls-3" x="90.69" y="33.63" width="1.41" height="31.97" transform="translate(-6.57 14.71) rotate(-8.89)"/><rect class="cls-3" x="105.53" y="33.63" width="1.41" height="31.97" transform="translate(12.29 -20.55) rotate(11.72)"/><polygon class="cls-3" points="107.32 49.81 107.18 50.19 107.32 50.55 107.43 50.77 107.43 51.09 99.67 51.09 90.1 51.04 89.71 50.86 90.49 49.69 106.55 49.69 107.23 49.61 107.34 49.74 107.32 49.81"/><polygon class="cls-3" points="89 44.35 89.16 43.98 89 43.61 88.88 43.4 88.88 43.08 97.45 43.08 108.01 43.12 108.44 43.3 107.59 44.48 89.85 44.48 89.09 44.56 88.98 44.43 89 44.35"/></g></svg>