<svg xmlns="http://www.w3.org/2000/svg" viewBox="0 0 200 100"><defs><style>.cls-1{fill:#ddd;}.cls-2{fill:#2bbba0;}.cls-3{fill:#708088;}.cls-4{fill:#9b9b9b;}.cls-5{fill:#a5a5a5;}</style></defs><title>riñihuazo</title><g id="Capa_2" data-name="Capa 2"><rect class="cls-1" width="200" height="100"/><rect class="cls-2" x="90.73" y="55.75" width="17.29" height="10.31"/><polygon class="cls-2" points="78.03 28.06 104.96 56.11 104 56.75 77.99 28.34 78.03 28.06"/><polygon class="cls-2" points="115.95 29.54 93.75 56.07 94.4 57.8 116.02 29.7 115.95 29.54"/><path class="cls-3" d="M78.23,27.91A.39.39,0,0,1,78,27.8l-1.1-.92a1.24,1.24,0,0,1-.41-.41.09.09,0,0,0-.14,0,.12.12,0,0,1-.14,0L76,26.34h0s-2.19-1.16-3.94-1.94c-2-.88-4.84,1.88-5,2l-1.92,1.69a13.71,13.71,0,0,1-7,3.08l.07.73a14.56,14.56,0,0,0,7.39-3.26l1.94-1.7c.73-.71,2.9-2.42,4.15-1.86,1.72.77,3.87,1.91,3.89,1.92l.22.21a.14.14,0,0,0,.13.06.31.31,0,0,1,.12,0l1.56,1a.34.34,0,0,1,.14.15.1.1,0,0,0,.18,0c.1-.12.19-.25.28-.38S78.32,27.92,78.23,27.91Z"/><path class="cls-3" d="M75.48,26.09,75.36,26l-.18-.09L75,25.85l-.21-.08-.17.15-.31.6L74,27l-.17.6-.45.1.12-.47.4-.79,0-.33-.07-.46-.14-.4-.09-.22,0-.15.09-.27.16-.37,0-.36H74c.1,0,.18-.1.12-.18a1.23,1.23,0,0,1-.13-.41,1.31,1.31,0,0,0-.36-.65s-.12-.11-.18-.11-.06,0-.21-.19h-.22c-.06.16-.14.09-.24.13a1.07,1.07,0,0,0-.67.69.93.93,0,0,1-.14.36.11.11,0,0,0,0,.14.07.07,0,0,0,.11,0l.1,0-.15.91-.48-.05-.71.25-1.1,2-.09.83-.06.34v.13l-.54,1.34.2,1.22.24.08.08.31.16.31.18.33-.09.85.26.19-.23.15-.09.71-.14.09V34l-.23.09v.24l-.38.31v.86l-.42.61-.31.31v.23l.31.35.77.33.21.08.05-.44-.09-.4.28-.35.45-.44.29-.26v.62l.29.45.2.36-.23.6.2.17,1.36.47h.52l-.24-.47-.43-.19-.31-.39V37l.14-.22L72,36.28l.18-1.16.06-1.31V31.35l-.14-1.23.28-1.3h1.1l1.08-.46.06-.31v-.57l.24-.49.37-.28.27-.36.07-.13Z"/><path class="cls-3" d="M131.89,36.68c0-.14,0-.28-.07-.42s-.06-.13-.16-.12a8,8,0,0,1-2.23-.15,2.31,2.31,0,0,1-1.16-.57,2.59,2.59,0,0,1-.71-1.55,7.84,7.84,0,0,1,.13-2,7,7,0,0,0,.13-1.45,3,3,0,0,0-.68-1.78c-.13-.16-.14-.22,0-.39s.24-.34.35-.53a1.12,1.12,0,0,0,.17-.82,1.08,1.08,0,0,1,0-.4,1,1,0,0,0-.18-.67c-.07-.13-.22-.15-.33-.22s-.19-.06-.18-.19-.06-.07-.09-.1c-.27-.17-.55-.33-.83-.48l-.07,0c-.15.06-.2-.05-.26-.14a.53.53,0,0,0-.52-.28h-.85a.21.21,0,0,1-.2-.11c-.05-.1-.1-.21-.23-.24s0,0,0,0l-.08,0c0-.07,0-.14,0-.21a1.25,1.25,0,0,1,0-.43.24.24,0,0,1,0-.09c0-.07.06-.14,0-.21s0,0,0,0l.12-.16c.07-.1,0-.18,0-.25l-.09-.09a.63.63,0,0,0-.27-.24l-.14-.05s0,0,0,0-.07-.05-.11,0,0,0-.06,0a.58.58,0,0,0-.45,0,1.12,1.12,0,0,0-.6.45.27.27,0,0,1-.12.09l-.5.14c-.06,0-.08.05-.07.11a.4.4,0,0,0,.28.28,1.05,1.05,0,0,0,.31,0,0,0,0,0,1,.05,0c0,.09,0,.17,0,.27a1.65,1.65,0,0,0-.07.32.09.09,0,0,0,.1.1l.08,0s0,0,0,0,0,0,0,0a.14.14,0,0,0,0,.16.22.22,0,0,1,.11.14.2.2,0,0,0,.12.17l0,0v0l.44,0-.15.08s0,0-.06.06a.26.26,0,0,0,0,.21.17.17,0,0,1-.09.2l-.62.41a1,1,0,0,0-.41.76c0,.06,0,.12-.08.14a.1.1,0,0,0,0,.05,6.8,6.8,0,0,1-.46.6.47.47,0,0,0-.14.43c0,.1,0,.17-.13.16a.23.23,0,0,0-.2.12.36.36,0,0,1-.35.18.28.28,0,0,0-.25.11.68.68,0,0,1-.52.23l-.35,0s-.08,0-.09,0-.14,0-.22,0-.37-.22-.56-.32-.2,0-.21.11l-.38.19a.09.09,0,0,1-.12,0,.09.09,0,0,0-.14,0,1.15,1.15,0,0,1-.38.38c-.33.29-.68.57-1,.85a.27.27,0,0,1-.19.1.09.09,0,0,0-.07.15,3.32,3.32,0,0,0,.26.36c.06.07.13.07.17,0a.29.29,0,0,1,.13-.14l1.45-.9a.21.21,0,0,1,.11,0c.06,0,.1,0,.12-.06s.19.06.26.12a.69.69,0,0,0,.29.07l.21,0a.43.43,0,0,1,.44.26s0,.06.08.05c.19,0,.3.12.42.23.35.3.66.66,1,1a3.09,3.09,0,0,0,.77.62,1.61,1.61,0,0,0,.68.19c.09,0,.12,0,.12.12,0,.38,0,.76.08,1.15,0,.1,0,.21.09.29s0,.12,0,.17c0,.27,0,.53,0,.79a.83.83,0,0,0,.1.41,1.42,1.42,0,0,1,.17.54,3.68,3.68,0,0,0,.19.86.51.51,0,0,1,0,.45.87.87,0,0,0,0,.51.18.18,0,0,1,0,.14,2.06,2.06,0,0,1-.29.3,1.63,1.63,0,0,0-.3.34.51.51,0,0,0-.09.16c-.09.28,0,.45.31.44a1.16,1.16,0,0,0,1-.49.57.57,0,0,1,.47-.29.55.55,0,0,0,.38-.2.35.35,0,0,0,0-.46.93.93,0,0,1-.12-.4c0-.17-.07-.34-.1-.51a.5.5,0,0,1,0-.34.3.3,0,0,0,0-.13.38.38,0,0,1,0-.15,3.8,3.8,0,0,0,.13-1.06,11.13,11.13,0,0,0,0-1.29.09.09,0,0,1,0-.07h0a.8.8,0,0,1,.08.16,11.39,11.39,0,0,1,.54,1.41,5.07,5.07,0,0,0,.28.83,1.42,1.42,0,0,0,.12.25.75.75,0,0,1,.1.33,1,1,0,0,0,.17.6.17.17,0,0,1,0,.17.39.39,0,0,0,.14.4.82.82,0,0,1,.23.29,1.08,1.08,0,0,0,.82.53c.27,0,.43-.19.35-.49a.9.9,0,0,0-.34-.51.35.35,0,0,1-.12-.21.94.94,0,0,1,0-.55.34.34,0,0,0,0-.22c-.06-.18-.12-.35-.17-.53a4.15,4.15,0,0,1-.12-.85c0-.51-.15-1-.22-1.53,0-.08,0-.17,0-.25s0-.08,0-.12L126,31c0-.06,0-.11-.07-.14s-.05-.07-.05-.11a4.63,4.63,0,0,1,0-1.66A.15.15,0,0,1,126,29l.35-.18c.06,0,.09,0,.13,0a1.83,1.83,0,0,1,.54.78,2.71,2.71,0,0,1,.15,1.29c-.07.67-.21,1.32-.25,2a4.09,4.09,0,0,0,.31,2.1,2.77,2.77,0,0,0,1.86,1.57,8.72,8.72,0,0,0,2.74.22C131.88,36.8,131.9,36.76,131.89,36.68Zm-9.48-6.1c0,.19-.07.21-.27.21h-.08a1.26,1.26,0,0,1-.77-.42c-.38-.37-.75-.76-1.13-1.14-.07-.06-.07-.1,0-.13l.45-.18a2,2,0,0,0,.73-.38,2.76,2.76,0,0,0,.58-.65.2.2,0,0,1,.1-.12.36.36,0,0,1,.07.17c.08.36.17.73.26,1.08a1.34,1.34,0,0,1,0,.63.33.33,0,0,0,0,.22A1,1,0,0,1,122.41,30.58ZM126.5,27a.22.22,0,0,0,0,.25c0,.07,0,.14,0,.19a.79.79,0,0,0-.24.47.11.11,0,0,1-.14.09c-.08,0-.19,0-.21-.06,0-.48,0-.9-.08-1.32,0-.19,0-.19.18-.16l.11,0c.21,0,.38,0,.43.26h0A.15.15,0,0,1,126.5,27Z"/><rect class="cls-4" x="91.26" y="37.84" width="1.26" height="28.54" transform="translate(-6.95 14.82) rotate(-8.89)"/><rect class="cls-4" x="105.91" y="37.79" width="1.26" height="28.54" transform="translate(12.8 -20.56) rotate(11.72)"/><polygon class="cls-4" points="106.44 52.24 106.32 52.57 106.44 52.9 106.54 53.09 106.54 53.38 99.62 53.38 91.07 53.33 90.73 53.17 91.42 52.13 105.76 52.13 106.37 52.05 106.46 52.17 106.44 52.24"/><polygon class="cls-4" points="90.09 47.36 90.23 47.03 90.09 46.7 89.98 46.51 89.98 46.22 97.63 46.22 107.06 46.26 107.45 46.42 106.68 47.47 90.84 47.47 90.17 47.54 90.07 47.43 90.09 47.36"/><polygon class="cls-5" points="0 20.98 21.1 20.98 24.02 22.77 29.37 21.88 39.43 21.88 46.4 23.58 49.29 23.98 53.58 24.64 56.23 30 63.73 32.86 67.7 36.34 73.81 38.01 87.82 40.84 90.13 46.54 91.75 64.23 92.98 65.3 99.41 65.15 106.94 65.15 107.34 47.83 109.95 40.21 113.56 39.84 119.69 35.04 129.61 30.14 134.85 26.11 137.84 25.26 140.46 24.88 142.03 25.09 169.63 23.9 175.79 23.9 200 24.39 200 100 0 100 0 20.98"/></g></svg>