<svg xmlns="http://www.w3.org/2000/svg" viewBox="0 0 6.25 6.25"><defs><style>.cls-1{fill:#708088;}</style></defs><title>style</title><g id="Capa_2" data-name="Capa 2"><path class="cls-1" d="M.54,4.71S.44,4.59.4,4.56.34,4.43.28,4.39s0-.07,0-.09a.51.51,0,0,1,0-.24h0a1.12,1.12,0,0,1,.51-.94A.92.92,0,0,0,.92,3S1,3,1,3s0,0,0,0-.1,0-.08-.09,0-.14,0-.21v0s0,0,0,0,0,0,.05,0l0,0c0-.2,0-.4,0-.6a.14.14,0,0,0,0-.11.12.12,0,0,1,0-.18l0,0a.2.2,0,0,1,.17-.11L2.3,1.54a.3.3,0,0,1,.19.05.22.22,0,0,0,.11,0c.06,0,.07.05,0,.09a.1.1,0,0,0,0,.09c0,.25.09.5.14.75a.08.08,0,0,0,.1.07h.44c.06,0,.09,0,.08-.08V1.7a.09.09,0,0,0-.06-.1s0-.05,0-.07a.22.22,0,0,1,.16,0s.09,0,0,.08a.15.15,0,0,0,0,.07c0,.29,0,.59,0,.89,0,0,0,.07.08.07s.07,0,.07-.08c0-.22,0-.44,0-.66,0,0,0-.06,0-.08s0-.06,0-.1V1.32c0-.06,0-.09.08-.06s0,0,0,.07,0,.25,0,.38,0,.07,0,.08.08.1.08.16,0,.38,0,.57.05.13.15.1l0,0a.09.09,0,0,1,.1,0,.13.13,0,0,0,.1,0h.24c.1,0,.19,0,.28,0a.06.06,0,0,1,.06,0,.3.3,0,0,0,.13,0l.23,0a.14.14,0,0,1,.08.05.67.67,0,0,1,.12.39c0,.17,0,.33,0,.5,0-.09.07-.11.15-.11h.3c.1,0,.13,0,.12.12L6,4a.09.09,0,0,1-.1.07l-.18,0c-.06,0-.09.06,0,.11a.11.11,0,0,1,0,.11.26.26,0,0,0,0,.23s0,.08-.07.09,0,0-.07.06l-1.31,0s0,0,0,0H4.06s0,0,0-.06,0-.14-.14-.12-.11,0-.12-.08a.09.09,0,0,0,0,0s0-.06-.07-.06a1.34,1.34,0,0,0-.35,0c-.12,0-.25,0-.35.08H2.92l-.43,0s-.05,0-.06,0a.73.73,0,0,1-.15.25Zm.67-2.26s0-.1.06-.13a.17.17,0,0,0,.05-.19c0-.08,0-.12.07-.14s.15,0,.18.07,0,0,0,0,0,0,0,0a.1.1,0,0,0,0,.15,1.24,1.24,0,0,0,.21.19s.05.06.09,0S2,2.47,2,2.41V2s0-.06-.05-.06c-.23,0-.45,0-.68,0a0,0,0,0,0,0,0ZM2.5,1.9c0,.09-.06.19-.1.28a.29.29,0,0,0,0,.27h0s0-.07,0-.11a.65.65,0,0,0,0,.14c0,.12,0,.12.12.11h.07c.06,0,.08,0,.08-.09Zm1,2.29h.16c.11,0,.11,0,.13-.12s0-.1-.09-.11S3.51,4,3.5,4s0,.08-.08.08,0,0,0,0a.05.05,0,0,0,0,.05Zm-.9-2.41a.09.09,0,0,0,0,.08c0,.12,0,.23,0,.35l0,.32a.05.05,0,0,0,.06.06s0,0,0-.07,0-.09,0-.13C2.64,2.19,2.6,2,2.55,1.78ZM2.26,2a.49.49,0,0,0,0,.12s0,0,0,0A.49.49,0,0,0,2.42,2s0,0,0,0a.33.33,0,0,0-.14,0S2.26,2,2.26,2Z"/></g></svg>