<svg xmlns="http://www.w3.org/2000/svg" viewBox="0 0 6.25 10"><defs><style>.cls-1{fill:#708088;}</style></defs><title>style</title><g id="Capa_2" data-name="Capa 2"><path class="cls-1" d="M3.45,5.41c-.06.23-.11.46-.16.69l-.12.79v0A8.15,8.15,0,0,0,2.89,8.3s0,.1,0,.14,0,.28,0,.41a1.62,1.62,0,0,0,0,.31c0,.21,0,.25-.2.24l-.28-.05a.11.11,0,0,1-.1-.15c0-.09.07-.17.11-.26a2.44,2.44,0,0,0,.1-.24,4.91,4.91,0,0,0,0-1.15c0-.15,0-.31,0-.46a4.29,4.29,0,0,1,.08-.71s0,0,0,0,0-.25,0-.38,0-.14,0-.21a2.72,2.72,0,0,0-.1-.57c0-.12,0-.25-.06-.38s0-.2,0-.3,0-.28,0-.43,0-.1,0-.15a4.86,4.86,0,0,0-.06-1.08,1,1,0,0,0-.06-.3.13.13,0,0,0-.1-.08l-.56,0c-.14,0-.14,0-.11.15s0,0,0,0a.22.22,0,0,0-.18.22V5.35l0,2.92c0,.14,0,.28,0,.41s0,.11.1.12a.51.51,0,0,1,.25,0,.52.52,0,0,1,.19.2c.06.23.08.47.12.7H.83C.77,9.5.7,9.27.66,9s.07-.32.28-.29.15,0,.16-.13c0-.62,0-1.25,0-1.88,0-.34,0-.68,0-1,0-1,0-1.92,0-2.88a.47.47,0,0,0-.06-.15A1.8,1.8,0,0,1,1,2.47.44.44,0,0,1,1.13,2a.22.22,0,0,1,.28-.07A.43.43,0,0,0,2,1.86a.68.68,0,0,1,.25-.14c.15-.08.25-.21.43-.24s.1-.17,0-.26A1.76,1.76,0,0,0,2.53,1,.46.46,0,0,1,2.59.42.53.53,0,0,1,3.2.36.65.65,0,0,1,3.42,1a.15.15,0,0,0,0,.13.51.51,0,0,0,.34.19.65.65,0,0,1,.53.26c.18.21.36.43.53.66a.42.42,0,0,1,.05.38,5.76,5.76,0,0,1-.41,1,2.06,2.06,0,0,1-.25.4s0,0,0,.05a1.54,1.54,0,0,0,0,.3c0,.16.1.32.12.49s0,.52.08.78.06.52.08.79,0,.29,0,.44c0,.45,0,.89.08,1.33a.69.69,0,0,0,.27.53c.14.08.28.14.41.22a2.83,2.83,0,0,1,.28.2.08.08,0,0,1,0,.08.15.15,0,0,1-.09,0l-.38,0c-.28,0-.56-.08-.83-.13,0,0-.09,0-.14-.06A.33.33,0,0,0,4.22,9a.74.74,0,0,0,0-.25,3.44,3.44,0,0,0-.19-.9C4,7.66,4,7.46,3.94,7.28a1.46,1.46,0,0,0-.07-.19.35.35,0,0,1,0-.11c0-.25,0-.5-.07-.74s-.08-.2-.11-.3-.05-.24-.09-.36a1.42,1.42,0,0,0-.08-.18Zm.68-3.17a3.68,3.68,0,0,0,0,1.24.15.15,0,0,0,.07,0,.23.23,0,0,0,.08-.12c.08-.25.15-.5.22-.75,0,0,0-.09-.06-.11S4.26,2.32,4.13,2.24Z"/></g></svg>