<svg xmlns="http://www.w3.org/2000/svg" viewBox="0 0 6.25 10"><defs><style>.cls-1{fill:#708088;}</style></defs><title>style</title><g id="Capa_2" data-name="Capa 2"><path class="cls-1" d="M3.1,5.86H2.85c-.07,0-.12,0-.12-.1s0,0,.11,0H3.1V5.6H3.05S3,5.56,3,5.52a.07.07,0,0,1,.07-.07H4.94a.08.08,0,0,0,.07,0L5.9,4.18a.11.11,0,0,1,.15,0,.11.11,0,0,1,0,.16L5.28,5.4l0,0H5.8c.07,0,.09,0,.1.07s0,.07-.1.07h0v.12h.26c.06,0,.11,0,.11,0a.1.1,0,0,1-.11.11H5.79V8.61a.65.65,0,0,1-.5.62H3.73a.63.63,0,0,1-.63-.63V5.86Z"/><path class="cls-1" d="M1.65,8.22a2.51,2.51,0,0,1,.16.72.78.78,0,0,1,0,.21s0,.06-.05.09l.11,0,.69.11.32,0a.08.08,0,0,0,.06,0s0-.05,0-.06a1.19,1.19,0,0,0-.23-.16L2.32,9a.56.56,0,0,1-.22-.44c0-.26,0-.53-.05-.79s0-.26,0-.38a1.26,1.26,0,0,0,.27,0c.32,0,.34-2.85.21-2.94s0-.09,0-.12a.19.19,0,0,0,.12-.07c.08-.13.15-.29,0-.42a.53.53,0,0,1-.1-.39s0,0,0,0a.38.38,0,0,0,0-.1.15.15,0,0,0,0-.09c-.06-.06,0-.13,0-.2a.38.38,0,0,0-.06-.39C2.38,2.4,2.18,2.15,2,1.9c-.06-.08-.06-.11,0-.18s.06,0,.08-.06l.17-.14a1.51,1.51,0,0,0,.09-.18.84.84,0,0,0,0-.2.19.19,0,0,1,0-.13c.06-.12.12-.23.17-.35a.2.2,0,0,0,0-.23.18.18,0,0,0-.2,0s-.07,0-.08,0A.68.68,0,0,0,1.94.3a.45.45,0,0,0-.39.09l-.11,0a.13.13,0,0,0-.1.16.13.13,0,0,1,0,.09A.43.43,0,0,0,1.28,1a3.59,3.59,0,0,0,.12.35c0,.08,0,.13-.06.14s0,0,0,0l-.13.14A.78.78,0,0,0,.93,2a1.17,1.17,0,0,0-.07.74,1.29,1.29,0,0,0,0,.19.17.17,0,0,1,0,.18.17.17,0,0,0,0,.24h0a.33.33,0,0,1,0,.14,2.24,2.24,0,0,1-.14.36,1.49,1.49,0,0,0-.19.77c0,.17,0,.34,0,.51a2,2,0,0,1-.05.26c0,.16,0,.2.13.27l.17.08,0,0a2.11,2.11,0,0,1,.05.35A2.41,2.41,0,0,1,.77,7l-.06.27a.21.21,0,0,0,0,.08.53.53,0,0,1,0,.12,2.35,2.35,0,0,0,0,.26v.13a4,4,0,0,1,0,1A.9.9,0,0,1,.7,9a1.45,1.45,0,0,0-.09.22c0,.07,0,.11.08.13l.24,0c.18,0,.21,0,.17-.2a1.1,1.1,0,0,1,0-.26c0-.11,0-.23,0-.34s0-.09,0-.12l.06-.31.05-.13c0-.18.09-.37.13-.55s0-.07.08-.07.08,0,.09.05,0,.13,0,.19.06.3.1.44Z"/></g></svg>