<?xml version="1.0" encoding="utf-8"?>
<!-- Generator: Adobe Illustrator 26.0.1, SVG Export Plug-In . SVG Version: 6.00 Build 0)  -->
<svg version="1.1" id="Capa_1" xmlns="http://www.w3.org/2000/svg" xmlns:xlink="http://www.w3.org/1999/xlink" x="0px" y="0px"
	 viewBox="0 0 1370.7 395.1" style="enable-background:new 0 0 1370.7 395.1;" xml:space="preserve">
<style type="text/css">
	.st0{fill:#5C554A;}
	.st1{fill:#7A7063;}
	.st2{fill:#3C3832;}
	.st3{fill:none;stroke:#4D4D4D;stroke-miterlimit:10;}
	.st4{fill:none;stroke:#4D4D4D;stroke-miterlimit:10;stroke-dasharray:6.2229,6.2229;}
	.st5{fill:none;stroke:#4D4D4D;stroke-miterlimit:10;stroke-dasharray:5.9593,5.9593;}
	.st6{fill:none;stroke:#4D4D4D;stroke-miterlimit:10;stroke-dasharray:6;}
</style>
<path class="st0" d="M262.1,319.6l21.6-17.7c0.8-0.6,1.7-1.1,2.6-1.3c3.6-0.8,12.7-3,16.7-6.3c4.6-3.8,34.4-28,38.9-31.6
	c0.4-0.3,0.8-0.6,1.2-0.8l31-14.7c0.8-0.4,1.7-0.6,2.7-0.6h10.8c1.2,0,2.3-0.3,3.3-0.9l30.5-19c0.6-0.4,1.3-0.7,2-0.8l22.1-4.6
	c0.5-0.1,0.9-0.3,1.4-0.5l24.6-11.6c1.6-0.8,2.8-2.2,3.3-3.9c0.7-2.4,1.9-5.6,3.5-5.6c2,0,14.1-8.4,18.3-11.3
	c0.9-0.7,1.7-1.6,2.1-2.6l3.2-7.6c0.6-1.5,1.9-2.7,3.4-3.3l35.6-14.4c0.4-0.2,0.9-0.4,1.3-0.7l24.9-17.7l21.4-15.3
	c1.1-0.8,2.3-1.2,3.6-1.2h7c2.5,0,4.8-1.5,5.7-3.8l6.3-15.2c0.2-0.5,0.4-0.9,0.7-1.3l10.4-14.1c1.8-2.5,5.1-3.2,7.9-1.8
	c7.3,3.8,20.9,11.1,23.3,14c1.5,1.9,5.3,2.9,9,3.5c3.7,0.6,7-2.3,7.1-6c0.1-3.1,6.2-6.5,6.2-6.5c8.4-0.7,28.2,8.8,33.9,11.6
	c1,0.5,2.1,0.7,3.3,0.6l18.1-1.4c0.5,0,1,0,1.5,0.1c3,0.5,14.5,2.3,17.4,2.3c2.6,0,17.5,2.6,23.6,3.6c1.7,0.3,3.5-0.1,4.8-1.2
	c4.6-3.5,15.6-11.5,20.1-11.5c5.8,0,22.2-11.5,22.2-11.5l13.2-9.6c1-0.7,2.3-1.2,3.6-1.2c5.4-0.1,19.9,0.1,21.9,4.2
	c2.5,4.9,14.8,18.1,17.3,28.8s13.2,18.9,13.2,18.9l21.1,18c0.7,0.6,1.5,1,2.4,1.3l9,2.4c1.3,0.3,2.4,1.1,3.2,2.1l5.3,6.4
	c0.6,0.7,1.4,1.3,2.2,1.7c2.7,1.2,8.5,3.3,11,0.2c2.9-3.7,15.1-7.3,17.6-8.1c0.3-0.1,0.6-0.2,1-0.2l12-1.5c0.4-0.1,0.9-0.1,1.3,0
	c2.8,0.3,12.9,1.6,15.8,6.5c3.1,5.5,26.3,31.7,28.6,34.3c0.1,0.1,0.2,0.3,0.4,0.5l10.1,13.9c1.7,2.3,4.8,3.2,7.4,2.1l3.6-1.5
	c1.2-0.5,2.1-1.3,2.8-2.3c2.9-4.4,11.1-16.7,13.8-17.3c3-0.7,10,4.6,11.3,5.6c0.2,0.1,0.3,0.2,0.5,0.4c1.7,1,10,5.9,13.7,1.5
	c3-3.6,9.4-4.6,12.7-4.8c1.3-0.1,2.6,0.2,3.7,0.9l12.8,7.8c0.2,0.2,0.5,0.3,0.7,0.5l8.7,7.2l10.9,8.2c1.4,1.1,3.2,1.5,4.9,1.1l2-0.4
	c2.2-0.4,4.4,0.3,5.8,1.9l0.9,1c2.3,2.5,6.2,2.8,8.7,0.5l7.4-6.6c1.7-1.5,4.1-2,6.3-1.2l31.1,11.5c2,0.7,3.4,2.4,3.9,4.4
	c1,4.3,3.4,12,8.4,18.2c6.9,8.4,65.1,36.6,73.8,40.8c0.7,0.3,1.4,0.8,1.9,1.4l28.2,31.1c1.4,1.5,1.9,3.6,1.4,5.6l-2.2,9.3
	c-0.7,2.8-3.2,4.8-6,4.8H259.9c-5.5,0-8.3-6.5-4.5-10.5l6.2-6.5C261.7,320,261.9,319.8,262.1,319.6z"/>
<path class="st1" d="M205.8,290.7l63-47l22.4-4.3l53.4-51.2l38.4-14.9l21.4-4.8c0,0,64.1-9.4,76.9-32.9c0,0,50.7-11.9,56.6-11.9
	c5.9,0,38.4,4.8,41.6,5.9c3.2,1.1,20.3,4.4,23.5,4.8c22.1,2.7,21.9-0.5,21.9-0.5s10.1-4.3,11.7-3.2c1.6,1.1,12.8,5.9,12.8,5.9
	l46.4,19.2l21.9,4.3l57.3,17.7c0,0,61,38,67.4,55.1s61.9,53.8,61.9,53.8l31.5,49.4L169,338.2L205.8,290.7z"/>
<path class="st2" d="M135.5,314l30.3-19.4l6.9-1l5.9-7.7l2.8-2.2h5.5l24.2-17.6l3.7-2.5l5.6-5.5l6.6-1.5l4.9-1l6.9,2.5h6.5l6.3,3.5
	l3.3,0.7l4.5,0.5l17.7-8.5l6.7-4.6h7.9l7.9-3.8h8.3l13.8,5.7l24.4,22.6l4.7,0.5l24.4,22.6c0,0,8.7,8.4,10.2,13.7
	c0.5,1.7,16.3,10.5,19.1,10.9c4.8,0.7,6.4,16.3,6.4,16.3l-48.4-0.1l0,0H215.6l-90.5,0.3l0,0l3.9-15.9L135.5,314z"/>
<g>
	<g>
		<line class="st3" x1="146.3" y1="244.7" x2="149.3" y2="244.7"/>
		<line class="st4" x1="155.5" y1="244.7" x2="301.8" y2="244.7"/>
		<line class="st3" x1="304.9" y1="244.7" x2="307.9" y2="244.7"/>
	</g>
</g>
<g>
	<g>
		<line class="st3" x1="152.8" y1="122.1" x2="155.8" y2="122.1"/>
		<line class="st5" x1="161.8" y1="122.1" x2="611.7" y2="122.1"/>
		<line class="st3" x1="614.7" y1="122.1" x2="617.7" y2="122.1"/>
	</g>
</g>
<g>
	<g>
		<path d="M40.1,125.5v-1.2l4.2-4.7c0.5-0.6,0.9-1,1.2-1.4c0.3-0.4,0.5-0.8,0.6-1.1s0.2-0.7,0.2-1c0-0.6-0.2-1.2-0.6-1.6
			c-0.4-0.4-0.9-0.7-1.7-0.7c-0.8,0-1.3,0.2-1.8,0.7s-0.6,1.1-0.6,1.9H40l0-0.1c0-0.7,0.1-1.4,0.5-2c0.3-0.6,0.8-1.1,1.4-1.4
			c0.6-0.3,1.4-0.5,2.2-0.5c0.8,0,1.5,0.2,2.1,0.5c0.6,0.3,1,0.7,1.3,1.3s0.5,1.1,0.5,1.8c0,0.5-0.1,0.9-0.3,1.4s-0.5,0.9-0.8,1.4
			s-0.8,1-1.3,1.5l-3.4,3.7l0,0h4.5l0.1-1.5h1.5v2.8H40.1z"/>
		<path d="M54.1,125.5v-1.1l1.4-0.2v-1.6h-5.7v-1l5.6-8.9h1.8v8.5H59v1.4h-1.8v1.6l1.4,0.2v1.1H54.1z M51.6,121.2h3.9v-6l-0.1,0
			l-0.2,0.5L51.6,121.2z"/>
		<path d="M64.8,125.7c-1.3,0-2.2-0.4-3-1.3s-1.1-2.1-1.1-3.8v-3c0-1.6,0.4-2.9,1.1-3.8c0.7-0.9,1.7-1.3,3-1.3c1.3,0,2.3,0.4,3,1.3
			c0.7,0.9,1.1,2.1,1.1,3.8v3c0,1.6-0.4,2.9-1.1,3.8C67.1,125.2,66.1,125.7,64.8,125.7z M64.8,124.3c0.8,0,1.3-0.3,1.7-0.8
			s0.6-1.4,0.6-2.5v-3.8c0-1.1-0.2-1.9-0.6-2.5s-1-0.8-1.8-0.8c-0.8,0-1.3,0.3-1.7,0.8s-0.6,1.4-0.6,2.5v3.8c0,1.1,0.2,1.9,0.6,2.5
			C63.5,124,64,124.3,64.8,124.3z"/>
		<path d="M74.5,125.7c-0.7,0-1.4-0.1-1.9-0.4s-1-0.7-1.3-1.2c-0.3-0.5-0.5-1.2-0.5-1.9l0-0.1h1.6c0,0.7,0.2,1.2,0.6,1.6
			s0.9,0.6,1.6,0.6c0.7,0,1.3-0.3,1.7-0.8s0.6-1.2,0.6-2.1c0-0.8-0.2-1.5-0.6-2s-1-0.8-1.7-0.8c-0.7,0-1.2,0.1-1.5,0.3
			s-0.5,0.5-0.7,0.9l-1.4-0.1l0.7-7h6.8v2.5h-1.3l-0.2-1h-3.8l-0.4,3.6c0.2-0.1,0.4-0.3,0.6-0.4s0.4-0.2,0.7-0.3s0.5-0.1,0.8-0.1
			c0.8,0,1.5,0.2,2,0.5s1,0.8,1.3,1.5s0.5,1.4,0.5,2.3c0,0.9-0.2,1.6-0.5,2.2s-0.8,1.1-1.4,1.5C76.1,125.5,75.4,125.7,74.5,125.7z"
			/>
		<path d="M84.6,125.5v-1.1l1.4-0.2v-6.8l-1.4-0.2V116h3l0.1,1.2c0.3-0.5,0.7-0.8,1.2-1s1-0.4,1.7-0.4s1.2,0.1,1.6,0.4
			s0.8,0.7,1,1.3c0.3-0.5,0.7-1,1.2-1.3s1.1-0.5,1.7-0.5c1,0,1.7,0.3,2.3,1s0.8,1.7,0.8,3v4.3l1.4,0.2v1.1H96v-1.1l1.4-0.2v-4.4
			c0-0.9-0.2-1.6-0.5-2c-0.3-0.4-0.8-0.6-1.4-0.6c-0.6,0-1.1,0.2-1.5,0.6c-0.4,0.4-0.6,1-0.6,1.6v4.7l1.4,0.2v1.1h-4.6v-1.1l1.4-0.2
			v-4.4c0-0.9-0.2-1.5-0.5-2c-0.3-0.4-0.8-0.6-1.4-0.6c-0.5,0-1,0.1-1.3,0.3s-0.6,0.5-0.8,0.9v5.7l1.4,0.2v1.1H84.6z"/>
		<path d="M105.8,125.7c-0.6,0-1.2-0.1-1.8-0.2s-1.1-0.3-1.8-0.6l0-2.3h1.3l0.3,1.4c0.3,0.1,0.6,0.2,1,0.3c0.3,0.1,0.6,0.1,1,0.1
			c0.7,0,1.2-0.1,1.5-0.4s0.5-0.6,0.5-1c0-0.4-0.2-0.7-0.5-1c-0.3-0.3-0.9-0.5-1.7-0.7c-1.1-0.3-2-0.6-2.5-1.1
			c-0.5-0.4-0.8-1-0.8-1.8c0-0.5,0.1-1,0.4-1.4s0.7-0.7,1.2-1s1.2-0.4,1.9-0.4c0.7,0,1.3,0.1,1.9,0.2s1,0.4,1.3,0.7l0.1,2.2h-1.3
			l-0.3-1.3c-0.2-0.2-0.4-0.3-0.7-0.4s-0.6-0.1-1-0.1c-0.5,0-1,0.1-1.3,0.4s-0.5,0.6-0.5,0.9c0,0.2,0,0.4,0.1,0.6s0.3,0.3,0.6,0.4
			c0.3,0.1,0.7,0.3,1.2,0.4c1.3,0.3,2.2,0.7,2.8,1.2s0.8,1.1,0.8,1.8c0,0.8-0.3,1.5-0.9,2C108,125.4,107.1,125.7,105.8,125.7z"/>
		<path d="M111.5,125.5v-1.8h1.7v1.8H111.5z"/>
		<path d="M115.2,125.5v-1.1l1.4-0.2v-6.8l-1.4-0.2V116h3l0.1,1.4c0.3-0.5,0.7-0.9,1.2-1.2s1-0.4,1.6-0.4c1,0,1.8,0.3,2.4,0.9
			c0.6,0.6,0.8,1.5,0.8,2.8v4.6l1.4,0.2v1.1h-4.6v-1.1l1.4-0.2v-4.6c0-0.8-0.2-1.4-0.5-1.8s-0.8-0.5-1.5-0.5c-0.5,0-0.9,0.1-1.3,0.4
			s-0.7,0.6-0.9,1v5.6l1.4,0.2v1.1H115.2z"/>
		<path d="M127.7,125.5v-1.8h1.7v1.8H127.7z"/>
		<path d="M131.4,125.5v-1.1l1.4-0.2v-6.8l-1.4-0.2V116h3l0.1,1.2c0.3-0.5,0.7-0.8,1.2-1s1-0.4,1.7-0.4s1.2,0.1,1.6,0.4
			s0.8,0.7,1,1.3c0.3-0.5,0.7-1,1.2-1.3s1.1-0.5,1.7-0.5c1,0,1.7,0.3,2.3,1s0.8,1.7,0.8,3v4.3l1.4,0.2v1.1h-4.6v-1.1l1.4-0.2v-4.4
			c0-0.9-0.2-1.6-0.5-2c-0.3-0.4-0.8-0.6-1.4-0.6c-0.6,0-1.1,0.2-1.5,0.6c-0.4,0.4-0.6,1-0.6,1.6v4.7l1.4,0.2v1.1h-4.6v-1.1l1.4-0.2
			v-4.4c0-0.9-0.2-1.5-0.5-2c-0.3-0.4-0.8-0.6-1.4-0.6c-0.5,0-1,0.1-1.3,0.3s-0.6,0.5-0.8,0.9v5.7l1.4,0.2v1.1H131.4z"/>
	</g>
</g>
<g>
	<g>
		<path d="M43.8,248.3c-0.4,0-0.9,0-1.4-0.1c-0.5-0.1-0.9-0.2-1.3-0.4l0.3-1.3c0.4,0.2,0.7,0.3,1.1,0.4c0.4,0.1,0.8,0.1,1.3,0.1
			c0.8,0,1.5-0.3,2-1c0.5-0.6,0.7-1.7,0.8-3.1l0,0c-0.2,0.4-0.6,0.7-1,0.9s-0.9,0.3-1.4,0.3c-0.8,0-1.5-0.2-2.2-0.5
			s-1.1-0.8-1.4-1.5s-0.5-1.5-0.5-2.4c0-0.9,0.2-1.7,0.5-2.4s0.8-1.2,1.4-1.6s1.3-0.6,2-0.6c0.9,0,1.7,0.2,2.3,0.6
			c0.6,0.4,1.1,0.9,1.5,1.7s0.5,1.6,0.5,2.7v2.3c0,1.3-0.2,2.4-0.6,3.3s-0.9,1.5-1.6,2S44.7,248.3,43.8,248.3z M44.1,242.7
			c0.6,0,1.2-0.1,1.6-0.4s0.7-0.6,0.9-1.1v-1.4c0-1.1-0.2-2-0.6-2.6s-1.1-0.9-1.9-0.9c-0.4,0-0.8,0.1-1.2,0.4
			c-0.3,0.3-0.6,0.6-0.8,1.1s-0.3,1-0.3,1.7c0,0.6,0.1,1.2,0.3,1.6c0.2,0.5,0.4,0.8,0.8,1.1S43.6,242.7,44.1,242.7z"/>
		<path d="M54.8,248.3c-0.8,0-1.6-0.2-2.2-0.6s-1.2-1-1.5-1.8s-0.6-1.7-0.6-2.8v-1.7c0-1.4,0.2-2.5,0.6-3.4c0.4-0.9,1-1.6,1.7-2.1
			s1.5-0.7,2.5-0.7c0.4,0,0.9,0,1.3,0.1s0.8,0.2,1.1,0.4l-0.3,1.3c-0.3-0.1-0.6-0.2-0.9-0.3c-0.3-0.1-0.7-0.1-1.1-0.1
			c-0.9,0-1.6,0.3-2.1,1c-0.5,0.7-0.8,1.7-0.8,3.1l0,0c0.3-0.3,0.7-0.5,1.2-0.7s1-0.3,1.5-0.3c0.8,0,1.4,0.2,2,0.5
			c0.6,0.4,1,0.9,1.3,1.5s0.5,1.4,0.5,2.2c0,0.9-0.2,1.7-0.5,2.3s-0.8,1.2-1.4,1.6S55.6,248.3,54.8,248.3z M54.8,246.9
			c0.5,0,0.9-0.1,1.2-0.4s0.6-0.7,0.8-1.1s0.3-1,0.3-1.6c0-0.8-0.2-1.5-0.6-2.1s-1-0.8-1.8-0.8c-0.4,0-0.7,0.1-1.1,0.2
			c-0.3,0.1-0.6,0.3-0.8,0.5c-0.2,0.2-0.4,0.4-0.6,0.7v1c0,1.2,0.2,2.1,0.7,2.7S54.1,246.9,54.8,246.9z"/>
		<path d="M64.1,248.3c-0.7,0-1.4-0.1-1.9-0.4s-1-0.7-1.3-1.2c-0.3-0.5-0.5-1.2-0.5-1.9l0-0.1h1.6c0,0.7,0.2,1.2,0.6,1.6
			s0.9,0.6,1.6,0.6c0.7,0,1.3-0.3,1.7-0.8s0.6-1.2,0.6-2.1c0-0.8-0.2-1.5-0.6-2s-1-0.8-1.7-0.8c-0.7,0-1.2,0.1-1.5,0.3
			s-0.5,0.5-0.7,0.9l-1.4-0.1l0.7-7H68v2.5h-1.3l-0.2-1h-3.8l-0.4,3.6c0.2-0.1,0.4-0.3,0.6-0.4s0.4-0.2,0.7-0.3s0.5-0.1,0.8-0.1
			c0.8,0,1.5,0.2,2,0.5s1,0.8,1.3,1.5s0.5,1.4,0.5,2.3c0,0.9-0.2,1.6-0.5,2.2s-0.8,1.1-1.4,1.5C65.7,248.1,65,248.3,64.1,248.3z"/>
		<path d="M74.1,248.1V247l1.4-0.2v-6.8l-1.4-0.2v-1.1h3l0.1,1.2c0.3-0.5,0.7-0.8,1.2-1s1-0.4,1.7-0.4s1.2,0.1,1.6,0.4
			s0.8,0.7,1,1.3c0.3-0.5,0.7-1,1.2-1.3s1.1-0.5,1.7-0.5c1,0,1.7,0.3,2.3,1s0.8,1.7,0.8,3v4.3l1.4,0.2v1.1h-4.6V247l1.4-0.2v-4.4
			c0-0.9-0.2-1.6-0.5-2c-0.3-0.4-0.8-0.6-1.4-0.6c-0.6,0-1.1,0.2-1.5,0.6c-0.4,0.4-0.6,1-0.6,1.6v4.7l1.4,0.2v1.1h-4.6V247l1.4-0.2
			v-4.4c0-0.9-0.2-1.5-0.5-2c-0.3-0.4-0.8-0.6-1.4-0.6c-0.5,0-1,0.1-1.3,0.3s-0.6,0.5-0.8,0.9v5.7l1.4,0.2v1.1H74.1z"/>
		<path d="M95.3,248.3c-0.6,0-1.2-0.1-1.8-0.2s-1.1-0.3-1.8-0.6l0-2.3h1.3l0.3,1.4c0.3,0.1,0.6,0.2,1,0.3c0.3,0.1,0.6,0.1,1,0.1
			c0.7,0,1.2-0.1,1.5-0.4s0.5-0.6,0.5-1c0-0.4-0.2-0.7-0.5-1c-0.3-0.3-0.9-0.5-1.7-0.7c-1.1-0.3-2-0.6-2.5-1.1
			c-0.5-0.4-0.8-1-0.8-1.8c0-0.5,0.1-1,0.4-1.4s0.7-0.7,1.2-1s1.2-0.4,1.9-0.4c0.7,0,1.3,0.1,1.9,0.2s1,0.4,1.3,0.7l0.1,2.2h-1.3
			l-0.3-1.3c-0.2-0.2-0.4-0.3-0.7-0.4s-0.6-0.1-1-0.1c-0.5,0-1,0.1-1.3,0.4s-0.5,0.6-0.5,0.9c0,0.2,0,0.4,0.1,0.6s0.3,0.3,0.6,0.4
			c0.3,0.1,0.7,0.3,1.2,0.4c1.3,0.3,2.2,0.7,2.8,1.2s0.8,1.1,0.8,1.8c0,0.8-0.3,1.5-0.9,2C97.5,248,96.6,248.3,95.3,248.3z"/>
		<path d="M101.1,248.1v-1.8h1.7v1.8H101.1z"/>
		<path d="M104.8,248.1V247l1.4-0.2v-6.8l-1.4-0.2v-1.1h3l0.1,1.4c0.3-0.5,0.7-0.9,1.2-1.2s1-0.4,1.6-0.4c1,0,1.8,0.3,2.4,0.9
			c0.6,0.6,0.8,1.5,0.8,2.8v4.6l1.4,0.2v1.1h-4.6V247l1.4-0.2v-4.6c0-0.8-0.2-1.4-0.5-1.8s-0.8-0.5-1.5-0.5c-0.5,0-0.9,0.1-1.3,0.4
			s-0.7,0.6-0.9,1v5.6l1.4,0.2v1.1H104.8z"/>
		<path d="M117.2,248.1v-1.8h1.7v1.8H117.2z"/>
		<path d="M120.9,248.1V247l1.4-0.2v-6.8l-1.4-0.2v-1.1h3l0.1,1.2c0.3-0.5,0.7-0.8,1.2-1s1-0.4,1.7-0.4s1.2,0.1,1.6,0.4
			s0.8,0.7,1,1.3c0.3-0.5,0.7-1,1.2-1.3s1.1-0.5,1.7-0.5c1,0,1.7,0.3,2.3,1s0.8,1.7,0.8,3v4.3l1.4,0.2v1.1h-4.6V247l1.4-0.2v-4.4
			c0-0.9-0.2-1.6-0.5-2c-0.3-0.4-0.8-0.6-1.4-0.6c-0.6,0-1.1,0.2-1.5,0.6c-0.4,0.4-0.6,1-0.6,1.6v4.7l1.4,0.2v1.1h-4.6V247l1.4-0.2
			v-4.4c0-0.9-0.2-1.5-0.5-2c-0.3-0.4-0.8-0.6-1.4-0.6c-0.5,0-1,0.1-1.3,0.3s-0.6,0.5-0.8,0.9v5.7l1.4,0.2v1.1H120.9z"/>
	</g>
</g>
<g>
	<g>
		<path d="M180.9,57.4l-5-13.5l-1.2-0.2v-1.3h4.7v1.3l-1.4,0.2l3.3,9.5l0.3,1.2h0.1l0.4-1.2l3.5-9.5l-1.5-0.2v-1.3h4.7v1.3l-1.2,0.2
			l-5,13.5H180.9z"/>
		<path d="M195.3,57.6c-1,0-1.9-0.2-2.7-0.7c-0.7-0.5-1.3-1.1-1.7-2c-0.4-0.9-0.6-1.8-0.6-2.9v-0.2c0-1.1,0.2-2.1,0.6-2.9
			c0.4-0.9,1-1.5,1.7-2c0.7-0.5,1.6-0.7,2.6-0.7c1,0,1.9,0.2,2.7,0.7c0.7,0.5,1.3,1.2,1.7,2s0.6,1.8,0.6,2.9v0.2
			c0,1.1-0.2,2.1-0.6,2.9c-0.4,0.9-1,1.5-1.7,2S196.3,57.6,195.3,57.6z M195.3,56c0.6,0,1.2-0.2,1.6-0.5c0.4-0.4,0.8-0.8,1-1.4
			c0.2-0.6,0.3-1.3,0.3-2.1v-0.2c0-0.8-0.1-1.5-0.3-2.1c-0.2-0.6-0.6-1.1-1-1.4c-0.4-0.4-1-0.5-1.6-0.5c-0.6,0-1.2,0.2-1.6,0.5
			c-0.4,0.4-0.8,0.8-1,1.4c-0.2,0.6-0.3,1.3-0.3,2.1v0.2c0,0.8,0.1,1.5,0.3,2.1c0.2,0.6,0.5,1.1,1,1.4C194.1,55.8,194.6,56,195.3,56
			z"/>
		<path d="M201.7,57.4v-1.3l1.7-0.3V42.9l-1.7-0.3v-1.3h3.7v14.4l1.7,0.3v1.3H201.7z"/>
		<path d="M213.5,57.6c-1,0-1.9-0.2-2.6-0.7c-0.7-0.5-1.3-1.1-1.7-2s-0.6-1.8-0.6-2.9v-0.4c0-1.1,0.2-2,0.6-2.8s1-1.5,1.7-2
			c0.7-0.5,1.6-0.7,2.7-0.7c0.9,0,1.7,0.1,2.4,0.4c0.7,0.3,1.2,0.7,1.7,1.2l0.1,2.7H216l-0.3-1.9c-0.2-0.2-0.5-0.4-0.9-0.6
			s-0.8-0.2-1.2-0.2c-0.6,0-1.1,0.2-1.6,0.5c-0.5,0.4-0.8,0.8-1.1,1.4s-0.4,1.3-0.4,2V52c0,0.8,0.1,1.5,0.4,2.1
			c0.2,0.6,0.6,1.1,1,1.4c0.4,0.3,1,0.5,1.6,0.5c0.7,0,1.3-0.2,1.7-0.6s0.7-0.9,0.8-1.5h1.8l0,0.1c0,0.6-0.2,1.2-0.6,1.8
			c-0.3,0.6-0.8,1-1.5,1.3C215.2,57.4,214.4,57.6,213.5,57.6z"/>
		<path d="M223,57.6c-1.2,0-2-0.3-2.6-0.8c-0.6-0.6-0.9-1.4-0.9-2.4c0-0.7,0.2-1.3,0.6-1.8c0.4-0.5,0.9-0.9,1.7-1.2
			c0.7-0.3,1.6-0.4,2.6-0.4h2v-1.1c0-0.7-0.2-1.2-0.6-1.6s-1-0.6-1.7-0.6c-0.5,0-0.9,0.1-1.2,0.2c-0.3,0.1-0.7,0.3-0.9,0.5l-0.2,1.5
			h-1.6v-2.5c0.5-0.4,1.1-0.7,1.7-0.9c0.7-0.2,1.4-0.3,2.2-0.3c1.3,0,2.4,0.3,3.2,1s1.1,1.6,1.1,2.8v5.3c0,0.1,0,0.3,0,0.4
			c0,0.1,0,0.3,0,0.4l1.1,0.1v1.3h-2.9c-0.1-0.3-0.1-0.6-0.1-0.8c0-0.2-0.1-0.5-0.1-0.7c-0.4,0.5-0.9,0.9-1.5,1.2
			C224.3,57.4,223.7,57.6,223,57.6z M223.3,55.9c0.7,0,1.3-0.2,1.8-0.5c0.6-0.3,1-0.7,1.2-1.2v-2h-2.1c-0.9,0-1.6,0.2-2.1,0.7
			c-0.5,0.4-0.7,0.9-0.7,1.5c0,0.5,0.2,0.9,0.5,1.1C222.3,55.7,222.7,55.9,223.3,55.9z M222.9,44.1l1.9-2.8h2.4l0,0.1l-2.8,2.7
			H222.9L222.9,44.1z"/>
		<path d="M231,57.4v-1.3l1.7-0.3v-7.9l-1.7-0.3v-1.3h3.5l0.1,1.7c0.4-0.6,0.8-1,1.4-1.4c0.6-0.3,1.2-0.5,1.9-0.5
			c1.2,0,2.1,0.4,2.8,1.1c0.7,0.7,1,1.8,1,3.2v5.4l1.7,0.3v1.3H238v-1.3l1.7-0.3v-5.4c0-1-0.2-1.7-0.6-2.1c-0.4-0.4-1-0.6-1.8-0.6
			c-0.6,0-1.1,0.1-1.5,0.4s-0.8,0.7-1.1,1.1v6.5l1.7,0.3v1.3H231z"/>
		<path d="M256.9,57.6c-1.5,0-2.7-0.3-3.7-1c-1-0.7-1.8-1.6-2.3-2.7c-0.5-1.1-0.8-2.4-0.8-3.9v-0.2c0-1.5,0.3-2.8,0.8-3.9
			c0.5-1.1,1.3-2,2.3-2.7s2.2-1,3.5-1c1,0,1.8,0.2,2.6,0.5s1.5,0.7,2,1.1V47h-1.6l-0.2-2.4c-0.2-0.2-0.5-0.3-0.8-0.4
			c-0.3-0.1-0.6-0.2-0.9-0.3c-0.3-0.1-0.7-0.1-1.1-0.1c-1,0-1.8,0.3-2.5,0.8c-0.7,0.5-1.2,1.2-1.5,2.1s-0.5,1.9-0.5,3.1V50
			c0,1.2,0.2,2.3,0.6,3.2c0.4,0.9,0.9,1.6,1.6,2c0.7,0.5,1.6,0.7,2.6,0.7c0.5,0,0.9-0.1,1.4-0.2s0.8-0.3,1.1-0.5l0.2-2.1h1.6v3.2
			c-0.6,0.3-1.2,0.6-2,0.8C258.5,57.5,257.7,57.6,256.9,57.6z"/>
		<path d="M263,57.4v-1.3l1.7-0.3V42.9l-1.7-0.3v-1.3h3.7v6.4c0.4-0.5,0.9-0.9,1.4-1.2c0.6-0.3,1.2-0.4,1.8-0.4
			c1.2,0,2.1,0.4,2.8,1.1s1,1.8,1,3.3v5.4l1.7,0.3v1.3H270v-1.3l1.7-0.3v-5.4c0-0.9-0.2-1.6-0.6-2c-0.4-0.4-1-0.7-1.8-0.7
			c-0.6,0-1.1,0.1-1.5,0.4c-0.5,0.3-0.8,0.6-1.1,1.1v6.6l1.7,0.3v1.3H263z"/>
		<path d="M280.3,57.6c-1.2,0-2-0.3-2.6-0.8c-0.6-0.6-0.9-1.4-0.9-2.4c0-0.7,0.2-1.3,0.6-1.8c0.4-0.5,0.9-0.9,1.7-1.2
			c0.7-0.3,1.6-0.4,2.6-0.4h2v-1.1c0-0.7-0.2-1.2-0.6-1.6c-0.4-0.4-1-0.6-1.7-0.6c-0.5,0-0.9,0.1-1.2,0.2c-0.3,0.1-0.7,0.3-0.9,0.5
			l-0.2,1.5h-1.6v-2.5c0.5-0.4,1.1-0.7,1.7-0.9c0.7-0.2,1.4-0.3,2.2-0.3c1.3,0,2.4,0.3,3.2,1s1.1,1.6,1.1,2.8v5.3c0,0.1,0,0.3,0,0.4
			c0,0.1,0,0.3,0,0.4l1.1,0.1v1.3h-2.9c-0.1-0.3-0.1-0.6-0.1-0.8c0-0.2-0.1-0.5-0.1-0.7c-0.4,0.5-0.9,0.9-1.5,1.2
			C281.6,57.4,281,57.6,280.3,57.6z M280.6,55.9c0.7,0,1.3-0.2,1.8-0.5c0.6-0.3,0.9-0.7,1.2-1.2v-2h-2.1c-0.9,0-1.6,0.2-2.1,0.7
			c-0.5,0.4-0.7,0.9-0.7,1.5c0,0.5,0.2,0.9,0.5,1.1C279.6,55.7,280,55.9,280.6,55.9z"/>
		<path d="M288.3,57.4v-1.3l1.7-0.3v-7.9l-1.7-0.3v-1.3h3.7v9.5l1.7,0.3v1.3H288.3z M289.9,43.5v-2.2h2.1v2.2H289.9z"/>
		<path d="M299,57.5c-0.8,0-1.5-0.2-2-0.7c-0.5-0.5-0.7-1.3-0.7-2.3v-6.7h-1.8v-1.5h1.8v-2.7h2v2.7h2.4v1.5h-2.4v6.7
			c0,0.5,0.1,0.9,0.3,1.2c0.2,0.3,0.5,0.4,0.9,0.4c0.2,0,0.5,0,0.8-0.1c0.3,0,0.5-0.1,0.7-0.1l0.3,1.3c-0.3,0.1-0.7,0.2-1.1,0.2
			C299.7,57.5,299.3,57.5,299,57.5z"/>
		<path d="M307.6,57.6c-1,0-1.9-0.2-2.7-0.7c-0.8-0.5-1.3-1.1-1.8-2c-0.4-0.8-0.6-1.8-0.6-2.9v-0.5c0-1.1,0.2-2,0.7-2.8
			c0.4-0.8,1-1.5,1.7-2c0.7-0.5,1.5-0.7,2.4-0.7c1,0,1.8,0.2,2.5,0.6c0.7,0.4,1.2,1,1.5,1.7c0.3,0.7,0.5,1.6,0.5,2.6v1.3h-7.2l0,0.1
			c0,0.7,0.1,1.3,0.4,1.9c0.2,0.6,0.6,1,1,1.3c0.4,0.3,1,0.5,1.6,0.5c0.7,0,1.3-0.1,1.8-0.3c0.5-0.2,1-0.5,1.3-0.8l0.8,1.3
			c-0.4,0.4-0.9,0.7-1.6,1C309.3,57.4,308.5,57.6,307.6,57.6z M304.7,50.7h5.1v-0.3c0-0.5-0.1-1-0.3-1.4c-0.2-0.4-0.5-0.8-0.8-1
			c-0.4-0.2-0.8-0.4-1.4-0.4c-0.5,0-0.9,0.1-1.2,0.4c-0.4,0.3-0.7,0.6-0.9,1.1S304.7,50.1,304.7,50.7L304.7,50.7z M306,44.1l1.9-2.8
			h2.4l0,0.1l-2.8,2.7H306L306,44.1z"/>
		<path d="M313.4,57.4v-1.3l1.7-0.3v-7.9l-1.7-0.3v-1.3h3.5l0.1,1.7c0.4-0.6,0.8-1,1.4-1.4c0.6-0.3,1.2-0.5,1.9-0.5
			c1.2,0,2.1,0.4,2.8,1.1c0.7,0.7,1,1.8,1,3.2v5.4l1.7,0.3v1.3h-5.4v-1.3l1.7-0.3v-5.4c0-1-0.2-1.7-0.6-2.1c-0.4-0.4-1-0.6-1.8-0.6
			c-0.6,0-1.1,0.1-1.5,0.4c-0.4,0.3-0.8,0.7-1.1,1.1v6.5l1.7,0.3v1.3H313.4z"/>
	</g>
</g>
<g>
	<g>
		<path d="M237.9,367.3v-1.1l2-0.2v-9.6l-2,0v-1.1l3.7-0.8V366l2,0.2v1.1H237.9z"/>
		<path d="M249.2,367.5c-0.8,0-1.6-0.1-2.2-0.4c-0.6-0.3-1.1-0.7-1.5-1.2s-0.5-1.2-0.5-2c0-0.7,0.2-1.4,0.7-1.9s1-1,1.8-1.2
			c-0.6-0.2-1.1-0.6-1.5-1.1c-0.4-0.5-0.5-1.1-0.5-1.8c0-0.8,0.2-1.4,0.5-1.9c0.3-0.5,0.8-0.9,1.3-1.2s1.2-0.4,2-0.4
			c0.8,0,1.4,0.1,2,0.4s1,0.7,1.3,1.2c0.3,0.5,0.5,1.2,0.5,1.9c0,0.7-0.2,1.3-0.6,1.8c-0.4,0.5-0.9,0.9-1.5,1.1
			c0.7,0.3,1.3,0.7,1.8,1.2s0.7,1.2,0.7,1.9c0,0.8-0.2,1.5-0.5,2s-0.8,1-1.5,1.2C250.8,367.4,250.1,367.5,249.2,367.5z M249.2,366.2
			c0.5,0,0.9-0.1,1.3-0.3s0.7-0.5,0.9-0.8s0.3-0.8,0.3-1.2c0-0.5-0.1-0.9-0.3-1.2s-0.5-0.6-0.9-0.9s-0.8-0.3-1.3-0.3
			s-0.9,0.1-1.3,0.3s-0.6,0.5-0.9,0.8c-0.2,0.4-0.3,0.8-0.3,1.3c0,0.7,0.2,1.3,0.7,1.7C247.9,366,248.5,366.2,249.2,366.2z
			 M249.2,360.1c0.4,0,0.8-0.1,1.1-0.3c0.3-0.2,0.6-0.4,0.7-0.8s0.3-0.7,0.3-1.1c0-0.4-0.1-0.8-0.3-1.1s-0.4-0.6-0.7-0.8
			c-0.3-0.2-0.7-0.3-1.1-0.3c-0.6,0-1.1,0.2-1.5,0.6c-0.4,0.4-0.6,0.9-0.6,1.6c0,0.7,0.2,1.2,0.6,1.6S248.6,360.1,249.2,360.1z"/>
		<path d="M255.4,370.1l-1-0.7c0.3-0.4,0.5-0.9,0.6-1.3s0.2-0.9,0.2-1.4v-1.3h1.7v1.3c0,0.6-0.1,1.2-0.4,1.8
			S255.9,369.7,255.4,370.1z"/>
		<path d="M262.3,367.5c-0.7,0-1.4-0.1-1.9-0.4s-1-0.7-1.3-1.2c-0.3-0.5-0.5-1.2-0.5-1.9l0-0.1h1.6c0,0.7,0.2,1.2,0.6,1.6
			s0.9,0.6,1.6,0.6c0.7,0,1.3-0.3,1.7-0.8s0.6-1.2,0.6-2.1c0-0.8-0.2-1.5-0.6-2s-1-0.8-1.7-0.8c-0.7,0-1.2,0.1-1.5,0.3
			s-0.5,0.5-0.7,0.9l-1.4-0.1l0.7-7h6.8v2.5H265l-0.2-1H261l-0.4,3.6c0.2-0.1,0.4-0.3,0.6-0.4s0.4-0.2,0.7-0.3s0.5-0.1,0.8-0.1
			c0.8,0,1.5,0.2,2,0.5s1,0.8,1.3,1.5s0.5,1.4,0.5,2.3c0,0.9-0.2,1.6-0.5,2.2s-0.8,1.1-1.4,1.5C264,367.3,263.2,367.5,262.3,367.5z"
			/>
		<path d="M272.3,367.3v-1.1l1.4-0.2v-11l-1.4-0.2v-1.1h3.2V366l1.4,0.2v1.1H272.3z M275.3,364.6l-0.6-1.4l4.1-4.1l0-0.1l-1-0.1
			v-1.1h4.1v1.1l-1.2,0.2L275.3,364.6z M278.4,367.3v-1.1l1-0.1l0,0l-2.8-3.6l0.9-1.4l3.8,4.9l1.4,0.2v1.1H278.4z"/>
		<path d="M283.7,367.3v-1.1l1.4-0.2v-6.8l-1.4-0.2v-1.1h3l0.1,1.2c0.3-0.5,0.7-0.8,1.2-1s1-0.4,1.7-0.4s1.2,0.1,1.6,0.4
			s0.8,0.7,1,1.3c0.3-0.5,0.7-1,1.2-1.3s1.1-0.5,1.7-0.5c1,0,1.7,0.3,2.3,1s0.8,1.7,0.8,3v4.3l1.4,0.2v1.1h-4.6v-1.1l1.4-0.2v-4.4
			c0-0.9-0.2-1.6-0.5-2c-0.3-0.4-0.8-0.6-1.4-0.6c-0.6,0-1.1,0.2-1.5,0.6c-0.4,0.4-0.6,1-0.6,1.6v4.7l1.4,0.2v1.1h-4.6v-1.1l1.4-0.2
			v-4.4c0-0.9-0.2-1.5-0.5-2c-0.3-0.4-0.8-0.6-1.4-0.6c-0.5,0-1,0.1-1.3,0.3s-0.6,0.5-0.8,0.9v5.7l1.4,0.2v1.1H283.7z"/>
	</g>
</g>
<line class="st6" x1="125.1" y1="347.5" x2="410.9" y2="347.5"/>
<line class="st3" x1="125.1" y1="351.7" x2="125.1" y2="339.8"/>
<line class="st3" x1="410.9" y1="351.7" x2="410.9" y2="339.8"/>
<g>
	<g>
		<path d="M40.1,79.6v-1.2l4.2-4.7c0.5-0.6,0.9-1,1.2-1.4s0.5-0.8,0.6-1.1s0.2-0.7,0.2-1c0-0.6-0.2-1.2-0.6-1.6S44.7,68,44,68
			c-0.8,0-1.3,0.2-1.8,0.7s-0.6,1.1-0.6,1.9H40l0-0.1c0-0.7,0.1-1.4,0.5-2s0.8-1.1,1.4-1.4s1.4-0.5,2.2-0.5c0.8,0,1.5,0.2,2.1,0.5
			s1,0.7,1.3,1.3s0.5,1.1,0.5,1.8c0,0.5-0.1,0.9-0.3,1.4s-0.5,0.9-0.8,1.4s-0.8,1-1.3,1.5l-3.4,3.7l0,0h4.5l0.1-1.5h1.5v2.8H40.1z"
			/>
		<path d="M54.2,79.8c-0.8,0-1.6-0.1-2.2-0.4s-1.1-0.7-1.5-1.2S50,77,50,76.2c0-0.7,0.2-1.4,0.7-1.9s1-1,1.8-1.2
			c-0.6-0.2-1.1-0.6-1.5-1.1s-0.5-1.1-0.5-1.8c0-0.8,0.2-1.4,0.5-1.9s0.8-0.9,1.3-1.2s1.2-0.4,2-0.4c0.8,0,1.4,0.1,2,0.4
			s1,0.7,1.3,1.2s0.5,1.2,0.5,1.9c0,0.7-0.2,1.3-0.6,1.8s-0.9,0.9-1.5,1.1c0.7,0.3,1.3,0.7,1.8,1.2s0.7,1.2,0.7,1.9
			c0,0.8-0.2,1.5-0.5,2s-0.8,1-1.5,1.2S55,79.8,54.2,79.8z M54.2,78.5c0.5,0,0.9-0.1,1.3-0.3s0.7-0.5,0.9-0.8s0.3-0.8,0.3-1.2
			c0-0.5-0.1-0.9-0.3-1.2s-0.5-0.6-0.9-0.9s-0.8-0.3-1.3-0.3s-0.9,0.1-1.3,0.3s-0.6,0.5-0.9,0.8s-0.3,0.8-0.3,1.3
			c0,0.7,0.2,1.3,0.7,1.7S53.5,78.5,54.2,78.5z M54.2,72.4c0.4,0,0.8-0.1,1.1-0.3s0.6-0.4,0.7-0.8s0.3-0.7,0.3-1.1
			c0-0.4-0.1-0.8-0.3-1.1s-0.4-0.6-0.7-0.8S54.6,68,54.2,68c-0.6,0-1.1,0.2-1.5,0.6s-0.6,0.9-0.6,1.6c0,0.7,0.2,1.2,0.6,1.6
			S53.6,72.4,54.2,72.4z"/>
		<path d="M64,79.6v-1.1l1.4-0.2v-1.6h-5.7v-1l5.6-8.9h1.8v8.5H69v1.4h-1.8v1.6l1.4,0.2v1.1H64z M61.6,75.3h3.9v-6l-0.1,0l-0.2,0.5
			L61.6,75.3z"/>
		<path d="M74.2,79.8c-0.7,0-1.4-0.1-1.9-0.4s-1-0.7-1.3-1.2s-0.5-1.2-0.5-1.9l0-0.1H72c0,0.7,0.2,1.2,0.6,1.6s0.9,0.6,1.6,0.6
			c0.7,0,1.3-0.3,1.7-0.8s0.6-1.2,0.6-2.1c0-0.8-0.2-1.5-0.6-2s-1-0.8-1.7-0.8c-0.7,0-1.2,0.1-1.5,0.3S72.2,73.6,72,74l-1.4-0.1
			l0.7-7h6.8v2.5h-1.3l-0.2-1h-3.8L72.4,72c0.2-0.1,0.4-0.3,0.6-0.4s0.4-0.2,0.7-0.3s0.5-0.1,0.8-0.1c0.8,0,1.5,0.2,2,0.5
			s1,0.8,1.3,1.5s0.5,1.4,0.5,2.3c0,0.9-0.2,1.6-0.5,2.2s-0.8,1.1-1.4,1.5S75.1,79.8,74.2,79.8z"/>
		<path d="M84.2,79.6v-1.1l1.4-0.2v-6.8l-1.4-0.2v-1.1h3l0.1,1.2c0.3-0.5,0.7-0.8,1.2-1s1-0.4,1.7-0.4s1.2,0.1,1.6,0.4
			s0.8,0.7,1,1.3c0.3-0.5,0.7-1,1.2-1.3s1.1-0.5,1.7-0.5c1,0,1.7,0.3,2.3,1s0.8,1.7,0.8,3v4.3l1.4,0.2v1.1h-4.6v-1.1l1.4-0.2v-4.4
			c0-0.9-0.2-1.6-0.5-2s-0.8-0.6-1.4-0.6c-0.6,0-1.1,0.2-1.5,0.6s-0.6,1-0.6,1.6v4.7l1.4,0.2v1.1H90v-1.1l1.4-0.2v-4.4
			c0-0.9-0.2-1.5-0.5-2s-0.8-0.6-1.4-0.6c-0.5,0-1,0.1-1.3,0.3s-0.6,0.5-0.8,0.9v5.7l1.4,0.2v1.1H84.2z"/>
		<path d="M105.5,79.8c-0.6,0-1.2-0.1-1.8-0.2s-1.1-0.3-1.8-0.6l0-2.3h1.3l0.3,1.4c0.3,0.1,0.6,0.2,1,0.3s0.6,0.1,1,0.1
			c0.7,0,1.2-0.1,1.5-0.4s0.5-0.6,0.5-1c0-0.4-0.2-0.7-0.5-1s-0.9-0.5-1.7-0.7c-1.1-0.3-2-0.6-2.5-1.1s-0.8-1-0.8-1.8
			c0-0.5,0.1-1,0.4-1.4s0.7-0.7,1.2-1s1.2-0.4,1.9-0.4c0.7,0,1.3,0.1,1.9,0.2s1,0.4,1.3,0.7l0.1,2.2h-1.3l-0.3-1.3
			c-0.2-0.2-0.4-0.3-0.7-0.4s-0.6-0.1-1-0.1c-0.5,0-1,0.1-1.3,0.4s-0.5,0.6-0.5,0.9c0,0.2,0,0.4,0.1,0.6s0.3,0.3,0.6,0.4
			s0.7,0.3,1.2,0.4c1.3,0.3,2.2,0.7,2.8,1.2s0.8,1.1,0.8,1.8c0,0.8-0.3,1.5-0.9,2S106.7,79.8,105.5,79.8z"/>
		<path d="M111.2,79.6v-1.8h1.7v1.8H111.2z"/>
		<path d="M114.9,79.6v-1.1l1.4-0.2v-6.8l-1.4-0.2v-1.1h3l0.1,1.4c0.3-0.5,0.7-0.9,1.2-1.2s1-0.4,1.6-0.4c1,0,1.8,0.3,2.4,0.9
			s0.8,1.5,0.8,2.8v4.6l1.4,0.2v1.1h-4.6v-1.1l1.4-0.2v-4.6c0-0.8-0.2-1.4-0.5-1.8s-0.8-0.5-1.5-0.5c-0.5,0-0.9,0.1-1.3,0.4
			s-0.7,0.6-0.9,1v5.6l1.4,0.2v1.1H114.9z"/>
		<path d="M127.3,79.6v-1.8h1.7v1.8H127.3z"/>
		<path d="M131.1,79.6v-1.1l1.4-0.2v-6.8l-1.4-0.2v-1.1h3l0.1,1.2c0.3-0.5,0.7-0.8,1.2-1s1-0.4,1.7-0.4s1.2,0.1,1.6,0.4
			s0.8,0.7,1,1.3c0.3-0.5,0.7-1,1.2-1.3s1.1-0.5,1.7-0.5c1,0,1.7,0.3,2.3,1s0.8,1.7,0.8,3v4.3l1.4,0.2v1.1h-4.6v-1.1l1.4-0.2v-4.4
			c0-0.9-0.2-1.6-0.5-2s-0.8-0.6-1.4-0.6c-0.6,0-1.1,0.2-1.5,0.6s-0.6,1-0.6,1.6v4.7l1.4,0.2v1.1h-4.6v-1.1l1.4-0.2v-4.4
			c0-0.9-0.2-1.5-0.5-2s-0.8-0.6-1.4-0.6c-0.5,0-1,0.1-1.3,0.3s-0.6,0.5-0.8,0.9v5.7l1.4,0.2v1.1H131.1z"/>
	</g>
</g>
<line class="st6" x1="848.8" y1="76.3" x2="152.8" y2="76.3"/>
<g>
	<g>
		<path d="M676.7,57.6c-1.5,0-2.7-0.3-3.7-1c-1-0.7-1.8-1.6-2.3-2.7c-0.5-1.1-0.8-2.4-0.8-3.9v-0.2c0-1.5,0.3-2.8,0.8-3.9
			c0.5-1.1,1.3-2,2.3-2.7s2.2-1,3.5-1c1,0,1.8,0.2,2.6,0.5s1.5,0.7,2,1.1V47h-1.6l-0.2-2.4c-0.2-0.2-0.5-0.3-0.8-0.4
			c-0.3-0.1-0.6-0.2-0.9-0.3c-0.3-0.1-0.7-0.1-1.1-0.1c-1,0-1.8,0.3-2.5,0.8c-0.7,0.5-1.2,1.2-1.5,2.1s-0.5,1.9-0.5,3.1V50
			c0,1.2,0.2,2.3,0.6,3.2c0.4,0.9,0.9,1.6,1.6,2c0.7,0.5,1.6,0.7,2.6,0.7c0.5,0,0.9-0.1,1.4-0.2s0.8-0.3,1.1-0.5l0.2-2.1h1.6v3.2
			c-0.6,0.3-1.2,0.6-2,0.8C678.3,57.5,677.5,57.6,676.7,57.6z"/>
		<path d="M688.1,57.6c-1,0-1.9-0.2-2.7-0.7c-0.8-0.5-1.3-1.1-1.8-2c-0.4-0.8-0.6-1.8-0.6-2.9v-0.5c0-1.1,0.2-2,0.7-2.8
			c0.4-0.8,1-1.5,1.7-2c0.7-0.5,1.5-0.7,2.4-0.7c1,0,1.8,0.2,2.5,0.6c0.7,0.4,1.2,1,1.5,1.7c0.3,0.7,0.5,1.6,0.5,2.6v1.3h-7.2l0,0.1
			c0,0.7,0.1,1.3,0.4,1.9c0.2,0.6,0.6,1,1,1.3c0.4,0.3,1,0.5,1.6,0.5c0.7,0,1.3-0.1,1.8-0.3c0.5-0.2,1-0.5,1.3-0.8l0.8,1.3
			c-0.4,0.4-0.9,0.7-1.6,1C689.8,57.4,689.1,57.6,688.1,57.6z M685.2,50.7h5.1v-0.3c0-0.5-0.1-1-0.3-1.4c-0.2-0.4-0.5-0.8-0.8-1
			c-0.4-0.2-0.8-0.4-1.4-0.4c-0.5,0-0.9,0.1-1.2,0.4c-0.4,0.3-0.7,0.6-0.9,1.1S685.3,50.1,685.2,50.7L685.2,50.7z"/>
		<path d="M693.9,57.4v-1.3l1.7-0.3v-7.9l-1.7-0.3v-1.3h3.5l0.2,1.4l0,0.2c0.3-0.6,0.7-1,1.2-1.3c0.5-0.3,1-0.5,1.6-0.5
			c0.2,0,0.4,0,0.7,0.1c0.2,0,0.4,0.1,0.5,0.1l-0.3,1.9l-1.4-0.1c-0.5,0-1,0.1-1.3,0.4c-0.4,0.3-0.6,0.6-0.8,1.1v6.3l1.7,0.3v1.3
			H693.9z"/>
		<path d="M702.7,57.4v-1.3l1.7-0.3v-7.9l-1.7-0.3v-1.3h3.5l0.2,1.4l0,0.2c0.3-0.6,0.7-1,1.2-1.3c0.5-0.3,1-0.5,1.6-0.5
			c0.2,0,0.4,0,0.7,0.1c0.2,0,0.4,0.1,0.5,0.1l-0.3,1.9l-1.4-0.1c-0.5,0-1,0.1-1.3,0.4c-0.4,0.3-0.6,0.6-0.8,1.1v6.3l1.7,0.3v1.3
			H702.7z"/>
		<path d="M716.5,57.6c-1,0-1.9-0.2-2.7-0.7c-0.7-0.5-1.3-1.1-1.7-2c-0.4-0.9-0.6-1.8-0.6-2.9v-0.2c0-1.1,0.2-2.1,0.6-2.9
			c0.4-0.9,1-1.5,1.7-2c0.7-0.5,1.6-0.7,2.6-0.7c1,0,1.9,0.2,2.7,0.7c0.7,0.5,1.3,1.2,1.7,2s0.6,1.8,0.6,2.9v0.2
			c0,1.1-0.2,2.1-0.6,2.9c-0.4,0.9-1,1.5-1.7,2S717.5,57.6,716.5,57.6z M716.5,56c0.6,0,1.2-0.2,1.6-0.5c0.4-0.4,0.8-0.8,1-1.4
			c0.2-0.6,0.3-1.3,0.3-2.1v-0.2c0-0.8-0.1-1.5-0.3-2.1c-0.2-0.6-0.6-1.1-1-1.4c-0.4-0.4-1-0.5-1.6-0.5c-0.6,0-1.2,0.2-1.6,0.5
			c-0.4,0.4-0.8,0.8-1,1.4c-0.2,0.6-0.3,1.3-0.3,2.1v0.2c0,0.8,0.1,1.5,0.3,2.1c0.2,0.6,0.5,1.1,1,1.4C715.3,55.8,715.8,56,716.5,56
			z"/>
		<path d="M728.3,57.4v-1.3l1.7-0.3V44l-1.7-0.3v-1.3h1.7h5.2c1.1,0,2,0.2,2.7,0.6c0.8,0.4,1.3,0.9,1.7,1.6s0.6,1.5,0.6,2.3
			c0,0.9-0.2,1.7-0.6,2.4s-1,1.2-1.7,1.6s-1.7,0.6-2.7,0.6H732v4.4l1.7,0.3v1.3H728.3z M732,49.8h3.2c1,0,1.8-0.3,2.3-0.8
			c0.5-0.5,0.8-1.2,0.8-2.1s-0.3-1.5-0.8-2.1c-0.5-0.6-1.3-0.8-2.3-0.8H732V49.8z"/>
		<path d="M745.1,57.6c-1.2,0-2-0.3-2.6-0.8c-0.6-0.6-0.9-1.4-0.9-2.4c0-0.7,0.2-1.3,0.6-1.8c0.4-0.5,0.9-0.9,1.7-1.2
			c0.7-0.3,1.6-0.4,2.6-0.4h2v-1.1c0-0.7-0.2-1.2-0.6-1.6c-0.4-0.4-1-0.6-1.7-0.6c-0.5,0-0.9,0.1-1.2,0.2c-0.3,0.1-0.7,0.3-0.9,0.5
			l-0.2,1.5h-1.6v-2.5c0.5-0.4,1.1-0.7,1.7-0.9c0.7-0.2,1.4-0.3,2.2-0.3c1.3,0,2.4,0.3,3.2,1s1.1,1.6,1.1,2.8v5.3c0,0.1,0,0.3,0,0.4
			c0,0.1,0,0.3,0,0.4l1.1,0.1v1.3h-2.9c-0.1-0.3-0.1-0.6-0.1-0.8c0-0.2-0.1-0.5-0.1-0.7c-0.4,0.5-0.9,0.9-1.5,1.2
			C746.4,57.4,745.8,57.6,745.1,57.6z M745.4,55.9c0.7,0,1.3-0.2,1.8-0.5c0.6-0.3,1-0.7,1.2-1.2v-2h-2.1c-0.9,0-1.6,0.2-2.1,0.7
			c-0.5,0.4-0.7,0.9-0.7,1.5c0,0.5,0.2,0.9,0.5,1.1C744.3,55.7,744.8,55.9,745.4,55.9z"/>
		<path d="M753,57.4v-1.3l1.7-0.3v-7.9l-1.7-0.3v-1.3h3.7v9.5l1.7,0.3v1.3H753z M754.6,43.5v-2.2h2.1v2.2H754.6z"/>
		<path d="M759.8,57.4v-1.3l1.7-0.3v-7.9l-1.7-0.3v-1.3h3.5l0.1,1.7c0.4-0.6,0.8-1,1.4-1.4c0.6-0.3,1.2-0.5,1.9-0.5
			c1.2,0,2.1,0.4,2.8,1.1c0.7,0.7,1,1.8,1,3.2v5.4l1.7,0.3v1.3h-5.4v-1.3l1.7-0.3v-5.4c0-1-0.2-1.7-0.6-2.1c-0.4-0.4-1-0.6-1.8-0.6
			c-0.6,0-1.1,0.1-1.5,0.4c-0.4,0.3-0.8,0.7-1.1,1.1v6.5l1.7,0.3v1.3H759.8z"/>
		<path d="M778.6,57.6c-1,0-1.9-0.2-2.7-0.7c-0.8-0.5-1.3-1.1-1.8-2s-0.6-1.8-0.6-2.9v-0.5c0-1.1,0.2-2,0.7-2.8c0.4-0.8,1-1.5,1.7-2
			c0.7-0.5,1.5-0.7,2.4-0.7c1,0,1.8,0.2,2.5,0.6c0.7,0.4,1.2,1,1.5,1.7c0.3,0.7,0.5,1.6,0.5,2.6v1.3h-7.2l0,0.1
			c0,0.7,0.1,1.3,0.4,1.9c0.2,0.6,0.6,1,1,1.3c0.4,0.3,1,0.5,1.6,0.5c0.7,0,1.3-0.1,1.8-0.3c0.5-0.2,1-0.5,1.3-0.8l0.8,1.3
			c-0.4,0.4-0.9,0.7-1.6,1C780.3,57.4,779.5,57.6,778.6,57.6z M775.7,50.7h5.1v-0.3c0-0.5-0.1-1-0.3-1.4c-0.2-0.4-0.5-0.8-0.8-1
			c-0.4-0.2-0.8-0.4-1.4-0.4c-0.5,0-0.9,0.1-1.2,0.4c-0.4,0.3-0.7,0.6-0.9,1.1S775.8,50.1,775.7,50.7L775.7,50.7z"/>
		<path d="M796.5,57.6c-1.4,0-2.6-0.3-3.6-1c-1-0.6-1.8-1.5-2.3-2.7s-0.8-2.4-0.8-3.9v-0.2c0-1.5,0.3-2.8,0.8-4
			c0.6-1.1,1.3-2,2.3-2.7s2-1,3.3-1c1.2,0,2.1,0.1,3,0.4c0.8,0.3,1.5,0.6,2.1,1.1v3h-1.7l-0.2-2.2c-0.3-0.2-0.7-0.4-1.2-0.5
			c-0.5-0.1-1.1-0.2-1.7-0.2c-0.9,0-1.6,0.2-2.3,0.7s-1.2,1.2-1.6,2.1c-0.4,0.9-0.6,1.9-0.6,3.1V50c0,1.2,0.2,2.2,0.5,3.1
			c0.4,0.9,0.9,1.6,1.6,2.1c0.7,0.5,1.6,0.7,2.6,0.7c0.7,0,1.3-0.1,1.7-0.2c0.5-0.1,0.9-0.3,1.2-0.5v-3.5l-2.9-0.1v-1.5h4.9V56
			c-0.4,0.4-1,0.8-1.9,1.1C798.8,57.4,797.8,57.6,796.5,57.6z"/>
		<path d="M803.4,57.4v-1.3l1.7-0.3v-7.9l-1.7-0.3v-1.3h3.5l0.2,1.4l0,0.2c0.3-0.6,0.7-1,1.2-1.3c0.5-0.3,1-0.5,1.6-0.5
			c0.2,0,0.4,0,0.7,0.1c0.2,0,0.4,0.1,0.5,0.1l-0.3,1.9l-1.4-0.1c-0.5,0-1,0.1-1.3,0.4c-0.4,0.3-0.6,0.6-0.8,1.1v6.3l1.7,0.3v1.3
			H803.4z"/>
		<path d="M815.8,57.6c-1.2,0-2-0.3-2.6-0.8c-0.6-0.6-0.9-1.4-0.9-2.4c0-0.7,0.2-1.3,0.6-1.8c0.4-0.5,0.9-0.9,1.7-1.2
			c0.7-0.3,1.6-0.4,2.6-0.4h2v-1.1c0-0.7-0.2-1.2-0.6-1.6c-0.4-0.4-1-0.6-1.7-0.6c-0.5,0-0.9,0.1-1.2,0.2c-0.3,0.1-0.7,0.3-0.9,0.5
			l-0.2,1.5h-1.6v-2.5c0.5-0.4,1.1-0.7,1.7-0.9c0.7-0.2,1.4-0.3,2.2-0.3c1.3,0,2.4,0.3,3.2,1s1.1,1.6,1.1,2.8v5.3c0,0.1,0,0.3,0,0.4
			c0,0.1,0,0.3,0,0.4l1.1,0.1v1.3h-2.9c-0.1-0.3-0.1-0.6-0.1-0.8c0-0.2-0.1-0.5-0.1-0.7c-0.4,0.5-0.9,0.9-1.5,1.2
			C817.1,57.4,816.5,57.6,815.8,57.6z M816.1,55.9c0.7,0,1.3-0.2,1.8-0.5c0.6-0.3,1-0.7,1.2-1.2v-2h-2.1c-0.9,0-1.6,0.2-2.1,0.7
			c-0.5,0.4-0.7,0.9-0.7,1.5c0,0.5,0.2,0.9,0.5,1.1C815,55.7,815.5,55.9,816.1,55.9z"/>
		<path d="M823.8,57.4v-1.3l1.7-0.3v-7.9l-1.7-0.3v-1.3h3.5l0.1,1.7c0.4-0.6,0.8-1,1.4-1.4c0.6-0.3,1.2-0.5,1.9-0.5
			c1.2,0,2.1,0.4,2.8,1.1c0.7,0.7,1,1.8,1,3.2v5.4l1.7,0.3v1.3h-5.4v-1.3l1.7-0.3v-5.4c0-1-0.2-1.7-0.6-2.1c-0.4-0.4-1-0.6-1.8-0.6
			c-0.6,0-1.1,0.1-1.5,0.4c-0.4,0.3-0.8,0.7-1.1,1.1v6.5l1.7,0.3v1.3H823.8z"/>
		<path d="M841.9,57.6c-0.9,0-1.7-0.2-2.3-0.7c-0.6-0.4-1.1-1.1-1.5-1.9c-0.3-0.8-0.5-1.7-0.5-2.8V52c0-1.2,0.2-2.2,0.5-3.1
			s0.8-1.6,1.5-2.1c0.6-0.5,1.4-0.7,2.3-0.7c0.7,0,1.2,0.1,1.7,0.4c0.5,0.2,0.9,0.6,1.3,1.1v-4.5l-1.7-0.3v-1.3h1.7h2v14.4l1.7,0.3
			v1.3h-3.4l-0.2-1.3c-0.4,0.5-0.8,0.9-1.3,1.1C843.2,57.4,842.6,57.6,841.9,57.6z M842.5,55.9c0.6,0,1.1-0.1,1.5-0.4
			c0.4-0.3,0.7-0.7,1-1.2v-5.1c-0.3-0.5-0.6-0.8-1-1.1s-0.9-0.4-1.5-0.4c-0.6,0-1.2,0.2-1.6,0.5c-0.4,0.4-0.7,0.9-0.9,1.5
			c-0.2,0.6-0.3,1.4-0.3,2.3v0.2c0,1.1,0.2,2,0.7,2.7S841.5,55.9,842.5,55.9z"/>
		<path d="M855.1,57.6c-1,0-1.9-0.2-2.7-0.7c-0.8-0.5-1.3-1.1-1.8-2c-0.4-0.8-0.6-1.8-0.6-2.9v-0.5c0-1.1,0.2-2,0.7-2.8
			c0.4-0.8,1-1.5,1.7-2c0.7-0.5,1.5-0.7,2.4-0.7c1,0,1.8,0.2,2.5,0.6c0.7,0.4,1.2,1,1.5,1.7c0.3,0.7,0.5,1.6,0.5,2.6v1.3h-7.2l0,0.1
			c0,0.7,0.1,1.3,0.4,1.9c0.2,0.6,0.6,1,1,1.3c0.4,0.3,1,0.5,1.6,0.5c0.7,0,1.3-0.1,1.8-0.3c0.5-0.2,1-0.5,1.3-0.8l0.8,1.3
			c-0.4,0.4-0.9,0.7-1.6,1C856.8,57.4,856,57.6,855.1,57.6z M852.2,50.7h5.1v-0.3c0-0.5-0.1-1-0.3-1.4c-0.2-0.4-0.5-0.8-0.8-1
			c-0.4-0.2-0.8-0.4-1.4-0.4c-0.5,0-0.9,0.1-1.2,0.4c-0.4,0.3-0.7,0.6-0.9,1.1S852.3,50.1,852.2,50.7L852.2,50.7z"/>
	</g>
</g>
<g>
	<g>
		<path d="M383.7,57.4l-5-13.5l-1.2-0.2v-1.3h4.7v1.3l-1.4,0.2l3.3,9.5l0.3,1.2h0.1l0.4-1.2l3.5-9.5l-1.5-0.2v-1.3h4.7v1.3l-1.2,0.2
			l-5,13.5H383.7z"/>
		<path d="M398,57.6c-1,0-1.9-0.2-2.7-0.7c-0.7-0.5-1.3-1.1-1.7-2c-0.4-0.9-0.6-1.8-0.6-2.9v-0.2c0-1.1,0.2-2.1,0.6-2.9
			c0.4-0.9,1-1.5,1.7-2c0.7-0.5,1.6-0.7,2.6-0.7c1,0,1.9,0.2,2.7,0.7c0.7,0.5,1.3,1.2,1.7,2s0.6,1.8,0.6,2.9v0.2
			c0,1.1-0.2,2.1-0.6,2.9c-0.4,0.9-1,1.5-1.7,2S399,57.6,398,57.6z M398,56c0.6,0,1.2-0.2,1.6-0.5c0.4-0.4,0.8-0.8,1-1.4
			c0.2-0.6,0.3-1.3,0.3-2.1v-0.2c0-0.8-0.1-1.5-0.3-2.1c-0.2-0.6-0.6-1.1-1-1.4c-0.4-0.4-1-0.5-1.6-0.5c-0.6,0-1.2,0.2-1.6,0.5
			c-0.4,0.4-0.8,0.8-1,1.4c-0.2,0.6-0.3,1.3-0.3,2.1v0.2c0,0.8,0.1,1.5,0.3,2.1c0.2,0.6,0.5,1.1,1,1.4C396.8,55.8,397.4,56,398,56z"
			/>
		<path d="M404.4,57.4v-1.3l1.7-0.3V42.9l-1.7-0.3v-1.3h3.7v14.4l1.7,0.3v1.3H404.4z"/>
		<path d="M416.3,57.6c-1,0-1.9-0.2-2.6-0.7c-0.7-0.5-1.3-1.1-1.7-2s-0.6-1.8-0.6-2.9v-0.4c0-1.1,0.2-2,0.6-2.8s1-1.5,1.7-2
			c0.7-0.5,1.6-0.7,2.7-0.7c0.9,0,1.7,0.1,2.4,0.4c0.7,0.3,1.2,0.7,1.7,1.2l0.1,2.7h-1.6l-0.3-1.9c-0.2-0.2-0.5-0.4-0.9-0.6
			s-0.8-0.2-1.2-0.2c-0.6,0-1.1,0.2-1.6,0.5c-0.5,0.4-0.8,0.8-1.1,1.4s-0.4,1.3-0.4,2V52c0,0.8,0.1,1.5,0.4,2.1
			c0.2,0.6,0.6,1.1,1,1.4c0.4,0.3,1,0.5,1.6,0.5c0.7,0,1.3-0.2,1.7-0.6s0.7-0.9,0.8-1.5h1.8l0,0.1c0,0.6-0.2,1.2-0.6,1.8
			c-0.3,0.6-0.8,1-1.5,1.3C418,57.4,417.2,57.6,416.3,57.6z"/>
		<path d="M425.8,57.6c-1.2,0-2-0.3-2.6-0.8c-0.6-0.6-0.9-1.4-0.9-2.4c0-0.7,0.2-1.3,0.6-1.8c0.4-0.5,0.9-0.9,1.7-1.2
			c0.7-0.3,1.6-0.4,2.6-0.4h2v-1.1c0-0.7-0.2-1.2-0.6-1.6c-0.4-0.4-1-0.6-1.7-0.6c-0.5,0-0.9,0.1-1.2,0.2c-0.3,0.1-0.7,0.3-0.9,0.5
			l-0.2,1.5h-1.6v-2.5c0.5-0.4,1.1-0.7,1.7-0.9c0.7-0.2,1.4-0.3,2.2-0.3c1.3,0,2.4,0.3,3.2,1s1.1,1.6,1.1,2.8v5.3c0,0.1,0,0.3,0,0.4
			s0,0.3,0,0.4l1.1,0.1v1.3h-2.9c-0.1-0.3-0.1-0.6-0.1-0.8c0-0.2-0.1-0.5-0.1-0.7c-0.4,0.5-0.9,0.9-1.5,1.2
			C427.1,57.4,426.4,57.6,425.8,57.6z M426.1,55.9c0.7,0,1.3-0.2,1.8-0.5c0.6-0.3,1-0.7,1.2-1.2v-2H427c-0.9,0-1.6,0.2-2.1,0.7
			c-0.5,0.4-0.7,0.9-0.7,1.5c0,0.5,0.2,0.9,0.5,1.1C425,55.7,425.5,55.9,426.1,55.9z M425.7,44.1l1.9-2.8h2.4l0,0.1l-2.8,2.7H425.7
			L425.7,44.1z"/>
		<path d="M433.8,57.4v-1.3l1.7-0.3v-7.9l-1.7-0.3v-1.3h3.5l0.1,1.7c0.4-0.6,0.8-1,1.4-1.4c0.6-0.3,1.2-0.5,1.9-0.5
			c1.2,0,2.1,0.4,2.8,1.1c0.7,0.7,1,1.8,1,3.2v5.4l1.7,0.3v1.3h-5.4v-1.3l1.7-0.3v-5.4c0-1-0.2-1.7-0.6-2.1s-1-0.6-1.8-0.6
			c-0.6,0-1.1,0.1-1.5,0.4c-0.4,0.3-0.8,0.7-1.1,1.1v6.5l1.7,0.3v1.3H433.8z"/>
		<path d="M453,57.4v-1.3l1.7-0.3V44l-1.7-0.3v-1.3h1.7h2.7l4.8,11.3h0.1l4.7-11.3h4.5v1.3l-1.7,0.3v11.8l1.7,0.3v1.3H466v-1.3
			l1.8-0.3v-4.3v-6.3l-0.1,0l-4.8,11.6h-1.3l-5-11.6l-0.1,0l0.1,6.2v4.3l1.8,0.3v1.3H453z"/>
		<path d="M473,57.4v-1.3l1.7-0.3v-7.9l-1.7-0.3v-1.3h3.7v9.5l1.7,0.3v1.3H473z M474.6,43.5v-2.2h2.1v2.2H474.6z"/>
		<path d="M484.8,57.6c-1,0-1.9-0.2-2.6-0.7c-0.7-0.5-1.3-1.1-1.7-2s-0.6-1.8-0.6-2.9v-0.4c0-1.1,0.2-2,0.6-2.8s1-1.5,1.7-2
			c0.7-0.5,1.6-0.7,2.7-0.7c0.9,0,1.7,0.1,2.4,0.4c0.7,0.3,1.2,0.7,1.7,1.2l0.1,2.7h-1.6l-0.3-1.9c-0.2-0.2-0.5-0.4-0.9-0.6
			c-0.3-0.1-0.8-0.2-1.2-0.2c-0.6,0-1.1,0.2-1.6,0.5c-0.5,0.4-0.8,0.8-1.1,1.4c-0.3,0.6-0.4,1.3-0.4,2V52c0,0.8,0.1,1.5,0.4,2.1
			c0.2,0.6,0.6,1.1,1,1.4c0.4,0.3,1,0.5,1.6,0.5c0.7,0,1.3-0.2,1.7-0.6s0.7-0.9,0.8-1.5h1.8l0,0.1c0,0.6-0.2,1.2-0.6,1.8
			c-0.3,0.6-0.8,1-1.5,1.3C486.5,57.4,485.7,57.6,484.8,57.6z"/>
		<path d="M490.5,57.4v-1.3l1.7-0.3V42.9l-1.7-0.3v-1.3h3.7v6.4c0.4-0.5,0.9-0.9,1.4-1.2c0.6-0.3,1.2-0.4,1.8-0.4
			c1.2,0,2.1,0.4,2.8,1.1s1,1.8,1,3.3v5.4l1.7,0.3v1.3h-5.4v-1.3l1.7-0.3v-5.4c0-0.9-0.2-1.6-0.6-2c-0.4-0.4-1-0.7-1.8-0.7
			c-0.6,0-1.1,0.1-1.5,0.4c-0.5,0.3-0.8,0.6-1.1,1.1v6.6l1.7,0.3v1.3H490.5z"/>
		<path d="M504.1,57.4v-1.3l1.7-0.3v-7.9l-1.7-0.3v-1.3h3.7v9.5l1.7,0.3v1.3H504.1z M505.7,43.5v-2.2h2.1v2.2H505.7z"/>
		<path d="M510.9,57.4v-1.3l1.7-0.3v-7.9l-1.7-0.3v-1.3h3.5l0.1,1.7c0.4-0.6,0.8-1,1.4-1.4c0.6-0.3,1.2-0.5,1.9-0.5
			c1.2,0,2.1,0.4,2.8,1.1c0.7,0.7,1,1.8,1,3.2v5.4l1.7,0.3v1.3h-5.4v-1.3l1.7-0.3v-5.4c0-1-0.2-1.7-0.6-2.1s-1-0.6-1.8-0.6
			c-0.6,0-1.1,0.1-1.5,0.4c-0.4,0.3-0.8,0.7-1.1,1.1v6.5l1.7,0.3v1.3H510.9z"/>
		<path d="M524.7,57.4v-1.3l1.7-0.3v-7.9l-1.7-0.3v-1.3h3.5l0.1,1.4c0.4-0.5,0.8-0.9,1.4-1.2s1.2-0.4,1.9-0.4s1.4,0.2,1.9,0.5
			c0.5,0.3,0.9,0.9,1.2,1.5c0.3-0.6,0.8-1.1,1.4-1.5s1.2-0.6,2-0.6c1.1,0,2,0.4,2.7,1.2c0.7,0.8,1,1.9,1,3.5v5.1l1.7,0.3v1.3h-5.4
			v-1.3l1.7-0.3v-5.1c0-1.1-0.2-1.9-0.6-2.3c-0.4-0.5-0.9-0.7-1.7-0.7c-0.7,0-1.3,0.2-1.7,0.7c-0.4,0.5-0.7,1.1-0.7,1.9v5.5l1.7,0.3
			v1.3h-5.4v-1.3l1.7-0.3v-5.1c0-1-0.2-1.8-0.6-2.3c-0.4-0.5-0.9-0.7-1.7-0.7c-0.6,0-1.1,0.1-1.5,0.4c-0.4,0.3-0.7,0.6-0.9,1.1v6.6
			l1.7,0.3v1.3H524.7z"/>
		<path d="M548.5,57.6c-1.2,0-2-0.3-2.6-0.8c-0.6-0.6-0.9-1.4-0.9-2.4c0-0.7,0.2-1.3,0.6-1.8c0.4-0.5,0.9-0.9,1.7-1.2
			c0.7-0.3,1.6-0.4,2.6-0.4h2v-1.1c0-0.7-0.2-1.2-0.6-1.6s-1-0.6-1.7-0.6c-0.5,0-0.9,0.1-1.2,0.2c-0.3,0.1-0.7,0.3-0.9,0.5l-0.2,1.5
			h-1.6v-2.5c0.5-0.4,1.1-0.7,1.7-0.9c0.7-0.2,1.4-0.3,2.2-0.3c1.3,0,2.4,0.3,3.2,1s1.1,1.6,1.1,2.8v5.3c0,0.1,0,0.3,0,0.4
			s0,0.3,0,0.4l1.1,0.1v1.3h-2.9c-0.1-0.3-0.1-0.6-0.1-0.8c0-0.2-0.1-0.5-0.1-0.7c-0.4,0.5-0.9,0.9-1.5,1.2
			C549.8,57.4,549.2,57.6,548.5,57.6z M548.8,55.9c0.7,0,1.3-0.2,1.8-0.5c0.6-0.3,1-0.7,1.2-1.2v-2h-2.1c-0.9,0-1.6,0.2-2.1,0.7
			c-0.5,0.4-0.7,0.9-0.7,1.5c0,0.5,0.2,0.9,0.5,1.1C547.8,55.7,548.2,55.9,548.8,55.9z"/>
		<path d="M556.3,57.4v-1.3l1.7-0.3V42.9l-1.7-0.3v-1.3h3.7v6.4c0.4-0.5,0.9-0.9,1.4-1.2c0.6-0.3,1.2-0.4,1.8-0.4
			c1.2,0,2.1,0.4,2.8,1.1s1,1.8,1,3.3v5.4l1.7,0.3v1.3h-5.4v-1.3l1.7-0.3v-5.4c0-0.9-0.2-1.6-0.6-2s-1-0.7-1.8-0.7
			c-0.6,0-1.1,0.1-1.5,0.4c-0.5,0.3-0.8,0.6-1.1,1.1v6.6l1.7,0.3v1.3H556.3z"/>
		<path d="M574.9,57.6c-1.2,0-2.1-0.4-2.8-1.2c-0.7-0.8-1-2-1-3.6v-5l-1.3-0.3v-1.3h1.3h2v6.6c0,1.2,0.2,2,0.5,2.4
			c0.3,0.4,0.9,0.7,1.6,0.7c0.7,0,1.3-0.1,1.8-0.4c0.5-0.3,0.8-0.7,1.1-1.2v-6.4l-1.5-0.3v-1.3h1.5h2v9.5l1.3,0.3v1.3h-3.1l-0.1-1.6
			c-0.3,0.6-0.8,1.1-1.3,1.4S575.6,57.6,574.9,57.6z"/>
		<path d="M582.7,57.4v-1.3l1.7-0.3v-7.9l-1.7-0.3v-1.3h3.7v9.5l1.7,0.3v1.3H582.7z M584.3,43.5v-2.2h2.1v2.2H584.3z"/>
		<path d="M593.8,57.6c-0.9,0-1.7-0.2-2.3-0.7c-0.6-0.4-1.1-1.1-1.5-1.9c-0.3-0.8-0.5-1.7-0.5-2.8V52c0-1.2,0.2-2.2,0.5-3.1
			s0.8-1.6,1.5-2.1c0.7-0.5,1.4-0.7,2.3-0.7c0.7,0,1.2,0.1,1.7,0.4c0.5,0.2,0.9,0.6,1.3,1.1v-4.5l-1.7-0.3v-1.3h1.7h2v14.4l1.7,0.3
			v1.3h-3.4L597,56c-0.4,0.5-0.8,0.9-1.3,1.1C595.1,57.4,594.5,57.6,593.8,57.6z M594.3,55.9c0.6,0,1.1-0.1,1.5-0.4
			c0.4-0.3,0.8-0.7,1-1.2v-5.1c-0.3-0.5-0.6-0.8-1-1.1c-0.4-0.3-0.9-0.4-1.5-0.4c-0.6,0-1.2,0.2-1.6,0.5c-0.4,0.4-0.7,0.9-0.9,1.5
			c-0.2,0.6-0.3,1.4-0.3,2.3v0.2c0,1.1,0.2,2,0.7,2.7C592.7,55.6,593.4,55.9,594.3,55.9z"/>
		<path d="M605.6,57.6c-1.2,0-2-0.3-2.6-0.8c-0.6-0.6-0.9-1.4-0.9-2.4c0-0.7,0.2-1.3,0.6-1.8c0.4-0.5,0.9-0.9,1.7-1.2
			c0.7-0.3,1.6-0.4,2.6-0.4h2v-1.1c0-0.7-0.2-1.2-0.6-1.6c-0.4-0.4-1-0.6-1.7-0.6c-0.5,0-0.9,0.1-1.2,0.2c-0.3,0.1-0.7,0.3-0.9,0.5
			l-0.2,1.5h-1.6v-2.5c0.5-0.4,1.1-0.7,1.7-0.9c0.7-0.2,1.4-0.3,2.2-0.3c1.3,0,2.4,0.3,3.2,1s1.1,1.6,1.1,2.8v5.3c0,0.1,0,0.3,0,0.4
			c0,0.1,0,0.3,0,0.4l1.1,0.1v1.3h-2.9c-0.1-0.3-0.1-0.6-0.1-0.8c0-0.2-0.1-0.5-0.1-0.7c-0.4,0.5-0.9,0.9-1.5,1.2
			C606.8,57.4,606.2,57.6,605.6,57.6z M605.9,55.9c0.7,0,1.3-0.2,1.8-0.5c0.6-0.3,0.9-0.7,1.2-1.2v-2h-2.1c-0.9,0-1.6,0.2-2.1,0.7
			c-0.5,0.4-0.7,0.9-0.7,1.5c0,0.5,0.2,0.9,0.5,1.1C604.8,55.7,605.2,55.9,605.9,55.9z"/>
	</g>
</g>
</svg>
