<?xml version="1.0" encoding="utf-8"?>
<!-- Generator: Adobe Illustrator 26.0.1, SVG Export Plug-In . SVG Version: 6.00 Build 0)  -->
<svg version="1.1" id="Capa_1" xmlns="http://www.w3.org/2000/svg" xmlns:xlink="http://www.w3.org/1999/xlink" x="0px" y="0px"
	 viewBox="0 0 1616.1 395.1" style="enable-background:new 0 0 1616.1 395.1;" xml:space="preserve">
<style type="text/css">
	.st0{fill:#5C554A;}
	.st1{fill:#7A7063;}
	.st2{fill:#3C3832;}
	.st3{fill:none;stroke:#4D4D4D;stroke-miterlimit:10;}
	.st4{fill:none;stroke:#4D4D4D;stroke-miterlimit:10;stroke-dasharray:6.2229,6.2229;}
	.st5{fill:none;stroke:#4D4D4D;stroke-miterlimit:10;stroke-dasharray:5.9593,5.9593;}
	.st6{fill:none;stroke:#4D4D4D;stroke-miterlimit:10;stroke-dasharray:6;}
</style>
<path class="st0" d="M507.5,319.6l21.6-17.7c0.8-0.6,1.7-1.1,2.6-1.3c3.6-0.8,12.7-3,16.7-6.3c4.6-3.8,34.4-28,38.9-31.6
	c0.4-0.3,0.8-0.6,1.2-0.8l31-14.7c0.8-0.4,1.7-0.6,2.7-0.6H633c1.2,0,2.3-0.3,3.3-0.9l30.5-19c0.6-0.4,1.3-0.7,2-0.8l22.1-4.6
	c0.5-0.1,0.9-0.3,1.4-0.5l24.6-11.6c1.6-0.8,2.8-2.2,3.3-3.9c0.7-2.4,1.9-5.6,3.5-5.6c2,0,14.1-8.4,18.3-11.3
	c0.9-0.7,1.7-1.6,2.1-2.6l3.2-7.6c0.6-1.5,1.9-2.7,3.4-3.3l35.6-14.4c0.4-0.2,0.9-0.4,1.3-0.7l24.9-17.7l21.4-15.3
	c1.1-0.8,2.3-1.2,3.6-1.2h7c2.5,0,4.8-1.5,5.7-3.8l6.3-15.2c0.2-0.5,0.4-0.9,0.7-1.3l10.4-14.1c1.8-2.5,5.1-3.2,7.9-1.8
	c7.3,3.8,20.9,11.1,23.3,14c1.5,1.9,5.3,2.9,9,3.5c3.7,0.6,7-2.3,7.1-6c0.1-3.1,6.2-6.5,6.2-6.5c8.4-0.7,28.2,8.8,33.9,11.6
	c1,0.5,2.1,0.7,3.3,0.6l18.1-1.4c0.5,0,1,0,1.5,0.1c3,0.5,14.5,2.3,17.4,2.3c2.6,0,17.5,2.6,23.6,3.6c1.7,0.3,3.5-0.1,4.8-1.2
	c4.6-3.5,15.6-11.5,20.1-11.5c5.8,0,22.2-11.5,22.2-11.5l13.2-9.6c1-0.7,2.3-1.2,3.6-1.2c5.4-0.1,19.9,0.1,21.9,4.2
	c2.5,4.9,14.8,18.1,17.3,28.8c2.5,10.7,13.2,18.9,13.2,18.9l21.1,18c0.7,0.6,1.5,1,2.4,1.3l9,2.4c1.3,0.3,2.4,1.1,3.2,2.1l5.3,6.4
	c0.6,0.7,1.4,1.3,2.2,1.7c2.7,1.2,8.5,3.3,11,0.2c2.9-3.7,15.1-7.3,17.6-8.1c0.3-0.1,0.6-0.2,1-0.2l12-1.5c0.4-0.1,0.9-0.1,1.3,0
	c2.8,0.3,12.9,1.6,15.8,6.5c3.1,5.5,26.3,31.7,28.6,34.3c0.1,0.1,0.2,0.3,0.4,0.5l10.1,13.9c1.7,2.3,4.8,3.2,7.4,2.1l3.6-1.5
	c1.2-0.5,2.1-1.3,2.8-2.3c2.9-4.4,11.1-16.7,13.8-17.3c3-0.7,10,4.6,11.3,5.6c0.2,0.1,0.3,0.2,0.5,0.4c1.7,1,10,5.9,13.7,1.5
	c3-3.6,9.4-4.6,12.7-4.8c1.3-0.1,2.6,0.2,3.7,0.9l12.8,7.8c0.2,0.2,0.5,0.3,0.7,0.5l8.7,7.2l10.9,8.2c1.4,1.1,3.2,1.5,4.9,1.1l2-0.4
	c2.2-0.4,4.4,0.3,5.8,1.9l0.9,1c2.3,2.5,6.2,2.8,8.7,0.5l7.4-6.6c1.7-1.5,4.1-2,6.3-1.2l31.1,11.5c2,0.7,3.4,2.4,3.9,4.4
	c1,4.3,3.4,12,8.4,18.2c6.9,8.4,65.1,36.6,73.8,40.8c0.7,0.3,1.4,0.8,1.9,1.4l28.2,31.1c1.4,1.5,1.9,3.6,1.4,5.6l-2.2,9.3
	c-0.7,2.8-3.2,4.8-6,4.8H505.3c-5.5,0-8.3-6.5-4.5-10.5l6.2-6.5C507.1,320,507.3,319.8,507.5,319.6z"/>
<path class="st1" d="M285.9,290.9l63-47l22.4-4.3l53.4-51.2l38.4-14.9l21.4-4.8c0,0,64.1-9.4,76.9-32.9c0,0,50.7-11.9,56.6-11.9
	c5.9,0,38.4,4.8,41.6,5.9c3.2,1.1,20.3,4.4,23.5,4.8c22.1,2.7,21.9-0.5,21.9-0.5s10.1-4.3,11.7-3.2c1.6,1.1,12.8,5.9,12.8,5.9
	l46.4,19.2l21.9,4.3l57.3,17.7c0,0,61,38,67.4,55.1s61.9,53.8,61.9,53.8l31.5,49.4L249,338.4L285.9,290.9z"/>
<path class="st2" d="M157.5,314l30.3-19.4l6.9-1l5.9-7.7l2.8-2.2h5.5l24.2-17.6l3.7-2.5l5.6-5.5l6.6-1.5l4.9-1l6.9,2.5h6.5l6.3,3.5
	l3.3,0.7l4.5,0.5l17.7-8.5l6.7-4.6h7.9l7.9-3.8h8.3l13.8,5.7l24.4,22.6l4.7,0.5l24.4,22.6c0,0,8.7,8.4,10.2,13.7
	c0.5,1.7,16.3,10.5,19.1,10.9c4.8,0.7,6.4,16.3,6.4,16.3l-48.4-0.1l0,0H237.6l-90.5,0.3l0,0l3.9-15.9L157.5,314z"/>
<g>
	<g>
		<line class="st3" x1="168.3" y1="244.7" x2="171.3" y2="244.7"/>
		<line class="st4" x1="177.5" y1="244.7" x2="323.7" y2="244.7"/>
		<line class="st3" x1="326.8" y1="244.7" x2="329.8" y2="244.7"/>
	</g>
</g>
<g>
	<g>
		<line class="st3" x1="174.7" y1="122.1" x2="177.7" y2="122.1"/>
		<line class="st5" x1="183.7" y1="122.1" x2="633.6" y2="122.1"/>
		<line class="st3" x1="636.6" y1="122.1" x2="639.6" y2="122.1"/>
	</g>
</g>
<g>
	<g>
		<path d="M62.1,125.5v-1.2l4.2-4.7c0.5-0.6,0.9-1,1.2-1.4c0.3-0.4,0.5-0.8,0.6-1.1s0.2-0.7,0.2-1c0-0.6-0.2-1.2-0.6-1.6
			c-0.4-0.4-0.9-0.7-1.7-0.7c-0.8,0-1.3,0.2-1.8,0.7s-0.6,1.1-0.6,1.9h-1.7l0-0.1c0-0.7,0.1-1.4,0.5-2c0.3-0.6,0.8-1.1,1.4-1.4
			c0.6-0.3,1.4-0.5,2.2-0.5c0.8,0,1.5,0.2,2.1,0.5c0.6,0.3,1,0.7,1.3,1.3s0.5,1.1,0.5,1.8c0,0.5-0.1,0.9-0.3,1.4s-0.5,0.9-0.8,1.4
			s-0.8,1-1.3,1.5l-3.4,3.7l0,0h4.5l0.1-1.5h1.5v2.8H62.1z"/>
		<path d="M76,125.5v-1.1l1.4-0.2v-1.6h-5.7v-1l5.6-8.9h1.8v8.5H81v1.4h-1.8v1.6l1.4,0.2v1.1H76z M73.6,121.2h3.9v-6l-0.1,0
			l-0.2,0.5L73.6,121.2z"/>
		<path d="M86.8,125.7c-1.3,0-2.2-0.4-3-1.3s-1.1-2.1-1.1-3.8v-3c0-1.6,0.4-2.9,1.1-3.8c0.7-0.9,1.7-1.3,3-1.3c1.3,0,2.3,0.4,3,1.3
			c0.7,0.9,1.1,2.1,1.1,3.8v3c0,1.6-0.4,2.9-1.1,3.8C89,125.2,88,125.7,86.8,125.7z M86.8,124.3c0.8,0,1.3-0.3,1.7-0.8
			s0.6-1.4,0.6-2.5v-3.8c0-1.1-0.2-1.9-0.6-2.5s-1-0.8-1.8-0.8c-0.8,0-1.3,0.3-1.7,0.8s-0.6,1.4-0.6,2.5v3.8c0,1.1,0.2,1.9,0.6,2.5
			C85.4,124,86,124.3,86.8,124.3z"/>
		<path d="M96.5,125.7c-0.7,0-1.4-0.1-1.9-0.4s-1-0.7-1.3-1.2c-0.3-0.5-0.5-1.2-0.5-1.9l0-0.1h1.6c0,0.7,0.2,1.2,0.6,1.6
			s0.9,0.6,1.6,0.6c0.7,0,1.3-0.3,1.7-0.8s0.6-1.2,0.6-2.1c0-0.8-0.2-1.5-0.6-2s-1-0.8-1.7-0.8c-0.7,0-1.2,0.1-1.5,0.3
			s-0.5,0.5-0.7,0.9l-1.4-0.1l0.7-7h6.8v2.5h-1.3l-0.2-1h-3.8l-0.4,3.6c0.2-0.1,0.4-0.3,0.6-0.4s0.4-0.2,0.7-0.3s0.5-0.1,0.8-0.1
			c0.8,0,1.5,0.2,2,0.5s1,0.8,1.3,1.5s0.5,1.4,0.5,2.3c0,0.9-0.2,1.6-0.5,2.2s-0.8,1.1-1.4,1.5C98.1,125.5,97.3,125.7,96.5,125.7z"
			/>
		<path d="M106.5,125.5v-1.1l1.4-0.2v-6.8l-1.4-0.2V116h3l0.1,1.2c0.3-0.5,0.7-0.8,1.2-1s1-0.4,1.7-0.4s1.2,0.1,1.6,0.4
			s0.8,0.7,1,1.3c0.3-0.5,0.7-1,1.2-1.3s1.1-0.5,1.7-0.5c1,0,1.7,0.3,2.3,1s0.8,1.7,0.8,3v4.3l1.4,0.2v1.1H118v-1.1l1.4-0.2v-4.4
			c0-0.9-0.2-1.6-0.5-2c-0.3-0.4-0.8-0.6-1.4-0.6c-0.6,0-1.1,0.2-1.5,0.6c-0.4,0.4-0.6,1-0.6,1.6v4.7l1.4,0.2v1.1h-4.6v-1.1l1.4-0.2
			v-4.4c0-0.9-0.2-1.5-0.5-2c-0.3-0.4-0.8-0.6-1.4-0.6c-0.5,0-1,0.1-1.3,0.3s-0.6,0.5-0.8,0.9v5.7l1.4,0.2v1.1H106.5z"/>
		<path d="M127.7,125.7c-0.6,0-1.2-0.1-1.8-0.2s-1.1-0.3-1.8-0.6l0-2.3h1.3l0.3,1.4c0.3,0.1,0.6,0.2,1,0.3c0.3,0.1,0.6,0.1,1,0.1
			c0.7,0,1.2-0.1,1.5-0.4s0.5-0.6,0.5-1c0-0.4-0.2-0.7-0.5-1c-0.3-0.3-0.9-0.5-1.7-0.7c-1.1-0.3-2-0.6-2.5-1.1
			c-0.5-0.4-0.8-1-0.8-1.8c0-0.5,0.1-1,0.4-1.4s0.7-0.7,1.2-1s1.2-0.4,1.9-0.4c0.7,0,1.3,0.1,1.9,0.2s1,0.4,1.3,0.7l0.1,2.2h-1.3
			l-0.3-1.3c-0.2-0.2-0.4-0.3-0.7-0.4s-0.6-0.1-1-0.1c-0.5,0-1,0.1-1.3,0.4s-0.5,0.6-0.5,0.9c0,0.2,0,0.4,0.1,0.6s0.3,0.3,0.6,0.4
			c0.3,0.1,0.7,0.3,1.2,0.4c1.3,0.3,2.2,0.7,2.8,1.2s0.8,1.1,0.8,1.8c0,0.8-0.3,1.5-0.9,2C129.9,125.4,129,125.7,127.7,125.7z"/>
		<path d="M133.5,125.5v-1.8h1.7v1.8H133.5z"/>
		<path d="M137.2,125.5v-1.1l1.4-0.2v-6.8l-1.4-0.2V116h3l0.1,1.4c0.3-0.5,0.7-0.9,1.2-1.2s1-0.4,1.6-0.4c1,0,1.8,0.3,2.4,0.9
			c0.6,0.6,0.8,1.5,0.8,2.8v4.6l1.4,0.2v1.1h-4.6v-1.1l1.4-0.2v-4.6c0-0.8-0.2-1.4-0.5-1.8s-0.8-0.5-1.5-0.5c-0.5,0-0.9,0.1-1.3,0.4
			s-0.7,0.6-0.9,1v5.6l1.4,0.2v1.1H137.2z"/>
		<path d="M149.6,125.5v-1.8h1.7v1.8H149.6z"/>
		<path d="M153.3,125.5v-1.1l1.4-0.2v-6.8l-1.4-0.2V116h3l0.1,1.2c0.3-0.5,0.7-0.8,1.2-1s1-0.4,1.7-0.4s1.2,0.1,1.6,0.4
			s0.8,0.7,1,1.3c0.3-0.5,0.7-1,1.2-1.3s1.1-0.5,1.7-0.5c1,0,1.7,0.3,2.3,1s0.8,1.7,0.8,3v4.3l1.4,0.2v1.1h-4.6v-1.1l1.4-0.2v-4.4
			c0-0.9-0.2-1.6-0.5-2c-0.3-0.4-0.8-0.6-1.4-0.6c-0.6,0-1.1,0.2-1.5,0.6c-0.4,0.4-0.6,1-0.6,1.6v4.7l1.4,0.2v1.1h-4.6v-1.1l1.4-0.2
			v-4.4c0-0.9-0.2-1.5-0.5-2c-0.3-0.4-0.8-0.6-1.4-0.6c-0.5,0-1,0.1-1.3,0.3s-0.6,0.5-0.8,0.9v5.7l1.4,0.2v1.1H153.3z"/>
	</g>
</g>
<g>
	<g>
		<path d="M65.7,248.3c-0.4,0-0.9,0-1.4-0.1c-0.5-0.1-0.9-0.2-1.3-0.4l0.3-1.3c0.4,0.2,0.7,0.3,1.1,0.4c0.4,0.1,0.8,0.1,1.3,0.1
			c0.8,0,1.5-0.3,2-1c0.5-0.6,0.7-1.7,0.8-3.1l0,0c-0.2,0.4-0.6,0.7-1,0.9s-0.9,0.3-1.4,0.3c-0.8,0-1.5-0.2-2.2-0.5
			s-1.1-0.8-1.4-1.5s-0.5-1.5-0.5-2.4c0-0.9,0.2-1.7,0.5-2.4s0.8-1.2,1.4-1.6s1.3-0.6,2-0.6c0.9,0,1.7,0.2,2.3,0.6
			c0.6,0.4,1.1,0.9,1.5,1.7s0.5,1.6,0.5,2.7v2.3c0,1.3-0.2,2.4-0.6,3.3s-0.9,1.5-1.6,2S66.6,248.3,65.7,248.3z M66,242.7
			c0.6,0,1.2-0.1,1.6-0.4s0.7-0.6,0.9-1.1v-1.4c0-1.1-0.2-2-0.6-2.6s-1.1-0.9-1.9-0.9c-0.4,0-0.8,0.1-1.2,0.4
			c-0.3,0.3-0.6,0.6-0.8,1.1s-0.3,1-0.3,1.7c0,0.6,0.1,1.2,0.3,1.6c0.2,0.5,0.4,0.8,0.8,1.1S65.5,242.7,66,242.7z"/>
		<path d="M76.8,248.3c-0.8,0-1.6-0.2-2.2-0.6s-1.2-1-1.5-1.8s-0.6-1.7-0.6-2.8v-1.7c0-1.4,0.2-2.5,0.6-3.4c0.4-0.9,1-1.6,1.7-2.1
			s1.5-0.7,2.5-0.7c0.4,0,0.9,0,1.3,0.1s0.8,0.2,1.1,0.4l-0.3,1.3c-0.3-0.1-0.6-0.2-0.9-0.3c-0.3-0.1-0.7-0.1-1.1-0.1
			c-0.9,0-1.6,0.3-2.1,1c-0.5,0.7-0.8,1.7-0.8,3.1l0,0c0.3-0.3,0.7-0.5,1.2-0.7s1-0.3,1.5-0.3c0.8,0,1.4,0.2,2,0.5
			c0.6,0.4,1,0.9,1.3,1.5s0.5,1.4,0.5,2.2c0,0.9-0.2,1.7-0.5,2.3s-0.8,1.2-1.4,1.6S77.6,248.3,76.8,248.3z M76.8,246.9
			c0.5,0,0.9-0.1,1.2-0.4s0.6-0.7,0.8-1.1s0.3-1,0.3-1.6c0-0.8-0.2-1.5-0.6-2.1s-1-0.8-1.8-0.8c-0.4,0-0.7,0.1-1.1,0.2
			c-0.3,0.1-0.6,0.3-0.8,0.5c-0.2,0.2-0.4,0.4-0.6,0.7v1c0,1.2,0.2,2.1,0.7,2.7S76,246.9,76.8,246.9z"/>
		<path d="M86,248.3c-0.7,0-1.4-0.1-1.9-0.4s-1-0.7-1.3-1.2c-0.3-0.5-0.5-1.2-0.5-1.9l0-0.1h1.6c0,0.7,0.2,1.2,0.6,1.6
			s0.9,0.6,1.6,0.6c0.7,0,1.3-0.3,1.7-0.8s0.6-1.2,0.6-2.1c0-0.8-0.2-1.5-0.6-2s-1-0.8-1.7-0.8c-0.7,0-1.2,0.1-1.5,0.3
			s-0.5,0.5-0.7,0.9l-1.4-0.1l0.7-7h6.8v2.5h-1.3l-0.2-1h-3.8l-0.4,3.6c0.2-0.1,0.4-0.3,0.6-0.4s0.4-0.2,0.7-0.3s0.5-0.1,0.8-0.1
			c0.8,0,1.5,0.2,2,0.5s1,0.8,1.3,1.5s0.5,1.4,0.5,2.3c0,0.9-0.2,1.6-0.5,2.2s-0.8,1.1-1.4,1.5C87.6,248.1,86.9,248.3,86,248.3z"/>
		<path d="M96.1,248.1V247l1.4-0.2v-6.8l-1.4-0.2v-1.1h3l0.1,1.2c0.3-0.5,0.7-0.8,1.2-1s1-0.4,1.7-0.4s1.2,0.1,1.6,0.4
			s0.8,0.7,1,1.3c0.3-0.5,0.7-1,1.2-1.3s1.1-0.5,1.7-0.5c1,0,1.7,0.3,2.3,1s0.8,1.7,0.8,3v4.3l1.4,0.2v1.1h-4.6V247l1.4-0.2v-4.4
			c0-0.9-0.2-1.6-0.5-2c-0.3-0.4-0.8-0.6-1.4-0.6c-0.6,0-1.1,0.2-1.5,0.6c-0.4,0.4-0.6,1-0.6,1.6v4.7l1.4,0.2v1.1h-4.6V247l1.4-0.2
			v-4.4c0-0.9-0.2-1.5-0.5-2c-0.3-0.4-0.8-0.6-1.4-0.6c-0.5,0-1,0.1-1.3,0.3s-0.6,0.5-0.8,0.9v5.7l1.4,0.2v1.1H96.1z"/>
		<path d="M117.3,248.3c-0.6,0-1.2-0.1-1.8-0.2s-1.1-0.3-1.8-0.6l0-2.3h1.3l0.3,1.4c0.3,0.1,0.6,0.2,1,0.3c0.3,0.1,0.6,0.1,1,0.1
			c0.7,0,1.2-0.1,1.5-0.4s0.5-0.6,0.5-1c0-0.4-0.2-0.7-0.5-1c-0.3-0.3-0.9-0.5-1.7-0.7c-1.1-0.3-2-0.6-2.5-1.1
			c-0.5-0.4-0.8-1-0.8-1.8c0-0.5,0.1-1,0.4-1.4s0.7-0.7,1.2-1s1.2-0.4,1.9-0.4c0.7,0,1.3,0.1,1.9,0.2s1,0.4,1.3,0.7l0.1,2.2h-1.3
			l-0.3-1.3c-0.2-0.2-0.4-0.3-0.7-0.4s-0.6-0.1-1-0.1c-0.5,0-1,0.1-1.3,0.4s-0.5,0.6-0.5,0.9c0,0.2,0,0.4,0.1,0.6s0.3,0.3,0.6,0.4
			c0.3,0.1,0.7,0.3,1.2,0.4c1.3,0.3,2.2,0.7,2.8,1.2s0.8,1.1,0.8,1.8c0,0.8-0.3,1.5-0.9,2C119.5,248,118.6,248.3,117.3,248.3z"/>
		<path d="M123,248.1v-1.8h1.7v1.8H123z"/>
		<path d="M126.7,248.1V247l1.4-0.2v-6.8l-1.4-0.2v-1.1h3l0.1,1.4c0.3-0.5,0.7-0.9,1.2-1.2s1-0.4,1.6-0.4c1,0,1.8,0.3,2.4,0.9
			c0.6,0.6,0.8,1.5,0.8,2.8v4.6l1.4,0.2v1.1h-4.6V247l1.4-0.2v-4.6c0-0.8-0.2-1.4-0.5-1.8s-0.8-0.5-1.5-0.5c-0.5,0-0.9,0.1-1.3,0.4
			s-0.7,0.6-0.9,1v5.6l1.4,0.2v1.1H126.7z"/>
		<path d="M139.2,248.1v-1.8h1.7v1.8H139.2z"/>
		<path d="M142.9,248.1V247l1.4-0.2v-6.8l-1.4-0.2v-1.1h3l0.1,1.2c0.3-0.5,0.7-0.8,1.2-1s1-0.4,1.7-0.4s1.2,0.1,1.6,0.4
			s0.8,0.7,1,1.3c0.3-0.5,0.7-1,1.2-1.3s1.1-0.5,1.7-0.5c1,0,1.7,0.3,2.3,1s0.8,1.7,0.8,3v4.3l1.4,0.2v1.1h-4.6V247l1.4-0.2v-4.4
			c0-0.9-0.2-1.6-0.5-2c-0.3-0.4-0.8-0.6-1.4-0.6c-0.6,0-1.1,0.2-1.5,0.6c-0.4,0.4-0.6,1-0.6,1.6v4.7l1.4,0.2v1.1h-4.6V247l1.4-0.2
			v-4.4c0-0.9-0.2-1.5-0.5-2c-0.3-0.4-0.8-0.6-1.4-0.6c-0.5,0-1,0.1-1.3,0.3s-0.6,0.5-0.8,0.9v5.7l1.4,0.2v1.1H142.9z"/>
	</g>
</g>
<g>
	<g>
		<path d="M202.9,230.1l-5-13.5l-1.2-0.2v-1.3h4.7v1.3l-1.4,0.2l3.3,9.5l0.3,1.2h0.1l0.4-1.2l3.5-9.5l-1.5-0.2v-1.3h4.7v1.3
			l-1.2,0.2l-5,13.5H202.9z"/>
		<path d="M217.2,230.3c-1,0-1.9-0.2-2.7-0.7c-0.7-0.5-1.3-1.1-1.7-2c-0.4-0.9-0.6-1.8-0.6-2.9v-0.2c0-1.1,0.2-2.1,0.6-2.9
			c0.4-0.9,1-1.5,1.7-2c0.7-0.5,1.6-0.7,2.6-0.7c1,0,1.9,0.2,2.7,0.7c0.7,0.5,1.3,1.2,1.7,2s0.6,1.8,0.6,2.9v0.2
			c0,1.1-0.2,2.1-0.6,2.9c-0.4,0.9-1,1.5-1.7,2S218.3,230.3,217.2,230.3z M217.2,228.8c0.6,0,1.2-0.2,1.6-0.5c0.4-0.4,0.8-0.8,1-1.4
			c0.2-0.6,0.3-1.3,0.3-2.1v-0.2c0-0.8-0.1-1.5-0.3-2.1c-0.2-0.6-0.6-1.1-1-1.4c-0.4-0.4-1-0.5-1.6-0.5c-0.6,0-1.2,0.2-1.6,0.5
			c-0.4,0.4-0.8,0.8-1,1.4c-0.2,0.6-0.3,1.3-0.3,2.1v0.2c0,0.8,0.1,1.5,0.3,2.1c0.2,0.6,0.5,1.1,1,1.4
			C216,228.6,216.6,228.8,217.2,228.8z"/>
		<path d="M223.6,230.1v-1.3l1.7-0.3v-12.8l-1.7-0.3v-1.3h3.7v14.4l1.7,0.3v1.3H223.6z"/>
		<path d="M235.5,230.3c-1,0-1.9-0.2-2.6-0.7c-0.7-0.5-1.3-1.1-1.7-2s-0.6-1.8-0.6-2.9v-0.4c0-1.1,0.2-2,0.6-2.8s1-1.5,1.7-2
			c0.7-0.5,1.6-0.7,2.7-0.7c0.9,0,1.7,0.1,2.4,0.4c0.7,0.3,1.2,0.7,1.7,1.2l0.1,2.7H238l-0.3-1.9c-0.2-0.2-0.5-0.4-0.9-0.6
			s-0.8-0.2-1.2-0.2c-0.6,0-1.1,0.2-1.6,0.5c-0.5,0.4-0.8,0.8-1.1,1.4s-0.4,1.3-0.4,2v0.4c0,0.8,0.1,1.5,0.4,2.1
			c0.2,0.6,0.6,1.1,1,1.4c0.4,0.3,1,0.5,1.6,0.5c0.7,0,1.3-0.2,1.7-0.6s0.7-0.9,0.8-1.5h1.8l0,0.1c0,0.6-0.2,1.2-0.6,1.8
			c-0.3,0.6-0.8,1-1.5,1.3C237.2,230.2,236.4,230.3,235.5,230.3z"/>
		<path d="M245,230.3c-1.2,0-2-0.3-2.6-0.8c-0.6-0.6-0.9-1.4-0.9-2.4c0-0.7,0.2-1.3,0.6-1.8c0.4-0.5,0.9-0.9,1.7-1.2
			c0.7-0.3,1.6-0.4,2.6-0.4h2v-1.1c0-0.7-0.2-1.2-0.6-1.6s-1-0.6-1.7-0.6c-0.5,0-0.9,0.1-1.2,0.2c-0.3,0.1-0.7,0.3-0.9,0.5l-0.2,1.5
			h-1.6V220c0.5-0.4,1.1-0.7,1.7-0.9c0.7-0.2,1.4-0.3,2.2-0.3c1.3,0,2.4,0.3,3.2,1s1.1,1.6,1.1,2.8v5.3c0,0.1,0,0.3,0,0.4
			c0,0.1,0,0.3,0,0.4l1.1,0.1v1.3h-2.9c-0.1-0.3-0.1-0.6-0.1-0.8c0-0.2-0.1-0.5-0.1-0.7c-0.4,0.5-0.9,0.9-1.5,1.2
			C246.3,230.2,245.6,230.3,245,230.3z M245.3,228.6c0.7,0,1.3-0.2,1.8-0.5c0.6-0.3,1-0.7,1.2-1.2v-2h-2.1c-0.9,0-1.6,0.2-2.1,0.7
			c-0.5,0.4-0.7,0.9-0.7,1.5c0,0.5,0.2,0.9,0.5,1.1C244.2,228.5,244.7,228.6,245.3,228.6z M244.9,216.9l1.9-2.8h2.4l0,0.1l-2.8,2.7
			H244.9L244.9,216.9z"/>
		<path d="M253,230.1v-1.3l1.7-0.3v-7.9l-1.7-0.3V219h3.5l0.1,1.7c0.4-0.6,0.8-1,1.4-1.4c0.6-0.3,1.2-0.5,1.9-0.5
			c1.2,0,2.1,0.4,2.8,1.1c0.7,0.7,1,1.8,1,3.2v5.4l1.7,0.3v1.3H260v-1.3l1.7-0.3v-5.4c0-1-0.2-1.7-0.6-2.1c-0.4-0.4-1-0.6-1.8-0.6
			c-0.6,0-1.1,0.1-1.5,0.4s-0.8,0.7-1.1,1.1v6.5l1.7,0.3v1.3H253z"/>
		<path d="M278.8,230.3c-1.5,0-2.7-0.3-3.7-1c-1-0.7-1.8-1.6-2.3-2.7c-0.5-1.1-0.8-2.4-0.8-3.9v-0.2c0-1.5,0.3-2.8,0.8-3.9
			c0.5-1.1,1.3-2,2.3-2.7s2.2-1,3.5-1c1,0,1.8,0.2,2.6,0.5s1.5,0.7,2,1.1v3.2h-1.6l-0.2-2.4c-0.2-0.2-0.5-0.3-0.8-0.4
			c-0.3-0.1-0.6-0.2-0.9-0.3c-0.3-0.1-0.7-0.1-1.1-0.1c-1,0-1.8,0.3-2.5,0.8c-0.7,0.5-1.2,1.2-1.5,2.1s-0.5,1.9-0.5,3.1v0.2
			c0,1.2,0.2,2.3,0.6,3.2c0.4,0.9,0.9,1.6,1.6,2c0.7,0.5,1.6,0.7,2.6,0.7c0.5,0,0.9-0.1,1.4-0.2s0.8-0.3,1.1-0.5l0.2-2.1h1.6v3.2
			c-0.6,0.3-1.2,0.6-2,0.8C280.4,230.2,279.6,230.3,278.8,230.3z"/>
		<path d="M285,230.1v-1.3l1.7-0.3v-12.8l-1.7-0.3v-1.3h3.7v6.4c0.4-0.5,0.9-0.9,1.4-1.2c0.6-0.3,1.2-0.4,1.8-0.4
			c1.2,0,2.1,0.4,2.8,1.1s1,1.8,1,3.3v5.4l1.7,0.3v1.3H292v-1.3l1.7-0.3v-5.4c0-0.9-0.2-1.6-0.6-2c-0.4-0.4-1-0.7-1.8-0.7
			c-0.6,0-1.1,0.1-1.5,0.4c-0.5,0.3-0.8,0.6-1.1,1.1v6.6l1.7,0.3v1.3H285z"/>
		<path d="M302.3,230.3c-1.2,0-2-0.3-2.6-0.8c-0.6-0.6-0.9-1.4-0.9-2.4c0-0.7,0.2-1.3,0.6-1.8c0.4-0.5,0.9-0.9,1.7-1.2
			c0.7-0.3,1.6-0.4,2.6-0.4h2v-1.1c0-0.7-0.2-1.2-0.6-1.6c-0.4-0.4-1-0.6-1.7-0.6c-0.5,0-0.9,0.1-1.2,0.2c-0.3,0.1-0.7,0.3-0.9,0.5
			l-0.2,1.5h-1.6V220c0.5-0.4,1.1-0.7,1.7-0.9c0.7-0.2,1.4-0.3,2.2-0.3c1.3,0,2.4,0.3,3.2,1s1.1,1.6,1.1,2.8v5.3c0,0.1,0,0.3,0,0.4
			c0,0.1,0,0.3,0,0.4l1.1,0.1v1.3h-2.9c-0.1-0.3-0.1-0.6-0.1-0.8c0-0.2-0.1-0.5-0.1-0.7c-0.4,0.5-0.9,0.9-1.5,1.2
			C303.6,230.2,302.9,230.3,302.3,230.3z M302.6,228.6c0.7,0,1.3-0.2,1.8-0.5c0.6-0.3,0.9-0.7,1.2-1.2v-2h-2.1
			c-0.9,0-1.6,0.2-2.1,0.7c-0.5,0.4-0.7,0.9-0.7,1.5c0,0.5,0.2,0.9,0.5,1.1C301.5,228.5,302,228.6,302.6,228.6z"/>
		<path d="M310.2,230.1v-1.3l1.7-0.3v-7.9l-1.7-0.3V219h3.7v9.5l1.7,0.3v1.3H310.2z M311.8,216.3v-2.2h2.1v2.2H311.8z"/>
		<path d="M320.9,230.3c-0.8,0-1.5-0.2-2-0.7c-0.5-0.5-0.7-1.3-0.7-2.3v-6.7h-1.8V219h1.8v-2.7h2v2.7h2.4v1.5h-2.4v6.7
			c0,0.5,0.1,0.9,0.3,1.2c0.2,0.3,0.5,0.4,0.9,0.4c0.2,0,0.5,0,0.8-0.1c0.3,0,0.5-0.1,0.7-0.1l0.3,1.3c-0.3,0.1-0.7,0.2-1.1,0.2
			C321.7,230.3,321.3,230.3,320.9,230.3z"/>
		<path d="M329.5,230.3c-1,0-1.9-0.2-2.7-0.7c-0.8-0.5-1.3-1.1-1.8-2c-0.4-0.8-0.6-1.8-0.6-2.9v-0.5c0-1.1,0.2-2,0.7-2.8
			c0.4-0.8,1-1.5,1.7-2c0.7-0.5,1.5-0.7,2.4-0.7c1,0,1.8,0.2,2.5,0.6c0.7,0.4,1.2,1,1.5,1.7c0.3,0.7,0.5,1.6,0.5,2.6v1.3h-7.2l0,0.1
			c0,0.7,0.1,1.3,0.4,1.9c0.2,0.6,0.6,1,1,1.3c0.4,0.3,1,0.5,1.6,0.5c0.7,0,1.3-0.1,1.8-0.3c0.5-0.2,1-0.5,1.3-0.8l0.8,1.3
			c-0.4,0.4-0.9,0.7-1.6,1C331.2,230.2,330.4,230.3,329.5,230.3z M326.6,223.5h5.1v-0.3c0-0.5-0.1-1-0.3-1.4c-0.2-0.4-0.5-0.8-0.8-1
			c-0.4-0.2-0.8-0.4-1.4-0.4c-0.5,0-0.9,0.1-1.2,0.4c-0.4,0.3-0.7,0.6-0.9,1.1S326.7,222.8,326.6,223.5L326.6,223.5z M328,216.9
			l1.9-2.8h2.4l0,0.1l-2.8,2.7H328L328,216.9z"/>
		<path d="M335.3,230.1v-1.3l1.7-0.3v-7.9l-1.7-0.3V219h3.5l0.1,1.7c0.4-0.6,0.8-1,1.4-1.4c0.6-0.3,1.2-0.5,1.9-0.5
			c1.2,0,2.1,0.4,2.8,1.1c0.7,0.7,1,1.8,1,3.2v5.4l1.7,0.3v1.3h-5.4v-1.3l1.7-0.3v-5.4c0-1-0.2-1.7-0.6-2.1c-0.4-0.4-1-0.6-1.8-0.6
			c-0.6,0-1.1,0.1-1.5,0.4c-0.4,0.3-0.8,0.7-1.1,1.1v6.5l1.7,0.3v1.3H335.3z"/>
	</g>
</g>
<g>
	<g>
		<path d="M259.9,367.3v-1.1l2-0.2v-9.6l-2,0v-1.1l3.7-0.8V366l2,0.2v1.1H259.9z"/>
		<path d="M271.2,367.5c-0.8,0-1.6-0.1-2.2-0.4c-0.6-0.3-1.1-0.7-1.5-1.2s-0.5-1.2-0.5-2c0-0.7,0.2-1.4,0.7-1.9s1-1,1.8-1.2
			c-0.6-0.2-1.1-0.6-1.5-1.1c-0.4-0.5-0.5-1.1-0.5-1.8c0-0.8,0.2-1.4,0.5-1.9c0.3-0.5,0.8-0.9,1.3-1.2s1.2-0.4,2-0.4
			c0.8,0,1.4,0.1,2,0.4s1,0.7,1.3,1.2c0.3,0.5,0.5,1.2,0.5,1.9c0,0.7-0.2,1.3-0.6,1.8c-0.4,0.5-0.9,0.9-1.5,1.1
			c0.7,0.3,1.3,0.7,1.8,1.2s0.7,1.2,0.7,1.9c0,0.8-0.2,1.5-0.5,2s-0.8,1-1.5,1.2C272.7,367.4,272,367.5,271.2,367.5z M271.2,366.2
			c0.5,0,0.9-0.1,1.3-0.3s0.7-0.5,0.9-0.8s0.3-0.8,0.3-1.2c0-0.5-0.1-0.9-0.3-1.2s-0.5-0.6-0.9-0.9s-0.8-0.3-1.3-0.3
			s-0.9,0.1-1.3,0.3s-0.6,0.5-0.9,0.8c-0.2,0.4-0.3,0.8-0.3,1.3c0,0.7,0.2,1.3,0.7,1.7C269.9,366,270.5,366.2,271.2,366.2z
			 M271.2,360.1c0.4,0,0.8-0.1,1.1-0.3c0.3-0.2,0.6-0.4,0.7-0.8s0.3-0.7,0.3-1.1c0-0.4-0.1-0.8-0.3-1.1s-0.4-0.6-0.7-0.8
			c-0.3-0.2-0.7-0.3-1.1-0.3c-0.6,0-1.1,0.2-1.5,0.6c-0.4,0.4-0.6,0.9-0.6,1.6c0,0.7,0.2,1.2,0.6,1.6S270.6,360.1,271.2,360.1z"/>
		<path d="M277.3,370.1l-1-0.7c0.3-0.4,0.5-0.9,0.6-1.3s0.2-0.9,0.2-1.4v-1.3h1.7v1.3c0,0.6-0.1,1.2-0.4,1.8
			S277.8,369.7,277.3,370.1z"/>
		<path d="M284.3,367.5c-0.7,0-1.4-0.1-1.9-0.4s-1-0.7-1.3-1.2c-0.3-0.5-0.5-1.2-0.5-1.9l0-0.1h1.6c0,0.7,0.2,1.2,0.6,1.6
			s0.9,0.6,1.6,0.6c0.7,0,1.3-0.3,1.7-0.8s0.6-1.2,0.6-2.1c0-0.8-0.2-1.5-0.6-2s-1-0.8-1.7-0.8c-0.7,0-1.2,0.1-1.5,0.3
			s-0.5,0.5-0.7,0.9l-1.4-0.1l0.7-7h6.8v2.5h-1.3l-0.2-1h-3.8l-0.4,3.6c0.2-0.1,0.4-0.3,0.6-0.4s0.4-0.2,0.7-0.3s0.5-0.1,0.8-0.1
			c0.8,0,1.5,0.2,2,0.5s1,0.8,1.3,1.5s0.5,1.4,0.5,2.3c0,0.9-0.2,1.6-0.5,2.2s-0.8,1.1-1.4,1.5C285.9,367.3,285.2,367.5,284.3,367.5
			z"/>
		<path d="M294.2,367.3v-1.1l1.4-0.2v-11l-1.4-0.2v-1.1h3.2V366l1.4,0.2v1.1H294.2z M297.3,364.6l-0.6-1.4l4.1-4.1l0-0.1l-1-0.1
			v-1.1h4.1v1.1l-1.2,0.2L297.3,364.6z M300.4,367.3v-1.1l1-0.1l0,0l-2.8-3.6l0.9-1.4l3.8,4.9l1.4,0.2v1.1H300.4z"/>
		<path d="M305.6,367.3v-1.1l1.4-0.2v-6.8l-1.4-0.2v-1.1h3l0.1,1.2c0.3-0.5,0.7-0.8,1.2-1s1-0.4,1.7-0.4s1.2,0.1,1.6,0.4
			s0.8,0.7,1,1.3c0.3-0.5,0.7-1,1.2-1.3s1.1-0.5,1.7-0.5c1,0,1.7,0.3,2.3,1s0.8,1.7,0.8,3v4.3l1.4,0.2v1.1h-4.6v-1.1l1.4-0.2v-4.4
			c0-0.9-0.2-1.6-0.5-2c-0.3-0.4-0.8-0.6-1.4-0.6c-0.6,0-1.1,0.2-1.5,0.6c-0.4,0.4-0.6,1-0.6,1.6v4.7l1.4,0.2v1.1h-4.6v-1.1l1.4-0.2
			v-4.4c0-0.9-0.2-1.5-0.5-2c-0.3-0.4-0.8-0.6-1.4-0.6c-0.5,0-1,0.1-1.3,0.3s-0.6,0.5-0.8,0.9v5.7l1.4,0.2v1.1H305.6z"/>
	</g>
</g>
<line class="st6" x1="147" y1="347.5" x2="432.8" y2="347.5"/>
<line class="st3" x1="147" y1="351.7" x2="147" y2="339.8"/>
<line class="st3" x1="432.8" y1="351.7" x2="432.8" y2="339.8"/>
<g>
	<g>
		<path d="M62.1,79.6v-1.2l4.2-4.7c0.5-0.6,0.9-1,1.2-1.4s0.5-0.8,0.6-1.1s0.2-0.7,0.2-1c0-0.6-0.2-1.2-0.6-1.6S66.7,68,66,68
			c-0.8,0-1.3,0.2-1.8,0.7s-0.6,1.1-0.6,1.9h-1.7l0-0.1c0-0.7,0.1-1.4,0.5-2s0.8-1.1,1.4-1.4s1.4-0.5,2.2-0.5c0.8,0,1.5,0.2,2.1,0.5
			s1,0.7,1.3,1.3s0.5,1.1,0.5,1.8c0,0.5-0.1,0.9-0.3,1.4s-0.5,0.9-0.8,1.4s-0.8,1-1.3,1.5l-3.4,3.7l0,0h4.5l0.1-1.5h1.5v2.8H62.1z"
			/>
		<path d="M76.2,79.8c-0.8,0-1.6-0.1-2.2-0.4s-1.1-0.7-1.5-1.2S72,77,72,76.2c0-0.7,0.2-1.4,0.7-1.9s1-1,1.8-1.2
			c-0.6-0.2-1.1-0.6-1.5-1.1s-0.5-1.1-0.5-1.8c0-0.8,0.2-1.4,0.5-1.9s0.8-0.9,1.3-1.2s1.2-0.4,2-0.4c0.8,0,1.4,0.1,2,0.4
			s1,0.7,1.3,1.2s0.5,1.2,0.5,1.9c0,0.7-0.2,1.3-0.6,1.8s-0.9,0.9-1.5,1.1c0.7,0.3,1.3,0.7,1.8,1.2s0.7,1.2,0.7,1.9
			c0,0.8-0.2,1.5-0.5,2s-0.8,1-1.5,1.2S77,79.8,76.2,79.8z M76.2,78.5c0.5,0,0.9-0.1,1.3-0.3s0.7-0.5,0.9-0.8s0.3-0.8,0.3-1.2
			c0-0.5-0.1-0.9-0.3-1.2s-0.5-0.6-0.9-0.9s-0.8-0.3-1.3-0.3s-0.9,0.1-1.3,0.3s-0.6,0.5-0.9,0.8s-0.3,0.8-0.3,1.3
			c0,0.7,0.2,1.3,0.7,1.7S75.4,78.5,76.2,78.5z M76.2,72.4c0.4,0,0.8-0.1,1.1-0.3s0.6-0.4,0.7-0.8s0.3-0.7,0.3-1.1
			c0-0.4-0.1-0.8-0.3-1.1s-0.4-0.6-0.7-0.8S76.5,68,76.1,68c-0.6,0-1.1,0.2-1.5,0.6s-0.6,0.9-0.6,1.6c0,0.7,0.2,1.2,0.6,1.6
			S75.5,72.4,76.2,72.4z"/>
		<path d="M86,79.6v-1.1l1.4-0.2v-1.6h-5.7v-1l5.6-8.9h1.8v8.5h1.8v1.4h-1.8v1.6l1.4,0.2v1.1H86z M83.5,75.3h3.9v-6l-0.1,0l-0.2,0.5
			L83.5,75.3z"/>
		<path d="M96.1,79.8c-0.7,0-1.4-0.1-1.9-0.4s-1-0.7-1.3-1.2s-0.5-1.2-0.5-1.9l0-0.1H94c0,0.7,0.2,1.2,0.6,1.6s0.9,0.6,1.6,0.6
			c0.7,0,1.3-0.3,1.7-0.8s0.6-1.2,0.6-2.1c0-0.8-0.2-1.5-0.6-2s-1-0.8-1.7-0.8c-0.7,0-1.2,0.1-1.5,0.3S94.1,73.6,94,74l-1.4-0.1
			l0.7-7h6.8v2.5h-1.3l-0.2-1h-3.8L94.3,72c0.2-0.1,0.4-0.3,0.6-0.4s0.4-0.2,0.7-0.3s0.5-0.1,0.8-0.1c0.8,0,1.5,0.2,2,0.5
			s1,0.8,1.3,1.5s0.5,1.4,0.5,2.3c0,0.9-0.2,1.6-0.5,2.2s-0.8,1.1-1.4,1.5S97,79.8,96.1,79.8z"/>
		<path d="M106.2,79.6v-1.1l1.4-0.2v-6.8l-1.4-0.2v-1.1h3l0.1,1.2c0.3-0.5,0.7-0.8,1.2-1s1-0.4,1.7-0.4s1.2,0.1,1.6,0.4
			s0.8,0.7,1,1.3c0.3-0.5,0.7-1,1.2-1.3s1.1-0.5,1.7-0.5c1,0,1.7,0.3,2.3,1s0.8,1.7,0.8,3v4.3l1.4,0.2v1.1h-4.6v-1.1l1.4-0.2v-4.4
			c0-0.9-0.2-1.6-0.5-2s-0.8-0.6-1.4-0.6c-0.6,0-1.1,0.2-1.5,0.6s-0.6,1-0.6,1.6v4.7l1.4,0.2v1.1h-4.6v-1.1l1.4-0.2v-4.4
			c0-0.9-0.2-1.5-0.5-2s-0.8-0.6-1.4-0.6c-0.5,0-1,0.1-1.3,0.3s-0.6,0.5-0.8,0.9v5.7l1.4,0.2v1.1H106.2z"/>
		<path d="M127.4,79.8c-0.6,0-1.2-0.1-1.8-0.2s-1.1-0.3-1.8-0.6l0-2.3h1.3l0.3,1.4c0.3,0.1,0.6,0.2,1,0.3s0.6,0.1,1,0.1
			c0.7,0,1.2-0.1,1.5-0.4s0.5-0.6,0.5-1c0-0.4-0.2-0.7-0.5-1s-0.9-0.5-1.7-0.7c-1.1-0.3-2-0.6-2.5-1.1s-0.8-1-0.8-1.8
			c0-0.5,0.1-1,0.4-1.4s0.7-0.7,1.2-1s1.2-0.4,1.9-0.4c0.7,0,1.3,0.1,1.9,0.2s1,0.4,1.3,0.7l0.1,2.2h-1.3l-0.3-1.3
			c-0.2-0.2-0.4-0.3-0.7-0.4s-0.6-0.1-1-0.1c-0.5,0-1,0.1-1.3,0.4s-0.5,0.6-0.5,0.9c0,0.2,0,0.4,0.1,0.6s0.3,0.3,0.6,0.4
			s0.7,0.3,1.2,0.4c1.3,0.3,2.2,0.7,2.8,1.2s0.8,1.1,0.8,1.8c0,0.8-0.3,1.5-0.9,2S128.7,79.8,127.4,79.8z"/>
		<path d="M133.2,79.6v-1.8h1.7v1.8H133.2z"/>
		<path d="M136.9,79.6v-1.1l1.4-0.2v-6.8l-1.4-0.2v-1.1h3l0.1,1.4c0.3-0.5,0.7-0.9,1.2-1.2s1-0.4,1.6-0.4c1,0,1.8,0.3,2.4,0.9
			s0.8,1.5,0.8,2.8v4.6l1.4,0.2v1.1h-4.6v-1.1l1.4-0.2v-4.6c0-0.8-0.2-1.4-0.5-1.8s-0.8-0.5-1.5-0.5c-0.5,0-0.9,0.1-1.3,0.4
			s-0.7,0.6-0.9,1v5.6l1.4,0.2v1.1H136.9z"/>
		<path d="M149.3,79.6v-1.8h1.7v1.8H149.3z"/>
		<path d="M153,79.6v-1.1l1.4-0.2v-6.8l-1.4-0.2v-1.1h3l0.1,1.2c0.3-0.5,0.7-0.8,1.2-1s1-0.4,1.7-0.4s1.2,0.1,1.6,0.4s0.8,0.7,1,1.3
			c0.3-0.5,0.7-1,1.2-1.3s1.1-0.5,1.7-0.5c1,0,1.7,0.3,2.3,1s0.8,1.7,0.8,3v4.3l1.4,0.2v1.1h-4.6v-1.1l1.4-0.2v-4.4
			c0-0.9-0.2-1.6-0.5-2s-0.8-0.6-1.4-0.6c-0.6,0-1.1,0.2-1.5,0.6s-0.6,1-0.6,1.6v4.7l1.4,0.2v1.1h-4.6v-1.1l1.4-0.2v-4.4
			c0-0.9-0.2-1.5-0.5-2s-0.8-0.6-1.4-0.6c-0.5,0-1,0.1-1.3,0.3s-0.6,0.5-0.8,0.9v5.7l1.4,0.2v1.1H153z"/>
	</g>
</g>
<line class="st6" x1="1094.4" y1="76.3" x2="174.7" y2="76.3"/>
<g>
	<g>
		<path d="M892,57.6c-1.5,0-2.7-0.3-3.7-1c-1-0.7-1.8-1.6-2.3-2.7c-0.5-1.1-0.8-2.4-0.8-3.9v-0.2c0-1.5,0.3-2.8,0.8-3.9
			c0.5-1.1,1.3-2,2.3-2.7s2.2-1,3.5-1c1,0,1.8,0.2,2.6,0.5s1.5,0.7,2,1.1V47h-1.6l-0.2-2.4c-0.2-0.2-0.5-0.3-0.8-0.4
			c-0.3-0.1-0.6-0.2-0.9-0.3c-0.3-0.1-0.7-0.1-1.1-0.1c-1,0-1.8,0.3-2.5,0.8c-0.7,0.5-1.2,1.2-1.5,2.1s-0.5,1.9-0.5,3.1V50
			c0,1.2,0.2,2.3,0.6,3.2c0.4,0.9,0.9,1.6,1.6,2c0.7,0.5,1.6,0.7,2.6,0.7c0.5,0,0.9-0.1,1.4-0.2s0.8-0.3,1.1-0.5l0.2-2.1h1.6v3.2
			c-0.6,0.3-1.2,0.6-2,0.8C893.6,57.5,892.8,57.6,892,57.6z"/>
		<path d="M903.4,57.6c-1,0-1.9-0.2-2.7-0.7c-0.8-0.5-1.3-1.1-1.8-2c-0.4-0.8-0.6-1.8-0.6-2.9v-0.5c0-1.1,0.2-2,0.7-2.8
			c0.4-0.8,1-1.5,1.7-2c0.7-0.5,1.5-0.7,2.4-0.7c1,0,1.8,0.2,2.5,0.6c0.7,0.4,1.2,1,1.5,1.7c0.3,0.7,0.5,1.6,0.5,2.6v1.3h-7.2l0,0.1
			c0,0.7,0.1,1.3,0.4,1.9c0.2,0.6,0.6,1,1,1.3c0.4,0.3,1,0.5,1.6,0.5c0.7,0,1.3-0.1,1.8-0.3c0.5-0.2,1-0.5,1.3-0.8l0.8,1.3
			c-0.4,0.4-0.9,0.7-1.6,1C905.1,57.4,904.3,57.6,903.4,57.6z M900.5,50.7h5.1v-0.3c0-0.5-0.1-1-0.3-1.4c-0.2-0.4-0.5-0.8-0.8-1
			c-0.4-0.2-0.8-0.4-1.4-0.4c-0.5,0-0.9,0.1-1.2,0.4c-0.4,0.3-0.7,0.6-0.9,1.1S900.6,50.1,900.5,50.7L900.5,50.7z"/>
		<path d="M909.2,57.4v-1.3l1.7-0.3v-7.9l-1.7-0.3v-1.3h3.5l0.2,1.4l0,0.2c0.3-0.6,0.7-1,1.2-1.3c0.5-0.3,1-0.5,1.6-0.5
			c0.2,0,0.4,0,0.7,0.1c0.2,0,0.4,0.1,0.5,0.1l-0.3,1.9l-1.4-0.1c-0.5,0-1,0.1-1.3,0.4c-0.4,0.3-0.6,0.6-0.8,1.1v6.3l1.7,0.3v1.3
			H909.2z"/>
		<path d="M918,57.4v-1.3l1.7-0.3v-7.9l-1.7-0.3v-1.3h3.5l0.2,1.4l0,0.2c0.3-0.6,0.7-1,1.2-1.3c0.5-0.3,1-0.5,1.6-0.5
			c0.2,0,0.4,0,0.7,0.1c0.2,0,0.4,0.1,0.5,0.1l-0.3,1.9l-1.4-0.1c-0.5,0-1,0.1-1.3,0.4c-0.4,0.3-0.6,0.6-0.8,1.1v6.3l1.7,0.3v1.3
			H918z"/>
		<path d="M931.8,57.6c-1,0-1.9-0.2-2.7-0.7c-0.7-0.5-1.3-1.1-1.7-2c-0.4-0.9-0.6-1.8-0.6-2.9v-0.2c0-1.1,0.2-2.1,0.6-2.9
			c0.4-0.9,1-1.5,1.7-2c0.7-0.5,1.6-0.7,2.6-0.7c1,0,1.9,0.2,2.7,0.7c0.7,0.5,1.3,1.2,1.7,2s0.6,1.8,0.6,2.9v0.2
			c0,1.1-0.2,2.1-0.6,2.9c-0.4,0.9-1,1.5-1.7,2S932.8,57.6,931.8,57.6z M931.8,56c0.6,0,1.2-0.2,1.6-0.5c0.4-0.4,0.8-0.8,1-1.4
			c0.2-0.6,0.3-1.3,0.3-2.1v-0.2c0-0.8-0.1-1.5-0.3-2.1c-0.2-0.6-0.6-1.1-1-1.4c-0.4-0.4-1-0.5-1.6-0.5c-0.6,0-1.2,0.2-1.6,0.5
			c-0.4,0.4-0.8,0.8-1,1.4c-0.2,0.6-0.3,1.3-0.3,2.1v0.2c0,0.8,0.1,1.5,0.3,2.1c0.2,0.6,0.5,1.1,1,1.4C930.6,55.8,931.1,56,931.8,56
			z"/>
		<path d="M943.6,57.4v-1.3l1.7-0.3V44l-1.7-0.3v-1.3h1.7h5.2c1.1,0,2,0.2,2.7,0.6c0.8,0.4,1.3,0.9,1.7,1.6s0.6,1.5,0.6,2.3
			c0,0.9-0.2,1.7-0.6,2.4s-1,1.2-1.7,1.6s-1.7,0.6-2.7,0.6h-3.2v4.4l1.7,0.3v1.3H943.6z M947.2,49.8h3.2c1,0,1.8-0.3,2.3-0.8
			c0.5-0.5,0.8-1.2,0.8-2.1s-0.3-1.5-0.8-2.1c-0.5-0.6-1.3-0.8-2.3-0.8h-3.2V49.8z"/>
		<path d="M960.4,57.6c-1.2,0-2-0.3-2.6-0.8c-0.6-0.6-0.9-1.4-0.9-2.4c0-0.7,0.2-1.3,0.6-1.8c0.4-0.5,0.9-0.9,1.7-1.2
			c0.7-0.3,1.6-0.4,2.6-0.4h2v-1.1c0-0.7-0.2-1.2-0.6-1.6c-0.4-0.4-1-0.6-1.7-0.6c-0.5,0-0.9,0.1-1.2,0.2c-0.3,0.1-0.7,0.3-0.9,0.5
			l-0.2,1.5h-1.6v-2.5c0.5-0.4,1.1-0.7,1.7-0.9c0.7-0.2,1.4-0.3,2.2-0.3c1.3,0,2.4,0.3,3.2,1s1.1,1.6,1.1,2.8v5.3c0,0.1,0,0.3,0,0.4
			c0,0.1,0,0.3,0,0.4l1.1,0.1v1.3h-2.9c-0.1-0.3-0.1-0.6-0.1-0.8c0-0.2-0.1-0.5-0.1-0.7c-0.4,0.5-0.9,0.9-1.5,1.2
			C961.7,57.4,961,57.6,960.4,57.6z M960.7,55.9c0.7,0,1.3-0.2,1.8-0.5c0.6-0.3,1-0.7,1.2-1.2v-2h-2.1c-0.9,0-1.6,0.2-2.1,0.7
			c-0.5,0.4-0.7,0.9-0.7,1.5c0,0.5,0.2,0.9,0.5,1.1C959.6,55.7,960.1,55.9,960.7,55.9z"/>
		<path d="M968.3,57.4v-1.3l1.7-0.3v-7.9l-1.7-0.3v-1.3h3.7v9.5l1.7,0.3v1.3H968.3z M969.9,43.5v-2.2h2.1v2.2H969.9z"/>
		<path d="M975.1,57.4v-1.3l1.7-0.3v-7.9l-1.7-0.3v-1.3h3.5l0.1,1.7c0.4-0.6,0.8-1,1.4-1.4c0.6-0.3,1.2-0.5,1.9-0.5
			c1.2,0,2.1,0.4,2.8,1.1c0.7,0.7,1,1.8,1,3.2v5.4l1.7,0.3v1.3h-5.4v-1.3l1.7-0.3v-5.4c0-1-0.2-1.7-0.6-2.1c-0.4-0.4-1-0.6-1.8-0.6
			c-0.6,0-1.1,0.1-1.5,0.4c-0.4,0.3-0.8,0.7-1.1,1.1v6.5l1.7,0.3v1.3H975.1z"/>
		<path d="M993.9,57.6c-1,0-1.9-0.2-2.7-0.7c-0.8-0.5-1.3-1.1-1.8-2c-0.4-0.8-0.6-1.8-0.6-2.9v-0.5c0-1.1,0.2-2,0.7-2.8
			c0.4-0.8,1-1.5,1.7-2c0.7-0.5,1.5-0.7,2.4-0.7c1,0,1.8,0.2,2.5,0.6c0.7,0.4,1.2,1,1.5,1.7c0.3,0.7,0.5,1.6,0.5,2.6v1.3h-7.2l0,0.1
			c0,0.7,0.1,1.3,0.4,1.9c0.2,0.6,0.6,1,1,1.3c0.4,0.3,1,0.5,1.6,0.5c0.7,0,1.3-0.1,1.8-0.3c0.5-0.2,1-0.5,1.3-0.8l0.8,1.3
			c-0.4,0.4-0.9,0.7-1.6,1C995.6,57.4,994.8,57.6,993.9,57.6z M991,50.7h5.1v-0.3c0-0.5-0.1-1-0.3-1.4c-0.2-0.4-0.5-0.8-0.8-1
			c-0.4-0.2-0.8-0.4-1.4-0.4c-0.5,0-0.9,0.1-1.2,0.4c-0.4,0.3-0.7,0.6-0.9,1.1S991.1,50.1,991,50.7L991,50.7z"/>
		<path d="M1011.7,57.6c-1.4,0-2.6-0.3-3.6-1c-1-0.6-1.8-1.5-2.3-2.7s-0.8-2.4-0.8-3.9v-0.2c0-1.5,0.3-2.8,0.8-4
			c0.6-1.1,1.3-2,2.3-2.7s2-1,3.3-1c1.2,0,2.1,0.1,3,0.4c0.8,0.3,1.5,0.6,2.1,1.1v3h-1.7l-0.2-2.2c-0.3-0.2-0.7-0.4-1.2-0.5
			c-0.5-0.1-1.1-0.2-1.7-0.2c-0.9,0-1.6,0.2-2.3,0.7s-1.2,1.2-1.6,2.1c-0.4,0.9-0.6,1.9-0.6,3.1V50c0,1.2,0.2,2.2,0.5,3.1
			c0.4,0.9,0.9,1.6,1.6,2.1c0.7,0.5,1.6,0.7,2.6,0.7c0.7,0,1.3-0.1,1.7-0.2c0.5-0.1,0.9-0.3,1.2-0.5v-3.5l-2.9-0.1v-1.5h4.9V56
			c-0.4,0.4-1,0.8-1.9,1.1C1014.1,57.4,1013,57.6,1011.7,57.6z"/>
		<path d="M1018.7,57.4v-1.3l1.7-0.3v-7.9l-1.7-0.3v-1.3h3.5l0.2,1.4l0,0.2c0.3-0.6,0.7-1,1.2-1.3c0.5-0.3,1-0.5,1.6-0.5
			c0.2,0,0.4,0,0.7,0.1c0.2,0,0.4,0.1,0.5,0.1l-0.3,1.9l-1.4-0.1c-0.5,0-1,0.1-1.3,0.4c-0.4,0.3-0.6,0.6-0.8,1.1v6.3l1.7,0.3v1.3
			H1018.7z"/>
		<path d="M1031.1,57.6c-1.2,0-2-0.3-2.6-0.8c-0.6-0.6-0.9-1.4-0.9-2.4c0-0.7,0.2-1.3,0.6-1.8c0.4-0.5,0.9-0.9,1.7-1.2
			c0.7-0.3,1.6-0.4,2.6-0.4h2v-1.1c0-0.7-0.2-1.2-0.6-1.6c-0.4-0.4-1-0.6-1.7-0.6c-0.5,0-0.9,0.1-1.2,0.2c-0.3,0.1-0.7,0.3-0.9,0.5
			l-0.2,1.5h-1.6v-2.5c0.5-0.4,1.1-0.7,1.7-0.9c0.7-0.2,1.4-0.3,2.2-0.3c1.3,0,2.4,0.3,3.2,1s1.1,1.6,1.1,2.8v5.3c0,0.1,0,0.3,0,0.4
			c0,0.1,0,0.3,0,0.4l1.1,0.1v1.3h-2.9c-0.1-0.3-0.1-0.6-0.1-0.8c0-0.2-0.1-0.5-0.1-0.7c-0.4,0.5-0.9,0.9-1.5,1.2
			C1032.4,57.4,1031.7,57.6,1031.1,57.6z M1031.4,55.9c0.7,0,1.3-0.2,1.8-0.5c0.6-0.3,1-0.7,1.2-1.2v-2h-2.1c-0.9,0-1.6,0.2-2.1,0.7
			c-0.5,0.4-0.7,0.9-0.7,1.5c0,0.5,0.2,0.9,0.5,1.1C1030.3,55.7,1030.8,55.9,1031.4,55.9z"/>
		<path d="M1039.1,57.4v-1.3l1.7-0.3v-7.9l-1.7-0.3v-1.3h3.5l0.1,1.7c0.4-0.6,0.8-1,1.4-1.4c0.6-0.3,1.2-0.5,1.9-0.5
			c1.2,0,2.1,0.4,2.8,1.1c0.7,0.7,1,1.8,1,3.2v5.4l1.7,0.3v1.3h-5.4v-1.3l1.7-0.3v-5.4c0-1-0.2-1.7-0.6-2.1c-0.4-0.4-1-0.6-1.8-0.6
			c-0.6,0-1.1,0.1-1.5,0.4c-0.4,0.3-0.8,0.7-1.1,1.1v6.5l1.7,0.3v1.3H1039.1z"/>
		<path d="M1057.2,57.6c-0.9,0-1.7-0.2-2.3-0.7c-0.6-0.4-1.1-1.1-1.5-1.9c-0.3-0.8-0.5-1.7-0.5-2.8V52c0-1.2,0.2-2.2,0.5-3.1
			s0.8-1.6,1.5-2.1c0.6-0.5,1.4-0.7,2.3-0.7c0.7,0,1.2,0.1,1.7,0.4c0.5,0.2,0.9,0.6,1.3,1.1v-4.5l-1.7-0.3v-1.3h1.7h2v14.4l1.7,0.3
			v1.3h-3.4l-0.2-1.3c-0.4,0.5-0.8,0.9-1.3,1.1C1058.5,57.4,1057.9,57.6,1057.2,57.6z M1057.7,55.9c0.6,0,1.1-0.1,1.5-0.4
			c0.4-0.3,0.7-0.7,1-1.2v-5.1c-0.3-0.5-0.6-0.8-1-1.1s-0.9-0.4-1.5-0.4c-0.6,0-1.2,0.2-1.6,0.5c-0.4,0.4-0.7,0.9-0.9,1.5
			c-0.2,0.6-0.3,1.4-0.3,2.3v0.2c0,1.1,0.2,2,0.7,2.7S1056.8,55.9,1057.7,55.9z"/>
		<path d="M1070.4,57.6c-1,0-1.9-0.2-2.7-0.7c-0.8-0.5-1.3-1.1-1.8-2c-0.4-0.8-0.6-1.8-0.6-2.9v-0.5c0-1.1,0.2-2,0.7-2.8
			c0.4-0.8,1-1.5,1.7-2c0.7-0.5,1.5-0.7,2.4-0.7c1,0,1.8,0.2,2.5,0.6c0.7,0.4,1.2,1,1.5,1.7c0.3,0.7,0.5,1.6,0.5,2.6v1.3h-7.2l0,0.1
			c0,0.7,0.1,1.3,0.4,1.9c0.2,0.6,0.6,1,1,1.3c0.4,0.3,1,0.5,1.6,0.5c0.7,0,1.3-0.1,1.8-0.3c0.5-0.2,1-0.5,1.3-0.8l0.8,1.3
			c-0.4,0.4-0.9,0.7-1.6,1C1072.1,57.4,1071.3,57.6,1070.4,57.6z M1067.5,50.7h5.1v-0.3c0-0.5-0.1-1-0.3-1.4c-0.2-0.4-0.5-0.8-0.8-1
			c-0.4-0.2-0.8-0.4-1.4-0.4c-0.5,0-0.9,0.1-1.2,0.4c-0.4,0.3-0.7,0.6-0.9,1.1S1067.6,50.1,1067.5,50.7L1067.5,50.7z"/>
	</g>
</g>
<g>
	<g>
		<path d="M477.3,105.5l-5-13.5l-1.2-0.2v-1.3h4.7v1.3l-1.4,0.2l3.3,9.5l0.3,1.2h0.1l0.4-1.2l3.5-9.5l-1.5-0.2v-1.3h4.7v1.3L484,92
			l-5,13.5H477.3z"/>
		<path d="M491.6,105.7c-1,0-1.9-0.2-2.7-0.7c-0.7-0.5-1.3-1.1-1.7-2c-0.4-0.9-0.6-1.8-0.6-2.9v-0.2c0-1.1,0.2-2.1,0.6-2.9
			c0.4-0.9,1-1.5,1.7-2c0.7-0.5,1.6-0.7,2.6-0.7c1,0,1.9,0.2,2.7,0.7c0.7,0.5,1.3,1.2,1.7,2s0.6,1.8,0.6,2.9v0.2
			c0,1.1-0.2,2.1-0.6,2.9c-0.4,0.9-1,1.5-1.7,2S492.6,105.7,491.6,105.7z M491.6,104.1c0.6,0,1.2-0.2,1.6-0.5c0.4-0.4,0.8-0.8,1-1.4
			c0.2-0.6,0.3-1.3,0.3-2.1v-0.2c0-0.8-0.1-1.5-0.3-2.1c-0.2-0.6-0.6-1.1-1-1.4c-0.4-0.4-1-0.5-1.6-0.5c-0.6,0-1.2,0.2-1.6,0.5
			c-0.4,0.4-0.8,0.8-1,1.4c-0.2,0.6-0.3,1.3-0.3,2.1v0.2c0,0.8,0.1,1.5,0.3,2.1c0.2,0.6,0.5,1.1,1,1.4
			C490.4,104,491,104.1,491.6,104.1z"/>
		<path d="M498,105.5v-1.3l1.7-0.3V91.1l-1.7-0.3v-1.3h3.7v14.4l1.7,0.3v1.3H498z"/>
		<path d="M509.9,105.7c-1,0-1.9-0.2-2.6-0.7c-0.7-0.5-1.3-1.1-1.7-2s-0.6-1.8-0.6-2.9v-0.4c0-1.1,0.2-2,0.6-2.8s1-1.5,1.7-2
			c0.7-0.5,1.6-0.7,2.7-0.7c0.9,0,1.7,0.1,2.4,0.4c0.7,0.3,1.2,0.7,1.7,1.2l0.1,2.7h-1.6l-0.3-1.9c-0.2-0.2-0.5-0.4-0.9-0.6
			s-0.8-0.2-1.2-0.2c-0.6,0-1.1,0.2-1.6,0.5c-0.5,0.4-0.8,0.8-1.1,1.4s-0.4,1.3-0.4,2v0.4c0,0.8,0.1,1.5,0.4,2.1
			c0.2,0.6,0.6,1.1,1,1.4c0.4,0.3,1,0.5,1.6,0.5c0.7,0,1.3-0.2,1.7-0.6s0.7-0.9,0.8-1.5h1.8l0,0.1c0,0.6-0.2,1.2-0.6,1.8
			c-0.3,0.6-0.8,1-1.5,1.3C511.6,105.5,510.8,105.7,509.9,105.7z"/>
		<path d="M519.4,105.7c-1.2,0-2-0.3-2.6-0.8c-0.6-0.6-0.9-1.4-0.9-2.4c0-0.7,0.2-1.3,0.6-1.8c0.4-0.5,0.9-0.9,1.7-1.2
			c0.7-0.3,1.6-0.4,2.6-0.4h2v-1.1c0-0.7-0.2-1.2-0.6-1.6c-0.4-0.4-1-0.6-1.7-0.6c-0.5,0-0.9,0.1-1.2,0.2c-0.3,0.1-0.7,0.3-0.9,0.5
			L518,98h-1.6v-2.5c0.5-0.4,1.1-0.7,1.7-0.9c0.7-0.2,1.4-0.3,2.2-0.3c1.3,0,2.4,0.3,3.2,1s1.1,1.6,1.1,2.8v5.3c0,0.1,0,0.3,0,0.4
			c0,0.1,0,0.3,0,0.4l1.1,0.1v1.3h-2.9c-0.1-0.3-0.1-0.6-0.1-0.8c0-0.2-0.1-0.5-0.1-0.7c-0.4,0.5-0.9,0.9-1.5,1.2
			C520.7,105.5,520,105.7,519.4,105.7z M519.7,104c0.7,0,1.3-0.2,1.8-0.5c0.6-0.3,1-0.7,1.2-1.2v-2h-2.1c-0.9,0-1.6,0.2-2.1,0.7
			c-0.5,0.4-0.7,0.9-0.7,1.5c0,0.5,0.2,0.9,0.5,1.1C518.6,103.9,519.1,104,519.7,104z M519.3,92.3l1.9-2.8h2.4l0,0.1l-2.8,2.7H519.3
			L519.3,92.3z"/>
		<path d="M527.4,105.5v-1.3l1.7-0.3V96l-1.7-0.3v-1.3h3.5l0.1,1.7c0.4-0.6,0.8-1,1.4-1.4c0.6-0.3,1.2-0.5,1.9-0.5
			c1.2,0,2.1,0.4,2.8,1.1c0.7,0.7,1,1.8,1,3.2v5.4l1.7,0.3v1.3h-5.4v-1.3l1.7-0.3v-5.4c0-1-0.2-1.7-0.6-2.1c-0.4-0.4-1-0.6-1.8-0.6
			c-0.6,0-1.1,0.1-1.5,0.4c-0.4,0.3-0.8,0.7-1.1,1.1v6.5l1.7,0.3v1.3H527.4z"/>
		<path d="M546.6,105.5v-1.3l1.7-0.3V92.2l-1.7-0.3v-1.3h1.7h2.7l4.8,11.3h0.1l4.7-11.3h4.5v1.3l-1.7,0.3v11.8l1.7,0.3v1.3h-5.4
			v-1.3l1.8-0.3v-4.3v-6.3l-0.1,0l-4.9,11.6h-1.3l-5-11.6l-0.1,0l0.1,6.2v4.3l1.8,0.3v1.3H546.6z"/>
		<path d="M566.6,105.5v-1.3l1.7-0.3V96l-1.7-0.3v-1.3h3.7v9.5l1.7,0.3v1.3H566.6z M568.2,91.7v-2.2h2.1v2.2H568.2z"/>
		<path d="M578.4,105.7c-1,0-1.9-0.2-2.6-0.7c-0.7-0.5-1.3-1.1-1.7-2s-0.6-1.8-0.6-2.9v-0.4c0-1.1,0.2-2,0.6-2.8s1-1.5,1.7-2
			c0.7-0.5,1.6-0.7,2.7-0.7c0.9,0,1.7,0.1,2.4,0.4c0.7,0.3,1.2,0.7,1.7,1.2l0.1,2.7h-1.6l-0.3-1.9c-0.2-0.2-0.5-0.4-0.9-0.6
			s-0.8-0.2-1.2-0.2c-0.6,0-1.1,0.2-1.6,0.5c-0.5,0.4-0.8,0.8-1.1,1.4s-0.4,1.3-0.4,2v0.4c0,0.8,0.1,1.5,0.4,2.1
			c0.2,0.6,0.6,1.1,1,1.4c0.4,0.3,1,0.5,1.6,0.5c0.7,0,1.3-0.2,1.7-0.6s0.7-0.9,0.8-1.5h1.8l0,0.1c0,0.6-0.2,1.2-0.6,1.8
			c-0.3,0.6-0.8,1-1.5,1.3C580.1,105.5,579.3,105.7,578.4,105.7z"/>
		<path d="M584.1,105.5v-1.3l1.7-0.3V91.1l-1.7-0.3v-1.3h3.7v6.4c0.4-0.5,0.9-0.9,1.4-1.2c0.6-0.3,1.2-0.4,1.8-0.4
			c1.2,0,2.1,0.4,2.8,1.1s1,1.8,1,3.3v5.4l1.7,0.3v1.3h-5.4v-1.3l1.7-0.3v-5.4c0-0.9-0.2-1.6-0.6-2c-0.4-0.4-1-0.7-1.8-0.7
			c-0.6,0-1.1,0.1-1.5,0.4c-0.5,0.3-0.8,0.6-1.1,1.1v6.6l1.7,0.3v1.3H584.1z"/>
		<path d="M597.7,105.5v-1.3l1.7-0.3V96l-1.7-0.3v-1.3h3.7v9.5l1.7,0.3v1.3H597.7z M599.3,91.7v-2.2h2.1v2.2H599.3z"/>
		<path d="M604.5,105.5v-1.3l1.7-0.3V96l-1.7-0.3v-1.3h3.5l0.1,1.7c0.4-0.6,0.8-1,1.4-1.4c0.6-0.3,1.2-0.5,1.9-0.5
			c1.2,0,2.1,0.4,2.8,1.1c0.7,0.7,1,1.8,1,3.2v5.4l1.7,0.3v1.3h-5.4v-1.3l1.7-0.3v-5.4c0-1-0.2-1.7-0.6-2.1c-0.4-0.4-1-0.6-1.8-0.6
			c-0.6,0-1.1,0.1-1.5,0.4c-0.4,0.3-0.8,0.7-1.1,1.1v6.5l1.7,0.3v1.3H604.5z"/>
		<path d="M618.3,105.5v-1.3l1.7-0.3V96l-1.7-0.3v-1.3h3.5l0.1,1.4c0.4-0.5,0.8-0.9,1.4-1.2s1.2-0.4,1.9-0.4s1.4,0.2,1.9,0.5
			c0.5,0.3,0.9,0.9,1.2,1.5c0.3-0.6,0.8-1.1,1.4-1.5s1.2-0.6,2-0.6c1.1,0,2,0.4,2.7,1.2c0.7,0.8,1,1.9,1,3.5v5.1l1.7,0.3v1.3h-5.4
			v-1.3l1.7-0.3v-5.1c0-1.1-0.2-1.9-0.6-2.3c-0.4-0.5-0.9-0.7-1.7-0.7c-0.7,0-1.3,0.2-1.7,0.7c-0.4,0.5-0.7,1.1-0.7,1.9v5.5l1.7,0.3
			v1.3H625v-1.3l1.7-0.3v-5.1c0-1-0.2-1.8-0.6-2.3c-0.4-0.5-0.9-0.7-1.7-0.7c-0.6,0-1.1,0.1-1.5,0.4c-0.4,0.3-0.7,0.6-0.9,1.1v6.6
			l1.7,0.3v1.3H618.3z"/>
		<path d="M642.1,105.7c-1.2,0-2-0.3-2.6-0.8c-0.6-0.6-0.9-1.4-0.9-2.4c0-0.7,0.2-1.3,0.6-1.8c0.4-0.5,0.9-0.9,1.7-1.2
			c0.7-0.3,1.6-0.4,2.6-0.4h2v-1.1c0-0.7-0.2-1.2-0.6-1.6c-0.4-0.4-1-0.6-1.7-0.6c-0.5,0-0.9,0.1-1.2,0.2c-0.3,0.1-0.7,0.3-0.9,0.5
			l-0.2,1.5h-1.6v-2.5c0.5-0.4,1.1-0.7,1.7-0.9c0.7-0.2,1.4-0.3,2.2-0.3c1.3,0,2.4,0.3,3.2,1s1.1,1.6,1.1,2.8v5.3c0,0.1,0,0.3,0,0.4
			c0,0.1,0,0.3,0,0.4l1.1,0.1v1.3h-2.9c-0.1-0.3-0.1-0.6-0.1-0.8c0-0.2-0.1-0.5-0.1-0.7c-0.4,0.5-0.9,0.9-1.5,1.2
			C643.4,105.5,642.8,105.7,642.1,105.7z M642.4,104c0.7,0,1.3-0.2,1.8-0.5c0.6-0.3,1-0.7,1.2-1.2v-2h-2.1c-0.9,0-1.6,0.2-2.1,0.7
			c-0.5,0.4-0.7,0.9-0.7,1.5c0,0.5,0.2,0.9,0.5,1.1C641.4,103.9,641.8,104,642.4,104z"/>
		<path d="M649.9,105.5v-1.3l1.7-0.3V91.1l-1.7-0.3v-1.3h3.7v6.4c0.4-0.5,0.9-0.9,1.4-1.2c0.6-0.3,1.2-0.4,1.8-0.4
			c1.2,0,2.1,0.4,2.8,1.1s1,1.8,1,3.3v5.4l1.7,0.3v1.3h-5.4v-1.3l1.7-0.3v-5.4c0-0.9-0.2-1.6-0.6-2c-0.4-0.4-1-0.7-1.8-0.7
			c-0.6,0-1.1,0.1-1.5,0.4c-0.5,0.3-0.8,0.6-1.1,1.1v6.6l1.7,0.3v1.3H649.9z"/>
		<path d="M668.5,105.7c-1.2,0-2.1-0.4-2.8-1.2c-0.7-0.8-1-2-1-3.6v-5l-1.3-0.3v-1.3h1.3h2v6.6c0,1.2,0.2,2,0.5,2.4s0.9,0.7,1.6,0.7
			c0.7,0,1.3-0.1,1.8-0.4c0.5-0.3,0.8-0.7,1.1-1.2V96l-1.5-0.3v-1.3h1.5h2v9.5l1.3,0.3v1.3h-3.1l-0.1-1.6c-0.3,0.6-0.8,1.1-1.3,1.4
			C669.9,105.5,669.2,105.7,668.5,105.7z"/>
		<path d="M676.3,105.5v-1.3l1.7-0.3V96l-1.7-0.3v-1.3h3.7v9.5l1.7,0.3v1.3H676.3z M677.9,91.7v-2.2h2.1v2.2H677.9z"/>
		<path d="M687.4,105.7c-0.9,0-1.7-0.2-2.3-0.7c-0.6-0.4-1.1-1.1-1.5-1.9c-0.3-0.8-0.5-1.7-0.5-2.8v-0.2c0-1.2,0.2-2.2,0.5-3.1
			s0.8-1.6,1.5-2.1c0.6-0.5,1.4-0.7,2.3-0.7c0.7,0,1.2,0.1,1.7,0.4c0.5,0.2,0.9,0.6,1.3,1.1v-4.5l-1.7-0.3v-1.3h1.7h2v14.4l1.7,0.3
			v1.3h-3.4l-0.2-1.3c-0.4,0.5-0.8,0.9-1.3,1.1C688.7,105.6,688.1,105.7,687.4,105.7z M688,104.1c0.6,0,1.1-0.1,1.5-0.4
			c0.4-0.3,0.7-0.7,1-1.2v-5.1c-0.3-0.5-0.6-0.8-1-1.1s-0.9-0.4-1.5-0.4c-0.6,0-1.2,0.2-1.6,0.5c-0.4,0.4-0.7,0.9-0.9,1.5
			c-0.2,0.6-0.3,1.4-0.3,2.3v0.2c0,1.1,0.2,2,0.7,2.7S687,104.1,688,104.1z"/>
		<path d="M699.2,105.7c-1.2,0-2-0.3-2.6-0.8c-0.6-0.6-0.9-1.4-0.9-2.4c0-0.7,0.2-1.3,0.6-1.8c0.4-0.5,0.9-0.9,1.7-1.2
			c0.7-0.3,1.6-0.4,2.6-0.4h2v-1.1c0-0.7-0.2-1.2-0.6-1.6c-0.4-0.4-1-0.6-1.7-0.6c-0.5,0-0.9,0.1-1.2,0.2c-0.3,0.1-0.7,0.3-0.9,0.5
			l-0.2,1.5h-1.6v-2.5c0.5-0.4,1.1-0.7,1.7-0.9c0.7-0.2,1.4-0.3,2.2-0.3c1.3,0,2.4,0.3,3.2,1s1.1,1.6,1.1,2.8v5.3c0,0.1,0,0.3,0,0.4
			c0,0.1,0,0.3,0,0.4l1.1,0.1v1.3h-2.9c-0.1-0.3-0.1-0.6-0.1-0.8c0-0.2-0.1-0.5-0.1-0.7c-0.4,0.5-0.9,0.9-1.5,1.2
			C700.4,105.5,699.8,105.7,699.2,105.7z M699.5,104c0.7,0,1.3-0.2,1.8-0.5c0.6-0.3,1-0.7,1.2-1.2v-2h-2.1c-0.9,0-1.6,0.2-2.1,0.7
			c-0.5,0.4-0.7,0.9-0.7,1.5c0,0.5,0.2,0.9,0.5,1.1C698.4,103.9,698.8,104,699.5,104z"/>
	</g>
</g>
</svg>
