<svg xmlns="http://www.w3.org/2000/svg" viewBox="0 0 100 100">
    <defs>
        <style>
            .cls-1 {
                isolation: isolate;
            }
            .cls-2 {
                fill: #2bbba0;
            }
            .cls-21,
            .cls-22,
            .cls-3,
            .cls-4 {
                fill: none;
                stroke-miterlimit: 10;
            }
            .cls-3 {
                stroke: #2bbba0;
            }
            .cls-3,
            .cls-4 {
                stroke-width: 0.5px;
            }
            .cls-4 {
                stroke: #58595c;
            }
            .cls-5 {
                fill: #58595c;
            }
            .cls-6 {
                font-size: 2px;
                font-family: 'Work Sans', sans-serif;
                font-weight: 500;
            }
            .cls-7 {
                letter-spacing: -0.02em;
            }
            .cls-8 {
                letter-spacing: 0em;
            }
            .cls-9 {
                letter-spacing: -0.02em;
            }
            .cls-10 {
                letter-spacing: -0.01em;
            }
            .cls-11 {
                letter-spacing: -0.01em;
            }
            .cls-12 {
                letter-spacing: -0.08em;
            }
            .cls-13 {
                letter-spacing: -0.05em;
            }
            .cls-14 {
                letter-spacing: -0.01em;
            }
            .cls-15 {
                font-size: 2px;
                font-family: 'Work Sans', sans-serif;
                font-style: italic;
            }
            .cls-15,
            .cls-19 {
                font-weight: 300;
            }
            .cls-16 {
                letter-spacing: 0em;
            }
            .cls-17 {
                letter-spacing: 0em;
            }
            .cls-18 {
                letter-spacing: -0.07em;
            }
            .cls-19 {
                font-size: 7px;
                font-family: 'Work Sans', sans-serif;
            }
            .cls-20,
            .cls-22 {
                mix-blend-mode: multiply;
            }
            .cls-21,
            .cls-22 {
                stroke: #ccc;
                stroke-width: 0.25px;
            }
        </style>
    </defs>
    <title>riñihuazo</title>
    <g class="cls-1">
        <g id="Figura_1" data-name="Figura 1">
            <g id="Agua">
                <path
                    class="cls-2"
                    d="M75.76,53.4a.22.22,0,0,1,.15-.33,3.25,3.25,0,0,1,1.16.07,2.58,2.58,0,0,0,1.28,0,.2.2,0,0,1,.17,0l1.45.87a.14.14,0,0,0,.09,0l1.37.1a.19.19,0,0,1,.1,0l.74.47a.23.23,0,0,0,.11,0l2.28.1a.24.24,0,0,1,.14,0l.78.69,1.22,1.12a.31.31,0,0,0,.1,0l.81.18a.22.22,0,0,1,.13.08l.32.4a.17.17,0,0,0,.13.07l.48.08a.19.19,0,0,1,.12.07l.36.36,0,0a12,12,0,0,0,1.67,1.77,14,14,0,0,1,1.75,1.54.14.14,0,0,0,.1.05,13.1,13.1,0,0,1,2,.59.53.53,0,0,1,.12.32.21.21,0,0,1-.16.24l-.47.13a.22.22,0,0,0-.17.23l0,.15a.22.22,0,0,0,.21.2h.44a.2.2,0,0,1,.13,0l.81.64a.24.24,0,0,0,.14,0H97a.22.22,0,0,1,.14.05l.72.64a.24.24,0,0,1,.06.09l.28.69a.19.19,0,0,1,0,.08v1.15a.2.2,0,0,1-.11.19l-.21.11a.23.23,0,0,1-.26,0l-.56-.55-.07,0-1.25-.58,0,0-.52-.34a.2.2,0,0,0-.15,0L94,65.52a.17.17,0,0,1-.1,0L93,65.23a.15.15,0,0,1-.07,0L92,64.52a.27.27,0,0,1-.08-.19l0-.4a.25.25,0,0,0-.09-.2L90.82,63,90,62.42a.21.21,0,0,1-.09-.22v-.05a.21.21,0,0,0-.22-.26h-.18a.2.2,0,0,1-.19-.1l-.11-.18a.2.2,0,0,0-.2-.1l-.26,0a.2.2,0,0,1-.22-.13l-.08-.2a.2.2,0,0,0-.21-.13h-.2a.2.2,0,0,1-.13,0l-2.59-1.67a.22.22,0,0,1-.1-.18l0-.63a.22.22,0,0,0-.1-.18l-.48-.29-.46-.32,0,0-.26-.32a.22.22,0,0,0-.2-.08l-.84.1a.25.25,0,0,0-.16.11l-.13.21a.22.22,0,0,1-.32.06h0a.21.21,0,0,0-.32.07l-.1.18a.27.27,0,0,1-.07.08l-.42.28a.23.23,0,0,1-.14,0l-.87-.06h0l-1,0-.1,0-.66-.34,0,0-.7-.18a.17.17,0,0,0-.1,0L77.2,58a.22.22,0,0,1-.26-.22v-.38a.17.17,0,0,1,0-.1l.27-.48a.19.19,0,0,1,.1-.1l.6-.26a.23.23,0,0,1,.14,0l.67.15a.22.22,0,0,0,.24-.12l.18-.36a.23.23,0,0,0-.08-.28L76.88,54.4l0,0-1-.81,0,0Z"
                />
                <path
                    class="cls-2"
                    d="M102.27,58.54l.06-.28a.13.13,0,0,0-.1-.16l-.3-.07a.13.13,0,0,1-.1-.13v-.28a.14.14,0,0,0-.09-.13l-.7-.21a.13.13,0,0,1-.06-.05l-.71-.9a.11.11,0,0,1,0-.08v-.57a.14.14,0,0,0,0-.07l-.29-.4a.13.13,0,0,0-.17,0l-.56.33a.16.16,0,0,1-.12,0l-.37-.17a.15.15,0,0,1-.07-.12v-.57l.2-.64v-.08l-.19-.71,0-.06-.93-.93,0,0-.9-.47,0,0-.8-.68a.16.16,0,0,1,0-.07l-.17-.73,0-.05-.91-1.14a.16.16,0,0,0-.1,0h-.54a.1.1,0,0,1-.07,0l-.52-.34-.49-.32,0,0-.25-.07a.13.13,0,0,1-.07-.2l.07-.09a.11.11,0,0,1,.1-.06h.21a.12.12,0,0,0,.13-.14l0-.2s0,0,0,0l-.12-.38a.13.13,0,0,0-.22-.05l-.19.2a.13.13,0,0,1-.13,0l-.39-.12,0,0-.75-.67,0,0-.72-.31a.14.14,0,0,0-.09,0l-.92.29a.09.09,0,0,0,0,0l-.4.44A.15.15,0,0,1,89,47l-.76-.08-.65-.06L87,46.75s0,0-.06,0l-.2-.14a.1.1,0,0,0-.09,0l-.65.07,0,0-.68.36a.13.13,0,0,1-.12,0l-.65-.34h-.07l-.44,0a.13.13,0,0,1-.13-.08l-.13-.32v0l-.16-.84a.12.12,0,0,1,0-.12L84,45l0,0,.25-.36,0,0,.37-.19h0l.57-.17a.13.13,0,0,1,.15.05l.09.16a.12.12,0,0,1,0,.14l-.09.12a.12.12,0,0,0,.1.2h.12a.14.14,0,0,0,.11,0L86,44.5a.14.14,0,0,1,.08,0l.38-.08a.16.16,0,0,0,.08-.06l.12-.2a.08.08,0,0,0,0-.07l0-.64v0l.11-.53a.14.14,0,0,1,.09-.09l.31-.1a.13.13,0,0,1,.14,0l.14.16a.13.13,0,0,0,.14,0l.47-.13h.07l.4.12a.12.12,0,0,1,.08.06l.24.45a.13.13,0,0,0,.09.07l.51.09h0l.12.07a.18.18,0,0,1,.07.08l.06.26a.15.15,0,0,0,.14.1l.42,0h0l.21-.09a.13.13,0,0,0,.07-.17l-.12-.3a.12.12,0,0,0-.1-.08h-.15a.14.14,0,0,1-.11-.16l.06-.28a.14.14,0,0,0-.08-.15l-.4-.14,0,0-.26-.23s0,0,0,0L89,41.74a.12.12,0,0,0-.11-.07H87.72l-1.3-.36a.14.14,0,0,1-.09-.08l-.25-.65,0,0-.65-.48,0,0-.28-.35a.12.12,0,0,1,0-.16l.15-.18a.12.12,0,0,1,.08,0l1-.1h.8l.09,0,.5.48s0,0,0,0l.54.29h0l.38.12a.13.13,0,0,1,.09.1l0,.21a.14.14,0,0,0,.13.11l.61,0a.11.11,0,0,0,.07,0l.48-.36,0,0,.2-.31a.14.14,0,0,0,0-.06l0-.49a.11.11,0,0,1,.06-.11l.9-.5a.13.13,0,0,0,.06-.1l.1-.79v0l.08-.33a.14.14,0,0,1,.13-.1h.77a.16.16,0,0,0,.1,0l.43-.54h0l.14-.26a.13.13,0,0,1,.17-.05l.23.11a.12.12,0,0,1,.07.11v.63h0l-.06.8v0l-.11.45a.18.18,0,0,1-.05.07l-.48.39h0l-.26.28-.06,0-.47.12a.13.13,0,0,0-.09.17l.08.25,0,0,.16.21a.12.12,0,0,0,.16,0l.54-.25,0,0,.36-.32,0,0,.31-.44a.13.13,0,0,1,.14,0l.16,0,0,0,.22.2a.12.12,0,0,1,0,.14l-.11.3h0l-.09.36v0l-.06.41,0,0-.54,1.17a.13.13,0,0,0,0,.12l.29.54.33.63a.14.14,0,0,1,0,.11l-.18.39a.2.2,0,0,0,0,.07l.09.55a0,0,0,0,1,0,0l.31.77a0,0,0,0,1,0,0l.06.6a.14.14,0,0,0,0,.06l.34.48v0l.15.34s0,0,0,.05v.17a.09.09,0,0,0,0,.08l.3.29h0l1,.73,0,0,.57.85s0,0,0,.05l.11.55a.08.08,0,0,0,0,0l.27.42a.15.15,0,0,0,.09.06l.49.08h0l.87,0a.13.13,0,0,1,.08,0l.82.7,0,0,.28.43a.13.13,0,0,1,0,.12l0,.11a.13.13,0,0,0,.08.17l.25.08h0l.43.2h0l.65.15a.13.13,0,0,1,.1.09l.31.95h0l.14.66a.12.12,0,0,1-.07.15l-.5.22h0l-.34.24a.13.13,0,0,0,0,.17l.26.43a.08.08,0,0,1,0,0l.08.82a.09.09,0,0,0,0,.05l.2.37a.13.13,0,0,0,.12.07l1-.06h0l.65-.17h0l.18-.07a.11.11,0,0,1,.16.07l.23.51s0,0,0,0l.22.28a.13.13,0,0,0,.19,0l.24-.23a.09.09,0,0,1,.07,0l.1,0a.13.13,0,0,1,.14.13v.1a.13.13,0,0,1,0,.1l-.31.26a.11.11,0,0,0,0,.13l.07.25a.05.05,0,0,0,0,0l.25.36a.14.14,0,0,1,0,.15l-.41.61a.17.17,0,0,1-.11.06h-.88l-.54.11h-.08l-.39-.19-.07,0A.12.12,0,0,1,102.27,58.54Z"
                />
                <path
                    class="cls-2"
                    d="M97,31.74h0a.23.23,0,0,0,.21,0l.38-.12a.28.28,0,0,1,.26.07l0,.07a.26.26,0,0,0,.3.05l.64-.34a.22.22,0,0,1,.16,0l.51.11a.24.24,0,0,0,.24-.09l.2-.26,0-.06.2-.56s0,0,0-.05l.11-.15a.23.23,0,0,1,.2-.11h.1a.25.25,0,0,0,.24-.21l0-.15a.24.24,0,0,0-.24-.27h-.21l-.17.06a.23.23,0,0,1-.28-.1l-.14-.21a.25.25,0,0,0-.24-.11l-.12,0a.25.25,0,0,0-.2.28l0,.1a.24.24,0,0,1-.19.27l-.4.09a.31.31,0,0,0-.1.05l-.4.31,0,0-.24.13-.11,0h-.29a.23.23,0,0,0-.21.13l-.22.41-.17.27A.25.25,0,0,0,97,31.74Z"
                />
                <path
                    class="cls-2"
                    d="M102.38,28.8V28a.13.13,0,0,0-.08-.12l-.44-.2a.13.13,0,0,0-.12,0l-.15.09a.12.12,0,0,1-.15,0l-.52-.46a.12.12,0,0,0-.09,0h-.56a.16.16,0,0,0-.09,0l-.65.64a.05.05,0,0,0,0,.05l-.13.39a.11.11,0,0,1-.07.08l-.79.33h0l-1.28.38h0l-1.28.7h0l-1.5.42a.13.13,0,0,1-.12,0l-.1-.09a.13.13,0,0,0-.19,0l-.36.46h0l-1.41,1.27a.1.1,0,0,1-.1,0l-.93-.15a.2.2,0,0,1-.08,0l-.4-.47a.11.11,0,0,1,0-.11l.07-.4a.12.12,0,0,0-.17-.14l-.75.3-.78.27a.14.14,0,0,1-.16-.05l-.29-.51v0L88.31,30v-.29a.13.13,0,0,1,.09-.12l.44-.13a.13.13,0,0,0,.07-.19l-.19-.29h0l-.2-.36a.13.13,0,0,1,0-.16L89,28a.11.11,0,0,0,0-.09l0-.44a.14.14,0,0,0-.11-.13l-.37-.06a.14.14,0,0,1-.08-.05L88.35,27a.11.11,0,0,1,0-.11l.08-.42a.1.1,0,0,1,0-.08l1.12-.85.06,0,2.71-.4h1l1.07-.52s0,0,0,0l.27-.34a.09.09,0,0,1,.06,0l1.07-.39h0l.75-.16a.1.1,0,0,0,.07,0l.13-.16a.11.11,0,0,1,.13,0l.61.14a.08.08,0,0,1,.06,0l.44.48,0,0,.27.16a.14.14,0,0,0,.14,0l.14-.09a.13.13,0,0,0,0-.22l-.26-.16a.14.14,0,0,1,0-.16l.08-.2,0,0,.27-.28h0l.62-.49a.14.14,0,0,1,.17,0l.38.33a.21.21,0,0,1,0,.06l.13.38a.14.14,0,0,0,.11.09l1.15.15a.12.12,0,0,1,.11.1l.12.61.1.66a.13.13,0,0,0,.14.11l.7,0,.08,0,.48.36h0l1.26.46.61.2a.13.13,0,0,1,.09.15l-.14.48v0l-.11,1.12A.14.14,0,0,0,105,28h.59a.14.14,0,0,1,.11.06l.37.54a.16.16,0,0,0,.08.06l1,.21h0l.74.27.44.16a.11.11,0,0,1,.08.12v.12a.13.13,0,0,0,.15.12l.45-.05a.12.12,0,0,1,.11,0l.47.5a0,0,0,0,1,0,0l.22.42a.14.14,0,0,1,0,.11l-.23.58s0,0,0,0l-.59.78a.11.11,0,0,1-.11,0L107.75,32h0l-1.21-.47s0,0-.06,0l-.71-.89,0,0-1-.65,0,0-.65-.61a.05.05,0,0,0,0,0l-.87-.23-.63-.13A.14.14,0,0,1,102.38,28.8Z"
                />
                <path
                    class="cls-3"
                    d="M12.62,62.08l.9-1a.43.43,0,0,0,.11-.39c-.08-.37-.19-1.1,0-1.25s.52-.63,1.15.1.74,1.05,1.37.84.31-2.73.52-2.94,1.27-1.16,1.79-1,1.47,1.9,2.1,1.79a3.06,3.06,0,0,0,2.63-1.68c.59-1.18,1.86.48,2.34,1.18a.43.43,0,0,0,.51.17,5,5,0,0,1,2.2-.4c.56.18,2.46-.55,2.86-.71a.47.47,0,0,0,.14-.08l1-.88a.42.42,0,0,1,.32-.11l2.2.08a.47.47,0,0,1,.37.22c.23.38.79,1.19,1.35,1.27.73.1,1,.1.94.73s1.48,1,1.79.74l1.61-1a.44.44,0,0,1,.16-.06,3.25,3.25,0,0,1,1.81.11.45.45,0,0,0,.29.12h.44c.22,0,.48.54.63.88a.43.43,0,0,0,.41.27H46a.44.44,0,0,1,.43.32,1.08,1.08,0,0,1,0,.73c-.19.47.38.85.43,1.38a.46.46,0,0,0,.18.33l.63.45a.39.39,0,0,0,.29.09c.47,0,1.87-.08,2.32.63a1.15,1.15,0,0,0,.14.17c.16.11.43.2.43-.63,0-1.15,1.15-.73,1.15-.73a1.52,1.52,0,0,0,2-1.16,3.92,3.92,0,0,0,.16-2,.44.44,0,0,1,0-.3A7.17,7.17,0,0,0,54.57,57c0-.23.51-.58.78-.74a.47.47,0,0,0,.21-.3,8.24,8.24,0,0,0,.17-1.38c0-.63,1.05-.84,1.36-1.57.11-.26.18-.44.23-.57a.64.64,0,0,1,.4-.37l.14,0a.45.45,0,0,0,.32-.38l0-.25a.45.45,0,0,1,.45-.4h.23a.62.62,0,0,0,.38-.14l.13-.1a.44.44,0,0,1,.48,0l.48.23a.46.46,0,0,0,.23.05L61.64,51a.46.46,0,0,1,.32.1l.45.38a.44.44,0,0,0,.35.11l.37-.06a.49.49,0,0,1,.31.07l.37.25a.46.46,0,0,0,.25.08h.74l.14,0,.39.13a.45.45,0,0,0,.34,0l2.38-1.15.17,0,1.32-.09.12,0,1-.37a.45.45,0,0,1,.16,0h1l.58-.15a.46.46,0,0,1,.38.08l.61.46.13.07.44.14a.48.48,0,0,1,.2.14l.45.53L75,52a.53.53,0,0,1,.11.21.77.77,0,0,0,.07.16l.59.85"
                />
                <path
                    class="cls-3"
                    d="M92.53,37.27l0-.78v-.68l-.09-.57v-.19a.44.44,0,0,1,.19-.36l.32-.22a.61.61,0,0,1,.14-.07l.38-.1a.37.37,0,0,1,.21,0h0a.44.44,0,0,0,.39-.11l.47-.46a.4.4,0,0,1,.18-.1l.41-.14a.41.41,0,0,1,.22,0l.13,0a.45.45,0,0,0,.55-.34l.17-.88a.31.31,0,0,1,.09-.18l.12-.15a.4.4,0,0,1,.22-.14l.13,0,.12-.06.06,0"
                />
                <path class="cls-3" d="M98.2,66.64l1-.5.14-.11.82-1,0,0,.9-.82,0,0,.29-.31a.56.56,0,0,0,.09-.17l1.33-4.38a.43.43,0,0,1,0,0l.17-.38" />
            </g>
            <circle class="cls-4" cx="71.4" cy="50.36" r="4.23" />
            <g id="Pueblos">
                <polygon
                    class="cls-5"
                    points="12.24 62.02 12.56 62.66 12.98 62.55 12.98 62.02 13.61 62.02 13.61 62.55 14.03 62.87 14.35 63.08 14.98 62.87 14.77 63.28 14.87 63.71 14.98 64.13 15.29 63.71 15.71 63.6 16.55 63.6 17.18 63.39 17.5 63.08 16.97 62.55 17.29 62.13 17.5 61.71 17.29 61.18 16.87 60.87 16.76 60.03 17.08 58.98 17.5 58.45 18.23 58.03 17.5 57.29 17.08 57.4 16.76 58.03 16.34 58.24 16.24 57.82 16.13 57.5 15.71 57.82 15.82 58.24 15.82 58.77 15.66 59.03 14.92 59.13 14.5 58.92 13.77 58.61 13.45 58.08 12.93 58.19 12.61 58.5 12.61 58.82 12.09 58.82 11.98 58.5 11.66 58.82 11.77 59.34 12.4 60.08 12.93 60.39 13.24 60.71 12.93 61.34 12.24 62.02"
                />
                <circle class="cls-5" cx="71.4" cy="50.28" r="0.51" />
                <circle class="cls-5" cx="73.01" cy="50.36" r="0.51" />
                <circle class="cls-5" cx="69.41" cy="50.78" r="0.51" />
                <circle class="cls-5" cx="30.22" cy="57.19" r="1.01" />
                <circle class="cls-5" cx="39.9" cy="58.2" r="1.01" />
                <circle class="cls-5" cx="47.49" cy="62.41" r="1.01" />
            </g>
            <line class="cls-4" x1="71.4" y1="39.23" x2="71.4" y2="46.15" />
            <polygon
                class="cls-2"
                points="15.28 49.85 17.33 49.85 18.23 49.17 19.43 48.73 20.16 47.9 21.14 47.17 21.71 46.87 22.75 47.41 24.6 47.21 28.22 47.02 27.97 46.09 26.12 44.82 24.9 46.19 23.58 46.34 22.65 46.14 21.97 45.26 21.19 45.6 19.87 45.8 19.48 45.12 19.82 44.73 20.92 43.93 21.14 42.63 21.23 41.5 22.21 39.84 21.38 40.19 20.65 40.28 20.55 38.87 21.38 37.84 22.65 36.09 21.97 36.43 20.7 37.16 21.38 36.18 20.92 35.45 19.67 36.87 18.89 38.04 19.18 39.21 19.18 41.89 19.18 43.6 17.92 43.93 17.04 46.24 16.16 47.95 15.47 48.19 13.81 48.63 13.81 49.7 12.35 50.53 11.23 49.7 9.76 50.14 8.69 51.71 9.86 51.51 11.66 50.78 11.66 51.56 12.35 52.29 10.79 57.33 10.3 58.54 10.98 59.47 10.5 60 10.94 61.27 11.33 62.64 10.54 64.13 9.62 64.13 8.2 63.42 6.93 64.4 5.37 64.4 3.86 65.28 2.34 65.52 1.74 65.9 1.52 66.05 1.13 66.01 0.8 65.88 -0.19 65.97 0.53 64.13 0.8 63.3 -0.9 63.3 -0.9 62.08 -0.01 60.37 -0.63 59.14 0.89 57.67 0.8 56.17 0.35 54.96 1.07 54.09 0.8 52.6 0.44 50.14 -0.72 48.43 -0.63 47.44 -0.1 45.47 1.8 45.47 3.03 44.35 2.82 43.72 4.26 43.33 4.3 42.27 3.54 41.51 4 41.04 5.11 41.04 5.83 40.49 7.23 39.18 7.31 36.89 8.54 36.25 8.5 34.94 9.81 33.96 10.7 33.11 10.7 31.8 10.2 30.02 9.9 29.13 11.09 28.53 10.79 28.11 12.32 28.11 13.62 26.45 12.62 24 14.39 13.13 12.62 11.66 12.62 0.88 13.74 0.39 -31.8 0.39 -31.8 85.14 -12.64 85.14 -14.16 83.26 -13.23 72.77 -12.01 73.13 -10.82 72.32 -9.12 70.89 -8.69 70.4 -7.26 68.39 -6 65.79 -5.47 64.13 -3.32 64.81 -1.53 65.61 -2.33 67.24 -2.78 68.21 -0.81 69.33 0.17 71.25 -1.08 72.95 0.17 75.1 2.59 74.74 2.59 72.06 0.89 70.4 1.6 68.92 3.4 71.16 4.65 71.97 5.18 70.4 6.17 71.61 6.17 73.4 6.97 75.46 8.94 75.64 7.51 72.59 6.88 70.8 5.27 69.33 3.84 68.83 2.95 67.76 1.87 67.24 2.1 66.92 2.93 66.72 3.81 66.4 4.49 66.11 6.64 65.67 7.86 65.03 7.86 66.01 8.59 65.57 9.42 66.06 10.06 67.24 10.89 67.57 10.98 68.79 12.4 69.33 12.62 69.77 11.66 71.62 12.16 71.96 12.62 70.94 13.38 70.4 13.43 71.33 14.26 71.87 14.26 70.4 13.28 68.64 12.4 67.24 13.18 66.72 14.95 67.47 15.28 67.67 16.3 68.55 18.23 68.94 19.72 68.11 20.55 68.84 20.92 70.11 20.92 71.04 22.31 71.38 22.41 72.65 22.99 73.38 23.77 72.79 23.87 70.94 22.16 69.91 21.71 68.35 20.92 66.3 20.06 66.72 19.04 66.98 17.72 67.52 16.74 67.24 15.91 65.86 14.67 66.5 13.33 65.57 12.16 65.86 12.16 63.71 12.93 60.39 12.3 59.14 11.66 58.2 12.2 56.72 14.3 53.17 14.3 52.19 13.77 51.12 14.21 49.8 15.28 49.85"
            />
            <text class="cls-6" transform="translate(22.34 54.15)">HUELLELHUE</text>
            <text class="cls-6" transform="translate(31.93 62.41)">ANTILHUE</text>
            <text class="cls-6" transform="translate(41.94 67.24)">
                <tspan class="cls-7">L</tspan>
                <tspan class="cls-8" x="1.26" y="0">OS L</tspan>
                <tspan class="cls-9" x="6.07" y="0">A</tspan>
                <tspan x="7.37" y="0">GOS</tspan>
            </text>
            <text class="cls-6" transform="translate(80.81 64.13)">
                L
                <tspan class="cls-9" x="1.31" y="0">A</tspan>
                <tspan x="2.6" y="0">GO</tspan>
                <tspan x="-1.39" y="2.68">RIÑIHUE</tspan>
            </text>
            <text class="cls-6" transform="translate(63.27 38.5)">
                <tspan class="cls-10">Z</tspan>
                <tspan x="1.25" y="0">O</tspan>
                <tspan class="cls-11" x="2.74" y="0">N</tspan>
                <tspan x="4.21" y="0">A DE</tspan>
                <tspan class="cls-12" x="9.74" y="0">T</tspan>
                <tspan class="cls-9" x="10.83" y="0">A</tspan>
                <tspan x="12.13" y="0">COS</tspan>
            </text>
            <text class="cls-6" transform="translate(85.54 49.77)">
                L
                <tspan class="cls-9" x="1.31" y="0">A</tspan>
                <tspan x="2.6" y="0">GO</tspan>
                <tspan class="cls-13" x="-3.98" y="2.68">P</tspan>
                <tspan x="-2.81" y="2.68">ANGUIPULLI</tspan>
            </text>
            <text class="cls-6" transform="translate(78.35 22.52)">
                L
                <tspan class="cls-9" x="1.31" y="0">A</tspan>
                <tspan x="2.6" y="0">GO CALA</tspan>
                <tspan class="cls-14" x="11.63" y="0">F</tspan>
                <tspan x="12.85" y="0">QUEN</tspan>
            </text>
            <text class="cls-15" transform="translate(60.73 55.07)">
                RÍO
                <tspan class="cls-16">
                    <tspan x="-3.61" y="2.47">S</tspan>
                    <tspan class="cls-17" x="-2.47" y="2.47">AN PEDRO</tspan>
                </tspan>
            </text>
            <text class="cls-15" transform="translate(42.69 53.05)">
                RÍO
                <tspan x="-4.43" y="2.47">CALLE CALLE</tspan>
            </text>
            <text class="cls-15" transform="translate(86.14 33.41)">
                RÍO
                <tspan x="-1.67" y="2.47">ZAHUIT</tspan>
            </text>
            <text class="cls-6" transform="translate(15.28 66.71)">
                <tspan class="cls-18">V</tspan>
                <tspan x="1.18" y="0">ALDIV</tspan>
                <tspan class="cls-11" x="7.25" y="0">I</tspan>
                <tspan x="7.84" y="0">A</tspan>
            </text>
            <text class="cls-19" transform="translate(84.67 16.33)">N</text>
            <text class="cls-19" transform="translate(84.28 10.81)">↑</text>
        </g>
        <g id="Capa_7" data-name="Capa 7">
            <g class="cls-20">
                <circle class="cls-21" cx="15.28" cy="60.71" r="4.53" />
                <ellipse class="cls-22" cx="15.28" cy="60.71" rx="9.22" ry="9.37" />
                <ellipse class="cls-22" cx="15.28" cy="60.71" rx="13.9" ry="14.2" />
                <ellipse class="cls-22" cx="15.28" cy="60.71" rx="18.58" ry="19.03" />
                <ellipse class="cls-22" cx="15.28" cy="60.71" rx="23.26" ry="23.87" />
            </g>
        </g>
    </g>
</svg>
