<?xml version="1.0" encoding="utf-8"?>
<!-- Generator: Adobe Illustrator 22.0.1, SVG Export Plug-In . SVG Version: 6.00 Build 0)  -->
<svg version="1.1" id="Capa_1" xmlns="http://www.w3.org/2000/svg" xmlns:xlink="http://www.w3.org/1999/xlink" x="0px" y="0px"
	 viewBox="0 0 200 100" style="enable-background:new 0 0 200 100;" xml:space="preserve">
<style type="text/css">
	.st0{fill:#2BBBA0;}
	.st1{fill:#9B9B9B;}
	.st2{fill:#708088;}
	.st3{fill:#CCCCCC;}
</style>
<title>riñihuazo</title>
<g id="Capa_2_1_">
	<rect x="85.2" y="54.9" class="st0" width="16.6" height="10.3"/>
	<polygon class="st0" points="71.2,27.2 98.2,55.3 97.2,55.9 71.2,27.5 	"/>
	<rect x="85.2" y="39" transform="matrix(0.988 -0.1545 0.1545 0.988 -7.0142 13.8802)" class="st1" width="1.2" height="26"/>
	<rect x="86.1" y="51.4" transform="matrix(0.2031 -0.9792 0.9792 0.2031 28.0625 138.5172)" class="st1" width="26" height="1.2"/>
	<polygon class="st1" points="99,52.2 98.9,52.5 99,52.8 99.1,53 99.1,53.2 92.8,53.2 85,53.2 84.7,53 85.3,52.1 98.4,52.1 99,52 
		99.1,52.1 	"/>
	<polygon class="st1" points="84.1,47.7 84.2,47.4 84.1,47.1 84,47 84,46.7 91,46.7 99.6,46.7 99.9,46.9 99.3,47.8 84.8,47.8 
		84.2,47.9 84.1,47.8 	"/>
	<polygon class="st0" points="109.2,28.7 86.9,55.2 87.6,57 109.2,28.9 	"/>
	<path class="st2" d="M71.4,27.1c-0.1,0-0.2-0.1-0.2-0.1l-1.1-1c-0.2-0.1-0.3-0.2-0.4-0.4c0,0-0.1,0-0.1,0c0,0,0,0,0,0
		c0,0-0.1,0-0.1,0l-0.2-0.1l0,0c0,0-2.2-1.2-3.9-1.9c-2-0.9-4.8,1.9-5,2l-1.9,1.7c-2,1.7-4.4,2.7-7,3.1l0.1,0.7
		c2.7-0.4,5.3-1.5,7.4-3.3l1.9-1.7c0.7-0.7,2.9-2.4,4.2-1.9c1.7,0.8,3.9,1.9,3.9,1.9l0.2,0.2c0,0,0.1,0.1,0.1,0.1c0,0,0.1,0,0.1,0
		l1.6,1c0.1,0,0.1,0.1,0.1,0.1c0,0,0.1,0.1,0.1,0c0,0,0,0,0,0c0.1-0.1,0.2-0.2,0.3-0.4S71.5,27.1,71.4,27.1z"/>
	<path class="st2" d="M68.7,25.2l-0.1-0.1l-0.2-0.1L68.2,25l-0.2-0.1l-0.2,0.1l-0.3,0.6l-0.3,0.5L67,26.8l-0.4,0.1l0.1-0.5l0.4-0.8
		v-0.3L67,24.8l-0.1-0.4l-0.1-0.2v-0.1l0.1-0.3l0.2-0.4v-0.4h0.1c0.1,0,0.2-0.1,0.1-0.2c-0.1-0.1-0.1-0.3-0.1-0.4
		c-0.1-0.2-0.2-0.5-0.4-0.6c0,0-0.1-0.1-0.2-0.1s-0.1,0-0.2-0.2h-0.2c-0.1,0.2-0.2,0.1-0.2,0.1c-0.3,0.1-0.6,0.4-0.7,0.7
		c0,0.1-0.1,0.3-0.1,0.4c0,0,0,0.1,0,0.1c0,0,0.1,0,0.1,0c0,0,0,0,0,0h0.1l-0.1,0.9l-0.5,0L64,24l-1,2l-0.1,0.8l-0.1,0.3v0.1
		l-0.5,1.3l0.2,1.2l0.2,0.1l0.1,0.3l0.2,0.3l0.2,0.3l-0.1,0.9l0.3,0.2l-0.2,0.1L63,32.8l-0.2,0.1v0.4l-0.2,0.1v0.2l-0.4,0.3v0.9
		l-0.4,0.6l-0.3,0.3v0.2l0.3,0.3l0.8,0.3l0.2,0.1v-0.4l-0.1-0.4l0.3-0.3l0.4-0.4l0.3-0.3v0.6l0.3,0.5l0.2,0.3L64,36.8l0.2,0.2
		l1.4,0.5h0.5L65.9,37l-0.4-0.2l-0.3-0.4v-0.2l0.1-0.2l-0.1-0.5l0.2-1.2l0.1-1.3v-2.5l-0.2-1.2l0.3-1.3h1.1l1.1-0.5l0.1-0.3v-0.6
		l0.2-0.5l0.4-0.3l0.3-0.4l0.1-0.1L68.7,25.2z"/>
	<path class="st2" d="M125.1,35.8c0-0.1,0-0.3-0.1-0.4s-0.1-0.1-0.2-0.1c-0.7,0.1-1.5,0-2.2-0.1c-0.4-0.1-0.8-0.3-1.2-0.6
		c-0.4-0.4-0.7-1-0.7-1.5c0-0.7,0-1.4,0.1-2c0.1-0.5,0.1-1,0.1-1.5c0-0.7-0.3-1.3-0.7-1.8c-0.1-0.2-0.1-0.2,0-0.4s0.2-0.4,0.3-0.5
		c0.2-0.2,0.2-0.5,0.2-0.8c0-0.1,0-0.3,0-0.4c0-0.2,0-0.5-0.2-0.7c-0.1-0.1-0.2-0.1-0.3-0.2s-0.2-0.1-0.2-0.2s-0.1-0.1-0.1-0.1
		c-0.3-0.2-0.5-0.3-0.8-0.5h-0.1c-0.2,0.1-0.2,0-0.3-0.1c-0.1-0.2-0.3-0.3-0.5-0.3h-0.8c-0.1,0-0.2,0-0.2-0.1
		c-0.1-0.1-0.1-0.2-0.2-0.2s0,0,0,0H117c0-0.1,0-0.1,0-0.2c0-0.1,0-0.3,0-0.4c0,0,0-0.1,0-0.1c0-0.1,0-0.1,0-0.2c0,0,0,0,0,0
		l0.1-0.1c0.1-0.1,0-0.2,0-0.2c0,0-0.1-0.1-0.1-0.1c-0.1-0.1-0.2-0.2-0.3-0.2l-0.1,0l0,0c0,0-0.1,0-0.1,0s0,0-0.1,0
		c-0.1-0.1-0.3-0.1-0.4,0c-0.2,0.1-0.5,0.2-0.6,0.5c0,0-0.1,0.1-0.1,0.1l-0.5,0.1c-0.1,0-0.1,0-0.1,0.1c0,0.1,0.1,0.2,0.3,0.3
		c0.1,0,0.2,0,0.3,0l0,0c0,0.1,0,0.2,0,0.3c0,0.1-0.1,0.2-0.1,0.3c0,0.1,0,0.1,0.1,0.1h0.1l0,0l0,0c0,0,0,0.1,0,0.2
		c0.1,0,0.1,0.1,0.1,0.1c0,0.1,0.1,0.1,0.1,0.2l0,0l0,0h0.4l-0.2,0.1c0,0,0,0-0.1,0.1c0,0.1,0,0.1,0,0.2c0,0.1,0,0.2-0.1,0.2
		c-0.2,0.1-0.4,0.3-0.6,0.4c-0.2,0.2-0.4,0.5-0.4,0.8c0,0.1,0,0.1-0.1,0.1c0,0,0,0,0,0c-0.1,0.2-0.3,0.4-0.5,0.6
		c-0.1,0.1-0.2,0.3-0.1,0.4c0,0.1,0,0.2-0.1,0.2c-0.1,0-0.2,0-0.2,0.1c-0.1,0.1-0.2,0.2-0.3,0.2c-0.1,0-0.2,0-0.2,0.1
		c-0.1,0.1-0.3,0.2-0.5,0.2h-0.4c0,0-0.1,0-0.1,0s-0.1,0-0.2,0s-0.4-0.2-0.6-0.3s-0.2,0-0.2,0.1l-0.4,0.2c0,0-0.1,0-0.1,0
		c0,0-0.1,0-0.1,0c0,0,0,0,0,0c-0.1,0.2-0.2,0.3-0.4,0.4c-0.3,0.3-0.7,0.6-1,0.9c0,0.1-0.1,0.1-0.2,0.1c0,0-0.1,0-0.1,0.1
		c0,0,0,0,0,0.1c0.1,0.1,0.2,0.2,0.3,0.4c0.1,0.1,0.1,0.1,0.2,0c0-0.1,0.1-0.1,0.1-0.1l1.4-0.9l0.1,0c0.1,0,0.1,0,0.1,0
		s0.2,0.1,0.3,0.1c0.1,0,0.2,0.1,0.3,0.1h0.2c0.2,0,0.4,0.1,0.4,0.3c0,0,0.1,0.1,0.1,0c0.2,0,0.3,0.1,0.4,0.2c0.3,0.3,0.7,0.7,1,1
		c0.2,0.2,0.5,0.5,0.8,0.6c0.2,0.1,0.4,0.2,0.7,0.2c0.1,0,0.1,0,0.1,0.1c0,0.4,0.1,0.8,0.1,1.1c0,0.1,0,0.2,0.1,0.3s0,0.1,0,0.2
		c0,0.3,0,0.5,0,0.8c0,0.1,0,0.3,0.1,0.4c0.1,0.2,0.2,0.4,0.2,0.5c0,0.3,0.1,0.6,0.2,0.9c0.1,0.1,0.1,0.3,0,0.5
		c-0.1,0.2-0.1,0.3-0.1,0.5c0,0,0,0.1,0,0.1c-0.1,0.1-0.2,0.2-0.3,0.3c-0.1,0.1-0.2,0.2-0.3,0.3c0,0.1-0.1,0.1-0.1,0.2
		c-0.1,0.3,0,0.5,0.3,0.4c0.4,0,0.8-0.2,1-0.5c0.1-0.2,0.3-0.3,0.5-0.3c0.1,0,0.3-0.1,0.4-0.2c0.1-0.1,0.1-0.3,0-0.5
		c-0.1-0.1-0.1-0.3-0.1-0.4c0-0.2-0.1-0.3-0.1-0.5c0-0.1,0-0.2,0-0.3c0,0,0-0.1,0-0.1c0,0,0-0.1,0-0.2c0.1-0.3,0.1-0.7,0.1-1.1
		c0-0.4,0-0.9,0-1.3c0,0,0,0,0-0.1l0,0c0,0.1,0.1,0.1,0.1,0.2c0.2,0.5,0.4,0.9,0.6,1.4c0.1,0.3,0.2,0.6,0.3,0.8
		c0,0.1,0.1,0.2,0.1,0.2c0.1,0.1,0.1,0.2,0.1,0.3c0,0.2,0.1,0.4,0.2,0.6c0,0.1,0,0.1,0,0.2c0,0.1,0,0.3,0.1,0.4
		c0.1,0.1,0.2,0.2,0.2,0.3c0.2,0.3,0.5,0.5,0.8,0.5c0.3,0,0.4-0.2,0.4-0.5c-0.1-0.2-0.2-0.4-0.3-0.5c-0.1-0.1-0.1-0.1-0.1-0.2
		c-0.1-0.2-0.1-0.4,0-0.5c0-0.1,0-0.1,0-0.2c-0.1-0.2-0.1-0.3-0.2-0.5c-0.1-0.3-0.1-0.6-0.1-0.8c0-0.5-0.2-1-0.2-1.5
		c0-0.1,0-0.2,0-0.2s0-0.1,0-0.1l-0.2-1.4c0-0.1,0-0.1-0.1-0.1s0-0.1,0-0.1c-0.1-0.5-0.1-1.1,0-1.7c0,0,0-0.1,0.1-0.1l0.3-0.2
		c0.1,0,0.1,0,0.1,0c0.2,0.2,0.4,0.5,0.5,0.8c0.2,0.4,0.2,0.9,0.2,1.3c-0.1,0.7-0.2,1.3-0.2,2c-0.1,0.7,0,1.4,0.3,2.1
		c0.3,0.8,1,1.4,1.9,1.6c0.9,0.3,1.9,0.4,2.8,0.3C125.1,36,125.1,35.9,125.1,35.8z M115.6,29.7c-0.1,0.2-0.1,0.2-0.3,0.2h-0.1
		c-0.3,0-0.6-0.2-0.8-0.4c-0.4-0.4-0.8-0.8-1.1-1.1c-0.1-0.1-0.1-0.1,0-0.1l0.4-0.2c0.3-0.1,0.5-0.2,0.7-0.4
		c0.2-0.2,0.4-0.4,0.6-0.6c0-0.1,0.1-0.1,0.1-0.1c0,0,0.1,0.1,0.1,0.2c0.1,0.4,0.2,0.7,0.2,1.1c0.1,0.2,0.1,0.4,0,0.6
		c0,0.1,0,0.1,0,0.2C115.7,29.2,115.7,29.5,115.6,29.7z M119.7,26.1c-0.1,0.1-0.1,0.2,0,0.2c0,0.1,0,0.1,0,0.2
		c-0.1,0.1-0.2,0.3-0.2,0.5c0,0.1-0.1,0.1-0.1,0.1c0,0,0,0,0,0c-0.1,0-0.2,0-0.2,0c0-0.5,0-0.9-0.1-1.3c0-0.2,0-0.2,0.2-0.2h0.1
		c0.2,0,0.4,0,0.4,0.3l0,0c0.1,0,0.1,0.1,0.1,0.2C119.8,26.1,119.7,26.1,119.7,26.1z"/>
	<polygon class="st3" points="0,21 21.1,21 24,22.8 29.4,21.9 39.4,21.9 46.4,23.6 49.3,24 53.6,24.6 56.2,30 63.7,32.9 67.7,36.3 
		73.8,38 81.8,40.8 84.2,46.5 85.8,64.2 87,65.3 93.4,65.2 99.6,65.2 100,47.8 102.6,40.2 107.6,39.8 113.7,35 123.6,30.1 
		130.7,27.2 134.2,25.3 140.5,24.9 142,25.1 169.6,23.9 175.8,23.9 200,24.4 200,100 0,100 	"/>
</g>
</svg>
