<?xml version="1.0" encoding="utf-8"?>
<!-- Generator: Adobe Illustrator 22.0.1, SVG Export Plug-In . SVG Version: 6.00 Build 0)  -->
<svg version="1.1" id="Capa_1" xmlns="http://www.w3.org/2000/svg" xmlns:xlink="http://www.w3.org/1999/xlink" x="0px" y="0px"
	 viewBox="0 0 200 100" style="enable-background:new 0 0 200 100;" xml:space="preserve">
<style type="text/css">
	.st0{fill:#708088;}
	.st1{fill:#2BBBA0;}
	.st2{fill:#CCCCCC;}
	.st3{clip-path:url(#SVGID_2_);}
	.st4{fill:none;stroke:#8C8C8C;stroke-width:0.2;stroke-miterlimit:10;}
	.st5{clip-path:url(#SVGID_4_);}
	.st6{fill:#9B9B9B;}
	.st7{fill:#666666;}
</style>
<title>6</title>
<g id="Capa_2_1_">
	<path class="st0" d="M185,2.6c0.1,0.3,0,0.6-0.2,0.8c-0.1,0.1-0.1,0.2,0,0.2c0.2,0.2,0.3,0.5,0.6,0.7c0.9,0.5,1.2,1.5,0.8,2.4
		C186,7.5,185.9,8.2,186,9c0,0.3,0,0.7-0.1,1c-0.1,0.2-0.1,0.4-0.1,0.7c0.1,0.3,0,0.7-0.1,1c-0.3,1-0.4,2.1-0.4,3.2
		c0,0.8,0,1.6-0.1,2.4c-0.1,0.7-0.2,1.3-0.4,2c0,0.1-0.1,0.2-0.2,0.2c-0.4,0-0.8,0-1.2-0.1c-0.2-0.1-0.1-0.3,0-0.3
		c0.4-0.1,0.5-0.5,0.5-0.9c0-1.5-0.1-3-0.3-4.5c0-0.1,0-0.2-0.1-0.3c0-0.1,0-0.2-0.1-0.2s-0.1,0.1-0.2,0.1c-0.3,0.4-0.5,0.9-0.6,1.4
		c-0.3,1-0.2,2.1-0.6,3.1c-0.1,0.2-0.1,0.5,0,0.8c0.2,0.8,0,1-0.9,1c-0.5,0-0.9,0-1.4,0c-0.1,0-0.2,0-0.2-0.1c0-0.1,0.1-0.2,0.2-0.2
		c0,0,0,0,0,0c0.9-0.2,1.1-0.8,1.1-1.6c0-0.6,0-1.2,0.1-1.8c0.1-0.9,0.2-1.9,0.4-2.8c0.1-0.7,0.3-1.3,0.5-2c0.1-0.5,0.2-1.1,0.3-1.6
		c0-0.2-0.1-0.3-0.2-0.3c-0.6-0.4-0.8-1.1-0.6-1.7c0.1-0.5,0.2-1,0.2-1.5c0.1-0.7,0.5-1.2,1.2-1.4c0.3-0.1,0.3-0.2,0.2-0.5
		s-0.1-0.7-0.4-1c-0.1-0.1-0.1-0.3,0-0.3c0.3-0.1,0.3-0.5,0.5-0.7c0.3-0.4,0.7-0.6,1.2-0.5C184.8,1.5,185,1.8,185,2.6z"/>
	<path class="st0" d="M177,11.3c0,1.2-0.1,2.5-0.2,3.7c0,0.3,0,0.7,0.1,1c0.2,1.1,0.1,2.1,0.2,3.2c0,0.3,0.2,0.6,0.5,0.7
		c0.2,0,0.4,0.1,0.4,0.3s-0.3,0.2-0.5,0.2c-0.4,0-0.8-0.1-1.1-0.1c-0.1,0-0.3-0.1-0.3-0.3c-0.2-1.1-0.4-2.1-0.5-3.2
		s-0.4-2.1-0.6-3.2c0-0.1-0.1-0.2-0.1-0.2c-0.1,0.5-0.3,0.9-0.4,1.4c-0.2,1.1-0.4,2.2-0.5,3.3c-0.1,0.5-0.1,0.9-0.1,1.4
		c0,0.9-0.5,1.4-1.3,1.1c-0.1,0-0.2,0-0.3-0.2c0-0.1,0-0.2,0.1-0.3c0.3-0.1,0.2-0.3,0.2-0.6c-0.1-1.3-0.1-2.6,0.1-3.9
		c0.1-0.5,0.1-1.1,0-1.6c-0.1-0.5-0.1-1.1-0.1-1.6c0-0.2,0-0.5,0-0.7c-0.1-0.2-0.1-0.5,0-0.7c0.4-0.8,0.1-1.6,0.3-2.5
		c-0.2,0.3-0.5,0.6-0.9,0.8c-0.4,0.2-0.9,0.1-1.1-0.3c0,0,0,0,0,0l-0.1-0.1c-0.4-0.4-0.4-0.9-1.1-1.2s-0.6-0.7-0.4-1.3
		c0.1-0.2,0-0.5,0.3-0.6c0.3-0.1,0.6,0.1,0.8,0.4c0,0,0,0,0,0.1c0.1,0.5,0.4,1,0.8,1.4c0.2,0.1,0.3,0.2,0.4,0
		c0.2-0.2,0.3-0.5,0.5-0.7c0.3-0.7,0.9-1.3,1.6-1.5c0.3-0.1,0.4-0.3,0.2-0.6c-0.2-0.4-0.3-0.8-0.4-1.2c-0.1-0.4,0.2-0.8,0.6-1
		c0.4-0.2,0.8-0.2,1.2,0c0.3,0.1,0.5,0.5,0.4,0.8c0,0.4,0,0.8-0.1,1.1c-0.1,0.2,0,0.5,0.2,0.6c0.1,0.1,0.2,0.1,0.3,0.2
		c1,0.2,1.6,1.1,1.6,2.1c0,1,0.3,1.9,0.3,2.9c0,0.5,0.1,0.9,0.2,1.4c0.2,0.5,0.1,1.1-0.2,1.6c-0.1,0.2-0.2,0.3-0.4,0.2
		c-0.2,0-0.1-0.3-0.2-0.4c0-0.5-0.1-0.9-0.1-1.4C177.4,11.6,177.2,11.4,177,11.3z"/>
	<rect x="84.2" y="39.9" class="st1" width="29.8" height="24.8"/>
	<polygon class="st2" points="0,14 12.1,14 23.7,16 29.6,15 40.8,15 48.5,16.9 51.7,17.3 56.4,18.1 59.3,24 67.6,27.1 72,31 
		78.8,32.8 84.2,36 86.8,42.3 88.6,61.8 89.9,63 100.4,62.8 111.6,62.8 112,43.7 114.9,35.3 120.4,34.8 127.2,29.5 133.8,24.1 
		141.6,20.9 145.5,18.8 152.4,18.3 154.1,18.5 184.6,17.2 191.5,17.2 200,17.8 200,100 0,100 	"/>
	<g>
		<defs>
			<path id="SVGID_1_" d="M152.4,18.3l-6.9,0.5l-3.9,2.1l-7.8,3.3l-6.7,5.4l-6.8,5.3l-5.5,0.4l-2.9,8.4l-0.4,19h45.1
				c4.9,0.1,8.9-3.8,9-8.6c0,0,0,0,0,0v-36l-11.5,0.5L152.4,18.3z"/>
		</defs>
		<clipPath id="SVGID_2_">
			<use xlink:href="#SVGID_1_"  style="overflow:visible;"/>
		</clipPath>
		<g class="st3">
			<line class="st4" x1="205.1" y1="8.3" x2="147.7" y2="65.7"/>
			<line class="st4" x1="214.4" y1="8.3" x2="156.9" y2="65.7"/>
			<line class="st4" x1="186.6" y1="8.3" x2="129.2" y2="65.7"/>
			<line class="st4" x1="197.7" y1="8.3" x2="140.3" y2="65.7"/>
			<line class="st4" x1="212.5" y1="8.3" x2="155.1" y2="65.7"/>
			<line class="st4" x1="182.9" y1="8.3" x2="125.5" y2="65.7"/>
			<line class="st4" x1="194" y1="8.3" x2="136.6" y2="65.7"/>
			<line class="st4" x1="171.9" y1="8.3" x2="114.5" y2="65.7"/>
			<line class="st4" x1="179.2" y1="8.3" x2="121.8" y2="65.7"/>
			<line class="st4" x1="208.8" y1="8.3" x2="151.4" y2="65.7"/>
			<line class="st4" x1="146" y1="8.3" x2="88.6" y2="65.7"/>
			<line class="st4" x1="153.4" y1="8.3" x2="96" y2="65.7"/>
			<line class="st4" x1="142.3" y1="8.3" x2="84.9" y2="65.7"/>
			<line class="st4" x1="157.1" y1="8.3" x2="99.7" y2="65.7"/>
			<line class="st4" x1="168.2" y1="8.3" x2="110.8" y2="65.7"/>
			<line class="st4" x1="175.6" y1="8.3" x2="118.2" y2="65.7"/>
			<line class="st4" x1="149.7" y1="8.3" x2="92.3" y2="65.7"/>
			<line class="st4" x1="164.5" y1="8.3" x2="107.1" y2="65.7"/>
			<line class="st4" x1="160.8" y1="8.3" x2="103.4" y2="65.7"/>
			<line class="st4" x1="190.3" y1="8.3" x2="132.9" y2="65.7"/>
			<line class="st4" x1="201.4" y1="8.3" x2="144" y2="65.7"/>
			<line class="st4" x1="195.9" y1="8.3" x2="138.5" y2="65.7"/>
			<line class="st4" x1="207" y1="8.3" x2="149.6" y2="65.7"/>
			<line class="st4" x1="192.2" y1="8.3" x2="134.8" y2="65.7"/>
			<line class="st4" x1="203.3" y1="8.3" x2="145.9" y2="65.7"/>
			<line class="st4" x1="181.1" y1="8.3" x2="123.7" y2="65.7"/>
			<line class="st4" x1="188.5" y1="8.3" x2="131.1" y2="65.7"/>
			<line class="st4" x1="144.1" y1="8.3" x2="86.7" y2="65.7"/>
			<line class="st4" x1="155.2" y1="8.3" x2="97.8" y2="65.7"/>
			<line class="st4" x1="162.6" y1="8.3" x2="105.2" y2="65.7"/>
			<line class="st4" x1="151.5" y1="8.3" x2="94.1" y2="65.7"/>
			<line class="st4" x1="147.8" y1="8.3" x2="90.4" y2="65.7"/>
			<line class="st4" x1="166.3" y1="8.3" x2="108.9" y2="65.7"/>
			<line class="st4" x1="177.4" y1="8.3" x2="120" y2="65.7"/>
			<line class="st4" x1="184.8" y1="8.3" x2="127.4" y2="65.7"/>
			<line class="st4" x1="158.9" y1="8.3" x2="101.5" y2="65.7"/>
			<line class="st4" x1="173.7" y1="8.3" x2="116.3" y2="65.7"/>
			<line class="st4" x1="170" y1="8.3" x2="112.6" y2="65.7"/>
			<line class="st4" x1="199.6" y1="8.3" x2="142.2" y2="65.7"/>
			<line class="st4" x1="210.7" y1="8.3" x2="153.3" y2="65.7"/>
		</g>
	</g>
	<g>
		<defs>
			<path id="SVGID_3_" d="M58.7,62.7h30.9l-1-0.8l-1.8-19.6L84.2,36l-5.5-3.1L72,31l-4.4-3.9L59.3,24l-2.9-5.9l-4.7-0.7l-2-0.3v37
				C49.7,58.9,53.8,62.7,58.7,62.7C58.6,62.7,58.6,62.7,58.7,62.7z"/>
		</defs>
		<clipPath id="SVGID_4_">
			<use xlink:href="#SVGID_3_"  style="overflow:visible;"/>
		</clipPath>
		<g class="st5">
			<line class="st4" x1="129.2" y1="7.8" x2="71.8" y2="65.2"/>
			<line class="st4" x1="138.4" y1="7.8" x2="81.1" y2="65.2"/>
			<line class="st4" x1="110.7" y1="7.8" x2="53.3" y2="65.2"/>
			<line class="st4" x1="121.8" y1="7.8" x2="64.4" y2="65.2"/>
			<line class="st4" x1="144" y1="7.8" x2="86.6" y2="65.2"/>
			<line class="st4" x1="136.6" y1="7.8" x2="79.2" y2="65.2"/>
			<line class="st4" x1="142.1" y1="7.8" x2="84.8" y2="65.2"/>
			<line class="st4" x1="107" y1="7.8" x2="49.6" y2="65.2"/>
			<line class="st4" x1="118.1" y1="7.8" x2="60.7" y2="65.2"/>
			<line class="st4" x1="95.9" y1="7.8" x2="38.5" y2="65.2"/>
			<line class="st4" x1="103.3" y1="7.8" x2="45.9" y2="65.2"/>
			<line class="st4" x1="132.9" y1="7.8" x2="75.5" y2="65.2"/>
			<line class="st4" x1="140.3" y1="7.8" x2="82.9" y2="65.2"/>
			<line class="st4" x1="60.8" y1="7.8" x2="3.4" y2="65.2"/>
			<line class="st4" x1="70.1" y1="7.8" x2="12.7" y2="65.2"/>
			<line class="st4" x1="77.5" y1="7.8" x2="20.1" y2="65.2"/>
			<line class="st4" x1="59" y1="7.8" x2="1.6" y2="65.2"/>
			<line class="st4" x1="66.4" y1="7.8" x2="9" y2="65.2"/>
			<line class="st4" x1="62.7" y1="7.8" x2="5.3" y2="65.2"/>
			<line class="st4" x1="81.2" y1="7.8" x2="23.8" y2="65.2"/>
			<line class="st4" x1="92.3" y1="7.8" x2="34.9" y2="65.2"/>
			<line class="st4" x1="99.7" y1="7.8" x2="42.2" y2="65.2"/>
			<line class="st4" x1="73.8" y1="7.8" x2="16.4" y2="65.2"/>
			<line class="st4" x1="88.6" y1="7.8" x2="31.2" y2="65.2"/>
			<line class="st4" x1="84.9" y1="7.8" x2="27.5" y2="65.2"/>
			<line class="st4" x1="114.4" y1="7.8" x2="57" y2="65.2"/>
			<line class="st4" x1="125.5" y1="7.8" x2="68.1" y2="65.2"/>
			<line class="st4" x1="120" y1="7.8" x2="62.6" y2="65.2"/>
			<line class="st4" x1="131.1" y1="7.8" x2="73.7" y2="65.2"/>
			<line class="st4" x1="116.3" y1="7.8" x2="58.9" y2="65.2"/>
			<line class="st4" x1="127.4" y1="7.8" x2="70" y2="65.2"/>
			<line class="st4" x1="105.2" y1="7.8" x2="47.8" y2="65.2"/>
			<line class="st4" x1="112.6" y1="7.8" x2="55.2" y2="65.2"/>
			<line class="st4" x1="68.2" y1="7.8" x2="10.8" y2="65.2"/>
			<line class="st4" x1="79.3" y1="7.8" x2="21.9" y2="65.2"/>
			<line class="st4" x1="86.7" y1="7.8" x2="29.3" y2="65.2"/>
			<line class="st4" x1="64.5" y1="7.8" x2="7.1" y2="65.2"/>
			<line class="st4" x1="75.6" y1="7.8" x2="18.2" y2="65.2"/>
			<line class="st4" x1="71.9" y1="7.8" x2="14.5" y2="65.2"/>
			<line class="st4" x1="90.4" y1="7.8" x2="33" y2="65.2"/>
			<line class="st4" x1="101.5" y1="7.8" x2="44.1" y2="65.2"/>
			<line class="st4" x1="108.9" y1="7.8" x2="51.5" y2="65.2"/>
			<line class="st4" x1="83" y1="7.8" x2="25.6" y2="65.2"/>
			<line class="st4" x1="97.8" y1="7.8" x2="40.4" y2="65.2"/>
			<line class="st4" x1="94.1" y1="7.8" x2="36.7" y2="65.2"/>
			<line class="st4" x1="123.7" y1="7.8" x2="66.3" y2="65.2"/>
			<line class="st4" x1="134.8" y1="7.8" x2="77.4" y2="65.2"/>
		</g>
	</g>
	<rect x="54.4" y="14.9" class="st6" width="1" height="42.9"/>
	<ellipse class="st7" cx="54.9" cy="14.9" rx="0.5" ry="0.3"/>
	<rect x="73.1" y="22.7" class="st6" width="1" height="36.1"/>
	<ellipse class="st7" cx="73.6" cy="22.7" rx="0.5" ry="0.3"/>
	<rect x="147.2" y="14.3" class="st6" width="1" height="42.9"/>
	<ellipse class="st7" cx="147.7" cy="14.4" rx="0.5" ry="0.3"/>
	<rect x="128.3" y="22.5" class="st6" width="1" height="36.1"/>
	<ellipse class="st7" cx="128.7" cy="22.5" rx="0.5" ry="0.3"/>
</g>
</svg>
