<?xml version="1.0" encoding="utf-8"?>
<!-- Generator: Adobe Illustrator 22.0.1, SVG Export Plug-In . SVG Version: 6.00 Build 0)  -->
<svg version="1.1" id="Layer_1" xmlns="http://www.w3.org/2000/svg" xmlns:xlink="http://www.w3.org/1999/xlink" x="0px" y="0px"
	 viewBox="0 0 800 350" style="enable-background:new 0 0 800 350;" xml:space="preserve">
<style type="text/css">
	.st0{stroke:#000000;stroke-miterlimit:10;}
	.st1{display:none;}
	.st2{fill:none;}
	.st3{fill:#FFFFFF;}
	.st4{display:none;fill:#020202;}
	.st5{font-family:"Roboto", sans-serif;}
	.st6{font-size:18px;}
	.st7{enable-background:new    ;}
	.st8{fill:#BF8266;}
	.st9{fill:#C83A02;}
	.st10{font-size:15.4356px;}
	.st11{font-size:19.2946px;}
	.st12{fill:none;stroke:#C83A02;stroke-width:2;stroke-miterlimit:10;}
</style>
<rect x="-24.5" y="-19.9" class="st0" width="848.3" height="390.1"/>
<g id="Layer_2_xA0_Image_00000037654257152618241980000007088080592892120465_" class="st1">
</g>
<g id="Layer_19">
	<g>
		<line class="st2" x1="188.2" y1="110.1" x2="564.6" y2="112.1"/>
		<line class="st2" x1="189" y1="186.3" x2="565.3" y2="188.3"/>
		
			<rect x="377.9" y="75.6" transform="matrix(5.211857e-03 -1 1 5.211857e-03 112.8611 640.9963)" class="st3" width="1.5" height="376.4"/>
		
			<rect x="398" y="149.1" transform="matrix(5.212038e-03 -1 1 5.212038e-03 360.6412 662.1362)" class="st3" width="230.3" height="1.5"/>
		
			<rect x="345.1" y="148.7" transform="matrix(5.212038e-03 -1 1 5.212038e-03 308.4706 608.8826)" class="st3" width="230.3" height="1.5"/>
		
			<rect x="290.2" y="148.4" transform="matrix(5.212038e-03 -1 1 5.212038e-03 254.1311 553.7467)" class="st3" width="230.3" height="1.5"/>
		
			<rect x="235.8" y="147.7" transform="matrix(5.212038e-03 -1 1 5.212038e-03 200.7276 498.6379)" class="st3" width="230.3" height="1.5"/>
		<polygon class="st3" points="299.5,34.6 298.3,263.7 296.8,264.9 298,34.6 		"/>
		<polygon class="st3" points="245.2,34.4 244,263.7 242.4,263.7 243.6,34.9 		"/>
		<polygon class="st3" points="565.3,187.5 569.3,189 190.8,187.1 189,185.5 		"/>
		<polygon class="st3" points="564.5,111.3 569.5,112.8 189.2,110.9 189.2,109.3 		"/>
	</g>
	<polyline class="st4" points="190,48.3 184.2,34 190,48.3 190,48.3 190,48.3 190,48.3 190,48.3 463.6,49.7 463.7,34 184.2,34 	"/>
	<polygon class="st4" points="188.4,59.4 463.5,60.9 463.7,25.6 184.3,24.1 	"/>
</g>
<g id="Intensidad_macrosísmica">
	<text transform="matrix(0 -1 1 0 114.7299 287.977)" class="st3 st5 st6">Profundidad del hipocentro (km)</text>
</g>
<g id="Ellipse_4_copy_00000063621551632687848970000007370558732931525274_" class="st7">
	<g id="Ellipse_4_copy_00000000204826328553431890000017995142725332356262_">
		<g>
			<path class="st8" d="M412.5,140.8c0-7.1-5.5-12.8-12.3-12.8s-12.4,5.7-12.5,12.7c0,7.1,5.5,12.8,12.3,12.8
				S412.4,147.9,412.5,140.8z"/>
		</g>
	</g>
	<g id="Ellipse_4_copy_00000112597452017549015360000004812133592395440319_">
		<g>
			<path class="st8" d="M385.4,157.9c0-7.1-5.5-12.8-12.3-12.8c-6.9,0-12.4,5.7-12.5,12.7s5.5,12.8,12.3,12.8S385.4,165,385.4,157.9
				z"/>
		</g>
	</g>
	<g id="Ellipse_4_copy_00000018955619829962719600000005333004631398420615_">
		<g>
			<path class="st8" d="M442.9,140.9c0-7.1-5.5-12.8-12.3-12.8c-6.9,0-12.4,5.7-12.5,12.7c0,7.1,5.5,12.8,12.3,12.8
				C437.3,153.7,442.9,148,442.9,140.9z"/>
		</g>
	</g>
	<g id="Ellipse_4_copy_00000161618634673708738230000009235615977739114630_">
		<g>
			<path class="st8" d="M472.1,96.4c0-7.1-5.5-12.8-12.3-12.8s-12.4,5.7-12.5,12.7c0,7.1,5.5,12.8,12.3,12.8S472.1,103.5,472.1,96.4
				z"/>
		</g>
	</g>
	<g id="Ellipse_4_copy_00000038410221028271347100000010417946382977712272_">
		<g>
			<path class="st8" d="M304.2,222c0-7.1-5.5-12.8-12.3-12.8s-12.4,5.7-12.5,12.7c0,7.1,5.5,12.8,12.3,12.8S304.1,229,304.2,222z"/>
		</g>
	</g>
</g>
<g id="Layer_16">
	<path class="st3" d="M568.6,262.6V34.3l0,0v-1.9H188.8v0.3H188v229.9v2v0.8h381.3v-2.8H568.6L568.6,262.6z M191.2,34.3h374.4v228.3
		H191.2V34.3z"/>
</g>
<g id="Distancia_hipocentral__x28_KM_x29_">
	<text transform="matrix(1 0 0 1 275.2986 324.1119)" class="st3 st5 st6">Intensidad macrosísmica</text>
</g>
<g id="Hipocentro_San_Ramón__x28_5KM_x29_">
	<text transform="matrix(1 0 0 1 577.3512 45.1597)" class="st9 st5 st10">Posible intensidad</text>
	<text transform="matrix(1 0 0 1 577.3512 63.6597)" class="st9 st5 st10">de San Ramón </text>
	<text transform="matrix(1 0 0 1 577.3512 82.1597)" class="st9 st5 st10">(5 km de profundidad)</text>
</g>
<g id="_x39__xA0_Image_00000057123193409576788950000003016012307312303531_">
	<text transform="matrix(1 0 0 1 168.1158 40.9536)" class="st3 st5 st11">0</text>
	<text transform="matrix(1 0 0 1 154.5539 115.8584)" class="st3 st5 st11">100</text>
	<text transform="matrix(1 0 0 1 153.3412 191.1953)" class="st3 st5 st11">200</text>
	<text transform="matrix(1 0 0 1 147.8488 268.3925)" class="st3 st5 st11">300</text>
	<text transform="matrix(1 0 0 1 180.1559 291.5512)" class="st3 st5 st11">2</text>
	<text transform="matrix(1 0 0 1 235.5478 291.5514)" class="st3 st5 st11">3</text>
	<text transform="matrix(1 0 0 1 288.7637 291.5508)" class="st3 st5 st11">4</text>
	<text transform="matrix(1 0 0 1 342.763 291.7488)" class="st3 st5 st11">5</text>
	<text transform="matrix(1 0 0 1 398.6891 291.5511)" class="st3 st5 st11">6</text>
	<text transform="matrix(1 0 0 1 452.8147 291.9458)" class="st3 st5 st11">7</text>
	<text transform="matrix(1 0 0 1 505.7437 291.5511)" class="st3 st5 st11">8</text>
	<text transform="matrix(1 0 0 1 560.2716 291.9463)" class="st3 st5 st11">9</text>
</g>
<g id="Ellipse_4_copy_00000017482599905094187250000017256526317136413595_">
	<g>
		<path class="st8" d="M363,183.6c0-7.1-5.5-12.8-12.3-12.8s-12.4,5.7-12.5,12.7c0,7.1,5.5,12.8,12.3,12.8S363,190.7,363,183.6z"/>
	</g>
</g>
<g id="Ellipse_4_copy_00000139994531642089260870000015325412503247188362_">
	<g>
		<path class="st8" d="M495.9,87.7c0-7.1-5.5-12.8-12.3-12.8s-12.4,5.7-12.5,12.7c0,7.1,5.5,12.8,12.3,12.8
			C490.3,100.4,495.9,94.7,495.9,87.7z"/>
	</g>
</g>
<g id="Ellipse_4_copy_00000109723412170874510920000002082392608864829327_">
	<g>
		<path class="st8" d="M525.5,73.6c0-7.1-5.5-12.8-12.3-12.8s-12.4,5.7-12.5,12.7s5.5,12.8,12.3,12.8
			C519.9,86.4,525.5,80.7,525.5,73.6z"/>
	</g>
</g>
<polygon class="st12" points="564.6,69.7 553.1,69.7 513.5,69.7 513.5,35.4 564.6,35.4 564.6,57.9 "/>
<line class="st12" x1="564.6" y1="57.9" x2="552.9" y2="69.6"/>
<line class="st12" x1="564.6" y1="46.7" x2="541.2" y2="70.1"/>
<line class="st12" x1="564.6" y1="35.4" x2="530.5" y2="69.6"/>
<line class="st12" x1="552.9" y1="34.6" x2="517.9" y2="69.6"/>
<line class="st12" x1="539" y1="35.4" x2="513.9" y2="60.6"/>
<line class="st12" x1="526.5" y1="35.4" x2="513.4" y2="48.5"/>
</svg>
