<svg id="Capa_1" data-name="Capa 1" xmlns="http://www.w3.org/2000/svg" viewBox="0 0 1535.32 1573.08"><defs><style>.cls-1{stroke:#000;stroke-miterlimit:10;stroke-width:1.08px;}.cls-2{isolation:isolate;font-size:29.29px;fill:#fff;}.cls-10,.cls-11,.cls-2,.cls-8{font-family:Roboto-Black, Roboto;font-weight:800;}.cls-3{fill:#7b7c7c;stroke:#d0d2d7;stroke-linecap:round;stroke-linejoin:round;stroke-width:0.65px;}.cls-11,.cls-4{fill:#e29471;}.cls-5{fill:#c83a02;}.cls-6,.cls-8{fill:#e2b971;}.cls-10,.cls-7{fill:#f4ddb5;}.cls-10,.cls-11,.cls-8{font-size:34.36px;}.cls-11,.cls-9{letter-spacing:-0.01em;}.cls-12{letter-spacing:0em;}</style></defs><g id="Layer_2" data-name="Layer 2"><rect class="cls-1" x="0.14" y="0.74" width="1535.03" height="1572.34"/></g><text class="cls-2" transform="translate(1130.5 1248.69)">Superficie:</text><text class="cls-2" transform="translate(1278.34 1248.69)"><tspan xml:space="preserve"> 38.500 ha </tspan></text><text class="cls-2" transform="translate(1130.5 1283.83)">Habitantes:</text><text class="cls-2" transform="translate(1289.14 1283.83)"><tspan xml:space="preserve"> 515.552 </tspan></text><text class="cls-2" transform="translate(1130.5 1318.98)">Viviendas:</text><text class="cls-2" transform="translate(1278.41 1318.98)"><tspan xml:space="preserve"> 161.782 </tspan></text><path class="cls-3" d="M649.46,231.7h-1.1v-1.6c-8.8-2.2-1.6,5.8,7,7.6,0,11,3.8,16.1,3.8,24.3a2.22,2.22,0,0,1-.5,1.1c-2.6,3.1-4.8,1.6-8.1,3.2-4.3,2.2-12.7,20.5-13,23.2,1.9.3,1.9.3,3.8.5,3.1-6.1,6.6-6.3,12.4-9.2-1.9-.9-1.1-.1-1.1-3.2a9.83,9.83,0,0,1,1.6-.5V276c6.9-.9,10.9-1.9,11.9-9.7,2,0,25-5.7,20,4.3,8.6,4.3,4.7,14.4,1.1,21.6,8.4,0,13.5,1.3,13.5,9.7,20.4,0,11.8,6.8,8.6,19.4,13.3,2.2,3.2,3.6,3.2,10.8,3.7,0,7.2,3,10.8,3.8.9-1.7,2.7-4.2,2.7-5.9,14.8-1.1,10.6-19.7,30.2-16.7,11.2,1.7.4,24.5,2.7,29.2,1.5,3.1,16.5,7.2,20,8.1,0-6.4,17.6-10.4,23.2-9.2,3.8.8-9.2,8.2-9.2,13.5a65.61,65.61,0,0,1,14,1.1c0,9.2,2.9,7.2-9.7,8.6,4.6,2.3,9.5,3.5,14,6.5-.8-5,1.2-7.8,5.9-8.6,0-12.6,13.5-30.1-.5-39.4,6.2-12.4,17.3-18.4,30.2-18.9,3.8-.1,6.2-10.4,8.6-9.7,4,1.1,10.1,9.2,12.4,9.2,0-4.8,5.1-14,10.8-14-1.3-2.6-2.5-4.9-3.8-7.6,6-6,22.2-9.1,10.3-21.1,1-1.9.5-.7,1.1-3.8,6.6,0,13.8-9.8,20.5-7.6,0,17.8,10,3.8,13-2.2-6.3-3.1-15.5-9.1-17.8-16.2-1.5,0-.8.2-2.2-.5,2-3.9,2.9-20.8,14-9.7,2.8-1.4,16.3-8.1,8.1,2.2,1.3.7,4.3,2.9,4.3,4.3,1.5,0,.8-.2,2.2.5,1.9-1.9,9.5-13.6,10.3-14,4-2.4,23.4-1.4,26.5-1.6,24.6-1.4,43.2,24.3,68,24.3,12.5,0,28.8-9.1,42.1-11.3,2.6,5.2,9.5,7.9,11.3,13.5,4.7,0,5.6-6.7,9.7-8.1,5.9-2,16.2,7,20.5,10.3,6.5,4.9,52.9,32.4,52.9,36.2,0,14.6-19.7,23.2-30.2,24.8-1.7.3-15.7.8-16.2,2.7-.8,3.3.7,7.3-1.1,10.3-1.5,2.5-8.3,3.3-9.2,5.9-3.7,10.9-19.2,26.1-24.3,10.8-6.8,0-9.8-5.7-16.7-2.7-3.2,1.4-.5,6.9-1.1,10.3-.7,4.2-11.3,7.6-12.4,14.6-1.3,8.5,9.3,22.3,10.8,31.9.6,3.8,47.4,16.3,51.3,22.1,5.5,8.3,1.4,27.8,0,37.8,4,0,2,5.5,2.7,8.1s10.7,8.3,13,10.3c6.5,5.4,17,1.6,22.7,6.5,8.3,7.1,6.1,29.8,4.9,38.3-.5,3.8,7,9.9,7.6,14a222.73,222.73,0,0,1,1.6,28.1c0,13.1-18.9,3.9-11.3,26.5h1.1c0,6.7.4,14.9-1.1,21.6-.3,1.6-9.5,5.3-10.3,10.8-.5,3.8,2.5,14.7,2.7,17.8-12.6,0-15.9,6.7-23.8,7-14.1.5-21.5-7-34.6-7-3.8,0-5.1,5.7-8.6,5.9-4.8.3-9.8-.9-14.6,0-5.7,1-10.6,12.4-16.7,14-8.4,2.2-15.2-4.4-22.7-5.9v-1.1c-2.6,0-5.5-2.2-8.1-2.7-1.2,10-26.1,9.3-34,10.3-1.1.1-32.8,27-32.9,28.6-.8,7.3,0,14.8,0,22.1,19.4,0,21.4-3.2,22.1,18.9-8.1.6-4.7.9-10.3,0a3.7,3.7,0,0,0,.5-1.1c-9.2,0-19,.2-28.1-1.6-1.3,5.1-.2,10.4,0,15.7-4.3,0-9.1-1.4-13,.5,2,8.1,13.7,13,15.7,26.5-21.7,10.9,4.3,16.2,8.1,8.6,2.2.3,2.2.3,4.3.5.5,19.7.5,19.7,1.1,39.4-3.8.6-2.2.9-4.9,0,0-2.1-1.9-1.8-3.8-2.2v-1.1h-2.2V802c-1.6,0-3.3-.8-4.9-1.1-2.2,8.7-2.2,17.8-4.3,26.5-3.1,0-1.9.4-3.8-.5-.8,8.4-1.6,17-1.1,25.4.4,6.5,9.2,8.7,9.2,22.7,4.6,1.5,9.5,6.7,14,7.6s6.1-9.1,8.6-9.2c19.6-.7,42.7-2.2,61.6-2.2v5.4c2.9,0,1.1.1,5.4-.5a3.7,3.7,0,0,0-1.1-.5c7.3-7.3,3.7-13.4,8.1-22.1,2.8-5.6,19.1-9.4,23.2-7.6,1.6.7,2.1,4.2,4.3,3.8,2.7-.5,2.1-5.4,5.4-5.4,0,12,9.2-2.7,10.3-3.8,4.6,9.3,15.1-19.9,16.7-21.6,2.1-2.1,17.6,11.7,22.7,1.6-1.1-1.1-1.6-2.2-2.7-3.2,1.1-2.2,3.2-3.6,4.3-5.9a3.7,3.7,0,0,0-1.1-.5c11-3.7,3.7,14.4,16.7,13.5,8.3-.6,7,2.3,17.3,5.4,6,1.8,22.2-7.7,18.9,7-.3,1.3-12.6-2.2-13.5-2.2-9.3,0-18,4.2-27.5,4.9v-1.1c-13,0-18.8,8.7-31.3,10.3a21.58,21.58,0,0,1,2.7-.5c-2.8-.6-4.2-2.5-6.5-3.2-11.8-3.5,3.8,13.6-.5,19.4-3.8,5.1-20.7,6.5-28.1,6.5v-1.1c-3.2,0-4.6-1.7-5.4-4.9-6.7,20.1-13.8,4-21.1,11.3-6.8,6.8-15.9,11.1-22.7,17.8-3,3-.9,10.8-2.7,13-3.6,4.2-8.3-.4-11.9,2.7s-3.3,6.7-5.9,10.3c-3.8,5.2-9.5,4.4-15.1,1.6a17.42,17.42,0,0,0,.5-2.2,3.7,3.7,0,0,1,.5,1.1v-2.7h-1.6v-3.2c-7.8,0-4,13.1-2.7,18.4-12.2,0-19,3.3-30.2,4.9-.7,6.4-2.2,14.4,4.9,16.7v2.2c-5.1,0-15.5.1-20,2.7-.5.3-6.7,8.7-7.6,5.9-.6-2.1-.4-4.3-.5-6.5-4.2,2.1-15.4,1.4-18.9,1.6v-5.9c-1.7.6-13.9,5.1-14,6.5-1.5,19.9.8,24.7-17.8,27,0-4.5.3-7.5,0-12.4-3.4,1.7-7.2,2.8-10.3,4.9a24.21,24.21,0,0,1,4.9,7.6c-13.7,6.8-37.7,9.1-49.7,16.7-7.5,4.8-10.4,11.4-18.9,13.5-7.4,1.8-12.9-1.9-20-.5-9.1,1.7-27,6.4-13.5-8.1,1.6-1.7,1-3,2.7-3.8-.6-1.7-1.6-1.7-1.6-3.2-9.3,0-10.3-2.4-17.8-4.9,0-2.1-1.6-4.4-2.2-6.5H751c1.3-8.1,7.6-12,10.8-18.4,1.8-3.6,1-17.6,1.1-19.4-5.2,0-10.4.3-15.7.5V953h-17.3a122.8,122.8,0,0,1,1.1-13.5c-6.4-1.1-1.4-21-1.1-27h-2.2c.8-1.6.1-1.1,2.2-1.1-8.1-.7-16.2-1.2-24.3-2.2v-1.1c-8.3-.7-16.5-1.2-24.8-1.6-2.9,11.4-13.7,32.7-11.3,44.3,1,4.7,7.7,12.8,9.7,16.7-2.7.9-5.4,1.6-8.1,2.7,6.4,12.8,23.5,35.7,16.2,50.2-2.5-.4-5-.7-7.6-1.1a26.08,26.08,0,0,0-1.1-12.4c-7.4,0-7.6,1.8-7.6-4.9-12.7,0-25.7,1.3-38.3,2.7a21.58,21.58,0,0,1,2.7-.5c-2.2-.3-2.2-.3-4.3-.5v-1.1H630a9.83,9.83,0,0,0,.5-1.6h-1.1a17.42,17.42,0,0,0,.5-2.2h-1.1v-1.1h-1.1c-5.4,16.2,12,9.5,14,17.8,30.2,0-24.9,11.2-28.1,11.3a9.83,9.83,0,0,1,1.6-.5c-1.9-.3-1.9-.3-3.8-.5,0-6-18.9-6.8-18.9-14.6,0-4.1,5.5-9.1,5.9-13.5,1-11.1-5.1-22.2-3.8-32.9h-1.1c1-4.8-2.4-5.5-6.5-6.5,0-2.1-1-3.9-1.6-5.9h-1.1c.8-2.4-.3-4.7-1.1-7h-1.1v-1.1H581c1.7-1.7,1.2-.6.5-3.8h-1.6v-1.6a3.7,3.7,0,0,1,.5,1.1c.8-3.1,1.9-4.8,3.2-7.6h-1.1a9.83,9.83,0,0,1,1.6-.5c-6-3.6-12.5.5-20.5-2.2,0-11.2,17.7-34.5,1.1-36.2,3.9-7.9-4.5-12.8-7.6-17.3-2.2-3.4,3.2-8.3,3.2-11.9s-8.1-4.8-8.1-9.2c0-6.8,6.5-11.5,6.5-16.2h-1.6a35.6,35.6,0,0,1,.5-6.5h-1.1c16.1-8,13.5-36.1,13.5-51.3,0-5.3,11-17.5,14.6-21.1,2.3,1.5,7.7,7,9.7,7,0-3.8,7.5-33.5,10.3-33.5,0-5.9,5.2-9.3-2.2-10.8v-1.1c-9,0-16.2-8.3-24.8-9.7a3.7,3.7,0,0,1,1.1-.5c-2.7-1.3-8.1-1.6-8.1-4.9-9.5,0-20.9,24.1-26.5,31.9-14.2,19.9-27.9,40.1-42.1,59.9-3.2,4.5-9.1,17.9-14,20-6.6,2.8-19.7-1.9-26.5-3.2V814c-9.9,0-10.9,1.5-18.4,6.5-1.3-2.6-5.5-3.5-7-6.5-3.7,2.3-13.8,14.6-17.8,6.5-19.3,17.1-6.5,5.9-2.7,17.3-2,1-4,3.4-5.9,4.9,2,1,3.2,2.5,5.4,3.2,0,2.6-10.3,25.2-11.9,25.4-2.4.2-26.6-4.9-24.3-13,1.6-5.5,9.9-7.2,13.5-10.8-3.2-6.5-1.2-6.3,1.6-11.9-.7-.4-1.4-.7-2.2-1.1a3.7,3.7,0,0,0,.5-1.1c-4.5-2.2-6.1-9-13.5-6.5-1.6.5-20.5,26.6-20.5,17.3h-1.6a3.7,3.7,0,0,0,.5-1.1h-1.6c8.7-9.5,19.2-17.4,28.1-27.5.8-.9-.8-1.8-1.1-2.2-9.2-11.5-23.5-28.5,0-31.9,0,3.4,5.7,10.4,8.6,11.9.9-1.7.1-1.1,2.7-1.1v-1.1c6.3-1.1,7,2.7,11.9,5.9a3.7,3.7,0,0,1-1.1.5c5.1,0,13.3-11.6,17.8-15.1-2.7-2.7-6.5-8.7-9.7-10.3,3-8.8,16.6-9.9,18.9-18.9-4.9-2.4-17.4-9.5-20-14.6-1.9-3.7,3.9-11.7,4.9-15.7,3-12.2,2.7-15.1,2.7-32.9,0-12.6-8.5-34.9,3.2-43.7,14.3-10.8,44.4-3.3,56.2-15.1-2.6-5.2-20.8-5.1-25.9-10.3,2.3-2.3,64.2-30.8,49.1-34.6a3.7,3.7,0,0,0,.5-1.1h-1.6c0-1.5,0-2.2-1.6-2.2a3.7,3.7,0,0,0,.5-1.1c-1.5-1.5-.9-.6-1.6-2.7H497c0-4-3.7-6.7-4.9-10.3h-1.6v-4.9c.3,2.2.3,2.2.5,4.3v-8.1a17.42,17.42,0,0,0-2.2-.5c0-16.7-1.7-16.1-18.9-16.7-1.9,7.8-5.7,15.7-15.7,15.7,0-2.7-2.6-3.8-4.9-4.3v-1.1c-2.2,0-4.9-.8-7-1.1v-1.1c-5,0-10.1-.7-15.1-1.1a54.66,54.66,0,0,0-1.6,7c-1.4.1-10.3,2.1-10.3-1.6-1.5,0-2.8-.7-4.3-1.1v-1.1h-3.8v-1.1c-5.8,0-3.3-.3-7.6.5,0-2.9-2.6-3.8-3.2-6.5-12.7,0-13.5,1.1-8.6,10.8-20.7,20.7-17.3-5.4-23.8-5.4,1-2-1.5-6.5-3.8-6.5.7-1.4.1-1.1,1.6-1.1,0-5.1,14.7-20,7.6-20,0-14,4.2-11.9,4.9-20,.2-3-2.6-8.2-2.2-10.8.8-4.6,8.1-4.3,8.1-9.7h-1.1c0-9.6,7.9-8.2,15.7-10.8v-1.1c6.5-.6,10.3-.6,10.3-7.6,2.6-.6,6.8,3,8.6,2.2,8.5-3.7,3.8-15.6,3.2-21.6,2.4-.5,2.4-.5,4.9-1.1-.3-1.9-.3-1.9-.5-3.8.3,1.6.3,1.6.5,3.2.6-24.8-1.4-48.8-3.8-73.4-.6-6.3-3.2-22,2.7-26.5,6.8-5.1,16.9-1.4,25.4-1.6v-2.2H445V316c.3,4.3.3,4.3.5,8.6.2-3.2,0-6.5.5-9.7.1-.8,1.3-.9,1.6-1.6,14.1,7.1,20.5,27,34.6,27,0-7.7,8.1-10.3,13-15.1,3.1-3.1.5-12.5.5-17.8,20-1.3,5.8-22.1,30.8-22.1v-1.1c-3,0-2.7-2.2-4.9-3.2,6.6-13.2,19.6,10.9,25.9,13,0-12.9-4.5-13.3,10.3-14v6.5c10.8,0,5.4-.2,16.2.5,0-3.1-.5-4.3,2.7-4.3,0-3-8.7-14.6-11.9-15.7l1.1-1.1c-4.3-1.4-4.3-8-9.2-9.2,0-4.8-7.9-10.1-9.7-15.7h-1.1c-.5-1.4-1-2.5-1.6-3.8,3.3-.6,6.1-3.2,9.2-2.2a3.7,3.7,0,0,0,.5-1.1c9.1,3,23.5-8.1,31.9-8.1,0-3,1.3-15.2,4.3-16.7,4.3-2.2,9.7-.9,14.6-.5,1.4.1,4.2,5.3,5.9,5.9,6.4,2.4,11.5-.5,17.8-.5,3.3,0,4,6.2,6.5,7C645.46,224.6,648.46,221.5,649.46,231.7Z"/><path class="cls-4" d="M956.26,217.7c.9-1.8,1.5-3.2,3.8-3.2,0,2.3-3.5,7.7-.5,9.7,8.8,5.9,31.3,9.6,40.5,8.1,0-11.1,15.1-23.3,18.9-8.1,8.2.6,16.8.2,19.4,8.1,4.3,0,5.8,6.9,6.5,10.3,2-1,5.2-1,7.6-1.6,0,3.3,1.3,5.8-.5,8.6,2.1,1.4,2.4,2.4,1.6,4.9,3.4,0,1.8-.2,4.9.5.7-2.6,0-1.6,1.6-3.2,8.1,4.1,21.6,4.8,16.7,14.6,3.3,3.3,3.2,4.2,8.6,5.4-3.1-6.1,31.3-3.7,13,14.6,3.6,3.6.6,7.5,0,11.9,4.8,0,9.7-5.6,9.7-10.8,4.7-.7,5.7-1,6.5,3.8,12.6,0-4.9,17.4-4.9,17.8,9.2,0,36.5,5.3,28.6,21.1,6.6.5,10.6,1.2,17.3,1.6a19.39,19.39,0,0,0,.5,5.9c5.5-.8,6.7-.5,11.3,1.1,0,2.9-2.4,2.4-4.9,2.2-12.6-1-37.8,10.8-41-5.4-2.3,0-2.7-1.5-2.7-3.8-4.4-1.1-6.7-.5-7.6-5.4h-1.1c0-1.8-1.1-1.6-2.7-2.2v-1.1c-4.2,2.1-3.4,2.7-8.6,2.7-3.6,18-2.6,8.9-27.5,10.3-1.7.1-3.2,1.6-4.9,1.6v-3.2c-3.2,0-8.7,4.7-4.9,7.6,2.8,2.1,11.3,1.3,12.4,4.9,2.5,8.2-6.7,5.6-5.4,11.9a61.35,61.35,0,0,1-7,1.1c-.3,3.5-.3,3.5-.5,7,3.3,0,9.6.9,7,5.9h1.1c0,4.5-.4,4.7-3.8,8.1,2.1,1.1,2.1,3.4,1.1,5.4,2.9,0,4.3-.8,4.3,2.2-1.9.5-1.9.5-3.8,1.1a17.42,17.42,0,0,1,.5,2.2c-5.8.7-8.8,3.8-13.5,3.8-5.7,0-11.5-3.8-3.2-5.4,0-7.5-16.7,6.7-16.7,9.7,5.9,0,4.3,4.3,4.3,8.6,4.5,1.5,9.3.9,14,1.1,0,5.2-10.7-.1-14.6,3.8,4.1,2,9.8,3.8,5.4,9.7,18.7,9.3-.8,15.7-2.2,29.7-4.6.7-10,6.9-13.5,1.6,1.8-.9,2.5-2.1,4.3-2.7v-2.2c-2.6,0-2.9-1-5.4-1.6v-1.1c-3.1-.6-2.3.3-3.2-1.6a15.26,15.26,0,0,0,1.6-1.1c-2-2-.3-3.8,2.2-3.8-6.3-.6-3.6-.9-8.1,0-1.2,10.9-16.8,8.2-20.5,19.4-3.8,0-3.2-1.3-6.5-2.2-1.1,3.4,8.2,19.9,8.6,25.9,2.6,0,7,4.4,8.1,6.5-3.3,0-2-.5-4.3,1.1,20.1,10,24.6-5.3,30.8,19.4a5.39,5.39,0,0,0-2.2,1.6c1,1.4,9.7,4.5,12.4,5.4,0,1.6-.1.7.5,2.7-22.5-4.5-3.2,13.5-17.3,13.5-2.2,13.5-7.2,10.2-5.9,7.6a21.58,21.58,0,0,1-2.7.5c4.7,2.4,4,8.5.5,11.9h3.8c2.1,12.7,1.4,13.7-7.6,22.7,7,0,7.5,14.8,21.1,16.2,0,6.2-7.8,7-12.4,7-1.4,5.5-7,10.5-7,16.2,7.9,1,8.7,9.5,1.6,11.9,5.7,2.9,6.7,2.3,7.6,9.2-1.9.3-1.9.3-3.8.5-.6,6.8,5.4,14.5,5.4,14.6-.6,3-21.8,3.1-23.8,3.8s0,20.1,0,21.6c0,12.3-8.6,5.6-8.6,11.9,7.2,2.4,3.8,13-3.8,9.2-1.5,1.5-3.5,3.9-5.4,4.9,4.4,0,17.3-1.4,17.8,4.3,2.1,23.2-19.3,5.8-22.1,12.4-2.4,5.7-7.2,11.4-9.2,17.3,0,0,7.8,4.3,2.7,5.4-3.5.8-7.8-2.1-11.3-3.2V738c-2.5,1.3-4.9,1.1-7,3.2a3.7,3.7,0,0,1,.5,1.1c-7.5,7.5-2.2,16.2-10.8,24.8,4.3,8.7,21.6,8.1,29.2,8.1,1.6,4.7,3.5,6.7,4.3,11.9,12.6,1.8-8.4,19,0,22.7,14.8,6.6,20.6,16.8,38.9,18.4,0-4.3-.4-2.6.5-5.4,3.8,0,8.4,3.8,10.3,7.6-.7.4-1.3,1.1-2.2,1.1-6.5,0-13-.7-19.4-.5-2.6.1.2,5.7-1.6,7.6,6.6.4,23.5-1,18.9,8.1,13,0,6.8,11.2-1.1,15.1,3.3,9.8,5.1.5,11.3.5a7.94,7.94,0,0,1-1.1,4.9,3.7,3.7,0,0,0,1.1.5,12.33,12.33,0,0,1,7.6-3.2c0,2-.2,2.4-1.6,3.8,6.5,1.9,14.6,5.9,14.6,13,1.9.3,1.9.3,3.8.5,2.8-5.5,9.7-9.1,13-16.7a2.91,2.91,0,0,1,1.1-1.1c1.9-1.4,6.8,1.8,9.2,1.6,8.4-.8,13.9-8.9,27.5-9.7a3.7,3.7,0,0,0-1.1-.5c.8-.3,24.9-6.5,25.4-6.5-2.5-5,5.9-12.4,11.3-12.4a20.06,20.06,0,0,0-1.6-4.3c6.8-.6,13-2.5,20-3.2v-1.1h-1.1c1.8-3.6,10.6-3,13.5-3.2,0,2.2.5,3.2,1.1,5.4-2.5,1.7-.8,2.9-2.7,4.9.8,1.6,1.9,2.7,2.7,4.3-2.8,2.8-6.8,1.2-10.3,2.7-8.7,3.9-2.8,9.5-18.4,7.6v-1.1c-2.5,0-1.1.1-4.3-.5v-1.1c-15,0,1.2,9.1-1.6,18.9-.2.7-1,3.7-2.2,3.8-4.8.4-40,5.1-40-4.3-7.5,0-1.2,9.7-4.9,11.9-5.8,3.5-13.1,0-18.9,0-4.7,0-3.2,8.6-7.6,9.7-6.6,1.6-21.2.8-25.4,6.5-1.5,2.1,3.2,13.5,0,14-10.7,1.9-13.7-1.9-23.8,4.9,7.4,0,12,10.8,4.3,11.9-8.1,1.2-11.3-.5-19.4-.5-2.2,15.1-47.2,17-48.6,24.3-.8,4,2.6,10.6,3.2,14.6-20.2,6.8-9.4-8.1-15.1-8.1v-3.2c-3,1-6,1.5-8.6,3.2.9,3.6-5.8,5.9-9.2,5.9a3.7,3.7,0,0,0,.5-1.1h-1.1v-1.1c-2.7,0-4.7,1.1-7.6,1.1,3.9-5.8,15.5-3.7,18.4-8.1,2.3-3.4-2.8-7.2-1.6-10.8h-1.1c0-13.7-27.5,12.1-31.9-1.1-4.3-12.9,9.7-4.4,10.8-10.3,1.9-9.9-1.4-13,8.1-16.2-4.6-13.9,20-.9,22.7,4.3,5-2.5,2-5.8,11.9-10.3,2.5-1.1.5-5.4.5-8.1-2.2,0-5-5.7-7.6-4.9-1.2.4-9.2,9.3-9.2,1.6-1.6,0-.7.1-2.7-.5v-1.1c-2.2,0-3.6,2.8-4.9,4.3a51.48,51.48,0,0,0-5.9-2.7v-1.1c-4.3,0-7.9-8.1-12.4-9.2,0-2.7,2.2-2.7,2.2-4.9h2.7c0-3.4.2-5.2,1.6-8.1-5.2,4.4-6,9.2-13,9.2,0-1.8.8-3.2,2.7-3.2V877c-1.9,1-.7.6-3.8,0a3,3,0,0,1,3.2-3.2v-1.1c-2.4,0-6.3,1.4-7.6-1.1,3.4-.9,3.7-2.3,2.2-5.4,2.9-1.4.7-.5,7-1.1v-2.2c-3.5-.6-4,0-4.9-3.2a17.42,17.42,0,0,1,2.2-.5v-1.6c-2-.5-3.3-.8-4.3-2.7,1.3-1.3.6-1.1,2.2-1.1,0-2.8,1.3-7.3-.5-9.2,2.3-3.8,1.9-7.7,2.7-11.9.6-3.5,10.4-3.1,5.9-7.6,3.9-7.8-6.6-21.1,5.9-21.1v-2.7c-3.9-.7-2.6.4-4.3-2.2,1.3-1.3.6-1.1,2.2-1.1-1.3-3.9-3.7-1.5-2.7-6.5h-1.1c1.6-3.2.6-.7,0-8.1,2.2-.3,2.2-.3,4.3-.5-1-3.9-.6-1.4,0-7.6-5.4-1.8,2.2-23.8,1.1-30.2h-1.1a3.7,3.7,0,0,0,.5-1.1c-2.2-1.1.1-3.8-2.7-3.8a9.83,9.83,0,0,0,.5-1.6,3.7,3.7,0,0,0-1.1-.5c.7-2.9-.2-2,2.7-2.7,0-2.7,0-.7-.5-5.9H919c0-2-.2-1.1.5-2.7h-1.1a17.42,17.42,0,0,0,.5-2.2,3.7,3.7,0,0,1,.5,1.1c0-7.6,1.7-4.3,8.1-6.5-3.4-10.1,7.3-28.3,3.8-38.9,1.7-.9.7-.4,3.2-1.1v-1.1c2.5-.6,1.8.1,2.7-1.6a9.83,9.83,0,0,0-1.6-.5c.8-2.5,1.2-2.3,3.8-1.6a11.6,11.6,0,0,0-2.7-1.1c0-3.5,3.7-3.4,6.5-2.7v-1.1h-1.1c1.2-3.5.6-1,0-7.6H941c0-3.8-.8-2.5,1.1-4.3a3.7,3.7,0,0,1-.5-1.1c1.3-1.3,2.2-9.6,1.6-11.9,4.9-2.5,4.3-11.1,5.4-15.7,1.7-6.7,8.9-11.5,11.3-18.9-9.2-3.1-6.2-7.5-2.7-14.6-2.6-1.3-8.7-7.5-2.2-10.8-2-4-3.3-8.2-5.4-12.4,3.6-3.6,1.2-8,2.2-13-1.9-.3-1.9-.3-3.8-.5,0-2.6.5-4.9.5-7.6-9.6-.6-6.4.8-10.3-1.1,1.7-2.6,2.6-10,1.6-13,2.5-1.2,1.5-3.8,5.4-3.8v-4.3H942c0-1.8.8-3.8,0-5.4,3.2-1.6,1.1-.1,1.1-7.6H942c1.1-2.2,0-3.8,3.2-3.8-2.3-4.5-2.1-6.5-1.6-13-3.4,0-2-3.4-3.2-5.9,1.4-.7,1.1-.1,1.1-1.6-4.7,0-10,.8-14.6,1.1-.9-4.7-4.4-8.4-5.9-13h-1.1a3.7,3.7,0,0,0,.5-1.1c-1.7-1.7-1-.6-1.6-3.8h-1.1c0-2.9-.6-3.8,2.7-5.4-.8-1.6-.1-1.1-2.2-1.1a3.7,3.7,0,0,0,.5-1.1c-1.5.8-1.1,1.6-1.6,3.2-3-.3-3-.3-5.9-.5-.6-3.6-1-2.3,0-4.3h-1.1a17.42,17.42,0,0,0,.5-2.2H909a3.7,3.7,0,0,1,1.1-.5c-4.2-1.4-4.3-7.6-4.3-11.3h-1.1v-1.1h-2.2c.9-1.9,1.5-3.5,2.2-5.4h-4.9V444c2.4-.3,2.4-.3,4.9-.5,0-4-7.6-8.2-9.2-13h-1.1c1-2.1.1-1,3.8-1.6a21.58,21.58,0,0,0-2.7-.5,3.7,3.7,0,0,0,.5-1.1c-2-.7-1.4,0-2.2-1.6,3.1-1.6,2.7-3.6,6.5-4.3v-2.2h-2.7c0-3.1-.4-1.9.5-3.8-2.5-.6-1.8.1-2.7-1.6l1.1-1.1c-1.5-3.1-4.6-3.1-6.5-5.9a17.42,17.42,0,0,1,2.2-.5v-1.1h-1.1c0-7.1-10.3-11.7-7-18.4-1.9-1-1-.1-1.6-3.2,3.8-1.9,3.2-.9,3.2-6.5-2.2,0-.7-.1-4.3.5v-1.1c-1.6,1.6-2,1.6-4.3,1.6,0-7.1,9.1-19.1,7-25.4-8.2,0,3.1-8.1,7-8.1v-1.1h-1.6c0-5.8,18.2-4.8,19.4-4.9V337h-1.1c-1-3-4.5-3.7-5.4-5.4-.5-1.1,15.4-9.2,17.3-9.2a17.42,17.42,0,0,0,.5-2.2c-4.2,2.1-10.5,3.2-15.1,3.8,5.4-8.1,14.3-7.6,21.1-7.6a3.7,3.7,0,0,1-.5-1.1c3.5,0,1.4,3.8,4.9,3.8v-3.2c-3.1,0-2.3-19.8-1.6-24.8-.5,0-26.2,4-22.7-6.5h-1.1c0-17.5-16.3,5.1-20-2.2-1.4-2.8,3.2-3.9,3.2-5.9-2,0-4.9.9-4.9-1.6-4.4,0-4.3-4.3-4.3-7.6-2.1,0,1.3-12.3,2.7-13-.6-2.6-.9-1.5,0-3.2h-1.6c0-1.5-.7-2.8-1.1-4.3h-4.9v-1.1h-1.1a3.7,3.7,0,0,0,.5-1.1h-1.1v-4.3h-1.1c1.2-2.4,2.7-5.5,2.7-8.6h-1.1v-1.1c-2.3,1.7-21.6,15.6-23.2,12.4-1.8-3.7,1.3-3.4,0-5.9L851,236a3.7,3.7,0,0,1-.5-1.1c1.7-.9,1.1-.1,1.1-2.7h-1.1c0-8-.7-25.4,11.9-25.4v-2.7a17.42,17.42,0,0,0-2.2-.5c0-14.7,21.3-1.5,29.2,1.1,4.2-16.7,28.1,3.3,28.1-5.4,8.7-1,29.1-11.4,34,3.2C954.16,207.8,950.16,214.7,956.26,217.7Z"/><g id="Layer_4" data-name="Layer 4"><path class="cls-5" d="M994.46,477.9a35.28,35.28,0,0,0-1.4-5.6,28.58,28.58,0,0,0-5.5-8.3c-2.5-2.7-6.1-4.4-8.6-7.2-1.8-2-1.2-4.5-1.4-6.9a10.64,10.64,0,0,0-1.6-4.3c-.2-.4-1.5-2.8-2.3-2.3-.3.1-.3,1.7-.4,1.9-.1,1-.2,6.3-.9,6.6s-2.3-1.6-2.7-2a21.27,21.27,0,0,0-3-3c-2-1.3-4.4-2.3-6.1-3.9s-1.3-4.9-1.1-6.9c.4-4.6,1-9.2,0-13.8a11.64,11.64,0,0,0-2.1-5c-.4-.4-.6-1.4-1.2-1.2-.4.1-.3,3.5-.4,4-.2,2.4-1.1,4.9-1.1,7.4,0,1.5.1,3,.1,4.5,0,.6.2,2.6-1,1.5a8.49,8.49,0,0,1-1.1-2.6,51.59,51.59,0,0,1-2.1-7.7c-.7-3.4-2.6-6.7-2.8-10.2-.2-4.3,1-8.5.4-12.8-1-7.7-5.9-14.2-10-20.6a23.38,23.38,0,0,1-2.5-5c-.7-2.1-.8-4.4-2-6.4-.2-.4-1.7-3-2.1-2.8a9.85,9.85,0,0,0-.2,1.7,40.67,40.67,0,0,0-.7,6.1c.1,5.3,4.1,8.4,6.5,12.7,1.5,2.7,2,5.8,3.1,8.7a22.88,22.88,0,0,0,.8,2.8c.6,1.2,1.3,1.7,1.4,3.1.3,3.8-1,7.5-.4,11.3a61.18,61.18,0,0,0,2,8.2c1.9,7.4,4.5,14.4,8.8,20.8,2.1,3.1,5.1,5.3,7.7,7.9.9.9,1.3,2.2,2.2,3.1a19.17,19.17,0,0,0,2.2,1.8c3.3,2.3,8.7,2.5,11.4,5.5,1,1.1,1.7,2.4,2.8,3.4s2.4,1.9,3.6,2.9a54.78,54.78,0,0,1,5.9,5.9c.6.8,1,1.6,1.6,2.4.9,1.3,2.1,2.3,2.7,3.7,0,0,.6,1.6.8,1.5A.83.83,0,0,0,994.46,477.9Z"/><path class="cls-5" d="M932.26,365c-.1-.1-.4-.2-.5,0a5,5,0,0,0-.2,1.7c-.1.7-.2,1.4-.3,2a19.62,19.62,0,0,0-.3,5.4c.7,4.8,4.7,8,6.8,12.1a30.9,30.9,0,0,1,1.8,5.1c.3,1.1.8,2.3,1.1,3.4.2.6.3,1.3.5,1.9.3.9,1,1.6,1.3,2.4a7.15,7.15,0,0,1,.3,2.5,29.84,29.84,0,0,1-.4,4.2,23.58,23.58,0,0,0-.2,3.8,27.33,27.33,0,0,0,.5,4c.4,2,1,4.1,1.5,6.1a87.76,87.76,0,0,0,3.9,11.6,49.8,49.8,0,0,0,5.4,9.9c2,2.7,4.8,4.8,7.2,7.1a19.23,19.23,0,0,1,1.7,2.6,12.61,12.61,0,0,0,3.1,2.5,6.12,6.12,0,0,0,1.2.5,16.28,16.28,0,0,1-3.5-2.3c-1.1-1-1.5-2.4-2.5-3.4-2.4-2.4-5.1-4.4-7.1-7.1a38.13,38.13,0,0,1-3.8-6.5,88.27,88.27,0,0,1-5.2-14.1,79.32,79.32,0,0,1-2.1-8.4,22.86,22.86,0,0,1,0-6.4,27.26,27.26,0,0,0,.3-5.7,2.66,2.66,0,0,0-.3-1.2c-.3-.7-.8-1.3-1.1-2-.4-.9-.5-1.9-.8-2.8-.4-1.2-.8-2.4-1.1-3.7a24.17,24.17,0,0,0-1.9-5.1c-1.9-3.2-4.8-6-6-9.6-.8-2.3-.5-4.7-.1-7.1.1-.8.3-1.7.4-2.5a2.2,2.2,0,0,1,.1-.8.37.37,0,0,1,.1-.3h.1s.1.1.1,0c.1.1.2.3.3.4a2.09,2.09,0,0,1,.4.6,22,22,0,0,1,1.5,2.6,26.17,26.17,0,0,1,1.3,4.8,20,20,0,0,0,1.7,4c.9,1.6,2,3.2,3,4.8,2.6,4,5.2,8.1,6.8,12.7a22.62,22.62,0,0,1,1.2,6.8c.1,3.6-.7,7.1-.5,10.6a16.4,16.4,0,0,0,.9,4.4c.5,1.7,1.2,3.3,1.7,5.1.7,2.7,1.1,5.4,2,8a10.37,10.37,0,0,1,.4,1c.3.8.6,2.5,1.6,2.8.4.1.6-.2.7-.6a8.1,8.1,0,0,0,0-2.2v-.8c0-1.4-.1-2.8,0-4.2.2-2.1.8-4,1-6.1v-2.2a4.87,4.87,0,0,1,.1-1.2v-.4h.1c.2,0,.3.3.3.4a8.65,8.65,0,0,0,.7,1,13,13,0,0,1,2,5.7c.7,4.2.1,8.4-.3,12.6-.2,2-.5,4.9.8,6.7a11,11,0,0,0,2.3,2c1.2.8,2.5,1.4,3.7,2.1a17.72,17.72,0,0,1,3.4,3.3,10.08,10.08,0,0,0,1.9,1.7,2.11,2.11,0,0,0,1,.4c.7-.1.8-1.4.8-1.9.2-1.6.2-3.2.3-4.9a7.72,7.72,0,0,1,.2-1.5c0-.2,0-.4.3-.3a2,2,0,0,1,.8.8,14.79,14.79,0,0,1,1.3,2.1,9.12,9.12,0,0,1,1.2,3.5c.2,2-.2,4.1.8,5.9a10,10,0,0,0,2.8,3c2.2,1.8,4.6,3.2,6.5,5.3a27.8,27.8,0,0,1,5.4,8.2,12.66,12.66,0,0,1,.6,1.8,31.7,31.7,0,0,1,.8,3.7c0,.1.1.1.2.1l.1-.1v.3h.1c.2,0,.3-.2.2-.3-1.1-4.7-.6-3.2-1.1-4.7a25.44,25.44,0,0,0-7.6-11c-1.8-1.5-3.8-2.7-5.5-4.3a7.35,7.35,0,0,1-2.3-3c-.5-1.7-.2-3.6-.4-5.4a11,11,0,0,0-1.7-4.2,6.69,6.69,0,0,0-1.4-1.9,1.27,1.27,0,0,0-.9-.4c-.8,0-.8,1.4-.8,2a43.79,43.79,0,0,1-.4,5.1c0,.2-.1.4-.1.6s-.1.8-.3.9-.6-.3-.6-.3-.2-.1-.2-.2a18.88,18.88,0,0,1-2-2,14.78,14.78,0,0,0-2.5-2.5c-1.3-.9-2.8-1.6-4.2-2.5a13.3,13.3,0,0,1-1.9-1.4,3.74,3.74,0,0,1-1-2.5,24.42,24.42,0,0,1,.2-5.4c.4-4.5.8-9.1-.3-13.6a11.67,11.67,0,0,0-1.4-3.5l-.6-.9c-.3-.4-.4-1-.9-1.2-.9-.3-.8,1.6-.9,2.1v1.7a30.88,30.88,0,0,1-.9,5.3,26.14,26.14,0,0,0-.2,4v3.1c0,.5.3,2.2-.6,1.3a7.56,7.56,0,0,1-1.1-2.6,57.1,57.1,0,0,1-1.9-7.1,19.16,19.16,0,0,0-.9-3.2c-.8-2.5-1.9-5-2-7.6-.1-2.1.2-4.2.3-6.4a27.4,27.4,0,0,0,0-6.4,27,27,0,0,0-1.4-5.6c-1.8-4.9-4.8-9.1-7.5-13.5a34.05,34.05,0,0,1-3.5-6.5c-.5-1.4-.7-2.9-1.1-4.3a18.46,18.46,0,0,0-2.3-4.4C932.56,365.4,932.46,365.1,932.26,365Zm62.2,113.2-.1-.1c-.2.2-.5.5-.6.3,0,.1.1.2.1.3C994.06,478.9,994.46,478.4,994.46,478.2Zm-.8.2a17.38,17.38,0,0,0-1-1.9,5.36,5.36,0,0,1,.5,1.1,3.51,3.51,0,0,1,.5.8Zm-.9-1.9a7.89,7.89,0,0,0-1.2-1.5c-.5-.6-1-1.2-1.5-1.9.2.2.3.5.5.7A18.57,18.57,0,0,1,992.76,476.5Zm-2.6-3.4a14,14,0,0,0-1-1.6,2.65,2.65,0,0,1-.5-.6C989.16,471.6,989.66,472.3,990.16,473.1Zm-1.6-2.2c-.1-.1-.1-.2-.2-.3a34.46,34.46,0,0,0-2.6-2.8A28,28,0,0,1,988.56,470.9Zm-21.8-16.7c.1,0,.1.1.2.1s.2,0,.2.1A.52.52,0,0,0,966.76,454.2Zm.4.1c1.5.7,3.2,1.2,4.7,1.8C970.36,455.6,968.76,455,967.16,454.3Zm5.6,2.2a11.09,11.09,0,0,1,3,1.7c-.4-.3-.8-.7-1.2-1A13.36,13.36,0,0,0,972.76,456.5Zm3,1.7a1.76,1.76,0,0,1,.5.4.1.1,0,0,0-.1-.1C976.06,458.4,975.86,458.3,975.76,458.2Zm.5.4c1.1,1.1,1.9,2.6,3,3.7s2.4,1.9,3.6,2.9a2.65,2.65,0,0,0-.6-.5,35,35,0,0,1-3-2.4c-1-1.1-1.8-2.3-2.8-3.4C976.46,458.7,976.36,458.7,976.26,458.6Z"/><path class="cls-5" d="M962.26,450.7a53.93,53.93,0,0,0,4.3,3.9,11.51,11.51,0,0,0,1.7,1.4,18,18,0,0,1,2.1.8c1.4.9,2.5,2.3,3.9,3.2s2.2,1.8,4.1,1.7c.2,0,.3.1.5,0,.4-.2,0-.9,0-1.1-.4-1.2-1.6-2.1-2.4-3.1a22.26,22.26,0,0,0-2.7-2.6c-1.4-1.1-3.1-1.6-4.7-2.5s-2.9-2.3-4.8-3"/><path class="cls-5" d="M964.26,449.3s-1.3.8-.9.6c.5-.4,1.2-.2,1.8-.2.3,0,.5.3.8.5a3.51,3.51,0,0,0,.8.5,32.07,32.07,0,0,0,3.1,1.9,31.1,31.1,0,0,1-3.8-2.5c-.3-.2-.5-.5-.8-.5C964.46,449.7,964.26,449.3,964.26,449.3Zm-1.1.8c.3-.2-.3.2-.6.5.1.1.2.2.3.2A.91.91,0,0,1,963.16,450.1Zm-.4.7a2.77,2.77,0,0,0-.1.9c0,.3.5.5.7.7l2.2,1.9a12.39,12.39,0,0,0,2.2,1.8c.9.5,1.9.6,2.8,1.2s1.5,1.3,2.2,1.9a14.65,14.65,0,0,0,2.4,1.7,8,8,0,0,0,1.6.8,5,5,0,0,0,1.2.2h.4c.2,0,.4.1.5,0,.5-.3.2-.9,0-1.3a7.27,7.27,0,0,0-2-2.6c-.7-.8-1.4-1.5-2.2-2.3a7,7,0,0,0-1.7-1.3c-1-.6-2.1-1-3.2-1.6a3.51,3.51,0,0,1,.8.5,14.28,14.28,0,0,1,2.7,1.5,13.36,13.36,0,0,1,2.1,2,6.47,6.47,0,0,1,.8.9,10.34,10.34,0,0,1,2.4,3.1c.1.2.4.8.1,1h-1.2a1.93,1.93,0,0,1-1-.3c-.4-.2-.8-.5-1.2-.7-.6-.4-1.2-.8-1.7-1.2a34.67,34.67,0,0,0-2.9-2.5,3.88,3.88,0,0,0-1.1-.6,11.5,11.5,0,0,1-1.7-.6,14.93,14.93,0,0,1-1.4-1.2,15.76,15.76,0,0,0-1.5-1.2,15.76,15.76,0,0,0-1.5-1.2c-.2-.2-.6-.4-.7-.7C963.06,450.9,963,450.9,962.76,450.8Zm-.3-.2h0c-.2-.2-.4-.2-.5-.1a.3.3,0,0,0,0,.4A5.2,5.2,0,0,1,962.46,450.6Z"/><path class="cls-5" d="M976.56,461c2.1,1.7,4.4,2.6,6.5,4.5.9.8,1.8,1.5,2.7,2.4.2.2.7.7,1,.4s-.2-.7-.3-.8c-.7-.8-1.3-1.7-1.9-2.5a18.12,18.12,0,0,0-4-4.3c-2.1-1.7-3.5-2.4-4.8-3.8"/><path class="cls-5" d="M975.76,456.9a18.33,18.33,0,0,1,.5,1.9,4.14,4.14,0,0,1-.2-1.6C976,457.8,975.76,456.9,975.76,456.9Zm.4.4c0-.1.2.2.3.3s.5.4.7.6c.6.5,1.3,1,2,1.5a20.92,20.92,0,0,1,5.3,5.4c.4.6.8,1.2,1.2,1.7.2.3.4.5.6.8.1.1.6.5.2.6a.35.35,0,0,1-.2-.1,15.38,15.38,0,0,1-1.3-1.2c-.2-.1-.3-.3-.5-.4s-.3-.3-.5-.4-.3-.3-.4-.4a18.33,18.33,0,0,0-2.6-2.1c-.9-.6-1.8-1.1-2.7-1.7a1,1,0,0,1-.5-.4,1,1,0,0,1-.5-.4c-.4-.7,0,0-.5-.4h-.1l.3.9c.1.2.4.3.5.4a10.54,10.54,0,0,0,1.1.7,32.35,32.35,0,0,1,4.3,2.9c.8.6,1.5,1.3,2.3,2,.3.2.6.6.9.8s1,0,.9-.5c-.1-.2-.3-.4-.4-.6a5,5,0,0,0-.7-.8,5.5,5.5,0,0,0-.7-.9l-1.8-2.4a19.28,19.28,0,0,0-3.3-3.1l-3-2.1c-.2-.2-.5-.4-.7-.6,0,.1-.2-.3-.2-.1Zm.5,3.5a11.5,11.5,0,0,1-.6-1.7c-.1-.5.1.5.3,1.8A.37.37,0,0,1,976.66,460.8Z"/><path class="cls-5" d="M996.76,545.8c.1.6.8,3.3,1.9,3,.9-.3.6-1.9.6-2.6,0-1.7.7-3.3.8-4.9a13.13,13.13,0,0,0-.1-2.8c-.2-4.5-3.8-6.9-5.5-10.7a14.53,14.53,0,0,1-.6-4.1c-.3-4.8,2-9.3,3.9-13.5a29.83,29.83,0,0,0,2.1-13.2c-.4-3.9-.7-7.9-2.5-11.5-.2-.5-1.7-3-2.4-2.5a19.56,19.56,0,0,0-.1,3.5c-.2,4.3,1.4,8.4,1.2,12.7a35.83,35.83,0,0,1-.9,4.5,45.93,45.93,0,0,1-2.4,9,21.28,21.28,0,0,1-1.6,2.5,13.14,13.14,0,0,0-1.8,6.4c0,2.4.2,5.6,1.2,7.8a21.6,21.6,0,0,0,2.7,4,14.48,14.48,0,0,1,1.8,1.7,15.5,15.5,0,0,1,1.4,2.9C997.36,540.5,996.36,543.3,996.76,545.8Z"/><path class="cls-5" d="M995.16,482.7c-.6.1-.5,1.5-.5,1.9v1.9a29.66,29.66,0,0,0,.3,4.2c.3,2.1.8,4.2,1,6.3v2.1a23.92,23.92,0,0,1-.9,4.5c-.5,2.3-.9,4.6-1.6,6.8-.3.8-.5,1.7-.8,2.5s-1.1,1.5-1.5,2.2a14.93,14.93,0,0,0-1.7,5.8,12.73,12.73,0,0,1,1.8-5.7,14.32,14.32,0,0,0,1.5-2.2,18.41,18.41,0,0,0,.9-2.5c.7-2.2,1.2-4.5,1.7-6.8a35.83,35.83,0,0,0,.9-4.5v-2.1c-.2-2.5-.8-4.9-1-7.4a43.41,43.41,0,0,1-.1-5.1v-1.1c0-.4.1-.8.5-.4.1.1.2.1.2.2a11.73,11.73,0,0,1,1.9,3,24.51,24.51,0,0,1,1.6,6.6,40.47,40.47,0,0,1,.5,6,30.31,30.31,0,0,1-1.5,9c-.6,1.8-1.4,3.5-2.1,5.2-1.3,3.1-2.5,6.4-2.5,9.8a13.55,13.55,0,0,0,.5,4.5,9.41,9.41,0,0,0,1.2,2.2c1,1.5,2.2,2.9,3.1,4.5a9.89,9.89,0,0,1,1.4,4.7,12.8,12.8,0,0,1-.2,3.9,14.68,14.68,0,0,0-.5,2.9v1.6c0,.4,0,1.1-.5,1.1a.82.82,0,0,1-.6-.4c-.4-.5,0,0-.9-2.3,0-.1-.2-.2-.3-.2v-.1h0c-.2,0-.3.2-.2.3v.1a2.54,2.54,0,0,0,.2.7c0,.1.1.2.1.4.3.8.9,2.3,2,2,1.3-.3.8-2.3.8-3.3.1-1.5.6-3,.8-4.5a9.66,9.66,0,0,0-.1-2.4,8.75,8.75,0,0,0-.2-1.6c-.5-2.8-2.3-4.8-3.9-7.1a16.92,16.92,0,0,1-1.7-2.9,6.72,6.72,0,0,1-.4-2.4,20.25,20.25,0,0,1,.4-6c.8-3.4,2.5-6.5,3.7-9.8a28.32,28.32,0,0,0,1.8-9.1,43,43,0,0,0-.4-6.2,24.81,24.81,0,0,0-1.8-7.6,12.23,12.23,0,0,0-1.7-2.9C996,483.1,995.66,482.7,995.16,482.7Zm1.6,62.8h0v-2.8a10.87,10.87,0,0,0-.1,1.8A2.79,2.79,0,0,0,996.76,545.5Zm-7.3-24.3c0,.4-.1.7-.1,1.1a22.2,22.2,0,0,0,1.2,7.2,12,12,0,0,0,1.3,2.1c.5.7,1,1.3,1.5,1.9.4.4.8.7,1.2,1.1l-.9-.9a8.06,8.06,0,0,1-1.2-1.4,16.65,16.65,0,0,1-1.8-2.8,19.86,19.86,0,0,1-1.1-5.9A20.08,20.08,0,0,1,989.46,521.2Zm5.4,13.7a4.25,4.25,0,0,1,1,1.7,10.43,10.43,0,0,1,.8,2.5,10.43,10.43,0,0,0-.8-2.5,6.38,6.38,0,0,0-.8-1.4C995.06,535,995,535,994.86,534.9Zm1.8,4.2a4.33,4.33,0,0,1,.1.5v-.2C996.76,539.3,996.66,539.2,996.66,539.1Zm.1.4a29.34,29.34,0,0,1,0,3,22.6,22.6,0,0,0,.1-2.6C996.86,539.8,996.76,539.7,996.76,539.5Z"/><path class="cls-5" d="M999,561c.1,2.1.2,5.8.9,7.8a18.87,18.87,0,0,1,1.3,3.3,26.15,26.15,0,0,1,0,2.8c.1.9.8,3.7,2,3.5.7-.1.8-1.2,1-1.7a18.89,18.89,0,0,0,.6-8.4,25.57,25.57,0,0,0-1.1-2.4,10.78,10.78,0,0,1-.4-3.6,6.69,6.69,0,0,1,.5-1.9c.4-1.1.5-2.4.8-3.5.5-1.8,1.2-4.1.5-6-.2-.4-1.5-3.6-2.3-2.9a4.68,4.68,0,0,0-.2,1.6,10.06,10.06,0,0,1-.8,3.9C1000.56,556,998.76,558,999,561Z"/><path class="cls-5" d="M1002.86,548c-.4.2-.3.9-.4,1.3-.1,1-.1,2.1-.3,3.1-.5,1.9-1.8,3.5-2.5,5.4v.2c0-.1,0-.1.1-.2.8-1.8,2.1-3.4,2.6-5.3.2-.9.3-1.8.4-2.6a3.64,3.64,0,0,1,.2-1.5c.2-.4.7.2.9.3a8,8,0,0,1,1.7,4.5,22.43,22.43,0,0,1-.9,4.5c-.2.8-.3,1.6-.5,2.4s-.5,1.4-.7,2.1a8.1,8.1,0,0,0,.1,3.1c.2,1.1,1,2,1.3,3a10.53,10.53,0,0,1,.3,4c-.1,1-.2,2.1-.4,3.1a24.13,24.13,0,0,1-.8,2.5c-.1.3-.4.7-.8.5a2.47,2.47,0,0,1-1-1.6,7.85,7.85,0,0,1-.5-2.2c0-.6.1-1.3.1-1.9a12.81,12.81,0,0,0-1.1-3.3,9.83,9.83,0,0,1-.5-1.6c-.4-1.6,0,0-.6-6.7a.22.22,0,0,0-.2-.2v-.1a.27.27,0,0,0-.3.3c.1,1.2,0,.7.1,1.1,0,.7.1,1.4.1,2.1a24.22,24.22,0,0,0,.7,4.7c.3.9.9,1.8,1.2,2.7a9.42,9.42,0,0,1,.1,2.9,7.72,7.72,0,0,0,.2,1.5,5.45,5.45,0,0,0,1.2,2.4,1.06,1.06,0,0,0,1.7-.4,5.64,5.64,0,0,0,.4-1.2,17.78,17.78,0,0,0,.8-4.7,15.83,15.83,0,0,0-.3-3.8,17.55,17.55,0,0,0-1.1-2.4,5.87,5.87,0,0,1-.4-2.3,10.87,10.87,0,0,1,.1-1.8l.6-1.8c.2-1,.4-2,.6-2.9a21.69,21.69,0,0,0,.7-3.5,7.61,7.61,0,0,0-1.5-4.8C1003.76,548.4,1003.26,547.8,1002.86,548ZM999,560.7h0c.1-.2.4-2,.6-2.8a4.55,4.55,0,0,0-.5,2,2,2,0,0,0-.1.8Z"/><path class="cls-5" d="M1012.66,604.7a7.19,7.19,0,0,1-1.3-2.8c-.5-1.3-1.5-2.2-1.6-3.7-.2-1.3.8-2.6.8-3.9a23.57,23.57,0,0,0-.7-6.5,18.1,18.1,0,0,0-.3-2.3,13,13,0,0,0-4.2-4.2c-.9-.4-2.6.1-2.3,1.4.5,1.8,2.1,3.3,2.5,5.2a7.94,7.94,0,0,1,.1,2.2,19.48,19.48,0,0,0,.6,2.3c.2,1.8-.1,3.8,0,5.7a18.43,18.43,0,0,0,.5,2.5,15.83,15.83,0,0,0,.5,3.8,6,6,0,0,0,.9,1.3,7.45,7.45,0,0,1,1.1,2.4,11.28,11.28,0,0,1,.8,2.4c0,.5-.4,1-.2,1.5.5,1.3,2.2-.1,2.6-.8C1013.66,609.6,1013.86,606.2,1012.66,604.7Z"/><path class="cls-5" d="M1004,581.2c-.5.2-1,.5-1,1.1a4.54,4.54,0,0,0,.8,2.3c.7,1.2,1.7,2.3,1.9,3.7.1.7,0,1.3.1,2,.1.9.5,1.7.6,2.6.1,1.7-.1,3.5,0,5.2a18.43,18.43,0,0,0,.5,2.5,16.48,16.48,0,0,0,.4,3.2,4.53,4.53,0,0,0,1.1,1.9,12.44,12.44,0,0,1,1,2,9.18,9.18,0,0,1,.9,2.8c0,.7-.6,1.3.1,1.9s1.5-.2,2.1-.9c-.5.5-1.6,1.5-2.1.8s.1-1.1,0-1.8a3.26,3.26,0,0,0-.4-1.4,26.79,26.79,0,0,0-1.2-3c-.3-.5-.8-.9-1.1-1.4-.1-.2-.2-.6-.3-.8-.2-1-.2-2.2-.3-3.2-.1-.7-.3-1.4-.4-2.1a6.15,6.15,0,0,1-.1-1.4,30.09,30.09,0,0,0,0-5.2c-.1-.6-.4-1.1-.5-1.7a8.55,8.55,0,0,1,0-1.6,5.26,5.26,0,0,0-.4-1.7c-.5-1.2-1.4-2.2-1.9-3.4-.4-.9-.6-1.7.5-2,.2,0,.3-.1.5-.1a.9.9,0,0,1,.5.1c.9.2,1.8,1.3,2.5,1.9s1.7,1.6,1.8,2.6a12.25,12.25,0,0,0,.2,1.9,19.63,19.63,0,0,1,.6,6.4c-.1,1.3-.9,2.3-.9,3.6a7.62,7.62,0,0,0,1.4,3.5l1.7,3.4a.14.14,0,0,0,.2,0v-.2a.35.35,0,0,1,.1.2h0c.1-.1.2-.3.1-.4-.7-1.3-.5-.8-.7-1.2a18.94,18.94,0,0,0-.9-2.1,10.11,10.11,0,0,1-1.3-3,4.62,4.62,0,0,1,.6-2.5c.1-.5.2-.9.3-1.4a20.15,20.15,0,0,0-.5-5.5l-.3-1.2a16,16,0,0,0-.3-2.3,11.33,11.33,0,0,0-2.2-2.7,10.44,10.44,0,0,0-2-1.5A3.22,3.22,0,0,0,1004,581.2Zm8.8,23.7h-.1c.1.3.8,4.3.1,5.9a7.25,7.25,0,0,0,.6-4.1c0-.2-.1-.4-.1-.6A2.37,2.37,0,0,0,1012.76,604.9Zm0,5.9-.3.6.3-.3Zm-.3.6c0,.1-.1.1-.2.2,0-.1.1-.1.2-.2Z"/><path class="cls-5" d="M1001.56,633.1a7.48,7.48,0,0,0-1-3.2,8.36,8.36,0,0,1-1.2-2.3,12.18,12.18,0,0,1,0-2.7c0-1-.1-2.1-.1-3.1,0-2.3-.6-4.5-.2-6.8a7.74,7.74,0,0,1,1.1-3,8.6,8.6,0,0,0,2.1-2.6,18.74,18.74,0,0,0,.6-8.8,12.85,12.85,0,0,0-.7-3.4,15.28,15.28,0,0,0-4.8-5c-.7-.5-1.8-1.4-2.7-1.3-.6.1-.6.9-.4,1.3.5,1.2,1.5,2.1,2,3.4s1.5,2.3,2.1,3.6.5,3.1.9,4.6c.8,2.9-3.1,6.1-4.2,8.7-1.1,2.8-.5,5.8-.2,8.7a14.77,14.77,0,0,1-.1,2.1,20.74,20.74,0,0,0,3.5,9.2c.4.5,2.1,3.6,3,2.7A2.33,2.33,0,0,0,1001.56,633.1Z"/><path class="cls-5" d="M994.86,590.7c-.2,0-.3.1-.5.2-.5.5,0,1.4.3,1.9,0,.1.1.2.2.3a2.19,2.19,0,0,0,.3.5c.3.5.6.9.9,1.4s.5,1,.8,1.5a12.83,12.83,0,0,1,1.7,3c.4,1.1.4,2.3.7,3.5l.3,1.5a6.62,6.62,0,0,1-1.2,3.3,46.64,46.64,0,0,0-3,4.7c-1.2,2.7-.4,5.9-.2,8.7,0,.6-.1,1.2-.1,1.7a6.93,6.93,0,0,0,.3,2,21.72,21.72,0,0,0,.7,2.4,22.88,22.88,0,0,0,1,2.3c.5,1,1.1,2,1.7,3l1.2,1.8c.2.2.6.8,1,.9a4.3,4.3,0,0,1-1-.9,18.76,18.76,0,0,1-1.2-1.8,20.3,20.3,0,0,1-3.5-9.2c0-.6.1-1.2.1-1.7a4.1,4.1,0,0,0-.1-1.1c-.3-2.6-.8-5.5.3-7.9.9-2,2.4-3.5,3.5-5.4a4.53,4.53,0,0,0,.7-3.4,28.35,28.35,0,0,0-.8-4.2,15.09,15.09,0,0,0-1.5-2.8,15.11,15.11,0,0,1-.9-1.8,10.54,10.54,0,0,0-.7-1.1,3.21,3.21,0,0,1-.3-.5,2.19,2.19,0,0,0-.3-.5c0-.1-.1-.2-.1-.3-.1-.3-.5-1.3.1-1.3a4.12,4.12,0,0,1,2.4,1.1,10.47,10.47,0,0,1,1.1.8,16.73,16.73,0,0,1,3.1,3.4,5.67,5.67,0,0,1,.8,1.3,17,17,0,0,1,.4,2.2c.1,1,.2,2,.3,2.9a18.28,18.28,0,0,1-.4,5.2,5.63,5.63,0,0,1-.7,1.8,19,19,0,0,1-1.9,2.1,6.08,6.08,0,0,0-.9,1.8c-.7,2.3-.2,4.7-.1,7.1.1,1.4.1,2.8.1,4.2a8.77,8.77,0,0,0,0,2.8c.3,1.2,1.2,2.1,1.7,3.3.1.3,0,0,.5,2.1a.27.27,0,0,0,.3.3h0a.32.32,0,0,0,.3-.3c-.3-1.7-.2-1.2-.3-1.7a7.74,7.74,0,0,0-.7-1.6,16.18,16.18,0,0,1-1-1.8,5.72,5.72,0,0,1-.1-2.6v-1.5c0-1.1,0-2.2-.1-3.2s-.2-2.3-.3-3.4a8,8,0,0,1,.9-4.8,11,11,0,0,1,1-1.1,6.22,6.22,0,0,0,1.4-1.9,19,19,0,0,0,.6-9.2,9.28,9.28,0,0,0-.7-3.3,14.73,14.73,0,0,0-3.4-4c-.5-.4-1-.8-1.6-1.2C996.66,591.3,995.86,590.7,994.86,590.7Zm6.8,42.7a2.4,2.4,0,0,1,0,1.2A4.74,4.74,0,0,0,1001.66,633.4Zm0,1.2a.55.55,0,0,1-.3.5A.55.55,0,0,0,1001.66,634.6Zm-.3.5a.44.44,0,0,1-.5.1.75.75,0,0,0,.5-.1Z"/><path class="cls-5" d="M1014.76,645.2c-.7-.6-1.7-5.5-1.9-6.5a10.36,10.36,0,0,0-1.7-3.3,18.58,18.58,0,0,0-1.1-1.9,8.64,8.64,0,0,1-1.3-1.4c-.4-.8.1-1.8.1-2.6a11.71,11.71,0,0,0-.4-2.6,9.93,9.93,0,0,0-2.9-4.1c-.2-.2-.6-.8-1.1-.4s-.2,1.9-.1,2.4c.4,1.7,1.8,3.3,1.9,5.1.2,2.2-1.3,4.4-.6,6.6s2.3,3.5,3.6,5.2a27.06,27.06,0,0,1,2.1,3.7c.6,1.1,1.5,5.3,2.8,5.6.8.2,1-.7,1.1-1.2C1015.46,648.6,1015.76,646.1,1014.76,645.2Z"/><path class="cls-5" d="M1004.56,622.2c-.8.2-.6,1.4-.5,2,.3,2.1,1.8,3.8,2.1,5.8a7,7,0,0,1-.5,3.2,6.17,6.17,0,0,0,.1,3.8c.8,1.8,2.2,3.1,3.4,4.7a20.8,20.8,0,0,1,2.2,3.8c.6,1.3.9,2.8,1.6,4.1.1.1.2.2.2.3a4.18,4.18,0,0,1-.4-1c-.5-1.1-.8-2.3-1.2-3.4a11.94,11.94,0,0,0-.8-1.6,18.52,18.52,0,0,0-2.1-3.3c-1.2-1.6-3-3.3-3.1-5.4-.1-1.8,1.1-3.7.8-5.5-.3-2.1-1.8-3.8-2.1-5.8-.1-.4-.2-1.4.3-1.6.2-.1.5.4.7.5s.2.2.3.2l.3.3a8,8,0,0,1,2.2,3.5,6.9,6.9,0,0,1,.4,2.5c0,.8-.5,1.7-.2,2.5s1.3,1.4,1.8,2.3a8.26,8.26,0,0,0,.7,1.3c.5.8,1,1.5,1.4,2.3a13.65,13.65,0,0,1,.7,2.9c.3,1.2.6,2.5,1,3.7l.5,1c.1.1.2,0,.3,0v-.2l.2.2a.3.3,0,0,0,0-.4c-.4-.8-.3-.5-.4-.8a18.66,18.66,0,0,1-.7-2.2c-.2-.9-.4-1.7-.6-2.6a8,8,0,0,0-.9-2.6c-.4-.6-.8-1.2-1.2-1.9a8.26,8.26,0,0,0-.7-1.3c-.5-.6-1.3-1.1-1.6-1.8s.2-1.6.2-2.3a6.21,6.21,0,0,0-.6-3,9.58,9.58,0,0,0-2.9-3.7A.85.85,0,0,0,1004.56,622.2Zm10.4,23.3h-.2a22,22,0,0,1,.5,3.9,19.42,19.42,0,0,0,.2-2.4c-.1-.4-.2-1.3-.5-1.5Zm.3,3.9v.6c-.1.6-.5,1.6-1.3.9a1.56,1.56,0,0,1-.6-.8,2.41,2.41,0,0,0,.6.8c.9.7,1.3-.4,1.4-1.1C1015.26,649.8,1015.26,649.5,1015.26,649.4Z"/><path class="cls-5" d="M1002.76,646.7c-.6.8-.4,4.2.1,5.1,2.1,4.4,4.5,8.6,6.7,12.9a17.13,17.13,0,0,0,2,2.7c1.3,1.7,2.5,3.5,3.9,5.1.4.5.6.4,1,1s.3,1.4.5,2.1a6,6,0,0,0,2,3.3c2.7,1.6,5.3,3.6,8.2,5.1.6.3,1.8,1.3,2.4.5s-.7-2.1-1.2-2.7c-1.8-2.2-4.1-3.7-6.1-5.7-1-1-1.2-2.6-1.8-3.9-.9-1.8-2.1-3.2-3.1-4.9a37.18,37.18,0,0,0-1.9-3.4c-.5-.6-1.2-.8-1.6-1.4-.8-1.1-1.2-2.5-2.1-3.5-1.4-1.6-3.2-2.3-4.2-4.3-.5-1-1.3-2.2-1.7-3.2a24.37,24.37,0,0,1-.6-2.6c-.1-.4-.5-1.9-1-2C1003.76,646.4,1003.06,646.3,1002.76,646.7Z"/><path class="cls-5" d="M1003,646.5c-.1-.1-.3,0-.4.1s0,.1-.1.1a1.07,1.07,0,0,0-.2.6,4.87,4.87,0,0,0-.1,1.2,11.58,11.58,0,0,0,.3,3.2c.3.8.8,1.7,1.2,2.5a5.36,5.36,0,0,1,.5,1.1,22.56,22.56,0,0,1,1.1,2.2c.9,1.8,1.9,3.6,2.8,5.3.6,1,1.1,2.1,1.8,3.1s1.4,1.7,2,2.6c.9,1.1,1.7,2.3,2.6,3.4.3.3.6.7.9,1a2.7,2.7,0,0,1,.8.7c.4.5.3,1.1.4,1.6a7.26,7.26,0,0,0,.9,2.2,6.67,6.67,0,0,0,2.7,2.3c.7.4,1.3.9,2,1.3,1.1.7,2.2,1.5,3.4,2.2a9.5,9.5,0,0,1,1.7,1c.5.3,1.5,1,2.1.4,1.1-.9-.5-2.4-1.1-3.1l-.5-.5-.5-.5a36.85,36.85,0,0,0-3.7-3.2,14.48,14.48,0,0,1-1.8-1.7c-.8-1-1-2.4-1.6-3.6-.7-1.5-1.8-2.7-2.6-4.1s-1.5-2.9-2.4-4.2c-.5-.7-1.3-1-1.8-1.7-.7-1-1.1-2.3-1.9-3.3s-2-1.7-3-2.7c.8.8,1.8,1.5,2.6,2.3a13.75,13.75,0,0,1,1.9,3,8.34,8.34,0,0,0,.8,1.2c.4.4.9.6,1.3,1a8.34,8.34,0,0,1,.8,1.2c.6,1,1.1,2.1,1.7,3.1a27.4,27.4,0,0,1,2.3,3.6c.7,1.3.9,3,1.8,4.1a4.89,4.89,0,0,0,1.3,1.2c.8.8,1.7,1.5,2.6,2.3a9,9,0,0,1,1,.9,9.43,9.43,0,0,1,1,1,7.23,7.23,0,0,1,1.7,2.2,1,1,0,0,1-.2,1c-.5.4-1.6-.4-2-.7a61,61,0,0,1-5.4-3.4c-.7-.4-1.3-.9-2-1.3a5.46,5.46,0,0,1-1.9-1.8,6,6,0,0,1-.8-2.1,3.74,3.74,0,0,0-.5-1.8,6,6,0,0,0-.8-.8c-.3-.3-.6-.7-.9-1-.9-1.1-1.7-2.3-2.6-3.4-.7-.9-1.4-1.7-2-2.6a32.33,32.33,0,0,1-2.2-4.1c-1-1.8-1.9-3.6-2.8-5.4-.5-1.1-1.1-2.2-1.6-3.2a8.36,8.36,0,0,1-.8-2c-.1-.9,0,0,.2-3.8v-.1l-.2-.1a.14.14,0,0,0,.2,0Zm0,.1a.35.35,0,0,0,.1.2,9.5,9.5,0,0,1,1.8.6,2.51,2.51,0,0,0-.4-.7C1004.26,646.5,1003.16,646.3,1003,646.6Zm1.8.8c.1,0,.1.1,0,0,.4,1.1.5,2.2.8,3.3a10.09,10.09,0,0,0,.7,1.5c.3.5.6,1.1.9,1.6a10,10,0,0,0,.8,1.4,4.62,4.62,0,0,0,.7.7,13.61,13.61,0,0,1-2.1-3.2,7.45,7.45,0,0,1-1.1-2.4,8.17,8.17,0,0,0-.7-2.9Z"/><path class="cls-5" d="M974.16,765.4c-.9-2,2.3-7.3,3.3-9.5.1-.3.7-1.2.8-1.5a6.53,6.53,0,0,0-.6-2.4,26.81,26.81,0,0,0-.7-2.7c-.3-.9-1-1.5-1.3-2.4a11.22,11.22,0,0,1-1-4c0-1.1.5-2.3.3-3.4s-.8-1.9-.6-3.1c.2-.9.8-1.6,1-2.5.5-2.4,1.5-5.5,3.2-7.3,1-1.1,2.4-1.6,3.5-2.6a94.12,94.12,0,0,1,8.1-6,28.23,28.23,0,0,0,2.9-1.8c.5-.4.8-.9,1.3-1.3.8-.6,1.7-.8,2.5-1.3a48.52,48.52,0,0,0,4-2.8c2.1-1.6,5.5-4.6,6.8-7,.5-1,.5-2.1,1.1-3.1,2-3,5.9-5.2,6.8-8.9.2-.9,1.2-6.2.8-6.8-.6-.9-2.4.6-2.8,1.1-.5.8-.5,1.7-1,2.5-.8,1.4-1.8,2.6-2.7,4a21.37,21.37,0,0,1-2,3.2c-1,1.1-2.3,1.9-3.3,3.1-.7.9-.9,2.2-1.5,3.3a22.1,22.1,0,0,1-5.1,6.3c-4.1,3.4-9.5,4.8-13.8,7.8a17,17,0,0,0-2.2,1.5c-1.3,1.2-2.4,2.8-3.9,3.7a9.38,9.38,0,0,1-1.5.6c-.2.1-.5.6-.7.4a23.2,23.2,0,0,1,.2-2.4c0-2.1.2-5.1-.6-7.1a49.25,49.25,0,0,0-4.4-7.7c-.7-1-1.7-1.5-2.4-2.4a9.26,9.26,0,0,1-1.5-4.2,6.73,6.73,0,0,0-.1-2c-.1-.2-.9-1.3-1-1.5a14.68,14.68,0,0,1-.5-2.9c-.3-1.6-.4-3.3-.8-4.9a10.56,10.56,0,0,1-.6-1.9,11,11,0,0,0-.2-1.8c-.1-.3-1.7-3-1.7-3-.4,0-.6,1.6-.6,1.6-.3,2,.2,4-.1,6a29,29,0,0,0-.4,7.2c.1,1.1.8,2,1.1,3.1a20.44,20.44,0,0,0,1.3,4.2c1.3,2.4,3.3,4.5,4.8,6.7a11.65,11.65,0,0,1,1.7,2.8c.4,1.3,0,2.7.2,4a78.21,78.21,0,0,1,.3,12.8c-.1,1.8,1.1,4.2.5,5.9-.3.8-.9,1.4-1.2,2.2a21.08,21.08,0,0,0-.5,3.5c-.1.8-.5,1.7-.6,2.5a13.52,13.52,0,0,0,.7,5.6c.3.9,1.1,1.3,1.5,2.2a6.08,6.08,0,0,1,.3,2.3,18.37,18.37,0,0,1-.5,5.2c-.5,1.4-1.5,2.5-1.9,4-.8,3.2-.3,6.5-.3,9.7"/><path class="cls-5" d="M962.46,680.9c-.5.3-.6,1.7-.6,2.2-.2,1.8.2,3.7,0,5.5a40.47,40.47,0,0,0-.5,6,7.57,7.57,0,0,0,.1,1.5,23.29,23.29,0,0,0,1.1,2.8c.3,1,.4,1.9.7,2.9a8.82,8.82,0,0,0,.9,2,68.54,68.54,0,0,0,4.5,6.1c.8,1.1,1.7,2.1,1.8,3.5.1,1.1,0,2.2.1,3.4.2,2.8.4,5.7.4,8.5,0,1.5-.1,3-.1,4.5s.8,3.2.7,4.8c-.1,1.3-1,2-1.4,3.1a21.08,21.08,0,0,0-.5,3.5c-.1.7-.4,1.4-.5,2.1a5.7,5.7,0,0,0-.1,1.3,18.1,18.1,0,0,0,.3,2.3,11.73,11.73,0,0,1-.2-3.2c.1-.8.4-1.6.6-2.5a19.68,19.68,0,0,1,.5-3.5c.4-1.2,1.3-1.9,1.4-3.2.1-1.6-.7-3.2-.7-4.8s.1-3,.1-4.5a79.2,79.2,0,0,0-.5-8.5,22.88,22.88,0,0,0-.1-3.7,10.7,10.7,0,0,0-2.2-3.7c-1.1-1.5-2.3-2.9-3.3-4.4a11.67,11.67,0,0,1-1.7-3.1c-.3-1.1-.5-2.3-.9-3.4a7.5,7.5,0,0,1-.9-2.5,25.67,25.67,0,0,1,.1-4.8c.1-1.1.3-2.3.4-3.4.1-1.5-.2-3,0-4.5a4,4,0,0,1,.3-1.5.76.76,0,0,1,.2-.4c.1-.1.2-.1.1-.1s.2.2.1.2c.1.2.2.3.3.5.3.5.5.9.8,1.4a2.57,2.57,0,0,1,.5,1.2,8.92,8.92,0,0,0,.3,2.2c.1.4.3.8.4,1.2.2,1.1.4,2.2.5,3.3l.3,2.1c.1.6.1,1.2.2,1.8a4.13,4.13,0,0,0,.7,1.5c.1.2.4.5.5.7a13.4,13.4,0,0,1,.1,2,11.49,11.49,0,0,0,1.2,3.7c.6,1.1,1.8,1.7,2.6,2.7a37.84,37.84,0,0,1,2.2,3.3,40.18,40.18,0,0,1,2.4,4.6c.8,2,.6,4.3.6,6.4a19.42,19.42,0,0,1-.2,2.4c0,.2-.2.8.2.8s.6-.5.9-.6a9.34,9.34,0,0,0,2-1c1.5-1.2,2.6-2.9,4.2-4a66.52,66.52,0,0,1,5.8-3.3c3.6-1.8,7.4-3.3,10.3-6.1a22,22,0,0,0,4.1-5.4,27.12,27.12,0,0,1,1.3-3,9.12,9.12,0,0,1,1.7-1.7,10.45,10.45,0,0,0,2.1-2.1c.6-.8,1-1.8,1.6-2.7a28,28,0,0,0,2.7-4,20.94,20.94,0,0,0,.8-2.3,3,3,0,0,1,1.7-1.4c.1,0,.7-.2.8,0a11.56,11.56,0,0,1-.1,3.2c-.3,2-.6,4.2-1.8,5.9-1.5,2.1-3.5,3.7-5.1,5.6a6.7,6.7,0,0,0-1.1,1.8,6.79,6.79,0,0,1-.7,2,16.88,16.88,0,0,1-3.7,4.3,40.27,40.27,0,0,1-7,5.3c-.7.5-1.6.7-2.3,1.2s-1.2,1.2-1.9,1.8a13.24,13.24,0,0,1-2,1.2c-1.1.7-2.2,1.5-3.3,2.2-1.4,1-2.7,2-4,3a13.93,13.93,0,0,1-1.9,1.5,16.47,16.47,0,0,0-2.7,1.9,13.11,13.11,0,0,0-3.1,5.8,19.48,19.48,0,0,1-.6,2.3,8.6,8.6,0,0,0-.9,2.7c0,1.1.7,2,.7,3.1s-.4,1.9-.4,2.9a10,10,0,0,0,.4,2.4,9,9,0,0,0,.8,2.1c.3.6.7,1.1,1,1.8a14.34,14.34,0,0,1,.7,2.8c.2.7.7,1.4.6,2.1a3.18,3.18,0,0,1-.3.9c-.3.6-.6,1.1-.9,1.7a37.24,37.24,0,0,0-2.7,5.7,4.74,4.74,0,0,0-.2,3.1c0,.2.2.2.4.2s.2-.2.2-.4a4.19,4.19,0,0,1,.4-3.1,61.88,61.88,0,0,1,2.8-5.8,8.75,8.75,0,0,0,1-2.2,9.77,9.77,0,0,0-.6-2.3,24.54,24.54,0,0,0-.8-2.9c-.3-.6-.7-1.2-1-1.8a11.76,11.76,0,0,1-.7-2,8.52,8.52,0,0,1-.4-2.3,28.86,28.86,0,0,1,.4-2.9,5.9,5.9,0,0,0-.2-1.4,4.8,4.8,0,0,1-.5-1.7c0-1.1.7-2,1-3,.7-2.6,1.3-5.5,3.4-7.5a38.77,38.77,0,0,1,3.3-2.3c2.6-2.1,5.3-4.1,8-6,.8-.5,1.7-.9,2.5-1.5s1.2-1.3,1.9-1.8,1.5-.7,2.3-1.2a40.36,40.36,0,0,0,7.1-5.4,17.79,17.79,0,0,0,3.7-4.5,17.23,17.23,0,0,0,.7-2.1,5.85,5.85,0,0,1,1-1.7c1.7-2.1,3.9-3.7,5.4-6a16.18,16.18,0,0,0,1.6-5.7,9.72,9.72,0,0,0,.1-3.4c-.2-.6-1.1-.5-1.5-.3a3.37,3.37,0,0,0-2,2.2,11.5,11.5,0,0,1-.6,1.7,33.92,33.92,0,0,1-2.7,3.9c-.7,1-1.2,2.2-2,3.2-1,1.2-2.3,2-3.3,3.1a9.87,9.87,0,0,0-1.2,2.8,23.39,23.39,0,0,1-2.5,3.9c-3.1,4-7.6,5.9-12,8.1a42.26,42.26,0,0,0-4.1,2.3c-.8.5-1.7,1-2.5,1.6a12.09,12.09,0,0,0-1.6,1.6,9.25,9.25,0,0,1-3,2.6,2.73,2.73,0,0,0-1.3.7l-.1.1h0v-.2a2.49,2.49,0,0,1,.1-.8,19.27,19.27,0,0,0,.1-2.4,16.27,16.27,0,0,0-.9-6.6,38.09,38.09,0,0,0-2.9-5.2c-.5-.7-.9-1.4-1.4-2.1-.7-.9-1.8-1.5-2.4-2.4a7.88,7.88,0,0,1-1.3-3.9,13.4,13.4,0,0,0-.1-2c-.1-.5-.7-1-1-1.5a5.27,5.27,0,0,1-.3-1.2c-.3-1.9-.5-3.9-.8-5.8-.1-.4-.1-.8-.2-1.1a6.07,6.07,0,0,1-.5-1.8,7.57,7.57,0,0,0-.1-1.5,2.62,2.62,0,0,0-.5-.9c-.3-.5-.5-.9-.8-1.4-.1-.2-.2-.3-.3-.5C962.66,680.9,962.56,680.8,962.46,680.9Zm6.9,66v.6c0,.1.1.2.1.3A2.77,2.77,0,0,1,969.36,746.9Zm.1.9a1.7,1.7,0,0,0,.1.7c.1.4.2.7.3,1.1.3.7,1,1.2,1.3,1.9a.75.75,0,0,1-.1-.5c-.3-.5-.9-.9-1.2-1.5A8.47,8.47,0,0,1,969.46,747.8Zm1.7,3.7c0,.1.1.2.1.3v-.2A.1.1,0,0,0,971.16,751.5Zm.2.3a9.86,9.86,0,0,1,.3,2.4,16.2,16.2,0,0,1-.1,2.2,9.37,9.37,0,0,1-.6,2.9c-.5,1.3-1.4,2.3-1.8,3.7a19.59,19.59,0,0,0-.5,4.8,19.09,19.09,0,0,1,.5-4.8c.4-1.3,1.3-2.4,1.8-3.7a17.45,17.45,0,0,0,.7-5.1A9.86,9.86,0,0,0,971.36,751.8Z"/><path class="cls-5" d="M975.66,807.9a17.52,17.52,0,0,0,.5-4c-.1-1.5-1-2.5-.7-4a8.87,8.87,0,0,1,1.4-2.5,22.61,22.61,0,0,0,2.2-4.4c1.3-3.9,1.7-8.1,2.2-12.2.3-3.2.3-6.3.4-9.5,0-1.2-.3-3.5.3-4.5s2.2-1.4,3.1-1.8a18,18,0,0,0,5.1-4.4c1.3-1.5,2.2-3.3,3.5-4.7,1.6-1.7,3.8-2.8,5.5-4.4,2.1-2.1,3.4-5.1,5.1-7.5,1-1.5,2.6-3.2,3.1-5a34.27,34.27,0,0,0,.6-5.5,15.37,15.37,0,0,1,1.6-5c.8-1.4,2-2.5,2.7-4,1.5-3.3,3.1-6.7,4.4-10.1a9.59,9.59,0,0,0,.5-5.3c-.1-.6.3-1.5-.2-1.8-.9-.6-1.6,1.5-1.8,1.8-1.1,2-1.7,4-2.6,6-2.3,4.8-7,9-8.5,14.1a78.86,78.86,0,0,0-2.3,9.6,16,16,0,0,1-.7,3.8,21.09,21.09,0,0,1-6.3,7c-1.3.9-2.9,1.2-4.2,2.2a18.85,18.85,0,0,0-3.5,4.4c-.7,1-.5.4-1.4,1.2A33.15,33.15,0,0,0,983,760c-2.3,2-5.3,2.9-7.6,4.8-1.1.9-1.8,2.5-2.6,3.7a6.68,6.68,0,0,1-1.7,2c-.2.2-.6.2-.8.4a4.59,4.59,0,0,0-.7,1.6,17,17,0,0,0-1.8,5.8c-.2,1.2-1,2.2-1.2,3.4a10.32,10.32,0,0,0,.9,6c.3.5.8.8,1.1,1.3s0,1.3.1,1.7a7.45,7.45,0,0,0,1.6,3.2c3,2.8,4.6-.7,4.6-3.4,0-1.2-.7-2.2-.8-3.3-.5-3.5-1.9-6.9-1.1-10.5.5-2.1,2.3-3.7,3.4-5.5a9.83,9.83,0,0,0,.5-1.6c.2-.4.9-1.2,1.5-.5a20.08,20.08,0,0,1,.1,2.5,13.91,13.91,0,0,1-.1,7.3c-.6,2.3-.4,4.8-1.1,7a25.57,25.57,0,0,1-1.1,2.4c-.2.5-.2,1.2-.5,1.6A17.33,17.33,0,0,0,974,792c-.9,1.8-1,6.1-1.2,8.2s.3,4.2.5,6.4a8.42,8.42,0,0,0,.4,2.7C974.16,811.4,975.46,808.6,975.66,807.9Z"/><path class="cls-5" d="M1016.26,707.1c-.6.2-1.1,1.2-1.2,1.6-.1.1-.1.3-.2.4l-.3.6c-.1.2-.2.3-.2.5s-.2.3-.2.5a4.18,4.18,0,0,0-.4,1l-.6,1.5c-.1.3-.3.7-.4,1a8,8,0,0,1-.8,1.6c-2.3,4.5-6.3,8.1-8,12.9-.4,1.2-.8,2.5-1.1,3.8a57.82,57.82,0,0,0-1.2,5.7,25.68,25.68,0,0,1-.6,4,7.57,7.57,0,0,1-.9,1.8,22.68,22.68,0,0,1-3.8,4.4,10,10,0,0,1-2,1.6c-1.2.8-2.7,1.2-3.8,2-1.7,1.3-2.5,3.2-3.9,4.8-.2.2-.5.3-.7.5a5.5,5.5,0,0,0-.9.7c-.8.7-1.4,1.5-2.2,2.2-2.3,2-5.2,2.9-7.6,4.8a7.63,7.63,0,0,0-1.8,2.5,22.63,22.63,0,0,1-1.3,2,4.89,4.89,0,0,1-1.2,1.3c-.3.2-.7.2-.9.5s-.4,1-.7,1.5a13.9,13.9,0,0,0-1.2,2.8c-.3,1-.5,2-.7,3s-.8,1.8-1.1,2.8a8.71,8.71,0,0,0,.1,4.8,5.58,5.58,0,0,0,.9,2.1c.3.4.8.7.9,1.2s0,1,.1,1.6a6.27,6.27,0,0,0,1.8,3.4,4.7,4.7,0,0,0,.9.6c.3.1.6.2,1,.3a1.91,1.91,0,0,0,.8-.3,14.92,14.92,0,0,0-.2,2.1c-.1,1.3-.2,2.6-.3,4a25.92,25.92,0,0,0,.4,4.8,31.53,31.53,0,0,1-.4-5.3c.2-1.7.2-3.3.4-5,0-.2.1-.4.1-.6a3.72,3.72,0,0,0,1.4-2.6,3.82,3.82,0,0,1-.6,1.6,3,3,0,0,1-.8.8,14.16,14.16,0,0,1,.4-2,4.35,4.35,0,0,1,1-1.6v.8c0-.3.2-.7.2-.9v-.1c.2-.3.5-.5.7-.8.3-.5.2-1.1.4-1.6a10.95,10.95,0,0,0,1.6-5.1,10.89,10.89,0,0,1-.5,2.6,25.57,25.57,0,0,1-1.1,2.4,9.83,9.83,0,0,1-.5,1.6,2.7,2.7,0,0,1-.7.8c0-.3-.1-.5-.1-.8v1a9.06,9.06,0,0,0-1.1,1.6,14.62,14.62,0,0,0-.5,2c-.1.1-.2.2-.3.2a2.16,2.16,0,0,1-1.9-.5,5.56,5.56,0,0,1-2.1-3.6,5.65,5.65,0,0,1,0-1.3c-.1-.8-.8-1.1-1.2-1.7a6.19,6.19,0,0,1-.8-2.4,8.56,8.56,0,0,1,.1-4.2,26,26,0,0,0,1-2.5,24.91,24.91,0,0,1,.9-3.7c.3-.9.8-1.7,1.2-2.6a6.12,6.12,0,0,1,.5-1.2,2.51,2.51,0,0,1,.7-.4,2.19,2.19,0,0,0,.5-.3,5.27,5.27,0,0,0,1.1-1.5c.4-.5.7-1.1,1.1-1.6a8.4,8.4,0,0,1,1.8-2.4c2.4-1.8,5.3-2.8,7.6-4.8.9-.8,1.6-1.7,2.5-2.4.4-.4,1-.5,1.4-1,1.3-1.5,2.2-3.5,3.8-4.7a34.75,34.75,0,0,1,3.8-2,22.34,22.34,0,0,0,5-4.7,12.89,12.89,0,0,0,1.9-3.2,27,27,0,0,0,.6-4.1c.4-2.2.9-4.3,1.5-6.5a24.73,24.73,0,0,1,1.1-3.6c1.9-4.5,5.5-7.9,7.8-12.2a20.62,20.62,0,0,0,1.2-2.6c.7-1.7,1.4-3.4,2.2-5,.1-.3.8-1.3,1.1-.6.2.3-.1,1.1,0,1.5a15.06,15.06,0,0,1,.1,3,11.43,11.43,0,0,1-.9,3c-.9,2.3-1.9,4.5-2.9,6.7a31.33,31.33,0,0,1-1.5,3.2c-.6,1-1.5,1.9-2.1,2.9a12.81,12.81,0,0,0-1.8,5.4c-.2,1.7,0,3.8-.6,5.5-.6,1.9-2,3.3-3,4.9-1.4,2.1-2.5,4.4-4.1,6.4a13.94,13.94,0,0,1-2.8,2.6,18,18,0,0,0-3.7,3c-1.1,1.2-1.9,2.7-2.9,4a22.74,22.74,0,0,1-3,3.2,13.61,13.61,0,0,1-3.2,2.1c-.9.4-2.3.7-2.8,1.7a6.91,6.91,0,0,0-.4,3.2v3.1a50.55,50.55,0,0,1-.2,5.5c-.1,2.2-.4,4.3-.7,6.5a34.72,34.72,0,0,1-2.3,9.5,21.12,21.12,0,0,1-1.8,3.3,5.9,5.9,0,0,0-1.2,2.2,3.79,3.79,0,0,0,0,1.5c.2.9,0,0,.2,6.5a.1.1,0,0,0,.1.1l.2-.1a1,1,0,0,0-.1.3h0a.52.52,0,0,0,.4-.2c.4-4.4.7-3.1.4-4.4s-.8-2.2-.7-3.5c.1-.9.9-1.6,1.4-2.3a18.79,18.79,0,0,0,2.2-4.5c1.4-4.2,1.8-8.7,2.2-13a84.31,84.31,0,0,0,.3-8.7c0-1.5-.3-3.1.3-4.4a1.59,1.59,0,0,1,1-.8c.8-.4,1.7-.7,2.5-1.1a17.73,17.73,0,0,0,4.4-3.8c1.5-1.6,2.4-3.6,3.9-5.2,1.6-1.8,3.8-2.8,5.5-4.4,2-2,3.2-4.6,4.7-7,1-1.6,2.4-3,3.2-4.8,1-2.3.6-4.9,1-7.3a13.68,13.68,0,0,1,1.6-4.4c.6-1,1.5-1.9,2.1-2.9a36.21,36.21,0,0,0,1.9-4c1-2.2,2-4.5,2.8-6.8a10.39,10.39,0,0,0,.7-3.5c0-.7-.2-1.3-.2-2s.3-1.3-.2-1.8C1016.66,707.1,1016.46,707,1016.26,707.1Zm-40.8,101c-.1,0-.1-.1-.1-.2-.3.2-2.2,1.1-2.4.7.1.4.1.9.4,1.2.8.9,1.6-.6,1.9-1.2A.76.76,0,0,0,975.46,808.1Zm-2.5.5c0-.1-.1-.1-.1-.2a.31.31,0,0,1,.1.2Zm-.1-.2v0Zm0-.5a3.75,3.75,0,0,0-.1-1.1c0-.4-.1-.7-.1-1.1C972.76,806.5,972.76,807.2,972.86,807.9Zm1.5-17.8c-.2-.9-.5-1.8-.7-2.8-.2-1.2-.5-2.3-.7-3.5-.5-2.4-1.1-5.1-.3-7.5-.9,2.6-.2,5.8.3,8.4.2,1,.3,2.1.6,3.2A8.26,8.26,0,0,1,974.36,790.1Zm-1.7-13.7a10.46,10.46,0,0,1,1.3-2.3c.4-.6.9-1.2,1.3-1.8l.6-.9c.1-.2.2-.3.2-.5.1-.5.6-2.2,1.4-1.8l.3.3a.37.37,0,0,0-.1-.3c-.7-.6-1.5.7-1.6,1.2a4.33,4.33,0,0,1-.1.5,1.06,1.06,0,0,1-.2.5l-.6.9c-.2.3-.5.6-.7.9s-.5.6-.7.9a8.64,8.64,0,0,0-1,1.6A1.18,1.18,0,0,1,972.66,776.4Zm4.5,7a33.54,33.54,0,0,1,.7-4.4,15.7,15.7,0,0,0,.5-4.8,11,11,0,0,0-.2-1.8,3.55,3.55,0,0,1-.2-1v-1.5c0,.4-.1.8-.1,1v.5c0,.4.1.5.1,1l.3,1.8a11.24,11.24,0,0,1-.4,4.1,20.48,20.48,0,0,0-.5,2.4A11.42,11.42,0,0,1,977.16,783.4Zm-2.9,8.6c0,.1-.1.2-.1.3A.37.37,0,0,0,974.26,792Z"/><path class="cls-5" d="M969.66,770.4a7.68,7.68,0,0,0-1.2,5.7c0,.4-.2,1,.5,1.1,1.6.2,2.6-2.4,3-3.4a28.83,28.83,0,0,0,2-6.3c.1-.7.7-1.4.5-2.1a7.23,7.23,0,0,0-1.7-2.2"/><path class="cls-5" d="M972.76,763.2c.5.7,1.4,1.4,1.6,2.3.2.7-.3,1.2-.5,1.9s-.3,1.5-.5,2.3c-.3,1.1-.8,2.1-1.2,3.2-.1.3-.3.7-.4,1-.4,1-1,2.7-2.1,3.1-.1,0-.2.1-.3.1-.8.1-.6-.3-.7-.8a1.7,1.7,0,0,0-.1-.7,7.66,7.66,0,0,1,1.2-4.9c.1-.1,0-.3-.1-.4s-.3,0-.4.1a10.1,10.1,0,0,0-1.3,3.8,14.77,14.77,0,0,0,.1,2.1c.1.6-.1,1.2.7,1.3h.5c.1,0,.3-.1.4-.1,1.5-.7,2.1-3.1,2.6-4.5.4-1.1.8-2.1,1.1-3.2.2-.8.3-1.5.5-2.3s.6-1.2.4-1.9A4.32,4.32,0,0,0,972.76,763.2Z"/><path class="cls-5" d="M977.66,767c-.5,1.7-.3,3.5-.5,5.3-.1,1-.7,2-.7,3.1s.6,2.2.7,3.2-.3,1.8-.3,2.7c0,1.8.4,3.2-.2,5-.9,2.7-2.5,6-2.5,8.9,0,.3.5,3.1,1.3,2.6a13.06,13.06,0,0,0,.8-2.1,27,27,0,0,0,1.2-4.9c1-4.2,2.2-8.2,2.4-12.5,0-1.9-.6-3.3-.9-5.1a38.06,38.06,0,0,1-.1-4.8"/><path class="cls-5" d="M977.76,766.7c-.2,0-.3,0-.4.2l.5.5.1-.3C978.06,766.9,978,766.7,977.76,766.7Zm.2.7h0v.1a.37.37,0,0,1,.3.1C978.26,767.7,978,767.4,978,767.4Zm-.1.1a1.42,1.42,0,0,0-.6-.2c-.2,0,0,.3-.1.4a6.6,6.6,0,0,0-.1,1.4c-.1,1.1,0,2.2-.2,3.3-.1.8-.5,1.5-.6,2.3a12,12,0,0,0,.6,3.3,17.2,17.2,0,0,1-.2,3.2c0,1.1.2,2.2.1,3.3a12.74,12.74,0,0,1-1.1,3.8,24.09,24.09,0,0,0-1.6,5.4,6.08,6.08,0,0,0,.4,3.5c.2.4.6,1.1,1.1.7a7.71,7.71,0,0,0,.8-1.9,8.8,8.8,0,0,0,.5-1.5c.3-1,.4-1.9.6-2.9l.9-3.9a44.81,44.81,0,0,0,1.4-7.3,20.48,20.48,0,0,0,.1-3.5c-.2-1.4-.7-2.7-.9-4.1a26.2,26.2,0,0,1-.1-2.8c0-.3.1-.6,0-.8v1.6a13.4,13.4,0,0,0,.1,2c.2,1.4.7,2.8.8,4.2a13.68,13.68,0,0,1-.1,3.5,61.58,61.58,0,0,1-1.8,8.3c-.2,1-.5,1.9-.7,2.9s-.3,1.9-.6,2.9a12.13,12.13,0,0,0-.5,1.4c0,.1-.1.3-.1.4s-.1.3-.2.5-.3,1.1-.7.9-.5-.8-.6-1.2a7.8,7.8,0,0,1,0-3.4c.1-.2.1-.5.2-.8a40.38,40.38,0,0,1,1.6-4.5,20.94,20.94,0,0,0,.8-2.3,24.09,24.09,0,0,0,0-3.8,15,15,0,0,1,.2-2.2,5,5,0,0,0-.1-2.1,8,8,0,0,1-.5-2.1,10.15,10.15,0,0,1,.6-2.5,9.34,9.34,0,0,0,.2-2.3,11,11,0,0,1,.2-2.6C977.86,767.7,977.76,767.6,977.86,767.5Zm1.1,1.6a.89.89,0,0,1,0-.8s-.6-.8-.5-.6A3.36,3.36,0,0,1,979,769.1Z"/><path class="cls-5" d="M960.66,863.8c.4,2.4.9,4.6,3.4,5.4.7.2,1,.6,1.6-.2,1.1-1.3-.4-3.6-.6-5-1-4.5-4-8.4-3.5-13.2a63,63,0,0,1,1.2-9.6c.3-1.2,1-2.3,1.3-3.5.9-4.2,2.6-8.3,4-12.5.7-2.2,2-4.2,2.9-6.3,1.1-2.6,2-5.2,2.9-7.8.3-.9.9-1.7,1.2-2.5a15.7,15.7,0,0,0,.7-7.1c-.3-2.1-1.3-4.1-1.7-6.2s-1.6-2.9-3.1-4.2c-.2-.2-.3-.6-.5-.6-.6,0-1.1,3.2-1.1,3.8.1,2.4,1.3,4.7,1.5,7a22.39,22.39,0,0,1-.7,4.4c-.3,1.5.1,3-.5,4.4-1,2.5-1.8,6.3-3.3,8.5-.5.7-1.3,1.2-1.9,1.9a14.72,14.72,0,0,0-2.4,4.2c-1.8,4.4-2.3,9.1-3.2,13.6-.8,3.9-2,7.7-2.2,11.7a28,28,0,0,0,5.6,16.7"/><path class="cls-5" d="M970.36,790.3c-.4,0-.6.7-.7,1a7.36,7.36,0,0,0-.5,3.6c.3,2.2,1.2,4.3,1.5,6.5.2,1.6-.6,3.2-.8,4.8a25.81,25.81,0,0,1-.4,4c-.3,1-.6,1.9-.9,2.8a21.52,21.52,0,0,1-2.4,5.6,11.38,11.38,0,0,1-1.9,1.9,12.54,12.54,0,0,0-2.1,3.5c-2,4.5-2.5,9.6-3.5,14.4-.6,3.2-1.6,6.4-2,9.7a24.74,24.74,0,0,0,1.9,12.3,25.85,25.85,0,0,1-1.8-12.3c.4-3.3,1.4-6.5,2-9.7.9-4.8,1.5-9.8,3.5-14.3a12.54,12.54,0,0,1,2.1-3.5c.6-.7,1.4-1.1,1.9-1.9a36.12,36.12,0,0,0,2.7-6.4c.2-.7.5-1.4.7-2.1a27.13,27.13,0,0,0,.4-4.1,32.51,32.51,0,0,0,.8-4.5,18,18,0,0,0-.8-3.9,21.69,21.69,0,0,1-.7-3.5,15.17,15.17,0,0,1,.3-2.1,6.47,6.47,0,0,1,.4-1.3l.2-.3c.2,0,.2.3.3.5s.4.3.5.5a8.81,8.81,0,0,1,2.2,2.5,10.1,10.1,0,0,1,.7,2.3,30.68,30.68,0,0,1,1.4,5.2,14.08,14.08,0,0,1-.3,5.4,16.55,16.55,0,0,1-.6,2.1c-.3.7-.7,1.4-1,2.1-1,2.6-1.8,5.3-2.9,7.8-.7,1.6-1.5,3.1-2.3,4.7a37.53,37.53,0,0,0-1.7,4.7c-1.1,3.1-2.1,6.2-2.9,9.4-.3,1.1-.9,2.1-1.2,3.2s-.5,2.3-.7,3.5c-.2,1.6-.3,3.2-.5,4.8a26.35,26.35,0,0,0-.2,2.8,12.7,12.7,0,0,0,.5,3.4c.6,2,1.5,3.9,2.2,5.9.4,1,.6,2.1.9,3.1s1,2.2.9,3.4a1.7,1.7,0,0,1-.1.7c-.4.9-.8.6-1.5.4a4.18,4.18,0,0,1-1.8-1.1,3.51,3.51,0,0,1-.5-.8,4.18,4.18,0,0,1-.4-1c0-.1,0-.2-.1-.2h0c0-.1-.1-.3-.1-.4s-.2-.2-.3-.2c-.1-.2-.3-.4-.4-.6a31.07,31.07,0,0,1-2-4.1c.1.2.2.5.3.7a35.92,35.92,0,0,0,1.7,3.4c.1.2.2.3.3.5a.19.19,0,0,0-.3,0c-.2.4.2.8.3,1.1s.3.7.4,1.1a5.3,5.3,0,0,0,.6,1,4.47,4.47,0,0,0,2.2,1.3c.3.1.6.3.9.2a1.8,1.8,0,0,0,1.2-1.2,1.7,1.7,0,0,0,.1-.7,11.37,11.37,0,0,0-1-3.6c-.3-1-.5-2.1-.9-3.1-.7-2-1.6-3.8-2.2-5.8a12.57,12.57,0,0,1-.5-3.3c0-1.2.2-2.4.2-3.6s.2-2.7.4-4a20.54,20.54,0,0,1,.7-3.4c.3-1.1.9-2.1,1.2-3.2a91.5,91.5,0,0,1,2.9-9.3c.6-1.6,1-3.2,1.7-4.7s1.5-3.1,2.2-4.7c1.1-2.6,1.9-5.2,2.9-7.9.3-.7.7-1.4,1-2.1a8.3,8.3,0,0,0,.6-2.1,14.6,14.6,0,0,0,.3-5.5,22.1,22.1,0,0,0-1.2-4.2,15.34,15.34,0,0,0-1.2-3.8,11.85,11.85,0,0,0-2.5-2.5A.63.63,0,0,0,970.36,790.3Zm-9.1,75.1c0-.2-.1-.3-.1-.5a9.09,9.09,0,0,0-.2-1.2c0-.2-.2-.2-.3-.2s-.3.2-.2.3C961.26,865.4,961.46,865.6,961.26,865.4Zm.3-.1c.1.3.3.7.2,1-.1-.3.4.6.4.6S961.46,865.1,961.56,865.3Z"/><path class="cls-5" d="M963.76,825.7c-.5.1-.7-.8-.8-1.3-.1-.8,1.6-3.5,2-4.3,1.5-3.4,2.5-7,4.2-10.3.8-1.4,1-3,2-4.3.2-.2.3-.7.5-.6,1.2.2.4,4.7.2,5.4a62.51,62.51,0,0,1-2.4,6c-.7,1.4-1.7,2.7-2.4,4.2C966.16,822.2,965.76,825.2,963.76,825.7Z"/><path class="cls-5" d="M972,804.7c-.5-.3-.7.3-.9.6s-.3.5-.5.7a32.69,32.69,0,0,0-1.4,3.3c-.3.7-.7,1.3-1,2-.5,1.1-1,2.3-1.4,3.4a40,40,0,0,1-2.3,5.7,3.51,3.51,0,0,1-.5.8,5.58,5.58,0,0,1-.5.8,5.28,5.28,0,0,0-.8,2.2c0,.5,0,0,1.1,1.7a.27.27,0,0,0,.3-.3.1.1,0,0,1-.1-.1,1.69,1.69,0,0,0,.5-.2c.2-.1.3-.3.4-.4a4.7,4.7,0,0,1-.9.6c-.1-.1-.1-.2-.2-.2-.5-1.1-.5-.6-.5-1.1a6.47,6.47,0,0,1,.4-1.3c.4-.8.8-1.5,1.2-2.3a34.24,34.24,0,0,0,1.7-4c.6-1.7,1.3-3.5,2-5.2.4-.9.9-1.8,1.3-2.8a13.36,13.36,0,0,1,.7-1.8,6.38,6.38,0,0,1,.8-1.4c.1-.1.2-.5.3-.5s.3.1.3.2a3.81,3.81,0,0,1,.3,1,12.31,12.31,0,0,1-.4,3.8c-.3,1.1-.8,2.2-1.2,3.3a24.77,24.77,0,0,1-1.7,3.7,30,30,0,0,0-2.2,3.9c-.3.7-.5,1.4-.8,2.1a30.9,30.9,0,0,1,1.4-3.2c.7-1.2,1.5-2.2,2.1-3.4,1-2,1.7-4,2.5-6a4.67,4.67,0,0,0,.3-1.7,10.27,10.27,0,0,0,.1-2.5A1.28,1.28,0,0,0,972,804.7Zm-5.9,18.3a6.92,6.92,0,0,1-1,1.9l.3-.3A11.11,11.11,0,0,0,966.06,823Zm-1,1.8-.2.2s.1,0,.2-.2Z"/><path class="cls-5" d="M966.66,825.3a27.85,27.85,0,0,1,2.6-3.4,43.06,43.06,0,0,0,6-10.9c.6-1.6.2-2.7-.1-4.2-.1-.3.2-1.5-.5-1.6s-2.5,3.8-2.7,4.4c-1.5,4-2.5,8.1-4,12"/><path class="cls-5" d="M974.76,805c-.3-.1-.7.4-.8.6a12.29,12.29,0,0,0-1.4,2.5c-.1.2-.2.5-.3.7a41.47,41.47,0,0,0-2.2,6.8c-.6,1.9-1,3.1-1.4,4.3a19.45,19.45,0,0,0,.8-2.2,89.34,89.34,0,0,1,3-8.7,16.41,16.41,0,0,1,1.6-2.9c.1-.1.5-.7.7-.7.5.2.3.9.3,1.4s.2.8.2,1.2a6.15,6.15,0,0,1,0,2.7,21.28,21.28,0,0,1-1.8,4.1,48.32,48.32,0,0,1-3.7,6.2c-.7,1-1.5,1.8-2.2,2.8v-.1c.1-.3-.1.4-.1.2-.1.5-.2.9-.3,1.4,0,.1.1-.2.2-.3s.3-.4.4-.6c.3-.4.6-.7.9-1.1a29.19,29.19,0,0,0,2.1-2.8,40.6,40.6,0,0,0,4-7.4,11.24,11.24,0,0,0,1-3.1,5,5,0,0,0-.2-2.1,5.85,5.85,0,0,1-.2-1.3C975.36,805.9,975.46,805.2,974.76,805Zm-7.3,18.7c-.2.3-.4.5-.6.8-.1.1-.3.4-.2.3.2-.5,0,0-.2.3-.1.1,0,.3.1.4s.3,0,.4-.1C967.46,823.7,967.86,822.4,967.46,823.7Zm1.2-3.9c-.5,1.2-.9,2.4-1.4,3.6-.2.5.8-1.8.8-1.8A12.43,12.43,0,0,1,968.66,819.8Z"/><path class="cls-5" d="M965.26,916.4c.8,1.8.9,3.8,1.5,5.6.3,1,.8,1.6.7,2.6s-1.7,3.8-.2,4.5c1.7.7,2.9-4.5,3.2-5.6a52.05,52.05,0,0,0,1-14.2c-.1-1.4-.4-2.7-.5-4-.2-5.3,1.4-10.8,2.1-16.1.6-4.6-.6-10.3-2.3-14.6-.6-1.5-1-3.4-1.9-4.7-.5-.7-1.3-1.3-1.8-2-.7-1-.1-.5-.7-1.5-1-1.7-2-3.2-2.9-5-.1-.2-.9-2.1-1.2-2.1-.7-.2-.7,1.5-.7,1.5-.2,1.8.6,2.8.9,4.5.2,1.2,0,2.5.2,3.7.3,1.8,2.4,4,3,5.7a76.65,76.65,0,0,1,2.3,7.8,16.19,16.19,0,0,1-.1,5.8c-.1.8,0,1.6-.1,2.5-.3,3-1.5,6.2-2.3,9.1-.6,2.3-.3,4.6-.7,6.9C964.36,909.6,964.16,913.7,965.26,916.4Z"/><path class="cls-5" d="M962.36,859.2a.47.47,0,0,0-.6.1,3.61,3.61,0,0,0-.3,1.8,12.13,12.13,0,0,0,.7,3.3,6.93,6.93,0,0,1,.3,2,15.14,15.14,0,0,0,.2,3c.6,1.9,2.2,3.4,2.9,5.2a34.46,34.46,0,0,1,1.6,5.2,19.2,19.2,0,0,1,.9,4,20.28,20.28,0,0,1-.3,4.3c-.1.8,0,1.7-.1,2.5-.3,3.3-1.7,6.4-2.4,9.7-.3,1.7-.3,3.5-.5,5.2l-.3,2.7v0a24.77,24.77,0,0,0,.3-2.7,45.73,45.73,0,0,1,.5-5.2c.5-2.2,1.3-4.4,1.9-6.6a28.37,28.37,0,0,0,.6-3.1,14.72,14.72,0,0,0,0-2.1c.1-1.4.4-2.8.4-4.3a18.81,18.81,0,0,0-.5-3.3c-.4-1.5-.8-3.1-1.3-4.6a14.46,14.46,0,0,0-1.1-2.9c-.8-1.5-2.1-2.8-2.5-4.5a19.42,19.42,0,0,1-.2-2.4,9.86,9.86,0,0,0-.3-2.4,12.13,12.13,0,0,1-.7-3.3,4.4,4.4,0,0,1,.2-1.6c.1-.2.3-.4.5-.1a14.65,14.65,0,0,1,1.4,2.8c.7,1.4,1.6,2.8,2.4,4.1l.3.6a.9.9,0,0,0,.1.5c.7,1.2,1.9,1.9,2.5,3.1a22,22,0,0,1,1.3,3.6,43.83,43.83,0,0,1,2.5,10.7c.3,5-1.3,10-1.9,14.9a32.61,32.61,0,0,0-.3,5.4c.1,1.1.3,2.2.4,3.4,0,.6.1,1.3.1,1.8a48.29,48.29,0,0,1-1.6,15.1c-.1.2-.1.5-.2.7a6.32,6.32,0,0,1-1.2,2.3c-.2.2-.5.5-.8.4-.6-.2-.6-.9-.5-1.4a7.62,7.62,0,0,1,.6-2,2.92,2.92,0,0,0,.2-.9,4.3,4.3,0,0,0-.7-2.5c-.1-.4-.2-.8-.3-1.1-.3-1.1-.4-2.2-.7-3.3-.1-.3,0,0-.5-1.4,0-.1-.2-.1-.3-.1v.2a1,1,0,0,1-.1-.3h0c-.2.1-.2.2-.1.4.7,2.3.5,1.5.7,2.3.2,1.1.5,2.2.8,3.3.2.7.7,1.3.7,2a3.53,3.53,0,0,1-.3,1.4,9.77,9.77,0,0,0-.6,2.3,1.82,1.82,0,0,0,.6,1.4c1.1.7,2-.6,2.4-1.5a25.74,25.74,0,0,0,2-7.7,19.42,19.42,0,0,0,.2-2.4c.1-.8.1-1.7.2-2.4a48.22,48.22,0,0,0-.1-6.6c-.1-.9-.3-1.8-.4-2.7a26.7,26.7,0,0,1,0-4c.2-3.2.9-6.3,1.4-9.4a34.69,34.69,0,0,0,.6-4.5,30.2,30.2,0,0,0-1.7-11.2c-.3-1-.7-2-1.1-3a30.26,30.26,0,0,0-1.2-3.2c-.6-1.2-1.7-1.9-2.4-2.9a5,5,0,0,1-.5-1.3c-.6-1.1-1.3-2.2-2-3.3s-1.1-2.3-1.7-3.3C962.66,859.5,962.56,859.3,962.36,859.2Zm2.8,56.9h0c0-.4-.6-6-.5-7.6-.1,1.3-.2,2.6-.2,4a8.59,8.59,0,0,0,.5,3.2A.52.52,0,0,1,965.16,916.1Z"/><path class="cls-5" d="M969.76,946.1c-.7-1.1-.3-3.2-.2-4.4a18.21,18.21,0,0,0,.3-5.2c-.2-.8-.9-1.5-1.1-2.4-.2-.5-1-2.8-1.8-2.7-1.2.1-.8,2.7-.9,3.3-.2,1.2-.8,2.2-1,3.4-.1,1.4.2,2.9.1,4.3a58.45,58.45,0,0,1-.4,5.9c-.2,1.4-.6,2.9-.2,4.2.6,1.8,1.8,3,2.6,4.7a16.37,16.37,0,0,1,1,3.8c.4,1.5,1.1,2.9,1.4,4.4.5,2,.1,7.6,2.1,8.6.2.1.5.4.8.3.5-.3,1-3.9,1.1-4.6.2-4.3.2-8.4-1.2-12.5-.9-2.5-2.2-4.8-2.6-7.4C969.56,948.7,970.46,947.1,969.76,946.1Z"/><path class="cls-5" d="M966.56,931.2a1.85,1.85,0,0,0-.7,1.2,20.9,20.9,0,0,1-.1,2.5,19.16,19.16,0,0,0-.9,3.2,21.66,21.66,0,0,0,.1,3.6,54.29,54.29,0,0,1-.2,5.7,17.26,17.26,0,0,0-.5,4.5c.3,2,1.9,3.7,2.9,5.4.7,1.3.7,2.8,1.1,4.1s1.1,2.8,1.4,4.3c.4,2.4.1,5,1.1,7.2a3.48,3.48,0,0,0,1.3,1.4.66.66,0,0,0,.6.1c.4-.2.6-1.6.7-2a29.4,29.4,0,0,0,.5-5.9,29,29,0,0,0-1-8.3c-.6-1.9-1.5-3.7-2.2-5.6.7,1.9,1.5,3.7,2.1,5.6a29,29,0,0,1,1,8.3c0,1.2,0,2.5-.1,3.7,0,.3-.1.6-.1.9a20.48,20.48,0,0,1-.5,2.4c0,.2-.1.6-.3.7s-.7-.3-.9-.4c-.8-.6-1-1.9-1.2-2.9a20.68,20.68,0,0,1-.3-3.5,14.92,14.92,0,0,0-.2-2.1c-.4-1.5-1.1-2.9-1.4-4.4a15.15,15.15,0,0,0-1-3.8c-.9-1.7-2.5-3.3-2.8-5.3a13.82,13.82,0,0,1,.3-3.5,40.28,40.28,0,0,0,.3-4.9,19.22,19.22,0,0,0,0-2.4,26.2,26.2,0,0,1-.1-2.8c.2-1.3,1-2.6,1-3.9v-1.5c0-.3.2-1.4.7-1.2.3.1.5.5.6.7.3.6.5,1.2.8,1.8a9.73,9.73,0,0,1,1.1,2.3,18.93,18.93,0,0,1-.4,5.8c-.1,1,0,0,.3,3.9,0,.1.2,0,.2.1V946a.35.35,0,0,1,.1.2h.1c.1-.1.2-.3.1-.4-.3-.9-.3-.5-.3-.9a3.79,3.79,0,0,1,0-1.5c.2-2.3.8-4.7.5-7.1a6.26,6.26,0,0,0-1-2,12.27,12.27,0,0,0-1.2-2.6C967.66,931.3,967.16,930.9,966.56,931.2Zm3.3,15.1h0a29.19,29.19,0,0,0-.1,3.2c0,.2.1.4.1.6a2.46,2.46,0,0,1-.1-1.2,9.85,9.85,0,0,0,.2-1.7v-.6A.37.37,0,0,0,969.86,946.3Zm0,3.9v.4c0,.1.1.2.1.3A1.48,1.48,0,0,0,969.86,950.2Zm.1.6a.37.37,0,0,0,.1.3,10.41,10.41,0,0,0,.6,1.6C970.46,952.1,970.16,951.5,970,950.8Z"/></g><path class="cls-6" d="M837.78,299.54c1.4-.2,2.4,1.7,2,3s-1.6,2.4-2.6,3.4c-3.9,3.7-6.7,8.3-9.4,12.9-.9,1.5-1.9,3.2-1.7,5,.1,2,1.6,3.6,2.3,5.4s.3,4.6-1.7,4.9c-.6.1-1.2-.1-1.7.2-1,.4-1.2,1.8-1.1,2.9.1,3.8-.5,8.5-4,10.1-1.5.7-3.3.6-4.9.8s-3.4,1-4,2.5a9.83,9.83,0,0,1-.5,1.6,3.37,3.37,0,0,1-3.7,1.6,10.67,10.67,0,0,1-3.8-2c.2,2.1-.2,5.5-1.7,7.1a10.92,10.92,0,0,1-1.7,1.3c-2.1,1.3-4.5,2.4-6,4.4s-2,5.1-.1,6.8a9.75,9.75,0,0,0,3.9,1.6c1.3.4,2.8,1.1,3.2,2.5.2.8.1,1.7.3,2.5a3.8,3.8,0,0,0,3,2.3c4,.8,7.7-2,10.8-4.7l3.8-3.2.3-.3c.2-.5-.2-.9-.7-1.2a8.94,8.94,0,0,1-3.1-3.6,4.71,4.71,0,0,1,.4-4.6,1.51,1.51,0,0,1,1.1-.7c.7,0,1.2.7,1.7,1.3a10.5,10.5,0,0,0,4.2,3.3,4.88,4.88,0,0,0,2.4.4,9.38,9.38,0,0,0,1.5-.6,19.66,19.66,0,0,1,14.5-1.2,3.94,3.94,0,0,0,2.6.3c.8-.3,1.3-1.6.6-2.1,5.1-1,10.2-2,15.2-3.1a28.28,28.28,0,0,0,7-2.1c1.4-.7,2.7-1.7,4.2-2.3,4.3-1.8,9.4-.8,13.5-2.9a44.68,44.68,0,0,1-.4-7.3c0-.5,0-1,.4-1.3a1.81,1.81,0,0,1,1.3-.3c1.7,0,3.4,0,5.1.1a3,3,0,0,0,1.6-.3c1.4-1,0-3.2.3-4.8a84.13,84.13,0,0,0,15.1-1.7,3.26,3.26,0,0,0,2.3-1.2c.8-1.3-.4-2.9-1.7-3.6s-3-1-3.9-2.2a1.4,1.4,0,0,1-.3-1.5,1.47,1.47,0,0,1,.6-.5,50.09,50.09,0,0,1,16.9-7.4c-1.8-1.5-4.4-.9-6.6-.1s-4.5,1.9-6.7,1.2a1.5,1.5,0,0,1,1.4-1.3,14.77,14.77,0,0,1,2.1.1,4.28,4.28,0,0,0,4-4.8l7.6-1.2a2.38,2.38,0,0,0,2,2.9,2.42,2.42,0,0,0,2.5-2.5c1,1.5,2.2,3.2,3.9,3.7a6.25,6.25,0,0,0,.4-3,2.71,2.71,0,0,0-1.9-2.2c-.6-.1-1.2.1-1.7-.1-1.6-.5-1.1-2.9-2.1-4.2-1.2-1.6-3.7-.8-5.4.2s-3.9,2.2-5.5,1c-.5-.4-.9-1-1.4-1.4-1.7-1.3-4,0-6.1,0-2.7.1-5-1.8-7.6-2.5s-5.4-.1-8.1-.2a2.82,2.82,0,0,1-1.5-.4,3.67,3.67,0,0,1-1.1-1.8c-1.4-3.2-5.6-4-9.1-3.6s-6.9,1.8-10.4,1.2a4,4,0,0,1-1.8-.7,11.32,11.32,0,0,1-1-1.3c-1.7-2.8-3.9-5.5-7-6.5-2.4-.7-4.9-.2-7.3-.6a11,11,0,0,1-6.6-3.7c-1.3,1-1.6,2.8-2.3,4.2a15.66,15.66,0,0,1-4.1,4.8A11.33,11.33,0,0,1,837.78,299.54Z"/><path class="cls-6" d="M879.38,360c-3-1.4-6.2-.5-9.3.6-1.8.7-3.6,1.4-5.5,2a24.3,24.3,0,0,0-3.7,1.6,20.68,20.68,0,0,1-2.5,1.5c-2.5,1.4-5.4,1.7-8.2,2.1-8.8,1-17.9,2.2-25.3,7-4.1,2.7-7.5,6.4-11.8,8.7a3.81,3.81,0,0,0-1.3.9,3.9,3.9,0,0,0-.7,1.6c-.7,2.6-1.4,5.1-2,7.7-.2.8-.8,1.9-1.6,1.6-.7-1.7,1.2-3.6.7-5.4a2.8,2.8,0,0,0-2.9-1.7,8.68,8.68,0,0,0-3.4,1.2c-1.5.8-3.2,1.8-3.7,3.4a3,3,0,0,0,2.5.4c.9-.1,2,.3,2.1,1.2a2.92,2.92,0,0,1-.2.9c-.5,1.6-1.1,3.3-1.6,4.9a19.12,19.12,0,0,0,7.5,3.5,24.07,24.07,0,0,1-2.1,11.2l4.2-.6c.3,0,.7-.1,1,.2a1.4,1.4,0,0,1,.3.9c.1,1.6.1,3.2.2,4.9a7.2,7.2,0,0,1-.8,4.6,6.41,6.41,0,0,1-4.2,2.2,24.41,24.41,0,0,0-4.7.9,7.05,7.05,0,0,0-4.2,7.3,1.4,1.4,0,0,0,.3.9,2,2,0,0,0,1.2.6c1.3.3,2.5.5,3.8.8.2,0,.4.1.5,0,.3-.2.1-.7.1-1.1,0-.8,1-1.1,1.8-1.2,1.3-.1,2.5-.1,3.8-.2.7,0,1.7.3,1.5,1,.6,0,1.1-.1,1.7-.1.1.4.3.7.4,1.1a5,5,0,0,1,2.7-.1,1.77,1.77,0,0,1,1.3,2.1c.6,2.6-1.3,5.5.1,7.8.3.5.8,1,1.1,1.6.9,1.9-1.1,4.1-.4,6.1a2.72,2.72,0,0,1,2.2,2.9,6.6,6.6,0,0,0-.1,1.4c.2,1,1.6,1.3,2.3,2a2.44,2.44,0,0,1,.2,2.6,8.68,8.68,0,0,1-1.7,2.2,26.35,26.35,0,0,0,2.8.2,4.24,4.24,0,0,1,.4,5.9c1,.1,2.1.3,3.1.4,1.8,1.6,1,4.7,2.2,6.8.8,1.4,2.4,2.2,3.6,3.4a15.92,15.92,0,0,1,3.3,5.8c.4,1,.7,2,1.1,3,1.2,3.1,2.5,6.3,5.2,8.1,1.2.8,2.7,1.3,3.7,2.4a7.61,7.61,0,0,1,1.2,1.9c.4.8.8,1.5,1.2,2.3.9,1.7,1.6,3.9.3,5.2-.7.7-2,1.1-2.1,2.1,1.7,1.3,3.8,1.3,5.9,1.7a10.47,10.47,0,0,1,7,5.1c1.7,3.1,1.6,6.7,1.6,10.2s-.1,7.1-.2,10.6c0,1.1-.2,2.3-1.2,2.7a7.33,7.33,0,0,1,1.2,5.9c-.2,1-.7,1.9-.5,2.9a2.49,2.49,0,0,0,2.9,2c.7-.1,1.4-.6,2.1-.5,1.4.1,1.8,2,1.9,3.4.1,2,0,4.5-1.7,5.6-.6.4-1.3.6-1.4,1.3-.1.9,1.1,1.2,1.8,1.8,1.1,1,.6,2.7,0,4s-1.5,2.7-1,4.1a75.79,75.79,0,0,1,9.1,2.3c.5,1.3-1.1,2.3-1.7,3.5a8.25,8.25,0,0,0-.4,2.8,19.1,19.1,0,0,0-.2,4.1c.3,1.3,1.6,2.6,2.9,2.2.1,2.7.2,5.4.3,8a2.77,2.77,0,0,0,.1.9,10.54,10.54,0,0,0,.7,1.1c.9,1.5.5,3.4.1,5a9.17,9.17,0,0,1-6.5-.8,20.16,20.16,0,0,0-3.2-1.8,13,13,0,0,0-4.4-.6c-2.1,0-4.2.1-6.3.2-.7,2.8-1.4,5.5-2.1,8.3,0,.2-.1.4,0,.5a.92.92,0,0,0,.6.4,14.94,14.94,0,0,1,8.2,9.2c.3,1,.5,2.1,1.4,2.7a3.11,3.11,0,0,1,3.8-1,9.55,9.55,0,0,1,1.6,1.2A8.18,8.18,0,0,0,873,624a4.52,4.52,0,0,0-2.2,1.9,29.15,29.15,0,0,0,8.8,4l-.2,1.4a12,12,0,0,1-2.5,5.5c-1.5,1.5-3.7,2.2-4.8,4.1-.6,1-.7,2.2-1.6,3a4.44,4.44,0,0,1-2.2,1,14.44,14.44,0,0,0-7.7,6.5c1.2-.6,2.6.4,3,1.6a7,7,0,0,1-.2,3.8c-.3,1.4-.7,2.8-1,4.3a2.88,2.88,0,0,1-1.4,2.2c-.6.2-1.2-.1-1.7.3-1,.7.2,2.8-.9,3.4a2.36,2.36,0,0,0-2.8,2.3c.1.8.5,1.5.2,2.2-.4,1.2-2.2,1-3.4.5.2,5.4.4,10.8.6,16.3a3.18,3.18,0,0,1-.2,1.4,3.49,3.49,0,0,1-1.5,1.2,6,6,0,0,0-2.9,5.1c.9.6,2-.3,3.1-.3a2.44,2.44,0,0,1,2.2,1.9,6.51,6.51,0,0,1-.1,3.1,2.51,2.51,0,0,1-.6,1.4c-.7.6-1.7.1-2.5-.2a6.88,6.88,0,0,0-8.8,4.3,1.9,1.9,0,0,1,2.3,1,4.94,4.94,0,0,1,.3,2.7,8.89,8.89,0,0,1-.7,3.6,3.15,3.15,0,0,1-2.9,1.9,31.73,31.73,0,0,0,.6,9.7,3.6,3.6,0,0,0-4.2,4.1c1.4.4,1.9,2.1,1.7,3.6s-.6,2.9-.3,4.3a15.3,15.3,0,0,0,2.1,4,1.42,1.42,0,0,1,.2.6c0,.8-1.1.9-1.7,1.4-.7.7-.2,1.8.4,2.5a7.56,7.56,0,0,1,1.9,2.1c.5,1.4-.6,2.7-1.7,3.7-.3.3-.8.6-1.1.4s-.2-.3-.3-.5c-.6-1-2.3-.7-2.9.3a5,5,0,0,0-.3,3.4,2.4,2.4,0,0,0-3,.9,5.59,5.59,0,0,0-.5,3.4c.4,3.5,1.9,6.8,2.9,10.2a85.73,85.73,0,0,1,2.6,14.3c.2,1.7.4,3.3.6,5,.2,1.4,0,3.2-1.3,3.5-.8.2-1.6-.3-2.4-.2-1.3.1-2,1.8-1.9,3.1s.8,2.6,1.1,3.9a5.62,5.62,0,0,1-2.5,5.7c.8.1,1.8.4,2,1.2a3.44,3.44,0,0,0-2.3,4,1.64,1.64,0,0,1-1.3-2.3c-1.1-1.2-2.9-1.3-4.5-1s-3.1,1.1-4.7,1.2a8.24,8.24,0,0,0-.4,3.5c1.6.7,3.5.4,5.2.4s3.8.5,4.5,2.1-.2,3.9.7,5.6l13.5.9a3.55,3.55,0,0,1,1,.2,2.09,2.09,0,0,1,.7,1.3,23.06,23.06,0,0,1,.6,5.2,3.64,3.64,0,0,1-.2,1.5c-.5,1.2-2,1.6-3.3,1.9a123.9,123.9,0,0,1-13.8,2c-1.6.2-3.4.4-4.2,1.8a4.68,4.68,0,0,0-.2,3.3,129,129,0,0,1,1.4,13.8,10.92,10.92,0,0,1-.2,3.6c-.3,1.2-.8,2.3-1.1,3.5-1,4.3,2.2,8.7,1.5,13.1a23.36,23.36,0,0,0-.4,2.6,2.32,2.32,0,0,0,1.1,2.2c1.7.9,3.8-1.5,5.6-.7.5,1.7-1.7,2.9-2.3,4.6-1.2,3.7,2.4,7.4,2.5,11.3,0,1.5-.3,3.3.9,4.1a5.3,5.3,0,0,1,1,.6,2.51,2.51,0,0,1,.5,1.9V903c0,5.3,0,10.6.1,15.8a14.15,14.15,0,0,1-.2,2.9,21,21,0,0,0-.6,2.4,16.15,16.15,0,0,0-.2,3.1c-.2,5-2.2,10-1.6,14.9a2.12,2.12,0,0,1,3.2.7,6.54,6.54,0,0,1-1.2,6.8c-.8.9-1.9,1.8-1.7,3a3.41,3.41,0,0,1,3.8,1.7,8.17,8.17,0,0,1,.6,4.4,1.28,1.28,0,0,1-.4,1,2.1,2.1,0,0,1-1.1.4,9.89,9.89,0,0,0-8.3,7.8,3.37,3.37,0,0,0,3.6.6c1.2-.4,2.3-1.1,3.6-1.5,3.8-1.1,7.7,1.4,11.7,1.3a3.66,3.66,0,0,0,1.8-.4,4.89,4.89,0,0,0,1.3-1.2c2.3-3,2.6-7.5,5.6-9.8a2.08,2.08,0,0,1,1.2-.5c.7,0,1.2.6,1.8,1,2,1.1,4.7-1.3,6.7-.2,1.1.6,1.5,1.9,2.1,3s1.8,2.1,2.9,1.7a9.31,9.31,0,0,0-.8,7.8c.3.8.9,1.7,1.8,1.6a1.78,1.78,0,0,0,1-.4,19.27,19.27,0,0,1,8.9-3c.9,2.7.8,5.6,1,8.4s.9,5.8,3.1,7.7c2.9-3.8,9.3-3.1,12.4-6.8-.4-2.4-.7-4.8-1.1-7.3-.3-2.3-.6-4.8,1-6.5,1.3-1.4,3.4-1.7,5.3-2,5.8-1,11.1-3.7,16.3-6.4-2.1-.8-4.4-.1-6.4.9s-3.9,2.3-6.1,2.7a2.43,2.43,0,0,0-2.8-1.4,9.87,9.87,0,0,0-3.1,1.5,27.11,27.11,0,0,1-4.9,2.2c-2.7,1.1-5.3,2.1-8,3.2-3.3,1.3-6.7,2.7-10.3,2.7-1.5-1.9-.8-5.5-3.1-6.2-1.2-.4-2.9.2-3.7-.8a3,3,0,0,1-.3-1.9,5.25,5.25,0,0,0-.6-2.8c-1.6-2.2-6.2-1.3-6.9-4-.5-1.9,1.6-3.4,3.4-4.1a25,25,0,0,1,9.8-1.3c3,.2,6.7.8,8.6-1.7s0-6.5.6-9.7a2,2,0,0,1,.6-1.2,2.15,2.15,0,0,1,1.6-.4c5.9,0,11.7-.1,17.6-.1-1-.4-1.5-1.9-1.4-3a2.77,2.77,0,0,1,1.9-2.5c1.2-.4,2.7.1,3.8-.7.6-.4.9-1.2,1.5-1.5,1.4-.8,3.6.6,4.5-.7a2.23,2.23,0,0,0,.3-1.4c0-3.2,0-6.5-.1-9.7a3.12,3.12,0,0,1,.7-2.5,3.42,3.42,0,0,1,2.2-.5c1.4,0,2.8.1,4.2.1a2,2,0,0,0,1.5-.4,1.79,1.79,0,0,0,.4-1.4,13.31,13.31,0,0,0-8.6-12.2c-1.5-.5-3.4-1-3.9-2.6.9,0,1.8.1,2.8.1-2.4-2-2.7-5.5-3.3-8.6s-2.2-6.6-5.3-7a13.2,13.2,0,0,1-2.8-.2c-.9-.3-1.6-1.4-1.1-2.1a2,2,0,0,0,2.4-1.9c-.1-1.6-2.2-2.7-2.1-4.3s2.5-2.1,4.2-1.9a115.39,115.39,0,0,0-.3-14.4c-1.2.5-2.6-1.2-1.9-2.3a8.7,8.7,0,0,1,.9-1.1,8.21,8.21,0,0,0,.6-2.8c.2-1,.9-2,1.8-1.8a34,34,0,0,1-.9-11c.9.8,2.6,0,2.9-1.2a5.2,5.2,0,0,0-.8-3.6,5.8,5.8,0,0,1-.8-3.6,12,12,0,0,0,4.2-.7,4.9,4.9,0,0,0,3.1-2.7c.8-2.1-.5-4.3-1.7-6.1a17.8,17.8,0,0,1-9.5,2.5,1.34,1.34,0,0,1-.9-.2,1.79,1.79,0,0,1-.5-.7c-1.7-3.6-3.5-7.2-4-11.1a88,88,0,0,1,15.4-1.2,9.05,9.05,0,0,0,.8-4.8c-.3-1.6-1.7-3.2-3.3-3a7,7,0,0,1-1.4.3c-.5,0-1.1-.1-1.2-.6s.4-1.1.8-.8a3.92,3.92,0,0,0-2.9-2.8,9.4,9.4,0,0,1,3.3-.8,3,3,0,0,1,2.7,1.7c.2.5.1,1.1.3,1.6.7,1.9,3.7,1.3,5.2,2.7.8.7,1.6,1.9,2.5,1.3.7-.5.2-1.6-.5-2.1a13.29,13.29,0,0,1-2.6-2.1c-.7-.9-.8-2.4.2-3,.4-.3,1-.2,1.5-.5s.7-.9.3-1.2a3,3,0,0,1-2.7-1.9,7.89,7.89,0,0,1-.6-3.4c-.1-2.2-.2-4.3-.3-6.5.4.5,1.7,0,2.1-.6a3.4,3.4,0,0,0,.3-2c-.4-5.7-.7-11.4-1.1-17.1,1.3-.8,2.6-1.7,3.9-2.5a3.74,3.74,0,0,0,1.3-1.2,3.61,3.61,0,0,0,.3-1.8,26,26,0,0,0-1.9-9.1,63.17,63.17,0,0,1-2.5-6,8.35,8.35,0,0,1,.1-6.4c.4-.8.9-1.5,1.2-2.2,1.7-4.3-3.4-9.3-1.6-13.6,2.1,0,4.3-.1,6.4-.1,1.2,0,2.8-.2,3.2-1.4a4.44,4.44,0,0,0,.1-2c-.3-2.8,1-5.6,1.8-8.3a33.17,33.17,0,0,0,1-7.7,107.29,107.29,0,0,0-.4-17c-.2-1.5-.7-3.9.5-4.8a4.1,4.1,0,0,1,2.9-.4c1.5.2,3,.3,4.4.5.2-1.6.4-3.2.6-4.9a3.78,3.78,0,0,1,.8-2.3c1-1.1,2.9-.8,4.4-.3,1.1-3.6-.5-7.4-1.2-11.1a21.79,21.79,0,0,1,1.5-12.6,13.59,13.59,0,0,0,1.1-2.8,18.81,18.81,0,0,0,.5-3.3c.2-3.1.3-6.4,1.9-9.1.6-1.1,1.5-2,2.1-3,2.3-3.4,2.9-7.9,5.7-10.9a18,18,0,0,0,1.9-2,32.35,32.35,0,0,0,1.3-3.3c1-2.2,3.2-4.1,2.6-6.4h-5.7c-.5,0-1.1-.3-.9-.7,1.5-2.5,1.8-5.7,2.2-8.7.2-1,.1-2.4-.9-2.7-1.6-.5-2.9,2.4-4.4,1.7-1.1-.5-.7-2.1.1-2.9s2-1.4,2.4-2.5a5.74,5.74,0,0,0-.2-2.9c-.4-2.5.4-5.1-.3-7.4-.8-2.6-3.3-4.8-2.9-7.5a11.08,11.08,0,0,1,1.2-3,17.66,17.66,0,0,0,.9-6.5c0-1.9-.1-4.1-1.6-5.2-1-.7-2.5-1-2.8-2.1a7.41,7.41,0,0,1,.1-2.1c0-1.8-1.8-3-3.6-3.2s-3.5.1-5.3-.2c-1.1-.2-2.4-1.3-1.8-2.3,3.1-5.8,2.8-12.9,4.1-19.3.7-3.6,1.5-7.2,1.3-10.8-.1-1.5-.3-3-.3-4.5.1-5.2,3.8-10.1,3-15.2a1.93,1.93,0,0,0-.3-1c-.8-1.1-2.5,0-3.8-.2a9.29,9.29,0,0,1-1.2-4.6c-4.9.3-9.8.7-14.7,1a2.2,2.2,0,0,1-1.4-.2,2.17,2.17,0,0,1-.7-1.9c-.2-2.7-.3-5.3-.5-8-.1-2.1-.7-4.8-2.8-5.2-.4-.1-.8-.1-1.1-.2-2.9-.8-1-6.5-3.8-7.5-.5-.2-1.2-.1-1.7-.3a3.91,3.91,0,0,1-2.6-3.4c-.3-1.5-.1-3-.4-4.5a1.74,1.74,0,0,0-.6-1.2c-.3-.3-.7-.3-1.1-.5-1.5-.8-1.8-2.8-1.9-4.4s-.7-3.7-2.3-4.1c-1-.2-2.4-.9-2.5-1.9s.9-1.9.7-2.8a2.36,2.36,0,0,0-.6-.9c-1.2-1.4-2.5-2.8-3.7-4.2a1.29,1.29,0,0,1,1.5-.7,6.12,6.12,0,0,1,1.7.7,6.63,6.63,0,0,0,4.8,0c-2.3-1.5-4.6-3-7-4.5-1.9-1.2-4-2.7-4.3-5-.2-1.5.4-3,.1-4.5-.3-1.7-1.7-3.6-.7-4.9.7-.9,2.3-1.2,2.4-2.3s-1.3-1.7-1.5-2.7a2.88,2.88,0,0,1,.1-1.3c.5-2,1.3-4.4,3.3-4.9-.9-1.4-2.6-2.1-4.3-2.7s-3.3-1.2-4.4-2.6-1-3.7.6-4.5c.2-2-1.2-3.9-2.7-5.3s-3.1-2.8-3.7-4.8a3.49,3.49,0,0,0-.5-1.3c-.3-.5-.8-.7-1.2-1.1a4.26,4.26,0,0,1-1.5-3.8,4.13,4.13,0,0,1,2.5-3.2,7.29,7.29,0,0,0,2.6-.9c.9-.9.5-2.5-.1-3.7a13.3,13.3,0,0,0-9.8.7c-1-3.3,1.8-6.3,3-9.5a8.49,8.49,0,0,0,.1-7.3"/><path class="cls-7" d="M856.93,599.69a39.85,39.85,0,0,0,2.8-11.3,1,1,0,0,1,.2-.7c.4-.4,1.1-.1,1.6-.1.9,0,1.4-1.1,1.7-2a47,47,0,0,0,1.3-6.3,8.87,8.87,0,0,1,.8-3.2,2.86,2.86,0,0,1,2.7-1.6,1.61,1.61,0,0,1,2.2-1.8,2.4,2.4,0,0,0,.3,3.4,1.09,1.09,0,0,0-1.3,1.2,2,2,0,0,0,1.4,1.5,5,5,0,0,0,2.1,0,40.19,40.19,0,0,1,.4,7.7c.8-.6,1.9.2,2.2,1.2a9.55,9.55,0,0,1-.3,2.9c-.6,4.4,3.5,8.5,2.7,12.9-3.9-.9-7.7-1.7-11.6-2.5-1.4-.3-2.8-.5-4.1-.8a16.45,16.45,0,0,0-3.2-.5,2.56,2.56,0,0,0-1.9.6,2.36,2.36,0,0,0-.6.9,1.45,1.45,0,0,0-.2.7c-.4,1.5-.7,3.1-1,4.6-.2,1-.5,2-.7,3-.6,2.5-1.1,5-1.7,7.5s-1,5.2-1.6,7.8c1.5-1,3.1-2.1,5-2.1a10.21,10.21,0,0,1,3.8,1c.7.3,1.5.7,1.7,1.4a2.21,2.21,0,0,1-.6,1.9,10.62,10.62,0,0,1-2.9,2.7,8.15,8.15,0,0,1,6.3,3.2,4.81,4.81,0,0,0,.9,1.1,1.9,1.9,0,0,0,2.6-.4,2.41,2.41,0,0,1,.6-.8c.5-.3,1.2.1,1.7.5,1.9,1.1,4.7.6,5.9,2.4,1,1.6-1.8,4.1-3.7,4.3a3,3,0,0,0-1.3.2,3.09,3.09,0,0,0-1.1,2.1,4.79,4.79,0,0,1-3.7,3.3,20.24,20.24,0,0,0-2.6.4c-2.2.8-2.7,3.6-2.8,5.9l-.9,13.5a26.2,26.2,0,0,0-2.8.1,12.68,12.68,0,0,1-1.7,7.4c-.8-.3-1.7-.5-2.5-.8a2.61,2.61,0,0,0-.3,2.7,21.76,21.76,0,0,1,1.1,2.7c.3,1.9-1,4-.1,5.7.2.4.6.9.5,1.3-.2.8-1.2.8-2,.9a3.63,3.63,0,0,0-2.7,2.1c.3.7,1.2.9,1.8,1.4,1.1,1,.3,2.7.4,4.2.1,2.7,3,4.2,4.5,6.5a43.27,43.27,0,0,1-12.4.9,1.34,1.34,0,0,0-.9.2.75.75,0,0,0-.1.8,42.15,42.15,0,0,0,3.7,11.9c-1.9-.1-4.2.2-6.2.2.9,3.4,1.8,6.8,2.6,10.3a9.2,9.2,0,0,0-4.6,1.1c.7,2.4,1.5,4.9,2.2,7.3-.5.1-.9.1-1.4.2-.3,3.2,2.5,5.9,3.2,9.1a15.14,15.14,0,0,1-3-.2,36.35,36.35,0,0,1,4.1,8.4l-2.3.6a1,1,0,0,1-.9,0,1.62,1.62,0,0,1-.5-.9,10,10,0,0,0-2.3-4.3v2.4h-1.2c.6.3,1.3,1,1,1.6-.2.4-.8.6-.9,1-.3.9,1.6,1.7,1,2.5a1.6,1.6,0,0,1-1,.5,2.27,2.27,0,0,0-1.6,1.9,2.23,2.23,0,0,1,1.4,0c.4.2.8.7.6,1.1-.4,1-2.3.3-2.6,1.3a108.33,108.33,0,0,1,3.8,21.2,2.2,2.2,0,0,1-.2,1.4c-.3.5-.9.6-1.3,1s-.7,1.1-.3,1.4a2.37,2.37,0,0,1,2.4,1.5,6.15,6.15,0,0,1,.5,3,4,4,0,0,1-.4,2.2c-.4.6-1.5.9-1.9.3-.1.6-.1,1.2-.2,1.8-1.4-.1-2.2,1.6-2.4,3a28,28,0,0,0,.4,10.8c-.6.1-1.1.3-1.7.4,0,.7-.1,1.4-.1,2.2l-2.7.3a3.44,3.44,0,0,0-1.6-3.6c-.9,1.8-3.6,1.1-5.4,1.9a3.16,3.16,0,0,0-1.3,4.3l6.2-.3a4.87,4.87,0,0,1,2.1.2,2.72,2.72,0,0,1,1.7,2.5c0,2.3-2.8,3.7-5,3.3s-4.1-2-6-3.2c-3.6-2.2-7.7-3.3-11.8-4.4a107.32,107.32,0,0,1,1.4,17c2.3-.3,4.6-.6,6.8-.8a1.28,1.28,0,0,1,1.2.2c.3.2.4.7.5,1,.3,1.7.6,3.5.8,5.2,2.7-.4,5.3-.9,8-1.3a2.14,2.14,0,0,1-1.2,1.7,5.42,5.42,0,0,1,.6,2.5c-.1.8-.9,1.7-1.7,1.5a5.39,5.39,0,0,0-1-.3c-.4,0-.8.3-.7.6.7,0,1.3.1,2,.1.2,2.2.4,4.5.6,6.7-1.4,1.3-.7,3.6,0,5.4a5,5,0,0,1-1.2.2c-.1,1.2-.1,2.4-.2,3.6.8-.2,1.1,1.1.9,1.9-.4,2-.8,4.1-1.2,6.1-.9,4.4,1.7,8.9,2.7,13.2a29.88,29.88,0,0,0,.9,3.2,13.23,13.23,0,0,1,1.5,4.2c.1,1.1-.2,2.2.3,3.1a6.19,6.19,0,0,0,1.9-.7c.8,4.1,1.5,8.2,2.3,12.2a1,1,0,0,1,1.1-.4,56.3,56.3,0,0,1,1,9.2,11.28,11.28,0,0,1-.5,4.1c-.5,1.2-1.4,2.2-1.7,3.4-.4,1.5.2,3.1.6,4.6a54,54,0,0,1,1.7,7.2c-.8-.1-1.3.8-1.2,1.6a18.66,18.66,0,0,0,.7,2.2,1.49,1.49,0,0,1-.9,1.9,1.27,1.27,0,0,0-.6.1c-.2.1-.3.4-.1.5a37.34,37.34,0,0,1,.5,10,3,3,0,0,1-1.7-.8c0,.7.8,1.1,1.5,1.2a3.38,3.38,0,0,1,2,.6,2.2,2.2,0,0,1,.5,1.2,22.46,22.46,0,0,1,.6,6.3c-.8-.6-1.9,0-2.4.8a4.39,4.39,0,0,0-.3,2.8c.4.2.7.5,1.1.7a1.12,1.12,0,0,1,1.5-.3,1,1,0,0,1,.1,1.5,2.4,2.4,0,0,1,1.5,1.6,1.34,1.34,0,0,0-1.9.3,7.22,7.22,0,0,0-.9,2c-.7,1.4-2.3,2.2-3.8,2.9q-5.85,2.55-11.7,4.8a111.8,111.8,0,0,1-12.4,4,12,12,0,0,1-5,.4c-.2.4.4.7.8.8s1,0,1.2.4c.1.2,0,.5,0,.8a2.42,2.42,0,0,0,1.5,2.6c-1.7,2.1-4.4,3.1-7,4-4.9,1.7-9.7,3.5-14.6,5.2-.6.2-1.1.4-1.7.6-1.4.5-3.1.9-4.2,0-.7-.6-.9-1.5-1.5-2.2-.4-.5-1-.9-1.5-1.4-1.3-1.4-1.5-3.4-1.7-5.4l-.9-13.2h-2c-3.8,2.5-9.2,2.3-13.7,2.1a2.71,2.71,0,0,0-1.6.3,2.4,2.4,0,0,0-.5,2.2c.6,6,1.1,12,1.7,18.1a48.79,48.79,0,0,0-11.8,3.6c-1.8.8-3.7,1.7-5.5,1-1.4-.5-2.3-1.9-3.5-2.9a14.8,14.8,0,0,0-5.7-2.6,4.62,4.62,0,0,0-2.3-.2,5.72,5.72,0,0,0-1.6,1.1,5.88,5.88,0,0,1-3.6,1.3c.3-3.8.7-7.6,1-11.4a31.06,31.06,0,0,1,.4-3.2c.2-1,.4-2.1.7-3.1.9-3.7,1.8-7.4,2.7-11.2a18.17,18.17,0,0,1,2.4-6.5l-36.8-1.4,2.2-17.2-4.7-.4,9.4-48.8-40.7-3.2v-4l11.5.6,1.7-13.4,13.7.9.8-6-11.5-.4.6-4.1,11.9.1v-5.6a17.33,17.33,0,0,1-5.5-.7c.4-1.1.7-2.1,1-3.2,1.2-.1,2.4-.1,3.6-.2a5.66,5.66,0,0,0-.3-1.8.22.22,0,0,0-.2-.2c-.1-.1-.2,0-.4,0a1.42,1.42,0,0,1-.6-.2c-1.3-.4-2.6,1.4-3.8.8a1.48,1.48,0,0,1-.8-1.2,3.81,3.81,0,0,1,.1-1.5.52.52,0,0,1,.2-.4.37.37,0,0,1,.3-.1c2.8-.4,5.7-.7,8.5-1l.4-11.3H689v1h-1.9v-1l-27.9-3.1-5.7-6.8,7.3-21.6,34,4c.2-1.3.2-2.7.4-4a2,2,0,0,0,1.7-1.6,7,7,0,0,0,0-2.5l-1.7-.3a.76.76,0,0,1-.5-.2.45.45,0,0,1,0-.5c.4-1.5.7-3,1.1-4.5a10.1,10.1,0,0,1,1.2-3.3,3.06,3.06,0,0,1,3-1.4,4.25,4.25,0,0,0,1.1.2c.8-.2.8-1.4.6-2.2a6.39,6.39,0,0,1-1.9-.8c-.3-3.8,2.3-7.2,2.6-11a1.8,1.8,0,0,0-.2-1,.65.65,0,0,0-.9-.2,2.79,2.79,0,0,1-1.9,2.8,49.22,49.22,0,0,1,.9-7.6.55.55,0,0,1,.3-.5c.2-.1.5,0,.8,0a1.27,1.27,0,0,0,1.1-1,2,2,0,0,0-.3-1.5,4.42,4.42,0,0,1-.6-1.6c0-.6.6-1.2,1.1-.9.4-2.5.4-5.3.9-7.8a11.78,11.78,0,0,0,0-5.6c-.4-1.1-1.1-2.1-1.4-3.2a7.93,7.93,0,0,1,.5-4c1.7-5.4,3.5-10.7,5.1-16.1a5.14,5.14,0,0,1-2.1-2.7c-.8-2.3,0-4.8.8-7.1.4-1,.7-2,1.1-3.1s1.1-2.3,2.2-2a2.48,2.48,0,0,0,3,2.7c-.2-2.8-.3-5.8-.5-8.6,0-.6,0-1.3.5-1.4s1.1.5,1.8.5,1.1-1,1.1-1.7c-.2-.5-.9-.6-1.4-.5a4.4,4.4,0,0,1-1.6.2c-1.1-.2-1.5-1.5-1.7-2.6a50.4,50.4,0,0,1-1.2-9.4,1,1,0,0,1,1,.8c1.6,0,2.6-1.9,2.4-3.4-.1-1.2-.5-2.7.6-3.2.7-.3,1.6.1,2.3-.2,1-.5.7-1.9.2-2.9-.7-1.4-1.3-2.9-2-4.3a6.2,6.2,0,0,0,3.8-.7,8.23,8.23,0,0,0-4.9-.5,18.17,18.17,0,0,1-1.4-5.2,28.69,28.69,0,0,0,8.8-1,33.89,33.89,0,0,0-.2-4.5,3.3,3.3,0,0,0,1.4,0v-3.1c.5,0,.9-.1,1.4-.1a12,12,0,0,1,.7-4.2c.8.1,1.4-.8,1.5-1.6s.2-1.7.9-2.2c.2-.2.6-.3.7-.6a1.34,1.34,0,0,0,.2-.9c.1-2.7.1-5.3.2-8a6.61,6.61,0,0,1,2.8,0c.8.2,1.3-.8,1.2-1.6a6.25,6.25,0,0,0-1-2.2,8.13,8.13,0,0,1-.9-4.8,3.44,3.44,0,0,0,2-.4,1.48,1.48,0,0,0,.6-1.8,38.26,38.26,0,0,1,11.2-.8,11.66,11.66,0,0,0-1.1-7.1,11.18,11.18,0,0,1-1.6-3.3c-.3-1.5.2-3.2-.7-4.4-.3-.4-.8-.8-.8-1.3s.4-.9.6-1.3a6.79,6.79,0,0,0,.5-5.9c-.6-1.9-1.4-3.9-1.3-6,0-1.9.8-3.8.5-5.7-.3-1.6-1.5-3-1.8-4.6a19.27,19.27,0,0,1-.1-2.4,12.19,12.19,0,0,0-1.3-5.3,4.12,4.12,0,0,1-2.9-.5c-.8-.6-1.1-2-.2-2.5.3-.2.8-.2,1-.5s.1-.8,0-1.2l-6-19.5a3.69,3.69,0,0,0-.7-1.4c-.9-.9-2.5-.4-3.6.2-1.5-4.5-3.8-8.7-5.7-13.1-.5-.3-1,.3-1.6.4-.8.1-1.3-.9-1.5-1.6a37.35,37.35,0,0,1-.9-4.6c-1.2.1-2.3.2-3.5.2a8,8,0,0,1-.3-3.1,2.7,2.7,0,0,0,2.1-.7,34.6,34.6,0,0,0-2.9-9.3,6.65,6.65,0,0,1-2.4.7v-.7a1.05,1.05,0,0,1-.9-.5c.2-.2.5-.3.7-.5a3.51,3.51,0,0,0-2-.5v-2.7a5.42,5.42,0,0,0-2.4.9,94.49,94.49,0,0,1-4.5-12.6c.7.6,1.8-.2,1.9-1.1a3.69,3.69,0,0,0-1-2.4c-.2-.2-.4-.5-.6-.5-.6,0-1,1.1-1.6.8-.3-.5-.7-1.1-1-1.6-1.1-1.8-2.3-4-1.4-5.9.8-1.6-.2-3.5-.3-5.3a1.34,1.34,0,0,0-.2-.9c-.4-.6-1.4-.3-2.2-.4a2.66,2.66,0,0,1-2.2-2.4,8,8,0,0,1,.4-3.4c.6-2.1,1.2-4.1,1.7-6.2-.6.1-1.2.1-1.7.2a17.85,17.85,0,0,0,.1-4,11.56,11.56,0,0,1-3.2.1,5,5,0,0,0,.1-2.7,1.63,1.63,0,0,0-2.1-1.2,4.1,4.1,0,0,1-.1-2.9c.4-1.6.8-3.2,1.3-4.8a21.54,21.54,0,0,0-6.2-.8,10,10,0,0,1,3.7-9.7,14.59,14.59,0,0,1,3-1.7,17,17,0,0,1,6.9-1.9c.1-2.7.3-5.4.4-8.1-1.3-.1-2.6-.1-3.8-.2a53.53,53.53,0,0,1-.4-8.9l-20.9-3.6a55.85,55.85,0,0,1,1.4-10.1,9.15,9.15,0,0,1-1.7-.1c.1-2.9.4-5.9.7-8.8-1.3,0-2.6,0-3.8-.1a32.28,32.28,0,0,1,.3-7.6,13.42,13.42,0,0,1-3.9-3.6,1.42,1.42,0,0,1-.2-.6c0-.5.6-.8,1.1-.9s1.1,0,1.5-.3a2.13,2.13,0,0,0,.5-2.3c-.3-1.6-.5-3.2-.8-4.8a14.36,14.36,0,0,1-4.6.4,38.79,38.79,0,0,1,.4-10.2c1.8-.4,3.9.8,5.4-.2,1.3-.8,1.5-2.8,2.8-3.7a14.2,14.2,0,0,0-5.7,1.5,15.34,15.34,0,0,0,.5-5.2c-.8.3-1.4-.7-1.4-1.5a11.77,11.77,0,0,1,.7-4.5c.6-2.1,1-4.2,1.4-6.3a1.84,1.84,0,0,0-.2-1.6,2.61,2.61,0,0,0-1.7-.7c-.6-.1-1.3-.5-1.3-1.1a1.17,1.17,0,0,1,1-1,2.7,2.7,0,0,1,1.5.3c2.1.8,4.1,1.7,6.2,2.5a3.12,3.12,0,0,0,2.1.3,2.91,2.91,0,0,0,1.1-1.1c.5-.8,1-1.5,1.5-2.3a9,9,0,0,0,1.2-2.4c.2-.8.1-1.7.3-2.4a6.7,6.7,0,0,1,1.1-1.8,5.38,5.38,0,0,0,.8-2.8.9.9,0,0,0-.1-.5c-.1-.1-.2-.1-.3-.2-1-.4-1.9-.7-2.9-1.1.3-1.4.8-2.8,1.2-4.1a3.16,3.16,0,0,1,1.1-1.7c.9-.6,2-.2,2.9.1,2,.8,4.3,1.8,4.7,3.9.3,1.7-.9,3.4-1,5.2-.3,0-.4.5-.7.5a8.5,8.5,0,0,0,7.1,2.8,16.35,16.35,0,0,0-.1-10.7,13,13,0,0,0,4.8-8.7l6.8.9c1.5-3.3,3-6.7,4.5-10,.7-1.5,1.4-3.1,2.9-3.9s3.2-.5,4.7-1.1c2-.7,3.3-2.6,5-3.7a7.27,7.27,0,0,1,9.2,1.8,7,7,0,0,0,1.3,1.7c1,.8,2.4.9,3.6,1.2a8.89,8.89,0,0,1,5.9,4.6c.6,1.1.9,2.6,0,3.5-.5.6-1.4.7-2.1,1a5.72,5.72,0,0,0-2.9,7.5,6.63,6.63,0,0,1,.9,1.9c.5,2.4-2.9,4.7-1.9,7a3.72,3.72,0,0,0,1.8,1.7c6.7,4,13.8,8.2,21.7,8.3a15,15,0,0,1,.9-5.6,2.55,2.55,0,0,1,.7-1c1.6-.9,3.2,2.4,4.8,1.6.4-2.4,3.4-3.3,5.9-3.3s5.2.4,7-1.2c1.4-1.3,2.1-3.7,4-4s3.3,1.7,4.9,2.9c2.3,1.8,5.5,2,7.7,3.9a14.12,14.12,0,0,1,2.9,4,13.63,13.63,0,0,1,2.1,5.7c.2,3-1.5,5.8-2.9,8.5a10.48,10.48,0,0,0-1.5,5.4,4.31,4.31,0,0,0,3.2,4.1c1.3.2,2.9-.4,4,.3,1.4.9,1.2,3,.2,4.4s-2.4,2.3-3.2,3.7a30.87,30.87,0,0,0-1.4,4.3c-1.5,3.8-5.6,5.6-9.1,7.6a43,43,0,0,0-10.1,7.9c-2.3,2.4-4.6,5.2-7.9,5.4s-5.9-2.3-8.7-4a17.73,17.73,0,0,0-10.5-2.4,13,13,0,0,0,7.1,9.7c1.5.7,3.2,1.1,4.4,2.2s1.8,3.2.6,4.4a7.74,7.74,0,0,1-3,1.1c-1,.3-2.1,1.3-1.7,2.3.5,1.4,2.6.7,4,.9,2.1.4,3,3.3,2.1,5.2s-3,3.1-4.9,4.1a8.59,8.59,0,0,0-9.1-6.2c-1.5,1.9-3,3.9-4.5,5.8,4.1,1.6,4.4,8.1,8.4,9.8,6-1.3,10.8-3.7,16.3-6.6a20.44,20.44,0,0,1,4-1.8,18.3,18.3,0,0,1,4.7-.4h7.5c1.7,0,4.1.6,3.9,2.3a7,7,0,0,0-4.8,5.2c-.5,2.7.7,5.3,1.8,7.8,4.2.4,7.7-3.3,9.4-7.1s2.5-8.1,5-11.6c1.1-1.5,2.6-3,2.6-4.9.1-3.1-3.5-5.3-3.3-8.4a21,21,0,0,1,.6-2.4,58.62,58.62,0,0,0,1-5.8c.4-1.9,1.6-3.9,3.5-4.5a3.28,3.28,0,0,1,1,3.9c1.9.5,3.1,2.6,3.3,4.6a15,15,0,0,1-1,5.9,2.88,2.88,0,0,0-2.6,2.3c.9.6.8,1.9.4,2.9s-1,2-.7,3.1a1.66,1.66,0,0,0,2.2-.6,5.14,5.14,0,0,0,.6-2.5,6.49,6.49,0,0,1,1.5-3.6,2.92,2.92,0,0,1,3.6-.6c1.1.7,1.3,2.7.1,3.3.9.7,1.8,1.5,2.7,2.2a2,2,0,0,1-2.3.7c0,1.5-.1,2.9-.1,4.4-2.3.7-4.6,1.3-6.8,2a10.9,10.9,0,0,0-4.8,2.4c-1.3,1.4-1.7,3.3-2.1,5.2a17,17,0,0,1,5.9,1.4,2.63,2.63,0,0,1-.6-2.4,49.87,49.87,0,0,0,5.4.7c.7.1,1.8-.3,1.5-1a24.35,24.35,0,0,0,4.6,2.2,3.45,3.45,0,0,1-2.9.8,1.15,1.15,0,0,0,1.5.7c.6-.2,1.1-.6,1.8-.8,1.3-.3,2.6,1,2.9,2.3a27.73,27.73,0,0,1,.1,4.1c.1,1.4.6,2.9,1.9,3.4a10.87,10.87,0,0,1-1.8-.1,23.49,23.49,0,0,0,3.9,10.6c1.4,2,3.1,4.4,2.3,6.7a6.78,6.78,0,0,0-2.7,1.3c1.8,0,3.5,0,5.3.1v3c-1,0-2.7.1-3.7.2a25.65,25.65,0,0,1,7.5,6.8c-.7.2-1.4.3-2,.5,1.2.1,1.8,1.5,2.1,2.6s.4,2.5,1.4,3.2c.4.3,1,.4,1.4.7,1.6,1,1.7,3.5,3.4,4.3.6.2,1.2.2,1.8.4s1.1.8,1,1.3a2.85,2.85,0,0,0-1.7,4.4,2.44,2.44,0,0,1,2.2,2,5,5,0,0,1,2.7.8,1,1,0,0,1,.4.5.9.9,0,0,1-.1.5c-.5,1.1-1,2.1-1.4,3.2a30.88,30.88,0,0,1,5.9,1.8,17,17,0,0,0-1.9,1.9,7.18,7.18,0,0,1,3.8.7,17.89,17.89,0,0,0,.8,8.9c1.7-.1,3.3-.3,5-.4v3l4-.3a205.77,205.77,0,0,1,3.6,22c-.7,0-1.3-.1-2-.1a9.11,9.11,0,0,1,.2,6.3,23.22,23.22,0,0,1,3.9,1.8c-.8-.4-1.7,1.1-1.9,2.1s-.3,2.1-1.2,2.3c.4,0,.7.1,1.1.1a6.2,6.2,0,0,0,.9,3.2,6,6,0,0,1,3.7-.8,9.33,9.33,0,0,1,.1,4.7,17.68,17.68,0,0,1-1.5,3.8c-.4.8-.8,1.7-1.2,2.5a10.07,10.07,0,0,1,3-.1,15.44,15.44,0,0,1-2.8,9.8,13.66,13.66,0,0,1-3.5,0c-.9,3.9-1.2,8-2,11.9-.5,2.5-1.2,4.9-1.8,7.3s-1.2,4.5-1.7,6.8"/><path class="cls-7" d="M866.23,621.69c1.1.3,2.3.5,3.4.8,1.3.3,2.7.8,3.1,2a3.79,3.79,0,0,1,0,1.5,1.16,1.16,0,0,1-.4,1,1.7,1.7,0,0,1-.7.1,25,25,0,0,1-8.6-1.4c-.2-.1-.5-.2-.6-.4a1.7,1.7,0,0,1-.1-.7v-3.2a5,5,0,0,1,.2-1.7,1.57,1.57,0,0,1,1.1-1c.6-.1,1.1.3,1.7.4.4.1.7.1.8.5S866.13,621.69,866.23,621.69Z"/><text class="cls-8" transform="translate(695.86 1155.31)"><tspan class="cls-9">Z</tspan><tspan x="18.62" y="0">ona media-alta</tspan></text><circle class="cls-6" cx="648.2" cy="1145.27" r="23.18"/><text class="cls-10" transform="translate(253.11 1155.31)"><tspan class="cls-9">Z</tspan><tspan x="18.62" y="0">ona media</tspan></text><circle class="cls-7" cx="205.45" cy="1145.27" r="23.18"/><text class="cls-11" transform="translate(1191.66 1155.31)">Z<tspan class="cls-12" x="18.62" y="0">ona alta</tspan></text><circle class="cls-4" cx="1145.07" cy="1145.27" r="23.18"/><text class="cls-2" transform="translate(653.53 1248.69)">Superficie:</text><text class="cls-2" transform="translate(801.37 1248.69)"><tspan xml:space="preserve"> 33.000 ha </tspan></text><text class="cls-2" transform="translate(653.53 1283.84)">Habitantes:</text><text class="cls-2" transform="translate(812.17 1283.84)"><tspan xml:space="preserve"> 863.696</tspan></text><text class="cls-2" transform="translate(653.53 1318.98)">Viviendas:</text><text class="cls-2" transform="translate(801.44 1318.98)"><tspan xml:space="preserve"> 293.625</tspan></text><text class="cls-2" transform="translate(176.76 1248.69)">Superficie:</text><text class="cls-2" transform="translate(324.6 1248.69)"><tspan xml:space="preserve"> 50.073 ha </tspan></text><text class="cls-2" transform="translate(176.76 1283.84)">Habitantes:</text><text class="cls-2" transform="translate(335.4 1283.84)"><tspan xml:space="preserve"> 1.513.663</tspan></text><text class="cls-2" transform="translate(176.76 1318.98)">Viviendas:</text><text class="cls-2" transform="translate(324.67 1318.98)"><tspan xml:space="preserve"> 541.952</tspan></text></svg>