<?xml version="1.0" encoding="utf-8"?>
<!-- Generator: Adobe Illustrator 22.0.1, SVG Export Plug-In . SVG Version: 6.00 Build 0)  -->
<svg version="1.1" id="Capa_1" xmlns="http://www.w3.org/2000/svg" xmlns:xlink="http://www.w3.org/1999/xlink" x="0px" y="0px"
	 viewBox="0 0 1000 1000" style="enable-background:new 0 0 1000 1000;" xml:space="preserve">
<style type="text/css">
	.st0{fill:#7B7C7C;stroke:#D0D2D7;stroke-width:0.65;stroke-linecap:round;stroke-linejoin:round;}
	.st1{fill:#E29471;}
	.st2{fill:#C83A02;}
	.st3{fill:#E2B971;}
	.st4{fill:#F4DDB5;}
</style>
<path class="st0" d="M381.8,120.9h-1.1v-1.6c-8.8-2.2-1.6,5.8,7,7.6c0,11,3.8,16.1,3.8,24.3c-0.1,0.4-0.2,0.8-0.5,1.1
	c-2.6,3.1-4.8,1.6-8.1,3.2c-4.3,2.2-12.7,20.5-13,23.2c1.9,0.3,1.9,0.3,3.8,0.5c3.1-6.1,6.6-6.3,12.4-9.2c-1.9-0.9-1.1-0.1-1.1-3.2
	c0.5-0.2,1.1-0.4,1.6-0.5v-1.1c6.9-0.9,10.9-1.9,11.9-9.7c2,0,25-5.7,20,4.3c8.6,4.3,4.7,14.4,1.1,21.6c8.4,0,13.5,1.3,13.5,9.7
	c20.4,0,11.8,6.8,8.6,19.4c13.3,2.2,3.2,3.6,3.2,10.8c3.7,0,7.2,3,10.8,3.8c0.9-1.7,2.7-4.2,2.7-5.9c14.8-1.1,10.6-19.7,30.2-16.7
	c11.2,1.7,0.4,24.5,2.7,29.2c1.5,3.1,16.5,7.2,20,8.1c0-6.4,17.6-10.4,23.2-9.2c3.8,0.8-9.2,8.2-9.2,13.5c4.7-0.1,9.4,0.2,14,1.1
	c0,9.2,2.9,7.2-9.7,8.6c4.6,2.3,9.5,3.5,14,6.5c-0.8-5,1.2-7.8,5.9-8.6c0-12.6,13.5-30.1-0.5-39.4c6.2-12.4,17.3-18.4,30.2-18.9
	c3.8-0.1,6.2-10.4,8.6-9.7c4,1.1,10.1,9.2,12.4,9.2c0-4.8,5.1-14,10.8-14c-1.3-2.6-2.5-4.9-3.8-7.6c6-6,22.2-9.1,10.3-21.1
	c1-1.9,0.5-0.7,1.1-3.8c6.6,0,13.8-9.8,20.5-7.6c0,17.8,10,3.8,13-2.2c-6.3-3.1-15.5-9.1-17.8-16.2c-1.5,0-0.8,0.2-2.2-0.5
	c2-3.9,2.9-20.8,14-9.7c2.8-1.4,16.3-8.1,8.1,2.2c1.3,0.7,4.3,2.9,4.3,4.3c1.5,0,0.8-0.2,2.2,0.5c1.9-1.9,9.5-13.6,10.3-14
	c4-2.4,23.4-1.4,26.5-1.6c24.6-1.4,43.2,24.3,68,24.3c12.5,0,28.8-9.1,42.1-11.3c2.6,5.2,9.5,7.9,11.3,13.5c4.7,0,5.6-6.7,9.7-8.1
	c5.9-2,16.2,7,20.5,10.3c6.5,4.9,52.9,32.4,52.9,36.2c0,14.6-19.7,23.2-30.2,24.8c-1.7,0.3-15.7,0.8-16.2,2.7
	c-0.8,3.3,0.7,7.3-1.1,10.3c-1.5,2.5-8.3,3.3-9.2,5.9c-3.7,10.9-19.2,26.1-24.3,10.8c-6.8,0-9.8-5.7-16.7-2.7
	c-3.2,1.4-0.5,6.9-1.1,10.3c-0.7,4.2-11.3,7.6-12.4,14.6c-1.3,8.5,9.3,22.3,10.8,31.9c0.6,3.8,47.4,16.3,51.3,22.1
	c5.5,8.3,1.4,27.8,0,37.8c4,0,2,5.5,2.7,8.1s10.7,8.3,13,10.3c6.5,5.4,17,1.6,22.7,6.5c8.3,7.1,6.1,29.8,4.9,38.3
	c-0.5,3.8,7,9.9,7.6,14c1.1,9.3,1.7,18.7,1.6,28.1c0,13.1-18.9,3.9-11.3,26.5h1.1c0,6.7,0.4,14.9-1.1,21.6
	c-0.3,1.6-9.5,5.3-10.3,10.8c-0.5,3.8,2.5,14.7,2.7,17.8c-12.6,0-15.9,6.7-23.8,7c-14.1,0.5-21.5-7-34.6-7c-3.8,0-5.1,5.7-8.6,5.9
	c-4.8,0.3-9.8-0.9-14.6,0c-5.7,1-10.6,12.4-16.7,14c-8.4,2.2-15.2-4.4-22.7-5.9v-1.1c-2.6,0-5.5-2.2-8.1-2.7
	c-1.2,10-26.1,9.3-34,10.3c-1.1,0.1-32.8,27-32.9,28.6c-0.8,7.3,0,14.8,0,22.1c19.4,0,21.4-3.2,22.1,18.9c-8.1,0.6-4.7,0.9-10.3,0
	c0.2-0.3,0.4-0.7,0.5-1.1c-9.2,0-19,0.2-28.1-1.6c-1.3,5.1-0.2,10.4,0,15.7c-4.3,0-9.1-1.4-13,0.5c2,8.1,13.7,13,15.7,26.5
	c-21.7,10.9,4.3,16.2,8.1,8.6c2.2,0.3,2.2,0.3,4.3,0.5c0.5,19.7,0.5,19.7,1.1,39.4c-3.8,0.6-2.2,0.9-4.9,0c0-2.1-1.9-1.8-3.8-2.2
	v-1.1H680v-1.1c-1.6,0-3.3-0.8-4.9-1.1c-2.2,8.7-2.2,17.8-4.3,26.5c-3.1,0-1.9,0.4-3.8-0.5c-0.8,8.4-1.6,17-1.1,25.4
	c0.4,6.5,9.2,8.7,9.2,22.7c4.6,1.5,9.5,6.7,14,7.6s6.1-9.1,8.6-9.2c19.6-0.7,42.7-2.2,61.6-2.2v5.4c2.9,0,1.1,0.1,5.4-0.5
	c-0.3-0.2-0.7-0.4-1.1-0.5c7.3-7.3,3.7-13.4,8.1-22.1c2.8-5.6,19.1-9.4,23.2-7.6c1.6,0.7,2.1,4.2,4.3,3.8c2.7-0.5,2.1-5.4,5.4-5.4
	c0,12,9.2-2.7,10.3-3.8c4.6,9.3,15.1-19.9,16.7-21.6c2.1-2.1,17.6,11.7,22.7,1.6c-1.1-1.1-1.6-2.2-2.7-3.2c1.1-2.2,3.2-3.6,4.3-5.9
	c-0.3-0.2-0.7-0.4-1.1-0.5c11-3.7,3.7,14.4,16.7,13.5c8.3-0.6,7,2.3,17.3,5.4c6,1.8,22.2-7.7,18.9,7c-0.3,1.3-12.6-2.2-13.5-2.2
	c-9.3,0-18,4.2-27.5,4.9v-1.1c-13,0-18.8,8.7-31.3,10.3c0.9-0.2,1.8-0.4,2.7-0.5c-2.8-0.6-4.2-2.5-6.5-3.2
	c-11.8-3.5,3.8,13.6-0.5,19.4c-3.8,5.1-20.7,6.5-28.1,6.5V759c-3.2,0-4.6-1.7-5.4-4.9c-6.7,20.1-13.8,4-21.1,11.3
	c-6.8,6.8-15.9,11.1-22.7,17.8c-3,3-0.9,10.8-2.7,13c-3.6,4.2-8.3-0.4-11.9,2.7s-3.3,6.7-5.9,10.3c-3.8,5.2-9.5,4.4-15.1,1.6
	c0.2-0.7,0.4-1.5,0.5-2.2c0.2,0.3,0.4,0.7,0.5,1.1V807h-1.6v-3.2c-7.8,0-4,13.1-2.7,18.4c-12.2,0-19,3.3-30.2,4.9
	c-0.7,6.4-2.2,14.4,4.9,16.7v2.2c-5.1,0-15.5,0.1-20,2.7c-0.5,0.3-6.7,8.7-7.6,5.9c-0.6-2.1-0.4-4.3-0.5-6.5
	c-4.2,2.1-15.4,1.4-18.9,1.6v-5.9c-1.7,0.6-13.9,5.1-14,6.5c-1.5,19.9,0.8,24.7-17.8,27c0-4.5,0.3-7.5,0-12.4
	c-3.4,1.7-7.2,2.8-10.3,4.9c2.1,2.2,3.8,4.8,4.9,7.6c-13.7,6.8-37.7,9.1-49.7,16.7c-7.5,4.8-10.4,11.4-18.9,13.5
	c-7.4,1.8-12.9-1.9-20-0.5c-9.1,1.7-27,6.4-13.5-8.1c1.6-1.7,1-3,2.7-3.8c-0.6-1.7-1.6-1.7-1.6-3.2c-9.3,0-10.3-2.4-17.8-4.9
	c0-2.1-1.6-4.4-2.2-6.5h-1.1c1.3-8.1,7.6-12,10.8-18.4c1.8-3.6,1-17.6,1.1-19.4c-5.2,0-10.4,0.3-15.7,0.5v-1.1h-17.3
	c0.1-4.5,0.5-9,1.1-13.5c-6.4-1.1-1.4-21-1.1-27H460c0.8-1.6,0.1-1.1,2.2-1.1c-8.1-0.7-16.2-1.2-24.3-2.2v-1.1
	c-8.3-0.7-16.5-1.2-24.8-1.6c-2.9,11.4-13.7,32.7-11.3,44.3c1,4.7,7.7,12.8,9.7,16.7c-2.7,0.9-5.4,1.6-8.1,2.7
	c6.4,12.8,23.5,35.7,16.2,50.2c-2.5-0.4-5-0.7-7.6-1.1c0.6-4.2,0.3-8.4-1.1-12.4c-7.4,0-7.6,1.8-7.6-4.9c-12.7,0-25.7,1.3-38.3,2.7
	c0.9-0.2,1.8-0.4,2.7-0.5c-2.2-0.3-2.2-0.3-4.3-0.5v-1.1h-1.1c0.2-0.5,0.4-1.1,0.5-1.6h-1.1c0.2-0.7,0.4-1.5,0.5-2.2h-1.1v-1.1H360
	c-5.4,16.2,12,9.5,14,17.8c30.2,0-24.9,11.2-28.1,11.3c0.5-0.2,1.1-0.4,1.6-0.5c-1.9-0.3-1.9-0.3-3.8-0.5c0-6-18.9-6.8-18.9-14.6
	c0-4.1,5.5-9.1,5.9-13.5c1-11.1-5.1-22.2-3.8-32.9h-1.1c1-4.8-2.4-5.5-6.5-6.5c0-2.1-1-3.9-1.6-5.9h-1.1c0.8-2.4-0.3-4.7-1.1-7h-1.1
	v-1.1h-1.1c1.7-1.7,1.2-0.6,0.5-3.8h-1.6v-1.6c0.2,0.3,0.4,0.7,0.5,1.1c0.8-3.1,1.9-4.8,3.2-7.6h-1.1c0.5-0.2,1.1-0.4,1.6-0.5
	c-6-3.6-12.5,0.5-20.5-2.2c0-11.2,17.7-34.5,1.1-36.2c3.9-7.9-4.5-12.8-7.6-17.3c-2.2-3.4,3.2-8.3,3.2-11.9s-8.1-4.8-8.1-9.2
	c0-6.8,6.5-11.5,6.5-16.2h-1.6c0-2.2,0.1-4.4,0.5-6.5h-1.1c16.1-8,13.5-36.1,13.5-51.3c0-5.3,11-17.5,14.6-21.1c2.3,1.5,7.7,7,9.7,7
	c0-3.8,7.5-33.5,10.3-33.5c0-5.9,5.2-9.3-2.2-10.8v-1.1c-9,0-16.2-8.3-24.8-9.7c0.3-0.2,0.7-0.4,1.1-0.5c-2.7-1.3-8.1-1.6-8.1-4.9
	c-9.5,0-20.9,24.1-26.5,31.9c-14.2,19.9-27.9,40.1-42.1,59.9c-3.2,4.5-9.1,17.9-14,20c-6.6,2.8-19.7-1.9-26.5-3.2v-1.1
	c-9.9,0-10.9,1.5-18.4,6.5c-1.3-2.6-5.5-3.5-7-6.5c-3.7,2.3-13.8,14.6-17.8,6.5c-19.3,17.1-6.5,5.9-2.7,17.3c-2,1-4,3.4-5.9,4.9
	c2,1,3.2,2.5,5.4,3.2c0,2.6-10.3,25.2-11.9,25.4c-2.4,0.2-26.6-4.9-24.3-13c1.6-5.5,9.9-7.2,13.5-10.8c-3.2-6.5-1.2-6.3,1.6-11.9
	c-0.7-0.4-1.4-0.7-2.2-1.1c0.2-0.3,0.4-0.7,0.5-1.1c-4.5-2.2-6.1-9-13.5-6.5c-1.6,0.5-20.5,26.6-20.5,17.3H89
	c0.2-0.3,0.4-0.7,0.5-1.1h-1.6c8.7-9.5,19.2-17.4,28.1-27.5c0.8-0.9-0.8-1.8-1.1-2.2c-9.2-11.5-23.5-28.5,0-31.9
	c0,3.4,5.7,10.4,8.6,11.9c0.9-1.7,0.1-1.1,2.7-1.1v-1.1c6.3-1.1,7,2.7,11.9,5.9c-0.3,0.2-0.7,0.4-1.1,0.5c5.1,0,13.3-11.6,17.8-15.1
	c-2.7-2.7-6.5-8.7-9.7-10.3c3-8.8,16.6-9.9,18.9-18.9c-4.9-2.4-17.4-9.5-20-14.6c-1.9-3.7,3.9-11.7,4.9-15.7
	c3-12.2,2.7-15.1,2.7-32.9c0-12.6-8.5-34.9,3.2-43.7c14.3-10.8,44.4-3.3,56.2-15.1c-2.6-5.2-20.8-5.1-25.9-10.3
	c2.3-2.3,64.2-30.8,49.1-34.6c0.2-0.3,0.4-0.7,0.5-1.1h-1.6c0-1.5,0-2.2-1.6-2.2c0.2-0.3,0.4-0.7,0.5-1.1c-1.5-1.5-0.9-0.6-1.6-2.7
	h-1.1c0-4-3.7-6.7-4.9-10.3h-1.6v-4.9c0.3,2.2,0.3,2.2,0.5,4.3v-8.1c-0.7-0.2-1.5-0.4-2.2-0.5c0-16.7-1.7-16.1-18.9-16.7
	c-1.9,7.8-5.7,15.7-15.7,15.7c0-2.7-2.6-3.8-4.9-4.3v-1.1c-2.2,0-4.9-0.8-7-1.1v-1.1c-5,0-10.1-0.7-15.1-1.1c-0.7,2.3-1.2,4.6-1.6,7
	c-1.4,0.1-10.3,2.1-10.3-1.6c-1.5,0-2.8-0.7-4.3-1.1v-1.1h-3.8v-1.1c-5.8,0-3.3-0.3-7.6,0.5c0-2.9-2.6-3.8-3.2-6.5
	c-12.7,0-13.5,1.1-8.6,10.8c-20.7,20.7-17.3-5.4-23.8-5.4c1-2-1.5-6.5-3.8-6.5c0.7-1.4,0.1-1.1,1.6-1.1c0-5.1,14.7-20,7.6-20
	c0-14,4.2-11.9,4.9-20c0.2-3-2.6-8.2-2.2-10.8c0.8-4.6,8.1-4.3,8.1-9.7h-1.1c0-9.6,7.9-8.2,15.7-10.8v-1.1
	c6.5-0.6,10.3-0.6,10.3-7.6c2.6-0.6,6.8,3,8.6,2.2c8.5-3.7,3.8-15.6,3.2-21.6c2.4-0.5,2.4-0.5,4.9-1.1c-0.3-1.9-0.3-1.9-0.5-3.8
	c0.3,1.6,0.3,1.6,0.5,3.2c0.6-24.8-1.4-48.8-3.8-73.4c-0.6-6.3-3.2-22,2.7-26.5c6.8-5.1,16.9-1.4,25.4-1.6v-2.2h-1.1v-23.2
	c0.3,4.3,0.3,4.3,0.5,8.6c0.2-3.2,0-6.5,0.5-9.7c0.1-0.8,1.3-0.9,1.6-1.6c14.1,7.1,20.5,27,34.6,27c0-7.7,8.1-10.3,13-15.1
	c3.1-3.1,0.5-12.5,0.5-17.8c20-1.3,5.8-22.1,30.8-22.1v-1.1c-3,0-2.7-2.2-4.9-3.2c6.6-13.2,19.6,10.9,25.9,13
	c0-12.9-4.5-13.3,10.3-14v6.5c10.8,0,5.4-0.2,16.2,0.5c0-3.1-0.5-4.3,2.7-4.3c0-3-8.7-14.6-11.9-15.7l1.1-1.1
	c-4.3-1.4-4.3-8-9.2-9.2c0-4.8-7.9-10.1-9.7-15.7h-1.1c-0.5-1.4-1-2.5-1.6-3.8c3.3-0.6,6.1-3.2,9.2-2.2c0.2-0.3,0.4-0.7,0.5-1.1
	c9.1,3,23.5-8.1,31.9-8.1c0-3,1.3-15.2,4.3-16.7c4.3-2.2,9.7-0.9,14.6-0.5c1.4,0.1,4.2,5.3,5.9,5.9c6.4,2.4,11.5-0.5,17.8-0.5
	c3.3,0,4,6.2,6.5,7C377.8,113.8,380.8,110.7,381.8,120.9z"/>
<path class="st1" d="M688.6,106.9c0.9-1.8,1.5-3.2,3.8-3.2c0,2.3-3.5,7.7-0.5,9.7c8.8,5.9,31.3,9.6,40.5,8.1
	c0-11.1,15.1-23.3,18.9-8.1c8.2,0.6,16.8,0.2,19.4,8.1c4.3,0,5.8,6.9,6.5,10.3c2-1,5.2-1,7.6-1.6c0,3.3,1.3,5.8-0.5,8.6
	c2.1,1.4,2.4,2.4,1.6,4.9c3.4,0,1.8-0.2,4.9,0.5c0.7-2.6,0-1.6,1.6-3.2c8.1,4.1,21.6,4.8,16.7,14.6c3.3,3.3,3.2,4.2,8.6,5.4
	c-3.1-6.1,31.3-3.7,13,14.6c3.6,3.6,0.6,7.5,0,11.9c4.8,0,9.7-5.6,9.7-10.8c4.7-0.7,5.7-1,6.5,3.8c12.6,0-4.9,17.4-4.9,17.8
	c9.2,0,36.5,5.3,28.6,21.1c6.6,0.5,10.6,1.2,17.3,1.6c-0.1,2,0,4,0.5,5.9c5.5-0.8,6.7-0.5,11.3,1.1c0,2.9-2.4,2.4-4.9,2.2
	c-12.6-1-37.8,10.8-41-5.4c-2.3,0-2.7-1.5-2.7-3.8c-4.4-1.1-6.7-0.5-7.6-5.4h-1.1c0-1.8-1.1-1.6-2.7-2.2v-1.1
	c-4.2,2.1-3.4,2.7-8.6,2.7c-3.6,18-2.6,8.9-27.5,10.3c-1.7,0.1-3.2,1.6-4.9,1.6v-3.2c-3.2,0-8.7,4.7-4.9,7.6
	c2.8,2.1,11.3,1.3,12.4,4.9c2.5,8.2-6.7,5.6-5.4,11.9c-2.3,0.5-4.6,0.9-7,1.1c-0.3,3.5-0.3,3.5-0.5,7c3.3,0,9.6,0.9,7,5.9h1.1
	c0,4.5-0.4,4.7-3.8,8.1c2.1,1.1,2.1,3.4,1.1,5.4c2.9,0,4.3-0.8,4.3,2.2c-1.9,0.5-1.9,0.5-3.8,1.1c0.2,0.7,0.4,1.5,0.5,2.2
	c-5.8,0.7-8.8,3.8-13.5,3.8c-5.7,0-11.5-3.8-3.2-5.4c0-7.5-16.7,6.7-16.7,9.7c5.9,0,4.3,4.3,4.3,8.6c4.5,1.5,9.3,0.9,14,1.1
	c0,5.2-10.7-0.1-14.6,3.8c4.1,2,9.8,3.8,5.4,9.7c18.7,9.3-0.8,15.7-2.2,29.7c-4.6,0.7-10,6.9-13.5,1.6c1.8-0.9,2.5-2.1,4.3-2.7v-2.2
	c-2.6,0-2.9-1-5.4-1.6v-1.1c-3.1-0.6-2.3,0.3-3.2-1.6c0.6-0.3,1.1-0.7,1.6-1.1c-2-2-0.3-3.8,2.2-3.8c-6.3-0.6-3.6-0.9-8.1,0
	c-1.2,10.9-16.8,8.2-20.5,19.4c-3.8,0-3.2-1.3-6.5-2.2c-1.1,3.4,8.2,19.9,8.6,25.9c2.6,0,7,4.4,8.1,6.5c-3.3,0-2-0.5-4.3,1.1
	c20.1,10,24.6-5.3,30.8,19.4c-0.9,0.3-1.6,0.9-2.2,1.6c1,1.4,9.7,4.5,12.4,5.4c0,1.6-0.1,0.7,0.5,2.7c-22.5-4.5-3.2,13.5-17.3,13.5
	c-2.2,13.5-7.2,10.2-5.9,7.6c-0.9,0.2-1.8,0.4-2.7,0.5c4.7,2.4,4,8.5,0.5,11.9h3.8c2.1,12.7,1.4,13.7-7.6,22.7
	c7,0,7.5,14.8,21.1,16.2c0,6.2-7.8,7-12.4,7c-1.4,5.5-7,10.5-7,16.2c7.9,1,8.7,9.5,1.6,11.9c5.7,2.9,6.7,2.3,7.6,9.2
	c-1.9,0.3-1.9,0.3-3.8,0.5c-0.6,6.8,5.4,14.5,5.4,14.6c-0.6,3-21.8,3.1-23.8,3.8s0,20.1,0,21.6c0,12.3-8.6,5.6-8.6,11.9
	c7.2,2.4,3.8,13-3.8,9.2c-1.5,1.5-3.5,3.9-5.4,4.9c4.4,0,17.3-1.4,17.8,4.3c2.1,23.2-19.3,5.8-22.1,12.4c-2.4,5.7-7.2,11.4-9.2,17.3
	c0,0,7.8,4.3,2.7,5.4c-3.5,0.8-7.8-2.1-11.3-3.2v-1.6c-2.5,1.3-4.9,1.1-7,3.2c0.2,0.3,0.4,0.7,0.5,1.1c-7.5,7.5-2.2,16.2-10.8,24.8
	c4.3,8.7,21.6,8.1,29.2,8.1c1.6,4.7,3.5,6.7,4.3,11.9c12.6,1.8-8.4,19,0,22.7c14.8,6.6,20.6,16.8,38.9,18.4c0-4.3-0.4-2.6,0.5-5.4
	c3.8,0,8.4,3.8,10.3,7.6c-0.7,0.4-1.3,1.1-2.2,1.1c-6.5,0-13-0.7-19.4-0.5c-2.6,0.1,0.2,5.7-1.6,7.6c6.6,0.4,23.5-1,18.9,8.1
	c13,0,6.8,11.2-1.1,15.1c3.3,9.8,5.1,0.5,11.3,0.5c0.2,1.7-0.2,3.4-1.1,4.9c0.3,0.2,0.7,0.4,1.1,0.5c2.1-1.9,4.8-3,7.6-3.2
	c0,2-0.2,2.4-1.6,3.8c6.5,1.9,14.6,5.9,14.6,13c1.9,0.3,1.9,0.3,3.8,0.5c2.8-5.5,9.7-9.1,13-16.7c0.3-0.5,0.6-0.8,1.1-1.1
	c1.9-1.4,6.8,1.8,9.2,1.6c8.4-0.8,13.9-8.9,27.5-9.7c-0.3-0.2-0.7-0.4-1.1-0.5c0.8-0.3,24.9-6.5,25.4-6.5c-2.5-5,5.9-12.4,11.3-12.4
	c-0.4-1.5-0.9-2.9-1.6-4.3c6.8-0.6,13-2.5,20-3.2v-1.1h-1.1c1.8-3.6,10.6-3,13.5-3.2c0,2.2,0.5,3.2,1.1,5.4
	c-2.5,1.7-0.8,2.9-2.7,4.9c0.8,1.6,1.9,2.7,2.7,4.3c-2.8,2.8-6.8,1.2-10.3,2.7c-8.7,3.9-2.8,9.5-18.4,7.6v-1.1
	c-2.5,0-1.1,0.1-4.3-0.5v-1.1c-15,0,1.2,9.1-1.6,18.9c-0.2,0.7-1,3.7-2.2,3.8c-4.8,0.4-40,5.1-40-4.3c-7.5,0-1.2,9.7-4.9,11.9
	c-5.8,3.5-13.1,0-18.9,0c-4.7,0-3.2,8.6-7.6,9.7c-6.6,1.6-21.2,0.8-25.4,6.5c-1.5,2.1,3.2,13.5,0,14c-10.7,1.9-13.7-1.9-23.8,4.9
	c7.4,0,12,10.8,4.3,11.9c-8.1,1.2-11.3-0.5-19.4-0.5c-2.2,15.1-47.2,17-48.6,24.3c-0.8,4,2.6,10.6,3.2,14.6
	c-20.2,6.8-9.4-8.1-15.1-8.1v-3.2c-3,1-6,1.5-8.6,3.2c0.9,3.6-5.8,5.9-9.2,5.9c0.2-0.3,0.4-0.7,0.5-1.1h-1.1v-1.1
	c-2.7,0-4.7,1.1-7.6,1.1c3.9-5.8,15.5-3.7,18.4-8.1c2.3-3.4-2.8-7.2-1.6-10.8h-1.1c0-13.7-27.5,12.1-31.9-1.1
	c-4.3-12.9,9.7-4.4,10.8-10.3c1.9-9.9-1.4-13,8.1-16.2c-4.6-13.9,20-0.9,22.7,4.3c5-2.5,2-5.8,11.9-10.3c2.5-1.1,0.5-5.4,0.5-8.1
	c-2.2,0-5-5.7-7.6-4.9c-1.2,0.4-9.2,9.3-9.2,1.6c-1.6,0-0.7,0.1-2.7-0.5V783c-2.2,0-3.6,2.8-4.9,4.3c-1.9-1-3.9-1.9-5.9-2.7v-1.1
	c-4.3,0-7.9-8.1-12.4-9.2c0-2.7,2.2-2.7,2.2-4.9h2.7c0-3.4,0.2-5.2,1.6-8.1c-5.2,4.4-6,9.2-13,9.2c0-1.8,0.8-3.2,2.7-3.2v-1.1
	c-1.9,1-0.7,0.6-3.8,0c-0.1-1.7,1.1-3.1,2.8-3.2c0.1,0,0.3,0,0.4,0v-1.1c-2.4,0-6.3,1.4-7.6-1.1c3.4-0.9,3.7-2.3,2.2-5.4
	c2.9-1.4,0.7-0.5,7-1.1v-2.2c-3.5-0.6-4,0-4.9-3.2c0.7-0.2,1.5-0.4,2.2-0.5v-1.6c-2-0.5-3.3-0.8-4.3-2.7c1.3-1.3,0.6-1.1,2.2-1.1
	c0-2.8,1.3-7.3-0.5-9.2c2.3-3.8,1.9-7.7,2.7-11.9c0.6-3.5,10.4-3.1,5.9-7.6c3.9-7.8-6.6-21.1,5.9-21.1v-2.7
	c-3.9-0.7-2.6,0.4-4.3-2.2c1.3-1.3,0.6-1.1,2.2-1.1c-1.3-3.9-3.7-1.5-2.7-6.5h-1.1c1.6-3.2,0.6-0.7,0-8.1c2.2-0.3,2.2-0.3,4.3-0.5
	c-1-3.9-0.6-1.4,0-7.6c-5.4-1.8,2.2-23.8,1.1-30.2H653c0.2-0.3,0.4-0.7,0.5-1.1c-2.2-1.1,0.1-3.8-2.7-3.8c0.2-0.5,0.4-1.1,0.5-1.6
	c-0.3-0.2-0.7-0.4-1.1-0.5c0.7-2.9-0.2-2,2.7-2.7c0-2.7,0-0.7-0.5-5.9h-1.1c0-2-0.2-1.1,0.5-2.7h-1.1c0.2-0.7,0.4-1.5,0.5-2.2
	c0.2,0.3,0.4,0.7,0.5,1.1c0-7.6,1.7-4.3,8.1-6.5c-3.4-10.1,7.3-28.3,3.8-38.9c1.7-0.9,0.7-0.4,3.2-1.1v-1.1c2.5-0.6,1.8,0.1,2.7-1.6
	c-0.5-0.2-1.1-0.4-1.6-0.5c0.8-2.5,1.2-2.3,3.8-1.6c-0.9-0.5-1.8-0.8-2.7-1.1c0-3.5,3.7-3.4,6.5-2.7v-1.1h-1.1c1.2-3.5,0.6-1,0-7.6
	h-1.1c0-3.8-0.8-2.5,1.1-4.3c-0.2-0.3-0.4-0.7-0.5-1.1c1.3-1.3,2.2-9.6,1.6-11.9c4.9-2.5,4.3-11.1,5.4-15.7
	c1.7-6.7,8.9-11.5,11.3-18.9c-9.2-3.1-6.2-7.5-2.7-14.6c-2.6-1.3-8.7-7.5-2.2-10.8c-2-4-3.3-8.2-5.4-12.4c3.6-3.6,1.2-8,2.2-13
	c-1.9-0.3-1.9-0.3-3.8-0.5c0-2.6,0.5-4.9,0.5-7.6c-9.6-0.6-6.4,0.8-10.3-1.1c1.7-2.6,2.6-10,1.6-13c2.5-1.2,1.5-3.8,5.4-3.8v-4.3
	h-3.2c0-1.8,0.8-3.8,0-5.4c3.2-1.6,1.1-0.1,1.1-7.6h-1.1c1.1-2.2,0-3.8,3.2-3.8c-2.3-4.5-2.1-6.5-1.6-13c-3.4,0-2-3.4-3.2-5.9
	c1.4-0.7,1.1-0.1,1.1-1.6c-4.7,0-10,0.8-14.6,1.1c-0.9-4.7-4.4-8.4-5.9-13h-1.1c0.2-0.3,0.4-0.7,0.5-1.1c-1.7-1.7-1-0.6-1.6-3.8H650
	c0-2.9-0.6-3.8,2.7-5.4c-0.8-1.6-0.1-1.1-2.2-1.1c0.2-0.3,0.4-0.7,0.5-1.1c-1.5,0.8-1.1,1.6-1.6,3.2c-3-0.3-3-0.3-5.9-0.5
	c-0.6-3.6-1-2.3,0-4.3h-1.1c0.2-0.7,0.4-1.5,0.5-2.2h-1.6c0.3-0.2,0.7-0.4,1.1-0.5c-4.2-1.4-4.3-7.6-4.3-11.3H637v-1.1h-2.2
	c0.9-1.9,1.5-3.5,2.2-5.4h-4.9v-1.1c2.4-0.3,2.4-0.3,4.9-0.5c0-4-7.6-8.2-9.2-13h-1.1c1-2.1,0.1-1,3.8-1.6c-0.9-0.2-1.8-0.4-2.7-0.5
	c0.2-0.3,0.4-0.7,0.5-1.1c-2-0.7-1.4,0-2.2-1.6c3.1-1.6,2.7-3.6,6.5-4.3v-2.2h-2.7c0-3.1-0.4-1.9,0.5-3.8c-2.5-0.6-1.8,0.1-2.7-1.6
	l1.1-1.1c-1.5-3.1-4.6-3.1-6.5-5.9c0.7-0.2,1.5-0.4,2.2-0.5v-1.1h-1.1c0-7.1-10.3-11.7-7-18.4c-1.9-1-1-0.1-1.6-3.2
	c3.8-1.9,3.2-0.9,3.2-6.5c-2.2,0-0.7-0.1-4.3,0.5v-1.1c-1.6,1.6-2,1.6-4.3,1.6c0-7.1,9.1-19.1,7-25.4c-8.2,0,3.1-8.1,7-8.1v-1.1
	h-1.6c0-5.8,18.2-4.8,19.4-4.9v-1.6h-1.1c-1-3-4.5-3.7-5.4-5.4c-0.5-1.1,15.4-9.2,17.3-9.2c0.2-0.7,0.4-1.5,0.5-2.2
	c-4.2,2.1-10.5,3.2-15.1,3.8c5.4-8.1,14.3-7.6,21.1-7.6c-0.2-0.3-0.4-0.7-0.5-1.1c3.5,0,1.4,3.8,4.9,3.8v-3.2
	c-3.1,0-2.3-19.8-1.6-24.8c-0.5,0-26.2,4-22.7-6.5h-1.1c0-17.5-16.3,5.1-20-2.2c-1.4-2.8,3.2-3.9,3.2-5.9c-2,0-4.9,0.9-4.9-1.6
	c-4.4,0-4.3-4.3-4.3-7.6c-2.1,0,1.3-12.3,2.7-13c-0.6-2.6-0.9-1.5,0-3.2h-1.6c0-1.5-0.7-2.8-1.1-4.3h-4.9v-1.1h-1.1
	c0.2-0.3,0.4-0.7,0.5-1.1h-1.1v-4.3h-1.1c1.2-2.4,2.7-5.5,2.7-8.6h-1.1v-1.1c-2.3,1.7-21.6,15.6-23.2,12.4c-1.8-3.7,1.3-3.4,0-5.9
	l1.1-1.1c-0.2-0.3-0.4-0.7-0.5-1.1c1.7-0.9,1.1-0.1,1.1-2.7h-1.1c0-8-0.7-25.4,11.9-25.4v-2.7c-0.7-0.2-1.5-0.4-2.2-0.5
	c0-14.7,21.3-1.5,29.2,1.1c4.2-16.7,28.1,3.3,28.1-5.4c8.7-1,29.1-11.4,34,3.2C686.5,97,682.5,103.9,688.6,106.9z"/>
<g id="Layer_4">
	<path class="st2" d="M726.8,367.1c-0.3-1.9-0.8-3.8-1.4-5.6c-1.3-3.1-3.2-5.9-5.5-8.3c-2.5-2.7-6.1-4.4-8.6-7.2
		c-1.8-2-1.2-4.5-1.4-6.9c-0.2-1.5-0.8-3-1.6-4.3c-0.2-0.4-1.5-2.8-2.3-2.3c-0.3,0.1-0.3,1.7-0.4,1.9c-0.1,1-0.2,6.3-0.9,6.6
		s-2.3-1.6-2.7-2c-0.9-1.1-1.9-2.1-3-3c-2-1.3-4.4-2.3-6.1-3.9s-1.3-4.9-1.1-6.9c0.4-4.6,1-9.2,0-13.8c-0.3-1.8-1-3.5-2.1-5
		c-0.4-0.4-0.6-1.4-1.2-1.2c-0.4,0.1-0.3,3.5-0.4,4c-0.2,2.4-1.1,4.9-1.1,7.4c0,1.5,0.1,3,0.1,4.5c0,0.6,0.2,2.6-1,1.5
		c-0.5-0.8-0.9-1.7-1.1-2.6c-0.9-2.5-1.6-5.1-2.1-7.7c-0.7-3.4-2.6-6.7-2.8-10.2c-0.2-4.3,1-8.5,0.4-12.8c-1-7.7-5.9-14.2-10-20.6
		c-1-1.6-1.9-3.2-2.5-5c-0.7-2.1-0.8-4.4-2-6.4c-0.2-0.4-1.7-3-2.1-2.8c-0.1,0.6-0.2,1.1-0.2,1.7c-0.4,2-0.6,4.1-0.7,6.1
		c0.1,5.3,4.1,8.4,6.5,12.7c1.5,2.7,2,5.8,3.1,8.7c0.2,0.9,0.5,1.9,0.8,2.8c0.6,1.2,1.3,1.7,1.4,3.1c0.3,3.8-1,7.5-0.4,11.3
		c0.5,2.8,1.1,5.5,2,8.2c1.9,7.4,4.5,14.4,8.8,20.8c2.1,3.1,5.1,5.3,7.7,7.9c0.9,0.9,1.3,2.2,2.2,3.1c0.7,0.7,1.4,1.3,2.2,1.8
		c3.3,2.3,8.7,2.5,11.4,5.5c1,1.1,1.7,2.4,2.8,3.4s2.4,1.9,3.6,2.9c2.1,1.8,4.1,3.8,5.9,5.9c0.6,0.8,1,1.6,1.6,2.4
		c0.9,1.3,2.1,2.3,2.7,3.7c0,0,0.6,1.6,0.8,1.5C726.5,367.9,726.8,367.5,726.8,367.1z"/>
	<path class="st2" d="M664.6,254.2c-0.1-0.1-0.4-0.2-0.5,0c-0.2,0.6-0.2,1.1-0.2,1.7c-0.1,0.7-0.2,1.4-0.3,2
		c-0.3,1.8-0.4,3.6-0.3,5.4c0.7,4.8,4.7,8,6.8,12.1c0.7,1.6,1.4,3.4,1.8,5.1c0.3,1.1,0.8,2.3,1.1,3.4c0.2,0.6,0.3,1.3,0.5,1.9
		c0.3,0.9,1,1.6,1.3,2.4c0.2,0.8,0.3,1.7,0.3,2.5c0,1.4-0.2,2.8-0.4,4.2c-0.2,1.3-0.2,2.5-0.2,3.8c0.1,1.3,0.2,2.7,0.5,4
		c0.4,2,1,4.1,1.5,6.1c1,4,2.3,7.8,3.9,11.6c1.4,3.5,3.2,6.8,5.4,9.9c2,2.7,4.8,4.8,7.2,7.1c0.6,0.8,1.2,1.7,1.7,2.6
		c0.9,1,1.9,1.8,3.1,2.5c0.4,0.2,0.8,0.4,1.2,0.5c-1.3-0.6-2.4-1.4-3.5-2.3c-1.1-1-1.5-2.4-2.5-3.4c-2.4-2.4-5.1-4.4-7.1-7.1
		c-1.5-2-2.8-4.2-3.8-6.5c-2.1-4.5-3.9-9.3-5.2-14.1c-0.9-2.8-1.6-5.6-2.1-8.4c-0.3-2.1-0.3-4.3,0-6.4c0.3-1.9,0.4-3.8,0.3-5.7
		c0-0.4-0.1-0.8-0.3-1.2c-0.3-0.7-0.8-1.3-1.1-2c-0.4-0.9-0.5-1.9-0.8-2.8c-0.4-1.2-0.8-2.4-1.1-3.7c-0.4-1.8-1.1-3.5-1.9-5.1
		c-1.9-3.2-4.8-6-6-9.6c-0.8-2.3-0.5-4.7-0.1-7.1c0.1-0.8,0.3-1.7,0.4-2.5c0-0.3,0-0.5,0.1-0.8c0-0.1,0-0.2,0.1-0.3h0.1
		c0,0,0.1,0.1,0.1,0c0.1,0.1,0.2,0.3,0.3,0.4c0.2,0.2,0.3,0.4,0.4,0.6c0.6,0.8,1.1,1.7,1.5,2.6c0.6,1.6,1,3.2,1.3,4.8
		c0.4,1.4,1,2.7,1.7,4c0.9,1.6,2,3.2,3,4.8c2.6,4,5.2,8.1,6.8,12.7c0.7,2.2,1.2,4.5,1.2,6.8c0.1,3.6-0.7,7.1-0.5,10.6
		c0.1,1.5,0.4,3,0.9,4.4c0.5,1.7,1.2,3.3,1.7,5.1c0.7,2.7,1.1,5.4,2,8c0.2,0.3,0.3,0.7,0.4,1c0.3,0.8,0.6,2.5,1.6,2.8
		c0.4,0.1,0.6-0.2,0.7-0.6c0.1-0.7,0.1-1.5,0-2.2V319c0-1.4-0.1-2.8,0-4.2c0.2-2.1,0.8-4,1-6.1v-2.2c0-0.4,0-0.8,0.1-1.2v-0.4h0.1
		c0.2,0,0.3,0.3,0.3,0.4c0.2,0.3,0.4,0.7,0.7,1c1.1,1.7,1.8,3.7,2,5.7c0.7,4.2,0.1,8.4-0.3,12.6c-0.2,2-0.5,4.9,0.8,6.7
		c0.7,0.8,1.4,1.4,2.3,2c1.2,0.8,2.5,1.4,3.7,2.1c1.3,0.9,2.4,2.1,3.4,3.3c0.6,0.6,1.2,1.2,1.9,1.7c0.3,0.2,0.6,0.4,1,0.4
		c0.7-0.1,0.8-1.4,0.8-1.9c0.2-1.6,0.2-3.2,0.3-4.9c0-0.5,0.1-1,0.2-1.5c0-0.2,0-0.4,0.3-0.3c0.3,0.2,0.6,0.5,0.8,0.8
		c0.5,0.7,0.9,1.4,1.3,2.1c0.6,1.1,1,2.3,1.2,3.5c0.2,2-0.2,4.1,0.8,5.9c0.7,1.2,1.7,2.2,2.8,3c2.2,1.8,4.6,3.2,6.5,5.3
		c2.3,2.4,4.1,5.2,5.4,8.2c0.2,0.6,0.4,1.2,0.6,1.8c0.3,1.2,0.6,2.5,0.8,3.7c0,0.1,0.1,0.1,0.2,0.1l0.1-0.1v0.3h0.1
		c0.2,0,0.3-0.2,0.2-0.3c-1.1-4.7-0.6-3.2-1.1-4.7c-1.5-4.3-4.1-8.1-7.6-11c-1.8-1.5-3.8-2.7-5.5-4.3c-1-0.8-1.8-1.8-2.3-3
		c-0.5-1.7-0.2-3.6-0.4-5.4c-0.3-1.5-0.8-2.9-1.7-4.2c-0.4-0.7-0.8-1.4-1.4-1.9c-0.2-0.2-0.6-0.4-0.9-0.4c-0.8,0-0.8,1.4-0.8,2
		c0,1.7-0.2,3.4-0.4,5.1c0,0.2-0.1,0.4-0.1,0.6s-0.1,0.8-0.3,0.9s-0.6-0.3-0.6-0.3s-0.2-0.1-0.2-0.2c-0.7-0.6-1.4-1.3-2-2
		c-0.7-0.9-1.6-1.8-2.5-2.5c-1.3-0.9-2.8-1.6-4.2-2.5c-0.7-0.4-1.3-0.9-1.9-1.4c-0.6-0.7-1-1.6-1-2.5c-0.1-1.8-0.1-3.6,0.2-5.4
		c0.4-4.5,0.8-9.1-0.3-13.6c-0.3-1.2-0.7-2.4-1.4-3.5l-0.6-0.9c-0.3-0.4-0.4-1-0.9-1.2c-0.9-0.3-0.8,1.6-0.9,2.1v1.7
		c-0.1,1.8-0.4,3.6-0.9,5.3c-0.2,1.3-0.2,2.7-0.2,4v3.1c0,0.5,0.3,2.2-0.6,1.3c-0.5-0.8-0.9-1.7-1.1-2.6c-0.8-2.3-1.4-4.7-1.9-7.1
		c-0.2-1.1-0.5-2.2-0.9-3.2c-0.8-2.5-1.9-5-2-7.6c-0.1-2.1,0.2-4.2,0.3-6.4c0.2-2.1,0.2-4.3,0-6.4c-0.3-1.9-0.7-3.8-1.4-5.6
		c-1.8-4.9-4.8-9.1-7.5-13.5c-1.4-2-2.6-4.2-3.5-6.5c-0.5-1.4-0.7-2.9-1.1-4.3c-0.6-1.6-1.3-3-2.3-4.4
		C664.9,254.6,664.8,254.3,664.6,254.2z M726.8,367.4l-0.1-0.1c-0.2,0.2-0.5,0.5-0.6,0.3c0,0.1,0.1,0.2,0.1,0.3
		C726.4,368.1,726.8,367.6,726.8,367.4z M726,367.6c-0.3-0.7-0.6-1.3-1-1.9c0.2,0.3,0.4,0.7,0.5,1.1
		C725.7,367.1,725.8,367.3,726,367.6z M725.1,365.7c-0.3-0.5-0.7-1.1-1.2-1.5c-0.5-0.6-1-1.2-1.5-1.9c0.2,0.2,0.3,0.5,0.5,0.7
		C723.7,363.8,724.4,364.7,725.1,365.7L725.1,365.7z M722.5,362.3c-0.3-0.6-0.6-1.1-1-1.6c-0.2-0.2-0.4-0.4-0.5-0.6
		C721.5,360.8,722,361.5,722.5,362.3L722.5,362.3z M720.9,360.1c-0.1-0.1-0.1-0.2-0.2-0.3c-0.8-1-1.7-1.9-2.6-2.8
		C719.1,358,720,359,720.9,360.1L720.9,360.1z M699.1,343.4c0.1,0,0.1,0.1,0.2,0.1s0.2,0,0.2,0.1
		C699.4,343.5,699.2,343.4,699.1,343.4L699.1,343.4z M699.5,343.5c1.5,0.7,3.2,1.2,4.7,1.8C702.7,344.8,701.1,344.2,699.5,343.5
		L699.5,343.5z M705.1,345.7c1.1,0.4,2.1,1,3,1.7c-0.4-0.3-0.8-0.7-1.2-1C706.3,346.1,705.7,345.9,705.1,345.7L705.1,345.7z
		 M708.1,347.4c0.2,0.1,0.4,0.2,0.5,0.4c0-0.1,0-0.1-0.1-0.1C708.4,347.6,708.2,347.5,708.1,347.4L708.1,347.4z M708.6,347.8
		c1.1,1.1,1.9,2.6,3,3.7s2.4,1.9,3.6,2.9c-0.2-0.2-0.4-0.4-0.6-0.5c-1-0.7-2-1.5-3-2.4c-1-1.1-1.8-2.3-2.8-3.4
		C708.8,347.9,708.7,347.9,708.6,347.8L708.6,347.8z"/>
	<path class="st2" d="M694.6,339.9c1.4,1.4,2.8,2.7,4.3,3.9c0.5,0.5,1.1,1,1.7,1.4c0.7,0.2,1.4,0.5,2.1,0.8c1.4,0.9,2.5,2.3,3.9,3.2
		s2.2,1.8,4.1,1.7c0.2,0,0.3,0.1,0.5,0c0.4-0.2,0-0.9,0-1.1c-0.4-1.2-1.6-2.1-2.4-3.1c-0.8-0.9-1.7-1.8-2.7-2.6
		c-1.4-1.1-3.1-1.6-4.7-2.5s-2.9-2.3-4.8-3"/>
	<path class="st2" d="M696.6,338.5c0,0-1.3,0.8-0.9,0.6c0.5-0.4,1.2-0.2,1.8-0.2c0.3,0,0.5,0.3,0.8,0.5c0.2,0.2,0.5,0.4,0.8,0.5
		c1,0.7,2,1.3,3.1,1.9c-1.3-0.7-2.6-1.6-3.8-2.5c-0.3-0.2-0.5-0.5-0.8-0.5C696.8,338.9,696.6,338.5,696.6,338.5z M695.5,339.3
		c0.3-0.2-0.3,0.2-0.6,0.5c0.1,0.1,0.2,0.2,0.3,0.2C695.2,339.7,695.3,339.5,695.5,339.3L695.5,339.3z M695.1,340
		c-0.1,0.3-0.1,0.6-0.1,0.9c0,0.3,0.5,0.5,0.7,0.7l2.2,1.9c0.7,0.7,1.4,1.3,2.2,1.8c0.9,0.5,1.9,0.6,2.8,1.2s1.5,1.3,2.2,1.9
		c0.7,0.6,1.5,1.2,2.4,1.7c0.5,0.3,1,0.6,1.6,0.8c0.4,0.1,0.8,0.2,1.2,0.2h0.4c0.2,0,0.4,0.1,0.5,0c0.5-0.3,0.2-0.9,0-1.3
		c-0.5-1-1.1-1.9-2-2.6c-0.7-0.8-1.4-1.5-2.2-2.3c-0.5-0.5-1.1-1-1.7-1.3c-1-0.6-2.1-1-3.2-1.6c0.3,0.1,0.6,0.3,0.8,0.5
		c1,0.4,1.9,0.9,2.7,1.5c0.8,0.6,1.5,1.3,2.1,2c0.3,0.3,0.6,0.6,0.8,0.9c1,0.9,1.8,1.9,2.4,3.1c0.1,0.2,0.4,0.8,0.1,1h-1.2
		c-0.4,0-0.7-0.1-1-0.3c-0.4-0.2-0.8-0.5-1.2-0.7c-0.6-0.4-1.2-0.8-1.7-1.2c-0.9-0.9-1.9-1.7-2.9-2.5c-0.3-0.3-0.7-0.5-1.1-0.6
		c-0.6-0.2-1.1-0.4-1.7-0.6c-0.5-0.4-1-0.8-1.4-1.2c-0.5-0.4-1-0.8-1.5-1.2c-0.5-0.4-1-0.8-1.5-1.2c-0.2-0.2-0.6-0.4-0.7-0.7
		C695.4,340.1,695.3,340.1,695.1,340z M694.8,339.8L694.8,339.8c-0.2-0.2-0.4-0.2-0.5-0.1c-0.1,0.1-0.1,0.3,0,0.4
		C694.4,340,694.6,339.9,694.8,339.8L694.8,339.8z"/>
	<path class="st2" d="M708.9,350.2c2.1,1.7,4.4,2.6,6.5,4.5c0.9,0.8,1.8,1.5,2.7,2.4c0.2,0.2,0.7,0.7,1,0.4s-0.2-0.7-0.3-0.8
		c-0.7-0.8-1.3-1.7-1.9-2.5c-1.1-1.6-2.4-3.1-4-4.3c-2.1-1.7-3.5-2.4-4.8-3.8"/>
	<path class="st2" d="M708.1,346.1c0.2,0.6,0.4,1.3,0.5,1.9c-0.2-0.5-0.2-1.1-0.2-1.6C708.3,347,708.1,346.1,708.1,346.1z
		 M708.5,346.5c0-0.1,0.2,0.2,0.3,0.3s0.5,0.4,0.7,0.6c0.6,0.5,1.3,1,2,1.5c2.1,1.5,3.9,3.3,5.3,5.4c0.4,0.6,0.8,1.2,1.2,1.7
		c0.2,0.3,0.4,0.5,0.6,0.8c0.1,0.1,0.6,0.5,0.2,0.6c-0.1,0-0.1,0-0.2-0.1c-0.5-0.4-0.9-0.8-1.3-1.2c-0.2-0.1-0.3-0.3-0.5-0.4
		s-0.3-0.3-0.5-0.4s-0.3-0.3-0.4-0.4c-0.8-0.8-1.7-1.5-2.6-2.1c-0.9-0.6-1.8-1.1-2.7-1.7c-0.2-0.1-0.4-0.2-0.5-0.4
		c-0.2-0.1-0.4-0.2-0.5-0.4c-0.4-0.7,0,0-0.5-0.4H709l0.3,0.9c0.1,0.2,0.4,0.3,0.5,0.4c0.4,0.3,0.7,0.5,1.1,0.7
		c1.5,0.9,2.9,1.8,4.3,2.9c0.8,0.6,1.5,1.3,2.3,2c0.3,0.2,0.6,0.6,0.9,0.8s1,0,0.9-0.5c-0.1-0.2-0.3-0.4-0.4-0.6
		c-0.2-0.3-0.4-0.6-0.7-0.8c-0.2-0.3-0.4-0.6-0.7-0.9l-1.8-2.4c-1-1.2-2.1-2.2-3.3-3.1l-3-2.1c-0.2-0.2-0.5-0.4-0.7-0.6
		C708.7,346.7,708.5,346.3,708.5,346.5L708.5,346.5z M709,350c-0.2-0.6-0.4-1.1-0.6-1.7c-0.1-0.5,0.1,0.5,0.3,1.8
		C708.8,350,708.9,350,709,350L709,350z"/>
	<path class="st2" d="M729.1,435c0.1,0.6,0.8,3.3,1.9,3c0.9-0.3,0.6-1.9,0.6-2.6c0-1.7,0.7-3.3,0.8-4.9c0.1-0.9,0-1.9-0.1-2.8
		c-0.2-4.5-3.8-6.9-5.5-10.7c-0.4-1.3-0.6-2.7-0.6-4.1c-0.3-4.8,2-9.3,3.9-13.5c1.7-4.2,2.4-8.7,2.1-13.2c-0.4-3.9-0.7-7.9-2.5-11.5
		c-0.2-0.5-1.7-3-2.4-2.5c-0.1,1.2-0.2,2.3-0.1,3.5c-0.2,4.3,1.4,8.4,1.2,12.7c-0.2,1.5-0.5,3-0.9,4.5c-0.5,3.1-1.3,6.1-2.4,9
		c-0.5,0.9-1,1.7-1.6,2.5c-1.1,1.9-1.8,4.1-1.8,6.4c0,2.4,0.2,5.6,1.2,7.8c0.7,1.4,1.7,2.8,2.7,4c0.6,0.5,1.2,1.1,1.8,1.7
		c0.6,0.9,1,1.9,1.4,2.9C729.7,429.7,728.7,432.5,729.1,435z"/>
	<path class="st2" d="M727.5,371.9c-0.6,0.1-0.5,1.5-0.5,1.9v1.9c0,1.4,0.1,2.8,0.3,4.2c0.3,2.1,0.8,4.2,1,6.3v2.1
		c-0.2,1.5-0.5,3-0.9,4.5c-0.5,2.3-0.9,4.6-1.6,6.8c-0.3,0.8-0.5,1.7-0.8,2.5s-1.1,1.5-1.5,2.2c-1,1.8-1.5,3.8-1.7,5.8
		c0.1-2,0.8-4,1.8-5.7c0.6-0.7,1.1-1.4,1.5-2.2c0.4-0.8,0.7-1.6,0.9-2.5c0.7-2.2,1.2-4.5,1.7-6.8c0.4-1.5,0.7-3,0.9-4.5v-2.1
		c-0.2-2.5-0.8-4.9-1-7.4c-0.1-1.7-0.2-3.4-0.1-5.1v-1.1c0-0.4,0.1-0.8,0.5-0.4c0.1,0.1,0.2,0.1,0.2,0.2c0.8,0.9,1.4,1.9,1.9,3
		c0.8,2.1,1.4,4.3,1.6,6.6c0.3,2,0.5,4,0.5,6c0,3.1-0.5,6.1-1.5,9c-0.6,1.8-1.4,3.5-2.1,5.2c-1.3,3.1-2.5,6.4-2.5,9.8
		c-0.1,1.5,0.1,3,0.5,4.5c0.3,0.8,0.7,1.5,1.2,2.2c1,1.5,2.2,2.9,3.1,4.5c0.9,1.4,1.3,3,1.4,4.7c0.1,1.3,0.1,2.6-0.2,3.9
		c-0.3,0.9-0.4,1.9-0.5,2.9v1.6c0,0.4,0,1.1-0.5,1.1c-0.3,0-0.5-0.2-0.6-0.4c-0.4-0.5,0,0-0.9-2.3c0-0.1-0.2-0.2-0.3-0.2v-0.1l0,0
		c-0.2,0-0.3,0.2-0.2,0.3v0.1c0,0.2,0.1,0.5,0.2,0.7c0,0.1,0.1,0.2,0.1,0.4c0.3,0.8,0.9,2.3,2,2c1.3-0.3,0.8-2.3,0.8-3.3
		c0.1-1.5,0.6-3,0.8-4.5c0.1-0.8,0-1.6-0.1-2.4c0-0.5-0.1-1.1-0.2-1.6c-0.5-2.8-2.3-4.8-3.9-7.1c-0.7-0.9-1.2-1.9-1.7-2.9
		c-0.3-0.8-0.4-1.6-0.4-2.4c-0.2-2,0-4,0.4-6c0.8-3.4,2.5-6.5,3.7-9.8c1.1-2.9,1.7-6,1.8-9.1c0-2.1-0.1-4.1-0.4-6.2
		c-0.2-2.6-0.8-5.2-1.8-7.6c-0.4-1-1-2-1.7-2.9C728.3,372.3,728,371.9,727.5,371.9z M729.1,434.7L729.1,434.7v-2.8
		c-0.1,0.6-0.1,1.2-0.1,1.8C729,434,729,434.4,729.1,434.7L729.1,434.7z M721.8,410.4c0,0.4-0.1,0.7-0.1,1.1c0,2.4,0.4,4.9,1.2,7.2
		c0.4,0.7,0.8,1.4,1.3,2.1c0.5,0.7,1,1.3,1.5,1.9c0.4,0.4,0.8,0.7,1.2,1.1l-0.9-0.9c-0.5-0.4-0.9-0.9-1.2-1.4
		c-0.7-0.9-1.3-1.8-1.8-2.8c-0.7-1.9-1-3.9-1.1-5.9C721.8,412,721.8,411.2,721.8,410.4L721.8,410.4z M727.2,424.1
		c0.5,0.5,0.8,1.1,1,1.7c0.4,0.8,0.6,1.6,0.8,2.5c-0.2-0.9-0.4-1.7-0.8-2.5c-0.2-0.5-0.5-1-0.8-1.4
		C727.4,424.2,727.3,424.2,727.2,424.1z M729,428.3c0,0.2,0.1,0.3,0.1,0.5v-0.2C729.1,428.5,729,428.4,729,428.3L729,428.3z
		 M729.1,428.7c0.1,1,0.1,2,0,3c0.1-0.9,0.1-1.7,0.1-2.6C729.2,429,729.1,428.9,729.1,428.7L729.1,428.7z"/>
	<path class="st2" d="M731.3,450.2c0.1,2.1,0.2,5.8,0.9,7.8c0.5,1.1,1,2.2,1.3,3.3c0,0.9,0,1.9,0,2.8c0.1,0.9,0.8,3.7,2,3.5
		c0.7-0.1,0.8-1.2,1-1.7c0.8-2.7,1-5.6,0.6-8.4c-0.3-0.8-0.7-1.6-1.1-2.4c-0.3-1.2-0.5-2.4-0.4-3.6c0.1-0.7,0.2-1.3,0.5-1.9
		c0.4-1.1,0.5-2.4,0.8-3.5c0.5-1.8,1.2-4.1,0.5-6c-0.2-0.4-1.5-3.6-2.3-2.9c-0.2,0.5-0.2,1.1-0.2,1.6c0,1.3-0.3,2.7-0.8,3.9
		C732.9,445.2,731.1,447.2,731.3,450.2z"/>
	<path class="st2" d="M735.2,437.2c-0.4,0.2-0.3,0.9-0.4,1.3c-0.1,1-0.1,2.1-0.3,3.1c-0.5,1.9-1.8,3.5-2.5,5.4v0.2
		c0-0.1,0-0.1,0.1-0.2c0.8-1.8,2.1-3.4,2.6-5.3c0.2-0.9,0.3-1.8,0.4-2.6c0-0.5,0-1,0.2-1.5c0.2-0.4,0.7,0.2,0.9,0.3
		c1,1.3,1.6,2.9,1.7,4.5c-0.1,1.5-0.4,3-0.9,4.5c-0.2,0.8-0.3,1.6-0.5,2.4s-0.5,1.4-0.7,2.1c-0.2,1-0.1,2.1,0.1,3.1
		c0.2,1.1,1,2,1.3,3c0.4,1.3,0.5,2.7,0.3,4c-0.1,1-0.2,2.1-0.4,3.1c-0.2,0.8-0.5,1.7-0.8,2.5c-0.1,0.3-0.4,0.7-0.8,0.5
		c-0.5-0.4-0.9-1-1-1.6c-0.3-0.7-0.4-1.4-0.5-2.2c0-0.6,0.1-1.3,0.1-1.9c-0.2-1.1-0.6-2.3-1.1-3.3c-0.2-0.5-0.4-1.1-0.5-1.6
		c-0.4-1.6,0,0-0.6-6.7c0-0.1-0.1-0.2-0.2-0.2V450c-0.1,0-0.3,0.1-0.3,0.2c0,0,0,0,0,0.1c0.1,1.2,0,0.7,0.1,1.1
		c0,0.7,0.1,1.4,0.1,2.1c0.1,1.6,0.3,3.2,0.7,4.7c0.3,0.9,0.9,1.8,1.2,2.7c0.2,1,0.2,1.9,0.1,2.9c0,0.5,0.1,1,0.2,1.5
		c0.2,0.9,0.6,1.7,1.2,2.4c0.4,0.4,1.1,0.4,1.5-0.1c0.1-0.1,0.2-0.2,0.2-0.3c0.2-0.4,0.3-0.8,0.4-1.2c0.5-1.5,0.7-3.1,0.8-4.7
		c0.1-1.3,0-2.6-0.3-3.8c-0.3-0.8-0.7-1.6-1.1-2.4c-0.3-0.7-0.4-1.5-0.4-2.3c0-0.6,0-1.2,0.1-1.8l0.6-1.8c0.2-1,0.4-2,0.6-2.9
		c0.3-1.1,0.6-2.3,0.7-3.5c0.1-1.7-0.5-3.4-1.5-4.8C736.1,437.6,735.6,437,735.2,437.2z M731.3,449.9L731.3,449.9
		c0.1-0.2,0.4-2,0.6-2.8c-0.3,0.6-0.5,1.3-0.5,2C731.3,449.4,731.3,449.6,731.3,449.9z"/>
	<path class="st2" d="M745,493.9c-0.6-0.8-1.1-1.8-1.3-2.8c-0.5-1.3-1.5-2.2-1.6-3.7c-0.2-1.3,0.8-2.6,0.8-3.9
		c0.1-2.2-0.2-4.4-0.7-6.5c-0.1-0.8-0.2-1.5-0.3-2.3c-1.1-1.7-2.5-3.1-4.2-4.2c-0.9-0.4-2.6,0.1-2.3,1.4c0.5,1.8,2.1,3.3,2.5,5.2
		c0.1,0.7,0.2,1.5,0.1,2.2c0.2,0.8,0.4,1.5,0.6,2.3c0.2,1.8-0.1,3.8,0,5.7c0.1,0.8,0.3,1.7,0.5,2.5c0,1.3,0.2,2.6,0.5,3.8
		c0.2,0.5,0.5,0.9,0.9,1.3c0.5,0.7,0.9,1.5,1.1,2.4c0.4,0.8,0.6,1.6,0.8,2.4c0,0.5-0.4,1-0.2,1.5c0.5,1.3,2.2-0.1,2.6-0.8
		C746,498.8,746.2,495.4,745,493.9z"/>
	<path class="st2" d="M736.3,470.4c-0.5,0.2-1,0.5-1,1.1c0.1,0.8,0.3,1.6,0.8,2.3c0.7,1.2,1.7,2.3,1.9,3.7c0.1,0.7,0,1.3,0.1,2
		c0.1,0.9,0.5,1.7,0.6,2.6c0.1,1.7-0.1,3.5,0,5.2c0.1,0.8,0.3,1.7,0.5,2.5c0,1.1,0.2,2.1,0.4,3.2c0.2,0.7,0.6,1.4,1.1,1.9
		c0.4,0.6,0.7,1.3,1,2c0.4,0.9,0.8,1.8,0.9,2.8c0,0.7-0.6,1.3,0.1,1.9s1.5-0.2,2.1-0.9c-0.5,0.5-1.6,1.5-2.1,0.8s0.1-1.1,0-1.8
		c0-0.5-0.2-1-0.4-1.4c-0.3-1-0.7-2-1.2-3c-0.3-0.5-0.8-0.9-1.1-1.4c-0.1-0.2-0.2-0.6-0.3-0.8c-0.2-1-0.2-2.2-0.3-3.2
		c-0.1-0.7-0.3-1.4-0.4-2.1c-0.1-0.5-0.1-0.9-0.1-1.4c0.2-1.7,0.2-3.5,0-5.2c-0.1-0.6-0.4-1.1-0.5-1.7c0-0.5,0-1.1,0-1.6
		c0-0.6-0.2-1.2-0.4-1.7c-0.5-1.2-1.4-2.2-1.9-3.4c-0.4-0.9-0.6-1.7,0.5-2c0.2,0,0.3-0.1,0.5-0.1c0.2,0,0.3,0,0.5,0.1
		c0.9,0.2,1.8,1.3,2.5,1.9s1.7,1.6,1.8,2.6c0,0.6,0.1,1.3,0.2,1.9c0.6,2.1,0.8,4.2,0.6,6.4c-0.1,1.3-0.9,2.3-0.9,3.6
		c0.2,1.3,0.6,2.5,1.4,3.5l1.7,3.4c0.1,0.1,0.1,0.1,0.2,0c0,0,0,0,0,0v-0.2c0.1,0.1,0.1,0.1,0.1,0.2l0,0c0.1-0.1,0.2-0.3,0.1-0.4
		c-0.7-1.3-0.5-0.8-0.7-1.2c-0.3-0.7-0.6-1.4-0.9-2.1c-0.6-0.9-1-1.9-1.3-3c0-0.9,0.2-1.7,0.6-2.5c0.1-0.5,0.2-0.9,0.3-1.4
		c0.1-1.8-0.1-3.7-0.5-5.5l-0.3-1.2c0-0.8-0.1-1.5-0.3-2.3c-0.6-1-1.3-1.9-2.2-2.7c-0.6-0.6-1.3-1.1-2-1.5
		C737.5,470.2,736.9,470.2,736.3,470.4z M745.1,494.1L745.1,494.1c0,0.3,0.7,4.3,0,5.9c0.6-1.3,0.8-2.7,0.6-4.1
		c0-0.2-0.1-0.4-0.1-0.6C745.6,494.9,745.4,494.5,745.1,494.1L745.1,494.1z M745.1,500l-0.3,0.6l0.3-0.3V500z M744.8,500.6
		c0,0.1-0.1,0.1-0.2,0.2C744.6,500.7,744.7,500.7,744.8,500.6z"/>
	<path class="st2" d="M733.9,522.3c-0.1-1.1-0.4-2.2-1-3.2c-0.5-0.7-0.9-1.5-1.2-2.3c-0.1-0.9-0.1-1.8,0-2.7c0-1-0.1-2.1-0.1-3.1
		c0-2.3-0.6-4.5-0.2-6.8c0.2-1.1,0.5-2.1,1.1-3c0.9-0.7,1.6-1.6,2.1-2.6c0.9-2.8,1.1-5.9,0.6-8.8c-0.1-1.2-0.3-2.3-0.7-3.4
		c-1.2-2-2.8-3.7-4.8-5c-0.7-0.5-1.8-1.4-2.7-1.3c-0.6,0.1-0.6,0.9-0.4,1.3c0.5,1.2,1.5,2.1,2,3.4s1.5,2.3,2.1,3.6s0.5,3.1,0.9,4.6
		c0.8,2.9-3.1,6.1-4.2,8.7c-1.1,2.8-0.5,5.8-0.2,8.7c0,0.7,0,1.4-0.1,2.1c0.4,3.3,1.6,6.5,3.5,9.2c0.4,0.5,2.1,3.6,3,2.7
		C734,523.8,734.1,523,733.9,522.3z"/>
	<path class="st2" d="M727.2,479.9c-0.2,0-0.3,0.1-0.5,0.2c-0.5,0.5,0,1.4,0.3,1.9c0,0.1,0.1,0.2,0.2,0.3c0.1,0.2,0.2,0.3,0.3,0.5
		c0.3,0.5,0.6,0.9,0.9,1.4s0.5,1,0.8,1.5c0.7,0.9,1.3,1.9,1.7,3c0.4,1.1,0.4,2.3,0.7,3.5l0.3,1.5c-0.1,1.2-0.5,2.3-1.2,3.3
		c-1.1,1.5-2.1,3.1-3,4.7c-1.2,2.7-0.4,5.9-0.2,8.7c0,0.6-0.1,1.2-0.1,1.7c0,0.7,0.1,1.4,0.3,2c0.2,0.8,0.4,1.6,0.7,2.4
		c0.3,0.8,0.6,1.6,1,2.3c0.5,1,1.1,2,1.7,3l1.2,1.8c0.2,0.2,0.6,0.8,1,0.9c-0.4-0.2-0.7-0.5-1-0.9c-0.4-0.6-0.8-1.2-1.2-1.8
		c-1.9-2.7-3.1-5.9-3.5-9.2c0-0.6,0.1-1.2,0.1-1.7c0-0.4,0-0.7-0.1-1.1c-0.3-2.6-0.8-5.5,0.3-7.9c0.9-2,2.4-3.5,3.5-5.4
		c0.7-1,0.9-2.2,0.7-3.4c-0.2-1.4-0.4-2.8-0.8-4.2c-0.4-1-0.9-1.9-1.5-2.8c-0.3-0.6-0.6-1.2-0.9-1.8c-0.2-0.4-0.4-0.7-0.7-1.1
		c-0.1-0.2-0.2-0.3-0.3-0.5c-0.1-0.2-0.2-0.3-0.3-0.5c0-0.1-0.1-0.2-0.1-0.3c-0.1-0.3-0.5-1.3,0.1-1.3c0.9,0.1,1.7,0.5,2.4,1.1
		c0.4,0.2,0.8,0.5,1.1,0.8c1.2,1,2.2,2.1,3.1,3.4c0.3,0.4,0.6,0.8,0.8,1.3c0.2,0.7,0.3,1.5,0.4,2.2c0.1,1,0.2,2,0.3,2.9
		c0.1,1.7,0,3.5-0.4,5.2c-0.1,0.6-0.4,1.2-0.7,1.8c-0.6,0.7-1.2,1.4-1.9,2.1c-0.4,0.5-0.7,1.2-0.9,1.8c-0.7,2.3-0.2,4.7-0.1,7.1
		c0.1,1.4,0.1,2.8,0.1,4.2c-0.1,0.9-0.1,1.9,0,2.8c0.3,1.2,1.2,2.1,1.7,3.3c0.1,0.3,0,0,0.5,2.1c0,0.1,0.1,0.3,0.2,0.3
		c0,0,0,0,0.1,0l0,0c0.2,0,0.3-0.1,0.3-0.3c-0.3-1.7-0.2-1.2-0.3-1.7c-0.2-0.6-0.4-1.1-0.7-1.6c-0.4-0.6-0.7-1.2-1-1.8
		c-0.2-0.8-0.3-1.7-0.1-2.6v-1.5c0-1.1,0-2.2-0.1-3.2s-0.2-2.3-0.3-3.4c-0.2-1.7,0.1-3.3,0.9-4.8c0.3-0.4,0.6-0.8,1-1.1
		c0.6-0.5,1.1-1.2,1.4-1.9c1-3,1.2-6.1,0.6-9.2c0-1.1-0.3-2.3-0.7-3.3c-0.9-1.5-2-2.9-3.4-4c-0.5-0.4-1-0.8-1.6-1.2
		C729,480.5,728.2,479.9,727.2,479.9z M734,522.6c0.1,0.4,0.1,0.8,0,1.2C734,523.4,734,523,734,522.6z M734,523.8
		c0,0.2-0.1,0.4-0.3,0.5C733.9,524.2,734,524,734,523.8L734,523.8z M733.7,524.3c-0.1,0.1-0.3,0.2-0.5,0.1
		C733.4,524.4,733.5,524.4,733.7,524.3z"/>
	<path class="st2" d="M747.1,534.4c-0.7-0.6-1.7-5.5-1.9-6.5c-0.4-1.2-0.9-2.3-1.7-3.3c-0.3-0.7-0.7-1.3-1.1-1.9
		c-0.5-0.4-0.9-0.9-1.3-1.4c-0.4-0.8,0.1-1.8,0.1-2.6c0-0.9-0.2-1.8-0.4-2.6c-0.6-1.6-1.6-3-2.9-4.1c-0.2-0.2-0.6-0.8-1.1-0.4
		s-0.2,1.9-0.1,2.4c0.4,1.7,1.8,3.3,1.9,5.1c0.2,2.2-1.3,4.4-0.6,6.6s2.3,3.5,3.6,5.2c0.8,1.2,1.5,2.4,2.1,3.7
		c0.6,1.1,1.5,5.3,2.8,5.6c0.8,0.2,1-0.7,1.1-1.2C747.8,537.8,748.1,535.3,747.1,534.4z"/>
	<path class="st2" d="M736.9,511.4c-0.8,0.2-0.6,1.4-0.5,2c0.3,2.1,1.8,3.8,2.1,5.8c0.1,1.1-0.1,2.2-0.5,3.2
		c-0.4,1.2-0.3,2.6,0.1,3.8c0.8,1.8,2.2,3.1,3.4,4.7c0.9,1.2,1.6,2.5,2.2,3.8c0.6,1.3,0.9,2.8,1.6,4.1c0.1,0.1,0.2,0.2,0.2,0.3
		c-0.2-0.3-0.3-0.7-0.4-1c-0.5-1.1-0.8-2.3-1.2-3.4c-0.2-0.6-0.5-1.1-0.8-1.6c-0.6-1.2-1.3-2.3-2.1-3.3c-1.2-1.6-3-3.3-3.1-5.4
		c-0.1-1.8,1.1-3.7,0.8-5.5c-0.3-2.1-1.8-3.8-2.1-5.8C736.5,512.7,736.4,511.7,736.9,511.4c0.2,0,0.5,0.5,0.7,0.6s0.2,0.2,0.3,0.2
		l0.3,0.3c1,1,1.8,2.2,2.2,3.5c0.3,0.8,0.4,1.6,0.4,2.5c0,0.8-0.5,1.7-0.2,2.5s1.3,1.4,1.8,2.3c0.2,0.5,0.4,0.9,0.7,1.3
		c0.5,0.8,1,1.5,1.4,2.3c0.3,0.9,0.6,1.9,0.7,2.9c0.3,1.2,0.6,2.5,1,3.7l0.5,1c0.1,0.1,0.2,0,0.3,0v-0.2l0.2,0.2
		c0.1-0.1,0.1-0.3,0-0.4c-0.4-0.8-0.3-0.5-0.4-0.8c-0.3-0.7-0.5-1.5-0.7-2.2c-0.2-0.9-0.4-1.7-0.6-2.6c-0.1-0.9-0.5-1.8-0.9-2.6
		c-0.4-0.6-0.8-1.2-1.2-1.9c-0.2-0.5-0.4-0.9-0.7-1.3c-0.5-0.6-1.3-1.1-1.6-1.8s0.2-1.6,0.2-2.3c0.1-1-0.2-2.1-0.6-3
		c-0.6-1.5-1.6-2.7-2.9-3.7C737.6,511.6,737.3,511.4,736.9,511.4z M747.3,534.7h-0.2c0.3,1.3,0.5,2.6,0.5,3.9
		c0.1-0.8,0.2-1.6,0.2-2.4C747.7,535.8,747.6,534.9,747.3,534.7z M747.6,538.6v0.6c-0.1,0.6-0.5,1.6-1.3,0.9
		c-0.3-0.2-0.5-0.5-0.6-0.8c0.1,0.3,0.3,0.6,0.6,0.8c0.9,0.7,1.3-0.4,1.4-1.1C747.6,539,747.6,538.7,747.6,538.6z"/>
	<path class="st2" d="M735.1,535.9c-0.6,0.8-0.4,4.2,0.1,5.1c2.1,4.4,4.5,8.6,6.7,12.9c0.6,1,1.2,1.9,2,2.7c1.3,1.7,2.5,3.5,3.9,5.1
		c0.4,0.5,0.6,0.4,1,1s0.3,1.4,0.5,2.1c0.3,1.3,1,2.5,2,3.3c2.7,1.6,5.3,3.6,8.2,5.1c0.6,0.3,1.8,1.3,2.4,0.5s-0.7-2.1-1.2-2.7
		c-1.8-2.2-4.1-3.7-6.1-5.7c-1-1-1.2-2.6-1.8-3.9c-0.9-1.8-2.1-3.2-3.1-4.9c-0.6-1.2-1.2-2.3-1.9-3.4c-0.5-0.6-1.2-0.8-1.6-1.4
		c-0.8-1.1-1.2-2.5-2.1-3.5c-1.4-1.6-3.2-2.3-4.2-4.3c-0.5-1-1.3-2.2-1.7-3.2c-0.2-0.9-0.4-1.7-0.6-2.6c-0.1-0.4-0.5-1.9-1-2
		C736.1,535.6,735.4,535.5,735.1,535.9z"/>
	<path class="st2" d="M735.3,535.7c-0.1-0.1-0.3,0-0.4,0.1s0,0.1-0.1,0.1c-0.1,0.2-0.2,0.4-0.2,0.6c-0.1,0.4-0.1,0.8-0.1,1.2
		c0,1.1,0.1,2.2,0.3,3.2c0.3,0.8,0.8,1.7,1.2,2.5c0.2,0.3,0.4,0.7,0.5,1.1c0.4,0.7,0.8,1.4,1.1,2.2c0.9,1.8,1.9,3.6,2.8,5.3
		c0.6,1,1.1,2.1,1.8,3.1s1.4,1.7,2,2.6c0.9,1.1,1.7,2.3,2.6,3.4c0.3,0.3,0.6,0.7,0.9,1c0.3,0.2,0.6,0.4,0.8,0.7
		c0.4,0.5,0.3,1.1,0.4,1.6c0.2,0.8,0.5,1.5,0.9,2.2c0.7,1,1.6,1.8,2.7,2.3c0.7,0.4,1.3,0.9,2,1.3c1.1,0.7,2.2,1.5,3.4,2.2
		c0.6,0.3,1.2,0.6,1.7,1c0.5,0.3,1.5,1,2.1,0.4c1.1-0.9-0.5-2.4-1.1-3.1l-0.5-0.5l-0.5-0.5c-1.2-1.1-2.4-2.2-3.7-3.2
		c-0.6-0.5-1.2-1.1-1.8-1.7c-0.8-1-1-2.4-1.6-3.6c-0.7-1.5-1.8-2.7-2.6-4.1s-1.5-2.9-2.4-4.2c-0.5-0.7-1.3-1-1.8-1.7
		c-0.7-1-1.1-2.3-1.9-3.3s-2-1.7-3-2.7c0.8,0.8,1.8,1.5,2.6,2.3c0.8,0.9,1.4,1.9,1.9,3c0.2,0.4,0.5,0.8,0.8,1.2
		c0.4,0.4,0.9,0.6,1.3,1c0.3,0.4,0.6,0.8,0.8,1.2c0.6,1,1.1,2.1,1.7,3.1c0.9,1.1,1.6,2.3,2.3,3.6c0.7,1.3,0.9,3,1.8,4.1
		c0.4,0.5,0.8,0.9,1.3,1.2c0.8,0.8,1.7,1.5,2.6,2.3c0.4,0.3,0.7,0.6,1,0.9c0.4,0.3,0.7,0.6,1,1c0.7,0.6,1.3,1.4,1.7,2.2
		c0.1,0.3,0,0.7-0.2,1c-0.5,0.4-1.6-0.4-2-0.7c-1.9-1-3.7-2.2-5.4-3.4c-0.7-0.4-1.3-0.9-2-1.3c-0.8-0.4-1.4-1.1-1.9-1.8
		c-0.4-0.6-0.7-1.4-0.8-2.1c0-0.6-0.2-1.3-0.5-1.8c-0.2-0.3-0.5-0.6-0.8-0.8c-0.3-0.3-0.6-0.7-0.9-1c-0.9-1.1-1.7-2.3-2.6-3.4
		c-0.7-0.9-1.4-1.7-2-2.6c-0.8-1.3-1.6-2.7-2.2-4.1c-1-1.8-1.9-3.6-2.8-5.4c-0.5-1.1-1.1-2.2-1.6-3.2c-0.4-0.6-0.6-1.3-0.8-2
		c-0.1-0.9,0,0,0.2-3.8L735.3,535.7h-0.2C735.2,535.8,735.3,535.8,735.3,535.7C735.3,535.7,735.3,535.7,735.3,535.7L735.3,535.7z
		 M735.3,535.8c0,0.1,0,0.1,0.1,0.2c0.6,0.1,1.2,0.3,1.8,0.6c-0.1-0.3-0.2-0.5-0.4-0.7C736.6,535.7,735.5,535.5,735.3,535.8z
		 M737.1,536.6C737.2,536.6,737.2,536.7,737.1,536.6c0.4,1.1,0.5,2.2,0.8,3.3c0.2,0.5,0.4,1,0.7,1.5c0.3,0.5,0.6,1.1,0.9,1.6
		c0.2,0.5,0.5,1,0.8,1.4c0.2,0.3,0.4,0.5,0.7,0.7c-0.8-1-1.6-2-2.1-3.2c-0.5-0.7-0.9-1.5-1.1-2.4
		C737.8,538.5,737.5,537.5,737.1,536.6L737.1,536.6z"/>
	<path class="st2" d="M706.5,654.6c-0.9-2,2.3-7.3,3.3-9.5c0.1-0.3,0.7-1.2,0.8-1.5c0-0.8-0.2-1.6-0.6-2.4c-0.2-0.9-0.4-1.8-0.7-2.7
		c-0.3-0.9-1-1.5-1.3-2.4c-0.6-1.3-0.9-2.6-1-4c0-1.1,0.5-2.3,0.3-3.4s-0.8-1.9-0.6-3.1c0.2-0.9,0.8-1.6,1-2.5
		c0.5-2.4,1.5-5.5,3.2-7.3c1-1.1,2.4-1.6,3.5-2.6c2.6-2.1,5.3-4.1,8.1-6c1-0.5,2-1.1,2.9-1.8c0.5-0.4,0.8-0.9,1.3-1.3
		c0.8-0.6,1.7-0.8,2.5-1.3c1.4-0.9,2.7-1.8,4-2.8c2.1-1.6,5.5-4.6,6.8-7c0.5-1,0.5-2.1,1.1-3.1c2-3,5.9-5.2,6.8-8.9
		c0.2-0.9,1.2-6.2,0.8-6.8c-0.6-0.9-2.4,0.6-2.8,1.1c-0.5,0.8-0.5,1.7-1,2.5c-0.8,1.4-1.8,2.6-2.7,4c-0.6,1.1-1.2,2.2-2,3.2
		c-1,1.1-2.3,1.9-3.3,3.1c-0.7,0.9-0.9,2.2-1.5,3.3c-1.3,2.4-3,4.5-5.1,6.3c-4.1,3.4-9.5,4.8-13.8,7.8c-0.8,0.4-1.5,0.9-2.2,1.5
		c-1.3,1.2-2.4,2.8-3.9,3.7c-0.5,0.2-1,0.4-1.5,0.6c-0.2,0.1-0.5,0.6-0.7,0.4c0-0.8,0.1-1.6,0.2-2.4c0-2.1,0.2-5.1-0.6-7.1
		c-1.2-2.7-2.7-5.3-4.4-7.7c-0.7-1-1.7-1.5-2.4-2.4c-0.8-1.3-1.3-2.7-1.5-4.2c0.1-0.7,0-1.3-0.1-2c-0.1-0.2-0.9-1.3-1-1.5
		c-0.3-0.9-0.4-1.9-0.5-2.9c-0.3-1.6-0.4-3.3-0.8-4.9c-0.3-0.6-0.5-1.2-0.6-1.9c0-0.6-0.1-1.2-0.2-1.8c-0.1-0.3-1.7-3-1.7-3
		c-0.4,0-0.6,1.6-0.6,1.6c-0.3,2,0.2,4-0.1,6c-0.4,2.4-0.6,4.8-0.4,7.2c0.1,1.1,0.8,2,1.1,3.1c0.3,1.4,0.7,2.9,1.3,4.2
		c1.3,2.4,3.3,4.5,4.8,6.7c0.7,0.8,1.3,1.8,1.7,2.8c0.4,1.3,0,2.7,0.2,4c0.4,4.3,0.5,8.5,0.3,12.8c-0.1,1.8,1.1,4.2,0.5,5.9
		c-0.3,0.8-0.9,1.4-1.2,2.2c-0.3,1.2-0.4,2.3-0.5,3.5c-0.1,0.8-0.5,1.7-0.6,2.5c-0.2,1.9,0.1,3.8,0.7,5.6c0.3,0.9,1.1,1.3,1.5,2.2
		c0.2,0.7,0.3,1.5,0.3,2.3c0.1,1.7-0.1,3.5-0.5,5.2c-0.5,1.4-1.5,2.5-1.9,4c-0.8,3.2-0.3,6.5-0.3,9.7"/>
	<path class="st2" d="M694.8,570.1c-0.5,0.3-0.6,1.7-0.6,2.2c-0.2,1.8,0.2,3.7,0,5.5c-0.3,2-0.5,4-0.5,6c0,0.5,0,1,0.1,1.5
		c0.3,1,0.7,1.9,1.1,2.8c0.3,1,0.4,1.9,0.7,2.9c0.2,0.7,0.5,1.4,0.9,2c1.4,2.1,2.9,4.2,4.5,6.1c0.8,1.1,1.7,2.1,1.8,3.5
		c0.1,1.1,0,2.2,0.1,3.4c0.2,2.8,0.4,5.7,0.4,8.5c0,1.5-0.1,3-0.1,4.5s0.8,3.2,0.7,4.8c-0.1,1.3-1,2-1.4,3.1
		c-0.3,1.2-0.4,2.3-0.5,3.5c-0.1,0.7-0.4,1.4-0.5,2.1c-0.1,0.4-0.1,0.9-0.1,1.3c0.1,0.8,0.2,1.5,0.3,2.3c-0.2-1.1-0.3-2.1-0.2-3.2
		c0.1-0.8,0.4-1.6,0.6-2.5c0.1-1.2,0.2-2.4,0.5-3.5c0.4-1.2,1.3-1.9,1.4-3.2c0.1-1.6-0.7-3.2-0.7-4.8s0.1-3,0.1-4.5
		c0-2.8-0.2-5.7-0.5-8.5c0.1-1.2,0-2.5-0.1-3.7c-0.5-1.4-1.2-2.6-2.2-3.7c-1.1-1.5-2.3-2.9-3.3-4.4c-0.7-0.9-1.3-2-1.7-3.1
		c-0.3-1.1-0.5-2.3-0.9-3.4c-0.4-0.8-0.8-1.6-0.9-2.5c-0.1-1.6-0.1-3.2,0.1-4.8c0.1-1.1,0.3-2.3,0.4-3.4c0.1-1.5-0.2-3,0-4.5
		c0-0.5,0.1-1,0.3-1.5c0-0.2,0.1-0.3,0.2-0.4c0.1-0.1,0.2-0.1,0.1-0.1s0.2,0.2,0.1,0.2c0.1,0.2,0.2,0.3,0.3,0.5
		c0.3,0.5,0.5,0.9,0.8,1.4c0.3,0.4,0.4,0.8,0.5,1.2c0,0.7,0.1,1.5,0.3,2.2c0.1,0.4,0.3,0.8,0.4,1.2c0.2,1.1,0.4,2.2,0.5,3.3l0.3,2.1
		c0.1,0.6,0.1,1.2,0.2,1.8c0.1,0.5,0.4,1.1,0.7,1.5c0.1,0.2,0.4,0.5,0.5,0.7c0.1,0.7,0.1,1.3,0.1,2c0.2,1.3,0.6,2.5,1.2,3.7
		c0.6,1.1,1.8,1.7,2.6,2.7c0.8,1.1,1.5,2.2,2.2,3.3c0.9,1.5,1.7,3,2.4,4.6c0.8,2,0.6,4.3,0.6,6.4c0,0.8-0.1,1.6-0.2,2.4
		c0,0.2-0.2,0.8,0.2,0.8s0.6-0.5,0.9-0.6c0.7-0.3,1.4-0.6,2-1c1.5-1.2,2.6-2.9,4.2-4c1.9-1.2,3.8-2.3,5.8-3.3
		c3.6-1.8,7.4-3.3,10.3-6.1c1.6-1.6,3-3.4,4.1-5.4c0.4-1,0.8-2,1.3-3c0.5-0.6,1.1-1.2,1.7-1.7c0.8-0.6,1.5-1.3,2.1-2.1
		c0.6-0.8,1-1.8,1.6-2.7c1-1.3,1.9-2.6,2.7-4c0.3-0.8,0.6-1.5,0.8-2.3c0.4-0.7,1-1.2,1.7-1.4c0.1,0,0.7-0.2,0.8,0
		c0.1,1.1,0.1,2.1-0.1,3.2c-0.3,2-0.6,4.2-1.8,5.9c-1.5,2.1-3.5,3.7-5.1,5.6c-0.5,0.5-0.8,1.1-1.1,1.8c-0.1,0.7-0.4,1.4-0.7,2
		c-1,1.6-2.2,3.1-3.7,4.3c-2.1,2-4.5,3.8-7,5.3c-0.7,0.5-1.6,0.7-2.3,1.2s-1.2,1.2-1.9,1.8c-0.6,0.5-1.3,0.9-2,1.2
		c-1.1,0.7-2.2,1.5-3.3,2.2c-1.4,1-2.7,2-4,3c-0.6,0.6-1.2,1.1-1.9,1.5c-1,0.5-1.9,1.2-2.7,1.9c-1.5,1.6-2.6,3.6-3.1,5.8
		c-0.2,0.8-0.4,1.5-0.6,2.3c-0.4,0.8-0.8,1.8-0.9,2.7c0,1.1,0.7,2,0.7,3.1s-0.4,1.9-0.4,2.9c0,0.8,0.2,1.6,0.4,2.4
		c0.2,0.7,0.4,1.4,0.8,2.1c0.3,0.6,0.7,1.1,1,1.8c0.3,0.9,0.6,1.8,0.7,2.8c0.2,0.7,0.7,1.4,0.6,2.1c-0.1,0.3-0.2,0.6-0.3,0.9
		c-0.3,0.6-0.6,1.1-0.9,1.7c-1.1,1.8-2,3.7-2.7,5.7c-0.4,1-0.5,2.1-0.2,3.1c0,0.2,0.2,0.2,0.4,0.2s0.2-0.2,0.2-0.4
		c-0.3-1-0.1-2.2,0.4-3.1c0.8-2,1.8-3.9,2.8-5.8c0.4-0.7,0.8-1.4,1-2.2c-0.1-0.8-0.3-1.6-0.6-2.3c-0.2-1-0.5-2-0.8-2.9
		c-0.3-0.6-0.7-1.2-1-1.8c-0.3-0.6-0.5-1.3-0.7-2c-0.2-0.7-0.4-1.5-0.4-2.3c0.1-1,0.2-1.9,0.4-2.9c0-0.5-0.1-0.9-0.2-1.4
		c-0.3-0.5-0.4-1.1-0.5-1.7c0-1.1,0.7-2,1-3c0.7-2.6,1.3-5.5,3.4-7.5c1.1-0.8,2.2-1.6,3.3-2.3c2.6-2.1,5.3-4.1,8-6
		c0.8-0.5,1.7-0.9,2.5-1.5s1.2-1.3,1.9-1.8s1.5-0.7,2.3-1.2c2.6-1.5,4.9-3.3,7.1-5.4c1.5-1.3,2.7-2.8,3.7-4.5
		c0.3-0.7,0.5-1.4,0.7-2.1c0.2-0.6,0.6-1.2,1-1.7c1.7-2.1,3.9-3.7,5.4-6c0.9-1.8,1.4-3.7,1.6-5.7c0.2-1.1,0.3-2.3,0.1-3.4
		c-0.2-0.6-1.1-0.5-1.5-0.3c-1,0.4-1.7,1.2-2,2.2c-0.2,0.6-0.4,1.1-0.6,1.7c-0.8,1.4-1.7,2.7-2.7,3.9c-0.7,1-1.2,2.2-2,3.2
		c-1,1.2-2.3,2-3.3,3.1c-0.5,0.9-0.9,1.8-1.2,2.8c-0.7,1.4-1.5,2.7-2.5,3.9c-3.1,4-7.6,5.9-12,8.1c-1.4,0.7-2.8,1.5-4.1,2.3
		c-0.8,0.5-1.7,1-2.5,1.6c-0.6,0.5-1.1,1-1.6,1.6c-0.8,1.1-1.8,2-3,2.6c-0.5,0.1-0.9,0.4-1.3,0.7l-0.1,0.1l0,0v-0.2
		c0-0.3,0-0.5,0.1-0.8c0.1-0.8,0.1-1.6,0.1-2.4c0.2-2.2-0.1-4.5-0.9-6.6c-0.8-1.8-1.8-3.5-2.9-5.2c-0.5-0.7-0.9-1.4-1.4-2.1
		c-0.7-0.9-1.8-1.5-2.4-2.4c-0.8-1.2-1.2-2.5-1.3-3.9c0-0.7,0-1.3-0.1-2c-0.1-0.5-0.7-1-1-1.5c-0.1-0.4-0.2-0.8-0.3-1.2
		c-0.3-1.9-0.5-3.9-0.8-5.8c-0.1-0.4-0.1-0.8-0.2-1.1c-0.3-0.6-0.4-1.2-0.5-1.8c0-0.5,0-1-0.1-1.5c-0.1-0.3-0.3-0.6-0.5-0.9
		c-0.3-0.5-0.5-0.9-0.8-1.4c-0.1-0.2-0.2-0.3-0.3-0.5C695,570.1,694.9,570,694.8,570.1z M701.7,636.1v0.6c0,0.1,0.1,0.2,0.1,0.3
		C701.7,636.7,701.7,636.4,701.7,636.1L701.7,636.1z M701.8,637c0,0.2,0,0.5,0.1,0.7c0.1,0.4,0.2,0.7,0.3,1.1c0.3,0.7,1,1.2,1.3,1.9
		c-0.1-0.1-0.1-0.3-0.1-0.5c-0.3-0.5-0.9-0.9-1.2-1.5C702,638.2,701.9,637.6,701.8,637L701.8,637z M703.5,640.7
		c0,0.1,0.1,0.2,0.1,0.3L703.5,640.7C703.6,640.8,703.5,640.7,703.5,640.7L703.5,640.7L703.5,640.7z M703.7,641
		c0.2,0.8,0.3,1.6,0.3,2.4c0,0.7,0,1.5-0.1,2.2c0,1-0.2,2-0.6,2.9c-0.5,1.3-1.4,2.3-1.8,3.7c-0.4,1.6-0.5,3.2-0.5,4.8
		c0-1.6,0.1-3.2,0.5-4.8c0.4-1.3,1.3-2.4,1.8-3.7c0.5-1.7,0.7-3.4,0.7-5.1C704,642.6,703.9,641.8,703.7,641L703.7,641z"/>
	<path class="st2" d="M708,697.1c0.3-1.3,0.5-2.7,0.5-4c-0.1-1.5-1-2.5-0.7-4c0.3-0.9,0.8-1.7,1.4-2.5c0.9-1.4,1.6-2.9,2.2-4.4
		c1.3-3.9,1.7-8.1,2.2-12.2c0.3-3.2,0.3-6.3,0.4-9.5c0-1.2-0.3-3.5,0.3-4.5s2.2-1.4,3.1-1.8c2-1.1,3.7-2.6,5.1-4.4
		c1.3-1.5,2.2-3.3,3.5-4.7c1.6-1.7,3.8-2.8,5.5-4.4c2.1-2.1,3.4-5.1,5.1-7.5c1-1.5,2.6-3.2,3.1-5c0.3-1.8,0.5-3.7,0.6-5.5
		c0.2-1.7,0.8-3.4,1.6-5c0.8-1.4,2-2.5,2.7-4c1.5-3.3,3.1-6.7,4.4-10.1c0.7-1.7,0.8-3.5,0.5-5.3c-0.1-0.6,0.3-1.5-0.2-1.8
		c-0.9-0.6-1.6,1.5-1.8,1.8c-1.1,2-1.7,4-2.6,6c-2.3,4.8-7,9-8.5,14.1c-1,3.1-1.7,6.4-2.3,9.6c-0.1,1.3-0.3,2.6-0.7,3.8
		c-1.5,2.8-3.7,5.2-6.3,7c-1.3,0.9-2.9,1.2-4.2,2.2c-1.4,1.3-2.6,2.8-3.5,4.4c-0.7,1-0.5,0.4-1.4,1.2c-0.9,0.8-1.8,1.7-2.7,2.6
		c-2.3,2-5.3,2.9-7.6,4.8c-1.1,0.9-1.8,2.5-2.6,3.7c-0.4,0.8-1,1.5-1.7,2c-0.2,0.2-0.6,0.2-0.8,0.4c-0.3,0.5-0.6,1-0.7,1.6
		c-0.9,1.8-1.6,3.8-1.8,5.8c-0.2,1.2-1,2.2-1.2,3.4c-0.3,2,0,4.1,0.9,6c0.3,0.5,0.8,0.8,1.1,1.3s0,1.3,0.1,1.7
		c0.3,1.2,0.8,2.3,1.6,3.2c3,2.8,4.6-0.7,4.6-3.4c0-1.2-0.7-2.2-0.8-3.3c-0.5-3.5-1.9-6.9-1.1-10.5c0.5-2.1,2.3-3.7,3.4-5.5
		c0.2-0.5,0.4-1.1,0.5-1.6c0.2-0.4,0.9-1.2,1.5-0.5c0.1,0.8,0.1,1.7,0.1,2.5c0.6,2.4,0.6,4.9-0.1,7.3c-0.6,2.3-0.4,4.8-1.1,7
		c-0.3,0.8-0.7,1.6-1.1,2.4c-0.2,0.5-0.2,1.2-0.5,1.6c-0.6,0.7-1.2,1.4-1.7,2.1c-0.9,1.8-1,6.1-1.2,8.2s0.3,4.2,0.5,6.4
		c0,0.9,0.1,1.8,0.4,2.7C706.5,700.6,707.8,697.8,708,697.1z"/>
	<path class="st2" d="M748.6,596.3c-0.6,0.2-1.1,1.2-1.2,1.6c-0.1,0.1-0.1,0.3-0.2,0.4l-0.3,0.6c-0.1,0.2-0.2,0.3-0.2,0.5
		s-0.2,0.3-0.2,0.5c-0.2,0.3-0.3,0.7-0.4,1l-0.6,1.5c-0.1,0.3-0.3,0.7-0.4,1c-0.2,0.6-0.5,1.1-0.8,1.6c-2.3,4.5-6.3,8.1-8,12.9
		c-0.4,1.2-0.8,2.5-1.1,3.8c-0.5,1.9-0.9,3.8-1.2,5.7c-0.1,1.3-0.3,2.7-0.6,4c-0.2,0.6-0.5,1.2-0.9,1.8c-1.1,1.6-2.3,3.1-3.8,4.4
		c-0.6,0.6-1.3,1.2-2,1.6c-1.2,0.8-2.7,1.2-3.8,2c-1.7,1.3-2.5,3.2-3.9,4.8c-0.2,0.2-0.5,0.3-0.7,0.5c-0.3,0.2-0.6,0.4-0.9,0.7
		c-0.8,0.7-1.4,1.5-2.2,2.2c-2.3,2-5.2,2.9-7.6,4.8c-0.8,0.7-1.4,1.6-1.8,2.5c-0.4,0.7-0.8,1.4-1.3,2c-0.3,0.5-0.7,0.9-1.2,1.3
		c-0.3,0.2-0.7,0.2-0.9,0.5s-0.4,1-0.7,1.5c-0.5,0.9-0.9,1.8-1.2,2.8c-0.3,1-0.5,2-0.7,3s-0.8,1.8-1.1,2.8c-0.4,1.6-0.4,3.2,0.1,4.8
		c0.2,0.8,0.5,1.5,0.9,2.1c0.3,0.4,0.8,0.7,0.9,1.2s0,1,0.1,1.6c0.2,1.3,0.9,2.5,1.8,3.4c0.3,0.2,0.6,0.4,0.9,0.6
		c0.3,0.1,0.6,0.2,1,0.3c0.3,0,0.6-0.1,0.8-0.3c-0.1,0.7-0.2,1.4-0.2,2.1c-0.1,1.3-0.2,2.6-0.3,4c0,1.6,0.1,3.2,0.4,4.8
		c-0.3-1.8-0.4-3.5-0.4-5.3c0.2-1.7,0.2-3.3,0.4-5c0-0.2,0.1-0.4,0.1-0.6c0.8-0.6,1.3-1.6,1.4-2.6c-0.1,0.6-0.3,1.1-0.6,1.6
		c-0.2,0.3-0.5,0.6-0.8,0.8c0.1-0.7,0.2-1.3,0.4-2c0.2-0.6,0.6-1.1,1-1.6v0.8c0-0.3,0.2-0.7,0.2-0.9v-0.1c0.2-0.3,0.5-0.5,0.7-0.8
		c0.3-0.5,0.2-1.1,0.4-1.6c0.9-1.5,1.5-3.3,1.6-5.1c-0.1,0.9-0.2,1.8-0.5,2.6c-0.3,0.8-0.7,1.6-1.1,2.4c-0.1,0.5-0.3,1.1-0.5,1.6
		c-0.2,0.3-0.4,0.6-0.7,0.8c0-0.3-0.1-0.5-0.1-0.8v1c-0.4,0.5-0.8,1-1.1,1.6c-0.2,0.7-0.4,1.3-0.5,2c-0.1,0.1-0.2,0.2-0.3,0.2
		c-0.7,0.1-1.4,0-1.9-0.5c-1.1-0.9-1.9-2.2-2.1-3.6c0-0.4,0-0.9,0-1.3c-0.1-0.8-0.8-1.1-1.2-1.7c-0.4-0.7-0.7-1.6-0.8-2.4
		c-0.3-1.4-0.3-2.8,0.1-4.2c0.4-0.8,0.7-1.6,1-2.5c0.2-1.3,0.5-2.5,0.9-3.7c0.3-0.9,0.8-1.7,1.2-2.6c0.1-0.4,0.3-0.8,0.5-1.2
		c0.2-0.2,0.4-0.3,0.7-0.4c0.2-0.1,0.3-0.2,0.5-0.3c0.5-0.4,0.8-0.9,1.1-1.5c0.4-0.5,0.7-1.1,1.1-1.6c0.5-0.9,1.1-1.7,1.8-2.4
		c2.4-1.8,5.3-2.8,7.6-4.8c0.9-0.8,1.6-1.7,2.5-2.4c0.4-0.4,1-0.5,1.4-1c1.3-1.5,2.2-3.5,3.8-4.7c1.2-0.7,2.5-1.4,3.8-2
		c1.9-1.3,3.6-2.9,5-4.7c0.8-1,1.4-2,1.9-3.2c0.3-1.3,0.5-2.7,0.6-4.1c0.4-2.2,0.9-4.3,1.5-6.5c0.3-1.2,0.6-2.4,1.1-3.6
		c1.9-4.5,5.5-7.9,7.8-12.2c0.5-0.8,0.9-1.7,1.2-2.6c0.7-1.7,1.4-3.4,2.2-5c0.1-0.3,0.8-1.3,1.1-0.6c0.2,0.3-0.1,1.1,0,1.5
		c0.1,1,0.2,2,0.1,3c-0.2,1-0.5,2-0.9,3c-0.9,2.3-1.9,4.5-2.9,6.7c-0.4,1.1-0.9,2.2-1.5,3.2c-0.6,1-1.5,1.9-2.1,2.9
		c-1,1.6-1.6,3.5-1.8,5.4c-0.2,1.7,0,3.8-0.6,5.5c-0.6,1.9-2,3.3-3,4.9c-1.4,2.1-2.5,4.4-4.1,6.4c-0.8,1-1.8,1.9-2.8,2.6
		c-1.4,0.8-2.6,1.8-3.7,3c-1.1,1.2-1.9,2.7-2.9,4c-0.9,1.2-1.9,2.2-3,3.2c-1,0.8-2,1.6-3.2,2.1c-0.9,0.4-2.3,0.7-2.8,1.7
		c-0.4,1-0.5,2.1-0.4,3.2v3.1c0,1.8,0,3.7-0.2,5.5c-0.1,2.2-0.4,4.3-0.7,6.5c-0.3,3.3-1.1,6.5-2.3,9.5c-0.5,1.2-1.1,2.3-1.8,3.3
		c-0.6,0.6-1,1.4-1.2,2.2c-0.1,0.5-0.1,1,0,1.5c0.2,0.9,0,0,0.2,6.5c0,0.1,0,0.1,0.1,0.1l0.2-0.1c0,0.1-0.1,0.2-0.1,0.3l0,0
		c0.2,0,0.3-0.1,0.4-0.2c0.4-4.4,0.7-3.1,0.4-4.4s-0.8-2.2-0.7-3.5c0.1-0.9,0.9-1.6,1.4-2.3c0.9-1.4,1.7-2.9,2.2-4.5
		c1.4-4.2,1.8-8.7,2.2-13c0.2-2.9,0.3-5.8,0.3-8.7c0-1.5-0.3-3.1,0.3-4.4c0.2-0.4,0.6-0.7,1-0.8c0.8-0.4,1.7-0.7,2.5-1.1
		c1.7-1,3.2-2.3,4.4-3.8c1.5-1.6,2.4-3.6,3.9-5.2c1.6-1.8,3.8-2.8,5.5-4.4c2-2,3.2-4.6,4.7-7c1-1.6,2.4-3,3.2-4.8
		c1-2.3,0.6-4.9,1-7.3c0.3-1.5,0.8-3,1.6-4.4c0.6-1,1.5-1.9,2.1-2.9c0.7-1.3,1.3-2.6,1.9-4c1-2.2,2-4.5,2.8-6.8
		c0.4-1.1,0.7-2.3,0.7-3.5c0-0.7-0.2-1.3-0.2-2s0.3-1.3-0.2-1.8C749,596.3,748.8,596.2,748.6,596.3z M707.8,697.3
		c-0.1,0-0.1-0.1-0.1-0.2c-0.3,0.2-2.2,1.1-2.4,0.7c0.1,0.4,0.1,0.9,0.4,1.2c0.8,0.9,1.6-0.6,1.9-1.2
		C707.7,697.7,707.8,697.5,707.8,697.3z M705.3,697.8c0-0.1-0.1-0.1-0.1-0.2C705.2,697.7,705.3,697.7,705.3,697.8z M705.2,697.6
		L705.2,697.6z M705.2,697.1c0-0.4,0-0.7-0.1-1.1c0-0.4-0.1-0.7-0.1-1.1C705.1,695.7,705.1,696.4,705.2,697.1L705.2,697.1z
		 M706.7,679.3c-0.2-0.9-0.5-1.8-0.7-2.8c-0.2-1.2-0.5-2.3-0.7-3.5c-0.5-2.4-1.1-5.1-0.3-7.5c-0.9,2.6-0.2,5.8,0.3,8.4
		c0.2,1,0.3,2.1,0.6,3.2C706.2,677.8,706.5,678.5,706.7,679.3L706.7,679.3z M705,665.6c0.3-0.8,0.8-1.6,1.3-2.3
		c0.4-0.6,0.9-1.2,1.3-1.8l0.6-0.9c0.1-0.2,0.2-0.3,0.2-0.5c0.1-0.5,0.6-2.2,1.4-1.8l0.3,0.3c0-0.1,0-0.2-0.1-0.3
		c-0.7-0.6-1.5,0.7-1.6,1.2c0,0.2-0.1,0.3-0.1,0.5c0,0.2-0.1,0.4-0.2,0.5l-0.6,0.9c-0.2,0.3-0.5,0.6-0.7,0.9s-0.5,0.6-0.7,0.9
		c-0.4,0.5-0.7,1-1,1.6C705.1,665.1,705.1,665.4,705,665.6L705,665.6z M709.5,672.6c0.1-1.5,0.4-3,0.7-4.4c0.4-1.6,0.6-3.2,0.5-4.8
		c0-0.6-0.1-1.2-0.2-1.8c-0.1-0.3-0.2-0.7-0.2-1v-1.5c0,0.4-0.1,0.8-0.1,1v0.5c0,0.4,0.1,0.5,0.1,1l0.3,1.8c0.1,1.4,0,2.8-0.4,4.1
		c-0.2,0.8-0.4,1.6-0.5,2.4C709.7,670.8,709.7,671.7,709.5,672.6L709.5,672.6z M706.6,681.2c0,0.1-0.1,0.2-0.1,0.3
		C706.6,681.4,706.6,681.3,706.6,681.2L706.6,681.2z"/>
	<path class="st2" d="M702,659.6c-1.1,1.7-1.6,3.7-1.2,5.7c0,0.4-0.2,1,0.5,1.1c1.6,0.2,2.6-2.4,3-3.4c0.9-2,1.6-4.1,2-6.3
		c0.1-0.7,0.7-1.4,0.5-2.1c-0.4-0.8-1-1.6-1.7-2.2"/>
	<path class="st2" d="M705.1,652.4c0.5,0.7,1.4,1.4,1.6,2.3c0.2,0.7-0.3,1.2-0.5,1.9s-0.3,1.5-0.5,2.3c-0.3,1.1-0.8,2.1-1.2,3.2
		c-0.1,0.3-0.3,0.7-0.4,1c-0.4,1-1,2.7-2.1,3.1c-0.1,0-0.2,0.1-0.3,0.1c-0.8,0.1-0.6-0.3-0.7-0.8c0-0.2,0-0.5-0.1-0.7
		c-0.2-1.7,0.3-3.4,1.2-4.9c0.1-0.1,0-0.3-0.1-0.4s-0.3,0-0.4,0.1c-0.7,1.2-1.1,2.5-1.3,3.8c0,0.7,0,1.4,0.1,2.1
		c0.1,0.6-0.1,1.2,0.7,1.3h0.5c0.1,0,0.3-0.1,0.4-0.1c1.5-0.7,2.1-3.1,2.6-4.5c0.4-1.1,0.8-2.1,1.1-3.2c0.2-0.8,0.3-1.5,0.5-2.3
		s0.6-1.2,0.4-1.9C706.4,653.9,705.8,653,705.1,652.4z"/>
	<path class="st2" d="M710,656.2c-0.5,1.7-0.3,3.5-0.5,5.3c-0.1,1-0.7,2-0.7,3.1s0.6,2.2,0.7,3.2s-0.3,1.8-0.3,2.7
		c0,1.8,0.4,3.2-0.2,5c-0.9,2.7-2.5,6-2.5,8.9c0,0.3,0.5,3.1,1.3,2.6c0.3-0.7,0.6-1.4,0.8-2.1c0.6-1.6,1-3.2,1.2-4.9
		c1-4.2,2.2-8.2,2.4-12.5c0-1.9-0.6-3.3-0.9-5.1c-0.1-1.6-0.2-3.2-0.1-4.8"/>
	<path class="st2" d="M710.1,655.9c-0.2,0-0.3,0-0.4,0.2l0.5,0.5l0.1-0.3C710.4,656.1,710.3,655.9,710.1,655.9z M710.3,656.6
		L710.3,656.6L710.3,656.6c0.1,0.1,0.2,0.1,0.3,0.2C710.6,656.9,710.3,656.6,710.3,656.6L710.3,656.6z M710.2,656.7
		c-0.2-0.1-0.4-0.2-0.6-0.2c-0.2,0,0,0.3-0.1,0.4c-0.1,0.5-0.1,0.9-0.1,1.4c-0.1,1.1,0,2.2-0.2,3.3c-0.1,0.8-0.5,1.5-0.6,2.3
		c0,1.1,0.2,2.2,0.6,3.3c0,1.1,0,2.1-0.2,3.2c0,1.1,0.2,2.2,0.1,3.3c-0.2,1.3-0.5,2.6-1.1,3.8c-0.7,1.7-1.3,3.5-1.6,5.4
		c-0.2,1.2-0.1,2.4,0.4,3.5c0.2,0.4,0.6,1.1,1.1,0.7c0.4-0.6,0.6-1.2,0.8-1.9c0.2-0.5,0.4-1,0.5-1.5c0.3-1,0.4-1.9,0.6-2.9l0.9-3.9
		c0.7-2.4,1.1-4.8,1.4-7.3c0.1-1.2,0.2-2.3,0.1-3.5c-0.2-1.4-0.7-2.7-0.9-4.1c-0.1-0.9-0.1-1.9-0.1-2.8c0-0.3,0.1-0.6,0-0.8v1.6
		c0,0.7,0,1.3,0.1,2c0.2,1.4,0.7,2.8,0.8,4.2c0.1,1.2,0.1,2.3-0.1,3.5c-0.4,2.8-1,5.6-1.8,8.3c-0.2,1-0.5,1.9-0.7,2.9
		s-0.3,1.9-0.6,2.9c-0.2,0.5-0.4,0.9-0.5,1.4c0,0.1-0.1,0.3-0.1,0.4s-0.1,0.3-0.2,0.5s-0.3,1.1-0.7,0.9s-0.5-0.8-0.6-1.2
		c-0.2-1.1-0.2-2.3,0-3.4c0.1-0.2,0.1-0.5,0.2-0.8c0.4-1.5,1-3,1.6-4.5c0.3-0.8,0.6-1.5,0.8-2.3c0.1-1.3,0.1-2.5,0-3.8
		c0-0.7,0.1-1.5,0.2-2.2c0.1-0.7,0.1-1.4-0.1-2.1c-0.3-0.7-0.4-1.4-0.5-2.1c0.1-0.9,0.3-1.7,0.6-2.5c0.2-0.8,0.2-1.5,0.2-2.3
		c0-0.9,0-1.7,0.2-2.6C710.2,656.9,710.1,656.8,710.2,656.7L710.2,656.7z M711.3,658.3c-0.1-0.3-0.1-0.5,0-0.8c0,0-0.6-0.8-0.5-0.6
		C711.1,657.3,711.2,657.8,711.3,658.3L711.3,658.3z"/>
	<path class="st2" d="M693,753c0.4,2.4,0.9,4.6,3.4,5.4c0.7,0.2,1,0.6,1.6-0.2c1.1-1.3-0.4-3.6-0.6-5c-1-4.5-4-8.4-3.5-13.2
		c0.2-3.2,0.6-6.4,1.2-9.6c0.3-1.2,1-2.3,1.3-3.5c0.9-4.2,2.6-8.3,4-12.5c0.7-2.2,2-4.2,2.9-6.3c1.1-2.6,2-5.2,2.9-7.8
		c0.3-0.9,0.9-1.7,1.2-2.5c0.8-2.3,1-4.7,0.7-7.1c-0.3-2.1-1.3-4.1-1.7-6.2s-1.6-2.9-3.1-4.2c-0.2-0.2-0.3-0.6-0.5-0.6
		c-0.6,0-1.1,3.2-1.1,3.8c0.1,2.4,1.3,4.7,1.5,7c-0.1,1.5-0.3,3-0.7,4.4c-0.3,1.5,0.1,3-0.5,4.4c-1,2.5-1.8,6.3-3.3,8.5
		c-0.5,0.7-1.3,1.2-1.9,1.9c-1,1.3-1.8,2.7-2.4,4.2c-1.8,4.4-2.3,9.1-3.2,13.6c-0.8,3.9-2,7.7-2.2,11.7c0,6,2,11.9,5.6,16.7"/>
	<path class="st2" d="M702.7,679.5c-0.4,0-0.6,0.7-0.7,1c-0.5,1.1-0.6,2.4-0.5,3.6c0.3,2.2,1.2,4.3,1.5,6.5c0.2,1.6-0.6,3.2-0.8,4.8
		c0,1.3-0.2,2.7-0.4,4c-0.3,1-0.6,1.9-0.9,2.8c-0.5,2-1.3,3.9-2.4,5.6c-0.6,0.7-1.2,1.3-1.9,1.9c-0.9,1-1.6,2.2-2.1,3.5
		c-2,4.5-2.5,9.6-3.5,14.4c-0.6,3.2-1.6,6.4-2,9.7c-0.4,4.2,0.2,8.4,1.9,12.3c-1.6-3.9-2.2-8.1-1.8-12.3c0.4-3.3,1.4-6.5,2-9.7
		c0.9-4.8,1.5-9.8,3.5-14.3c0.5-1.3,1.2-2.5,2.1-3.5c0.6-0.7,1.4-1.1,1.9-1.9c1.1-2,2-4.2,2.7-6.4c0.2-0.7,0.5-1.4,0.7-2.1
		c0.2-1.4,0.4-2.7,0.4-4.1c0.4-1.5,0.6-3,0.8-4.5c-0.1-1.3-0.4-2.6-0.8-3.9c-0.3-1.1-0.6-2.3-0.7-3.5c0.1-0.7,0.2-1.4,0.3-2.1
		c0.1-0.4,0.2-0.9,0.4-1.3l0.2-0.3c0.2,0,0.2,0.3,0.3,0.5s0.4,0.3,0.5,0.5c0.9,0.7,1.6,1.5,2.2,2.5c0.3,0.7,0.6,1.5,0.7,2.3
		c0.6,1.7,1.1,3.4,1.4,5.2c0.2,1.8,0.1,3.6-0.3,5.4c-0.2,0.7-0.4,1.4-0.6,2.1c-0.3,0.7-0.7,1.4-1,2.1c-1,2.6-1.8,5.3-2.9,7.8
		c-0.7,1.6-1.5,3.1-2.3,4.7c-0.7,1.5-1.2,3.1-1.7,4.7c-1.1,3.1-2.1,6.2-2.9,9.4c-0.3,1.1-0.9,2.1-1.2,3.2s-0.5,2.3-0.7,3.5
		c-0.2,1.6-0.3,3.2-0.5,4.8c-0.1,0.9-0.2,1.9-0.2,2.8c0,1.2,0.2,2.3,0.5,3.4c0.6,2,1.5,3.9,2.2,5.9c0.4,1,0.6,2.1,0.9,3.1
		s1,2.2,0.9,3.4c0,0.2,0,0.5-0.1,0.7c-0.4,0.9-0.8,0.6-1.5,0.4c-0.7-0.2-1.3-0.6-1.8-1.1c-0.2-0.2-0.4-0.5-0.5-0.8
		c-0.2-0.3-0.3-0.7-0.4-1c0-0.1,0-0.2-0.1-0.2l0,0c0-0.1-0.1-0.3-0.1-0.4s-0.2-0.2-0.3-0.2c-0.1-0.2-0.3-0.4-0.4-0.6
		c-0.8-1.3-1.4-2.7-2-4.1c0.1,0.2,0.2,0.5,0.3,0.7c0.5,1.2,1.1,2.3,1.7,3.4c0.1,0.2,0.2,0.3,0.3,0.5c-0.1-0.1-0.2-0.1-0.3,0
		c0,0,0,0,0,0c-0.2,0.4,0.2,0.8,0.3,1.1s0.3,0.7,0.4,1.1c0.2,0.4,0.4,0.7,0.6,1c0.6,0.6,1.4,1.1,2.2,1.3c0.3,0.1,0.6,0.3,0.9,0.2
		c0.6-0.2,1-0.6,1.2-1.2c0.1-0.2,0.1-0.5,0.1-0.7c-0.1-1.2-0.5-2.5-1-3.6c-0.3-1-0.5-2.1-0.9-3.1c-0.7-2-1.6-3.8-2.2-5.8
		c-0.3-1.1-0.5-2.2-0.5-3.3c0-1.2,0.2-2.4,0.2-3.6s0.2-2.7,0.4-4c0.1-1.2,0.4-2.3,0.7-3.4c0.3-1.1,0.9-2.1,1.2-3.2
		c0.8-3.1,1.8-6.3,2.9-9.3c0.6-1.6,1-3.2,1.7-4.7s1.5-3.1,2.2-4.7c1.1-2.6,1.9-5.2,2.9-7.9c0.3-0.7,0.7-1.4,1-2.1
		c0.3-0.7,0.5-1.4,0.6-2.1c0.4-1.8,0.5-3.7,0.3-5.5c-0.3-1.4-0.7-2.8-1.2-4.2c-0.2-1.3-0.6-2.6-1.2-3.8c-0.7-1-1.5-1.8-2.5-2.5
		C703.1,680,703,679.7,702.7,679.5z M693.6,754.6c0-0.2-0.1-0.3-0.1-0.5c0-0.4-0.1-0.8-0.2-1.2c0-0.2-0.2-0.2-0.3-0.2
		s-0.3,0.2-0.2,0.3C693.6,754.6,693.8,754.8,693.6,754.6L693.6,754.6z M693.9,754.5c0.1,0.3,0.3,0.7,0.2,1c-0.1-0.3,0.4,0.6,0.4,0.6
		S693.8,754.3,693.9,754.5z"/>
	<path class="st2" d="M696.1,714.9c-0.5,0.1-0.7-0.8-0.8-1.3c-0.1-0.8,1.6-3.5,2-4.3c1.5-3.4,2.5-7,4.2-10.3c0.8-1.4,1-3,2-4.3
		c0.2-0.2,0.3-0.7,0.5-0.6c1.2,0.2,0.4,4.7,0.2,5.4c-0.7,2-1.5,4-2.4,6c-0.7,1.4-1.7,2.7-2.4,4.2
		C698.5,711.4,698.1,714.4,696.1,714.9z"/>
	<path class="st2" d="M704.3,693.9c-0.5-0.3-0.7,0.3-0.9,0.6s-0.3,0.5-0.5,0.7c-0.5,1.1-1,2.2-1.4,3.3c-0.3,0.7-0.7,1.3-1,2
		c-0.5,1.1-1,2.3-1.4,3.4c-0.6,2-1.4,3.9-2.3,5.7c-0.1,0.3-0.3,0.6-0.5,0.8c-0.1,0.3-0.3,0.5-0.5,0.8c-0.4,0.7-0.7,1.4-0.8,2.2
		c0,0.5,0,0,1.1,1.7c0.1,0,0.3-0.1,0.3-0.2c0,0,0,0,0-0.1c-0.1,0-0.1,0-0.1-0.1c0.2,0,0.3-0.1,0.5-0.2c0.2-0.1,0.3-0.3,0.4-0.4
		c-0.3,0.2-0.6,0.4-0.9,0.6c-0.1-0.1-0.1-0.2-0.2-0.2c-0.5-1.1-0.5-0.6-0.5-1.1c0.1-0.4,0.2-0.9,0.4-1.3c0.4-0.8,0.8-1.5,1.2-2.3
		c0.7-1.3,1.2-2.6,1.7-4c0.6-1.7,1.3-3.5,2-5.2c0.4-0.9,0.9-1.8,1.3-2.8c0.2-0.6,0.4-1.2,0.7-1.8c0.2-0.5,0.5-1,0.8-1.4
		c0.1-0.1,0.2-0.5,0.3-0.5s0.3,0.1,0.3,0.2c0.1,0.3,0.2,0.7,0.3,1c0.1,1.3-0.1,2.6-0.4,3.8c-0.3,1.1-0.8,2.2-1.2,3.3
		c-0.5,1.3-1,2.5-1.7,3.7c-0.8,1.2-1.6,2.5-2.2,3.9c-0.3,0.7-0.5,1.4-0.8,2.1c0.4-1.1,0.9-2.2,1.4-3.2c0.7-1.2,1.5-2.2,2.1-3.4
		c1-2,1.7-4,2.5-6c0.2-0.5,0.3-1.1,0.3-1.7c0.1-0.8,0.2-1.7,0.1-2.5C704.9,694.8,704.7,694.2,704.3,693.9z M698.4,712.2
		c-0.2,0.7-0.6,1.3-1,1.9l0.3-0.3C698,713.3,698.2,712.8,698.4,712.2L698.4,712.2z M697.4,714l-0.2,0.2
		C697.2,714.2,697.3,714.2,697.4,714z"/>
	<path class="st2" d="M699,714.5c0.8-1.2,1.6-2.3,2.6-3.4c2.5-3.3,4.5-7,6-10.9c0.6-1.6,0.2-2.7-0.1-4.2c-0.1-0.3,0.2-1.5-0.5-1.6
		s-2.5,3.8-2.7,4.4c-1.5,4-2.5,8.1-4,12"/>
	<path class="st2" d="M707.1,694.2c-0.3-0.1-0.7,0.4-0.8,0.6c-0.6,0.8-1,1.6-1.4,2.5c-0.1,0.2-0.2,0.5-0.3,0.7
		c-0.9,2.2-1.7,4.5-2.2,6.8c-0.6,1.9-1,3.1-1.4,4.3c0.3-0.7,0.6-1.5,0.8-2.2c0.8-2.9,1.9-5.9,3-8.7c0.4-1,1-2,1.6-2.9
		c0.1-0.1,0.5-0.7,0.7-0.7c0.5,0.2,0.3,0.9,0.3,1.4s0.2,0.8,0.2,1.2c0.2,0.9,0.2,1.8,0,2.7c-0.5,1.4-1.1,2.8-1.8,4.1
		c-1.1,2.2-2.3,4.2-3.7,6.2c-0.7,1-1.5,1.8-2.2,2.8v-0.1c0.1-0.3-0.1,0.4-0.1,0.2c-0.1,0.5-0.2,0.9-0.3,1.4c0,0.1,0.1-0.2,0.2-0.3
		s0.3-0.4,0.4-0.6c0.3-0.4,0.6-0.7,0.9-1.1c0.8-0.9,1.5-1.8,2.1-2.8c1.6-2.3,2.9-4.8,4-7.4c0.5-1,0.8-2,1-3.1c0.1-0.7,0-1.4-0.2-2.1
		c-0.1-0.4-0.2-0.9-0.2-1.3C707.7,695.1,707.8,694.4,707.1,694.2z M699.8,712.9c-0.2,0.3-0.4,0.5-0.6,0.8c-0.1,0.1-0.3,0.4-0.2,0.3
		c0.2-0.5,0,0-0.2,0.3c-0.1,0.1,0,0.3,0.1,0.4s0.3,0,0.4-0.1C699.8,712.9,700.2,711.6,699.8,712.9z M701,709
		c-0.5,1.2-0.9,2.4-1.4,3.6c-0.2,0.5,0.8-1.8,0.8-1.8C700.5,710.2,700.7,709.6,701,709L701,709z"/>
	<path class="st2" d="M697.6,805.6c0.8,1.8,0.9,3.8,1.5,5.6c0.3,1,0.8,1.6,0.7,2.6s-1.7,3.8-0.2,4.5c1.7,0.7,2.9-4.5,3.2-5.6
		c1-4.7,1.3-9.4,1-14.2c-0.1-1.4-0.4-2.7-0.5-4c-0.2-5.3,1.4-10.8,2.1-16.1c0.6-4.6-0.6-10.3-2.3-14.6c-0.6-1.5-1-3.4-1.9-4.7
		c-0.5-0.7-1.3-1.3-1.8-2c-0.7-1-0.1-0.5-0.7-1.5c-1-1.7-2-3.2-2.9-5c-0.1-0.2-0.9-2.1-1.2-2.1c-0.7-0.2-0.7,1.5-0.7,1.5
		c-0.2,1.8,0.6,2.8,0.9,4.5c0.2,1.2,0,2.5,0.2,3.7c0.3,1.8,2.4,4,3,5.7c0.9,2.6,1.7,5.2,2.3,7.8c0.3,1.9,0.3,3.9-0.1,5.8
		c-0.1,0.8,0,1.6-0.1,2.5c-0.3,3-1.5,6.2-2.3,9.1c-0.6,2.3-0.3,4.6-0.7,6.9C696.7,798.8,696.5,802.9,697.6,805.6z"/>
	<path class="st2" d="M694.7,748.4c-0.2-0.1-0.5-0.1-0.6,0.1c-0.3,0.6-0.4,1.2-0.3,1.8c0.1,1.1,0.3,2.2,0.7,3.3
		c0.2,0.6,0.3,1.3,0.3,2c0,1,0,2,0.2,3c0.6,1.9,2.2,3.4,2.9,5.2c0.7,1.7,1.2,3.4,1.6,5.2c0.4,1.3,0.7,2.6,0.9,4
		c0.1,1.4,0,2.9-0.3,4.3c-0.1,0.8,0,1.7-0.1,2.5c-0.3,3.3-1.7,6.4-2.4,9.7c-0.3,1.7-0.3,3.5-0.5,5.2l-0.3,2.7l0,0
		c0.1-0.9,0.2-1.8,0.3-2.7c0.1-1.7,0.2-3.5,0.5-5.2c0.5-2.2,1.3-4.4,1.9-6.6c0.3-1,0.5-2.1,0.6-3.1c0-0.7,0-1.4,0-2.1
		c0.1-1.4,0.4-2.8,0.4-4.3c-0.1-1.1-0.2-2.2-0.5-3.3c-0.4-1.5-0.8-3.1-1.3-4.6c-0.3-1-0.6-2-1.1-2.9c-0.8-1.5-2.1-2.8-2.5-4.5
		c-0.1-0.8-0.2-1.6-0.2-2.4c0-0.8-0.1-1.6-0.3-2.4c-0.4-1.1-0.6-2.2-0.7-3.3c0-0.5,0-1.1,0.2-1.6C694.2,748.2,694.4,748,694.7,748.4
		c0.5,0.8,0.9,1.7,1.3,2.7c0.7,1.4,1.6,2.8,2.4,4.1l0.3,0.6c0,0.2,0,0.3,0.1,0.5c0.7,1.2,1.9,1.9,2.5,3.1c0.5,1.2,1,2.4,1.3,3.6
		c1.3,3.4,2.1,7,2.5,10.7c0.3,5-1.3,10-1.9,14.9c-0.2,1.8-0.3,3.6-0.3,5.4c0.1,1.1,0.3,2.2,0.4,3.4c0,0.6,0.1,1.3,0.1,1.8
		c0.3,5.1-0.3,10.2-1.6,15.1c-0.1,0.2-0.1,0.5-0.2,0.7c-0.2,0.8-0.6,1.6-1.2,2.3c-0.2,0.2-0.5,0.5-0.8,0.4c-0.6-0.2-0.6-0.9-0.5-1.4
		c0.1-0.7,0.3-1.4,0.6-2c0.1-0.3,0.2-0.6,0.2-0.9c0-0.9-0.2-1.8-0.7-2.5c-0.1-0.4-0.2-0.8-0.3-1.1c-0.3-1.1-0.4-2.2-0.7-3.3
		c-0.1-0.3,0,0-0.5-1.4c0-0.1-0.2-0.1-0.3-0.1v0.2c0-0.1-0.1-0.2-0.1-0.3l0,0c-0.2,0.1-0.2,0.2-0.1,0.4c0.7,2.3,0.5,1.5,0.7,2.3
		c0.2,1.1,0.5,2.2,0.8,3.3c0.2,0.7,0.7,1.3,0.7,2c0,0.5-0.1,1-0.3,1.4c-0.3,0.7-0.5,1.5-0.6,2.3c0,0.5,0.2,1,0.6,1.4
		c1.1,0.7,2-0.6,2.4-1.5c1.1-2.4,1.7-5,2-7.7c0.1-0.8,0.2-1.6,0.2-2.4c0.1-0.8,0.1-1.7,0.2-2.4c0.1-2.2,0.1-4.4-0.1-6.6
		c-0.1-0.9-0.3-1.8-0.4-2.7c-0.1-1.3-0.1-2.7,0-4c0.2-3.2,0.9-6.3,1.4-9.4c0.3-1.5,0.5-3,0.6-4.5c0.1-3.8-0.4-7.6-1.7-11.2
		c-0.3-1-0.7-2-1.1-3c-0.3-1.1-0.7-2.2-1.2-3.2c-0.6-1.2-1.7-1.9-2.4-2.9c-0.2-0.4-0.4-0.8-0.5-1.3c-0.6-1.1-1.3-2.2-2-3.3
		s-1.1-2.3-1.7-3.3C695,748.7,694.9,748.5,694.7,748.4z M697.5,805.3L697.5,805.3c0-0.4-0.6-6-0.5-7.6c-0.1,1.3-0.2,2.6-0.2,4
		c0,1.1,0.1,2.2,0.5,3.2C697.4,805,697.5,805.2,697.5,805.3L697.5,805.3z"/>
	<path class="st2" d="M702.1,835.3c-0.7-1.1-0.3-3.2-0.2-4.4c0.3-1.7,0.4-3.5,0.3-5.2c-0.2-0.8-0.9-1.5-1.1-2.4
		c-0.2-0.5-1-2.8-1.8-2.7c-1.2,0.1-0.8,2.7-0.9,3.3c-0.2,1.2-0.8,2.2-1,3.4c-0.1,1.4,0.2,2.9,0.1,4.3c0,2-0.2,3.9-0.4,5.9
		c-0.2,1.4-0.6,2.9-0.2,4.2c0.6,1.8,1.8,3,2.6,4.7c0.5,1.2,0.8,2.5,1,3.8c0.4,1.5,1.1,2.9,1.4,4.4c0.5,2,0.1,7.6,2.1,8.6
		c0.2,0.1,0.5,0.4,0.8,0.3c0.5-0.3,1-3.9,1.1-4.6c0.2-4.3,0.2-8.4-1.2-12.5c-0.9-2.5-2.2-4.8-2.6-7.4
		C701.9,837.9,702.8,836.3,702.1,835.3z"/>
	<path class="st2" d="M698.9,820.4c-0.4,0.3-0.6,0.7-0.7,1.2c0,0.8,0,1.7-0.1,2.5c-0.4,1-0.7,2.1-0.9,3.2c-0.1,1.2,0,2.4,0.1,3.6
		c0,1.9,0,3.8-0.2,5.7c-0.4,1.5-0.5,3-0.5,4.5c0.3,2,1.9,3.7,2.9,5.4c0.7,1.3,0.7,2.8,1.1,4.1s1.1,2.8,1.4,4.3
		c0.4,2.4,0.1,5,1.1,7.2c0.3,0.6,0.7,1.1,1.3,1.4c0.2,0.1,0.4,0.2,0.6,0.1c0.4-0.2,0.6-1.6,0.7-2c0.4-1.9,0.5-3.9,0.5-5.9
		c0.1-2.8-0.3-5.6-1-8.3c-0.6-1.9-1.5-3.7-2.2-5.6c0.7,1.9,1.5,3.7,2.1,5.6c0.7,2.7,1.1,5.5,1,8.3c0,1.2,0,2.5-0.1,3.7
		c0,0.3-0.1,0.6-0.1,0.9c-0.1,0.8-0.3,1.6-0.5,2.4c0,0.2-0.1,0.6-0.3,0.7s-0.7-0.3-0.9-0.4c-0.8-0.6-1-1.9-1.2-2.9
		c-0.2-1.2-0.3-2.3-0.3-3.5c0-0.7-0.1-1.4-0.2-2.1c-0.4-1.5-1.1-2.9-1.4-4.4c-0.2-1.3-0.5-2.6-1-3.8c-0.9-1.7-2.5-3.3-2.8-5.3
		c0-1.2,0.1-2.4,0.3-3.5c0.2-1.6,0.3-3.3,0.3-4.9c0-0.8,0-1.6,0-2.4c-0.1-0.9-0.1-1.9-0.1-2.8c0.2-1.3,1-2.6,1-3.9V822
		c0-0.3,0.2-1.4,0.7-1.2c0.3,0.1,0.5,0.5,0.6,0.7c0.3,0.6,0.5,1.2,0.8,1.8c0.5,0.7,0.8,1.5,1.1,2.3c0.2,1.9,0,3.9-0.4,5.8
		c-0.1,1,0,0,0.3,3.9c0,0.1,0.2,0,0.2,0.1v-0.2c0.1,0.1,0.1,0.1,0.1,0.2h0.1c0.1-0.1,0.2-0.3,0.1-0.4c-0.3-0.9-0.3-0.5-0.3-0.9
		c-0.1-0.5-0.1-1,0-1.5c0.2-2.3,0.8-4.7,0.5-7.1c-0.2-0.7-0.5-1.4-1-2c-0.3-0.9-0.7-1.8-1.2-2.6C700,820.5,699.5,820.1,698.9,820.4z
		 M702.2,835.5L702.2,835.5c-0.1,1.1-0.1,2.1-0.1,3.2c0,0.2,0.1,0.4,0.1,0.6c-0.1-0.4-0.2-0.8-0.1-1.2c0.1-0.6,0.2-1.1,0.2-1.7v-0.6
		C702.3,835.7,702.3,835.6,702.2,835.5z M702.2,839.4v0.4c0,0.1,0.1,0.2,0.1,0.3C702.3,839.9,702.3,839.6,702.2,839.4z M702.3,840
		c0,0.1,0,0.2,0.1,0.3c0.2,0.5,0.4,1.1,0.6,1.6C702.8,841.3,702.5,840.7,702.3,840L702.3,840z"/>
</g>
<path class="st3" d="M570.1,188.8c1.4-0.2,2.4,1.7,2,3s-1.6,2.4-2.6,3.4c-3.9,3.7-6.7,8.3-9.4,12.9c-0.9,1.5-1.9,3.2-1.7,5
	c0.1,2,1.6,3.6,2.3,5.4s0.3,4.6-1.7,4.9c-0.6,0.1-1.2-0.1-1.7,0.2c-1,0.4-1.2,1.8-1.1,2.9c0.1,3.8-0.5,8.5-4,10.1
	c-1.5,0.7-3.3,0.6-4.9,0.8s-3.4,1-4,2.5c-0.1,0.5-0.3,1.1-0.5,1.6c-0.7,1.3-2.2,1.9-3.7,1.6c-1.4-0.4-2.7-1.1-3.8-2
	c0.2,2.1-0.2,5.5-1.7,7.1c-0.5,0.5-1.1,0.9-1.7,1.3c-2.1,1.3-4.5,2.4-6,4.4s-2,5.1-0.1,6.8c1.2,0.8,2.5,1.4,3.9,1.6
	c1.3,0.4,2.8,1.1,3.2,2.5c0.2,0.8,0.1,1.7,0.3,2.5c0.5,1.2,1.7,2.1,3,2.3c4,0.8,7.7-2,10.8-4.7l3.8-3.2l0.3-0.3
	c0.2-0.5-0.2-0.9-0.7-1.2c-1.3-0.9-2.4-2.1-3.1-3.6c-0.7-1.5-0.5-3.2,0.4-4.6c0.2-0.4,0.6-0.6,1.1-0.7c0.7,0,1.2,0.7,1.7,1.3
	c1.1,1.4,2.5,2.6,4.2,3.3c0.8,0.3,1.6,0.5,2.4,0.4c0.5-0.2,1-0.4,1.5-0.6c4.5-2.2,9.7-2.7,14.5-1.2c0.8,0.4,1.7,0.5,2.6,0.3
	c0.8-0.3,1.3-1.6,0.6-2.1c5.1-1,10.2-2,15.2-3.1c2.4-0.4,4.8-1.1,7-2.1c1.4-0.7,2.7-1.7,4.2-2.3c4.3-1.8,9.4-0.8,13.5-2.9
	c-0.3-2.4-0.5-4.9-0.4-7.3c0-0.5,0-1,0.4-1.3c0.4-0.3,0.8-0.4,1.3-0.3c1.7,0,3.4,0,5.1,0.1c0.6,0,1.1-0.1,1.6-0.3
	c1.4-1,0-3.2,0.3-4.8c5.1-0.1,10.1-0.7,15.1-1.7c0.9-0.1,1.7-0.5,2.3-1.2c0.8-1.3-0.4-2.9-1.7-3.6s-3-1-3.9-2.2
	c-0.4-0.4-0.5-1-0.3-1.5c0.2-0.2,0.4-0.4,0.6-0.5c5.1-3.5,10.9-6,16.9-7.4c-1.8-1.5-4.4-0.9-6.6-0.1s-4.5,1.9-6.7,1.2
	c0.1-0.7,0.7-1.3,1.4-1.3c0.7,0,1.4,0,2.1,0.1c2.4-0.1,4.2-2.2,4-4.5c0-0.1,0-0.2,0-0.3l7.6-1.2c-0.3,1.3,0.5,2.6,1.8,2.9
	c0.1,0,0.1,0,0.2,0c1.3,0,2.5-1,2.5-2.3c0-0.1,0-0.1,0-0.2c1,1.5,2.2,3.2,3.9,3.7c0.4-1,0.5-2,0.4-3c-0.2-1-0.9-1.9-1.9-2.2
	c-0.6-0.1-1.2,0.1-1.7-0.1c-1.6-0.5-1.1-2.9-2.1-4.2c-1.2-1.6-3.7-0.8-5.4,0.2s-3.9,2.2-5.5,1c-0.5-0.4-0.9-1-1.4-1.4
	c-1.7-1.3-4,0-6.1,0c-2.7,0.1-5-1.8-7.6-2.5s-5.4-0.1-8.1-0.2c-0.5,0-1-0.1-1.5-0.4c-0.5-0.5-0.9-1.1-1.1-1.8
	c-1.4-3.2-5.6-4-9.1-3.6s-6.9,1.8-10.4,1.2c-0.6-0.1-1.3-0.3-1.8-0.7c-0.4-0.4-0.7-0.8-1-1.3c-1.7-2.8-3.9-5.5-7-6.5
	c-2.4-0.7-4.9-0.2-7.3-0.6c-2.6-0.4-4.9-1.7-6.6-3.7c-1.3,1-1.6,2.8-2.3,4.2c-1,1.9-2.4,3.5-4.1,4.8
	C571.5,188,570.8,188.4,570.1,188.8z"/>
<path class="st3" d="M611.7,249.2c-3-1.4-6.2-0.5-9.3,0.6c-1.8,0.7-3.6,1.4-5.5,2c-1.3,0.4-2.5,1-3.7,1.6c-0.8,0.6-1.6,1.1-2.5,1.5
	c-2.5,1.4-5.4,1.7-8.2,2.1c-8.8,1-17.9,2.2-25.3,7c-4.1,2.7-7.5,6.4-11.8,8.7c-0.5,0.2-0.9,0.5-1.3,0.9c-0.4,0.5-0.6,1-0.7,1.6
	c-0.7,2.6-1.4,5.1-2,7.7c-0.2,0.8-0.8,1.9-1.6,1.6c-0.7-1.7,1.2-3.6,0.7-5.4c-0.5-1.1-1.7-1.8-2.9-1.7c-1.2,0.2-2.4,0.6-3.4,1.2
	c-1.5,0.8-3.2,1.8-3.7,3.4c0.7,0.5,1.6,0.6,2.5,0.4c0.9-0.1,2,0.3,2.1,1.2c0,0.3-0.1,0.6-0.2,0.9c-0.5,1.6-1.1,3.3-1.6,4.9
	c2.2,1.7,4.8,2.9,7.5,3.5c0.2,3.8-0.5,7.7-2.1,11.2l4.2-0.6c0.3,0,0.7-0.1,1,0.2c0.2,0.3,0.3,0.6,0.3,0.9c0.1,1.6,0.1,3.2,0.2,4.9
	c0.3,1.6,0,3.2-0.8,4.6c-1.1,1.2-2.6,2-4.2,2.2c-1.6,0.1-3.2,0.4-4.7,0.9c-2.9,1.2-4.6,4.2-4.2,7.3c0,0.3,0.1,0.6,0.3,0.9
	c0.3,0.3,0.7,0.5,1.2,0.6c1.3,0.3,2.5,0.5,3.8,0.8c0.2,0,0.4,0.1,0.5,0c0.3-0.2,0.1-0.7,0.1-1.1c0-0.8,1-1.1,1.8-1.2
	c1.3-0.1,2.5-0.1,3.8-0.2c0.7,0,1.7,0.3,1.5,1c0.6,0,1.1-0.1,1.7-0.1c0.1,0.4,0.3,0.7,0.4,1.1c0.9-0.3,1.8-0.3,2.7-0.1
	c0.9,0.2,1.5,1.2,1.3,2.1c0.6,2.6-1.3,5.5,0.1,7.8c0.3,0.5,0.8,1,1.1,1.6c0.9,1.9-1.1,4.1-0.4,6.1c1.4,0.3,2.3,1.5,2.2,2.9
	c-0.1,0.5-0.1,0.9-0.1,1.4c0.2,1,1.6,1.3,2.3,2c0.6,0.8,0.6,1.8,0.2,2.6c-0.4,0.8-1,1.6-1.7,2.2c0.9,0.1,1.9,0.2,2.8,0.2
	c1.7,1.5,1.9,4.1,0.4,5.9c1,0.1,2.1,0.3,3.1,0.4c1.8,1.6,1,4.7,2.2,6.8c0.8,1.4,2.4,2.2,3.6,3.4c1.5,1.7,2.6,3.7,3.3,5.8
	c0.4,1,0.7,2,1.1,3c1.2,3.1,2.5,6.3,5.2,8.1c1.2,0.8,2.7,1.3,3.7,2.4c0.5,0.6,0.9,1.2,1.2,1.9c0.4,0.8,0.8,1.5,1.2,2.3
	c0.9,1.7,1.6,3.9,0.3,5.2c-0.7,0.7-2,1.1-2.1,2.1c1.7,1.3,3.8,1.3,5.9,1.7c3,0.6,5.5,2.5,7,5.1c1.7,3.1,1.6,6.7,1.6,10.2
	s-0.1,7.1-0.2,10.6c0,1.1-0.2,2.3-1.2,2.7c1.2,1.7,1.7,3.9,1.2,5.9c-0.2,1-0.7,1.9-0.5,2.9c0.2,1.4,1.5,2.2,2.9,2c0,0,0,0,0,0
	c0.7-0.1,1.4-0.6,2.1-0.5c1.4,0.1,1.8,2,1.9,3.4c0.1,2,0,4.5-1.7,5.6c-0.6,0.4-1.3,0.6-1.4,1.3c-0.1,0.9,1.1,1.2,1.8,1.8
	c1.1,1,0.6,2.7,0,4s-1.5,2.7-1,4.1c3.1,0.6,6.1,1.3,9.1,2.3c0.5,1.3-1.1,2.3-1.7,3.5c-0.3,0.9-0.4,1.9-0.4,2.8
	c-0.2,1.4-0.3,2.7-0.2,4.1c0.3,1.3,1.6,2.6,2.9,2.2c0.1,2.7,0.2,5.4,0.3,8c0,0.3,0,0.6,0.1,0.9c0.2,0.4,0.4,0.7,0.7,1.1
	c0.9,1.5,0.5,3.4,0.1,5c-2.2,0.5-4.5,0.3-6.5-0.8c-1-0.7-2.1-1.3-3.2-1.8c-1.4-0.5-2.9-0.7-4.4-0.6c-2.1,0-4.2,0.1-6.3,0.2
	c-0.7,2.8-1.4,5.5-2.1,8.3c0,0.2-0.1,0.4,0,0.5c0.1,0.2,0.4,0.4,0.6,0.4c3.9,1.7,6.9,5.1,8.2,9.2c0.3,1,0.5,2.1,1.4,2.7
	c0.9-1.2,2.5-1.6,3.8-1c0.6,0.3,1.1,0.7,1.6,1.2c1,0.9,2.3,1.5,3.6,1.8c-0.9,0.4-1.7,1-2.2,1.9c2.7,1.8,5.7,3.2,8.8,4l-0.2,1.4
	c-0.4,2-1.2,3.9-2.5,5.5c-1.5,1.5-3.7,2.2-4.8,4.1c-0.6,1-0.7,2.2-1.6,3c-0.6,0.5-1.4,0.9-2.2,1c-3.3,1.2-6,3.5-7.7,6.5
	c1.2-0.6,2.6,0.4,3,1.6c0.3,1.3,0.2,2.6-0.2,3.8c-0.3,1.4-0.7,2.8-1,4.3c-0.1,0.9-0.6,1.7-1.4,2.2c-0.6,0.2-1.2-0.1-1.7,0.3
	c-1,0.7,0.2,2.8-0.9,3.4c-1.3-0.2-2.5,0.6-2.8,1.9c0,0.1,0,0.3,0,0.4c0.1,0.8,0.5,1.5,0.2,2.2c-0.4,1.2-2.2,1-3.4,0.5
	c0.2,5.4,0.4,10.8,0.6,16.3c0,0.5,0,1-0.2,1.4c-0.4,0.5-0.9,0.9-1.5,1.2c-1.8,1.1-2.9,3-2.9,5.1c0.9,0.6,2-0.3,3.1-0.3
	c1.1,0.1,2,0.9,2.2,1.9c0.2,1,0.2,2.1-0.1,3.1c-0.1,0.5-0.3,1-0.6,1.4c-0.7,0.6-1.7,0.1-2.5-0.2c-3.6-1.3-7.5,0.6-8.8,4.2
	c0,0,0,0.1,0,0.1c0.9-0.3,1.9,0.1,2.3,1c0.4,0.9,0.5,1.8,0.3,2.7c0,1.2-0.2,2.5-0.7,3.6c-0.5,1.2-1.6,1.9-2.9,1.9
	c-0.3,3.2-0.1,6.5,0.6,9.7c-2-0.4-3.8,0.9-4.2,2.9c-0.1,0.4-0.1,0.8,0,1.2c1.4,0.4,1.9,2.1,1.7,3.6s-0.6,2.9-0.3,4.3
	c0.5,1.4,1.2,2.8,2.1,4c0.1,0.2,0.2,0.4,0.2,0.6c0,0.8-1.1,0.9-1.7,1.4c-0.7,0.7-0.2,1.8,0.4,2.5c0.8,0.6,1.4,1.3,1.9,2.1
	c0.5,1.4-0.6,2.7-1.7,3.7c-0.3,0.3-0.8,0.6-1.1,0.4s-0.2-0.3-0.3-0.5c-0.6-1-2.3-0.7-2.9,0.3c-0.5,1.1-0.6,2.3-0.3,3.4
	c-1.1-0.5-2.4-0.1-3,0.9c-0.5,1.1-0.7,2.2-0.5,3.4c0.4,3.5,1.9,6.8,2.9,10.2c1.3,4.7,2.1,9.5,2.6,14.3c0.2,1.7,0.4,3.3,0.6,5
	c0.2,1.4,0,3.2-1.3,3.5c-0.8,0.2-1.6-0.3-2.4-0.2c-1.3,0.1-2,1.8-1.9,3.1s0.8,2.6,1.1,3.9c0.4,2.2-0.6,4.5-2.5,5.7
	c0.8,0.1,1.8,0.4,2,1.2c-1.7,0.5-2.7,2.3-2.3,4c-0.9-0.1-1.5-0.9-1.4-1.8c0-0.2,0.1-0.3,0.1-0.5c-1.1-1.2-2.9-1.3-4.5-1
	s-3.1,1.1-4.7,1.2c-0.4,1.1-0.5,2.3-0.4,3.5c1.6,0.7,3.5,0.4,5.2,0.4s3.8,0.5,4.5,2.1s-0.2,3.9,0.7,5.6l13.5,0.9
	c0.3,0,0.7,0.1,1,0.2c0.4,0.3,0.6,0.8,0.7,1.3c0.4,1.7,0.6,3.4,0.6,5.2c0,0.5,0,1-0.2,1.5c-0.5,1.2-2,1.6-3.3,1.9
	c-4.6,0.9-9.2,1.6-13.8,2c-1.6,0.2-3.4,0.4-4.2,1.8c-0.5,1-0.5,2.2-0.2,3.3c0.7,4.6,1.2,9.2,1.4,13.8c0.1,1.2,0.1,2.4-0.2,3.6
	c-0.3,1.2-0.8,2.3-1.1,3.5c-1,4.3,2.2,8.7,1.5,13.1c-0.2,0.9-0.3,1.7-0.4,2.6c-0.1,0.9,0.3,1.7,1.1,2.2c1.7,0.9,3.8-1.5,5.6-0.7
	c0.5,1.7-1.7,2.9-2.3,4.6c-1.2,3.7,2.4,7.4,2.5,11.3c0,1.5-0.3,3.3,0.9,4.1c0.4,0.2,0.7,0.4,1,0.6c0.4,0.5,0.6,1.2,0.5,1.9v4.8
	c0,5.3,0,10.6,0.1,15.8c0,1,0,1.9-0.2,2.9c-0.2,0.8-0.4,1.6-0.6,2.4c-0.2,1-0.2,2.1-0.2,3.1c-0.2,5-2.2,10-1.6,14.9
	c0.9-0.7,2.3-0.6,3,0.4c0.1,0.1,0.2,0.2,0.2,0.3c0.9,2.3,0.5,4.9-1.2,6.8c-0.8,0.9-1.9,1.8-1.7,3c1.5-0.4,3.1,0.3,3.8,1.7
	c0.6,1.4,0.8,2.9,0.6,4.4c0,0.4-0.1,0.7-0.4,1c-0.3,0.2-0.7,0.4-1.1,0.4c-4.1,0.6-7.5,3.7-8.3,7.8c1,0.9,2.4,1.1,3.6,0.6
	c1.2-0.4,2.3-1.1,3.6-1.5c3.8-1.1,7.7,1.4,11.7,1.3c0.6,0,1.2-0.1,1.8-0.4c0.5-0.3,0.9-0.7,1.3-1.2c2.3-3,2.6-7.5,5.6-9.8
	c0.3-0.3,0.8-0.5,1.2-0.5c0.7,0,1.2,0.6,1.8,1c2,1.1,4.7-1.3,6.7-0.2c1.1,0.6,1.5,1.9,2.1,3s1.8,2.1,2.9,1.7
	c-1.4,2.4-1.7,5.2-0.8,7.8c0.3,0.8,0.9,1.7,1.8,1.6c0.4,0,0.7-0.2,1-0.4c2.7-1.7,5.7-2.7,8.9-3c0.9,2.7,0.8,5.6,1,8.4
	s0.9,5.8,3.1,7.7c2.9-3.8,9.3-3.1,12.4-6.8c-0.4-2.4-0.7-4.8-1.1-7.3c-0.3-2.3-0.6-4.8,1-6.5c1.3-1.4,3.4-1.7,5.3-2
	c5.8-1,11.1-3.7,16.3-6.4c-2.1-0.8-4.4-0.1-6.4,0.9s-3.9,2.3-6.1,2.7c-0.5-1.1-1.7-1.7-2.8-1.4c-1.1,0.3-2.2,0.8-3.1,1.5
	c-1.6,0.9-3.2,1.6-4.9,2.2c-2.7,1.1-5.3,2.1-8,3.2c-3.3,1.3-6.7,2.7-10.3,2.7c-1.5-1.9-0.8-5.5-3.1-6.2c-1.2-0.4-2.9,0.2-3.7-0.8
	c-0.3-0.6-0.4-1.3-0.3-1.9c0.1-1-0.1-1.9-0.6-2.8c-1.6-2.2-6.2-1.3-6.9-4c-0.5-1.9,1.6-3.4,3.4-4.1c3.1-1.1,6.5-1.5,9.8-1.3
	c3,0.2,6.7,0.8,8.6-1.7s0-6.5,0.6-9.7c0.1-0.5,0.3-0.9,0.6-1.2c0.5-0.3,1-0.5,1.6-0.4c5.9,0,11.7-0.1,17.6-0.1c-1-0.4-1.5-1.9-1.4-3
	c0.1-1.1,0.8-2.1,1.9-2.5c1.2-0.4,2.7,0.1,3.8-0.7c0.6-0.4,0.9-1.2,1.5-1.5c1.4-0.8,3.6,0.6,4.5-0.7c0.3-0.4,0.4-0.9,0.3-1.4
	c0-3.2,0-6.5-0.1-9.7c-0.1-0.9,0.1-1.8,0.7-2.5c0.7-0.4,1.4-0.6,2.2-0.5c1.4,0,2.8,0.1,4.2,0.1c0.5,0.1,1.1-0.1,1.5-0.4
	c0.3-0.4,0.5-0.9,0.4-1.4c-0.1-5.4-3.5-10.3-8.6-12.2c-1.5-0.5-3.4-1-3.9-2.6c0.9,0,1.8,0.1,2.8,0.1c-2.4-2-2.7-5.5-3.3-8.6
	s-2.2-6.6-5.3-7c-0.9,0-1.9,0-2.8-0.2c-0.9-0.3-1.6-1.4-1.1-2.1c1.1,0.2,2.1-0.5,2.4-1.6c0-0.1,0-0.2,0-0.3
	c-0.1-1.6-2.2-2.7-2.1-4.3s2.5-2.1,4.2-1.9c0.2-4.8,0.1-9.6-0.3-14.4c-1.2,0.5-2.6-1.2-1.9-2.3c0.3-0.4,0.6-0.8,0.9-1.1
	c0.4-0.9,0.6-1.8,0.6-2.8c0.2-1,0.9-2,1.8-1.8c-0.9-3.6-1.2-7.3-0.9-11c0.9,0.8,2.6,0,2.9-1.2c0.2-1.3-0.1-2.5-0.8-3.6
	c-0.7-1.1-0.9-2.3-0.8-3.6c1.4,0,2.9-0.2,4.2-0.7c1.4-0.4,2.5-1.4,3.1-2.7c0.8-2.1-0.5-4.3-1.7-6.1c-2.9,1.7-6.2,2.6-9.5,2.5
	c-0.3,0-0.6,0-0.9-0.2c-0.2-0.2-0.4-0.4-0.5-0.7c-1.7-3.6-3.5-7.2-4-11.1c5.1-0.9,10.2-1.3,15.4-1.2c0.7-1.5,1-3.2,0.8-4.8
	c-0.3-1.6-1.7-3.2-3.3-3c-0.5,0.1-0.9,0.2-1.4,0.3c-0.5,0-1.1-0.1-1.2-0.6s0.4-1.1,0.8-0.8c-0.4-1.4-1.5-2.5-2.9-2.8
	c1-0.5,2.2-0.7,3.3-0.8c1.2,0,2.2,0.7,2.7,1.7c0.2,0.5,0.1,1.1,0.3,1.6c0.7,1.9,3.7,1.3,5.2,2.7c0.8,0.7,1.6,1.9,2.5,1.3
	c0.7-0.5,0.2-1.6-0.5-2.1c-1-0.6-1.8-1.3-2.6-2.1c-0.7-0.9-0.8-2.4,0.2-3c0.4-0.3,1-0.2,1.5-0.5s0.7-0.9,0.3-1.2
	c-1.2,0-2.3-0.8-2.7-1.9c-0.4-1.1-0.7-2.2-0.6-3.4c-0.1-2.2-0.2-4.3-0.3-6.5c0.4,0.5,1.7,0,2.1-0.6c0.3-0.6,0.4-1.3,0.3-2
	c-0.4-5.7-0.7-11.4-1.1-17.1c1.3-0.8,2.6-1.7,3.9-2.5c0.5-0.3,1-0.7,1.3-1.2c0.3-0.6,0.4-1.2,0.3-1.8c-0.1-3.1-0.7-6.2-1.9-9.1
	c-0.9-2-1.8-4-2.5-6c-0.8-2.1-0.8-4.4,0.1-6.4c0.4-0.8,0.9-1.5,1.2-2.2c1.7-4.3-3.4-9.3-1.6-13.6c2.1,0,4.3-0.1,6.4-0.1
	c1.2,0,2.8-0.2,3.2-1.4c0.2-0.7,0.2-1.3,0.1-2c-0.3-2.8,1-5.6,1.8-8.3c0.6-2.5,1-5.1,1-7.7c0.3-5.7,0.2-11.4-0.4-17
	c-0.2-1.5-0.7-3.9,0.5-4.8c0.9-0.5,1.9-0.6,2.9-0.4c1.5,0.2,3,0.3,4.4,0.5c0.2-1.6,0.4-3.2,0.6-4.9c0-0.8,0.3-1.6,0.8-2.3
	c1-1.1,2.9-0.8,4.4-0.3c1.1-3.6-0.5-7.4-1.2-11.1c-0.8-4.3-0.2-8.6,1.5-12.6c0.5-0.9,0.8-1.8,1.1-2.8c0.3-1.1,0.4-2.2,0.5-3.3
	c0.2-3.1,0.3-6.4,1.9-9.1c0.6-1.1,1.5-2,2.1-3c2.3-3.4,2.9-7.9,5.7-10.9c0.7-0.6,1.3-1.3,1.9-2c0.5-1.1,0.9-2.2,1.3-3.3
	c1-2.2,3.2-4.1,2.6-6.4h-5.7c-0.5,0-1.1-0.3-0.9-0.7c1.5-2.5,1.8-5.7,2.2-8.7c0.2-1,0.1-2.4-0.9-2.7c-1.6-0.5-2.9,2.4-4.4,1.7
	c-1.1-0.5-0.7-2.1,0.1-2.9s2-1.4,2.4-2.5c0.2-1,0.1-2-0.2-2.9c-0.4-2.5,0.4-5.1-0.3-7.4c-0.8-2.6-3.3-4.8-2.9-7.5
	c0.3-1.1,0.7-2.1,1.2-3c0.7-2.1,1-4.3,0.9-6.5c0-1.9-0.1-4.1-1.6-5.2c-1-0.7-2.5-1-2.8-2.1c-0.1-0.7,0-1.4,0.1-2.1
	c0-1.8-1.8-3-3.6-3.2s-3.5,0.1-5.3-0.2c-1.1-0.2-2.4-1.3-1.8-2.3c3.1-5.8,2.8-12.9,4.1-19.3c0.7-3.6,1.5-7.2,1.3-10.8
	c-0.1-1.5-0.3-3-0.3-4.5c0.1-5.2,3.8-10.1,3-15.2c0-0.4-0.1-0.7-0.3-1c-0.8-1.1-2.5,0-3.8-0.2c-0.8-1.4-1.2-3-1.2-4.6
	c-4.9,0.3-9.8,0.7-14.7,1c-0.5,0.1-1,0-1.4-0.2c-0.5-0.5-0.8-1.2-0.7-1.9c-0.2-2.7-0.3-5.3-0.5-8c-0.1-2.1-0.7-4.8-2.8-5.2
	c-0.4-0.1-0.8-0.1-1.1-0.2c-2.9-0.8-1-6.5-3.8-7.5c-0.5-0.2-1.2-0.1-1.7-0.3c-1.5-0.5-2.5-1.9-2.6-3.4c-0.3-1.5-0.1-3-0.4-4.5
	c0-0.5-0.2-0.9-0.6-1.2c-0.3-0.3-0.7-0.3-1.1-0.5c-1.5-0.8-1.8-2.8-1.9-4.4s-0.7-3.7-2.3-4.1c-1-0.2-2.4-0.9-2.5-1.9
	s0.9-1.9,0.7-2.8c-0.1-0.3-0.3-0.7-0.6-0.9c-1.2-1.4-2.5-2.8-3.7-4.2c0.3-0.6,0.9-0.9,1.5-0.7c0.6,0.1,1.2,0.4,1.7,0.7
	c1.5,0.6,3.3,0.6,4.8,0c-2.3-1.5-4.6-3-7-4.5c-1.9-1.2-4-2.7-4.3-5c-0.2-1.5,0.4-3,0.1-4.5c-0.3-1.7-1.7-3.6-0.7-4.9
	c0.7-0.9,2.3-1.2,2.4-2.3s-1.3-1.7-1.5-2.7c-0.1-0.4,0-0.9,0.1-1.3c0.5-2,1.3-4.4,3.3-4.9c-0.9-1.4-2.6-2.1-4.3-2.7
	s-3.3-1.2-4.4-2.6s-1-3.7,0.6-4.5c0.2-2-1.2-3.9-2.7-5.3s-3.1-2.8-3.7-4.8c-0.1-0.5-0.2-0.9-0.5-1.3c-0.3-0.5-0.8-0.7-1.2-1.1
	c-1.1-0.9-1.7-2.4-1.5-3.8c0.2-1.4,1.2-2.6,2.5-3.2c0.9-0.1,1.8-0.4,2.6-0.9c0.9-0.9,0.5-2.5-0.1-3.7c-3.2-1-6.7-0.8-9.8,0.7
	c-1-3.3,1.8-6.3,3-9.5C612.8,254.2,612.8,251.5,611.7,249.2"/>
<path class="st4" d="M589.2,488.9c1.5-3.6,2.4-7.4,2.8-11.3c0-0.3,0-0.5,0.2-0.7c0.4-0.4,1.1-0.1,1.6-0.1c0.9,0,1.4-1.1,1.7-2
	c0.6-2.1,1-4.2,1.3-6.3c0.1-1.1,0.3-2.2,0.8-3.2c0.5-1,1.6-1.7,2.7-1.6c-0.2-0.9,0.4-1.7,1.3-1.9c0.3-0.1,0.6,0,0.9,0.1
	c-0.9,1-0.7,2.5,0.3,3.4c0,0,0,0,0,0c-0.6-0.1-1.2,0.3-1.3,0.8c0,0.1,0,0.2,0,0.4c0.2,0.7,0.7,1.3,1.4,1.5c0.7,0.1,1.4,0.1,2.1,0
	c0.4,2.5,0.5,5.1,0.4,7.7c0.8-0.6,1.9,0.2,2.2,1.2c0,1-0.1,2-0.3,2.9c-0.6,4.4,3.5,8.5,2.7,12.9c-3.9-0.9-7.7-1.7-11.6-2.5
	c-1.4-0.3-2.8-0.5-4.1-0.8c-1-0.3-2.1-0.4-3.2-0.5c-0.7-0.1-1.4,0.2-1.9,0.6c-0.3,0.2-0.5,0.6-0.6,0.9c-0.1,0.2-0.2,0.5-0.2,0.7
	c-0.4,1.5-0.7,3.1-1,4.6c-0.2,1-0.5,2-0.7,3c-0.6,2.5-1.1,5-1.7,7.5s-1,5.2-1.6,7.8c1.5-1,3.1-2.1,5-2.1c1.3,0.1,2.6,0.4,3.8,1
	c0.7,0.3,1.5,0.7,1.7,1.4c0.1,0.7-0.1,1.4-0.6,1.9c-0.8,1.1-1.8,2-2.9,2.7c2.5,0.1,4.8,1.2,6.3,3.2c0.2,0.4,0.5,0.8,0.9,1.1
	c0.8,0.6,2,0.4,2.6-0.4c0.1-0.3,0.3-0.6,0.6-0.8c0.5-0.3,1.2,0.1,1.7,0.5c1.9,1.1,4.7,0.6,5.9,2.4c1,1.6-1.8,4.1-3.7,4.3
	c-0.4,0-0.9,0-1.3,0.2c-0.6,0.5-1,1.3-1.1,2.1c-0.5,1.7-1.9,3-3.7,3.3c-0.9,0.1-1.7,0.2-2.6,0.4c-2.2,0.8-2.7,3.6-2.8,5.9l-0.9,13.5
	c-0.9,0-1.9,0-2.8,0.1c0.2,2.6-0.4,5.2-1.7,7.4c-0.8-0.3-1.7-0.5-2.5-0.8c-0.6,0.8-0.7,1.8-0.3,2.7c0.4,0.9,0.8,1.8,1.1,2.7
	c0.3,1.9-1,4-0.1,5.7c0.2,0.4,0.6,0.9,0.5,1.3c-0.2,0.8-1.2,0.8-2,0.9c-1.2,0.2-2.2,1-2.7,2.1c0.3,0.7,1.2,0.9,1.8,1.4
	c1.1,1,0.3,2.7,0.4,4.2c0.1,2.7,3,4.2,4.5,6.5c-4.1,0.9-8.2,1.2-12.4,0.9c-0.3,0-0.6,0-0.9,0.2c-0.2,0.2-0.2,0.5-0.1,0.8
	c0.6,4.1,1.9,8.1,3.7,11.9c-1.9-0.1-4.2,0.2-6.2,0.2c0.9,3.4,1.8,6.8,2.6,10.3c-1.6,0-3.2,0.3-4.6,1.1c0.7,2.4,1.5,4.9,2.2,7.3
	c-0.5,0.1-0.9,0.1-1.4,0.2c-0.3,3.2,2.5,5.9,3.2,9.1c-1,0-2,0-3-0.2c1.7,2.6,3.1,5.4,4.1,8.4l-2.3,0.6c-0.3,0.1-0.6,0.1-0.9,0
	c-0.3-0.2-0.4-0.6-0.5-0.9c-0.4-1.6-1.2-3.1-2.3-4.3v2.4h-1.2c0.6,0.3,1.3,1,1,1.6c-0.2,0.4-0.8,0.6-0.9,1c-0.3,0.9,1.6,1.7,1,2.5
	c-0.3,0.3-0.6,0.5-1,0.5c-0.9,0.3-1.5,1-1.6,1.9c0.5-0.2,0.9-0.2,1.4,0c0.4,0.2,0.8,0.7,0.6,1.1c-0.4,1-2.3,0.3-2.6,1.3
	c2,6.9,3.2,14,3.8,21.2c0.1,0.5,0,1-0.2,1.4c-0.3,0.5-0.9,0.6-1.3,1s-0.7,1.1-0.3,1.4c1-0.1,2,0.5,2.4,1.5c0.4,0.9,0.6,2,0.5,3
	c0.1,0.8-0.1,1.5-0.4,2.2c-0.4,0.6-1.5,0.9-1.9,0.3c-0.1,0.6-0.1,1.2-0.2,1.8c-1.4-0.1-2.2,1.6-2.4,3c-0.6,3.6-0.4,7.3,0.4,10.8
	c-0.6,0.1-1.1,0.3-1.7,0.4c0,0.7-0.1,1.4-0.1,2.2l-2.7,0.3c0.3-1.4-0.4-2.9-1.6-3.6c-0.9,1.8-3.6,1.1-5.4,1.9
	c-1.5,0.8-2.1,2.7-1.3,4.3c0,0,0,0,0,0l6.2-0.3c0.7-0.1,1.4,0,2.1,0.2c1,0.4,1.7,1.4,1.7,2.5c0,2.3-2.8,3.7-5,3.3s-4.1-2-6-3.2
	c-3.6-2.2-7.7-3.3-11.8-4.4c0.9,5.6,1.4,11.3,1.4,17c2.3-0.3,4.6-0.6,6.8-0.8c0.4-0.1,0.9-0.1,1.2,0.2c0.3,0.2,0.4,0.7,0.5,1
	c0.3,1.7,0.6,3.5,0.8,5.2c2.7-0.4,5.3-0.9,8-1.3c-0.1,0.7-0.5,1.4-1.2,1.7c0.4,0.8,0.6,1.6,0.6,2.5c-0.1,0.8-0.9,1.7-1.7,1.5
	c-0.3-0.1-0.7-0.2-1-0.3c-0.4,0-0.8,0.3-0.7,0.6c0.7,0,1.3,0.1,2,0.1c0.2,2.2,0.4,4.5,0.6,6.7c-1.4,1.3-0.7,3.6,0,5.4
	c-0.4,0.1-0.8,0.2-1.2,0.2c-0.1,1.2-0.1,2.4-0.2,3.6c0.8-0.2,1.1,1.1,0.9,1.9c-0.4,2-0.8,4.1-1.2,6.1c-0.9,4.4,1.7,8.9,2.7,13.2
	c0.2,1.1,0.5,2.2,0.9,3.2c0.7,1.3,1.2,2.7,1.5,4.2c0.1,1.1-0.2,2.2,0.3,3.1c0.7-0.1,1.3-0.4,1.9-0.7c0.8,4.1,1.5,8.2,2.3,12.2
	c0.2-0.4,0.7-0.5,1.1-0.4c0.6,3,0.9,6.1,1,9.2c0.1,1.4-0.1,2.8-0.5,4.1c-0.5,1.2-1.4,2.2-1.7,3.4c-0.4,1.5,0.2,3.1,0.6,4.6
	c0.7,2.4,1.3,4.8,1.7,7.2c-0.8-0.1-1.3,0.8-1.2,1.6c0.2,0.7,0.4,1.5,0.7,2.2c0.3,0.8-0.1,1.6-0.9,1.9c-0.2,0-0.4,0-0.6,0.1
	c-0.2,0.1-0.3,0.4-0.1,0.5c0.6,3.3,0.8,6.7,0.5,10c-0.6-0.1-1.2-0.4-1.7-0.8c0,0.7,0.8,1.1,1.5,1.2c0.7,0,1.4,0.2,2,0.6
	c0.3,0.3,0.5,0.8,0.5,1.2c0.5,2.1,0.7,4.2,0.6,6.3c-0.8-0.6-1.9,0-2.4,0.8c-0.4,0.9-0.5,1.9-0.3,2.8c0.4,0.2,0.7,0.5,1.1,0.7
	c0.3-0.5,1-0.6,1.5-0.3c0.4,0.3,0.5,1,0.2,1.4c0,0-0.1,0.1-0.1,0.1c0.7,0.3,1.3,0.9,1.5,1.6c-0.6-0.4-1.4-0.3-1.9,0.3c0,0,0,0,0,0
	c-0.4,0.6-0.7,1.3-0.9,2c-0.7,1.4-2.3,2.2-3.8,2.9c-3.9,1.7-7.8,3.3-11.7,4.8c-4.1,1.6-8.2,2.9-12.4,4c-1.6,0.5-3.3,0.6-5,0.4
	c-0.2,0.4,0.4,0.7,0.8,0.8s1,0,1.2,0.4c0.1,0.2,0,0.5,0,0.8c-0.2,1.1,0.5,2.2,1.5,2.6c-1.7,2.1-4.4,3.1-7,4
	c-4.9,1.7-9.7,3.5-14.6,5.2c-0.6,0.2-1.1,0.4-1.7,0.6c-1.4,0.5-3.1,0.9-4.2,0c-0.7-0.6-0.9-1.5-1.5-2.2c-0.4-0.5-1-0.9-1.5-1.4
	c-1.3-1.4-1.5-3.4-1.7-5.4l-0.9-13.2h-2c-3.8,2.5-9.2,2.3-13.7,2.1c-0.6-0.1-1.1,0-1.6,0.3c-0.5,0.6-0.7,1.4-0.5,2.2
	c0.6,6,1.1,12,1.7,18.1c-4.1,0.7-8,1.9-11.8,3.6c-1.8,0.8-3.7,1.7-5.5,1c-1.4-0.5-2.3-1.9-3.5-2.9c-1.7-1.3-3.6-2.2-5.7-2.6
	c-0.7-0.3-1.5-0.3-2.3-0.2c-0.6,0.3-1.1,0.6-1.6,1.1c-1,0.8-2.3,1.3-3.6,1.3c0.3-3.8,0.7-7.6,1-11.4c0.1-1.1,0.2-2.1,0.4-3.2
	c0.2-1,0.4-2.1,0.7-3.1c0.9-3.7,1.8-7.4,2.7-11.2c0.4-2.3,1.2-4.5,2.4-6.5l-36.8-1.4l2.2-17.2l-4.7-0.4l9.4-48.8l-40.7-3.2v-4
	l11.5,0.6l1.7-13.4l13.7,0.9l0.8-6l-11.5-0.4l0.6-4.1l11.9,0.1v-5.6c-1.9,0.1-3.7-0.2-5.5-0.7c0.4-1.1,0.7-2.1,1-3.2
	c1.2-0.1,2.4-0.1,3.6-0.2c0-0.6-0.1-1.2-0.3-1.8c0-0.1-0.1-0.2-0.2-0.2c-0.1-0.1-0.2,0-0.4,0c-0.2,0-0.4-0.1-0.6-0.2
	c-1.3-0.4-2.6,1.4-3.8,0.8c-0.5-0.2-0.8-0.7-0.8-1.2c-0.1-0.5,0-1,0.1-1.5c0-0.2,0.1-0.3,0.2-0.4c0.1-0.1,0.2-0.1,0.3-0.1
	c2.8-0.4,5.7-0.7,8.5-1l0.4-11.3h-2.5v1h-1.9v-1l-27.9-3.1l-5.7-6.8l7.3-21.6l34,4c0.2-1.3,0.2-2.7,0.4-4c0.9-0.1,1.5-0.8,1.7-1.6
	c0.2-0.8,0.2-1.7,0-2.5l-1.7-0.3c-0.2,0-0.4-0.1-0.5-0.2c-0.1-0.2-0.1-0.3,0-0.5c0.4-1.5,0.7-3,1.1-4.5c0.2-1.2,0.6-2.3,1.2-3.3
	c0.6-1,1.8-1.6,3-1.4c0.4,0.1,0.7,0.2,1.1,0.2c0.8-0.2,0.8-1.4,0.6-2.2c-0.7-0.2-1.3-0.4-1.9-0.8c-0.3-3.8,2.3-7.2,2.6-11
	c0-0.3,0-0.7-0.2-1c-0.2-0.3-0.6-0.4-0.9-0.2c0,0,0,0,0,0c0.1,1.3-0.7,2.4-1.9,2.8c0.1-2.6,0.4-5.1,0.9-7.6c0-0.2,0.1-0.4,0.3-0.5
	c0.2-0.1,0.5,0,0.8,0c0.5-0.1,1-0.5,1.1-1c0.1-0.5,0-1.1-0.3-1.5c-0.3-0.5-0.5-1-0.6-1.6c0-0.6,0.6-1.2,1.1-0.9
	c0.4-2.5,0.4-5.3,0.9-7.8c0.5-1.8,0.5-3.8,0-5.6c-0.4-1.1-1.1-2.1-1.4-3.2c-0.2-1.4,0-2.7,0.5-4c1.7-5.4,3.5-10.7,5.1-16.1
	c-1-0.6-1.7-1.6-2.1-2.7c-0.8-2.3,0-4.8,0.8-7.1c0.4-1,0.7-2,1.1-3.1s1.1-2.3,2.2-2c-0.2,1.4,0.8,2.6,2.2,2.7c0.3,0,0.5,0,0.8,0
	c-0.2-2.8-0.3-5.8-0.5-8.6c0-0.6,0-1.3,0.5-1.4s1.1,0.5,1.8,0.5s1.1-1,1.1-1.7c-0.2-0.5-0.9-0.6-1.4-0.5c-0.5,0.2-1.1,0.2-1.6,0.2
	c-1.1-0.2-1.5-1.5-1.7-2.6c-0.7-3.1-1.1-6.2-1.2-9.4c0.5,0,0.9,0.3,1,0.8c1.6,0,2.6-1.9,2.4-3.4c-0.1-1.2-0.5-2.7,0.6-3.2
	c0.7-0.3,1.6,0.1,2.3-0.2c1-0.5,0.7-1.9,0.2-2.9c-0.7-1.4-1.3-2.9-2-4.3c1.3,0.2,2.6-0.1,3.8-0.7c-1.5-0.7-3.3-0.8-4.9-0.5
	c-0.7-1.7-1.2-3.4-1.4-5.2c3,0.1,5.9-0.2,8.8-1c0-1.5,0-3-0.2-4.5c0.5,0.1,0.9,0.1,1.4,0V544c0.5,0,0.9-0.1,1.4-0.1
	c0-1.4,0.2-2.9,0.7-4.2c0.8,0.1,1.4-0.8,1.5-1.6s0.2-1.7,0.9-2.2c0.2-0.2,0.6-0.3,0.7-0.6c0.2-0.3,0.2-0.6,0.2-0.9
	c0.1-2.7,0.1-5.3,0.2-8c0.9-0.2,1.9-0.2,2.8,0c0.8,0.2,1.3-0.8,1.2-1.6c-0.2-0.8-0.5-1.5-1-2.2c-0.8-1.5-1.1-3.1-0.9-4.8
	c0.7,0.1,1.4-0.1,2-0.4c0.6-0.4,0.9-1.1,0.6-1.8c3.7-0.8,7.4-1.1,11.2-0.8c0.4-2.4,0-4.9-1.1-7.1c-0.7-1-1.3-2.1-1.6-3.3
	c-0.3-1.5,0.2-3.2-0.7-4.4c-0.3-0.4-0.8-0.8-0.8-1.3s0.4-0.9,0.6-1.3c1.1-1.8,1.2-4,0.5-5.9c-0.6-1.9-1.4-3.9-1.3-6
	c0-1.9,0.8-3.8,0.5-5.7c-0.3-1.6-1.5-3-1.8-4.6c-0.1-0.8-0.1-1.6-0.1-2.4c0-1.8-0.5-3.7-1.3-5.3c-1,0.2-2,0-2.9-0.5
	c-0.8-0.6-1.1-2-0.2-2.5c0.3-0.2,0.8-0.2,1-0.5s0.1-0.8,0-1.2l-6-19.5c-0.1-0.5-0.4-1-0.7-1.4c-0.9-0.9-2.5-0.4-3.6,0.2
	c-1.5-4.5-3.8-8.7-5.7-13.1c-0.5-0.3-1,0.3-1.6,0.4c-0.8,0.1-1.3-0.9-1.5-1.6c-0.4-1.5-0.7-3-0.9-4.6c-1.2,0.1-2.3,0.2-3.5,0.2
	c-0.3-1-0.4-2.1-0.3-3.1c0.8,0.1,1.5-0.2,2.1-0.7c-0.5-3.2-1.5-6.4-2.9-9.3c-0.7,0.4-1.6,0.6-2.4,0.7v-0.7c-0.4,0-0.7-0.2-0.9-0.5
	c0.2-0.2,0.5-0.3,0.7-0.5c-0.6-0.4-1.3-0.5-2-0.5v-2.7c-0.9,0.1-1.7,0.4-2.4,0.9c-1.8-4.1-3.3-8.3-4.5-12.6c0.7,0.6,1.8-0.2,1.9-1.1
	c0-0.9-0.4-1.7-1-2.4c-0.2-0.2-0.4-0.5-0.6-0.5c-0.6,0-1,1.1-1.6,0.8c-0.3-0.5-0.7-1.1-1-1.6c-1.1-1.8-2.3-4-1.4-5.9
	c0.8-1.6-0.2-3.5-0.3-5.3c0-0.3,0-0.6-0.2-0.9c-0.4-0.6-1.4-0.3-2.2-0.4c-1.2-0.2-2.1-1.2-2.2-2.4c-0.1-1.1,0-2.3,0.4-3.4
	c0.6-2.1,1.2-4.1,1.7-6.2c-0.6,0.1-1.2,0.1-1.7,0.2c0.2-1.3,0.2-2.7,0.1-4c-1.1,0.2-2.1,0.2-3.2,0.1c0.3-0.9,0.3-1.8,0.1-2.7
	c-0.2-0.9-1.1-1.4-1.9-1.2c-0.1,0-0.1,0-0.2,0c-0.4-0.9-0.4-2-0.1-2.9c0.4-1.6,0.8-3.2,1.3-4.8c-2-0.6-4.1-0.8-6.2-0.8
	c-0.7-3.7,0.8-7.4,3.7-9.7c0.9-0.7,1.9-1.3,3-1.7c2.1-1.1,4.5-1.8,6.9-1.9c0.1-2.7,0.3-5.4,0.4-8.1c-1.3-0.1-2.6-0.1-3.8-0.2
	c-0.4-3-0.5-5.9-0.4-8.9l-20.9-3.6c0.2-3.4,0.6-6.8,1.4-10.1c-0.6,0-1.1,0-1.7-0.1c0.1-2.9,0.4-5.9,0.7-8.8c-1.3,0-2.6,0-3.8-0.1
	c-0.2-2.5-0.1-5.1,0.3-7.6c-1.5-0.9-2.9-2.2-3.9-3.6c-0.1-0.2-0.2-0.4-0.2-0.6c0-0.5,0.6-0.8,1.1-0.9s1.1,0,1.5-0.3
	c0.6-0.6,0.8-1.5,0.5-2.3c-0.3-1.6-0.5-3.2-0.8-4.8c-1.5,0.4-3.1,0.5-4.6,0.4c-0.3-3.4-0.2-6.8,0.4-10.2c1.8-0.4,3.9,0.8,5.4-0.2
	c1.3-0.8,1.5-2.8,2.8-3.7c-2,0.1-3.9,0.6-5.7,1.5c0.5-1.7,0.6-3.5,0.5-5.2c-0.8,0.3-1.4-0.7-1.4-1.5c-0.1-1.5,0.2-3.1,0.7-4.5
	c0.6-2.1,1-4.2,1.4-6.3c0.2-0.5,0.1-1.1-0.2-1.6c-0.5-0.4-1.1-0.7-1.7-0.7c-0.6-0.1-1.3-0.5-1.3-1.1c0.1-0.5,0.5-0.9,1-1
	c0.5,0,1,0.1,1.5,0.3c2.1,0.8,4.1,1.7,6.2,2.5c0.6,0.3,1.4,0.4,2.1,0.3c0.5-0.3,0.8-0.6,1.1-1.1c0.5-0.8,1-1.5,1.5-2.3
	c0.5-0.7,0.9-1.5,1.2-2.4c0.2-0.8,0.1-1.7,0.3-2.4c0.3-0.7,0.6-1.3,1.1-1.8c0.5-0.8,0.8-1.8,0.8-2.8c0-0.2,0-0.3-0.1-0.5
	c-0.1-0.1-0.2-0.1-0.3-0.2c-1-0.4-1.9-0.7-2.9-1.1c0.3-1.4,0.8-2.8,1.2-4.1c0.2-0.7,0.6-1.3,1.1-1.7c0.9-0.6,2-0.2,2.9,0.1
	c2,0.8,4.3,1.8,4.7,3.9c0.3,1.7-0.9,3.4-1,5.2c-0.3,0-0.4,0.5-0.7,0.5c1.8,2,4.4,3,7.1,2.8c1.2-3.5,1.1-7.2-0.1-10.7
	c2.7-2.2,4.4-5.3,4.8-8.7l6.8,0.9c1.5-3.3,3-6.7,4.5-10c0.7-1.5,1.4-3.1,2.9-3.9s3.2-0.5,4.7-1.1c2-0.7,3.3-2.6,5-3.7
	c3.1-1.7,7-1,9.2,1.8c0.3,0.6,0.8,1.2,1.3,1.7c1,0.8,2.4,0.9,3.6,1.2c2.5,0.6,4.7,2.3,5.9,4.6c0.6,1.1,0.9,2.6,0,3.5
	c-0.5,0.6-1.4,0.7-2.1,1c-2.9,1.3-4.2,4.6-2.9,7.5c0.4,0.6,0.7,1.2,0.9,1.9c0.5,2.4-2.9,4.7-1.9,7c0.4,0.8,1,1.4,1.8,1.7
	c6.7,4,13.8,8.2,21.7,8.3c-0.1-1.9,0.2-3.8,0.9-5.6c0.1-0.4,0.4-0.7,0.7-1c1.6-0.9,3.2,2.4,4.8,1.6c0.4-2.4,3.4-3.3,5.9-3.3
	s5.2,0.4,7-1.2c1.4-1.3,2.1-3.7,4-4s3.3,1.7,4.9,2.9c2.3,1.8,5.5,2,7.7,3.9c1.2,1.2,2.2,2.5,2.9,4c1.1,1.7,1.8,3.7,2.1,5.7
	c0.2,3-1.5,5.8-2.9,8.5c-1,1.6-1.5,3.5-1.5,5.4c0,1.9,1.3,3.6,3.2,4.1c1.3,0.2,2.9-0.4,4,0.3c1.4,0.9,1.2,3,0.2,4.4
	s-2.4,2.3-3.2,3.7c-0.6,1.4-1,2.8-1.4,4.3c-1.5,3.8-5.6,5.6-9.1,7.6c-3.7,2.1-7.1,4.8-10.1,7.9c-2.3,2.4-4.6,5.2-7.9,5.4
	s-5.9-2.3-8.7-4c-3.2-1.9-6.8-2.7-10.5-2.4c0.6,4.2,3.3,7.8,7.1,9.7c1.5,0.7,3.2,1.1,4.4,2.2s1.8,3.2,0.6,4.4
	c-0.9,0.6-1.9,0.9-3,1.1c-1,0.3-2.1,1.3-1.7,2.3c0.5,1.4,2.6,0.7,4,0.9c2.1,0.4,3,3.3,2.1,5.2s-3,3.1-4.9,4.1c-1.1-4-5-6.6-9.1-6.2
	c-1.5,1.9-3,3.9-4.5,5.8c4.1,1.6,4.4,8.1,8.4,9.8c6-1.3,10.8-3.7,16.3-6.6c1.3-0.7,2.6-1.3,4-1.8c1.5-0.3,3.1-0.5,4.7-0.4h7.5
	c1.7,0,4.1,0.6,3.9,2.3c-2.4,0.7-4.3,2.7-4.8,5.2c-0.5,2.7,0.7,5.3,1.8,7.8c4.2,0.4,7.7-3.3,9.4-7.1s2.5-8.1,5-11.6
	c1.1-1.5,2.6-3,2.6-4.9c0.1-3.1-3.5-5.3-3.3-8.4c0.2-0.8,0.4-1.6,0.6-2.4c0.4-1.9,0.8-3.9,1-5.8c0.4-1.9,1.6-3.9,3.5-4.5
	c1.2,0.9,1.6,2.5,1,3.9c1.9,0.5,3.1,2.6,3.3,4.6c0.1,2-0.3,4-1,5.9c-1.3,0.1-2.3,1-2.6,2.3c0.9,0.6,0.8,1.9,0.4,2.9s-1,2-0.7,3.1
	c0.8,0.4,1.7,0.2,2.2-0.6c0.4-0.8,0.6-1.6,0.6-2.5c0.1-1.3,0.6-2.6,1.5-3.6c0.9-1,2.4-1.3,3.6-0.6c1.1,0.7,1.3,2.7,0.1,3.3
	c0.9,0.7,1.8,1.5,2.7,2.2c-0.5,0.7-1.5,1-2.3,0.7c0,1.5-0.1,2.9-0.1,4.4c-2.3,0.7-4.6,1.3-6.8,2c-1.8,0.4-3.4,1.2-4.8,2.4
	c-1.3,1.4-1.7,3.3-2.1,5.2c2,0.1,4,0.6,5.9,1.4c-0.6-0.7-0.8-1.5-0.6-2.4c1.8,0.3,3.6,0.6,5.4,0.7c0.7,0.1,1.8-0.3,1.5-1
	c1.5,0.9,3,1.6,4.6,2.2c-0.8,0.7-1.9,1-2.9,0.8c0.2,0.6,0.9,0.9,1.5,0.7c0,0,0,0,0,0c0.6-0.2,1.1-0.6,1.8-0.8c1.3-0.3,2.6,1,2.9,2.3
	c0.1,1.4,0.2,2.7,0.1,4.1c0.1,1.4,0.6,2.9,1.9,3.4c-0.6,0-1.2,0-1.8-0.1c0.4,3.8,1.8,7.4,3.9,10.6c1.4,2,3.1,4.4,2.3,6.7
	c-1,0.2-1.9,0.7-2.7,1.3c1.8,0,3.5,0,5.3,0.1v3c-1,0-2.7,0.1-3.7,0.2c2.9,1.7,5.5,4.1,7.5,6.8c-0.7,0.2-1.4,0.3-2,0.5
	c1.2,0.1,1.8,1.5,2.1,2.6s0.4,2.5,1.4,3.2c0.4,0.3,1,0.4,1.4,0.7c1.6,1,1.7,3.5,3.4,4.3c0.6,0.2,1.2,0.2,1.8,0.4s1.1,0.8,1,1.3
	c-1.5,0.4-2.5,1.9-2.1,3.4c0.1,0.4,0.2,0.7,0.4,1c1.1,0.1,2,0.9,2.2,2c1,0,1.9,0.3,2.7,0.8c0.2,0.1,0.3,0.3,0.4,0.5
	c0,0.2,0,0.3-0.1,0.5c-0.5,1.1-1,2.1-1.4,3.2c2,0.4,4,1,5.9,1.8c-0.7,0.6-1.3,1.2-1.9,1.9c1.3-0.1,2.6,0.1,3.8,0.7
	c-0.5,3-0.2,6,0.8,8.9c1.7-0.1,3.3-0.3,5-0.4v3l4-0.3c1.6,7.3,2.8,14.6,3.6,22c-0.7,0-1.3-0.1-2-0.1c0.8,2,0.9,4.2,0.2,6.3
	c1.4,0.5,2.7,1.1,3.9,1.8c-0.8-0.4-1.7,1.1-1.9,2.1s-0.3,2.1-1.2,2.3c0.4,0,0.7,0.1,1.1,0.1c0,1.1,0.3,2.2,0.9,3.2
	c1.1-0.7,2.4-0.9,3.7-0.8c0.4,1.5,0.5,3.2,0.1,4.7c-0.4,1.3-0.9,2.6-1.5,3.8c-0.4,0.8-0.8,1.7-1.2,2.5c1-0.2,2-0.2,3-0.1
	c0.2,3.5-0.8,6.9-2.8,9.8c-1.2,0.2-2.3,0.2-3.5,0c-0.9,3.9-1.2,8-2,11.9c-0.5,2.5-1.2,4.9-1.8,7.3s-1.2,4.5-1.7,6.8"/>
<path class="st4" d="M598.5,510.9c1.1,0.3,2.3,0.5,3.4,0.8c1.3,0.3,2.7,0.8,3.1,2c0.1,0.5,0.1,1,0,1.5c0,0.4-0.1,0.8-0.4,1
	c-0.2,0.1-0.5,0.1-0.7,0.1c-2.9,0-5.8-0.4-8.6-1.4c-0.2-0.1-0.5-0.2-0.6-0.4c-0.1-0.2-0.1-0.5-0.1-0.7v-3.2c0-0.6,0-1.1,0.2-1.7
	c0.2-0.5,0.6-0.9,1.1-1c0.6-0.1,1.1,0.3,1.7,0.4c0.4,0.1,0.7,0.1,0.8,0.5S598.4,510.9,598.5,510.9z"/>
</svg>
